<svg fill="none" height="63" viewBox="0 0 454 63" width="454" xmlns="http://www.w3.org/2000/svg"><g fill="#fff"><path d="m201.972 4.87289c.468.36925 2.462 1.84625 3.446 3.12631l1.871-1.87086c-.837-.93543-1.821-1.87086-3.52-3.10169zm-.566 5.31721c.566.3938 2.068 1.4277 3.323 2.7817l1.723-1.7971c-1.107-1.35386-2.412-2.33853-3.372-2.97856zm6.302 6.0311v5.9818h2.683v-6.4988l2.585-.4923-.468-2.2401-2.117.3938v-11.10207c0-.1477.64-.56618.64-.71388 0-.27078-.271-.2954-.862-.2954l-2.461-.04923v12.65298l-7.705 1.4523 1.403-1.8462c-1.083-.8616-2.462-2.0186-3.422-3.52018v-.39387h3.373v-2.19088h-3.521v-3.00323c.739-.24616 1.896-.68926 2.634-.93543.123-.04923.148-.04923.493-.04923.147 0 .271-.02462.271-.17232 0-.09846-.074-.17231-.148-.27078l-1.354-1.72316c-2.585 1.15698-5.17 1.79701-8.148 2.19088l1.083 2.06779c.542-.07385 1.108-.12308 2.708-.4431v2.33858h-3.594v2.19088h3.397c-.419 1.50165-1.256 4.35715-3.545 7.40965l2.166 1.4031c.837-1.3785 1.231-2.3386 1.576-3.2002v7.1635h2.461v-9.182c.222.3692.714 1.1816 2.019 2.3632l.049-.0493.443 2.1663z"/><path d="m232.226 1.15578c-.812 1.96933-1.256 2.97861-2.314 4.80024h-12.604v5.51408h2.511v-3.22473h14.844v3.22473h2.585v-5.51408h-4.702c.763-1.35391 1.305-2.46166 1.6-2.97861.123-.22155.222-.49233.295-.51695.296-.07385.394-.12308.394-.24616 0-.17232-.271-.27079-.369-.2954zm.148 8.61582h-11.398v2.0432h7.385c-.271.2954-.542.5662-1.28 1.157l-.985-.197v1.6986h-8.665v2.1909h8.665v2.8063c0 .6154-.418.7384-.738.7384-.665 0-1.354-.0246-2.019-.0492l1.206 2.5848c3.496 0 4.136-.3939 4.136-3.1017v-2.9786h8.788v-2.1909h-8.813c1.871-1.4524 2.807-2.1909 4.702-3.791zm-13.515-7.23729c.665.76312 1.231 1.477 2.363 3.32325l2.043-1.15698c-.443-.81235-.91-1.67393-2.437-3.5448zm5.317-.81235c1.108 1.35392 1.674 2.28935 2.29 3.79097l2.19-1.13237c-.787-1.79701-1.378-2.68321-2.363-3.79096z"/><path d="m255.661 4.97136c.123-.39387.443-2.16626.566-2.56013.025-.12308.492-.5908.492-.71388 0-.22155-.098-.22155-.935-.34463l-2.019-.27079c-.073.7385-.467 5.34181-2.707 8.46812v-4.72639h-3.348c.172-.66465.837-2.83091.861-2.90476.025-.07385.394-.36925.394-.46772 0-.22155-.074-.24616-.837-.34463l-2.117-.295401c-.049.393871-.344 2.190881-.837 4.012511h-2.683v17.05934h2.462v-1.797h3.692v1.2308h2.413v-11.52058l2.24 1.40318c.861-1.4278 1.674-3.93869 1.698-3.98793h5.268c-.098 3.22473-.197 6.96653-.837 10.19133-.369 1.7724-1.304 1.9447-2.289 1.9447-.345 0-.739-.0246-1.428-.0493l.616 2.7079c2.51-.0493 4.16-.0985 5.071-2.4125 1.206-3.077 1.304-10.88051 1.329-14.62224zm-7.016 6.32644h-3.692v-4.28326h3.692zm0 6.5973h-3.692v-4.4064h3.692zm5.243-6.7942c.788 1.0831 1.601 2.7078 2.142 4.3818l2.24-1.157c-.591-1.7232-1.255-2.9048-2.289-4.4064z"/><path d="m25.9445 41.4655c-.9847-.9231-1.9694-1.6616-3.4771-2.4309l-1.0462 1.6309c1.7539 1.0769 2.7078 1.9693 3.3232 2.5539zm-21.20109-3.5386v3.2001h15.13919v-3.2001zm.7385 24.7397c4.83099-2.1848 8.58509-4.4003 9.04659-13.8161h9.3236v-3.2002h-23.262745v3.2002h10.431245c-.3384 6.0926-1.53849 9.0774-8.24652 11.0467zm21.38569-25.2628c-.6462-.5847-1.8155-1.5078-3.5386-2.2155l-1.0155 1.6924c1.5386.8615 2.3386 1.4462 3.4156 2.2462z"/><path d="m32.7448 47.5889v3.4155h22.0934v-3.4155z"/><path d="m68.5312 62.4819c6.1234-2.4924 8.862-5.631 10.4006-7.4465.8.6462 1.9693 2.0617 2.2462 2.4001l2.3386-2.8309c-.7077-.7077-1.7539-1.6308-2.6155-2.2462.6154-.9539 2.1232-3.2925 3.5694-7.1696.4-1.0462.5539-1.3539 1.6616-2.3078l-2.6463-2.3694c-.5231.4308-1.1693.8616-1.8154.8616h-6.9542c.3384-.6462.6461-1.2308.9846-1.9078.4308-.8308.4924-.8924.8616-.9847.2154-.0307.4308-.123.4308-.3384 0-.1539 0-.277-.8308-.6155l-2.954-1.1692c-1.2308 3.6001-3.4771 8.4619-9.0158 12.339l2.8616 1.9386c2.8617-1.9693 4.9541-5.0156 5.8157-6.3388h8.3389c-.8924 2.8309-2.0924 4.8618-2.8617 6.0926-2.0001-1.3539-3.7848-2.4309-5.6003-3.2309l-1.9385 2.277c1.6308.7385 3.3848 1.7847 5.6618 3.5079-2.2155 2.5232-5.3234 5.1695-10.3698 6.8311z"/><path d="m116.38 42.3271c-.677-.8616-1.57-1.8463-3.262-2.8002l-1.446 1.4155c1.261.8924 2.277 1.7539 3.138 2.8309zm3.754-2.0924c-1.446-1.8155-2.616-2.6155-3.354-3.0463l-1.354 1.4462c1.385 1.0462 2.308 1.9693 3.139 2.954zm-15.109 6.8311v-8.2466c0-.1846 0-.2154.37-.5231.123-.0923.277-.2462.277-.4 0-.2462-.339-.3693-1.262-.5231l-2.769-.4616v24.8936h3.384v-13.3545c2.401 1.0769 5.231 2.3078 8.893 6.4926l2.246-3.1078c-3.015-3.0156-6.185-5.1388-10.031-6.7696z"/><path d="m129.734 52.1122h3.508v-13.1699c0-.1846.616-.7693.616-.9231 0-.277-.37-.3385-1.354-.4l-2.77-.1539zm12.432-5.8465c0 9.0467-4.462 11.6929-8.77 13.2007l2.462 3.0155c2.738-1.4154 8.585-4.4617 9.477-12.0621.246-2.2155.431-8.9235.431-11.416 0-.5538 0-.5846.215-.8.277-.2462.462-.4.462-.5231 0-.4308-.4-.4308-1.2-.4616l-3.077-.1538z"/><path d="m179.152 37.1576c-1.169-1.3847-2.092-2.154-3.046-2.7386l-1.385 1.3847c.954.7077 1.785 1.4154 2.8 2.7386zm4.462-.0923c-.923-1.3232-1.723-2.0617-2.769-2.8002l-1.416 1.2309c1.262 1.1693 2 2.0308 2.677 2.954zm-8.093 5.8464c-1.846 6.8311-5.108 12.2468-14.124 16.1855l2.831 2.7386c10.032-4.9849 12.678-12.0314 13.878-15.5085 1.323-3.7848 1.323-3.7848 2.185-4.4002l-2.862-2.8309c-.585.6154-1.108.6154-1.508.6154h-16.985v3.2001z"/><path d="m198.261 42.604c-1.262-1.3847-3.323-3.3848-5.631-5.1079l-2.37 2.7386c2.647 1.9078 4.647 4.3387 5.416 5.2925zm13.447.9847c-3.539 4.1848-8.585 10.1851-21.232 13.5084l1.538 3.2924c.4.8616.462.9847.708.9847s.339-.2154.462-.5231c.184-.4.338-.4923 1.846-1.1693 7.57-3.4156 11.662-5.2618 18.401-12.9237z"/><path d="m242.971 51.9583 7.17 7.1696 2.215-2.2155-7.169-7.1696 7.169-7.1695-2.215-2.2155-7.17 7.1695-7.17-7.1695-2.215 2.2155 7.17 7.1695-7.17 7.1696 2.215 2.2155z"/><path d="m277.681 37.8038v3.2001h15.139v-3.2001zm.738 24.7397c4.831-2.1847 8.585-4.4002 9.047-13.8161h9.323v-3.2002h-23.262v3.2002h10.431c-.339 6.0926-1.539 9.0774-8.247 11.0467z"/><path d="m316.452 40.6347c.184-.3077 1.015-1.9386 1.108-1.9693.369-.1847.615-.3077.615-.4616 0-.2154-.123-.2769-1.077-.6462l-2.831-1.077c-1.815 4.8926-4.769 9.0159-8.954 12.0622l3.108 2.0309c2.923-2.2771 5.385-5.8773 6.092-6.9235h8.247c-2.154 6.7696-6.493 12.893-13.97 16.5855l3.262 2.3078c7.631-5.0156 10.492-8.4312 13.754-17.2009.493-1.3539.616-1.4154 1.939-2.3078l-2.831-2.9848c-.677.5847-.831.5847-1.2.5847z"/><path d="m340.268 60.328c5.447-2.5848 12.463-6.8619 16.494-18.6779.215-.6462.246-.7077.769-.9539.154-.0615.338-.1231.338-.2769 0-.3385-.769-.5846-1.138-.7077l-3.077-1.0155c-3.57 13.97-12.924 17.6009-16.186 18.8625z"/><path d="m389.963 39.8039h-21.201v20.4933h3.416v-1.5077h14.247v1.5385h3.538zm-17.785 15.7854v-12.3391h14.247v12.3391z"/><path d="m421.073 39.3115c-1.201-1.1692-2.124-1.8154-3.201-2.4308l-1.354 1.5385c1.231.7385 2.185 1.5385 3.139 2.6155zm-9.293.5539c-2.216-1.6001-4.462-2.4924-6.431-3.1078l-1.724 2.8924c2.585.7693 4.647 1.9694 6.278 3.0771zm-3.2 6.9542c-2.431-1.9693-5.416-3.0155-6.401-3.354l-1.631 3.0155c1.57.5539 3.816 1.477 6.155 3.2925zm15.662-9.7235c-.739-.677-1.969-1.754-3.508-2.4617l-1.231 1.477c2.154 1.2616 2.923 2.1847 3.385 2.7078zm-20.124 24.8012c.092.1231.431.6154.708.6154.246 0 .338-.3077.369-.4615.123-.4616.246-.5847.615-.7693 6.401-3.4463 11.97-6.6157 17.14-14.7084l-2.247-2.9233c-3.446 5.8157-8.616 11.3544-18.708 15.1085z"/><path d="m431.104 47.5889v3.4155h22.093v-3.4155z"/></g></svg>