<svg fill="none" height="120" viewBox="0 0 628 120" width="628" xmlns="http://www.w3.org/2000/svg" xmlns:xlink="http://www.w3.org/1999/xlink"><linearGradient id="a" gradientUnits="userSpaceOnUse" x1="5.62506" x2="332.987" y1="107.766" y2="-99.7166"><stop offset="0" stop-color="#00beff"/><stop offset=".0727487" stop-color="#0fc2ff" stop-opacity=".9054"/><stop offset=".213" stop-color="#37ccff" stop-opacity=".723"/><stop offset=".4067" stop-color="#77dcff" stop-opacity=".4712"/><stop offset=".6437" stop-color="#cef3ff" stop-opacity=".1631"/><stop offset=".7691" stop-color="#fff" stop-opacity="0"/></linearGradient><path d="m199.96 77.4649 8.133 18.8836h10.284l-30.663-70.7667h-10.283l-30.662 70.7667h10.283l8.226-18.8836zm-30.475-9.4418 13.181-30.569 13.181 30.569z" fill="#00beff"/><path d="m228.379 25.5818v70.7667h9.442v-70.7667z" fill="#00beff"/><path d="m275.869 75.1278 16.827 21.2207h12.153l-17.482-21.9685c5.422-1.4023 9.816-4.2068 13.275-8.694 3.552-4.4871 5.422-9.6287 5.422-15.3312 0-6.9177-2.431-12.6202-7.292-17.4813-4.767-4.7677-10.657-7.2917-17.575-7.2917h-28.325v70.7667h9.442v-21.2207zm16.266-35.7105c2.991 2.9914 4.487 6.6373 4.487 10.844 0 4.2068-1.496 7.8526-4.487 10.8441-2.898 2.9914-6.637 4.4872-10.844 4.4872h-18.884v-30.569h18.884c4.207 0 7.853 1.4957 10.844 4.3937z" fill="#00beff"/><g fill="#0076a9"><path d="m390.012 85.9721c6.917-6.9177 10.376-15.3312 10.376-24.9599 0-9.6288-3.459-18.1358-10.376-24.96-6.918-6.9178-15.332-10.3767-24.96-10.3767h-25.895v70.7668h25.895c9.722-.0935 18.042-3.6459 24.96-10.4702zm-24.96.9349h-16.547v-51.8832h16.547c7.198 0 13.274 2.5241 18.416 7.5722 4.954 5.0481 7.572 11.218 7.572 18.4162s-2.524 13.2746-7.572 18.3226c-5.142 4.9547-11.312 7.5722-18.416 7.5722z"/><path d="m431.144 86.907c-3.833 0-7.292-1.4023-10.003-4.1133-1.495-1.4957-2.617-3.2719-3.365-5.3285h36.552c1.589-8.2266-.561-15.3313-6.544-21.4077-4.581-4.5807-10.19-6.9177-16.733-6.9177-6.544 0-12.06 2.2436-16.734 6.9177-4.58 4.6742-6.918 10.1897-6.918 16.7335s2.244 12.0593 6.918 16.7335c4.581 4.5807 10.19 6.9177 16.734 6.9177 6.543 0 12.059-2.2436 16.733-6.9177l-6.731-6.7308c-2.617 2.711-5.983 4.1133-9.909 4.1133zm0-28.3254c3.833 0 7.292 1.4022 10.003 4.1132 1.589 1.5892 2.711 3.2719 3.365 5.3286h-26.829c.747-1.9632 1.869-3.6459 3.365-5.3286 2.898-2.711 6.263-4.1132 10.096-4.1132z"/><path d="m471.622 74.7538 7.853 4.2068c1.215.5609 1.963 1.4957 2.243 2.711.281 1.2153.094 2.4306-.561 3.6458-.747 1.4023-1.963 2.2436-3.739 2.3371s-3.085-.5609-4.02-1.7762l-7.852 5.1416c3.178 4.1133 7.385 6.1699 12.433 5.8894 5.142-.1869 9.068-2.524 11.498-7.1047 1.964-3.4588 2.338-7.1047 1.309-10.844-1.028-3.6459-3.272-6.5438-6.824-8.4135l-7.853-4.2067c-1.215-.5609-1.963-1.4958-2.243-2.711-.281-1.2153-.094-2.4306.561-3.6459.748-1.4022 1.963-2.2436 3.739-2.3371 1.776-.0934 3.085.5609 4.02 1.7762l7.852-5.1416c-3.178-4.1132-7.385-6.1698-12.433-5.7959-5.142.187-9.068 2.524-11.498 7.1047-1.963 3.4589-2.337 7.1047-1.309 10.844 1.122 3.5524 3.365 6.3569 6.824 8.32z"/><path d="m502.939 49.1395v47.209h9.442v-47.209zm.748-21.875c-1.122 1.1218-1.683 2.4305-1.683 4.0198 0 1.5892.561 2.8979 1.683 3.9262 1.028 1.1218 2.337 1.6827 3.926 1.6827 1.59 0 2.898-.5609 4.02-1.6827 1.122-1.0283 1.683-2.337 1.683-3.9262 0-1.5893-.561-2.9915-1.683-4.0198-1.028-1.1218-2.43-1.6827-4.02-1.6827-1.589 0-2.898.5609-3.926 1.6827z"/><path d="m561.086 96.3487c0 3.8333-1.402 7.2913-4.113 10.0023s-6.17 4.114-10.003 4.114-7.292-1.403-10.003-4.114l-6.73 6.731c4.674 4.581 10.189 6.918 16.733 6.918s12.059-2.244 16.734-6.918c4.58-4.674 6.917-10.283 6.917-16.7333v-47.2089h-4.674l-4.674 4.6741c-4.113-3.0849-8.881-4.6741-14.116-4.6741-6.544 0-12.059 2.2436-16.733 6.9177-4.581 4.6742-6.918 10.1897-6.918 16.7335s2.243 12.0593 6.918 16.7335c4.674 4.5807 10.189 6.9177 16.733 6.9177 5.142 0 9.909-1.5892 14.116-4.6741v4.5806zm-24.119-13.6485c-2.711-2.711-4.113-6.1699-4.113-10.0027s1.402-7.2917 4.113-10.0027 6.17-4.1132 10.003-4.1132 7.292 1.4022 10.003 4.1132 4.113 6.1699 4.113 10.0027-1.402 7.2917-4.113 10.0027-6.17 4.1133-10.003 4.1133-7.292-1.3088-10.003-4.1133z"/><path d="m594.459 62.5078c2.711-2.6175 5.983-3.9263 9.816-3.9263 3.832 0 7.291 1.4023 10.002 4.1133s4.113 6.1699 4.113 10.0027v23.5577h9.442v-23.5577c0-6.5438-2.243-12.0593-6.917-16.7335-4.675-4.5807-10.19-6.9177-16.734-6.9177-5.142 0-9.909 1.5892-14.116 4.6741l-4.674-4.6741h-4.674v47.2089h9.442v-24.1186c.093-3.7393 1.589-6.9178 4.3-9.6288z"/></g><path d="m153.219.154533c-1.963.28045-2.711.373933-4.113.747865-4.394.934832-11.966 3.271912-17.108 5.048092-24.492 8.88091-41.7868 28.60581-58.4268 47.67641-19.351 22.062-40.6651 35.7105-69.55143 42.5348-.84134.187-4.01977.8414-4.01977.8414s2.99146.4674 9.81573.4674c33.84087 0 69.55147-4.0198 96.47427-33.1865 15.051-16.0791 20.941-38.6086 36.272-53.9398 3.926-3.9263 7.198-6.45034 11.031-9.06787.841-.560898 1.776-1.2152798 1.776-1.2152798s-.374-.1869662-2.15.0934828z" fill="url(#a)"/></svg>