<svg fill="none" height="102" viewBox="0 0 466 102" width="466" xmlns="http://www.w3.org/2000/svg"><g fill="#000"><path d="m12.8369 4.88009-12.144029 32.12001h6.115999l2.376-6.908h13.86003l2.42 6.908h6.072l-12.144-32.12001zm3.3 5.19201 5.324 15.4h-10.692z"/><path d="m37.4236 4.88009v32.12001h5.544v-32.12001z"/><path d="m75.9031 14.0801c-7.2 1.89-14.61 2.67-22.02 3.18l.6 3.33c2.28-.33 4.11-.57 6.24-.9.84-.12 5.01-.78 5.97-.87-2.46 2.07-6.36 5.34-6.36 10.71 0 2.61 1.5 5.28 4.56 6.96 1.26.69 2.79 1.23 5.85 1.68l1.11-3.54c-3.15-.09-8.07-.63-8.07-5.76 0-4.32 3.96-7.5 5.61-8.67 2.67-1.86 4.74-2.34 6.66-2.73zm-.09 10.98c-1.35-1.32-2.73-2.16-3.36-2.55l-1.17 1.53c1.35.87 2.22 1.62 3.18 2.58zm2.25-2.85c-1.2-1.17-2.16-1.86-3.15-2.46l-1.2 1.35c1.08.72 2.19 1.53 3.09 2.55z"/><path d="m121.391 36.6481c-2.772-6.82-5.192-11.748-9.812-18.392l-3.916 2.508c2.376 3.564 3.652 5.676 5.808 9.9-3.52.704-7.084 1.364-13.244 2.156 1.672-5.588 3.916-13.068 4.928-16.808.308-1.144.396-1.54 1.1-1.892.44-.264.748-.396.748-.792 0-.528-.704-.704-1.1-.792l-5.104-1.1c-.528 3.916-1.8479 12.056-5.4559 22-1.056.132-3.08.352-4.268.484l1.012 4.928c.088.528.22.924.528.924.22 0 .396-.176.66-.44.396-.44.616-.616 1.804-.792 10.8679-1.628 16.6319-2.816 20.2839-3.564.528 1.232 1.1 2.64 1.584 4.048zm-21.5599-31.28401h-13.464c.176 1.408.44 3.784.44 9.15201 0 10.384-.924 15.224-4.268 22.484l4.664 1.188c2.2-4.884 4.048-10.78 4.048-23.144v-5.14802h29.6559v-4.53199h-15.84v-2.684c0-.17601.044-.44.176-.616.352-.48401.44-.48401.44-.66 0-.352-.528-.440006-.836-.440006l-5.0159-.175998z"/><path d="m145.195 10.3801v5.676h-16.544v4.268h38.016v-4.268h-16.852v-5.676h12.628v-4.04801h-12.628v-3.388c0-.264 1.144-1.01201 1.144-1.276 0-.44-.572-.484-1.276-.52801l-4.488-.219995v5.412005h-5.896c.264-.572.484-1.012.88-1.848.132-.26401.264-.48401.528-.572.352-.176.748-.264.748-.616 0-.35201-.66-.572-.968-.66l-4.444-1.10001c-1.496 4.79601-3.3 8.14001-5.28 11.13202l4.18 2.156c.484-.748.704-1.144 2.464-4.444zm-10.736 28.688h4.708v-1.76h17.204v1.76h4.708v-15.664h-26.62zm4.708-5.72v-5.984h17.204v5.984z"/><path d="m186.555 6.20008c1.144-.088 2.64-.30799 4.004-.57199.352-.088.968-.22001 1.232-.264.308.088 1.188.484 1.408.484.308 0 .484-.176.484-.396 0-.26401-.22-.572-.528-1.05601l-1.98-2.94799c-1.672.616-5.148 1.93599-12.804 1.93599-1.408 0-2.376-.044-3.3-.08799l1.98 3.388c2.288 0 3.564-.04401 5.632-.176v1.672h-8.668v3.16801h8.668v1.804h-7.084v11.704h7.084v1.936h-7.436v3.08h7.436v2.596c-2.728.264-3.872.352-8.536.704l.528 3.784c.044.44.132.968.484.968.22 0 .836-.968 1.056-1.056.704-.22 14.564-1.892 17.292-2.288-.924 1.144-1.496 1.672-2.728 2.596l4.092 2.816c5.764-6.776 7.656-13.112 8.624-24.728h3.124c-.044 3.828-.22 16.5-2.068 19.052-.44.572-.836.572-4.312.572l2.024 4.4c2.904-.044 6.116-.132 7.26-5.808.484-2.332 1.452-8.448 1.496-22.308h-7.26c0-.924-.044-5.63201-.044-6.68801 0-.572.044-.88001.44-1.144.748-.528.924-.704.924-.924 0-.44001-.616-.48401-1.54-.528l-4.444-.22c.176 1.93599.352 4.57599.264 9.50401h-3.608v4.092h3.388c-.572 10.252-3.344 15.4-4.884 18.304v-2.2c-1.1.088-6.468.616-7.7.748v-2.244h7.656v-3.08h-7.656v-1.936h7.304v-11.704h-7.304v-1.804h8.448v-3.16801h-8.448zm-3.872 11.61602h-3.168v-2.112h3.168zm7.392 0h-3.52v-2.112h3.52zm-7.392 2.42v2.2h-3.168v-2.2zm7.392 0v2.2h-3.52v-2.2z"/><path d="m248.199 30.1361v-19.712h-8.756v-3.65201h16.632v-4.00401h-37.4v4.00401h16.5v3.65201h-8.536v19.712zm-13.024-11.792h-4.4v-4.136h4.4zm4.268 0v-4.136h4.488v4.136zm-4.268 3.652v4.356h-4.4v-4.356zm4.268 0h4.488v4.356h-4.488zm11.616 11.528h-27.236v-21.076c0-.264.088-.572.308-.704.616-.484.704-.528.704-.748 0-.484-.968-.572-1.188-.572l-4.356-.352v28.952h4.532v-1.716h27.236v1.716h4.532v-27.104c0-.484.044-.616.396-.88.396-.308.44-.352.44-.528 0-.352-.44-.396-1.276-.484l-4.092-.48401z"/><path d="m284.913 21.8201c-2.01 1.44-4.5 2.49-5.25 2.79-.45-1.71-1.26-3.36-4.05-3.36-1.29 0-2.13.33-2.61.51.54-.75.99-1.47 1.56-2.61 1.41-.15 4.92-.57 7.23-1.14l.36-3.21c-1.59.72-4.59 1.32-6.18 1.5.12-.27.9-1.98 1.02-2.04.6-.42.66-.48.66-.63s0-.27-1.08-.45l-2.91-.51c-.27 1.35-.78 2.76-1.23 3.99-1.23.03-1.32.03-2.07.03-1.32 0-2.58-.03-3.9-.18l.42 3.12c1.41.06 3.84-.09 4.23-.12-.78 1.59-2.52 4.62-5.97 8.07l2.76 1.8c1.38-2.16 3.84-5.64 6.6-5.64 1.77 0 2.16 1.41 2.37 2.13-2.76 1.41-7.17 3.6-7.17 7.86 0 4.2 4.92 4.59 8.34 4.59 2.82 0 4.98-.33 6.78-.63v-3.24c-4.05.93-6.66 1.05-7.74 1.05-1.77 0-4.26-.21-4.26-2.37 0-2.37 3.12-3.9 4.2-4.44 0 .75 0 .84-.15 4.74h3.39c-.03-1.95-.18-4.05-.3-6.03.87-.33 5.13-2.01 6.09-2.37z"/><path d="m304.803 36.4721h4.18v-2.112h12.144v-8.228h-16.324zm12.1-5.016h-7.92v-2.508h7.92zm-14.3-12.98h20.812v-8.58002h-20.812zm16.28-5.588v2.596h-11.836v-2.596zm-3.388-8.97601v-.704c0-.264 0-.396.528-.792.528-.44001.704-.66001.704-.88001 0-.30799-.132-.30799-1.276-.396l-5.06-.307994v3.080004h-15.972v3.872h37.048v-3.872zm7.304 36.03601c5.192-.44 6.688-.572 6.688-4.532v-14.828h-32.956v18.964h4.62v-15.488h23.672v9.724c0 .748-.044 1.628-1.628 1.628-.264 0-1.408-.044-2.42-.132z"/><path d="m372.695 22.7441v-11.176h-8.58v-2.68402h11.66v-3.51999h-11.66v-1.40801c0-.22 0-.43999.352-.792.528-.48399.704-.616.704-.836 0-.52799-.528-.52799-1.98-.572l-3.168-.13199v3.74h-10.692v3.51999h10.692v2.68402h-8.404v11.176h5.544c-2.596 3.872-6.468 6.248-7.964 7.128l3.3 2.728c4.488-3.388 6.468-6.028 7.524-7.48v8.624h4.092v-8.36c3.124 3.74 6.644 5.852 8.756 6.996l3.08-2.992c-4.708-2.332-7.48-4.444-9.592-6.644zm-12.672-7.788v4.268h-4.268v-4.268zm4.092 0h4.444v4.268h-4.444zm-24.552-8.71202c1.98 1.45201 3.652 2.86001 5.676 5.41202l2.948-3.16801c-1.848-2.33201-3.432-3.828-5.676-5.456zm37.4 27.89602c-5.72.572-13.288.924-19.712.924-3.212 0-9.02 0-9.02-4.576v-12.76h-9.372v4.004h5.104v9.768c-2.244 1.848-5.104 3.432-6.292 4.092l2.288 3.344c.308.44.748.88 1.056.88.088 0 .176-.044.264-.132.088-.132.176-.616.22-.836.132-.22 3.256-2.728 4.972-4.048 2.508 4.004 6.952 4.004 12.936 4.004h15.532z"/><path d="m393.419 9.80809c.396-.96801.66-1.58401 1.276-3.43201.264-.70399.308-.87999.616-1.01199.792-.308.88-.308.88-.616 0-.44-.396-.704-1.32-.96801l-4.356-1.232c-1.672 7.52402-5.192 12.62802-8.052 16.06002l4.664 2.508c1.848-2.244 3.96-6.16 4.4-7.04h9.284v7.48h-10.384v4.136h10.384v8.58h-16.94v4.18h37.796v-4.18h-16.016v-8.58h9.944v-4.136h-9.944v-7.48h14.124v-4.26801h-14.124v-4.972c0-.924.132-1.012.484-1.364.396-.352.484-.52801.484-.74801 0-.48399-.528-.61599-1.364-.70399l-4.444-.48401v8.27201z"/><path d="m451.059 8.22409c0-1.012 0-4.092.352-4.928.088-.176.924-.88.924-1.1 0-.48401-.748-.48401-1.804-.528l-3.74-.13201c0 3.696.044 4.22401.132 6.68801h-15.796c.308 2.50801.484 4.53201.484 8.58001 0 10.604-1.056 14.96-3.784 20.196l4.136 1.804c1.936-4.224 2.332-5.808 2.992-8.58l1.804 4.136c8.052-.264 8.624-2.948 8.756-16.896h-9.372v-4.84h11.044c.616 7.612 1.496 11.264 3.476 15.796-2.728 3.168-5.236 5.236-9.108 7.436l2.948 3.432c4.136-2.464 6.116-4.356 8.404-6.82 3.344 4.356 5.456 7.084 8.272 7.084 1.452 0 2.904-.616 4.224-7.788l-3.564-2.244c-.264 1.32-.748 3.652-1.54 3.652-.924 0-2.992-2.024-4.4-4.4.968-1.452 3.212-4.796 5.192-10.472.264-.836.308-.924.44-1.012.616-.352.836-.44.836-.66 0-.264-.132-.308-1.364-.748l-3.696-1.32c-1.144 4.928-2.684 7.744-3.696 9.592-1.144-3.608-1.584-5.192-2.332-11.528h14.256v-4.40001h-6.116l2.728-1.98001c-1.364-1.58399-2.024-2.33199-4.092-4.44399l-3.388 2.15599c1.1 1.012 2.2 2.15601 3.476 4.26801zm-9.812 13.42001c-.132 7.084-1.408 8.448-3.3 8.448-.44 0-1.012-.044-2.948-.396.528-2.86.836-4.62 1.012-8.052z"/><path d="m42.968 72.6001c-1.804 2.816-3.916 6.248-8.448 10.12l3.696 3.124c2.2-1.98 4.62-4.268 9.02-10.692 1.716-2.464 1.892-2.728 3.344-3.652l-3.652-4.356c-1.276.968-1.76.968-2.332.968h-29.436v4.488zm-20.108 27.6319c3.476-3.0799 6.82-6.0279 9.372-12.2759 1.188-2.86 2.112-8.668 2.112-11.22 0-.836.088-.968.528-1.32.396-.308.528-.484.528-.704 0-.396-.264-.484-1.452-.528l-4.532-.22c-.132 9.812-1.012 16.016-11.132 23.232z"/><path d="m82.656 72.3361c-.968-1.232-2.244-2.64-4.664-4.004l-2.068 2.024c1.804 1.276 3.256 2.508 4.488 4.048zm5.368-2.992c-2.068-2.596-3.74-3.74-4.796-4.356l-1.936 2.068c1.98 1.496 3.3 2.816 4.488 4.224zm-21.604 9.768v-11.792c0-.264 0-.308.528-.748.176-.132.396-.352.396-.572 0-.352-.484-.528-1.804-.748l-3.96-.66v35.5959h4.84v-19.0959c3.432 1.54 7.48 3.3 12.716 9.284l3.212-4.444c-4.312-4.312-8.844-7.348-14.344-9.68z"/><path d="m104.568 101.2h3.96v-15.3559h3.608v7.084c0 1.716-1.452 1.584-2.42 1.452l1.408 4.224c4.576-.176 5.368-1.936 5.368-4.136v-12.276h-7.964v-2.992h9.108v-3.872h-9.108v-3.168h7.744v-3.784h-7.744v-3.08c0-.22.88-1.056.88-1.32 0-.44-.308-.396-1.1-.44l-3.74-.132v4.972h-2.948c.088-.22.44-1.364.616-1.54.176-.088 1.012-.44 1.012-.616 0-.308-.484-.396-.748-.44l-4.268-.88c-.528 3.3-1.364 5.984-3.124 8.536l3.916 1.408c.176-.352 1.012-2.024 1.32-2.684h4.224v3.168h-9.768v3.872h9.768v2.992h-7.788v16.764h4.268v-13.112h3.52zm14.564-8.5359h4.312v-22.396c0-.308.22-.572.44-.792.176-.132.396-.396.396-.572 0-.264-.22-.308-.792-.352l-4.356-.308zm4.796 8.6239c5.236-.44 7.26-.792 7.26-5.4119v-30.316c0-.176.176-.396.308-.572.396-.44.572-.616.572-.748 0-.264-.396-.264-.836-.308l-4.576-.396v31.24c0 1.408-.22 2.024-1.76 2.024-.44 0-2.64-.132-3.124-.132z"/><path d="m148.128 63.6681c-1.628 5.016-4.796 11.132-8.976 15.928l3.476 3.256c1.364-1.628 1.936-2.552 2.464-3.344v21.6479h4.488v-26.3559c0-.22 0-.352.352-.616.748-.616.836-.704.836-.924 0-.352-.66-.704-1.364-1.012 1.188-2.288 2.288-4.4 2.728-5.456.176-.308.264-.484.528-.616.88-.44 1.012-.528 1.012-.836 0-.176 0-.396-.924-.616zm9.548-.132c-1.364 6.028-4.312 11.352-8.008 15.576l3.916 2.596c.968-1.188 2.376-2.904 4.884-7.876h1.848v27.3239h4.444v-8.8879h11.88v-4.4h-11.88v-4.84h10.516v-4.4h-10.516v-4.796h12.496v-4.004h-16.808c.352-.836 1.628-3.784 2.112-4.004.396-.176.748-.352.748-.528 0-.264-.396-.528-.924-.66z"/><path d="m196.88 78.5401c-1.848-3.96-3.476-6.732-5.28-9.152l-4.356 2.508c.792 1.056 3.74 5.016 5.192 9.284zm-.748 20.768c4.796-1.892 16.764-7.216 20.416-22.748.176-.836.836-4.576.968-5.324.132-.572.264-.748.792-.968.176-.044.484-.22.484-.396 0-.396-.572-.572-1.452-.88l-4.752-1.584c-1.848 16.764-6.424 22.968-20.504 27.94z"/><path d="m230.672 86.3281h5.016v-18.832c0-.264.88-1.1.88-1.32 0-.396-.528-.484-1.936-.572l-3.96-.22zm17.776-8.36c0 12.936-6.38 16.72-12.54 18.876l3.52 4.3119c3.916-2.0239 12.276-6.3799 13.552-17.2479.352-3.168.616-12.76.616-16.324 0-.792 0-.836.308-1.144.396-.352.66-.572.66-.748 0-.616-.572-.616-1.716-.66l-4.4-.22z"/><path d="m262.748 92.7961v3.916h28.776v-3.916h-8.492c1.452-7.964 1.584-8.756 2.684-16.852h-17.38v3.828h12.716c-.748 5.544-.88 6.248-2.2 13.024z"/><path d="m300.544 79.8601v4.884h31.592v-4.884z"/><path d="m360.032 68.8161c-3.168-2.288-6.38-3.564-9.196-4.444l-2.464 4.136c3.696 1.1 6.644 2.816 8.976 4.4zm-4.576 9.944c-3.476-2.816-7.744-4.312-9.152-4.796l-2.332 4.312c2.244.792 5.456 2.112 8.8 4.708zm-6.38 21.5599c.132.176.616.88 1.012.88.352 0 .484-.44.528-.66.176-.6599.352-.8359.88-1.0999 9.152-4.928 17.116-9.46 24.508-21.032l-3.212-4.18c-4.928 8.316-12.32 16.236-26.752 21.604z"/><path d="m409.048 74.8441h-22.308v3.696h18.26v5.984h-17.776v3.564h17.776v6.028h-18.392v3.74h18.392v1.54h4.048z"/><path d="m432.94 72.7321c-1.804-1.98-4.752-4.84-8.052-7.304l-3.388 3.916c3.784 2.728 6.644 6.204 7.744 7.568zm19.228 1.408c-5.06 5.984-12.276 14.564-30.36 19.316l2.2 4.708c.572 1.232.66 1.408 1.012 1.408s.484-.308.66-.748c.264-.572.484-.704 2.64-1.672 10.824-4.884 16.676-7.524 26.312-18.48z"/></g></svg>