<svg fill="none" height="38" viewBox="0 0 446 38" width="446" xmlns="http://www.w3.org/2000/svg" xmlns:xlink="http://www.w3.org/1999/xlink"><filter id="a" color-interpolation-filters="sRGB" filterUnits="userSpaceOnUse" height="35.1836" width="38.8977" x=".713379" y=".669434"><feFlood flood-opacity="0" result="BackgroundImageFix"/><feColorMatrix in="SourceAlpha" type="matrix" values="0 0 0 0 0 0 0 0 0 0 0 0 0 0 0 0 0 0 127 0"/><feOffset dy="-2"/><feColorMatrix type="matrix" values="0 0 0 0 1 0 0 0 0 1 0 0 0 0 1 0 0 0 1 0"/><feBlend in2="BackgroundImageFix" mode="normal" result="effect1_dropShadow"/><feColorMatrix in="SourceAlpha" type="matrix" values="0 0 0 0 0 0 0 0 0 0 0 0 0 0 0 0 0 0 127 0"/><feOffset dy="2"/><feColorMatrix type="matrix" values="0 0 0 0 1 0 0 0 0 1 0 0 0 0 1 0 0 0 1 0"/><feBlend in2="effect1_dropShadow" mode="normal" result="effect2_dropShadow"/><feBlend in="SourceGraphic" in2="effect2_dropShadow" mode="normal" result="shape"/></filter><g fill="#333"><path d="m61.0201 10.6021v2.912h-4.888v2.4439h12.298v-2.4439h-4.602v-1.7421c0-.13.65-.6499.65-.8059 0-.1821-.182-.234-.832-.2601zm7.02 5.772v2.652h2.912c-.832 7.566-3.094 10.582-6.942 13.052l2.366 1.846c3.51-2.912 6.084-5.616 7.124-14.898h2.132c-.026 3.016-.182 5.824-.624 8.788-.312 2.08-.442 3.068-2.626 3.068-.494 0-1.248-.078-1.612-.13l1.17 2.886c2.782-.182 4.732-.338 5.356-3.458.624-3.172.91-10.2701.936-13.806h-4.628v-4.03c0-.3381.052-.364.364-.598.208-.156.234-.182.234-.312 0-.2601-.52-.312-.754-.312l-2.418-.0781v5.3301zm-4.81 1.612c1.118 1.014 2.522 2.366 3.796 4.238l1.898-1.534c-1.04-1.534-2.236-2.7821-3.796-4.16zm-3.276-1.5341c-1.352 1.6121-2.6 2.7041-4.446 3.8741l2.106 1.69c1.43-1.144 2.184-1.898 3.354-3.276.234-.286.494-.572.702-.5981.52-.0779.572-.0779.572-.2339 0-.182-.364-.468-.78-.676zm-1.768 6.2141c.884.91 2.288 2.704 2.704 3.224-1.482 2.08-2.912 3.796-5.538 5.824l2.106 1.69c2.34-1.95 3.51-3.224 5.044-5.278.442.624.962 1.404 1.69 2.704l2.106-1.742c-.416-.702-1.352-2.054-2.262-3.354.494-.936.754-1.43 1.222-2.678.052-.13.182-.442.39-.468.442-.104.546-.13.546-.312 0-.208-.312-.442-.494-.52l-2.21-.988c-.416 1.118-.754 1.846-1.196 2.73-.988-1.196-1.456-1.742-2.132-2.366z"/><path d="m90.6081 25.0321c-1.872 1.872-4.472 4.108-8.45 5.642l2.028 2.158c3.822-2.158 5.2259-3.094 7.7999-5.616v6.214h2.522v-6.214c2.158 2.47 3.3021 3.38 7.254 5.694l1.898-2.262c-3.458-1.56-5.5899-2.86-8.138-5.616h8.866v-2.366h-9.88v-1.638h6.916v-9.6201h-16.3279v9.6201h6.8899v1.638h-9.9059v2.366zm1.3779-9.854h-4.29v-1.69h4.29zm2.522 0v-1.69h4.3421v1.69zm0 1.95h4.3421v1.794h-4.3421zm-2.522 0v1.794h-4.29v-1.794z"/><path d="m122.172 32.3381c1.95-.728 7.8-2.912 7.8-10.192 0-5.46-3.796-9.334-9.802-9.334-6.604 0-11.206 5.044-11.206 10.764 0 5.2 3.744 7.488 5.356 7.488 1.534 0 2.782-2.834 3.042-3.432 2.184-4.914 2.808-9.2821 3.224-12.35 1.534.234 6.474.962 6.474 6.838 0 5.928-5.2 7.358-6.838 7.826zm-4.524-16.77c-.26 3.484-1.118 6.942-2.496 10.166-.338.78-.806 1.846-1.378 1.846-.91 0-2.236-1.69-2.236-4.004 0-1.794.65-6.136 6.11-8.008z"/><path d="m153.008 23.1081v5.98h-5.902v-7.41h7.722v-7.8781c0-.1559 0-.2599.26-.364.39-.1559.546-.2599.546-.4419 0-.234-.312-.234-.702-.2601l-2.834-.1559v6.5h-4.992v-6.786c0-.1561.052-.312.182-.3901.312-.1819.468-.3119.468-.4419 0-.234-.234-.3121-.572-.3121l-2.808-.104v8.0341h-5.096v-5.486c0-.1561 0-.208.156-.312.208-.156.364-.286.364-.4161 0-.1819-.312-.26-.468-.26l-2.808-.104v9.1781h7.852v7.41h-5.85v-4.732c0-.104.026-.234.13-.312.234-.182.364-.312.364-.442 0-.286-.442-.286-.754-.312l-2.444-.13v10.062h2.704v-1.534h14.482v1.534h2.704v-9.022c0-.156-.026-.26.13-.364.208-.156.312-.26.312-.39 0-.234-.182-.26-.494-.26z"/><path d="m164.916 27.0341c2.99-3.276 4.888-5.382 8.476-5.382s4.186 2.158 4.186 3.64c0 2.002-1.066 2.912-1.872 3.588-.364-.806-1.534-3.406-4.966-3.406-2.912 0-4.056 1.82-4.056 3.51 0 3.328 3.588 3.77 5.33 3.77 4.706 0 8.346-2.938 8.346-7.436 0-2.184-.988-6.006-6.162-6.006-.988 0-1.69.156-2.158.286 2.704-3.094 4.16-4.732 5.746-5.9021l-1.196-2.054c-2.288.962-6.89 1.3521-8.372 1.3521-.728 0-1.976-.078-2.704-.1301l.442 2.99c2.756-.1819 3.562-.26 6.188-.598-2.6 3.6921-5.876 6.8381-9.438 9.6201zm8.398 3.042c-.312.104-.91.26-1.612.26-1.118 0-2.496-.442-2.496-1.43 0-.65.676-1.222 1.508-1.222 1.898 0 2.366 1.612 2.6 2.392z"/><path d="m209.272 31.7921c-1.638-4.03-3.068-6.942-5.798-10.868l-2.314 1.482c1.404 2.106 2.158 3.354 3.432 5.85-2.08.416-4.186.806-7.826 1.274.988-3.302 2.314-7.722 2.912-9.932.182-.676.234-.91.65-1.1181.26-.1559.442-.2339.442-.4679 0-.312-.416-.416-.65-.4681l-3.016-.6499c-.312 2.314-1.092 7.124-3.224 13-.624.078-1.82.208-2.522.286l.598 2.912c.052.312.13.546.312.546.13 0 .234-.104.39-.26.234-.26.364-.364 1.066-.468 6.422-.962 9.828-1.664 11.986-2.106.312.728.65 1.56.936 2.392zm-12.74-18.4861h-7.956c.104.832.26 2.2361.26 5.4081 0 6.136-.546 8.996-2.522 13.286l2.756.702c1.3-2.886 2.392-6.37 2.392-13.676v-3.0421h17.524v-2.678h-9.36v-1.5859c0-.104.026-.26.104-.364.208-.2861.26-.2861.26-.39 0-.208-.312-.2601-.494-.2601l-2.964-.1039z"/><path d="m223.078 16.2701v3.354h-9.776v2.522h22.464v-2.522h-9.958v-3.354h7.462v-2.392h-7.462v-2.0021c0-.1559.676-.598.676-.7539 0-.26-.338-.286-.754-.3121l-2.652-.13v3.1981h-3.484c.156-.338.286-.598.52-1.092.078-.1561.156-.2861.312-.338.208-.1041.442-.156.442-.364 0-.2081-.39-.338-.572-.39l-2.626-.6501c-.884 2.8341-1.95 4.81-3.12 6.578l2.47 1.2741c.286-.442.416-.676 1.456-2.626zm-6.344 16.952h2.782v-1.04h10.166v1.04h2.782v-9.256h-15.73zm2.782-3.38v-3.536h10.166v3.536z"/><path d="m247.258 13.8c.676-.0519 1.56-.1819 2.366-.338.208-.0519.572-.13.728-.156.182.0521.702.2861.832.2861.182 0 .286-.104.286-.234 0-.1561-.13-.338-.312-.6241l-1.17-1.7419c-.988.364-3.042 1.1439-7.566 1.1439-.832 0-1.404-.026-1.95-.0519l1.17 2.002c1.352 0 2.106-.0261 3.328-.104v.988h-5.122v1.872h5.122v1.066h-4.186v6.916h4.186v1.144h-4.394v1.82h4.394v1.534c-1.612.156-2.288.208-5.044.416l.312 2.236c.026.26.078.572.286.572.13 0 .494-.572.624-.624.416-.13 8.606-1.118 10.218-1.352-.546.676-.884.988-1.612 1.534l2.418 1.664c3.406-4.004 4.524-7.748 5.096-14.612h1.846c-.026 2.262-.13 9.75-1.222 11.258-.26.338-.494.338-2.548.338l1.196 2.6c1.716-.026 3.614-.078 4.29-3.432.286-1.378.858-4.992.884-13.182h-4.29c0-.546-.026-3.328-.026-3.952 0-.338.026-.5201.26-.6761.442-.3119.546-.4159.546-.5459 0-.2601-.364-.2861-.91-.312l-2.626-.13c.104 1.1439.208 2.7039.156 5.616h-2.132v2.418h2.002c-.338 6.058-1.976 9.1-2.886 10.816v-1.3c-.65.052-3.822.364-4.55.442v-1.326h4.524v-1.82h-4.524v-1.144h4.316v-6.916h-4.316v-1.066h4.992v-1.872h-4.992zm-2.288 6.8641h-1.872v-1.248h1.872zm4.368 0h-2.08v-1.248h2.08zm-4.368 1.43v1.3h-1.872v-1.3zm4.368 0v1.3h-2.08v-1.3z"/><path d="m283.424 27.9441v-11.648h-5.174v-2.158h9.828v-2.3661h-22.1v2.3661h9.75v2.158h-5.044v11.648zm-7.696-6.968h-2.6v-2.444h2.6zm2.522 0v-2.444h2.652v2.444zm-2.522 2.158v2.574h-2.6v-2.574zm2.522 0h2.652v2.574h-2.652zm6.864 6.812h-16.094v-12.454c0-.156.052-.338.182-.416.364-.286.416-.312.416-.442 0-.2861-.572-.338-.702-.338l-2.574-.2081v17.1081h2.678v-1.014h16.094v1.014h2.678v-16.0161c0-.2859.026-.364.234-.52.234-.1819.26-.208.26-.312 0-.2079-.26-.2339-.754-.2859l-2.418-.286z"/><path d="m295.618 32.2861c2.704-3.692 4.186-8.086 5.096-12.558.286-.052 1.95-.416 2.6-.416 1.326 0 1.404 1.274 1.404 2.834 0 2.99-.962 5.46-1.118 5.798-.416.962-.858 1.43-1.794 1.43-.702 0-1.43-.208-2.262-.442l.13 2.808c.442.156 1.066.39 2.08.39 3.458 0 4.264-2.47 4.602-3.484.26-.78 1.04-3.458 1.04-6.734 0-2.652-.416-5.174-3.484-5.174-.962 0-1.976.2079-2.678.338.156-.884.364-2.392.546-3.588.026-.078.364-.312.416-.3901.052-.0519.13-.13.13-.26 0-.208-.104-.208-.988-.364l-2.652-.4419c.078 1.8979.026 3.406-.26 5.642-3.406.6759-3.796.754-5.59.988l.962 3.094c1.144-.494 2.08-.78 4.134-1.326-.91 3.9-2.548 7.592-5.096 10.608zm18.174-16.718c-.624-.884-1.378-1.846-2.314-2.756l-1.404 1.04c.988 1.0399 1.586 1.846 2.158 2.756zm2.444-1.482c-.702-1.2221-1.3-1.9761-2.054-2.6781l-1.378 1.0141c.91.988 1.404 1.7159 1.95 2.5999zm-6.318 10.894c1.794-.494 3.484-.962 3.484-2.6 0-.572-.286-3.432-4.498-7.904l-1.924 1.456c3.224 3.77 3.328 5.304 3.328 5.486 0 .572-.468.676-1.69.936z"/><path d="m321.852 29.2961c.312-.494.832-1.378 2.392-3.536-.182 4.68-.39 6.37-.494 7.254l3.068-.104c-.078-4.498-.078-6.682-.078-7.696 0-.468 0-1.586.026-2.73 2.782-2.626 4.966-2.99 6.136-2.99 2.054 0 3.77 1.612 3.77 4.082 0 1.898-.988 3.9-2.834 5.07-1.326.858-2.574 1.17-3.224 1.326l1.794 2.704c5.382-2.08 7.228-5.798 7.228-8.918 0-3.978-2.964-6.838-6.396-6.838-2.34 0-4.134 1.144-5.408 1.95.494-.858 1.43-2.4441 1.482-2.5481l-1.352-1.1699c-.104.026-.598.2079-.728.26.078-.546.234-2.158.416-2.496.052-.104.52-.598.52-.728 0-.234-.858-.39-1.118-.442l-2.444-.4421c.052 1.5341.052 3.2761.052 4.8361-2.834.702-3.562.754-4.394.832l.442 3.042c2.028-.65 2.262-.728 3.848-1.196 0 .208-.078 1.17-.078 1.404-2.236 3.9-4.42 6.136-5.148 6.89z"/><path d="m348.294 31.7401c2.73-3.406 4.55-7.67 5.694-12.298 1.534-.26 2.236-.286 2.496-.286.754 0 1.43.234 1.43 2.028 0 2.054-.364 3.848-1.17 5.928-.65 1.742-1.248 2.002-1.976 2.002-.78 0-1.664-.312-2.392-.546v2.808c.442.182 1.17.494 2.34.494 3.224 0 4.082-2.236 4.472-3.276.286-.728 1.404-3.822 1.404-7.696 0-3.198-1.3-4.3161-3.64-4.3161-.78 0-1.56.104-2.34.234.182-.8839.676-3.276.754-3.588.078-.13.39-.364.494-.4419.052-.0521.052-.104.052-.1821 0-.1819-.156-.234-.936-.3899l-2.652-.5721c0 1.8721-.13 3.5101-.52 5.6161-1.976.312-3.718.572-5.642.728l.832 3.12c1.352-.494 2.288-.702 4.16-1.118-1.092 3.822-2.86 7.436-5.564 10.348zm14.846-6.838c2.236-.468 3.614-.962 3.614-2.548 0-.52-.208-3.484-4.082-8.0601l-2.028 1.4561c2.834 3.666 3.068 5.2 3.068 5.564 0 .65-.468.728-1.742.91z"/><path d="m386.046 14.2421c-2.366-1.6121-4.498-2.522-6.656-3.1721l-1.092 2.6001c2.314.7539 4.186 1.5599 6.292 3.198zm-8.866 12.636c.806-.988 1.534-1.872 2.912-2.756 1.17-.754 2.808-1.456 4.238-1.456 1.066 0 3.12.624 3.12 3.094 0 4.42-6.89 4.55-8.19 4.55-.858 0-1.638-.052-2.158-.078l1.118 2.886c3.354-.078 12.142-.338 12.142-7.254 0-3.38-2.236-5.746-5.85-5.746-3.016 0-5.252 1.534-6.422 2.314.182-1.3.442-3.042 1.742-5.954l-2.626-1.17c-1.196 2.678-1.716 4.992-2.366 10.114z"/><path d="m416.986 30.1021c-1.118-.962-2.366-1.872-4.238-2.808 0-.546-.104-3.276-.104-3.9 0-.728 0-1.144 1.222-2.158l-2.574-1.56c-.78.676-1.3 1.326-1.3 3.068 0 .52.078 3.016.104 3.588-.494-.13-1.3-.312-2.418-.312-2.574 0-4.394 1.638-4.394 3.666 0 2.34 2.314 3.796 5.2 3.796 3.614 0 4.108-1.976 4.316-3.068.884.598 1.612 1.17 2.47 2.028zm-6.864-1.066c-.052.728-.13 2.002-2.002 2.002-.728 0-2.288-.26-2.288-1.378 0-.286.156-1.248 1.664-1.248.806 0 1.482.208 2.626.624zm-3.952-18.382c-.338 1.638-.832 3.224-1.326 4.758-.728.052-1.404.104-2.132.104-.988 0-1.898-.104-2.47-.1561l.13 2.7561c1.066-.026 2.47-.078 3.536-.13-1.326 3.406-2.938 6.682-5.356 9.386l2.886 1.352c.156-.26 3.562-5.98 5.408-10.9461 1.846-.2079 3.042-.4419 4.108-.7279l.182-2.938c-.624.3119-1.378.5459-3.354.936.156-.468.832-2.47 1.066-2.626.13-.078.572-.364.572-.442 0-.234-.546-.416-.832-.52zm12.428 8.268c-1.222-.988-3.094-2.262-5.85-2.9641l-1.404 2.0541c1.716.572 4.16 1.638 5.694 3.146z"/><path d="m432.17 23.8881c-.624 1.508-1.716 3.926-2.626 3.926-.832 0-1.924-1.716-1.924-5.226 0-3.328 1.092-6.2921 1.3-6.448.338-.26.52-.39.52-.5461 0-.234-.442-.4419-.702-.572l-2.782-1.2739c-.104.572-.624 3.016-.728 3.5359-.26 1.2481-.494 2.9121-.494 4.7321 0 5.2 1.95 9.36 4.524 9.36 1.56 0 3.016-1.3 5.07-5.642zm13.208 2.938c-.312-3.484-1.326-8.034-3.822-11.544l-2.782 1.1699c1.248 1.794 3.25 5.2001 3.406 10.7901z"/></g><path clip-rule="evenodd" d="m32 10h-26v26h26zm-28-2v30h30v-30z" fill="#4d4d4d" fill-rule="evenodd"/><g filter="url(#a)"><path clip-rule="evenodd" d="m39.611 7.33075-23.6733 26.52225-15.224321-13.1369 4.573071-5.2997 10.01275 8.6399 19.0896-21.38687z" fill="#f6ca2b" fill-rule="evenodd"/></g></svg>