<svg fill="none" height="274" viewBox="0 0 628 274" width="628" xmlns="http://www.w3.org/2000/svg"><g fill="#fff"><path d="m4.2081 89.5117v6.216h33.348v7.1403h-29.988v5.796h29.988v7.98h-35.28v6.216h15.708c-.42 4.284-2.1 19.992-16.884 29.904l4.704 5.628c4.452-3.36 15.708-11.844 19.152-35.532h54.768v-6.216h-35.196v-7.98h29.736v-5.796h-29.736v-7.1403h33.432v-6.216h-19.74c2.1-3.276 3.696-6.048 4.788-8.736l-7.812-1.428c-1.176 3.36-3.024 7.056-4.872 10.164h-18.312c-1.26-3.192-2.436-5.628-5.208-9.912l-7.308 1.344c3.444 5.04 4.284 7.056 4.872 8.568zm70.056 40.2363h-47.712v6.132h19.488v13.776h-26.88v6.3h60.06v-6.3h-26.208v-13.776h21.252z"/><path d="m112.064 81.6157c-.168 2.268-.252 4.452-1.26 9.24h-19.6559v6.972h17.8079c-2.52 7.6443-8.064 21.0843-20.0759 32.0043l5.628 5.04c5.6279-6.132 6.2159-6.972 11.8439-14.784 6.216-6.552 12.264-9.324 17.22-9.324 4.536 0 6.636 2.52 7.392 6.888-15.708 7.476-23.688 14.364-23.688 22.68 0 14.448 18.984 14.448 28.392 14.448 11.004 0 17.136-.42 20.496-.672l-.168-7.308c-10.332 1.008-18.312 1.176-22.008 1.176-8.904 0-19.068 0-19.068-7.896 0-7.308 12.6-13.44 16.884-15.54.084 1.764.168 4.284.168 6.132 0 3.612-.168 5.04-.42 7.392h7.476c.168-1.68.252-3.696.252-6.888 0-2.52-.084-6.216-.42-9.66 8.988-3.444 16.716-5.544 23.016-7.224l-2.94-7.308c-5.544 1.848-13.104 4.368-21.168 7.644-2.268-9.24-8.652-10.332-13.02-10.332-6.468 0-10.248 2.604-12.6 4.2 1.596-2.688 3.108-5.208 4.788-10.6683h37.716v-6.972h-35.784c.924-4.284 1.26-6.468 1.68-8.736z"/><path d="m186.32 149.908c13.776.336 25.704-.084 35.112-3.108 11.424-3.696 24.276-11.004 24.276-28.728 0-13.524-8.232-26.3763-28.56-26.3763-7.308 0-16.716 1.68-23.52 2.856-9.408 1.596-18.312 3.108-21.588 3.528l1.428 8.4003c2.604-.672 5.376-1.428 13.272-3.108 8.82-1.848 21.504-4.5363 30.24-4.5363 18.144 0 20.496 12.6003 20.496 19.1523 0 5.124-1.596 10.08-5.292 14.28-9.24 10.668-28.896 10.668-38.472 10.668-3.444 0-5.628-.084-8.82-.252z"/><path d="m261.752 83.4637c-1.596 13.44-2.52 25.2843-2.52 38.8083 0 15.96 1.428 25.452 2.52 31.92l7.896-1.008c-.84-3.612-2.94-12.18-2.94-30.744 0-13.356 1.092-25.2843 3.192-38.4723zm16.296 17.1363v6.804h29.988c.252 14.364.336 20.076-2.94 28.056-4.2 10.08-14.868 12.096-25.536 13.356l2.856 6.72c14.7-2.1 24.696-5.964 29.736-17.304 3.78-8.568 3.696-16.464 3.36-30.828h14.28v-6.804h-14.364c-.084-2.5203-.084-14.7843-.168-17.6403h-7.56c.168 2.52.252 14.868.336 17.6403z"/><path d="m347.6 84.0517v7.056l36.12-.42c-3.78 3.696-22.512 21.0843-26.712 25.0323-3.864 3.696-14.616 13.86-16.968 15.876l6.384 4.956c4.956-5.46 11.004-11.592 14.868-14.868.42-.42 9.66-8.064 22.764-8.064 12.348 0 17.64 6.384 17.64 15.54 0 7.644-4.032 15.792-15.288 18.396.42-1.344.672-2.184.672-3.78 0-1.344-.924-15.624-15.96-15.624-7.896 0-14.952 5.04-14.952 12.516 0 6.132 5.04 14.028 21.84 14.028 25.872 0 30.996-16.716 30.996-25.62 0-4.872-1.512-21.924-23.1-21.924-6.468 0-9.408 1.092-12.6 2.436 3.192-2.856 17.724-16.1283 21.168-19.1523v-6.384zm31.836 64.3443c-3.78.084-16.464.336-16.464-7.728 0-3.444 3.444-6.384 7.896-6.384 5.628 0 9.324 4.452 9.324 10.416 0 1.428-.168 2.184-.756 3.696z"/><path d="m458.564 154.528c11.088-.84 37.968-3.78 37.968-35.7 0-18.48-11.592-32.7603-34.944-32.7603-24.948 0-39.564 16.8003-39.564 37.6323 0 12.348 5.88 24.108 15.708 24.108 18.564 0 24.864-38.052 25.032-54.9363 20.664.588 25.536 15.6243 25.536 25.4523 0 5.124-.84 14.7-7.308 21.168-4.704 4.704-11.676 6.804-24.864 7.98zm-3.276-61.2363c-.588 19.7403-5.964 34.3563-8.484 39.3123-1.68 3.192-4.452 7.644-8.904 7.644-6.552 0-8.652-9.576-8.652-15.876 0-2.184 0-16.8 12.012-25.6203 5.544-4.116 11.004-4.956 14.028-5.46z"/><path d="m512.072 83.0437c-.924 6.3-2.94 19.4883-2.94 40.5723 0 20.412 1.848 27.468 2.688 30.492l7.476-1.092c-1.008-5.04-2.772-14.112-2.772-30.408 0-20.244 2.436-32.9283 3.612-38.7243zm15.876 14.784v7.0563h26.292l.336 20.58c-2.94-.84-5.796-1.176-8.736-1.176-11.256 0-18.816 6.636-18.816 15.12 0 5.376 3.612 14.448 17.724 14.448 17.052 0 17.052-11.34 17.052-15.624v-2.352c3.36 2.352 7.896 5.628 12.768 11.592l5.04-6.72c-6.132-5.712-9.912-8.82-17.808-12.768l-.168-23.1h16.212v-7.0563h-16.464l-.168-14.7h-7.392l.168 14.7zm26.712 40.4883c0 2.688 0 9.156-9.408 9.156-9.828 0-11.256-5.376-11.256-8.148 0-4.956 4.284-8.736 12.18-8.736 4.2 0 6.468.924 8.484 1.764z"/><path d="m36.2121 202.808h-10.668l-24.36 66.192h9.072l5.964-16.968h29.316l5.964 16.968h9.072zm6.804 42.168h-24.276l12.18-34.692z"/><path d="m71.2224 202.808v66.192h8.148v-66.192z"/><path d="m128.997 212.048c3.444-5.712 4.2-7.644 5.46-10.752l-8.316-1.512c-3.948 10.08-11.424 23.184-27.4683 33.432l4.7883 5.796c7.896-4.788 15.456-13.524 20.58-19.908h32.088c-6.468 24.948-18.984 41.748-52.836 47.376l3.192 6.972c35.364-5.964 53.34-26.544 59.472-61.404z"/><path d="m190.821 203.48h-7.896v44.688h7.896zm43.68-1.428h-8.064v36.876c0 23.268-18.312 26.376-39.312 27.552l2.268 7.308c18.816-1.764 45.108-4.2 45.108-37.464z"/><path d="m253.485 208.1v7.308h26.628v44.268h-31.416v7.392h71.4v-7.392h-31.836v-44.268h27.132v-7.308z"/><path d="m376.125 226.58c10.584-7.98 20.16-17.556 23.436-20.916l-7.392-4.956c-20.412 25.452-50.316 37.632-62.412 41.916l4.62 6.468c17.388-6.384 30.996-15.12 33.684-16.884v41.496h8.064z"/><path d="m416.697 203.9v7.224h56.196v-7.224zm-6.972 22.008v7.308h33.516c-.336 20.412-8.064 30.324-29.316 33.852l3.36 6.552c24.36-4.872 33.18-16.548 34.02-40.404h28.56v-7.308z"/><path d="m521.277 237.752c6.888-5.544 11.004-9.66 18.816-17.724l-6.3-4.536c-9.912 13.02-25.956 26.46-49.56 34.524l3.444 6.132c10.332-3.36 17.388-7.056 26.46-13.188v30.996h7.14z"/><path d="m553.953 210.62v7.14h55.86c-4.2 32.172-22.68 44.1-48.3 48.3l3.696 7.224c47.628-8.4 52.08-47.208 53.172-62.664zm61.404-3.696c-1.26-4.62-3.36-8.568-4.536-10.668l-5.796 1.428c1.512 2.688 3.36 7.392 4.2 10.752zm11.928 0c-1.008-3.612-2.688-7.644-4.62-11.004l-5.796 1.344c1.596 2.94 3.864 8.316 4.62 11.34z"/><path d="m25.27 20.4217c2.584 4.18 3.724 6.688 5.092 9.614-5.7.684-9.766.912-16.112 1.292 2.774-6.422 4.978-13.984 6.802-20.9l-3.306-.83602c-2.546 11.13402-5.054 17.97402-6.688 21.88802-.76.038-1.70998.076-3.98998.114l.494 3.23c5.01598-.266 17.59398-1.178 23.86398-2.204.57 1.368.912 2.394 1.368 3.762l3.154-1.368c-1.71-4.94-4.826-11.476-7.866-15.96zm-20.78598-15.54202v15.65602c0 4.636-.988 9.12-3.609997 13.186l2.431997 2.356c3.306-4.902 4.332-11.248 4.332-16.34v-11.85602h28.95598v-3.002h-15.542v-3.989999h-3.154v3.989999z"/><path d="m52.63 6.28568c.798-1.672 1.33-3.002 1.862-4.522l-2.926-.722c-.57 1.596-2.66 7.258-7.106 11.28602l2.736 1.938c.836-.874 2.166-2.28 3.914-5.16802h8.588v6.15602h-16.53v2.812h35.264v-2.812h-15.58v-6.15602h12.882v-2.812h-12.882v-5.282h-3.154v5.282zm21.964 15.39002h-27.588v14.516h3.116v-1.786h21.356v1.786h3.116zm-3.116 9.918h-21.356v-7.144h21.356z"/><path d="m109.44 11.7197c0 3.8-.456 6.992-.722 8.664-.76 5.13-1.634 7.866-3.99 11.514v-1.292c-2.508.342-5.548.76-8.208.988v-2.888h8.208v-2.356h-8.208v-2.394h7.752v-12.464h-7.752v-2.16602h8.702v-2.394h-8.702v-2.508c4.028-.418 6.042-.874 7.448-1.178l-1.254-2.317999c-5.32 1.215999-10.108 1.633999-17.328 1.709999l.532 2.356c1.482-.038 3.268-.076 7.904-.342v2.28h-8.854v2.394h8.854v2.16602h-7.638v12.464h7.638v2.394h-7.98v2.356h7.98v3.116c-4.712.38-7.372.494-8.93.532l.38 2.85c5.738-.304 14.592-1.216 18.506-1.938-.19.19-.532.684-.798.988l2.736 1.938c1.102-1.33 3.762-4.56 5.168-10.45 1.368-5.624 1.634-11.058 1.634-14.022h3.914c0 5.13-.304 14.364-.988 19.304-.19 1.52-.646 2.166-2.128 2.128l-3.724-.076.608 3.078h3.838c3.04 0 4.066-1.026 4.674-5.434.608-4.522.722-16.796.722-22.04002h-6.916v-7.751999h-3.078v7.751999h-3.42v3.04002zm-15.618 4.978h-4.864v-2.964h4.864zm0 5.054h-4.864v-3.002h4.864zm7.638-5.054h-4.94v-2.964h4.94zm0 5.054h-4.94v-3.002h4.94z"/><path d="m161.994 2.21968h-35.15v2.85h16.15v3.8h-8.398v19.22802h19.76v-19.22802h-8.436v-3.8h16.074zm-10.564 14.74402h-5.51v-5.51h5.51zm0 8.55h-5.51v-6.042h5.51zm-8.436-8.55h-5.51v-5.51h5.51zm0 8.55h-5.51v-6.042h5.51zm-14.592-17.02402v27.70202h3.078v-1.9h25.992v1.9h3.078v-27.70202h-3.078v22.99002h-25.992v-22.99002z"/><path d="m185.858 34.5957c5.016-.38 17.176-1.71 17.176-16.15 0-8.36-5.244-14.82002-15.808-14.82002-11.286 0-17.898 7.60002-17.898 17.02402 0 5.586 2.66 10.906 7.106 10.906 8.398 0 11.248-17.214 11.324-24.85202 9.348.266 11.552 7.06802 11.552 11.51402 0 2.318-.38 6.65-3.306 9.576-2.128 2.128-5.282 3.078-11.248 3.61zm-1.482-27.70202c-.266 8.93002-2.698 15.54202-3.838 17.78402-.76 1.444-2.014 3.458-4.028 3.458-2.964 0-3.914-4.332-3.914-7.182 0-.988 0-7.6 5.434-11.59002 2.508-1.862 4.978-2.242 6.346-2.47z"/><path d="m227.848.47168h-12.996v35.60602h3.078v-32.52802h9.918z"/><path d="m258.818 12.9737c-.114-4.52202-1.33-10.22202-11.704-10.22202-11.21 0-12.122 7.182-12.122 15.54202 0 9.88 1.9 15.01 12.654 15.01 8.436 0 11.324-3.8 11.362-10.906h-3.724c-.038 5.358-1.52 7.638-7.942 7.638-8.322 0-8.702-4.674-8.702-11.514 0-8.81602 1.064-12.50202 8.55-12.50202 5.7 0 7.904 2.09 7.98 6.95402z"/><path d="m288.982 6.36168v-3.306h-24.586v3.306h10.45v26.63802h3.686v-26.63802z"/><path d="m295.16 3.05568v29.94402h3.648v-13.186h10.146c2.584 0 5.51.152 5.51 5.434v3.002c0 1.52.076 3.268.38 4.75h3.8c-.19-.684-.57-1.9-.57-5.206v-2.85c0-4.028-1.292-5.966-4.446-6.688 4.788-1.216 4.864-5.7 4.864-7.334 0-7.79002-6.232-7.86602-8.436-7.86602zm14.212 3.268c3.572 0 5.434.95 5.434 4.90202 0 5.282-3.23 5.358-5.624 5.358h-10.374v-10.26002z"/><path d="m338.51 1.04168h-3.078v32.52802h-9.918v3.078h12.996z"/><path d="m357.054 7.61568h-7.106v3.15402h6.992l-.304 7.144h-7.296v3.078h7.182c0 9.424.228 13.642 11.628 13.642 3.268 0 13.262 0 13.262-10.754 0-4.408-2.014-7.334-2.85-8.588l-2.964 1.406c2.356 3.762 2.356 6.498 2.356 7.372 0 2.736-1.33 4.902-3.002 6.004-1.064.722-2.66 1.406-7.068 1.406-8.018 0-8.018-1.824-8.018-10.488h4.18c6.954 0 8.816-1.292 9.766-1.938l-1.254-2.926c-.95.646-2.584 1.786-8.246 1.786h-4.332l.342-7.144h12.388v-3.15402h-12.198l.266-5.396h-3.458z"/><path d="m406.53.47168h-12.996v35.60602h3.078v-32.52802h9.918z"/><path d="m437.5 12.9737c-.114-4.52202-1.33-10.22202-11.704-10.22202-11.21 0-12.122 7.182-12.122 15.54202 0 9.88 1.9 15.01 12.654 15.01 8.436 0 11.324-3.8 11.362-10.906h-3.724c-.038 5.358-1.52 7.638-7.942 7.638-8.322 0-8.702-4.674-8.702-11.514 0-8.81602 1.064-12.50202 8.55-12.50202 5.7 0 7.904 2.09 7.98 6.95402z"/><path d="m470.172 3.05568h-4.066l-9.31 26.37202-9.348-26.37202h-4.066l10.868 29.94402h5.054z"/><path d="m501.476 6.93168c.76-2.736.988-4.18 1.178-5.51l-3.116-.608c-1.444 9.80402-4.674 14.17402-5.928 15.84602l2.28 2.242c.684-.874 1.216-1.596 2.242-3.458.912 5.51 2.546 9.88 3.686 11.932-3.116 3.8-6.46 5.244-8.208 5.966l2.052 2.85c1.634-.95 4.788-2.774 7.752-6.194 2.47 3.382 5.016 5.168 6.764 6.346l1.862-2.888c-1.33-.836-4.104-2.66-6.612-6.194 3.762-6.042 4.218-15.01 4.332-17.29002h1.786v-3.04zm5.206 3.04c-.38 8.09402-2.166 12.76802-2.964 14.40202-1.634-3.23-2.964-8.36-3.382-13.832.038-.152.152-.456.19-.57002zm-23.408 8.32202c-.228.684-.456 1.368-.988 2.85h-5.852v2.622h4.712c-1.178 2.622-1.938 3.724-2.812 4.978 1.178.342 2.584.76 6.27 2.28-3.04 1.9-6.878 2.546-8.17 2.774l1.33 2.774c3.458-.874 6.916-2.014 9.728-4.18 2.622 1.368 3.496 1.938 4.636 2.622l1.672-2.622c-.494-.266-2.546-1.33-4.104-2.128 2.014-2.432 2.888-5.244 3.268-6.498h2.356v-2.622h-9.918c.228-.57.38-.95.836-2.242zm6.688 5.472c-.38 1.178-1.064 3.268-2.85 5.244-1.672-.722-3.154-1.216-4.636-1.71.494-.798.798-1.292 1.824-3.534zm-6.574-13.94602c-.95 1.14002-3.876 3.95202-7.524 5.73802l1.9 2.356c2.356-1.52 4.446-3.116 6.992-6.156v6.384h2.812v-6.27c1.558 1.862 2.584 2.85 4.598 4.446l1.862-2.318c-2.204-1.444-3.572-2.432-5.244-4.18002h6.042v-2.546h-7.258v-6.308h-2.812v6.308h-8.322v2.546zm-.988-3.648c-.418-1.14-1.026-2.812-2.28-4.902l-2.546 1.14c1.33 2.052 2.09 4.294 2.242 4.788zm9.728.874c.494-.722 1.406-2.128 2.622-4.94l-2.736-.988c-.95 2.47-1.862 3.952-2.47 4.94z"/><path d="m530.698 1.04168h-3.078v32.52802h-9.918v3.078h12.996z"/><path d="m550.762 7.61568h-7.106v3.15402h6.992l-.304 7.144h-7.296v3.078h7.182c0 9.424.228 13.642 11.628 13.642 3.268 0 13.262 0 13.262-10.754 0-4.408-2.014-7.334-2.85-8.588l-2.964 1.406c2.356 3.762 2.356 6.498 2.356 7.372 0 2.736-1.33 4.902-3.002 6.004-1.064.722-2.66 1.406-7.068 1.406-8.018 0-8.018-1.824-8.018-10.488h4.18c6.954 0 8.816-1.292 9.766-1.938l-1.254-2.926c-.95.646-2.584 1.786-8.246 1.786h-4.332l.342-7.144h12.388v-3.15402h-12.198l.266-5.396h-3.458z"/></g></svg>