<svg fill="none" height="111" viewBox="0 0 721 111" width="721" xmlns="http://www.w3.org/2000/svg"><g fill="#2755ad"><path d="m222.567 2.96-13.248 35.04h6.672l2.592-7.536h15.12l2.64 7.536h6.624l-13.248-35.04zm3.6 5.664 5.808 16.8h-11.664z"/><path d="m249.389 2.96v35.04h6.048v-35.04z"/><path d="m264.408 2.96v35.04h6v-13.968h8.784c3.456 0 4.848 2.88 4.848 6.096v5.616c0 .96.288 1.728 1.008 2.256h6.912c-1.728-1.584-1.728-2.592-1.872-9.216-.144-6.048-3.024-6.768-7.92-7.44 2.832-.288 9.12-.912 9.12-8.88 0-6.576-5.136-9.504-11.52-9.504zm6 5.04h8.928c3.648 0 5.424 2.256 5.424 5.376 0 3.312-2.208 5.616-5.424 5.616h-8.928z"/><path d="m315.171 2.96v35.04h14.208c10.944 0 16.224-6.48 16.224-17.424 0-6.048-1.344-17.616-16.224-17.616zm14.976 5.04c7.824 0 9.072 7.728 9.072 12.576 0 7.344-2.784 12.432-9.072 12.432h-8.976v-25.008z"/><path d="m373.433 26.72c0-10.272-4.896-15.168-11.328-15.168-5.376 0-11.664 4.368-11.664 13.584 0 8.208 5.04 13.488 11.904 13.488 7.008 0 9.648-5.52 10.8-7.872h-6.048c-.576 1.056-1.584 2.976-4.416 2.976-4.032 0-5.664-3.552-6.144-7.008zm-16.896-3.6c.192-1.68.816-6.672 5.328-6.672 4.464 0 5.088 4.992 5.328 6.672z"/><path d="m397.513 19.856c-.192-5.28-3.936-8.304-9.552-8.304-5.664 0-9.312 3.024-9.312 7.776 0 4.464 2.592 6 9.312 8.112 3.312 1.056 4.608 1.488 4.608 3.552 0 2.976-3.072 3.12-3.84 3.12-4.128 0-4.56-3.168-4.656-4.032h-6c.624 5.856 4.896 8.544 10.656 8.544 3.12 0 9.696-1.152 9.696-8.256 0-3.936-1.92-5.568-8.88-7.872-3.936-1.296-4.944-1.776-4.944-3.504 0-2.784 2.976-2.928 3.456-2.928 3.408 0 3.456 2.496 3.504 3.792z"/><path d="m403.609 12.176v25.824h5.904v-25.824zm0-9.216v5.904h5.904v-5.904z"/><path d="m439.354 11.744c-.24-.096-.576-.24-1.008-.24-.816 0-2.784.912-4.128 2.544-2.208-2.064-5.376-2.496-7.776-2.496-6.576 0-10.272 3.264-10.272 8.16 0 4.08 2.592 5.664 3.456 6.192-3.84 1.392-3.84 3.984-3.84 4.368 0 2.448 2.448 2.976 3.696 3.264-5.136 1.296-5.136 4.896-5.136 5.52 0 4.032 3.456 6.768 11.424 6.768 7.104 0 12.192-1.968 12.192-8.016 0-5.472-3.456-6.912-10.992-7.824-5.328-.624-5.328-.912-5.328-1.44 0-.72.96-1.104 1.728-1.44.528.096 1.344.192 2.64.192 5.952 0 10.176-2.88 10.176-8.16 0-.816-.096-1.296-.144-1.68.624-.768 1.872-1.68 2.64-1.68.384 0 .528.144.672.288zm-13.056 4.08c3.696 0 4.464 1.68 4.464 3.408 0 1.392-.336 3.792-4.704 3.792-2.976 0-4.464-1.104-4.464-3.408 0-1.248.24-3.792 4.704-3.792zm-2.88 18.336c.912.048 4.944.24 5.76.384.624.144 2.592.624 2.592 2.928 0 3.648-4.08 3.648-5.328 3.648-4.464 0-5.808-1.2-5.808-3.312 0-2.352 1.728-3.168 2.784-3.648z"/><path d="m442.746 12.176v25.824h5.856v-15.024c0-3.696 2.208-6.336 5.616-6.336 3.792 0 4.704 3.216 4.704 5.616v15.744h5.904v-17.472c0-6-3.696-8.976-7.776-8.976-4.944 0-7.056 3.312-8.448 5.52v-4.896z"/><path d="m481.034 38.048c.912-4.464 1.968-7.344 3.648-10.992l-3.168-1.92c-.288.624-1.68 3.168-1.92 3.696-.192-1.392-.432-3.504-.432-6.672 0-9.12 2.64-16.752 3.12-17.184.48-.384.816-.624.816-.864s-.048-.48-1.392-1.008l-4.176-1.632c-.048.384-1.248 6.672-1.44 7.68-.528 2.736-1.536 8.4-1.536 13.536 0 5.232.912 11.232 2.592 16.224zm30.864-7.488c-2.544-1.584-4.944-2.784-8.4-4.032-.48-3.792-.672-6.912-.624-12.768 4.128-.864 4.224-.864 6.144-1.44l-.336-4.896c-1.728.912-4.272 1.488-5.712 1.824 0-.096.048-4.8.048-5.664 0-.384.048-.72.336-1.056.432-.48.432-.48.432-.72 0-.672-1.248-.672-1.824-.72l-4.56-.192004c.288 2.880004.528 5.424004.576 9.072004-.96.096-2.16.192-4.368.192-1.776 0-3.84-.096-4.704-.144l.048 4.992c3.312 0 5.376-.096 9.168-.528.24 5.232.384 8.208.576 10.944-.48-.048-1.104-.096-2.064-.096-7.056 0-9.264 3.792-9.264 6.576 0 2.736 1.92 6.384 8.976 6.384 7.632 0 7.728-3.792 7.824-6.432 2.16 1.104 3.552 1.92 5.424 3.552zm-12.864-.48c0 1.584 0 3.744-3.456 3.744-.72 0-3.552-.144-3.552-2.064 0-1.296 1.44-2.208 3.84-2.208 1.584 0 2.736.384 3.168.528z"/><path d="m40.4001 77.568c-1.536-1.44-3.072-2.592-5.424-3.792l-1.632 2.544c2.736 1.68 4.224 3.072 5.184 3.984zm-33.07196-5.52v4.992h23.61596v-4.992zm1.152 38.592c7.53596-3.408 13.39196-6.864 14.11196-21.552h14.544v-4.992h-36.287955v4.992h16.271955c-.528 9.504-2.4 14.16-12.86396 17.232zm33.35996-39.408c-1.008-.912-2.832-2.352-5.52-3.456l-1.584 2.64c2.4 1.344 3.648 2.256 5.328 3.504z"/><path d="m51.0081 87.12v5.328h34.464v-5.328z"/><path d="m106.832 110.352c9.552-3.888 13.824-8.784 16.224-11.616 1.248 1.008 3.072 3.216 3.504 3.744l3.648-4.416c-1.104-1.104-2.736-2.544-4.08-3.504.96-1.488 3.312-5.136 5.568-11.184.624-1.632.864-2.112 2.592-3.6l-4.128-3.696c-.816.672-1.824 1.344-2.832 1.344h-10.848c.528-1.008 1.008-1.92 1.536-2.976.672-1.296.768-1.392 1.344-1.536.336-.048.672-.192.672-.528 0-.24 0-.432-1.296-.96l-4.608-1.824c-1.92 5.616-5.424 13.2-14.064 19.248l4.464 3.024c4.464-3.072 7.728-7.824 9.072-9.888h13.008c-1.392 4.416-3.264 7.584-4.464 9.504-3.12-2.112-5.904-3.792-8.736-5.04l-3.024 3.552c2.544 1.152 5.28 2.784 8.832 5.472-3.456 3.936-8.304 8.064-16.176 10.656z"/><path d="m152.192 107.52c5.04-6.288 8.4-14.16 10.512-22.704 2.832-.48 4.128-.528 4.608-.528 1.392 0 2.64.432 2.64 3.744 0 3.792-.672 7.104-2.16 10.944-1.2 3.216-2.304 3.696-3.648 3.696-1.44 0-3.072-.576-4.416-1.008v5.184c.816.336 2.16.912 4.32.912 5.952 0 7.536-4.128 8.256-6.048.528-1.344 2.592-7.056 2.592-14.208 0-5.904-2.4-7.968-6.72-7.968-1.44 0-2.88.192-4.32.432.336-1.632 1.248-6.048 1.392-6.624.144-.24.72-.672.912-.816.096-.096.096-.192.096-.336 0-.336-.288-.432-1.728-.72l-4.896-1.056c0 3.456-.24 6.48-.96 10.368-3.648.576-6.864 1.056-10.416 1.344l1.536 5.76c2.496-.912 4.224-1.296 7.68-2.064-2.016 7.056-5.28 13.728-10.272 19.104zm27.408-12.624c4.128-.864 6.672-1.776 6.672-4.704 0-.96-.384-6.432-7.536-14.88l-3.744 2.688c5.232 6.768 5.664 9.6 5.664 10.272 0 1.2-.864 1.344-3.216 1.68z"/><path d="m222.368 75.216c-4.368-2.976-8.304-4.656-12.288-5.856l-2.016 4.8c4.272 1.392 7.728 2.88 11.616 5.904zm-16.368 23.328c1.488-1.824 2.832-3.456 5.376-5.088 2.16-1.392 5.184-2.688 7.824-2.688 1.968 0 5.76 1.152 5.76 5.712 0 8.16-12.72 8.4-15.12 8.4-1.584 0-3.024-.096-3.984-.144l2.064 5.328c6.192-.144 22.416-.624 22.416-13.392 0-6.24-4.128-10.608-10.8-10.608-5.568 0-9.696 2.832-11.856 4.272.336-2.4.816-5.616 3.216-10.992l-4.848-2.16c-2.208 4.944-3.168 9.216-4.368 18.672z"/><path d="m269.264 83.328 1.2-1.296c-.384-.24-.624-.384-1.392-.816 3.744-2.448 6.816-4.512 11.328-7.776l-2.352-2.784h-29.664v4.368h21.744c-1.392 1.104-2.928 2.208-5.712 4.032-1.008-.528-3.984-1.968-6.816-2.976l-2.256 3.744c3.6 1.392 5.376 2.208 7.44 3.504h-18.576v4.656h17.664v15.888c0 .96-.864 1.44-1.776 1.44-.432 0-1.92-.048-4.656-.624l1.68 5.568h4.608c4.224 0 5.232-1.728 5.232-5.664v-16.608h9.984c-2.544 3.792-4.272 6.096-6.528 8.736l4.032 2.832c2.976-3.6 6.192-7.68 10.032-13.824l-2.928-2.4z"/><path d="m304.496 73.872v25.056h14.112v-28.56h-14.112v3.36c-2.496-2.256-5.424-3.648-6.768-4.272l-2.88 4.32c2.16.912 4.992 2.544 7.008 4.176zm9.744 8.64v4.32h-5.328v-4.32zm0-8.016v4.32h-5.328v-4.32zm0 16.032v4.416h-5.328v-4.416zm-12.912-6.336c-2.208-1.392-5.472-2.88-8.064-3.408l-2.208 4.176c3.696 1.056 6.384 2.64 7.824 3.552zm-1.824 7.008c-1.488 4.608-4.608 10.848-8.016 15.36l4.32 3.456c.336.24.672.24.72.24.144 0 .432-.144.432-.576 0-.144-.192-.816-.192-.96s.48-1.056.576-1.2c2.208-4.512 4.32-9.024 6-13.728zm13.392 10.608c1.2 2.064 3.888 5.856 5.568 7.68l4.032-2.928c-2.016-1.872-4.512-5.232-5.712-7.248zm8.208-29.232v25.92h4.512v-23.088c0-.432.288-.816.48-1.056.096-.144.624-.672.624-.816 0-.384-.576-.48-.72-.48zm-13.296 26.832c-2.496 4.128-4.752 6.24-7.152 7.968l3.648 2.832c2.304-1.92 3.648-3.264 4.848-4.848.24-.384 1.44-2.16 1.824-2.544.144-.144 1.296-.624 1.296-.864 0-.192-.48-.48-.672-.576zm17.568 11.088c3.6-.048 7.824-.24 7.824-4.08v-33.84c0-.384.192-.816.384-1.056.336-.432.672-.816.672-.96 0-.336-.576-.384-.816-.432l-4.944-.528v34.128c0 1.776-1.44 2.016-2.784 2.016-.528 0-1.488-.048-2.4-.144z"/><path d="m375.056 92.208c-1.68 3.696-5.376 11.904-13.248 11.904-5.136 0-5.52-4.128-5.52-8.832 0-8.16 1.44-21.408 2.064-21.984.048-.096.48-.288.576-.432.096-.096.144-.24.144-.384 0-.528-.336-.576-1.392-.768l-5.952-1.104c.096 1.104.192 3.552.192 5.664 0 3.216-.48 17.376-.48 20.256 0 4.848.384 12.816 9.936 12.816 8.112 0 14.352-5.808 18-14.016z"/><path d="m401.216 110.4h4.32v-16.752h3.936v7.728c0 1.872-1.584 1.728-2.64 1.584l1.536 4.608c4.992-.192 5.856-2.112 5.856-4.512v-13.392h-8.688v-3.264h9.936v-4.224h-9.936v-3.456h8.448v-4.128h-8.448v-3.36c0-.24.96-1.152.96-1.44 0-.48-.336-.432-1.2-.48l-4.08-.144v5.424h-3.216c.096-.24.48-1.488.672-1.68.192-.096 1.104-.48 1.104-.672 0-.336-.528-.432-.816-.48l-4.656-.96c-.576 3.6-1.488 6.528-3.408 9.312l4.272 1.536c.192-.384 1.104-2.208 1.44-2.928h4.608v3.456h-10.656v4.224h10.656v3.264h-8.496v18.288h4.656v-14.304h3.84zm15.888-9.312h4.704v-24.432c0-.336.24-.624.48-.864.192-.144.432-.432.432-.624 0-.288-.24-.336-.864-.384l-4.752-.336zm5.232 9.408c5.712-.48 7.92-.864 7.92-5.904v-33.072c0-.192.192-.432.336-.624.432-.48.624-.672.624-.816 0-.288-.432-.288-.912-.336l-4.992-.432v34.08c0 1.536-.24 2.208-1.92 2.208-.48 0-2.88-.144-3.408-.144z"/><path d="m448.736 69.456c-1.776 5.472-5.232 12.144-9.792 17.376l3.792 3.552c1.488-1.776 2.112-2.784 2.688-3.648v23.616h4.896v-28.752c0-.24 0-.384.384-.672.816-.672.912-.768.912-1.008 0-.384-.72-.768-1.488-1.104 1.296-2.496 2.496-4.8 2.976-5.952.192-.336.288-.528.576-.672.96-.48 1.104-.576 1.104-.912 0-.192 0-.432-1.008-.672zm10.416-.144c-1.488 6.576-4.704 12.384-8.736 16.992l4.272 2.832c1.056-1.296 2.592-3.168 5.328-8.592h2.016v29.808h4.848v-9.696h12.96v-4.8h-12.96v-5.28h11.472v-4.8h-11.472v-5.232h13.632v-4.368h-18.336c.384-.912 1.776-4.128 2.304-4.368.432-.192.816-.384.816-.576 0-.288-.432-.576-1.008-.72z"/><path d="m524.192 83.712c-3.216 2.304-7.2 3.984-8.4 4.464-.72-2.736-2.016-5.376-6.48-5.376-2.064 0-3.408.528-4.176.816.864-1.2 1.584-2.352 2.496-4.176 2.256-.24 7.872-.912 11.568-1.824l.576-5.136c-2.544 1.152-7.344 2.112-9.888 2.4.192-.432 1.44-3.168 1.632-3.264.96-.672 1.056-.768 1.056-1.008s0-.432-1.728-.72l-4.656-.816c-.432 2.16-1.248 4.416-1.968 6.384-1.968.048-2.112.048-3.312.048-2.112 0-4.128-.048-6.24-.288l.672 4.992c2.256.096 6.144-.144 6.768-.192-1.248 2.544-4.032 7.392-9.552 12.912l4.416 2.88c2.208-3.456 6.144-9.024 10.56-9.024 2.832 0 3.456 2.256 3.792 3.408-4.416 2.256-11.472 5.76-11.472 12.576 0 6.72 7.872 7.344 13.344 7.344 4.512 0 7.968-.528 10.848-1.008v-5.184c-6.48 1.488-10.656 1.68-12.384 1.68-2.832 0-6.816-.336-6.816-3.792 0-3.792 4.992-6.24 6.72-7.104 0 1.2 0 1.344-.24 7.584h5.424c-.048-3.12-.288-6.48-.48-9.648 1.392-.528 8.208-3.216 9.744-3.792z"/><path d="m568.016 81.264c0-.96-.096-5.616-.096-6.672 0-1.536 0-1.728.48-2.208.192-.144.432-.336.432-.624 0-.48-.816-.576-1.728-.624l-4.704-.336c.432 4.32.432 8.688.432 10.464h-8.832v-7.104c0-.384 0-.528.288-.816.24-.192.336-.384.336-.624 0-.384-.432-.528-1.248-.672l-4.656-.768v9.984h-9.696v4.896h9.696v11.328h5.28v-11.328h8.832c0 9.408-1.44 15.312-11.856 20.688l4.08 3.648c11.328-6.72 12.96-15.552 12.96-24.336h8.64v-4.896z"/><path d="m622.352 77.424c2.592 0 4.704-2.112 4.704-4.752s-2.16-4.752-4.704-4.752-4.656 2.16-4.656 4.752 2.064 4.752 4.656 4.752zm0-2.16c-1.392 0-2.496-1.2-2.496-2.592 0-1.44 1.152-2.544 2.496-2.544 1.44 0 2.544 1.152 2.544 2.544 0 1.344-1.056 2.592-2.544 2.592zm-31.104 28.128c3.12-2.88 6-5.952 8.544-9.696.288-.384.288-.48.672-.48.432-.048.912-.048.912-.576 0-.336-.096-.384-1.152-1.104l-3.696-2.4c-2.88 4.704-6.288 8.112-9.984 10.896zm34.464-4.128c-2.4-4.416-5.232-7.68-8.4-10.56l-4.08 3.072c1.344 1.392 5.376 5.52 7.872 10.8zm-25.728 9.504c7.872-.096 9.552-.144 9.552-6.192v-17.808h14.112v-4.752h-14.112v-6.24c0-.336 0-.48.384-.768.576-.432.624-.48.624-.672 0-.384-.432-.672-1.44-.816l-4.896-.816v9.312h-14.448v4.752h14.448v15.936c0 2.592 0 2.736-2.112 2.736-1.104 0-2.736-.096-4.224-.336z"/><path d="m638.528 87.12v5.328h34.464v-5.328z"/><path d="m702.704 86.304v-12.864c0-.288 0-.336.576-.816.192-.144.432-.384.432-.624 0-.384-.528-.576-1.968-.816l-4.32-.72v38.832h5.28v-20.832c3.744 1.68 8.16 3.6 13.872 10.128l3.504-4.848c-4.704-4.704-9.648-8.016-15.648-10.56z"/></g></svg>