<svg width="556" height="38" viewBox="0 0 556 38" fill="none" xmlns="http://www.w3.org/2000/svg">
<path d="M12.2016 4.33959L0.609619 34.9996H6.44762L8.71562 28.4056H21.9456L24.2556 34.9996H30.0516L18.4596 4.33959H12.2016ZM15.3516 9.29559L20.4336 23.9956H10.2276L15.3516 9.29559Z" fill="black"/>
<path d="M35.6708 4.33959V34.9996H40.9628V4.33959H35.6708Z" fill="black"/>
<path d="M61.1185 1.31559C61.0765 4.25559 60.6145 6.35559 59.8165 9.88359C58.2205 10.0936 56.9605 10.1776 55.3225 10.1776C54.3145 10.1776 53.0965 10.1356 52.0045 9.92559L52.0465 14.6716C53.7265 14.6296 56.7925 14.4196 58.6825 14.3356C57.9265 17.1916 55.0705 27.3976 50.0305 34.3696L54.8605 36.0496C58.8085 28.4896 61.4125 20.6356 63.3445 13.6216C66.2425 13.1176 69.3505 12.3196 71.4085 11.3116V6.56559C69.4345 7.86759 66.3265 8.70759 64.5625 9.08559C64.7725 8.32959 65.6965 4.42359 65.7805 4.25559C65.9485 4.08759 66.4105 3.79359 66.5785 3.62559C66.7045 3.49959 66.7465 3.37359 66.7465 3.24759C66.7465 2.91159 65.9485 2.61759 65.4865 2.49159L61.1185 1.31559ZM81.1945 15.1336C80.0185 14.8816 78.6745 14.5456 75.5665 14.5456C74.5585 14.5456 69.7285 14.8396 68.6365 14.8816V19.4596C69.6445 19.2496 71.6185 18.8296 74.2645 18.8296C77.3305 18.8296 79.8925 19.3756 81.1945 19.6696V15.1336ZM79.0105 7.06959C78.1285 5.85159 76.9105 4.29759 74.9365 2.91159L72.9205 4.67559C74.3905 5.89359 75.6085 7.11159 76.9105 8.87559L79.0105 7.06959ZM81.5305 30.4216C78.9265 31.1776 76.8265 31.4296 74.1805 31.4296C69.0145 31.4296 68.1325 30.6736 68.1325 28.9516C68.1325 28.1956 68.3425 27.6916 68.4685 27.3976L64.3105 26.3476C64.1425 27.2296 63.8485 28.7416 63.8485 30.3376C63.8485 34.0756 65.8225 35.8816 74.8525 35.8816C78.8845 35.8816 80.7745 35.5876 81.7405 35.4196L81.5305 30.4216ZM83.8405 4.84359C82.8325 2.95359 80.9845 1.44159 80.1445 0.811594L78.0445 2.53359C79.0525 3.37359 80.2285 4.46559 81.5725 6.48159L83.8405 4.84359Z" fill="black"/>
<path d="M96.9865 34.5796C101.396 29.0776 104.336 22.1896 106.184 14.7136C108.662 14.2936 109.796 14.2516 110.216 14.2516C111.434 14.2516 112.526 14.6296 112.526 17.5276C112.526 20.8456 111.938 23.7436 110.636 27.1036C109.586 29.9176 108.62 30.3376 107.444 30.3376C106.184 30.3376 104.756 29.8336 103.58 29.4556V33.9916C104.294 34.2856 105.47 34.7896 107.36 34.7896C112.568 34.7896 113.954 31.1776 114.584 29.4976C115.046 28.3216 116.852 23.3236 116.852 17.0656C116.852 11.8996 114.752 10.0936 110.972 10.0936C109.712 10.0936 108.452 10.2616 107.192 10.4716C107.486 9.04359 108.284 5.17959 108.41 4.67559C108.536 4.46559 109.04 4.08759 109.208 3.96159C109.292 3.87759 109.292 3.79359 109.292 3.66759C109.292 3.37359 109.04 3.28959 107.78 3.03759L103.496 2.11359C103.496 5.13759 103.286 7.78359 102.656 11.1856C99.4645 11.6896 96.6505 12.1096 93.5425 12.3616L94.8865 17.4016C97.0705 16.6036 98.5825 16.2676 101.606 15.5956C99.8425 21.7696 96.9865 27.6076 92.6185 32.3116L96.9865 34.5796ZM120.968 23.5336C124.58 22.7776 126.806 21.9796 126.806 19.4176C126.806 18.5776 126.47 13.7896 120.212 6.39759L116.936 8.74959C121.514 14.6716 121.892 17.1496 121.892 17.7376C121.892 18.7876 121.136 18.9136 119.078 19.2076L120.968 23.5336Z" fill="black"/>
<path d="M158.39 6.31359C154.568 3.70959 151.124 2.23959 147.638 1.18959L145.874 5.38959C149.612 6.60759 152.636 7.90959 156.038 10.5556L158.39 6.31359ZM144.068 26.7256C145.37 25.1296 146.546 23.7016 148.772 22.2736C150.662 21.0556 153.308 19.9216 155.618 19.9216C157.341 19.9216 160.658 20.9296 160.658 24.9196C160.658 32.0596 149.528 32.2696 147.428 32.2696C146.042 32.2696 144.782 32.1856 143.942 32.1436L145.748 36.8056C151.166 36.6796 165.362 36.2596 165.362 25.0876C165.362 19.6276 161.75 15.8056 155.912 15.8056C151.04 15.8056 147.428 18.2836 145.538 19.5436C145.832 17.4436 146.252 14.6296 148.352 9.92559L144.11 8.03559C142.178 12.3616 141.338 16.0996 140.288 24.3736L144.068 26.7256Z" fill="black"/>
<path d="M209.84 2.91159C199.76 5.55759 189.386 6.64959 179.012 7.36359L179.852 12.0256C183.044 11.5636 185.606 11.2276 188.588 10.7656C189.764 10.5976 195.602 9.67359 196.946 9.54759C193.502 12.4456 188.042 17.0236 188.042 24.5416C188.042 28.1956 190.142 31.9336 194.426 34.2856C196.19 35.2516 198.332 36.0076 202.616 36.6376L204.17 31.6816C199.76 31.5556 192.872 30.7996 192.872 23.6176C192.872 17.5696 198.416 13.1176 200.726 11.4796C204.464 8.87559 207.362 8.20359 210.05 7.65759L209.84 2.91159ZM209.714 18.2836C207.824 16.4356 205.892 15.2596 205.01 14.7136L203.372 16.8556C205.262 18.0736 206.48 19.1236 207.824 20.4676L209.714 18.2836ZM212.864 14.2936C211.184 12.6556 209.84 11.6896 208.454 10.8496L206.774 12.7396C208.286 13.7476 209.84 14.8816 211.1 16.3096L212.864 14.2936Z" fill="black"/>
<path d="M246.716 2.86959C244.07 4.80159 241.928 5.59959 239.198 6.52359C238.988 5.93559 238.19 3.41559 238.19 2.99559C238.19 2.82759 238.694 2.11359 238.694 1.94559C238.694 1.48359 238.526 1.48359 237.14 1.48359H232.562C233.192 2.65959 234.368 5.80959 234.998 7.53159C233.402 7.82559 230.756 8.28759 227.9 8.28759C226.262 8.28759 225.296 8.16159 224.54 8.07759L225.884 12.3616C229.58 12.3616 232.1 12.1516 236.426 11.1856C237.182 13.1176 237.392 13.5796 237.896 14.7556C236.3 15.1336 231.722 16.3096 227.69 16.3096C226.178 16.3096 224.96 16.1416 224.078 16.0576L225.59 20.2156C231.89 20.1316 235.25 19.3756 239.618 18.3256C240.794 20.5936 241.508 21.6436 242.474 22.9036C240.836 22.4416 238.694 21.8116 235.796 21.8116C230.63 21.8116 226.262 24.0376 226.262 29.3716C226.262 34.8736 231.176 36.7636 238.946 36.7636C242.138 36.7636 244.364 36.4276 245.876 36.1756V31.5976C242.852 32.1856 240.626 32.6476 237.686 32.6476C234.284 32.6476 230.672 32.0176 230.672 29.1616C230.672 26.6836 233.612 25.3396 236.258 25.3396C237.182 25.3396 241.508 25.3396 246.59 28.8256L249.656 25.3396C246.758 22.2316 245.792 20.8036 243.776 17.0656C247.052 15.9316 248.732 15.1756 251.168 13.9156L250.118 9.46359C247.724 11.2276 245.33 12.2776 242.012 13.4956C241.172 11.6476 240.92 11.0176 240.542 10.0936C243.692 9.04359 244.784 8.58159 247.892 7.23759L246.716 2.86959Z" fill="black"/>
<path d="M269.061 26.9776C273.891 21.6856 276.957 18.2836 282.753 18.2836C288.549 18.2836 289.515 21.7696 289.515 24.1636C289.515 27.3976 287.793 28.8676 286.491 29.9596C285.903 28.6576 284.013 24.4576 278.469 24.4576C273.765 24.4576 271.917 27.3976 271.917 30.1276C271.917 35.5036 277.713 36.2176 280.527 36.2176C288.129 36.2176 294.009 31.4716 294.009 24.2056C294.009 20.6776 292.413 14.5036 284.055 14.5036C282.459 14.5036 281.325 14.7556 280.569 14.9656C284.937 9.96759 287.289 7.32159 289.851 5.43159L287.919 2.11359C284.223 3.66759 276.789 4.29759 274.395 4.29759C273.219 4.29759 271.203 4.17159 270.027 4.08759L270.741 8.91759C275.193 8.62359 276.495 8.49759 280.737 7.95159C276.537 13.9156 271.245 18.9976 265.491 23.4916L269.061 26.9776ZM282.627 31.8916C282.123 32.0596 281.157 32.3116 280.023 32.3116C278.217 32.3116 275.991 31.5976 275.991 30.0016C275.991 28.9516 277.083 28.0276 278.427 28.0276C281.493 28.0276 282.249 30.6316 282.627 31.8916Z" fill="black"/>
<path d="M308.079 2.07159C308.331 5.85159 308.54 10.2196 308.54 13.9156C308.54 25.6756 306.567 30.5056 304.383 35.2096L308.961 36.5956C312.909 27.3556 312.909 18.1996 312.909 13.0756V6.18759H340.545V2.07159H308.079ZM324.249 20.8036V32.5216H312.656V36.5956H340.208V32.5216H328.785V20.8036H338.445V16.6036H328.785V10.0936C328.785 9.79959 328.784 9.46359 329.036 9.21159C329.582 8.66559 329.625 8.58159 329.625 8.41359C329.625 8.03559 329.163 8.07759 328.575 8.03559L324.249 7.86759V16.6036H315.345V20.8036H324.249Z" fill="black"/>
<path d="M366.626 23.8696H370.91V19.9216H366.626V18.2416C366.626 17.9896 366.627 17.6536 367.047 17.2756C367.341 17.0236 367.592 16.7716 367.592 16.6036C367.592 16.1836 366.795 16.1416 366.543 16.1416L362.721 16.0156V19.9216H357.975V23.8696H362.721V29.6236C360.789 29.8756 358.521 30.1696 356.505 30.3796L357.932 34.7476C358.058 35.1676 358.227 35.4196 358.562 35.4196C358.773 35.4196 358.898 35.2936 359.108 34.8736C359.318 34.4956 359.36 34.4536 359.906 34.3696C366.038 33.3196 368.937 32.6896 372.423 31.9336L372.255 28.1536C369.861 28.5736 368.81 28.7836 366.626 29.0776V23.8696ZM379.311 1.23159V31.0936C379.311 32.0596 378.848 32.7736 377.589 32.7736H373.935L375.867 37.2256H378.681C381.705 37.2256 383.51 35.0836 383.51 32.5636V3.54159C383.51 3.07959 383.595 2.78559 383.763 2.57559C383.847 2.44959 384.35 2.02959 384.35 1.86159C384.35 1.39959 383.426 1.35759 383.007 1.35759L379.311 1.23159ZM358.436 5.93559H361.88C361.292 8.24559 360.789 9.71559 359.823 12.2356C358.689 12.3616 357.891 12.3616 356.715 12.3616L357.681 16.0156C357.723 16.1836 357.933 16.8556 358.353 16.8556C358.521 16.8556 359.067 16.2256 359.361 15.9736C359.949 15.9316 366.795 15.0916 368.223 14.9236C368.769 16.3516 368.895 16.6456 369.147 17.3596L372.716 15.9316V26.4736H376.665V8.41359C376.665 8.03559 376.707 7.69959 376.917 7.44759C377.211 7.11159 377.505 6.85959 377.505 6.69159C377.505 6.35559 377.21 6.27159 376.286 6.22959L372.716 6.14559V15.6796C371.75 13.1596 370.449 10.3876 368.853 7.90959L365.451 9.50559C365.828 10.0936 366.249 10.6816 366.879 11.7736C365.829 11.8996 364.863 11.9416 363.771 12.0256C364.737 9.58959 365.114 8.62359 365.954 5.93559H371.961V2.32359H358.436V3.12159C358.268 2.70159 357.975 2.49159 357.387 2.32359L353.229 1.06359C352.347 5.64159 350.625 10.7236 346.089 16.9816L349.953 19.3756C350.457 18.6616 351.087 17.6116 351.339 17.0656V37.4356H355.454V12.2776C355.454 11.8156 355.539 11.6056 355.875 11.2276C355.917 11.1856 356.505 10.5556 356.505 10.3876C356.505 9.96759 355.832 9.63159 355.286 9.37959C355.664 8.58159 356.42 6.39759 356.966 4.63359C357.05 4.33959 357.177 4.04559 357.555 3.91959C358.101 3.75159 358.352 3.62559 358.436 3.28959V5.93559Z" fill="black"/>
<path d="M414.674 7.69959C414.884 7.02759 415.431 4.00359 415.641 3.33159C415.683 3.12159 416.48 2.32359 416.48 2.11359C416.48 1.73559 416.312 1.73559 414.884 1.52559L411.44 1.06359C411.314 2.32359 410.642 10.1776 406.82 15.5116V7.44759H401.108C401.402 6.31359 402.536 2.61759 402.578 2.49159C402.62 2.36559 403.25 1.86159 403.25 1.69359C403.25 1.31559 403.125 1.27359 401.823 1.10559L398.211 0.601592C398.127 1.27359 397.623 4.33959 396.783 7.44759H392.204V36.5536H396.405V33.4876H402.704V35.5876H406.82V15.9316L410.642 18.3256C412.112 15.8896 413.498 11.6056 413.54 11.5216H422.529C422.361 17.0236 422.192 23.4076 421.1 28.9096C420.47 31.9336 418.874 32.2276 417.194 32.2276C416.606 32.2276 415.935 32.1856 414.759 32.1436L415.809 36.7636C420.093 36.6796 422.907 36.5956 424.461 32.6476C426.519 27.3976 426.687 14.0836 426.729 7.69959H414.674ZM402.704 18.4936H396.405V11.1856H402.704V18.4936ZM402.704 29.7496H396.405V22.2316H402.704V29.7496ZM411.651 18.1576C412.995 20.0056 414.381 22.7776 415.305 25.6336L419.126 23.6596C418.118 20.7196 416.984 18.7036 415.22 16.1416L411.651 18.1576Z" fill="black"/>
<path d="M443.066 9.04359C443.444 8.11959 443.696 7.53159 444.284 5.76759C444.536 5.09559 444.578 4.92759 444.872 4.80159C445.628 4.50759 445.712 4.50759 445.712 4.21359C445.712 3.79359 445.334 3.54159 444.452 3.28959L440.294 2.11359C438.698 9.29559 435.338 14.1676 432.608 17.4436L437.06 19.8376C438.824 17.6956 440.84 13.9576 441.26 13.1176H450.122V20.2576H440.211V24.2056H450.122V32.3956H433.952V36.3856H470.03V32.3956H454.742V24.2056H464.234V20.2576H454.742V13.1176H468.224V9.04359H454.742V4.29759C454.742 3.41559 454.869 3.33159 455.204 2.99559C455.582 2.65959 455.667 2.49159 455.667 2.28159C455.667 1.81959 455.163 1.69359 454.365 1.60959L450.122 1.14759V9.04359H443.066Z" fill="black"/>
<path d="M491.451 19.3756C491.577 19.0816 491.786 18.6616 491.954 18.4096C492.248 18.2416 492.542 18.1156 492.542 17.9476C492.542 17.7796 492.458 17.6536 492.038 17.4856L488.342 16.1416C487.292 20.4676 484.689 23.5756 484.059 24.4156L487.544 26.2216C487.964 25.6336 488.511 24.9196 489.645 22.8196H495.189V25.8856H488.007V29.2876H495.189V33.0676H483.051V36.5116H511.904V33.0676H499.305V29.2876H506.948V25.8856H499.305V22.8196H509.678V19.3756H499.305V18.1576C499.305 17.9056 499.43 17.7376 499.724 17.5276C499.892 17.4016 500.06 17.2756 500.06 17.0656C500.06 16.7296 499.808 16.6456 498.758 16.5196L495.189 16.1416V19.3756H491.451ZM511.695 15.2596V11.8156H501.909C503.001 10.1776 503.504 9.16959 504.134 7.57359H511.107V4.17159H497.163V2.23959C497.247 2.02959 498.003 1.35759 498.003 1.14759C498.003 0.727592 497.204 0.727592 496.742 0.685593L492.374 0.433594V4.17159H478.556V7.57359H485.612C485.948 8.07759 486.243 8.45559 488.007 11.8156H479.06C479.396 19.0396 479.439 19.1656 479.439 20.6356C479.439 29.8756 477.297 33.4456 475.533 36.2176L479.858 37.5616C483.554 31.8916 483.596 23.9956 483.596 18.4516V15.2596H511.695ZM499.598 7.57359C499.178 9.00159 498.422 10.5976 497.54 11.8156H492.542C491.912 10.5556 490.989 8.83359 490.275 7.57359H499.598Z" fill="black"/>
<path d="M537.86 9.00159C538.028 8.37159 538.448 7.02759 538.658 6.27159C539.036 5.97759 539.75 5.34759 539.75 5.13759C539.75 4.84359 539.204 4.59159 538.7 4.46559L534.836 3.54159C534.542 5.76759 534.038 7.86759 533.408 10.0096C532.316 8.74959 531.14 7.57359 530.762 7.19559L529.166 8.41359V2.61759C529.166 2.23959 529.334 2.11359 529.544 1.98759C529.88 1.77759 530.09 1.65159 530.09 1.44159C530.09 1.06359 529.838 0.979592 528.704 0.895593L525.008 0.685593V37.3096H529.166V10.5136C529.88 11.3536 530.384 11.8996 531.98 13.8316C531.182 15.3856 530.72 16.0996 530.048 16.9396L534.164 18.7876C535.004 16.9396 535.55 15.7216 536.516 13.0756H541.262V19.7536H534.122V23.7856H541.262V31.8496H531.56V35.8396H555.668V31.8496H545.462V23.7856H553.064V19.7536H545.462V13.0756H554.618V9.00159H545.462V3.37359C545.462 3.24759 545.462 2.74359 545.63 2.53359C545.798 2.32359 546.68 1.60959 546.68 1.39959C546.68 0.979592 546.092 0.937592 545.462 0.937592L541.262 0.811594V9.00159H537.86ZM520.724 8.62359C520.388 12.8236 520.052 14.9656 518.834 18.8296L522.446 19.6276C522.74 18.6616 523.286 16.6036 523.874 11.9416C524.042 10.7236 524 10.4296 524.336 10.3036C524.63 10.1776 524.798 10.0936 524.798 9.84159C524.798 9.46359 524.378 9.33759 523.496 9.16959L520.724 8.62359Z" fill="black"/>
</svg>
