<svg fill="none" height="38" viewBox="0 0 630 38" width="630" xmlns="http://www.w3.org/2000/svg" xmlns:xlink="http://www.w3.org/1999/xlink"><filter id="a" color-interpolation-filters="sRGB" filterUnits="userSpaceOnUse" height="35.1836" width="38.8977" x=".713379" y=".669434"><feFlood flood-opacity="0" result="BackgroundImageFix"/><feColorMatrix in="SourceAlpha" type="matrix" values="0 0 0 0 0 0 0 0 0 0 0 0 0 0 0 0 0 0 127 0"/><feOffset dy="-2"/><feColorMatrix type="matrix" values="0 0 0 0 1 0 0 0 0 1 0 0 0 0 1 0 0 0 1 0"/><feBlend in2="BackgroundImageFix" mode="normal" result="effect1_dropShadow"/><feColorMatrix in="SourceAlpha" type="matrix" values="0 0 0 0 0 0 0 0 0 0 0 0 0 0 0 0 0 0 127 0"/><feOffset dy="2"/><feColorMatrix type="matrix" values="0 0 0 0 1 0 0 0 0 1 0 0 0 0 1 0 0 0 1 0"/><feBlend in2="effect1_dropShadow" mode="normal" result="effect2_dropShadow"/><feBlend in="SourceGraphic" in2="effect2_dropShadow" mode="normal" result="shape"/></filter><g fill="#333"><path d="m73.3441 15.3341v13.598c0 1.56-.442 1.56-2.756 1.534l1.118 2.678c2.964-.104 4.446-.624 4.446-2.938v-14.872h2.34v-2.4701h-15.522v2.4701zm-16.354 6.396c.13-.182.858-1.118 1.014-1.326v12.584h2.678v-15.288c0-.182.052-.234.494-.65.052-.026.234-.208.234-.26 0-.156-.052-.182-.468-.5981.598-1.1179.884-1.664 1.326-2.8079.208-.5721.234-.624.312-.7541.078-.0779.598-.2859.598-.4159 0-.156-.312-.286-.494-.3381l-2.652-.8839c-1.3 4.16-2.522 6.24-5.434 9.204zm6.214-3.744v11.362h2.496v-2.418h5.226v-8.944zm5.226 6.5h-2.73v-3.978h2.73z"/><path d="m85.6941 31.7401c2.73-3.406 4.55-7.67 5.694-12.298 1.534-.26 2.236-.286 2.496-.286.754 0 1.43.234 1.43 2.028 0 2.054-.364 3.848-1.17 5.928-.65 1.742-1.248 2.002-1.976 2.002-.78 0-1.664-.312-2.392-.546v2.808c.442.182 1.17.494 2.34.494 3.224 0 4.082-2.236 4.472-3.276.286-.728 1.404-3.822 1.404-7.696 0-3.198-1.3-4.3161-3.64-4.3161-.78 0-1.56.104-2.34.234.182-.8839.676-3.276.754-3.588.078-.13.39-.364.494-.4419.052-.0521.052-.104.052-.1821 0-.1819-.156-.234-.936-.3899l-2.652-.5721c0 1.8721-.13 3.5101-.52 5.6161-1.976.312-3.718.572-5.642.728l.832 3.12c1.352-.494 2.288-.702 4.16-1.118-1.092 3.822-2.86 7.436-5.564 10.348zm14.8459-6.838c2.236-.468 3.614-.962 3.614-2.548 0-.52-.208-3.484-4.082-8.0601l-2.0279 1.4561c2.8339 3.666 3.0679 5.2 3.0679 5.564 0 .65-.468.728-1.7419.91z"/><path d="m123.446 14.2421c-2.366-1.6121-4.498-2.522-6.656-3.1721l-1.092 2.6001c2.314.7539 4.186 1.5599 6.292 3.198zm-8.866 12.636c.806-.988 1.534-1.872 2.912-2.756 1.17-.754 2.808-1.456 4.238-1.456 1.066 0 3.12.624 3.12 3.094 0 4.42-6.89 4.55-8.19 4.55-.858 0-1.638-.052-2.158-.078l1.118 2.886c3.354-.078 12.142-.338 12.142-7.254 0-3.38-2.236-5.746-5.85-5.746-3.016 0-5.252 1.534-6.422 2.314.182-1.3.442-3.042 1.742-5.954l-2.626-1.17c-1.196 2.678-1.716 4.992-2.366 10.114z"/><path d="m137.72 10.68c-.026.6501-.052 1.638-.572 4.446h-2.34v2.392h1.976c-.78 3.3801-1.534 5.6421-2.262 7.5401l2.522.494.468-1.352c.52.494.988.988 1.69 1.768-.702 1.534-1.898 3.874-4.368 6.058l2.392 1.326c1.222-1.3 2.678-3.016 3.718-5.07.806 1.118 1.3 1.924 1.56 2.34l2.106-1.742c-.91-1.248-1.716-2.132-2.548-3.042 1.3-3.848 1.43-7.0201 1.404-10.7121h-3.718c.078-.4419.468-2.652.52-2.7819.052-.182.65-.8061.65-.988 0-.234-.208-.26-.91-.364zm3.302 6.838c-.026 2.4181-.416 4.2641-.91 6.0581-.182-.156-1.274-1.274-1.924-1.898.182-.65.936-3.5621 1.066-4.1601zm14.716 5.6421h-10.348v10.192h2.574v-.936h5.2v.936h2.574zm-2.574 6.812h-5.2v-4.342h5.2zm4.082-8.71c-.624-1.586-1.612-3.822-3.536-7.124l-2.236 1.1179c.468.7541.91 1.534 1.69 3.224-1.248.1561-2.444.2341-4.394.2341.026-.078.104-.3381.13-.416.494-1.56 1.3-4.056 1.82-5.616.052-.156.156-.4421.364-.5461.572-.3119.624-.3119.624-.5199 0-.182-.078-.26-.598-.364l-2.938-.5721c-.494 2.6261-.962 4.7321-1.846 8.1121h-2.236l.26 2.34c.052.364.078.702.39.702.13 0 .156-.052.442-.416.13-.182.416-.182.676-.208 2.782-.13 5.538-.286 8.294-.546.234.598.364.884.65 1.586z"/><path d="m173.912 33.0921c.884-.234 2.522-.702 3.978-1.534 2.418-1.378 4.238-4.394 4.238-7.8 0-6.006-4.758-7.592-7.488-7.9041.078-.494.182-1.1439.26-1.82.026-.234.13-1.1439.182-1.5079.026-.104.598-.494.598-.6501 0-.2599-.104-.2599-1.014-.3119l-2.834-.182c.052.5199.13 1.144.13 2.262 0 .91-.052 1.6119-.104 2.288-1.976.3899-3.302.91-4.55 1.638-.338-1.2481-.676-2.5481-.962-4.3421l-2.704 1.2481c.702 2.236 1.248 3.874 1.534 4.706-1.144 1.17-3.25 3.38-3.25 7.514 0 1.352.26 4.888 3.224 4.888 1.846 0 3.172-1.43 4.472-2.86.468.65.702.962 1.066 1.378l2.08-2.418c-.312-.26-.65-.546-1.352-1.404 1.248-2.132 2.184-5.252 2.756-7.956 2.574.26 5.07 1.69 5.07 5.2 0 2.366-1.17 4.732-3.25 5.902-1.534.858-3.068 1.066-3.952 1.17zm-2.444-14.664c-.39 1.924-.832 3.614-1.638 5.408-.598-1.092-1.066-2.106-1.716-3.796 1.3-.988 2.262-1.378 3.354-1.612zm-3.146 8.164c-.442.598-1.508 2.132-2.626 2.132-1.144 0-1.144-1.586-1.144-2.002 0-2.626 1.014-4.082 1.586-4.914.494 1.222 1.092 2.704 2.184 4.784z"/><path d="m191.176 27.0341c2.99-3.276 4.888-5.382 8.476-5.382s4.186 2.158 4.186 3.64c0 2.002-1.066 2.912-1.872 3.588-.364-.806-1.534-3.406-4.966-3.406-2.912 0-4.056 1.82-4.056 3.51 0 3.328 3.588 3.77 5.33 3.77 4.706 0 8.346-2.938 8.346-7.436 0-2.184-.988-6.006-6.162-6.006-.988 0-1.69.156-2.158.286 2.704-3.094 4.16-4.732 5.746-5.9021l-1.196-2.054c-2.288.962-6.89 1.3521-8.372 1.3521-.728 0-1.976-.078-2.704-.1301l.442 2.99c2.756-.1819 3.562-.26 6.188-.598-2.6 3.6921-5.876 6.8381-9.438 9.6201zm8.398 3.042c-.312.104-.91.26-1.612.26-1.118 0-2.496-.442-2.496-1.43 0-.65.676-1.222 1.508-1.222 1.898 0 2.366 1.612 2.6 2.392z"/><path d="m227.212 32.3381c1.95-.728 7.8-2.912 7.8-10.192 0-5.46-3.796-9.334-9.802-9.334-6.604 0-11.206 5.044-11.206 10.764 0 5.2 3.744 7.488 5.356 7.488 1.534 0 2.782-2.834 3.042-3.432 2.184-4.914 2.808-9.2821 3.224-12.35 1.534.234 6.474.962 6.474 6.838 0 5.928-5.2 7.358-6.838 7.826zm-4.524-16.77c-.26 3.484-1.118 6.942-2.496 10.166-.338.78-.806 1.846-1.378 1.846-.91 0-2.236-1.69-2.236-4.004 0-1.794.65-6.136 6.11-8.008z"/><path d="m243.254 31.7401c2.73-3.406 4.55-7.67 5.694-12.298 1.534-.26 2.236-.286 2.496-.286.754 0 1.43.234 1.43 2.028 0 2.054-.364 3.848-1.17 5.928-.65 1.742-1.248 2.002-1.976 2.002-.78 0-1.664-.312-2.392-.546v2.808c.442.182 1.17.494 2.34.494 3.224 0 4.082-2.236 4.472-3.276.286-.728 1.404-3.822 1.404-7.696 0-3.198-1.3-4.3161-3.64-4.3161-.78 0-1.56.104-2.34.234.182-.8839.676-3.276.754-3.588.078-.13.39-.364.494-.4419.052-.0521.052-.104.052-.1821 0-.1819-.156-.234-.936-.3899l-2.652-.5721c0 1.8721-.13 3.5101-.52 5.6161-1.976.312-3.718.572-5.642.728l.832 3.12c1.352-.494 2.288-.702 4.16-1.118-1.092 3.822-2.86 7.436-5.564 10.348zm14.846-6.838c2.236-.468 3.614-.962 3.614-2.548 0-.52-.208-3.484-4.082-8.0601l-2.028 1.4561c2.834 3.666 3.068 5.2 3.068 5.564 0 .65-.468.728-1.742.91z"/><path d="m269.332 29.2961c.312-.494.832-1.378 2.392-3.536-.182 4.68-.39 6.37-.494 7.254l3.068-.104c-.078-4.498-.078-6.682-.078-7.696 0-.468 0-1.586.026-2.73 2.782-2.626 4.966-2.99 6.136-2.99 2.054 0 3.77 1.612 3.77 4.082 0 1.898-.988 3.9-2.834 5.07-1.326.858-2.574 1.17-3.224 1.326l1.794 2.704c5.382-2.08 7.228-5.798 7.228-8.918 0-3.978-2.964-6.838-6.396-6.838-2.34 0-4.134 1.144-5.408 1.95.494-.858 1.43-2.4441 1.482-2.5481l-1.352-1.1699c-.104.026-.598.2079-.728.26.078-.546.234-2.158.416-2.496.052-.104.52-.598.52-.728 0-.234-.858-.39-1.118-.442l-2.444-.4421c.052 1.5341.052 3.2761.052 4.8361-2.834.702-3.562.754-4.394.832l.442 3.042c2.028-.65 2.262-.728 3.848-1.196 0 .208-.078 1.17-.078 1.404-2.236 3.9-4.42 6.136-5.148 6.89z"/><path d="m295.774 31.7401c2.73-3.406 4.55-7.67 5.694-12.298 1.534-.26 2.236-.286 2.496-.286.754 0 1.43.234 1.43 2.028 0 2.054-.364 3.848-1.17 5.928-.65 1.742-1.248 2.002-1.976 2.002-.78 0-1.664-.312-2.392-.546v2.808c.442.182 1.17.494 2.34.494 3.224 0 4.082-2.236 4.472-3.276.286-.728 1.404-3.822 1.404-7.696 0-3.198-1.3-4.3161-3.64-4.3161-.78 0-1.56.104-2.34.234.182-.8839.676-3.276.754-3.588.078-.13.39-.364.494-.4419.052-.0521.052-.104.052-.1821 0-.1819-.156-.234-.936-.3899l-2.652-.5721c0 1.8721-.13 3.5101-.52 5.6161-1.976.312-3.718.572-5.642.728l.832 3.12c1.352-.494 2.288-.702 4.16-1.118-1.092 3.822-2.86 7.436-5.564 10.348zm14.846-6.838c2.236-.468 3.614-.962 3.614-2.548 0-.52-.208-3.484-4.082-8.0601l-2.028 1.4561c2.834 3.666 3.068 5.2 3.068 5.564 0 .65-.468.728-1.742.91z"/><path d="m333.526 14.2421c-2.366-1.6121-4.498-2.522-6.656-3.1721l-1.092 2.6001c2.314.7539 4.186 1.5599 6.292 3.198zm-8.866 12.636c.806-.988 1.534-1.872 2.912-2.756 1.17-.754 2.808-1.456 4.238-1.456 1.066 0 3.12.624 3.12 3.094 0 4.42-6.89 4.55-8.19 4.55-.858 0-1.638-.052-2.158-.078l1.118 2.886c3.354-.078 12.142-.338 12.142-7.254 0-3.38-2.236-5.746-5.85-5.746-3.016 0-5.252 1.534-6.422 2.314.182-1.3.442-3.042 1.742-5.954l-2.626-1.17c-1.196 2.678-1.716 4.992-2.366 10.114z"/><path d="m364.466 30.1021c-1.118-.962-2.366-1.872-4.238-2.808 0-.546-.104-3.276-.104-3.9 0-.728 0-1.144 1.222-2.158l-2.574-1.56c-.78.676-1.3 1.326-1.3 3.068 0 .52.078 3.016.104 3.588-.494-.13-1.3-.312-2.418-.312-2.574 0-4.394 1.638-4.394 3.666 0 2.34 2.314 3.796 5.2 3.796 3.614 0 4.108-1.976 4.316-3.068.884.598 1.612 1.17 2.47 2.028zm-6.864-1.066c-.052.728-.13 2.002-2.002 2.002-.728 0-2.288-.26-2.288-1.378 0-.286.156-1.248 1.664-1.248.806 0 1.482.208 2.626.624zm-3.952-18.382c-.338 1.638-.832 3.224-1.326 4.758-.728.052-1.404.104-2.132.104-.988 0-1.898-.104-2.47-.1561l.13 2.7561c1.066-.026 2.47-.078 3.536-.13-1.326 3.406-2.938 6.682-5.356 9.386l2.886 1.352c.156-.26 3.562-5.98 5.408-10.9461 1.846-.2079 3.042-.4419 4.108-.7279l.182-2.938c-.624.3119-1.378.5459-3.354.936.156-.468.832-2.47 1.066-2.626.13-.078.572-.364.572-.442 0-.234-.546-.416-.832-.52zm12.428 8.268c-1.222-.988-3.094-2.262-5.85-2.9641l-1.404 2.0541c1.716.572 4.16 1.638 5.694 3.146z"/><path d="m379.65 23.8881c-.624 1.508-1.716 3.926-2.626 3.926-.832 0-1.924-1.716-1.924-5.226 0-3.328 1.092-6.2921 1.3-6.448.338-.26.52-.39.52-.5461 0-.234-.442-.4419-.702-.572l-2.782-1.2739c-.104.572-.624 3.016-.728 3.5359-.26 1.2481-.494 2.9121-.494 4.7321 0 5.2 1.95 9.36 4.524 9.36 1.56 0 3.016-1.3 5.07-5.642zm13.208 2.938c-.312-3.484-1.326-8.034-3.822-11.544l-2.782 1.1699c1.248 1.794 3.25 5.2001 3.406 10.7901z"/><path d="m415.452 23.4461c-.91 2.002-2.912 6.448-7.176 6.448-2.782 0-2.99-2.236-2.99-4.784 0-4.4201.78-11.596 1.118-11.9081.026-.0519.26-.1559.312-.234.052-.0519.078-.13.078-.2079 0-.2861-.182-.312-.754-.416l-3.224-.598c.052.598.104 1.9239.104 3.068 0 1.7419-.26 9.412-.26 10.972 0 2.626.208 6.942 5.382 6.942 4.394 0 7.774-3.146 9.75-7.592z"/><path d="m439.658 21.2621h-10.114v-1.95h10.114zm2.678 1.95v-9.9061h-6.5v-.9099c0-.182 0-.4161.078-.546.078-.1041.494-.4681.494-.598 0-.26-.52-.3121-.962-.364l-2.288-.2081v2.626h-6.214v16.7961c-.936.182-1.508.26-2.834.364l.806 2.314c.182.546.312.806.572.806.182 0 .26-.156.338-.286.104-.156.234-.286.442-.338 2.366-.624 6.136-1.586 8.476-2.288l-.156-2.522c-1.742.598-3.016.962-5.044 1.482v-6.344h2.86c2.366 5.746 5.876 8.164 11.128 9.854l1.82-2.548c-2.314-.468-4.004-.962-6.214-2.392 1.638-1.326 2.626-2.236 3.146-2.756.468-.442.52-.442 1.118-.442.26 0 .416-.078.416-.286 0-.156-.13-.338-.286-.468zm-2.678-5.9281h-10.114v-1.8719h10.114zm1.014 6.0061c-1.196 1.534-2.106 2.366-3.38 3.406-1.066-1.17-1.638-2.002-2.288-3.406z"/><path d="m458.43 23.8881c-.624 1.508-1.716 3.926-2.626 3.926-.832 0-1.924-1.716-1.924-5.226 0-3.328 1.092-6.2921 1.3-6.448.338-.26.52-.39.52-.5461 0-.234-.442-.4419-.702-.572l-2.782-1.2739c-.104.572-.624 3.016-.728 3.5359-.26 1.2481-.494 2.9121-.494 4.7321 0 5.2 1.95 9.36 4.524 9.36 1.56 0 3.016-1.3 5.07-5.642zm13.208 2.938c-.312-3.484-1.326-8.034-3.822-11.544l-2.782 1.1699c1.248 1.794 3.25 5.2001 3.406 10.7901z"/><path d="m478.502 33.2741c6.24-4.758 7.982-10.972 8.606-13.988.884 1.144 1.404 1.82 2.912 3.328v10.764h2.678v-8.424c1.274.962 2.496 1.768 4.498 2.86l1.612-2.548c-2.444-1.066-4.004-1.95-6.11-3.64v-9.1c0-.13.052-.234.182-.312.624-.364.702-.416.702-.5721 0-.338-.52-.338-.676-.364l-2.886-.1559v7.93c-.754-1.014-.832-1.118-1.092-1.482l-1.742 1.3c.104-.598.26-1.482.39-3.8741h-5.07c.182-.572.312-.962.676-2.158.052-.1819.078-.2599.26-.3899.442-.286.494-.3121.494-.494 0-.26-.312-.3121-.442-.338l-3.094-.52c-.442 4.966-2.938 9.464-4.16 11.284l2.184 1.248c.26-.364.494-.676 1.196-1.872 1.326.806 2.21 1.43 3.198 2.522-1.69 3.12-3.328 4.888-6.422 7.306zm6.344-15.834c-.208 1.456-.39 2.522-.988 4.238-1.092-1.092-1.742-1.534-3.12-2.158.572-1.274.702-1.6381.858-2.08z"/><path d="m509.234 14.996v2.522h5.876v4.5501h-4.784v2.756h4.784v5.434h-6.318v2.6h16.042v-2.6h-6.968v-5.434h5.07v-2.756h-5.07v-4.5501h6.604v-2.522h-6.916l1.482-1.196c-1.326-1.2739-2.47-2.132-3.796-2.9379l-1.898 1.7419c1.04.7801 1.872 1.456 2.834 2.392zm-5.226-1.69c1.222.468 2.496 1.2741 4.056 2.3661l1.482-2.184c-1.118-.936-2.34-1.638-4.134-2.5741zm-2.418 6.2141c2.288.78 3.952 1.898 4.654 2.34l1.3-2.392c-1.04-.65-2.496-1.534-4.68-2.2881zm4.992 4.186c-.78 2.132-2.6 5.668-4.42 8.164l2.002 1.43c.13.078.364.182.52.182.104 0 .182-.13.208-.364.026-.364.052-.546.364-1.066 1.3-2.106 2.444-4.342 3.484-6.578z"/><path d="m538.094 16.686v3.3281h-9.646v2.444h11.83v8.06c0 1.404.988 2.236 2.418 2.236h5.2c.676 0 2.262 0 3.094-3.718l-2.548-1.404c-.312 1.794-.468 2.678-1.69 2.678h-2.756c-.364 0-.754-.104-.754-.806v-7.046h7.02v-2.444h-9.204v-3.3281h7.384v-2.4439h-7.384v-1.794c0-.364.026-.4421.286-.6761.26-.26.312-.2859.312-.4159 0-.26-.494-.3121-.754-.338l-2.808-.2081v3.4321h-3.51c.078-.13.39-.832.468-.988.104-.1821.156-.312.312-.364.312-.104.468-.1561.468-.2861s-.156-.3119-.494-.4159l-2.6-.858c-.754 2.5739-1.976 4.576-3.588 6.578l2.522 1.248c.65-.754 1.014-1.3781 1.664-2.4701zm-7.358 16.8741c1.742-.728 6.422-2.626 6.968-8.788.026-.442.052-.676.364-.884.442-.312.546-.39.546-.546 0-.26-.52-.338-.884-.39l-2.704-.364c-.13 3.926-.806 6.786-6.396 8.788z"/><path d="m569.268 22.1721c-.39.078-1.3.286-2.834.286-1.04 0-1.768-.052-2.236-.078.312-1.066.624-2.054 1.222-3.666 1.274.13 2.132.208 3.952.234l.728-2.808c-.624.0779-1.352.1819-2.158.1819-.546 0-1.248-.0519-1.534-.0779.234-.546 1.482-3.328 1.716-3.432.338-.156.546-.234.546-.364 0-.2081-.442-.4421-.676-.5461l-2.756-1.2999c-.182 1.118-1.196 3.952-1.664 5.2519-2.808-.5719-3.796-1.066-4.55-1.4819l-.416 2.964c1.586.4419 2.6.702 4.108.988-.26.78-.806 2.444-1.144 3.64-1.924-.494-2.912-.962-3.692-1.404l-.52 2.938c.988.442 2.86.884 3.51 1.014-.286 1.17-.52 2.262-.52 3.38 0 2.314 1.586 5.382 6.318 5.382 5.096 0 7.748-3.068 7.748-6.604 0-2.002-.702-3.796-1.742-5.616l-2.418 1.378c.988 1.508 1.456 2.522 1.456 3.874 0 2.08-1.716 4.342-4.966 4.342-1.976 0-3.536-.962-3.536-3.224 0-.832.182-1.716.312-2.418.572.078 1.3.182 2.626.182.962 0 1.82-.078 2.314-.104z"/><path d="m600.806 30.1021c-1.118-.962-2.366-1.872-4.238-2.808 0-.546-.104-3.276-.104-3.9 0-.728 0-1.144 1.222-2.158l-2.574-1.56c-.78.676-1.3 1.326-1.3 3.068 0 .52.078 3.016.104 3.588-.494-.13-1.3-.312-2.418-.312-2.574 0-4.394 1.638-4.394 3.666 0 2.34 2.314 3.796 5.2 3.796 3.614 0 4.108-1.976 4.316-3.068.884.598 1.612 1.17 2.47 2.028zm-6.864-1.066c-.052.728-.13 2.002-2.002 2.002-.728 0-2.288-.26-2.288-1.378 0-.286.156-1.248 1.664-1.248.806 0 1.482.208 2.626.624zm-3.952-18.382c-.338 1.638-.832 3.224-1.326 4.758-.728.052-1.404.104-2.132.104-.988 0-1.898-.104-2.47-.1561l.13 2.7561c1.066-.026 2.47-.078 3.536-.13-1.326 3.406-2.938 6.682-5.356 9.386l2.886 1.352c.156-.26 3.562-5.98 5.408-10.9461 1.846-.2079 3.042-.4419 4.108-.7279l.182-2.938c-.624.3119-1.378.5459-3.354.936.156-.468.832-2.47 1.066-2.626.13-.078.572-.364.572-.442 0-.234-.546-.416-.832-.52zm12.428 8.268c-1.222-.988-3.094-2.262-5.85-2.9641l-1.404 2.0541c1.716.572 4.16 1.638 5.694 3.146z"/><path d="m615.99 23.8881c-.624 1.508-1.716 3.926-2.626 3.926-.832 0-1.924-1.716-1.924-5.226 0-3.328 1.092-6.2921 1.3-6.448.338-.26.52-.39.52-.5461 0-.234-.442-.4419-.702-.572l-2.782-1.2739c-.104.572-.624 3.016-.728 3.5359-.26 1.2481-.494 2.9121-.494 4.7321 0 5.2 1.95 9.36 4.524 9.36 1.56 0 3.016-1.3 5.07-5.642zm13.208 2.938c-.312-3.484-1.326-8.034-3.822-11.544l-2.782 1.1699c1.248 1.794 3.25 5.2001 3.406 10.7901z"/></g><path clip-rule="evenodd" d="m32 10h-26v26h26zm-28-2v30h30v-30z" fill="#4d4d4d" fill-rule="evenodd"/><g filter="url(#a)"><path clip-rule="evenodd" d="m39.611 7.33075-23.6733 26.52225-15.224321-13.1369 4.573071-5.2997 10.01275 8.6399 19.0896-21.38687z" fill="#f6ca2b" fill-rule="evenodd"/></g></svg>