<svg width="303" height="222" viewBox="0 0 303 222" fill="none" xmlns="http://www.w3.org/2000/svg">
<path d="M71.1684 65.0003L59.9684 35.8003H53.8484L42.6484 65.0003H48.6084L50.7684 58.7203H63.0484L65.2084 65.0003H71.1684ZM61.4884 54.2003H52.3684L56.2484 42.9603L56.9284 40.4003L57.5684 42.9603L61.4884 54.2003Z" fill="white"/>
<path d="M80.7599 65.0003V35.8003H75.36V65.0003H80.7599Z" fill="white"/>
<path d="M127.672 37.9603L118.152 47.4803L108.632 37.9603L105.712 40.8803L115.232 50.4003L105.712 59.9603L108.632 62.8803L118.152 53.3203L127.672 62.8803L130.592 59.9603L121.072 50.4003L130.592 40.8803L127.672 37.9603Z" fill="white"/>
<path d="M186.192 64.2803V59.1203C183.832 59.4803 178.792 60.2403 172.832 60.2403C166.192 60.2403 166.072 59.0003 166.072 56.6803V50.3603C174.072 48.6403 178.952 46.8403 184.472 44.5603C184.872 44.5203 185.352 44.7203 185.712 44.7203C186.032 44.7203 186.072 44.4403 186.072 44.3603C186.072 43.9603 185.752 43.7603 185.472 43.4803L182.032 40.1603C176.352 43.6403 170.832 45.1203 166.072 45.9603V36.3203C166.072 36.1603 166.112 36.1203 166.632 35.7203C166.872 35.5203 166.952 35.4003 166.952 35.2403C166.952 34.8003 165.992 34.6403 165.752 34.6003L161.192 33.9603V58.5203C161.192 62.6803 162.432 64.8003 174.392 64.8003C178.352 64.8003 182.272 64.6003 186.192 64.2803Z" fill="white"/>
<path d="M222.312 52.4003C220.712 51.0003 219.232 49.6803 216.072 47.6003C212.632 45.3603 211.312 44.8403 209.272 43.9603L207.392 46.9203V36.4003C207.392 36.2003 208.432 35.5603 208.432 35.3203C208.432 34.8403 207.592 34.7203 207.472 34.6803L202.672 33.8403V65.5203H207.392V48.2403C212.192 50.2403 216.192 53.4803 219.152 56.2403L222.312 52.4003Z" fill="white"/>
<path d="M264.552 49.7203C264.552 40.8003 257.992 35.1603 249.672 35.1603C239.352 35.1603 232.032 43.2403 232.032 52.1203C232.032 59.2803 238.592 62.8803 240.032 62.8803C242.112 62.8803 243.952 59.5203 245.152 57.0403C246.472 54.3603 248.832 48.7603 250.112 39.2403C251.592 39.3603 254.392 39.5203 256.912 41.9203C259.152 44.0403 259.792 46.7203 259.792 48.9203C259.792 50.6803 259.352 54.0003 256.912 56.8803C254.472 59.8003 251.512 60.6403 249.712 61.1603L252.672 65.2803C254.832 64.4003 258.992 62.6803 261.992 58.2403C263.472 56.0403 264.552 53.2403 264.552 49.7203ZM245.352 39.9603C244.552 46.2003 241.112 56.6403 239.032 56.6403C238.312 56.6403 236.472 54.9603 236.472 51.7203C236.472 49.2803 237.632 45.5603 240.472 42.8403C242.392 40.9603 244.192 40.3603 245.352 39.9603Z" fill="white"/>
<path d="M12.9999 110.04V104.56H10.0399C10.1599 103.72 10.3199 102 12.9999 101.88V99.1603C7.63994 99.7603 7.63995 104.12 7.63995 104.88V110.04H12.9999ZM5.83997 110.04V104.56H2.87994C2.95994 103.72 3.11997 102 5.83997 101.88V99.1603C0.439964 99.7603 0.439941 104.12 0.439941 104.88V110.04H5.83997Z" fill="white"/>
<path d="M48.7999 105.04C48.7999 104.72 48.2799 104.2 48.1199 104.08L44.64 101.2C38.6 108.36 29.7999 114.92 21.4399 118.2L24.92 121.76C29.6 119.56 32.2799 117.88 34.9999 116.08V133.68H39.9999V112.36C42.3599 110.48 44.5999 108.4 46.5999 106.12C47.1599 105.52 47.2399 105.44 47.8399 105.4C48.6399 105.36 48.7999 105.32 48.7999 105.04Z" fill="white"/>
<path d="M84.7999 105.04C84.7999 104.72 84.2799 104.2 84.1199 104.08L80.64 101.2C74.6 108.36 65.7999 114.92 57.4399 118.2L60.92 121.76C65.6 119.56 68.2799 117.88 70.9999 116.08V133.68H75.9999V112.36C78.3599 110.48 80.5999 108.4 82.5999 106.12C83.1599 105.52 83.2399 105.44 83.8399 105.4C84.6399 105.36 84.7999 105.32 84.7999 105.04Z" fill="white"/>
<path d="M119.92 120.4C118.32 119 116.84 117.68 113.68 115.6C110.24 113.36 108.92 112.84 106.88 111.96L105 114.92V104.4C105 104.2 106.04 103.56 106.04 103.32C106.04 102.84 105.2 102.72 105.08 102.68L100.28 101.84V133.52H105V116.24C109.8 118.24 113.8 121.48 116.76 124.24L119.92 120.4Z" fill="white"/>
<path d="M158.52 130.44V106.28H132.92V110.72H153.76V124.64H132.84V129.04H153.76V130.44H158.52Z" fill="white"/>
<path d="M199.04 106.24C197.96 104.84 196.76 103.64 195.32 102.64L193.24 104.4C194.64 105.36 195.88 106.6 196.96 108L199.04 106.24ZM194.48 108.84C193.36 107.36 192.16 106.24 190.88 105.32L188.68 107.08C189.96 108 191.16 109.12 192.28 110.6L194.48 108.84ZM194.28 120.32C190.88 117.32 186.76 114.32 181.4 112L179.56 114.8V104.44C179.56 104.24 180.56 103.6 180.56 103.36C180.56 102.88 179.68 102.72 179.6 102.72L174.64 101.84V133.52H179.56V116.44C183.88 118.24 187.68 121.12 191.12 124.32L194.28 120.32Z" fill="white"/>
<path d="M232.36 102.52C232.36 102.04 231.56 102 231.36 102L226.24 101.72C226.44 104.92 226.52 110.48 226.52 111.44C226.52 123.52 223.08 127.32 214.88 130.56L218.36 134.44C222.52 132.32 227.72 129.36 230.08 122.28C231.36 118.4 231.44 115.24 231.44 107.44C231.44 107.04 231.36 105.24 231.4 104.88C231.4 103.76 231.4 103.64 231.92 103.12C232.32 102.8 232.36 102.64 232.36 102.52ZM215.72 102.84C215.72 102.48 215 102.44 214.68 102.4L209.92 102V120.88H214.68V104C214.68 103.88 214.72 103.84 215.32 103.4C215.48 103.24 215.72 103.04 215.72 102.84Z" fill="white"/>
<path d="M243.96 99.1603V104.68H246.92C246.8 105.52 246.64 107.24 243.96 107.36V110.04C249.32 109.48 249.32 105.12 249.32 104.36V99.1603H243.96ZM251.12 99.1603V104.68H254.08C254 105.52 253.84 107.24 251.12 107.36V110.04C256.48 109.48 256.52 105.12 256.52 104.36V99.1603H251.12Z" fill="white"/>
<path d="M302.28 113.72C301.44 112.76 300.64 111.92 298.96 110.68L297.28 112.6C298.6 113.56 299.56 114.44 300.6 115.64L302.28 113.72ZM299.04 117.36C298.04 116.12 297.04 115.28 295.72 114.28L294.08 116.2C295.64 117.4 296.48 118.2 297.36 119.28L299.04 117.36ZM300.36 106.92V102.28C292.8 104.6 280.4 105.56 271.76 105.48L272.44 109.96C276.44 109.4 282.32 108.92 287.68 108.48C286.28 109.76 284.28 111.64 282.4 114.56C280.68 117.16 279.68 119.84 279.68 122.52C279.68 125.24 280.72 127.84 282.64 129.72C285.88 132.96 290.36 133.8 292.48 134.16L294.04 129.28C292.4 129.2 289.6 129.08 287 127.24C285.88 126.44 284.12 124.8 284.12 122.04C284.12 119 286.04 115.4 289 112.44C294.08 107.32 298.48 107.04 300.36 106.92Z" fill="white"/>
<path d="M51.0803 171.24C49.9603 169.84 48.8403 168.84 47.6803 167.96L45.9603 169.76C47.6003 171.08 48.4003 172.04 49.2403 173.16L51.0803 171.24ZM48.8403 175.8C47.6003 174.08 46.6803 173.2 45.5203 172.24L43.8003 174.04C45.2003 175.16 46.0803 176.16 47.1203 177.6L48.8403 175.8ZM42.6803 175.36L40.8803 172.12C37.8403 172.56 34.8003 172.76 31.7603 172.76C28.4003 172.76 25.0003 172.52 21.6803 172.04L22.8803 176.44C24.7603 176.56 25.9203 176.6 28.3203 176.6C31.3603 176.6 32.7603 176.52 34.4803 176.4C32.9603 177.8 31.3603 179.24 30.4403 180.04L33.2003 182.92C36.4803 180.12 39.5603 177.52 42.6803 175.36ZM44.5603 199.12L44.2803 194.32C41.4803 194.88 37.9603 195.6 31.9203 195.6C25.1203 195.6 24.8403 194.48 24.8403 193.36C24.8403 191.92 26.4403 190.52 27.0803 190L23.6003 187.16C22.4003 188.24 19.7203 190.64 19.7203 194.24C19.7203 198.28 23.5603 199.96 32.6003 199.96C37.4803 199.96 41.4803 199.48 44.5603 199.12Z" fill="white"/>
<path d="M90.5203 183.24V179.16H87.0803V170.6C87.0803 170.36 87.1603 170.28 87.7203 169.8C87.9603 169.6 88.0803 169.44 88.0803 169.2C88.0803 168.72 87.4803 168.6 87.1603 168.6L82.6803 168.36V179.16H73.7203V183.24H82.6803V197.24C82.6803 198.64 82.3603 198.92 78.2403 198.68L80.4003 203C85.8003 202.92 87.0803 202.44 87.0803 198.2V183.24H90.5203ZM80.2403 191.92C79.4803 189.24 78.2803 187.24 76.8003 185.36L72.9203 187.52C74.6403 189.88 75.4803 191.84 76.1203 193.88L80.2403 191.92ZM75.4803 178.28V174.2H68.2003V170.28C68.6403 169.84 69.0003 169.76 69.0003 169.36C69.0003 169.04 68.6803 168.92 68.4803 168.92L63.4403 168.6V174.2H56.2403V178.28H67.7203C66.8003 182.88 66.6403 183.6 65.6403 186.2C63.2803 183.04 62.0403 181.84 60.5603 180.56L57.0003 183.16C59.7203 185.56 61.2803 187.48 63.4403 190.6C60.7203 195.32 57.6003 197.96 54.6803 200.36L58.8403 203.08C62.8003 199.72 64.6403 197.08 66.0803 194.88C67.1603 196.92 67.8803 198.44 68.8403 200.76L73.0403 198.2C71.2003 194.56 69.8403 192.36 68.6003 190.36C69.6803 187.96 71.0403 184.88 72.2803 178.28H75.4803Z" fill="white"/>
<path d="M124.44 183.92C122.44 181.28 119.36 178.6 117.4 177.04L114 180.4C115.76 181.68 118.48 183.88 120.6 186.96L124.44 183.92ZM132.32 198.76C130.48 192.72 128.24 188.64 127.12 186.64L122.72 188.96C124.04 191.28 126 195.12 127.56 200.56L132.32 198.76ZM131.36 177V172.92H116.64V170.32C116.64 170.12 116.84 170.04 117.16 169.84C117.6 169.6 117.64 169.4 117.64 169.28C117.64 168.96 117.52 168.8 116.4 168.72L111.32 168.4V172.92H98.0403C98.6403 178.72 98.6803 184.92 98.6803 185.56C98.6803 194.52 97.1203 198.44 95.3203 202.04L99.9603 203.48C101.68 199.72 103.16 195.36 103.16 182.6C103.16 181.36 103.16 179.32 102.92 177H131.36ZM124.36 195.72L119.96 194.04C119.96 194.4 119.96 196.96 119.92 197.08C119.84 197.72 119.48 198.52 118.44 198.52H116.76C115.76 198.52 115.52 198 115.52 196.6V185.12C115.52 184.84 115.68 184.72 115.76 184.64C116.24 184.24 116.36 184.16 116.36 183.92C116.36 183.52 115.72 183.4 114.92 183.36L110.4 183.16V199.56C110.4 201.24 111.16 203.12 113.36 203.12H120.36C123.72 203.12 124.08 199.68 124.36 195.72ZM109.96 188.24C109.96 187.84 109.36 187.72 109 187.64L104.96 186.8C104.92 188.8 104.24 194.64 102.48 198.48L106.88 200.16C108.24 196.88 108.48 195.04 109.36 189.24C109.4 189.04 109.48 188.96 109.8 188.56C109.88 188.48 109.96 188.4 109.96 188.24Z" fill="white"/>
<path d="M169.4 191.24L165.48 188C161.56 195.68 156.2 197.08 153.96 197.08C151.4 197.08 150.52 195.52 150.44 195.4C149.68 194.04 149.68 190.16 149.68 188.32C149.68 183.92 150.48 173.36 150.8 172.32C151.44 171.8 151.92 171.48 151.92 171.16C151.92 170.92 151.56 170.64 150.6 170.52L145.28 169.76C145.4 172.44 145.08 184.32 145.08 186.76C145.08 196.36 145.72 198.4 147.6 200.04C148.88 201.16 150.92 202.08 153.44 202.08C155.12 202.08 158.04 201.72 161.4 199.52C165.36 196.96 167.76 193.52 169.4 191.24Z" fill="white"/>
<path d="M208.44 196.32C204.28 193.68 201.64 192.72 198.32 191.8C198.2 189.44 198.2 189.04 198.12 187.04C202.84 186.68 204.96 186.32 206.68 186.04V181.68C203 182.36 201.52 182.6 198.04 183.04V178.32C200.04 178.28 203.76 178.2 208.2 178.2L208.36 173.96C204.6 174.24 203.24 174.32 198.12 174.56C198.16 172.48 198.2 171.72 198.2 171.68C198.28 171.32 198.56 171.08 198.72 170.96C199.16 170.6 199.24 170.56 199.24 170.4C199.24 170.12 199 170 198.24 169.92L193.36 169.44L193.48 174.76C189.92 174.84 187.76 174.92 183.2 174.92L183.28 179.24C186.72 178.84 189 178.68 193.6 178.48L193.68 183.48C192.76 183.56 192.24 183.56 190.92 183.56C190.24 183.56 189.4 183.56 189.4 183C189.4 182.48 190 182.04 190.72 181.52L188.44 179.56C186.88 180.68 184.16 182.56 184.16 184.52C184.16 186.08 186 187.4 189.68 187.4C190.84 187.4 193.04 187.32 193.76 187.28L193.84 191.12L192.72 191.08C183.72 190.76 183.32 195.4 183.32 196.56C183.32 199.8 186.76 201.76 192.28 201.76C197.4 201.76 198.36 200.16 198.52 196.08C201.48 197.24 203.24 198.2 205.84 200.04L208.44 196.32ZM193.88 194.92C193.92 197.16 193.76 197.88 191.16 197.88C190.68 197.88 188.12 197.88 188.12 196.52C188.12 195.48 189.4 194.8 192 194.8C192.92 194.8 193.44 194.84 193.88 194.92Z" fill="white"/>
<path d="M251.64 177.84V173.52C247.56 173.84 246.32 173.96 240.76 174.28V170.16C240.76 170 240.8 169.92 241.08 169.68C241.36 169.44 241.44 169.32 241.44 169.08C241.44 168.68 241.2 168.56 240.28 168.52L235.84 168.24C236.08 171.16 236.08 173.28 236.12 174.52C227.72 174.92 224.28 174.92 221.56 174.92V179.56C226.64 178.92 232.68 178.56 236.24 178.36L236.32 181.36C235.76 181.16 235.2 181.04 234.44 181.04C230.36 181.04 228.16 184.08 228.16 188.48C228.16 190.44 228.6 192.6 230.24 194.04C231.24 194.92 232.48 195.28 233.52 195.28C234.2 195.28 234.8 195.12 235.68 194.88C234.8 197.8 232.36 199.88 229.96 201.44L234.44 203.76C235.88 202.28 238.04 200.04 239.88 196.32C241.68 192.72 241.92 189.76 241.92 188.6C241.92 186.08 241.2 184.68 240.76 183.72V178.12C245.96 177.92 248.6 177.84 251.64 177.84ZM237.08 187.96C237.08 190.8 235.16 191.68 234.32 191.68C233.4 191.68 232.12 190.76 232.12 188.36C232.12 186.24 233.24 184.84 234.84 184.84C235.36 184.84 235.92 185 236.32 185.4C236.96 186.08 237.08 187.12 237.08 187.96Z" fill="white"/>
<path d="M274.72 195.6V201H280.08V195.6H274.72ZM274.72 171.8V179.92L276.08 193.12H278.72L280.08 179.92V171.8H274.72Z" fill="white"/>
<g opacity="0.5">
<path fill-rule="evenodd" clip-rule="evenodd" d="M76.4097 186.161C117.927 229.83 186.985 231.574 230.655 190.056L231.904 191.37C187.509 233.578 117.303 231.805 75.0955 187.41C32.8876 143.015 34.6607 72.8095 79.0558 30.6016C123.451 -11.6063 193.656 -9.83317 235.864 34.5619L234.55 35.8113C193.032 -7.85799 123.974 -9.60208 80.3052 31.9158C36.6359 73.4336 34.8918 142.491 76.4097 186.161Z" fill="white"/>
<path fill-rule="evenodd" clip-rule="evenodd" d="M57.0277 145.174C75.9104 199.547 135.296 228.318 189.67 209.436L190.264 211.149C134.945 230.36 74.526 201.088 55.3148 145.769C36.1035 90.4495 65.375 30.0304 120.694 10.8192C176.014 -8.39197 236.433 20.8795 255.644 76.1989L253.931 76.7938C235.048 22.4204 175.663 -6.3505 121.289 12.5322C66.9159 31.4149 38.145 90.8006 57.0277 145.174Z" fill="white"/>
<path fill-rule="evenodd" clip-rule="evenodd" d="M57.1093 97.7437C49.7555 152.102 87.8603 202.13 142.219 209.484L141.976 211.281C86.6248 203.793 47.8243 152.851 55.3124 97.5006C62.8005 42.1496 113.742 3.34913 169.093 10.8372C224.443 18.3253 263.244 69.2665 255.756 124.617L253.959 124.374C261.313 70.0158 223.208 19.988 168.849 12.6342C114.491 5.28031 64.4632 43.3851 57.1093 97.7437Z" fill="white"/>
</g>
</svg>
