<svg fill="none" height="150" viewBox="0 0 930 150" width="930" xmlns="http://www.w3.org/2000/svg"><g fill="#00beff"><path d="m330.792 8.60818c0-1.104 0-4.464.384-5.376.096-.192 1.008-.96 1.008-1.2 0-.528-.816-.528-1.968-.576l-4.08-.144c0 4.032.048 4.608.144 7.296h-17.232c.336 2.73602.528 4.94402.528 9.36002 0 11.568-1.152 16.32-4.128 22.032l4.512 1.968c2.112-4.608 2.544-6.336 3.264-9.36l1.968 4.512c8.784-.288 9.408-3.216 9.552-18.432h-10.224v-5.28h12.048c.672 8.304 1.632 12.288 3.792 17.232-2.976 3.456-5.712 5.712-9.936 8.112l3.216 3.744c4.512-2.688 6.672-4.752 9.168-7.44 3.648 4.752 5.952 7.728 9.024 7.728 1.584 0 3.168-.672 4.608-8.496l-3.888-2.448c-.288 1.44-.816 3.984-1.68 3.984-1.008 0-3.264-2.208-4.8-4.8 1.056-1.584 3.504-5.232 5.664-11.424.288-.912.336-1.008.48-1.104.672-.384.912-.48.912-.72 0-.288-.144-.336-1.488-.816l-4.032-1.44c-1.248 5.376-2.928 8.448-4.032 10.464-1.248-3.936-1.728-5.664-2.544-12.576h15.552v-4.80002h-6.672l2.976-2.16c-1.488-1.728-2.208-2.544-4.464-4.848l-3.696 2.352c1.2 1.104 2.4 2.352 3.792 4.656zm-10.704 14.64002c-.144 7.728-1.536 9.216-3.6 9.216-.48 0-1.104-.048-3.216-.432.576-3.12.912-5.04 1.104-8.784z"/><path d="m370.104 27.1362c-3.456 3.456-8.256 7.584-15.6 10.416l3.744 3.984c7.056-3.984 9.648-5.712 14.4-10.368v11.472h4.656v-11.472c3.984 4.56 6.096 6.24 13.392 10.512l3.504-4.176c-6.384-2.88-10.32-5.28-15.024-10.368h16.368v-4.368h-18.24v-3.024h12.768v-17.76002h-30.144v17.76002h12.72v3.024h-18.288v4.368zm2.544-18.19202h-7.92v-3.12h7.92zm4.656 0v-3.12h8.016v3.12zm0 3.60002h8.016v3.312h-8.016zm-4.656 0v3.312h-7.92v-3.312z"/><path d="m420.672 40.4682c2.7-1.008 10.8-4.032 10.8-14.112 0-7.56-5.256-12.924-13.572-12.924-9.144 0-15.516 6.984-15.516 14.904 0 7.2 5.184 10.368 7.416 10.368 2.124 0 3.852-3.924 4.212-4.752 3.024-6.804 3.888-12.852 4.464-17.1 2.124.324 8.964 1.332 8.964 9.468 0 8.208-7.2 10.188-9.468 10.836zm-6.264-23.22c-.36 4.824-1.548 9.612-3.456 14.076-.468 1.08-1.116 2.556-1.908 2.556-1.26 0-3.096-2.34-3.096-5.544 0-2.484.9-8.496 8.46-11.088z"/><path d="m472.344 23.5842v11.04h-10.896v-13.68h14.256v-14.54402c0-.288 0-.48.48-.672.72-.288 1.008-.48 1.008-.816 0-.432-.576-.432-1.296-.48l-5.232-.288v12.00002h-9.216v-12.52802c0-.288.096-.576.336-.72.576-.336.864-.576.864-.816 0-.432-.432-.576-1.056-.576l-5.184-.192v14.83202h-9.408v-10.12802c0-.288 0-.384.288-.576.384-.288.672-.528.672-.768 0-.336-.576-.48-.864-.48l-5.184-.192v16.94402h14.496v13.68h-10.8v-8.736c0-.192.048-.432.24-.576.432-.336.672-.576.672-.816 0-.528-.816-.528-1.392-.576l-4.512-.24v18.576h4.992v-2.832h26.736v2.832h4.992v-16.656c0-.288-.048-.48.24-.672.384-.288.576-.48.576-.72 0-.432-.336-.48-.912-.48z"/><path d="m509.928 40.1922c-3.264-11.472-7.536-21.888-8.16-23.424 2.112-1.008 4.224-2.016 7.296-3.168.672 1.248 1.584 2.976 2.448 5.28l5.184-1.536c-.912-1.776-1.584-3.024-2.88-5.088.528-.096 1.344-.24 2.304-.24 3.168 0 5.424 2.256 5.424 4.992 0 1.488-.768 5.664-8.256 5.664-2.16 0-3.696-.288-4.608-.432l1.008 4.992c.768.096 1.968.288 3.552.288 8.016 0 13.296-3.984 13.296-10.32 0-5.856-4.896-9.26402-9.792-9.26402-1.2 0-2.784.096-5.328.624-.96-1.392-2.928-4.224-5.28-6.72l-4.704 2.256c2.304 1.728 4.32 4.512 5.232 5.76-3.408 1.20002-5.712 2.20802-6.768 2.68802-.672-1.68-1.344-2.97602-2.544-5.37602-.432-.864-.864-1.632-.864-1.776 0-.096.24-.72.24-.864 0-.384-.336-.432-.48-.432-.288 0-.432.048-1.44.432l-4.704 1.776c1.872 2.064 3.168 4.36802 5.088 8.44802-2.736 1.392-7.392 3.6-8.736 4.224l3.6 4.992c2.496-1.776 4.608-3.216 7.152-4.656 1.776 4.368 5.136 13.392 7.008 23.232z"/><path d="m553.464.78418c.576 3.168.72 4.944.912 8.016-10.32.528-13.728.672-18.336.72l.576 5.66402c1.584-.288 4.368-.816 17.904-1.92v3.216c-.336-.048-.864-.144-1.632-.144-4.8 0-8.208 3.744-8.208 9.072 0 5.424 3.264 8.064 6.624 8.064 2.544 0 3.504-1.104 4.224-1.968-1.296 3.024-2.544 5.904-8.304 9.552l5.328 2.496c2.64-2.304 4.848-4.512 6.768-8.784 1.632-3.648 2.16-6.864 2.16-9.6 0-3.12-.912-4.704-1.824-6.096l-.096-6.144c1.968-.144 3.648-.24 5.616-.24 1.056 0 6.384.096 8.064.144v-5.28002c-4.608.432-9.12.72-13.728 1.008.048-5.04.048-5.232.576-5.616.336-.24.48-.384.48-.624 0-.624-.24-.672-2.112-.912zm-.864 20.20802c1.632 0 2.784.864 2.784 3.936 0 3.216-2.064 4.08-3.216 4.08-2.496 0-2.64-3.168-2.64-3.888 0-2.304 1.44-4.128 3.072-4.128z"/><path d="m598.44 25.0242c-1.152 2.784-3.168 7.248-4.848 7.248-1.536 0-3.552-3.168-3.552-9.648 0-6.144 2.016-11.616 2.4-11.904.624-.48.96-.72.96-1.00802 0-.432-.816-.816-1.296-1.056l-5.136-2.352c-.192 1.056-1.152 5.56802-1.344 6.52802-.48 2.304-.912 5.376-.912 8.736 0 9.6 3.6 17.28 8.352 17.28 2.88 0 5.568-2.4 9.36-10.416zm24.384 5.424c-.576-6.432-2.448-14.832-7.056-21.31202l-5.136 2.16002c2.304 3.312 6 9.6 6.288 19.92z"/><path d="m266.448 125.616c-3.024-7.44-5.664-12.816-10.704-20.064l-4.272 2.736c2.592 3.888 3.984 6.192 6.336 10.8-3.84.768-7.728 1.488-14.448 2.352 1.824-6.096 4.272-14.256 5.376-18.336.336-1.248.432-1.68 1.2-2.064.48-.288.816-.432.816-.864 0-.5758-.768-.7678-1.2-.8638l-5.568-1.2c-.576 4.2718-2.016 13.1518-5.952 23.9998-1.152.144-3.36.384-4.656.528l1.104 5.376c.096.576.24 1.008.576 1.008.24 0 .432-.192.72-.48.432-.48.672-.672 1.968-.864 11.856-1.776 18.144-3.072 22.128-3.888.576 1.344 1.2 2.88 1.728 4.416zm-23.52-34.1278h-14.688c.192 1.536.48 4.128.48 9.9838 0 11.328-1.008 16.608-4.656 24.528l5.088 1.296c2.4-5.328 4.416-11.76 4.416-25.248v-5.6158h32.352v-4.944h-17.28v-2.928c0-.192.048-.48.192-.672.384-.528.48-.528.48-.72 0-.384-.576-.48-.912-.48l-5.472-.192z"/><path d="m291.456 96.9602v6.1918h-18.048v4.656h41.472v-4.656h-18.384v-6.1918h13.776v-4.416h-13.776v-3.696c0-.288 1.248-1.104 1.248-1.392 0-.48-.624-.528-1.392-.576l-4.896-.24v5.904h-6.432c.288-.624.528-1.104.96-2.016.144-.288.288-.528.576-.624.384-.192.816-.288.816-.672s-.72-.624-1.056-.72l-4.848-1.2c-1.632 5.232-3.6 8.88-5.76 12.144l4.56 2.3518c.528-.816.768-1.248 2.688-4.8478zm-11.712 31.2958h5.136v-1.92h18.768v1.92h5.136v-17.088h-29.04zm5.136-6.24v-6.528h18.768v6.528z"/><path d="m335.616 92.4002c1.248-.096 2.88-.336 4.368-.624.384-.096 1.056-.24 1.344-.288.336.096 1.296.528 1.536.528.336 0 .528-.192.528-.432 0-.288-.24-.624-.576-1.152l-2.16-3.216c-1.824.672-5.616 2.112-13.968 2.112-1.536 0-2.592-.048-3.6-.096l2.16 3.696c2.496 0 3.888-.048 6.144-.192v1.824h-9.456v3.456h9.456v1.968h-7.728v12.7678h7.728v2.112h-8.112v3.36h8.112v2.832c-2.976.288-4.224.384-9.312.768l.576 4.128c.048.48.144 1.056.528 1.056.24 0 .912-1.056 1.152-1.152.768-.24 15.888-2.064 18.864-2.496-1.008 1.248-1.632 1.824-2.976 2.832l4.464 3.072c6.288-7.392 8.352-14.304 9.408-26.976h3.408c-.048 4.176-.24 18-2.256 20.784-.48.624-.912.624-4.704.624l2.208 4.8c3.168-.048 6.672-.144 7.92-6.336.528-2.544 1.584-9.216 1.632-24.3358h-7.92c0-1.008-.048-6.144-.048-7.296 0-.624.048-.96.48-1.248.816-.576 1.008-.768 1.008-1.008 0-.48-.672-.528-1.68-.576l-4.848-.24c.192 2.112.384 4.992.288 10.368h-3.936v4.4638h3.696c-.624 11.184-3.648 16.8-5.328 19.968v-2.4c-1.2.096-7.056.672-8.4.816v-2.448h8.352v-3.36h-8.352v-2.112h7.968v-12.7678h-7.968v-1.968h9.216v-3.456h-9.216zm-4.224 12.6718h-3.456v-2.304h3.456zm8.064 0h-3.84v-2.304h3.84zm-8.064 2.64v2.4h-3.456v-2.4zm8.064 0v2.4h-3.84v-2.4z"/><path d="m401.904 118.512v-21.5038h-9.552v-3.984h18.144v-4.368h-40.8v4.368h18v3.984h-9.312v21.5038zm-14.208-12.864h-4.8v-4.512h4.8zm4.656 0v-4.512h4.896v4.512zm-4.656 3.984v4.752h-4.8v-4.752zm4.656 0h4.896v4.752h-4.896zm12.672 12.576h-29.712v-22.9918c0-.288.096-.624.336-.768.672-.528.768-.576.768-.816 0-.528-1.056-.624-1.296-.624l-4.752-.384v31.5838h4.944v-1.872h29.712v1.872h4.944v-29.5678c0-.528.048-.672.432-.96.432-.336.48-.384.48-.576 0-.384-.48-.432-1.392-.528l-4.464-.528z"/><path d="m428.448 128.4h4.32v-16.752h3.936v7.728c0 1.872-1.584 1.728-2.64 1.584l1.536 4.608c4.992-.192 5.856-2.112 5.856-4.512v-13.392h-8.688v-3.264h9.936v-4.224h-9.936v-3.4558h8.448v-4.128h-8.448v-3.36c0-.24.96-1.152.96-1.44 0-.48-.336-.432-1.2-.48l-4.08-.144v5.424h-3.216c.096-.24.48-1.488.672-1.68.192-.096 1.104-.48 1.104-.672 0-.336-.528-.432-.816-.48l-4.656-.96c-.576 3.6-1.488 6.528-3.408 9.312l4.272 1.536c.192-.384 1.104-2.208 1.44-2.928h4.608v3.4558h-10.656v4.224h10.656v3.264h-8.496v18.288h4.656v-14.304h3.84zm15.888-9.312h4.704v-24.4318c0-.336.24-.624.48-.864.192-.144.432-.432.432-.624 0-.288-.24-.336-.864-.384l-4.752-.336zm5.232 9.408c5.712-.48 7.92-.864 7.92-5.904v-33.0718c0-.192.192-.432.336-.624.432-.48.624-.672.624-.816 0-.288-.432-.288-.912-.336l-4.992-.432v34.0798c0 1.536-.24 2.208-1.92 2.208-.48 0-2.88-.144-3.408-.144z"/><path d="m475.008 87.4562c-1.776 5.472-5.232 12.144-9.792 17.3758l3.792 3.552c1.488-1.776 2.112-2.784 2.688-3.648v23.616h4.896v-28.7518c0-.24 0-.384.384-.672.816-.672.912-.768.912-1.008 0-.384-.72-.768-1.488-1.104 1.296-2.496 2.496-4.8 2.976-5.952.192-.336.288-.528.576-.672.96-.48 1.104-.576 1.104-.912 0-.192 0-.432-1.008-.672zm10.416-.144c-1.488 6.576-4.704 12.384-8.736 16.9918l4.272 2.832c1.056-1.296 2.592-3.168 5.328-8.5918h2.016v29.8078h4.848v-9.696h12.96v-4.8h-12.96v-5.28h11.472v-4.8h-11.472v-5.2318h13.632v-4.368h-18.336c.384-.912 1.776-4.128 2.304-4.368.432-.192.816-.384.816-.576 0-.288-.432-.576-1.008-.72z"/><path d="m517.5 126.396c3.744-5.112 5.796-11.196 7.056-17.388.396-.072 2.7-.576 3.6-.576 1.836 0 1.944 1.764 1.944 3.924 0 4.14-1.332 7.56-1.548 8.028-.576 1.332-1.188 1.98-2.484 1.98-.972 0-1.98-.288-3.132-.612l.18 3.888c.612.216 1.476.54 2.88.54 4.788 0 5.904-3.42 6.372-4.824.36-1.08 1.44-4.788 1.44-9.324 0-3.672-.576-7.164-4.824-7.164-1.332 0-2.736.288-3.708.468.216-1.224.504-3.312.756-4.968.036-.108.504-.4318.576-.5398.072-.072.18-.18.18-.36 0-.288-.144-.288-1.368-.504l-3.672-.612c.108 2.6278.036 4.7158-.36 7.8118-4.716.936-5.256 1.044-7.74 1.368l1.332 4.284c1.584-.684 2.88-1.08 5.724-1.836-1.26 5.4-3.528 10.512-7.056 14.688zm25.164-23.148c-.864-1.224-1.908-2.556-3.204-3.8158l-1.944 1.4398c1.368 1.44 2.196 2.556 2.988 3.816zm3.384-2.052c-.972-1.6918-1.8-2.7358-2.844-3.7078l-1.908 1.404c1.26 1.3678 1.944 2.3758 2.7 3.5998zm-8.748 15.084c2.484-.684 4.824-1.332 4.824-3.6 0-.792-.396-4.752-6.228-10.944l-2.664 2.016c4.464 5.22 4.608 7.344 4.608 7.596 0 .792-.648.936-2.34 1.296z"/><path d="m576.576 128.496h2.592c6.096 0 6.096-3.36 6.096-5.136v-29.9038h4.944v-4.8h-40.272v4.8h29.904v28.2718c0 .672 0 1.728-1.584 1.728h-3.6zm-3.504-10.512v-18.2878h-17.616v22.4638h4.944v-4.176zm-4.944-4.368h-7.728v-9.504h7.728z"/><path d="m608.4 128.448h2.352c2.64 0 5.04-1.152 5.04-4.176v-21.648h-15.744v25.824h4.704v-9.456h6.384v3.024c0 .72 0 1.776-1.728 1.776h-2.976zm2.736-19.056h-6.384v-3.072h6.384zm0 6.432h-6.384v-3.264h6.384zm13.296-17.5678c3.936-1.536 8.736-4.176 9.216-4.464.672-.384.864-.384 2.304-.384.192 0 .432 0 .432-.336s-.24-.72-1.056-1.536l-2.976-2.928c-2.4 2.256-4.752 3.84-7.92 5.424v-3.936c0-.336 0-.624.384-1.008.288-.288.432-.48.432-.72 0-.384-.144-.384-1.44-.528l-4.32-.48v15.4078c0 2.16 1.44 3.264 3.648 3.264h10.992c3.504 0 3.984-1.92 5.088-6.9598l-4.512-2.208c-.384 3.7918-1.056 4.7998-3.024 4.7998h-5.76c-1.152 0-1.488-.72-1.488-1.536zm8.304 9.3598c-3.072 3.84-7.104 6.096-8.304 6.768v-4.368c0-.384.096-.624.336-.816.432-.432.48-.48.48-.672 0-.432-.432-.576-1.296-.672l-4.32-.528v17.28c0 2.256 1.968 2.88 3.504 2.88h9.456c3.648 0 4.944-.192 6.624-6.864l-3.984-2.064c-.72 4.272-2.16 4.272-3.12 4.272h-6.048c-1.44 0-1.632-.816-1.632-1.44v-2.064c3.264-1.824 3.984-2.304 10.176-6.672.576-.432.624-.432 2.064-.432.144 0 .48-.048.48-.384 0-.288-.336-.672-.816-1.056zm-14.256-7.7278c-1.392-3.36-2.64-5.76-4.944-9.12l-3.696 1.92c.384.672 1.248 1.872 1.728 2.88-1.2.096-1.68.144-6.096.432.864-1.44 1.248-2.352 2.448-5.04.336-.672.576-1.104 1.248-1.392.48-.24.912-.432.912-.624 0-.432-.72-.576-1.2-.72l-4.944-1.248c-.528 3.936-2.256 8.208-2.688 9.312-.576 0-3.456.096-4.128.096l1.056 3.9358c.192.672.288 1.056.624 1.056.192 0 .432-.144.576-.336.336-.576.336-.576.624-.672.24-.096 11.04-1.4398 13.104-1.7278.384.816.912 2.1598 1.344 3.2158z"/><path d="m657.108 125.208c.216-2.124.756-4.968 2.34-7.596l-2.376-1.8c-.756 1.404-1.08 1.908-1.404 2.376-.216-1.296-.288-2.628-.288-3.564 0-5.544 2.052-13.572 2.772-13.86.108-.036.432-.144.54-.216.072-.036.072-.144.072-.216 0-.288-.216-.3958-.936-.6838l-3.564-1.44c-2.016 9.9358-2.484 12.1678-2.484 16.1638 0 3.924.684 8.46 2.628 11.808zm20.196-24.624c-2.736.828-5.472 1.224-8.352 1.224-2.484 0-3.744-.288-5.508-.72l.036 3.78c1.296.468 3.852.468 4.644.468 3.888 0 6.948-.576 9.108-.972zm1.08 19.116c-4.536 1.044-7.596 1.08-8.46 1.08-3.096 0-4.284-1.044-4.284-2.916 0-.612.072-1.368.252-1.98l-3.672.324c-.36 6.84 1.296 8.424 8.856 8.424 2.808 0 4.824-.108 7.2-.468z"/><path d="m696.768 100.512 1.632 16.272h2.832l1.632-16.272v-9.5518h-6.096zm6.096 25.488v-6.096h-6.096v6.096z"/><path clip-rule="evenodd" d="m929.122 70.2046-51.266-51.2653-2.121 2.1214 49.144 49.1439-49.144 49.1444 2.121 2.121z" fill-rule="evenodd"/><path clip-rule="evenodd" d="m.878906 70.2046 51.265194-51.2653 2.1214 2.1214-49.14395 49.1439 49.14395 49.1444-2.1214 2.121z" fill-rule="evenodd"/></g><path clip-rule="evenodd" d="m625 65h-320v-6h320z" fill="#f6ca2b" fill-opacity=".8" fill-rule="evenodd"/><path clip-rule="evenodd" d="m710 150h-490v-6h490z" fill="#f6ca2b" fill-opacity=".8" fill-rule="evenodd"/></svg>