<svg width="647" height="96" viewBox="0 0 647 96" fill="none" xmlns="http://www.w3.org/2000/svg">
<path d="M3.02008 88.7598C3.58008 88.1598 3.66008 88.1198 4.22008 87.5998C7.86008 91.4398 8.86008 92.5198 10.5801 94.3598L14.8201 92.6798C14.8601 87.7998 14.8601 87.0798 14.9001 80.7198C16.3001 80.1998 18.6201 79.3198 20.9801 79.3198C24.6201 79.3198 26.5401 81.9598 26.5401 84.6398C26.5401 87.4398 24.9001 88.8798 23.4601 88.8798C22.2201 88.8798 21.9001 87.8398 21.4201 86.1998L17.7001 87.6798C18.2601 90.5998 18.8201 93.3598 23.2201 93.3598C27.5001 93.3598 30.7001 89.4798 30.7001 84.5598C30.7001 79.5598 27.2601 75.4398 21.0601 75.4398C18.2201 75.4398 16.0601 76.0398 14.9001 76.3598L14.9401 72.3998C16.7801 72.0398 18.6601 71.6398 21.1801 70.6798V66.1198C18.9401 67.1598 17.5801 67.6398 15.0201 68.1998C15.0601 67.4398 15.1801 63.5198 15.3401 63.2798C15.4201 63.1598 16.0201 62.6798 16.0201 62.5198C16.0201 62.3198 16.0201 62.0398 14.9001 61.8798L10.4601 61.2798C10.5001 63.8798 10.5001 64.2398 10.5401 68.7598C9.38008 68.8398 8.78008 68.8798 7.78008 68.8798C5.94008 68.8798 4.98008 68.7998 3.86008 68.6798L4.46008 73.1998C6.70008 73.2798 8.14008 73.2398 10.5401 72.9998L10.5801 78.1598C7.90008 79.5998 7.14008 80.0398 0.580078 84.2798L3.02008 88.7598ZM10.5801 89.0798C9.86008 88.4398 8.22008 86.9198 6.94008 85.3198C8.62008 84.0798 9.46008 83.5598 10.5801 82.8798V89.0798ZM33.7401 72.1598C31.7801 70.6398 29.1401 68.8398 25.8601 67.6398L23.2601 71.1598C27.2601 72.6398 29.3401 74.1598 31.1401 75.7198L33.7401 72.1598Z" fill="black"/>
<path d="M74.7401 78.1998C74.7401 76.7598 73.7401 72.0398 68.5001 66.4398L65.1801 68.8398C67.3801 71.3598 69.6201 75.3598 69.6201 76.5998C69.6201 77.5598 68.7001 77.6398 66.9801 77.7998L69.7001 81.9198C72.2601 81.4398 74.7401 80.4798 74.7401 78.1998ZM65.2601 76.4398C65.2601 73.9998 64.8201 69.5598 59.3801 69.5598C58.3001 69.5598 57.1001 69.7198 56.2201 69.8798C56.5001 68.3598 56.7801 66.9598 56.9801 65.5198C57.0201 65.1198 57.1001 65.0798 57.8201 64.6398C58.2601 64.3598 58.3401 64.2398 58.3401 64.0798C58.3401 63.7198 57.5401 63.4798 57.2201 63.4398L52.3401 62.7598C52.3001 66.0798 51.9401 68.1998 51.4601 70.7598C49.7001 71.0398 46.0201 71.7198 43.1001 71.9598L44.7001 76.7998C46.7801 76.0398 48.4201 75.5598 50.3801 75.0798C48.0201 82.6798 45.9801 86.2398 42.4601 90.7198L47.0201 92.7598C51.1001 86.1198 53.2201 81.4398 55.3001 74.1198C56.0601 73.9998 56.8601 73.9198 57.5801 73.9198C60.4601 73.9198 60.9001 75.1998 60.9001 77.3198C60.9001 81.3598 59.2201 86.1998 58.4601 87.2798C57.9001 88.0798 57.2601 88.2798 56.0601 88.2798C54.5001 88.2798 53.3401 87.9198 52.4601 87.6398L53.0201 92.4798C54.1401 92.6398 55.3801 92.7198 56.4601 92.7198C58.1801 92.7198 60.7401 92.5598 62.4601 89.6398C64.5801 85.9598 65.2601 79.7598 65.2601 76.4398Z" fill="black"/>
<path d="M119.3 61.5598C118.78 60.5598 117.9 59.0798 116.82 57.8398L114.82 59.1998C115.7 60.1598 116.62 61.6398 117.34 62.9198L119.3 61.5598ZM114.86 62.3598C114.1 60.9198 113.3 59.7998 112.42 58.7998L110.42 60.1998C111.38 61.2398 112.14 62.4398 112.86 63.7198L114.86 62.3598ZM115.18 72.2798L115.02 67.7198C113.34 68.5998 112.26 69.0398 109.62 69.5998C109.58 68.7198 109.18 64.1598 109.18 63.9998C109.18 63.7598 109.38 63.4798 109.58 63.2798C109.7 63.1598 109.9 62.8798 109.9 62.7198C109.9 62.2398 109.26 62.1998 108.86 62.1998L104.3 62.0798C104.98 64.8398 105.18 66.7998 105.38 70.5198C104.18 70.6798 102.54 70.9198 99.4201 70.9198C98.5801 70.9198 97.9801 70.9198 96.6201 70.8398L97.5401 75.4398C100.9 75.3998 102.66 75.2798 105.66 74.8798V76.5998C105.66 81.0798 105.1 86.2398 100.22 92.1998L104.62 94.5198C106.14 92.1998 109.06 87.7198 109.78 79.7998C109.94 77.9198 110.02 75.5598 109.94 73.9598C111.38 73.5998 112.86 73.1998 115.18 72.2798ZM95.2601 82.7598L92.4601 80.7998C91.9401 82.1998 91.4601 83.2798 90.7401 84.5198C90.1401 82.2398 90.0601 79.8798 90.0601 77.4798C90.0601 71.2798 91.1801 64.8398 91.9801 64.1998C92.5401 63.7598 92.6201 63.7198 92.6201 63.5598C92.6201 63.1998 91.8601 62.9598 91.4601 62.8398L87.4201 61.6798C86.3401 67.5998 85.8201 71.0798 85.8201 75.7198C85.8201 85.5998 87.9401 90.3598 88.9801 92.6798L92.5801 91.9998C93.1401 88.5598 93.9401 85.7598 95.2601 82.7598Z" fill="black"/>
<path d="M153.78 81.1198C150.66 77.9998 148.74 75.4398 146.06 70.4798C149.7 69.0798 150.98 68.3198 152.3 67.5598L150.3 63.7598C148.62 64.9998 147.34 65.7598 144.42 66.9598C143.14 63.9198 142.74 62.3198 142.74 62.1998C142.74 61.9598 143.26 61.1598 143.26 60.9598C143.26 60.4398 142.14 60.6798 141.86 60.7198L137.82 61.3198C138.62 64.0398 139.38 65.9198 140.42 68.3198C135.54 69.6398 132.66 69.9598 132.06 69.9998C131.26 70.0798 130.42 70.0798 128.9 69.9998L130.94 74.1998C134.18 73.9598 136.98 73.4398 142.14 71.8398C143.54 74.5198 144.42 75.9998 145.9 78.0398C144.62 77.7598 142.5 77.3598 141.02 77.3598C136.62 77.3598 131.58 79.7998 131.58 85.5998C131.58 88.2398 132.74 89.7598 133.14 90.2798C135.94 93.8798 141.38 94.0798 143.7 94.0798C145.82 94.0798 147.94 94.0398 150.02 93.6398L149.7 89.1198C148.54 89.3598 146.26 89.7998 143.54 89.7998C138.86 89.7998 136.18 88.5598 136.18 85.4798C136.18 82.7598 138.86 81.1598 142.06 81.1598C146.42 81.1598 149.38 83.2398 151.22 84.5198L153.78 81.1198Z" fill="black"/>
<path d="M195.9 88.3198C191.74 85.6798 189.1 84.7198 185.78 83.7998C185.66 81.4398 185.66 81.0398 185.58 79.0398C190.3 78.6798 192.42 78.3198 194.14 78.0398V73.6798C190.46 74.3598 188.98 74.5998 185.5 75.0398V70.3198C187.5 70.2798 191.22 70.1998 195.66 70.1998L195.82 65.9598C192.06 66.2398 190.7 66.3198 185.58 66.5598C185.62 64.4798 185.66 63.7198 185.66 63.6798C185.74 63.3198 186.02 63.0798 186.18 62.9598C186.62 62.5998 186.7 62.5598 186.7 62.3998C186.7 62.1198 186.46 61.9998 185.7 61.9198L180.82 61.4398L180.94 66.7598C177.38 66.8398 175.22 66.9198 170.66 66.9198L170.74 71.2398C174.18 70.8398 176.46 70.6798 181.06 70.4798L181.14 75.4798C180.22 75.5598 179.7 75.5598 178.38 75.5598C177.7 75.5598 176.86 75.5598 176.86 74.9998C176.86 74.4798 177.46 74.0398 178.18 73.5198L175.9 71.5598C174.34 72.6798 171.62 74.5598 171.62 76.5198C171.62 78.0798 173.46 79.3998 177.14 79.3998C178.3 79.3998 180.5 79.3198 181.22 79.2798L181.3 83.1198L180.18 83.0798C171.18 82.7598 170.78 87.3998 170.78 88.5598C170.78 91.7998 174.22 93.7598 179.74 93.7598C184.86 93.7598 185.82 92.1598 185.98 88.0798C188.94 89.2398 190.7 90.1998 193.3 92.0398L195.9 88.3198ZM181.34 86.9198C181.38 89.1598 181.22 89.8798 178.62 89.8798C178.14 89.8798 175.58 89.8798 175.58 88.5198C175.58 87.4798 176.86 86.7998 179.46 86.7998C180.38 86.7998 180.9 86.8398 181.34 86.9198Z" fill="black"/>
<path d="M240.86 73.7198C240.02 72.7598 239.22 71.9198 237.54 70.6798L235.86 72.5998C237.18 73.5598 238.14 74.4398 239.18 75.6398L240.86 73.7198ZM237.62 77.3598C236.62 76.1198 235.62 75.2798 234.3 74.2798L232.66 76.1998C234.22 77.3998 235.06 78.1998 235.94 79.2798L237.62 77.3598ZM238.94 66.9198V62.2798C231.38 64.5998 218.98 65.5598 210.34 65.4798L211.02 69.9598C215.02 69.3998 220.9 68.9198 226.26 68.4798C224.86 69.7598 222.86 71.6398 220.98 74.5598C219.26 77.1598 218.26 79.8398 218.26 82.5198C218.26 85.2398 219.3 87.8398 221.22 89.7198C224.46 92.9598 228.94 93.7998 231.06 94.1598L232.62 89.2798C230.98 89.1998 228.18 89.0798 225.58 87.2398C224.46 86.4398 222.7 84.7998 222.7 82.0398C222.7 78.9998 224.62 75.3998 227.58 72.4398C232.66 67.3198 237.06 67.0398 238.94 66.9198Z" fill="black"/>
<path d="M283.54 66.3198V63.5598H277.02C277.5 62.9198 277.9 62.2398 278.1 61.9198C278.66 61.7598 279.18 61.6398 279.18 61.3198C279.18 61.1598 279.18 60.9198 277.82 60.7198L274.66 60.2398C274.26 61.7198 273.78 62.7198 273.22 63.5598H268.38C267.66 62.1598 266.94 61.2398 266.1 60.2398L262.42 61.1198C262.94 61.6798 263.3 62.1998 263.94 63.5598H258.22V66.3198H267.58L266.9 67.6398H260.5V78.2398H281.66V67.6398H271.34L272.18 66.3198H283.54ZM277.42 73.4398H264.74V72.4398H277.42V73.4398ZM277.42 70.7198H264.74V69.7198H277.42V70.7198ZM277.42 76.1598H264.74V75.1198H277.42V76.1598ZM257.3 64.1998C255.18 62.1998 254.14 61.3198 252.74 60.2398L250.06 63.2398C251.86 64.6398 253.1 65.7998 254.42 67.1598L257.3 64.1998ZM284.3 79.3998C280.94 79.6798 275.42 80.1198 267.26 80.1198C264.86 80.1198 260.82 79.9598 258.9 78.7598C257.78 78.0398 257.7 76.8798 257.7 76.1998V69.5998H249.62V73.1998H253.54V77.5198C251.06 78.6398 250.18 79.0798 248.94 79.5198L250.02 82.3198C250.22 82.7998 250.42 83.3598 250.74 83.3598C251.22 83.3598 251.34 82.7998 251.42 82.3598C252.9 81.3998 253.22 81.1598 256.22 79.1598C257.74 81.1598 259.06 82.9198 265.94 82.9198H272.7V84.1598H249.22V87.7598H259.46L257.06 90.0398C258.86 91.3998 259.9 92.4798 261.34 94.2798L264.7 91.1998C264.06 90.5598 262.82 89.1598 261.1 87.7598H272.7V90.1998C272.7 91.0398 272.5 91.3198 271.5 91.3198C270.54 91.3198 270.06 91.2798 267.98 90.9998L269.74 95.2798C271.62 95.2398 277.06 95.1998 277.06 92.3598V87.7598H283.62V84.1598H277.06V82.9198H282.62L284.3 79.3998Z" fill="black"/>
<path d="M326.26 91.1998C324.1 89.9998 319.46 87.3198 315.82 80.5598C312.86 75.0398 312.14 69.5998 312.14 65.3598C312.14 64.0798 312.18 62.5598 312.3 61.3198H299.46V66.0798H307.54C307.58 67.6798 307.62 68.4398 307.74 69.6398L304.22 68.7598C303.9 71.4398 303.26 76.6798 299.62 82.4798C296.14 87.9598 292.06 90.6398 289.9 92.0398L294.18 95.0798C301.1 90.2798 305.38 83.4398 308.42 74.0398C308.98 76.3998 309.98 80.6798 313.18 85.7198C316.46 90.8398 319.9 93.4798 321.7 94.8798L326.26 91.1998Z" fill="black"/>
<path d="M366.66 94.1198V89.7998H358.34V76.4398H365.66V72.1198H358.34V62.5998C358.34 62.4398 358.58 62.2398 358.9 61.9198C359.02 61.7998 359.1 61.6398 359.1 61.5198C359.1 61.3198 358.86 61.1598 358.66 61.1598L353.74 60.6798V72.1198H347.7V76.4398H353.74V89.7998H344.3V94.1198H366.66ZM348.66 81.7198C346.74 80.4798 345.38 79.3998 343.5 77.2398C346.42 73.2798 347.3 71.1998 347.9 69.6798L346.1 67.8798H341.78V62.8398C341.78 62.6798 341.86 62.5998 342.42 62.0398C342.54 61.9598 342.7 61.7998 342.7 61.6398C342.7 61.4398 342.5 61.3198 342.26 61.2798L337.62 60.7598V67.8798H332.82V72.1998H341.78C339.26 76.7598 335.58 80.5598 331.18 83.2798L334.18 86.3598C335.5 85.5198 336.34 84.8398 337.7 83.6398V94.8398H341.9V81.2398C343.58 83.0798 345.06 84.1998 346.26 85.0798L348.66 81.7198Z" fill="black"/>
<path d="M408.94 91.3998C407.46 90.4398 404.82 88.7598 402.86 85.8398C404.98 81.7198 405.82 78.6798 406.58 71.1198H408.42V67.0798H398.66C399.1 64.9998 399.22 64.0798 399.34 62.9598C399.42 62.5998 399.5 62.3198 399.98 61.9198C400.22 61.7198 400.22 61.6398 400.22 61.5198C400.22 61.1998 399.9 61.1998 399.46 61.1598L395.18 60.9198C395.02 63.3198 394.82 66.2398 393.7 70.2798C392.58 74.2798 391.54 75.9998 390.42 77.8398L393.98 79.5598C394.54 78.5598 394.94 77.7598 395.18 77.2798C395.86 80.7998 396.78 83.0398 398.02 85.5198C395.82 88.4398 393.94 90.0798 390.62 92.0398L394.06 95.1598C396.78 93.2398 398.38 91.8398 400.46 89.4398C402.86 92.5998 404.46 93.5598 406.06 94.3598L408.94 91.3998ZM402.46 71.1198C402.3 74.7998 401.9 77.5998 400.34 81.4398C398.78 77.7998 398.18 75.0398 397.78 71.1198H402.46ZM393.26 83.1198V79.5998H384.74C384.86 79.2798 384.98 79.0398 385.14 78.7998C385.42 78.6398 385.74 78.5598 385.74 78.2798C385.74 78.0798 385.54 77.9198 385.38 77.8398L383.1 76.6798H385.42V73.4398C386.06 74.5598 386.94 75.8798 388.82 77.1598L391.3 74.1598C389.38 72.9998 388.34 71.6798 387.62 70.5998H392.46V67.1598H389.98C390.58 65.9998 391.34 64.6398 391.9 63.4798C392.02 63.2798 392.06 63.2798 392.54 63.0798C392.62 63.0398 392.74 62.9998 392.74 62.8398C392.74 62.5998 392.34 62.4398 392.18 62.3598L389.02 61.1198C388.06 63.2798 387.62 64.0398 386.5 65.7598L389.54 67.1598H385.42V62.6398C385.42 62.4798 385.54 62.2798 385.78 62.0398C386.02 61.7598 386.06 61.6398 386.06 61.5198C386.06 61.1598 385.7 60.9998 385.14 60.9598L381.26 60.6798V67.1598H377.34L380.06 65.5598C379.34 63.6798 378.58 62.4398 377.26 60.8798L374.02 62.8798C375.26 64.1198 376.26 65.5998 376.94 67.1598H374.22V70.5998H379.02C377.46 72.7598 376.22 73.9598 374.02 75.4398L377.18 77.7598C379.46 75.8798 380.58 74.5598 381.26 73.7198V76.6798H381.5C380.82 78.1198 380.62 78.5998 380.14 79.5998H374.22V83.1198H378.38C376.9 85.7998 376.06 86.9198 375.5 87.7198L379.18 89.0398C379.5 88.5198 379.58 88.4398 380.06 87.7598C380.78 88.0798 381.18 88.2798 382.06 88.8398C379.9 90.4398 378.26 91.2398 375.94 91.9998L378.38 94.8398C381.18 93.7998 382.82 92.9198 385.02 91.2398C385.62 91.8398 386.22 92.4398 387.7 94.1598L390.26 90.8398C389.46 89.9598 388.86 89.4398 387.78 88.5198C389.22 86.6798 389.98 85.3198 390.74 83.1198H393.26ZM386.7 83.1198C386.06 84.5598 385.46 85.3998 384.78 86.2398C383.22 85.2398 382.58 84.9198 382.06 84.6798C382.38 84.1998 382.66 83.6398 382.98 83.1198H386.7Z" fill="black"/>
<path d="M427.34 92.9998V63.7998H423.02C422.14 67.5998 418.78 68.8798 416.66 68.8798H414.34V72.6798H422.26V92.9998H427.34Z" fill="black"/>
<path d="M457.967 78.3998C457.967 74.6398 457.487 70.7598 455.487 67.5598C453.927 65.0798 451.487 63.2798 447.807 63.2798C438.487 63.2798 437.647 74.1198 437.647 78.9198C437.647 82.6798 438.527 93.5598 447.807 93.5598C457.367 93.5598 457.967 82.0798 457.967 78.3998ZM452.447 78.3998C452.447 86.9998 450.727 89.2398 447.807 89.2398C445.207 89.2398 443.087 87.6398 443.127 78.3998C443.127 69.5598 445.047 67.5998 447.727 67.5998C450.367 67.5998 452.447 69.1598 452.447 78.3998Z" fill="black"/>
<path d="M481.793 78.3998C481.793 74.6398 481.313 70.7598 479.313 67.5598C477.753 65.0798 475.313 63.2798 471.633 63.2798C462.313 63.2798 461.473 74.1198 461.473 78.9198C461.473 82.6798 462.353 93.5598 471.633 93.5598C481.193 93.5598 481.793 82.0798 481.793 78.3998ZM476.273 78.3998C476.273 86.9998 474.553 89.2398 471.633 89.2398C469.033 89.2398 466.913 87.6398 466.953 78.3998C466.953 69.5598 468.873 67.5998 471.553 67.5998C474.193 67.5998 476.273 69.1598 476.273 78.3998Z" fill="black"/>
<path d="M521.34 94.1198V89.7998H513.02V76.4398H520.34V72.1198H513.02V62.5998C513.02 62.4398 513.26 62.2398 513.58 61.9198C513.7 61.7998 513.78 61.6398 513.78 61.5198C513.78 61.3198 513.54 61.1598 513.34 61.1598L508.42 60.6798V72.1198H502.38V76.4398H508.42V89.7998H498.98V94.1198H521.34ZM503.34 81.7198C501.42 80.4798 500.06 79.3998 498.18 77.2398C501.1 73.2798 501.98 71.1998 502.58 69.6798L500.78 67.8798H496.46V62.8398C496.46 62.6798 496.54 62.5998 497.1 62.0398C497.22 61.9598 497.38 61.7998 497.38 61.6398C497.38 61.4398 497.18 61.3198 496.94 61.2798L492.3 60.7598V67.8798H487.5V72.1998H496.46C493.94 76.7598 490.26 80.5598 485.86 83.2798L488.86 86.3598C490.18 85.5198 491.02 84.8398 492.38 83.6398V94.8398H496.58V81.2398C498.26 83.0798 499.74 84.1998 500.94 85.0798L503.34 81.7198Z" fill="black"/>
<path d="M559.9 77.4398L558.54 72.8798C556.66 73.7198 556.14 73.9598 551.46 76.1598C550.54 73.5198 548.78 72.1198 546.02 72.1198C544.3 72.1198 543.1 72.7198 542.58 72.9598C543.26 71.9198 543.58 71.3598 544.86 68.9998C547.54 68.6798 550.82 68.3198 554.42 67.4798L554.7 62.9998C552.34 63.9198 550.54 64.4398 546.86 65.0398C547.06 64.5998 548.06 62.3598 548.1 62.3198C548.14 62.3198 548.94 61.9598 549.02 61.9198C549.26 61.8398 549.42 61.7198 549.42 61.4798C549.42 61.1998 548.74 61.1198 548.62 61.0798L543.62 60.1998C543.14 61.9598 542.62 63.3598 541.62 65.5198C538.14 65.6398 536.38 65.5598 533.98 65.3598L534.46 69.5198C536.14 69.5198 537.38 69.4798 539.66 69.3598C536.94 74.1198 534.94 76.9598 531.78 80.3598L535.7 82.7998C537.9 79.1998 540.3 75.5598 544.22 75.5598C546.54 75.5598 547.02 76.9998 547.26 78.1998C541.26 81.2798 537.58 83.1598 537.58 88.1198C537.58 88.6798 537.58 90.4398 539.1 92.0398C541.62 94.7198 546.26 94.7198 548.5 94.7198C549.78 94.7198 554.22 94.7198 558.02 94.1198V89.5998C554.66 90.3598 551.26 90.8798 547.82 90.8798C544.9 90.8798 541.82 90.3598 541.82 87.7598C541.82 84.9598 545.98 82.8798 547.5 82.1198C547.46 83.8798 547.42 85.8398 547.3 88.1198H551.94C551.94 86.7598 551.86 81.7998 551.86 80.2398C554.82 79.1198 556.74 78.4398 559.9 77.4398Z" fill="black"/>
<path d="M605.18 91.2398C602.78 90.9598 595.62 90.1998 591.7 83.8398H604.62V79.7198H589.22C589.42 78.4398 589.46 77.7598 589.5 77.2398C590.14 77.3998 590.78 77.3998 591.02 77.3998H595.98C598.62 77.3998 599.78 76.4798 600.5 72.8798H604.22V64.0798H590.22V62.0398C590.22 61.9198 590.42 61.7598 590.74 61.5598C590.94 61.3998 591.18 61.2398 591.18 60.9598C591.18 60.4398 590.58 60.3998 590.18 60.3598L584.86 60.0798V64.0798H570.86V73.1998H575.3V68.0798H581.18C580.1 71.8398 577.94 74.1198 573.58 75.3198L576.58 79.0398C579.9 77.4798 582.26 75.4798 584.1 72.3998C584.26 72.1598 584.98 70.7998 585.02 70.7598C585.14 70.6798 585.78 70.5998 585.9 70.5598C586.1 70.4798 586.22 70.2798 586.22 70.1198C586.22 69.7998 585.82 69.5198 585.62 69.4398L582.78 68.0798H587.74V74.8398C587.74 75.1598 587.74 75.6398 587.86 75.9198L584.14 75.7598C584.18 76.9598 584.22 78.0398 584.02 79.7198H570.38V83.8398H582.98C580.66 88.7198 576.06 90.1998 568.94 90.9198L572.26 95.2798C581.3 93.4398 585.18 90.1598 587.62 85.4398C588.3 86.6398 589.7 89.0798 592.78 91.4398C596.26 94.1198 599.62 94.9998 601.42 95.4798L605.18 91.2398ZM599.7 71.5198L596.74 70.4398C596.46 72.9998 595.82 73.0798 595.18 73.0798H593.22C592.46 73.0798 592.18 72.5598 592.18 72.1598V68.0798H599.7V71.5198Z" fill="black"/>
<path d="M646.94 67.0798L645.3 65.3998H639.18V62.7598C639.18 62.5998 639.62 62.1998 639.98 61.8798C640.18 61.7198 640.34 61.5598 640.34 61.3198C640.34 60.7598 639.66 60.6798 639.26 60.6398L634.74 60.3998V65.3998H627.74C627.86 66.9598 628.02 69.6798 628.02 73.2398C628.02 82.5598 627.14 84.9998 626.18 87.6398V73.6798H619.66C620.78 71.3198 621.74 68.9198 622.3 66.3598H627.46V62.5598H612.38V66.3598H617.5C616.3 72.3598 613.26 76.8398 609.86 80.1198L613.38 82.6798C614.26 81.7598 614.54 81.4398 615.22 80.5598V94.2398H619.1V89.3598H625.3C624.3 91.0798 623.42 92.2398 621.94 93.6798L625.94 95.6398C630.42 90.6798 631.1 86.7198 631.74 79.6798C631.9 80.0798 632.46 81.8798 632.58 82.2398C633.22 83.9198 634.02 85.7998 635.3 87.8798C632.98 89.9598 630.94 91.0398 628.94 91.9598L631.46 95.3198C633.7 94.1998 635.5 93.0398 637.74 90.9598C639.98 93.2398 641.78 94.4798 644.34 95.7598L646.9 91.9598C644.62 91.3198 642.74 90.3998 640.38 88.1198C642.46 85.3998 644.38 82.1198 645.58 77.5998L644.1 75.9198H639.18V69.0798H642.14C641.58 71.3198 641.1 72.5998 640.54 73.8398L644.34 74.3198C645.62 71.1198 646.34 69.1198 646.94 67.0798ZM634.74 75.9198H631.9C631.98 73.3198 631.98 72.0798 631.98 69.0798H634.74V75.9198ZM640.42 79.6398C639.42 82.9998 638.54 84.1198 637.94 84.9198C637.1 83.3998 636.34 81.8798 635.74 79.6398H640.42ZM622.34 85.4398H619.1V77.6798H622.34V85.4398Z" fill="black"/>
<path d="M192.692 25.0003L184.852 4.56034H180.568L172.728 25.0003H176.9L178.412 20.6043H187.008L188.52 25.0003H192.692ZM185.916 17.4403H179.532L182.248 9.57234L182.724 7.78034L183.172 9.57234L185.916 17.4403Z" fill="black"/>
<path d="M199.966 25.0003V4.56034H196.186V25.0003H199.966Z" fill="black"/>
<path d="M221.548 25.0003C220.988 24.6083 220.232 24.0763 220.232 22.0323V19.9603C220.232 16.1243 218.3 15.5363 216.312 15.2563C218.048 14.8643 218.72 14.5003 219.504 13.6043C220.316 12.6803 220.764 11.4483 220.764 10.1043C220.764 6.91234 218.272 4.56034 214.464 4.56034H204.832V25.0003H208.612V16.9923H213.848C216.032 16.9923 216.48 18.8963 216.48 20.3523V22.8163C216.48 24.3003 216.732 24.6083 217.152 25.0003H221.548ZM216.732 10.6083C216.732 12.7083 215.444 13.8003 213.344 13.8003H208.612V7.75234H213.96C215.64 7.75234 216.732 8.76034 216.732 10.6083Z" fill="black"/>
<path d="M253.652 14.4443C253.652 8.98434 250.572 4.56034 244.944 4.56034H235.816V25.0003H244.944C250.628 25.0003 253.652 20.0723 253.652 14.4443ZM249.564 14.3043C249.564 16.8803 248.696 21.8083 244.832 21.8083H239.568V7.75234H244.832C247.016 7.75234 249.564 9.54434 249.564 14.3043Z" fill="black"/>
<path d="M270.755 18.5603C270.671 16.4323 270.531 14.3883 269.243 12.4283C268.123 10.7203 266.191 9.57234 263.699 9.57234C259.975 9.57234 256.642 12.1203 256.642 17.4963C256.642 22.6483 259.723 25.3643 263.811 25.3643C268.711 25.3643 269.998 21.8083 270.474 20.5483H266.75C266.134 22.2003 264.679 22.3683 264.007 22.3683C261.039 22.3683 260.479 19.3163 260.339 18.5603H270.755ZM266.75 16.1523H260.339C260.507 15.2003 260.983 12.5963 263.727 12.5963C265.575 12.5963 266.666 13.8003 266.75 16.1523Z" fill="black"/>
<path d="M285.753 20.6883C285.753 19.3723 285.137 18.2243 284.073 17.4683C283.205 16.8803 283.065 16.7963 279.313 15.3683C278.137 14.9203 277.437 14.6683 277.437 13.9123C277.437 13.3523 278.025 12.5123 279.509 12.5123C281.105 12.5123 281.581 13.4643 281.665 14.5563H285.361C285.193 12.8483 284.913 12.0643 283.989 11.1403C282.645 9.82434 280.853 9.57234 279.593 9.57234C276.149 9.57234 273.741 11.6163 273.741 14.1363C273.741 16.8803 275.813 17.6083 278.893 18.7283C281.273 19.5683 282.029 19.9043 282.029 20.9403C282.029 22.4243 280.181 22.4243 279.873 22.4243C277.577 22.4243 277.269 20.8003 277.157 20.0723H273.461C273.629 21.9763 273.965 22.7323 274.833 23.6003C276.401 25.1683 278.641 25.3643 279.705 25.3643C282.981 25.3643 285.753 23.6283 285.753 20.6883Z" fill="black"/>
<path d="M293.201 8.20034V4.56034H289.505V8.20034H293.201ZM293.201 25.0003V9.93634H289.505V25.0003H293.201Z" fill="black"/>
<path d="M311.339 12.2883V9.57234C309.827 9.57234 309.379 9.79634 308.259 11.0563C307.699 10.5523 306.523 9.57234 303.807 9.57234C300.363 9.57234 297.423 11.2243 297.423 14.4163C297.423 16.6843 298.795 17.6083 299.495 18.0563C298.655 18.5883 297.283 19.4563 297.283 20.8843C297.283 22.2563 298.543 22.7043 299.271 22.9563C298.627 23.0683 296.835 23.3763 296.835 25.5323C296.835 27.9963 299.719 28.7523 303.247 28.7523C307.951 28.7523 310.891 27.3243 310.891 24.6363C310.891 23.6563 310.527 22.7883 309.939 22.2003C308.819 21.0803 307.139 20.9123 303.275 20.6323C302.267 20.5483 301.035 20.4083 301.035 19.7083C301.035 19.3163 301.315 19.1203 302.015 18.9243C302.407 18.9803 302.799 19.0363 303.611 19.0363C307.951 19.0363 309.715 16.6843 309.715 14.2763C309.715 13.7443 309.631 13.4363 309.547 13.1563C310.331 12.2883 310.667 12.2883 311.339 12.2883ZM306.383 14.3323C306.383 16.1803 304.143 16.2923 303.499 16.2923C302.827 16.2923 300.755 16.2363 300.755 14.4723C300.755 13.3523 301.679 12.3723 303.667 12.3723C305.095 12.3723 306.383 12.9043 306.383 14.3323ZM306.887 24.8323C306.887 25.4483 306.663 26.0083 303.891 26.0083C300.783 26.0083 300.755 25.2803 300.755 24.8043C300.755 24.0203 301.231 23.7963 302.239 23.4323C302.603 23.4603 304.311 23.4883 304.647 23.5163C305.683 23.6283 306.887 23.9083 306.887 24.8323Z" fill="black"/>
<path d="M327.15 25.0003V14.8923C327.15 11.4763 325.302 9.57234 322.11 9.57234C319.17 9.57234 318.05 11.4483 317.462 12.4843L317.602 11.1963V9.93634H313.906V25.0003H317.602V16.2083C317.602 13.4363 319.394 12.6803 320.906 12.6803C322.754 12.6803 323.454 13.8003 323.454 15.4803V25.0003H327.15Z" fill="black"/>
<path d="M343.52 5.34434C341.98 4.19634 340.216 3.27234 338.088 2.62834L336.492 5.42834C338.48 6.04434 340.272 6.91234 341.924 8.14433L343.52 5.34434ZM353.992 12.2043L351.78 9.51634C347.076 16.3483 342.12 20.0163 335.064 22.9283L336.548 25.6163C336.66 25.8403 336.968 26.3723 337.248 26.3723C337.36 26.3723 337.416 26.2603 337.528 25.8683C337.584 25.7003 337.64 25.6163 337.752 25.5603C340.3 24.3283 343.52 22.7323 347.356 19.5123C351.052 16.4043 352.928 13.7443 353.992 12.2043ZM340.636 11.8963C338.956 10.5803 337.164 9.65634 335.064 9.01234L333.468 11.8123C335.848 12.5403 337.584 13.6323 338.9 14.5283L340.636 11.8963Z" fill="black"/>
<path d="M380.732 3.66434C380.732 3.32834 380.172 3.30034 380.032 3.30034L376.448 3.10433C376.588 5.34434 376.644 9.23634 376.644 9.90834C376.644 18.3643 374.236 21.0243 368.496 23.2923L370.932 26.0083C373.844 24.5243 377.484 22.4523 379.136 17.4963C380.032 14.7803 380.088 12.5683 380.088 7.10833C380.088 6.82833 380.032 5.56834 380.06 5.31634C380.06 4.53234 380.06 4.44834 380.424 4.08434C380.704 3.86033 380.732 3.74834 380.732 3.66434ZM369.084 3.88834C369.084 3.63634 368.58 3.60834 368.356 3.58034L365.024 3.30034V16.5163H368.356V4.70034C368.356 4.61633 368.384 4.58834 368.804 4.28034C368.916 4.16834 369.084 4.02834 369.084 3.88834Z" fill="black"/>
<path d="M411.56 16.1243V12.5683H391.652V16.1243H411.56Z" fill="black"/>
<path d="M444.208 2.79634C443.564 1.81633 442.892 1.11634 442.08 0.444336L440.736 1.56434C441.828 2.51634 442.472 3.38434 442.864 3.91634L444.208 2.79634ZM442.444 6.10034C441.828 5.12034 441.184 4.33634 440.372 3.49634L439 4.58834C439.812 5.40034 440.4 6.15634 441.072 7.19234L442.444 6.10034ZM441.324 21.5563C439.028 19.0363 436.62 16.6563 433.876 14.6403C435.668 11.7843 436.284 10.3563 437.096 8.42434C437.516 7.44434 438.02 7.05234 438.636 6.66034L436.312 4.22434C436.032 4.50434 435.528 5.00834 434.996 5.00834H422.928V8.25634H433.568C429.844 17.2443 423.544 20.4083 419.876 21.9203L422.368 24.4963C427.912 21.7523 429.984 19.5403 432 17.2723C434.324 19.2043 436.312 21.0803 438.776 24.2723L441.324 21.5563Z" fill="black"/>
<path d="M471.676 20.9403C469.156 19.2323 467.952 18.7563 466.86 18.3083C466.552 15.1723 466.496 13.8283 466.468 10.8043C467.364 10.6363 468.82 10.4123 469.968 10.0203V6.99634C468.904 7.64034 467.28 7.97634 466.496 8.14433C466.636 6.60434 466.72 5.37234 466.888 4.67234C467.168 4.50434 467.42 4.36434 467.42 4.22434C467.42 4.05634 467.336 3.91634 466.748 3.83234L463.612 3.32834C463.556 6.10034 463.556 6.40834 463.5 8.50834C462.716 8.59234 461.96 8.67634 460.896 8.67634C459.58 8.67634 458.88 8.59234 458.376 8.50834L458.404 11.3923C460.14 11.4763 461.652 11.3643 463.472 11.1683C463.528 13.0723 463.612 14.2483 463.836 17.5803C463.276 17.5243 462.688 17.4683 462.128 17.4683C459.412 17.4683 457.2 18.5603 457.2 21.0803C457.2 25.1123 461.904 25.1123 462.716 25.1123C466.524 25.1123 467.084 23.6563 467.14 21.5003C468.316 22.2003 469.072 22.7603 470.08 23.7123L471.676 20.9403ZM455.688 18.4763L453.924 17.2723L452.776 18.9523C452.636 17.8043 452.636 16.3203 452.636 16.0123C452.636 13.8563 453.42 8.59234 453.672 7.33234C453.756 6.99634 454.092 5.56834 454.288 5.42834C454.372 5.40034 454.736 5.26034 454.82 5.20434C454.904 5.14834 454.932 5.06434 454.932 5.00834C454.932 4.72834 454.344 4.47634 454.26 4.44834L451.544 3.38434C450.452 7.66834 449.836 12.0643 449.836 16.4883C449.836 19.4283 450.06 22.3683 450.9 25.1683L453.476 24.7483C453.784 22.5083 455.072 19.7923 455.688 18.4763ZM464.004 20.2403C464.06 21.6963 464.116 22.3403 462.268 22.3403C460.616 22.3403 459.804 21.7523 459.804 21.1083C459.804 20.4643 460.7 19.9883 462.016 19.9883C462.856 19.9883 463.584 20.1563 464.004 20.2403Z" fill="black"/>
</svg>
