<svg width="285" height="29" viewBox="0 0 285 29" fill="none" xmlns="http://www.w3.org/2000/svg">
<path d="M20.0698 2.65994C17.1898 3.19994 14.2798 3.31994 11.3398 3.31994C10.7398 3.31994 5.48982 3.31994 2.78982 2.77994L3.02982 6.97994C3.77982 7.03994 4.70982 7.12994 6.92983 7.12994C9.59982 7.12994 11.8198 7.00994 13.4098 6.88994C12.7798 7.48994 10.4698 9.25994 10.2298 9.40994C10.5598 9.76994 12.1798 11.5999 12.5398 12.0199C15.2698 9.55994 19.0498 7.09994 22.1398 5.83994L20.0698 2.65994ZM5.06982 14.3599C1.01982 17.8099 0.569824 19.9099 0.569824 21.2599C0.569824 25.6999 5.06982 26.9599 11.8198 26.9599C13.8898 26.9599 20.0398 26.7799 24.1498 25.7599C23.6698 24.1699 23.4298 22.4899 23.3098 21.5299C21.7498 21.9799 18.1798 23.0299 11.8798 23.0299C10.1698 23.0299 6.95982 22.9099 5.48982 22.1599C5.27982 22.0399 4.73982 21.6799 4.73982 20.8099C4.73982 19.3099 7.40982 16.9999 7.85982 16.6099L5.06982 14.3599Z" fill="white"/>
<path d="M39.9298 0.439941C39.6898 1.00994 38.6098 3.88994 38.3398 4.51994C34.9498 12.6799 29.9698 22.1599 28.0498 25.3699L32.2498 27.1399C33.0598 24.4399 35.2798 20.1499 36.4798 18.3799C37.1698 17.3599 38.4298 15.6799 40.2898 15.6799C41.4298 15.6799 41.7298 16.4299 41.7298 17.2699C41.7298 18.1099 41.2198 22.2499 41.2198 23.1799C41.2198 26.2999 43.3498 27.7099 45.7198 27.7099C50.8798 27.7099 55.0498 22.9099 56.2498 21.5299C55.3498 20.6599 54.1798 19.2199 53.5498 18.2899C51.7198 20.8999 48.3598 23.5099 46.7098 23.5099C45.2398 23.5099 45.2398 22.3999 45.2398 21.6799C45.2398 20.4799 45.4198 19.5199 45.6598 18.4399C45.7498 17.9899 45.9298 16.9399 45.9298 15.9499C45.9298 12.9499 43.7698 12.1099 41.8498 12.1099C40.7998 12.1099 39.5998 12.2599 38.6998 12.7999C39.5398 10.9099 42.4498 5.02994 43.4698 3.13994C43.9798 3.16994 44.3698 3.19994 44.3698 2.83994C44.3698 2.56994 44.1298 2.44994 43.9198 2.35994L39.9298 0.439941Z" fill="white"/>
<path d="M75.8098 11.7799C75.2098 12.1999 73.7098 13.9099 73.7098 16.1899C73.7098 16.6399 73.7398 17.3899 73.9198 18.7999C73.3798 18.7099 72.4198 18.5599 71.3698 18.5599C66.9598 18.5599 65.6098 21.1699 65.6098 23.0899C65.6098 25.9399 68.1298 27.8299 72.3298 27.8299C73.8298 27.8299 77.6998 27.7699 78.1498 23.8999C79.1098 24.4099 79.6198 24.7699 82.1698 26.7499C82.3798 26.4199 83.5198 24.7699 84.5098 23.6899C82.7098 22.2199 79.8598 20.6599 78.0298 19.8499C77.9098 19.2199 77.6998 17.8999 77.6998 16.6699C77.6998 15.5599 77.9698 14.7799 78.9298 13.6399L75.8098 11.7799ZM74.4598 22.3099C74.3998 23.3899 74.2198 24.6499 71.9398 24.6499C71.1598 24.6499 69.2998 24.4699 69.2998 23.1199C69.2998 22.0399 70.6498 21.5899 71.6098 21.5899C71.7898 21.5899 73.0798 21.5899 74.4598 22.3099ZM60.2398 9.76994C61.7698 9.70994 64.1098 9.67994 65.1598 9.58994C64.5898 11.2999 62.7298 16.6099 58.8898 21.9199C60.6298 22.4599 61.8598 23.0599 62.6698 23.4799C65.7898 19.0999 68.6698 11.4199 69.4798 9.04994C72.1798 8.62994 73.7698 8.17994 74.5198 7.96994C74.3998 6.85994 74.3698 5.17994 74.4298 4.12994C73.4698 4.45994 72.5698 4.78994 70.6798 5.20994C70.7698 4.84994 71.2798 3.10994 71.3998 2.71994C71.5798 2.71994 71.9998 2.68994 71.9998 2.35994C71.9998 2.14994 71.8498 2.02994 71.4598 1.90994L67.4398 0.649942C67.1998 1.90994 66.9598 3.40994 66.2998 5.86994C64.5898 6.01994 63.7798 6.04994 62.9998 6.04994C61.4998 6.04994 60.6298 5.92994 59.7598 5.80994L60.2398 9.76994ZM75.2998 9.40994C77.7298 10.1299 80.7298 11.3899 82.9198 13.2799C83.6698 12.0499 84.5998 10.7899 85.1998 9.97994C83.7298 8.80994 82.0198 7.63994 77.3698 6.10994L75.2998 9.40994Z" fill="white"/>
<path d="M103.98 5.17994V1.93994C104.25 1.81994 104.58 1.66994 104.58 1.39994C104.58 1.06994 104.16 1.00994 103.98 1.00994L99.9898 0.769943V5.17994H88.2898V8.74994H98.6098C98.5498 11.7199 98.3698 21.7999 87.5098 25.5499C88.7098 25.9699 89.9698 27.3199 90.5998 28.3099C98.4298 24.4399 100.71 18.1399 101.49 15.4099H108.18C108.18 24.6799 105.99 24.6799 104.58 24.6799C103.56 24.6799 102.15 24.4099 101.61 24.3199C102.21 25.0099 103.11 26.0899 103.41 28.3099C109.38 28.3399 111.9 27.0499 111.9 11.9599H102.18C102.39 10.1599 102.42 9.25994 102.42 8.74994H115.74V5.17994H103.98Z" fill="white"/>
<path d="M121.68 1.45994C120.69 5.95994 119.79 10.0399 119.79 15.5599C119.79 21.2899 120.84 24.5599 121.8 27.1999L125.4 26.1799C125.25 23.2399 127.05 19.4299 127.44 18.6499C126.57 18.0499 125.94 17.3599 125.4 16.5199C124.92 17.3599 124.02 19.3999 123.93 19.6399C123.78 18.6799 123.66 18.0799 123.66 16.3399C123.66 9.79994 125.13 5.44994 125.64 3.88994C126.09 3.82994 126.39 3.76994 126.39 3.46994C126.39 3.19994 126.15 3.13994 125.7 2.95994L121.68 1.45994ZM130.32 8.47994C131.22 8.53994 132.3 8.59994 133.95 8.59994C137.1 8.59994 140.28 8.35994 143.37 7.72994C143.28 7.18994 143.16 6.58994 142.98 3.82994C139.83 4.63994 136.68 4.78994 133.89 4.78994C132.21 4.78994 131.16 4.69994 130.32 4.63994V8.47994ZM130.23 16.3399C129.21 18.5599 129.15 20.1799 129.15 20.8099C129.15 23.7799 131.67 25.1299 137.67 25.1299C139.56 25.1299 142.8 24.9799 144.63 24.7099C144.6 24.1399 144.57 22.4299 144.99 20.5399C142.26 21.2299 139.56 21.3499 137.43 21.3499C134.19 21.3499 132.81 21.0499 132.81 19.5499C132.81 19.0999 132.99 18.2599 133.56 16.9699L130.23 16.3399Z" fill="white"/>
<path d="M161.34 11.0599C159.18 14.6299 154.77 18.9499 148.95 21.3499C150.48 22.5199 151.47 24.2599 151.68 24.6199C154.68 23.0899 159.06 20.5099 163.26 14.8999V21.5599C163.26 23.1799 163.26 23.8099 161.7 23.8099C160.71 23.8099 159.51 23.5699 159.12 23.4799C160.08 25.2799 160.2 25.6999 160.62 27.7999C165.96 27.8599 167.49 26.8099 167.49 23.8399V11.0599H174.03V7.21994H167.49V2.29994C167.76 2.17994 168.09 2.02994 168.09 1.75994C168.09 1.54994 167.85 1.45994 167.49 1.42994L163.26 1.15994V7.21994H149.52V11.0599H161.34Z" fill="white"/>
<path d="M195.15 6.88994C193.86 10.3099 192.72 13.1299 189.48 16.5799C185.04 21.3499 180.66 22.9699 178.86 23.5999C180.27 24.7999 180.78 25.4899 181.71 27.1099C186.78 24.9499 191.64 20.3599 193.71 17.7499C198.12 21.1699 200.61 24.4399 202.23 26.6899C202.59 26.2699 204.27 24.4099 205.32 23.2699C202.95 20.3899 198.24 16.3099 195.96 14.5999C197.88 11.4799 198.57 9.88994 199.83 6.94994C200.04 6.49994 200.37 5.80994 200.97 5.02994L198.93 2.83994C198.45 3.01994 197.34 3.07994 196.86 3.07994H181.62V6.88994H195.15Z" fill="white"/>
<path d="M225.15 6.88994C223.86 10.3099 222.72 13.1299 219.48 16.5799C215.04 21.3499 210.66 22.9699 208.86 23.5999C210.27 24.7999 210.78 25.4899 211.71 27.1099C216.78 24.9499 221.64 20.3599 223.71 17.7499C228.12 21.1699 230.61 24.4399 232.23 26.6899C232.59 26.2699 234.27 24.4099 235.32 23.2699C232.95 20.3899 228.24 16.3099 225.96 14.5999C227.88 11.4799 228.57 9.88994 229.83 6.94994C230.04 6.49994 230.37 5.80994 230.97 5.02994L228.93 2.83994C228.45 3.01994 227.34 3.07994 226.86 3.07994H211.62V6.88994H225.15Z" fill="white"/>
<path d="M256.92 2.47994C255.72 6.79994 253.89 10.1599 253.11 11.4799C251.13 9.82994 249.03 8.32994 247.08 6.97994L244.68 10.2199C246.84 11.5399 248.85 13.0699 250.71 14.7499C247.08 19.5799 243.12 21.9499 239.43 23.6899C241.29 25.0099 242.04 25.9699 242.61 26.7499C249.03 23.5699 252.87 18.7399 253.74 17.6599C254.91 18.8899 256.62 20.7499 257.91 22.7299C259.08 21.4099 259.77 20.5999 260.97 19.4899C259.86 17.8399 257.49 15.4099 256.2 14.2099C258 11.4199 259.11 8.95994 260.67 5.32994C261.24 5.26994 261.57 5.05994 261.57 4.78994C261.57 4.60994 261.36 4.45994 261.15 4.36994L256.92 2.47994Z" fill="white"/>
<path d="M279.87 2.35994V9.67994L280.8 18.5299H283.23L284.13 9.67994V2.35994H279.87ZM279.72 21.2899V25.9999H284.28V21.2899H279.72Z" fill="white"/>
</svg>
