<svg fill="none" height="41" viewBox="0 0 560 41" width="560" xmlns="http://www.w3.org/2000/svg"><g fill="#152d87"><path d="m11.2055 4.80021-11.039973 29.19999h5.560003l2.16-6.28h12.59997l2.2 6.28h5.52l-11.04-29.19999zm3 4.72 4.84 13.99999h-9.71997z"/><path d="m33.5571 4.80021v29.19999h5.04v-29.19999z"/><path d="m46.073 4.80021v29.19999h5v-11.64h7.32c2.88 0 4.04 2.4 4.04 5.08v4.68c0 .8.24 1.44.84 1.88h5.76c-1.44-1.32-1.44-2.16-1.56-7.68-.12-5.04-2.52-5.64-6.6-6.2 2.36-.24 7.6-.76 7.6-7.4 0-5.47999-4.28-7.91999-9.6-7.91999zm5 4.20001h7.44c3.04 0 4.52 1.87998 4.52 4.47998 0 2.76-1.84 4.68-4.52 4.68h-7.44z"/><path d="m88.3761 4.80021v29.19999h11.8399c9.12 0 13.52-5.4 13.52-14.52 0-5.04-1.12-14.67999-13.52-14.67999zm12.4799 4.20001c6.52 0 7.56 6.43998 7.56 10.47998 0 6.12-2.32 10.36-7.56 10.36h-7.4799v-20.83998z"/><path d="m136.928 24.6002c0-8.56-4.08-12.64-9.44-12.64-4.48 0-9.72 3.64-9.72 11.32 0 6.84 4.2 11.24 9.92 11.24 5.84 0 8.04-4.6 9-6.56h-5.04c-.48.88-1.32 2.48-3.68 2.48-3.36 0-4.72-2.96-5.12-5.84zm-14.08-3c.16-1.4.68-5.56 4.44-5.56 3.72 0 4.24 4.16 4.44 5.56z"/><path d="m156.994 18.8802c-.16-4.4-3.28-6.92-7.96-6.92-4.72 0-7.76 2.52-7.76 6.48 0 3.72 2.16 5 7.76 6.76 2.76.88 3.84 1.24 3.84 2.96 0 2.48-2.56 2.6-3.2 2.6-3.44 0-3.8-2.64-3.88-3.36h-5c.52 4.88 4.08 7.12 8.88 7.12 2.6 0 8.08-.96 8.08-6.88 0-3.28-1.6-4.64-7.4-6.56-3.28-1.08-4.12-1.48-4.12-2.92 0-2.32 2.48-2.44 2.88-2.44 2.84 0 2.88 2.08 2.92 3.16z"/><path d="m162.074 12.4802v21.52h4.92v-21.52zm0-7.67999v4.92h4.92v-4.92z"/><path d="m191.861 12.1202c-.2-.08-.48-.2-.84-.2-.68 0-2.32.76-3.44 2.12-1.84-1.72-4.48-2.08-6.48-2.08-5.48 0-8.56 2.72-8.56 6.8 0 3.4 2.16 4.72 2.88 5.16-3.2 1.16-3.2 3.32-3.2 3.64 0 2.04 2.04 2.48 3.08 2.72-4.28 1.08-4.28 4.08-4.28 4.6 0 3.36 2.88 5.64 9.52 5.64 5.92 0 10.16-1.64 10.16-6.68 0-4.56-2.88-5.76-9.16-6.52-4.44-.52-4.44-.76-4.44-1.2 0-.6.8-.92 1.44-1.2.44.08 1.12.16 2.2.16 4.96 0 8.48-2.4 8.48-6.8 0-.68-.08-1.08-.12-1.4.52-.64 1.56-1.4 2.2-1.4.32 0 .44.12.56.24zm-10.88 3.4c3.08 0 3.72 1.4 3.72 2.84 0 1.16-.28 3.16-3.92 3.16-2.48 0-3.72-.92-3.72-2.84 0-1.04.2-3.16 3.92-3.16zm-2.4 15.28c.76.04 4.12.2 4.8.32.52.12 2.16.52 2.16 2.44 0 3.04-3.4 3.04-4.44 3.04-3.72 0-4.84-1-4.84-2.76 0-1.96 1.44-2.64 2.32-3.04z"/><path d="m194.688 12.4802v21.52h4.88v-12.52c0-3.08 1.84-5.28 4.68-5.28 3.16 0 3.92 2.68 3.92 4.68v13.12h4.92v-14.56c0-5-3.08-7.48-6.48-7.48-4.12 0-5.88 2.76-7.04 4.6v-4.08z"/><path d="m250.235 31.0802c-1.72-1.48-3.64-2.88-6.52-4.32 0-.84-.16-5.04-.16-6 0-1.12 0-1.76 1.88-3.32l-3.96-2.4c-1.2 1.04-2 2.04-2 4.72 0 .8.12 4.64.16 5.52-.76-.2-2-.48-3.72-.48-3.96 0-6.76 2.52-6.76 5.64 0 3.6 3.56 5.84 8 5.84 5.56 0 6.32-3.04 6.64-4.72 1.36.92 2.48 1.8 3.8 3.12zm-10.56-1.64c-.08 1.12-.2 3.08-3.08 3.08-1.12 0-3.52-.4-3.52-2.12 0-.44.24-1.92 2.56-1.92 1.24 0 2.28.32 4.04.96zm-6.08-28.27999c-.52 2.52-1.28 4.96-2.04 7.32001-1.12.07999-2.16.15999-3.28.15999-1.52 0-2.92-.16-3.8-.24l.2 4.23999c1.64-.04 3.8-.12 5.44-.2-2.04 5.24-4.52 10.28-8.24 14.44l4.44 2.08c.24-.4 5.48-9.2 8.32-16.84 2.84-.32 4.68-.68 6.32-1.12l.28-4.51998c-.96.47999-2.12.83999-5.16 1.44.24-.72 1.28-3.80001 1.64-4.04001.2-.12.88-.55999.88-.68 0-.36-.84-.63999-1.28-.79999zm19.12 12.71999c-1.88-1.52-4.76-3.48-9-4.55999l-2.16 3.15999c2.64.88 6.4 2.52 8.76 4.84z"/><path d="m283.035 6.68021c-3.64-2.48-6.92-3.88-10.24-4.88l-1.68 4c3.56 1.16 6.44 2.4 9.68 4.91999zm-13.64 19.43999c1.24-1.52 2.36-2.88 4.48-4.24 1.8-1.16 4.32-2.24 6.52-2.24 1.64 0 4.8.96 4.8 4.76 0 6.8-10.6 7-12.6 7-1.32 0-2.52-.08-3.32-.12l1.72 4.44c5.16-.12 18.68-.52 18.68-11.16 0-5.2-3.44-8.84-9-8.84-4.64 0-8.08 2.36-9.88 3.56.28-2 .68-4.68 2.68-9.16l-4.04-1.79998c-1.84 4.11998-2.64 7.67998-3.64 15.55998z"/><path d="m330.075 30.0002c-3.4-2.44-6.72-3.84-10.28-4.88-.24-1.76-.4-3.12-.52-5.32.72-.04 6.12-.4 9.32-1.2l.12-4.24c-2.36.68-5.2 1.28-9.52 1.76.04-2 .08-4.08.12-5.28 1.32-.04 2.52-.08 4.88-.08 3.8 0 5.04.16 5.96.28l.2-4.39999c-2.48.2-4.28.28-10.88.56.16-2.64.16-2.95999.28-3.35999.04-.16.92-.76001.92-.96001 0-.4-.12-.4-1.44-.56l-4.24-.52c0 .76.12 4.6.12 5.48-1.92.08001-9.92.36-10.92.36l.24 4.27999c2.68-.52 9.16-.84 10.76-.92 0 .72 0 1.16.04 5.36-2.6.04-2.88.08-3.68 0-.48-.04-1.48-.16-1.48-.72 0-.44.88-.88 1.92-1.4l-2.04-1.88c-1.6.68-4.76 2.32-4.76 4.92 0 3 5.08 2.88 10.12 2.72.08 1.24.16 2.12.4 4.28-.64-.08-1.68-.2-2.84-.2-4.72 0-8.4 2.16-8.4 5.52 0 4.6 5.96 5.6 9.4 5.6 3.08 0 6.64-.88 6.64-4.32 0-.4-.04-.8-.08-1.52 3.16 1.24 5.28 2.6 7.16 4.32zm-13.92-1.88c.08.88.08 1.12.08 1.56 0 .8 0 1.68-3.08 1.68-2.16 0-4.52-.72-4.52-1.96 0-1.12 1.76-1.72 3.76-1.72 1.08 0 2.44.2 3.76.44z"/><path d="m368.755 29.4802c-3.04.6-7.68 1.52-12.28 1.52-3.24 0-7.64-.24-7.64-4.04 0-6.08 11.84-9.92 20.16-12.36l-1.28-4.79999c-1.68.75999-9.28 3.99999-10.8 4.67999-1.84-.76-2.28-1.76-2.28-6.23999 0-2.35999.04-4.32.12-6.36l-5.16.68c.24 2.56.88 9.75999 1.44 11.47999.48 1.52 1.28 2.12 1.88 2.52-6.12 3.6-8.28 6.44-8.28 10.4 0 8.12 8.56 8.12 11.72 8.12 4.12 0 8.28-.28 12.4-.56z"/><path d="m399.875 35.6802c1.36-.36 3.88-1.08 6.12-2.36 3.72-2.12 6.52-6.76 6.52-12 0-9.24-7.32-11.67999-11.52-12.15999.12-.76.28-1.75999.4-2.8.04-.36.2-1.76.28-2.32.04-.16.92-.75999.92-1 0-.4-.16-.4-1.56-.48l-4.36-.28c.08.8.2 1.76.2 3.48 0 1.4-.08 2.48-.16 3.52-3.04.6-5.08 1.39999-7 2.51999-.52-1.91999-1.04-3.91999-1.48-6.67999l-4.16 1.92c1.08 3.43999 1.92 5.95999 2.36 7.23999-1.76 1.8-5 5.2-5 11.56 0 2.08.4 7.52 4.96 7.52 2.84 0 4.88-2.2 6.88-4.4.72 1 1.08 1.48 1.64 2.12l3.2-3.72c-.48-.4-1-.84-2.08-2.16 1.92-3.28 3.36-8.08 4.24-12.24 3.96.4 7.8 2.6 7.8 8 0 3.64-1.8 7.28-5 9.08-2.36 1.32-4.72 1.64-6.08 1.8zm-3.76-22.56c-.6 2.96-1.28 5.56-2.52 8.32-.92-1.68-1.64-3.24-2.64-5.84 2-1.52 3.48-2.12 5.16-2.48zm-4.84 12.56c-.68.92-2.32 3.28-4.04 3.28-1.76 0-1.76-2.44-1.76-3.08 0-4.04 1.56-6.28 2.44-7.56.76 1.88 1.68 4.16 3.36 7.36z"/><path d="m451.515 3.44021c-11.88 2.96-26.12 3.44-29.32 3.52l.68 4.43999c2.32-.24 13.6-1.51999 16.16-1.79999-3.68 2.95999-8.64 6.95999-8.64 13.83999 0 9.52 10.96 11.52 13.68 12l1.48-4.72c-3-.24-10.6-.88-10.6-7.52 0-6.12 6.6-13.63998 16.76-15.23999z"/><path d="m470.195 36.6402c3.16-.12 5.84-.48 5.84-3.4v-10.6l2.64 2.2c.76-.92 1.12-1.36 2-2.68h3.36v3.52h-6.16v3.56h6.16v7.52h3.76v-7.52h6.32v-3.56h-6.32v-3.52h5.52v-3.44h-5.52v-1.44c0-.24.04-.36.28-.64.08-.12.4-.44.4-.56 0-.24-.28-.28-.56-.36 5.76-1.28 6-2.32 6.08-13.07999h-16.6v3.44001h4.08c-.56 3.39999-2 5.55998-5.08 7.35998l2.92 2.72c-.6 3.52-2.52 5.32-3.28 6.04v-11h-4.48l3.44-5.35999-1.08-1.16h-6.44c.48-1.08.56-1.19999.8-1.24.44-.04.88-.15999.88-.48 0-.32-.32-.4-.8-.52l-3.84-.99999c-1.16 4.31999-2.64 6.84-5.48 10.31998l2.88 1.8c.08.88.2 2.72.2 5.68 0 8.76-1.2 12.08-3 15.72l3.36 1.4c1.72-3.4 2.32-6.16 2.76-9.16h7.56v4.48c0 1.52-1.32 1.68-1.88 1.68-.28 0-1.6-.12-1.92-.12zm-2.32-18.84h-2.32v-3.6h2.32zm2.52 0v-3.6h2.4v3.6zm0 2.64h2.4v3.8h-2.4zm-2.52 0v3.8h-2.4c.08-.76.08-1.28.08-2.84v-.96zm1.84-12.75999-2 3.51999h-3.8c.4-.56.92-1.31999 2.12-3.51999zm14.32 11.03999h-2.08c0-.04.28-.84.4-1 .12-.08.68-.36.68-.52 0-.2-.16-.28-.84-.52l-2.44-.8c3.44-2.68 4.96-4.4 5.92-9.79998h4.56v1.67999c0 1.56 0 4.31999-3.4 4.31999-.44 0-.84-.04-1.2-.08l1.12 3.48-2.72-.32z"/><path d="m535.115 21.2802v-3.64h-3.12l.48-9.87999h-9.56v-4.24c0-.48.12-.64.48-1.04.16-.2.44-.52.44-.68 0-.4-.88-.4-1.84-.44l-3.32-.12v6.52h-7.2v3.51999h7.2c0 1.88 0 4.2-.08 6.36h-8.84v3.64h8.24c-.72 3-2.04 8.52-11.08 11.28l2.8 3.68c5.96-2.2 9.48-6.36 11.52-10.88 1.36 2.28 2.52 3.92 4.32 5.68 2.04 1.92 4.4 3.8 6.36 4.84l3.04-3.72c-8.08-4.16-9.76-6.76-11.68-10.88zm-12.36-3.64c.16-1.52.16-4.8.16-6.36h5.28l-.32 6.36zm-21.12-13.71999c1.72 1.12 3.64 2.4 5.48 4.16001l2.68-3.08001c-1.72-1.56-3.76-2.99999-5.76-4.279995zm-3.16 10.59999c1.48.96 3.72 2.44 5.48 3.84l2.48-3.24c-.92-.72-2.56-1.96-5.6-3.76zm6.24 7.8c-1.08 3.88-3.28 9-5.04 11.6l3.32 1.84c.6.32.84.44 1.12.44.4 0 .44-.36.44-.52 0-.12-.12-.84-.12-1 0-.36.12-.64.48-1.56 1.68-4.16 2.08-5.24 3.2-9.44z"/><path d="m554.475 12.7602 1.36 13.56h2.36l1.36-13.56v-7.95999h-5.08zm5.08 21.24v-5.08h-5.08v5.08z"/></g></svg>