<svg fill="none" height="38" viewBox="0 0 577 38" width="577" xmlns="http://www.w3.org/2000/svg" xmlns:xlink="http://www.w3.org/1999/xlink"><filter id="a" color-interpolation-filters="sRGB" filterUnits="userSpaceOnUse" height="35.1836" width="38.8977" x=".713379" y=".669434"><feFlood flood-opacity="0" result="BackgroundImageFix"/><feColorMatrix in="SourceAlpha" type="matrix" values="0 0 0 0 0 0 0 0 0 0 0 0 0 0 0 0 0 0 127 0"/><feOffset dy="-2"/><feColorMatrix type="matrix" values="0 0 0 0 1 0 0 0 0 1 0 0 0 0 1 0 0 0 1 0"/><feBlend in2="BackgroundImageFix" mode="normal" result="effect1_dropShadow"/><feColorMatrix in="SourceAlpha" type="matrix" values="0 0 0 0 0 0 0 0 0 0 0 0 0 0 0 0 0 0 127 0"/><feOffset dy="2"/><feColorMatrix type="matrix" values="0 0 0 0 1 0 0 0 0 1 0 0 0 0 1 0 0 0 1 0"/><feBlend in2="effect1_dropShadow" mode="normal" result="effect2_dropShadow"/><feBlend in="SourceGraphic" in2="effect2_dropShadow" mode="normal" result="shape"/></filter><g fill="#333"><path d="m64.5559 18.5323-3.042.676.494 2.6 2.548-.624v8.762c0 1.508.468 2.548 3.172 2.548h5.798c3.094 0 4.472-.364 5.018-4.16l-2.47-.91c-.13 1.482-.208 2.522-2.418 2.522h-5.226c-1.04 0-1.404-.156-1.404-1.43v-7.826l2.132-.52v7.384h2.496v-7.904l2.626-.676v4.706c0 1.534-.52 1.534-2.106 1.534l.91 2.6c2.99-.182 3.77-.936 3.77-2.938v-7.696l-1.3-1.092-3.9.806v-4.342c0-.182 0-.338.13-.442.286-.286.312-.312.312-.39 0-.208-.364-.26-.546-.26l-2.392-.156v6.214l-2.132.442v-4.03c0-.13 0-.286.13-.416.26-.26.312-.312.312-.39 0-.208-.312-.234-.572-.26l-2.34-.13zm-6.396 14.69h2.574v-14.612c0-.234 0-.338.182-.442.364-.26.39-.286.39-.39 0-.156-.286-.416-.468-.598.728-1.352.832-1.586 1.794-3.588.052-.078.208-.39.39-.442.39-.104.442-.104.442-.286 0-.234-.338-.442-.416-.468l-2.444-1.248c-1.092 3.224-2.444 6.084-5.954 9.334l1.976 1.768c.39-.338.754-.65 1.534-1.56z"/><path d="m95.9119 32.3383c1.95-.728 7.8001-2.912 7.8001-10.192 0-5.46-3.7961-9.334-9.8021-9.334-6.604 0-11.206 5.044-11.206 10.764 0 5.2 3.744 7.488 5.356 7.488 1.534 0 2.782-2.834 3.042-3.432 2.184-4.914 2.808-9.282 3.224-12.35 1.534.234 6.4741.962 6.4741 6.838 0 5.928-5.2001 7.358-6.8381 7.826zm-4.524-16.77c-.26 3.484-1.118 6.942-2.496 10.166-.338.78-.806 1.846-1.378 1.846-.91 0-2.236-1.69-2.236-4.004 0-1.794.65-6.136 6.11-8.008z"/><path d="m125.214 14.3463h-2.314v-2.314c0-.156.052-.208.52-.468.052-.026.13-.156.13-.234 0-.234-.364-.286-.572-.286l-2.392-.13v3.432h-1.924v-2.314c0-.156.052-.208.468-.468.026-.026.13-.104.13-.208 0-.26-.572-.312-.754-.338l-2.366-.182v3.51h-2.21l1.274-.598c-.988-1.508-1.56-2.21-2.262-2.99l-1.95 1.196c.468.494 1.3 1.586 1.924 2.392h-4.368v2.184h5.278c.286.468.364.598 1.04 1.742h-5.304v2.028h8.684v1.196h-6.916v1.95h6.916v1.274h-9.698v2.184h7.852c-3.302 2.678-6.526 3.978-7.826 4.498l2.106 2.028c3.276-1.716 5.46-3.224 7.566-4.94v4.81h2.6v-5.096c2.054 1.872 4.212 3.458 7.488 5.148l1.898-2.106c-2.262-1.04-4.862-2.366-7.358-4.342h7.618v-2.184h-9.646v-1.274h6.864v-1.95h-6.864v-1.196h8.476v-2.028h-4.992c.364-.624.442-.728.988-1.742h5.252v-2.184h-4.42c.234-.286.312-.416.858-1.17.286-.39.442-.598.676-.676.442-.13.494-.156.494-.286 0-.208-.208-.286-.494-.416l-2.21-1.014c-.364 1.118-1.196 2.496-1.456 2.912zm-7.54 3.926c-.182-.312-.494-.754-1.118-1.742h5.98c-.338.728-.416.91-.936 1.742z"/><path d="m144.454 24.4083v2.08h3.822c-1.066 2.626-2.34 3.822-4.888 4.966l1.898 1.976c2.86-1.638 4.472-3.016 5.72-6.942h2.496c-.026 4.238-.91 4.342-1.794 4.342h-1.56l.78 2.392h.988c3.796 0 3.9-1.352 4.394-8.814h-4.914c.052-.312.182-.936.208-1.118.052-.078.494-.364.494-.468 0-.182-.208-.234-.598-.286l-2.652-.416c.78-.442 1.196-.676 1.898-1.248 1.69 1.118 2.964 1.664 5.018 2.34l1.82-2.184c-1.846-.416-3.12-.884-5.018-1.846 1.222-1.43 1.794-2.34 2.522-4.004h1.664v-2.236h-7.124c.39-.754.442-.832.65-.884.286-.052.468-.104.468-.286 0-.156-.182-.208-.468-.286l-2.418-.728c-.936 1.872-2.288 4.16-4.316 5.798l1.95 1.3c.468-.39 1.04-.962 1.326-1.248.598 1.04 1.144 1.742 2.028 2.73-1.274.858-2.34 1.456-4.004 1.794l1.456 2.158c.988-.338 1.56-.572 2.522-1.144.052.26.052.546.052.832 0 .468-.078 1.066-.13 1.43zm7.826-9.23c-.416 1.014-.858 1.586-1.664 2.548-1.092-1.118-1.456-1.638-1.846-2.548zm-8.944 9.048c.312-.546.52-1.04 2.444-5.486l-.988-.624h-3.432l.832-1.118c-.104-.104-.728-.572-.884-.676 1.3-1.118 2.366-2.158 3.822-3.77l-1.118-.936h-8.918v2.106h6.058c-.338.39-1.092 1.092-1.638 1.638-1.638-.858-2.236-1.04-2.626-1.17l-1.196 1.898c1.898.806 3.432 1.742 3.926 2.028h-5.044v2.184h3.458c-.858 2.392-1.976 4.524-4.004 6.89l2.106 1.56c.91-1.144 1.794-2.6 2.47-3.874v5.018c0 .65-.234.884-1.04.884-.468 0-1.196-.026-1.638-.078l.91 2.6h.962c3.094 0 3.328-1.482 3.328-2.86v-10.14h1.742c-.598 1.43-.988 2.21-1.482 3.094z"/><path d="m179.684 29.0623c-1.976.39-4.992.988-7.982.988-2.106 0-4.966-.156-4.966-2.626 0-3.952 7.696-6.448 13.104-8.034l-.832-3.12c-1.092.494-6.032 2.6-7.02 3.042-1.196-.494-1.482-1.144-1.482-4.056 0-1.534.026-2.808.078-4.134l-3.354.442c.156 1.664.572 6.344.936 7.462.312.988.832 1.378 1.222 1.638-3.978 2.34-5.382 4.186-5.382 6.76 0 5.278 5.564 5.278 7.618 5.278 2.678 0 5.382-.182 8.06-.364z"/><path d="m206.698 25.9163v-3.484h2.652v-2.028h-2.652v-3.38h-5.018v-1.404h7.228v-2.028h-6.24c.208-.338.546-.858.832-1.3.182-.312.26-.416.442-.494.546-.286.598-.338.598-.468 0-.208-.338-.26-.468-.286l-2.756-.442c-.286.858-1.066 2.21-1.56 2.99h-4.914l1.274-.598c-.676-1.196-1.352-1.976-1.742-2.444l-2.392 1.014c.676.91.988 1.326 1.456 2.028h-6.032v2.028h7.306v1.404h-5.356v2.028h5.356v1.352h-7.54v2.028h7.54v1.456h-5.486v2.028h4.108c-1.716 2.392-4.368 4.238-6.084 5.174l2.132 1.82c1.196-.806 3.796-2.886 5.33-5.07v5.668h2.158v-7.592h2.548v7.592h2.262v-5.408c1.664 1.69 3.302 3.172 5.746 4.524l1.742-2.08c-1.638-.832-4.706-2.678-6.5-4.628zm-7.28-6.864v1.352h-2.47v-1.352zm0 4.836h-2.47v-1.456h2.47zm4.836-1.456v1.456h-2.574v-1.456zm0-2.028h-2.574v-1.352h2.574zm-4.836-3.38h-2.47v-1.404h2.47z"/><path d="m214.472 22.4583c.364-.312.624-.546 1.456-1.534v12.428h2.73v-15.652c0-.182.052-.286.312-.52.338-.312.442-.416.442-.572s-.182-.286-.546-.468c.442-.884.78-1.612 1.378-3.016.338-.832.39-.91.546-.962.286-.13.364-.156.364-.286 0-.208-.338-.338-.52-.39l-2.678-.78c-1.04 4.628-3.796 8.138-5.512 10.062zm12.064.546v6.968h-5.928v2.496h14.274v-2.496h-5.642v-6.968h6.656v-2.548h-6.656v-5.538c1.092-.208 2.444-.468 3.64-.832.338-.104.546-.156.884-.156.104 0 .728.13.884.13.104 0 .338-.078.338-.312 0-.26-.234-.494-.26-.52l-1.924-2.028c-1.378.624-4.03 1.638-12.116 1.898l1.066 2.366c2.392-.026 3.718-.104 4.784-.208v5.2h-6.526v2.548z"/><path d="m260.076 12.1363c-6.24 1.638-12.662 2.314-19.084 2.756l.52 2.886c1.976-.286 3.562-.494 5.408-.78.728-.104 4.342-.676 5.174-.754-2.132 1.794-5.512 4.628-5.512 9.282 0 2.262 1.3 4.576 3.952 6.032 1.092.598 2.418 1.066 5.07 1.456l.962-3.068c-2.73-.078-6.994-.546-6.994-4.992 0-3.744 3.432-6.5 4.862-7.514 2.314-1.612 4.108-2.028 5.772-2.366zm-.078 9.516c-1.17-1.144-2.366-1.872-2.912-2.21l-1.014 1.326c1.17.754 1.924 1.404 2.756 2.236zm1.95-2.47c-1.04-1.014-1.872-1.612-2.73-2.132l-1.04 1.17c.936.624 1.898 1.326 2.678 2.21z"/><path d="m288.052 31.7923c-1.638-4.03-3.068-6.942-5.798-10.868l-2.314 1.482c1.404 2.106 2.158 3.354 3.432 5.85-2.08.416-4.186.806-7.826 1.274.988-3.302 2.314-7.722 2.912-9.932.182-.676.234-.91.65-1.118.26-.156.442-.234.442-.468 0-.312-.416-.416-.65-.468l-3.016-.65c-.312 2.314-1.092 7.124-3.224 13-.624.078-1.82.208-2.522.286l.598 2.912c.052.312.13.546.312.546.13 0 .234-.104.39-.26.234-.26.364-.364 1.066-.468 6.422-.962 9.828-1.664 11.986-2.106.312.728.65 1.56.936 2.392zm-12.74-18.486h-7.956c.104.832.26 2.236.26 5.408 0 6.136-.546 8.996-2.522 13.286l2.756.702c1.3-2.886 2.392-6.37 2.392-13.676v-3.042h17.524v-2.678h-9.36v-1.586c0-.104.026-.26.104-.364.208-.286.26-.286.26-.39 0-.208-.312-.26-.494-.26l-2.964-.104z"/><path d="m301.858 16.2703v3.354h-9.776v2.522h22.464v-2.522h-9.958v-3.354h7.462v-2.392h-7.462v-2.002c0-.156.676-.598.676-.754 0-.26-.338-.286-.754-.312l-2.652-.13v3.198h-3.484c.156-.338.286-.598.52-1.092.078-.156.156-.286.312-.338.208-.104.442-.156.442-.364s-.39-.338-.572-.39l-2.626-.65c-.884 2.834-1.95 4.81-3.12 6.578l2.47 1.274c.286-.442.416-.676 1.456-2.626zm-6.344 16.952h2.782v-1.04h10.166v1.04h2.782v-9.256h-15.73zm2.782-3.38v-3.536h10.166v3.536z"/><path d="m326.038 13.8003c.676-.052 1.56-.182 2.366-.338.208-.052.572-.13.728-.156.182.052.702.286.832.286.182 0 .286-.104.286-.234 0-.156-.13-.338-.312-.624l-1.17-1.742c-.988.364-3.042 1.144-7.566 1.144-.832 0-1.404-.026-1.95-.052l1.17 2.002c1.352 0 2.106-.026 3.328-.104v.988h-5.122v1.872h5.122v1.066h-4.186v6.916h4.186v1.144h-4.394v1.82h4.394v1.534c-1.612.156-2.288.208-5.044.416l.312 2.236c.026.26.078.572.286.572.13 0 .494-.572.624-.624.416-.13 8.606-1.118 10.218-1.352-.546.676-.884.988-1.612 1.534l2.418 1.664c3.406-4.004 4.524-7.748 5.096-14.612h1.846c-.026 2.262-.13 9.75-1.222 11.258-.26.338-.494.338-2.548.338l1.196 2.6c1.716-.026 3.614-.078 4.29-3.432.286-1.378.858-4.992.884-13.182h-4.29c0-.546-.026-3.328-.026-3.952 0-.338.026-.52.26-.676.442-.312.546-.416.546-.546 0-.26-.364-.286-.91-.312l-2.626-.13c.104 1.144.208 2.704.156 5.616h-2.132v2.418h2.002c-.338 6.058-1.976 9.1-2.886 10.816v-1.3c-.65.052-3.822.364-4.55.442v-1.326h4.524v-1.82h-4.524v-1.144h4.316v-6.916h-4.316v-1.066h4.992v-1.872h-4.992zm-2.288 6.864h-1.872v-1.248h1.872zm4.368 0h-2.08v-1.248h2.08zm-4.368 1.43v1.3h-1.872v-1.3zm4.368 0v1.3h-2.08v-1.3z"/><path d="m362.204 27.9443v-11.648h-5.174v-2.158h9.828v-2.366h-22.1v2.366h9.75v2.158h-5.044v11.648zm-7.696-6.968h-2.6v-2.444h2.6zm2.522 0v-2.444h2.652v2.444zm-2.522 2.158v2.574h-2.6v-2.574zm2.522 0h2.652v2.574h-2.652zm6.864 6.812h-16.094v-12.454c0-.156.052-.338.182-.416.364-.286.416-.312.416-.442 0-.286-.572-.338-.702-.338l-2.574-.208v17.108h2.678v-1.014h16.094v1.014h2.678v-16.016c0-.286.026-.364.234-.52.234-.182.26-.208.26-.312 0-.208-.26-.234-.754-.286l-2.418-.286z"/><path d="m390.622 29.4003c-2.21-1.586-4.368-2.496-6.682-3.172-.156-1.144-.26-2.028-.338-3.458.468-.026 3.978-.26 6.058-.78l.078-2.756c-1.534.442-3.38.832-6.188 1.144.026-1.3.052-2.652.078-3.432.858-.026 1.638-.052 3.172-.052 2.47 0 3.276.104 3.874.182l.13-2.86c-1.612.13-2.782.182-7.072.364.104-1.716.104-1.924.182-2.184.026-.104.598-.494.598-.624 0-.26-.078-.26-.936-.364l-2.756-.338c0 .494.078 2.99.078 3.562-1.248.052-6.448.234-7.098.234l.156 2.782c1.742-.338 5.954-.546 6.994-.598 0 .468 0 .754.026 3.484-1.69.026-1.872.052-2.392 0-.312-.026-.962-.104-.962-.468 0-.286.572-.572 1.248-.91l-1.326-1.222c-1.04.442-3.094 1.508-3.094 3.198 0 1.95 3.302 1.872 6.578 1.768.052.806.104 1.378.26 2.782-.416-.052-1.092-.13-1.846-.13-3.068 0-5.46 1.404-5.46 3.588 0 2.99 3.874 3.64 6.11 3.64 2.002 0 4.316-.572 4.316-2.808 0-.26-.026-.52-.052-.988 2.054.806 3.432 1.69 4.654 2.808zm-9.048-1.222c.052.572.052.728.052 1.014 0 .52 0 1.092-2.002 1.092-1.404 0-2.938-.468-2.938-1.274 0-.728 1.144-1.118 2.444-1.118.702 0 1.586.13 2.444.286z"/><path d="m417.636 12.1363c-6.24 1.638-12.662 2.314-19.084 2.756l.52 2.886c1.976-.286 3.562-.494 5.408-.78.728-.104 4.342-.676 5.174-.754-2.132 1.794-5.512 4.628-5.512 9.282 0 2.262 1.3 4.576 3.952 6.032 1.092.598 2.418 1.066 5.07 1.456l.962-3.068c-2.73-.078-6.994-.546-6.994-4.992 0-3.744 3.432-6.5 4.862-7.514 2.314-1.612 4.108-2.028 5.772-2.366zm-.078 9.516c-1.17-1.144-2.366-1.872-2.912-2.21l-1.014 1.326c1.17.754 1.924 1.404 2.756 2.236zm1.95-2.47c-1.04-1.014-1.872-1.612-2.73-2.132l-1.04 1.17c.936.624 1.898 1.326 2.678 2.21z"/><path d="m433.262 17.9083h-8.112v2.522h8.112v2.522h-10.244v2.6h10.244v3.848c0 .806 0 1.43-1.352 1.43-.572 0-1.04-.026-1.976-.13l1.248 2.808c3.406 0 4.966 0 4.966-2.808v-5.148h10.14v-2.6h-10.14v-2.522h8.242v-2.522h-8.242v-3.302c1.014-.13 2.444-.39 4.082-.78.52-.13 1.846-.468 2.106-.52.156.026.442.052.598.052.13 0 .312-.052.312-.26 0-.182-.182-.39-.39-.65l-1.56-1.82c-4.004 1.456-9.568 2.444-16.276 2.236l.962 2.548c3.068-.052 4.472-.078 7.28-.39z"/><path d="m453.178 32.2863c2.704-3.692 4.186-8.086 5.096-12.558.286-.052 1.95-.416 2.6-.416 1.326 0 1.404 1.274 1.404 2.834 0 2.99-.962 5.46-1.118 5.798-.416.962-.858 1.43-1.794 1.43-.702 0-1.43-.208-2.262-.442l.13 2.808c.442.156 1.066.39 2.08.39 3.458 0 4.264-2.47 4.602-3.484.26-.78 1.04-3.458 1.04-6.734 0-2.652-.416-5.174-3.484-5.174-.962 0-1.976.208-2.678.338.156-.884.364-2.392.546-3.588.026-.078.364-.312.416-.39.052-.052.13-.13.13-.26 0-.208-.104-.208-.988-.364l-2.652-.442c.078 1.898.026 3.406-.26 5.642-3.406.676-3.796.754-5.59.988l.962 3.094c1.144-.494 2.08-.78 4.134-1.326-.91 3.9-2.548 7.592-5.096 10.608zm18.174-16.718c-.624-.884-1.378-1.846-2.314-2.756l-1.404 1.04c.988 1.04 1.586 1.846 2.158 2.756zm2.444-1.482c-.702-1.222-1.3-1.976-2.054-2.678l-1.378 1.014c.91.988 1.404 1.716 1.95 2.6zm-6.318 10.894c1.794-.494 3.484-.962 3.484-2.6 0-.572-.286-3.432-4.498-7.904l-1.924 1.456c3.224 3.77 3.328 5.304 3.328 5.486 0 .572-.468.676-1.69.936z"/><path d="m489.942 27.3463h2.548v-10.634h-10.66v10.738h2.522v-1.04h5.59zm-5.59-3.172v-5.148h5.59v5.148zm10.686 9.126h2.652v-21.606h-21.06v21.658h2.652v-1.17h15.756zm-15.756-3.588v-15.522h15.756v15.522z"/><path d="m517.346 14.2423c-2.366-1.612-4.498-2.522-6.656-3.172l-1.092 2.6c2.314.754 4.186 1.56 6.292 3.198zm-8.866 12.636c.806-.988 1.534-1.872 2.912-2.756 1.17-.754 2.808-1.456 4.238-1.456 1.066 0 3.12.624 3.12 3.094 0 4.42-6.89 4.55-8.19 4.55-.858 0-1.638-.052-2.158-.078l1.118 2.886c3.354-.078 12.142-.338 12.142-7.254 0-3.38-2.236-5.746-5.85-5.746-3.016 0-5.252 1.534-6.422 2.314.182-1.3.442-3.042 1.742-5.954l-2.626-1.17c-1.196 2.678-1.716 4.992-2.366 10.114z"/><path d="m548.286 30.1023c-1.118-.962-2.366-1.872-4.238-2.808 0-.546-.104-3.276-.104-3.9 0-.728 0-1.144 1.222-2.158l-2.574-1.56c-.78.676-1.3 1.326-1.3 3.068 0 .52.078 3.016.104 3.588-.494-.13-1.3-.312-2.418-.312-2.574 0-4.394 1.638-4.394 3.666 0 2.34 2.314 3.796 5.2 3.796 3.614 0 4.108-1.976 4.316-3.068.884.598 1.612 1.17 2.47 2.028zm-6.864-1.066c-.052.728-.13 2.002-2.002 2.002-.728 0-2.288-.26-2.288-1.378 0-.286.156-1.248 1.664-1.248.806 0 1.482.208 2.626.624zm-3.952-18.382c-.338 1.638-.832 3.224-1.326 4.758-.728.052-1.404.104-2.132.104-.988 0-1.898-.104-2.47-.156l.13 2.756c1.066-.026 2.47-.078 3.536-.13-1.326 3.406-2.938 6.682-5.356 9.386l2.886 1.352c.156-.26 3.562-5.98 5.408-10.946 1.846-.208 3.042-.442 4.108-.728l.182-2.938c-.624.312-1.378.546-3.354.936.156-.468.832-2.47 1.066-2.626.13-.078.572-.364.572-.442 0-.234-.546-.416-.832-.52zm12.428 8.268c-1.222-.988-3.094-2.262-5.85-2.964l-1.404 2.054c1.716.572 4.16 1.638 5.694 3.146z"/><path d="m563.47 23.8883c-.624 1.508-1.716 3.926-2.626 3.926-.832 0-1.924-1.716-1.924-5.226 0-3.328 1.092-6.292 1.3-6.448.338-.26.52-.39.52-.546 0-.234-.442-.442-.702-.572l-2.782-1.274c-.104.572-.624 3.016-.728 3.536-.26 1.248-.494 2.912-.494 4.732 0 5.2 1.95 9.36 4.524 9.36 1.56 0 3.016-1.3 5.07-5.642zm13.208 2.938c-.312-3.484-1.326-8.034-3.822-11.544l-2.782 1.17c1.248 1.794 3.25 5.2 3.406 10.79z"/></g><path clip-rule="evenodd" d="m32 10h-26v26h26zm-28-2v30h30v-30z" fill="#4d4d4d" fill-rule="evenodd"/><g filter="url(#a)"><path clip-rule="evenodd" d="m39.611 7.33075-23.6733 26.52225-15.224321-13.1369 4.573071-5.2997 10.01275 8.6399 19.0896-21.38687z" fill="#f6ca2b" fill-rule="evenodd"/></g></svg>