<svg fill="none" height="38" viewBox="0 0 431 38" width="431" xmlns="http://www.w3.org/2000/svg" xmlns:xlink="http://www.w3.org/1999/xlink"><filter id="a" color-interpolation-filters="sRGB" filterUnits="userSpaceOnUse" height="35.1836" width="38.8977" x=".713379" y=".669434"><feFlood flood-opacity="0" result="BackgroundImageFix"/><feColorMatrix in="SourceAlpha" type="matrix" values="0 0 0 0 0 0 0 0 0 0 0 0 0 0 0 0 0 0 127 0"/><feOffset dy="-2"/><feColorMatrix type="matrix" values="0 0 0 0 1 0 0 0 0 1 0 0 0 0 1 0 0 0 1 0"/><feBlend in2="BackgroundImageFix" mode="normal" result="effect1_dropShadow"/><feColorMatrix in="SourceAlpha" type="matrix" values="0 0 0 0 0 0 0 0 0 0 0 0 0 0 0 0 0 0 127 0"/><feOffset dy="2"/><feColorMatrix type="matrix" values="0 0 0 0 1 0 0 0 0 1 0 0 0 0 1 0 0 0 1 0"/><feBlend in2="effect1_dropShadow" mode="normal" result="effect2_dropShadow"/><feBlend in="SourceGraphic" in2="effect2_dropShadow" mode="normal" result="shape"/></filter><g fill="#333"><path d="m61.9299 13.0203-7.176 18.98h3.614l1.404-4.082h8.19l1.43 4.082h3.588l-7.176-18.98zm1.95 3.068 3.146 9.1h-6.318z"/><path d="m76.1204 13.0203v18.98h8.086c3.718 0 6.474-2.028 6.474-5.46 0-4.056-3.276-4.524-4.394-4.706 1.04-.182 3.77-.728 3.77-4.212 0-4.082-3.926-4.602-5.928-4.602zm7.93 2.73c1.04 0 2.6.338 2.6 2.288 0 1.924-1.326 2.626-2.938 2.626h-4.342v-4.914zm-4.68 7.618h4.94c1.482 0 2.912.728 2.912 2.86 0 2.314-1.768 3.068-3.224 3.068h-4.628z"/><path d="m98.6772 12.4223v2.704h12.7918v-2.704zm.6241 20.904c4.0817-1.846 7.2537-3.718 7.6437-11.674h7.878v-2.704h-19.6558v2.704h8.8138c-.286 5.148-1.3 7.67-6.9678 9.334z"/><path d="m141.343 29.2703c-.858-1.17-2.808-3.796-6.968-6.916 2.08-3.198 2.886-5.148 2.99-5.434.312-.728.468-1.014 1.664-1.534l-2.028-2.496c-1.092.78-1.664.78-2.236.78h-10.556v2.782h10.088c-3.562 8.788-10.14 11.778-13 13.026l2.21 2.184c5.2-2.392 7.41-4.966 9.126-6.942 3.068 2.496 5.018 4.758 6.5 6.916z"/><path d="m156.475 20.2483v-6.968c0-.156 0-.182.312-.442.104-.078.234-.208.234-.338 0-.208-.286-.312-1.066-.442l-2.34-.39v21.034h2.86v-11.284c2.028.91 4.42 1.95 7.514 5.486l1.898-2.626c-2.548-2.548-5.226-4.342-8.476-5.72z"/><path d="m175.897 27.0863h2.808v2.73h-2.808zm-2.392-5.538v2.158h7.358v-2.158zm-.156 11.804h2.548v-1.3h2.808v.988h2.522v-8.034h-7.878zm.156-15.262v2.158h7.358v-2.158zm17.862-6.682h-7.696c0 .546.052 1.248.052 1.976 0 3.718-.832 5.252-2.08 6.5l2.184 1.196c1.82-1.716 2.236-3.64 2.366-7.28h2.574v4.42c0 1.352.208 2.002 1.82 2.002h2.08c2.002 0 2.444-.702 2.808-3.12l-2.106-1.118c-.13 1.534-.182 2.028-1.144 2.028-.728 0-.858-.286-.858-.806zm-17.576-.078v2.106h6.76v-2.106zm-1.3 3.38v2.106h9.542v-2.106zm20.228 7.15h-10.218v2.08h7.54c-.52 1.248-.988 2.08-1.898 3.198-.962-.962-1.56-1.716-2.158-2.938l-2.08 1.066c.806 1.456 1.456 2.366 2.548 3.484-1.56 1.17-2.73 1.794-4.966 2.496l1.482 2.106c2.548-1.118 3.796-1.872 5.226-2.99 1.872 1.43 3.224 2.158 5.096 2.912l1.638-2.236c-2.47-.78-3.952-1.716-4.966-2.366 1.586-1.82 2.366-3.12 3.51-5.98z"/><path d="m199.999 33.5083h2.444v-1.378h3.302v1.04h2.47v-8.164h-8.216zm5.746-3.614h-3.302v-2.678h3.302zm2.184-16.042v-2.08h-7.514v2.08zm1.222 3.302v-2.028h-10.114v2.028zm-1.17 3.25v-2.002h-7.618v2.002zm0 3.354v-2.106h-7.618v2.106zm6.266 9.672h2.756v-12.636h4.576v-2.522h-4.576v-6.11c0-.156.052-.182.468-.442.052-.026.13-.104.13-.208 0-.312-.598-.338-.806-.364l-2.548-.182v7.306h-4.628v2.522h4.628z"/><path d="m244.849 29.4003c-2.21-1.586-4.368-2.496-6.682-3.172-.156-1.144-.26-2.028-.338-3.458.468-.026 3.978-.26 6.058-.78l.078-2.756c-1.534.442-3.38.832-6.188 1.144.026-1.3.052-2.652.078-3.432.858-.026 1.638-.052 3.172-.052 2.47 0 3.276.104 3.874.182l.13-2.86c-1.612.13-2.782.182-7.072.364.104-1.716.104-1.924.182-2.184.026-.104.598-.494.598-.624 0-.26-.078-.26-.936-.364l-2.756-.338c0 .494.078 2.99.078 3.562-1.248.052-6.448.234-7.098.234l.156 2.782c1.742-.338 5.954-.546 6.994-.598 0 .468 0 .754.026 3.484-1.69.026-1.872.052-2.392 0-.312-.026-.962-.104-.962-.468 0-.286.572-.572 1.248-.91l-1.326-1.222c-1.04.442-3.094 1.508-3.094 3.198 0 1.95 3.302 1.872 6.578 1.768.052.806.104 1.378.26 2.782-.416-.052-1.092-.13-1.846-.13-3.068 0-5.46 1.404-5.46 3.588 0 2.99 3.874 3.64 6.11 3.64 2.002 0 4.316-.572 4.316-2.808 0-.26-.026-.52-.052-.988 2.054.806 3.432 1.69 4.654 2.808zm-9.048-1.222c.052.572.052.728.052 1.014 0 .52 0 1.092-2.002 1.092-1.404 0-2.938-.468-2.938-1.274 0-.728 1.144-1.118 2.444-1.118.702 0 1.586.13 2.444.286z"/><path d="m271.863 12.1363c-6.24 1.638-12.662 2.314-19.084 2.756l.52 2.886c1.976-.286 3.562-.494 5.408-.78.728-.104 4.342-.676 5.174-.754-2.132 1.794-5.512 4.628-5.512 9.282 0 2.262 1.3 4.576 3.952 6.032 1.092.598 2.418 1.066 5.07 1.456l.962-3.068c-2.73-.078-6.994-.546-6.994-4.992 0-3.744 3.432-6.5 4.862-7.514 2.314-1.612 4.108-2.028 5.772-2.366zm-.078 9.516c-1.17-1.144-2.366-1.872-2.912-2.21l-1.014 1.326c1.17.754 1.924 1.404 2.756 2.236zm1.95-2.47c-1.04-1.014-1.872-1.612-2.73-2.132l-1.04 1.17c.936.624 1.898 1.326 2.678 2.21z"/><path d="m290.453 32.1043c-1.768-6.214-4.082-11.856-4.42-12.688 1.144-.546 2.288-1.092 3.952-1.716.364.676.858 1.612 1.326 2.86l2.808-.832c-.494-.962-.858-1.638-1.56-2.756.286-.052.728-.13 1.248-.13 1.716 0 2.938 1.222 2.938 2.704 0 .806-.416 3.068-4.472 3.068-1.17 0-2.002-.156-2.496-.234l.546 2.704c.416.052 1.066.156 1.924.156 4.342 0 7.202-2.158 7.202-5.59 0-3.172-2.652-5.018-5.304-5.018-.65 0-1.508.052-2.886.338-.52-.754-1.586-2.288-2.86-3.64l-2.548 1.222c1.248.936 2.34 2.444 2.834 3.12-1.846.65-3.094 1.196-3.666 1.456-.364-.91-.728-1.612-1.378-2.912-.234-.468-.468-.884-.468-.962 0-.052.13-.39.13-.468 0-.208-.182-.234-.26-.234-.156 0-.234.026-.78.234l-2.548.962c1.014 1.118 1.716 2.366 2.756 4.576-1.482.754-4.004 1.95-4.732 2.288l1.95 2.704c1.352-.962 2.496-1.742 3.874-2.522.962 2.366 2.782 7.254 3.796 12.584z"/><path d="m314.217 31.4543c2.47-.468 9.178-1.794 9.178-7.618 0-3.25-2.444-5.434-5.538-5.434-1.664 0-2.184.182-6.864 1.768-1.482.494-3.042.832-4.576.988l1.118 2.444c1.196-.234 2.756-.754 4.004-1.248 3.276-1.274 4.472-1.716 6.006-1.716 1.508 0 3.432 1.066 3.432 3.224 0 1.404-.78 4.654-8.06 5.2z"/><path d="m350.825 12.1363c-7.722 1.924-16.978 2.236-19.058 2.288l.442 2.886c1.508-.156 8.84-.988 10.504-1.17-2.392 1.924-5.616 4.524-5.616 8.996 0 6.188 7.124 7.488 8.892 7.8l.962-3.068c-1.95-.156-6.89-.572-6.89-4.888 0-3.978 4.29-8.866 10.894-9.906z"/><path d="m361.641 32.0523c.104-2.262.624-4.134 1.69-6.344l-1.56-.988c-.078.13-.962 1.612-1.066 1.768-.156-1.56-.182-1.924-.182-2.99 0-5.304 1.508-9.646 1.846-9.88.442-.286.494-.338.494-.442 0-.13-.052-.26-.702-.52l-2.314-.936c-.13.78-.962 4.238-1.092 4.966-.546 2.834-.624 5.122-.624 6.5 0 3.666.624 7.228 1.456 9.334zm16.718-2.912c-1.456-1.196-2.86-2.054-4.524-2.808-.338-4.004-.364-4.446-.416-5.72.702-.156 2.002-.468 3.926-1.144l-.182-2.756c-1.04.624-3.016 1.144-3.718 1.352.078-1.898.182-2.6.286-3.224.988-.234 2.002-.52 2.184-.546v-2.652c-2.184 1.04-5.98 1.638-7.904 1.638-.832 0-1.3-.078-1.716-.13l.13 2.626c2.184-.026 3.926-.286 4.628-.39-.026.442-.052.884-.052 3.198-.806.13-2.444.416-3.718.416-.754 0-1.326-.078-1.664-.104l.312 2.652c1.716-.026 2.86-.13 5.148-.468.13 2.106.156 2.34.286 4.42-.494-.104-1.17-.234-2.106-.234-2.99 0-4.186 1.586-4.186 3.25 0 2.106 1.794 3.692 4.94 3.692 1.404 0 4.186-.338 4.03-3.094 1.17.832 1.95 1.586 2.522 2.21zm-6.968-1.326c.026.832.052 2.054-1.82 2.054-.988 0-2.054-.468-2.054-1.196 0-.91 1.092-1.222 1.872-1.222.494 0 1.144.078 2.002.364z"/><path d="m400.979 23.4463c-.91 2.002-2.912 6.448-7.176 6.448-2.782 0-2.99-2.236-2.99-4.784 0-4.42.78-11.596 1.118-11.908.026-.052.26-.156.312-.234.052-.052.078-.13.078-.208 0-.286-.182-.312-.754-.416l-3.224-.598c.052.598.104 1.924.104 3.068 0 1.742-.26 9.412-.26 10.972 0 2.626.208 6.942 5.382 6.942 4.394 0 7.774-3.146 9.75-7.592z"/><path d="m417.697 23.8883c-.624 1.508-1.716 3.926-2.626 3.926-.832 0-1.924-1.716-1.924-5.226 0-3.328 1.092-6.292 1.3-6.448.338-.26.52-.39.52-.546 0-.234-.442-.442-.702-.572l-2.782-1.274c-.104.572-.624 3.016-.728 3.536-.26 1.248-.494 2.912-.494 4.732 0 5.2 1.95 9.36 4.524 9.36 1.56 0 3.016-1.3 5.07-5.642zm13.208 2.938c-.312-3.484-1.326-8.034-3.822-11.544l-2.782 1.17c1.248 1.794 3.25 5.2 3.406 10.79z"/></g><path clip-rule="evenodd" d="m32 10h-26v26h26zm-28-2v30h30v-30z" fill="#4d4d4d" fill-rule="evenodd"/><g filter="url(#a)"><path clip-rule="evenodd" d="m39.611 7.33075-23.6733 26.52225-15.224321-13.1369 4.573071-5.2997 10.01275 8.6399 19.0896-21.38687z" fill="#f6ca2b" fill-rule="evenodd"/></g></svg>