<svg fill="none" height="53" viewBox="0 0 149 53" width="149" xmlns="http://www.w3.org/2000/svg"><g fill="#00beff"><path d="m4.22275 3.27v6.39h10.14005v3.3h-10.14005v8.04h-3.899996v-21h15.329946v3.27z"/><path d="m36.6743 17.73v3.27h-15.75v-21h15.33v3.27h-11.43v5.46h10.14v3.21h-10.14v5.79z"/><path d="m56.142 16.14h-10.5l-2.07 4.86h-4.02l9.45-21h3.84l9.48 21h-4.08zm-1.29-3.06-3.96-9.18-3.93 9.18z"/><path d="m69.698 3.3h-6.96v-3.3h17.82v3.3h-6.96v17.7h-3.9z"/><path d="m93.634 21.3c-2.9 0-5.16-.81-6.78-2.43-1.62-1.64-2.43-3.98-2.43-7.02v-11.85h3.9v11.7c0 4.12 1.78 6.18 5.34 6.18 3.54 0 5.31-2.06 5.31-6.18v-11.7h3.84v11.85c0 3.04-.81 5.38-2.43 7.02-1.6 1.62-3.85 2.43-6.75 2.43z"/><path d="m123.516 21-4.29-6.15c-.18.02-.45.03-.81.03h-4.74v6.12h-3.9v-21h8.64c1.82 0 3.4.300001 4.74.900002 1.36.599998 2.4 1.459998 3.12 2.579998s1.08 2.45 1.08 3.99c0 1.58-.39 2.94-1.17 4.08-.76 1.14-1.86 1.99-3.3 2.55l4.83 6.9zm-.09-13.53c0-1.34-.44-2.37-1.32-3.09s-2.17-1.08-3.87-1.08h-4.56v8.37h4.56c1.7 0 2.99-.36 3.87-1.08.88-.74 1.32-1.78 1.32-3.12z"/><path d="m148.969 17.73v3.27h-15.75v-21h15.33v3.27h-11.43v5.46h10.14v3.21h-10.14v5.79z"/><path d="m34 50h80v3h-80z"/></g></svg>