<svg fill="none" height="54" viewBox="0 0 170 54" width="170" xmlns="http://www.w3.org/2000/svg"><g fill="#00beff"><path d="m8.95676 22.3c-1.62 0-3.19-.23-4.70999-.69-1.50001-.46-2.69001-1.07-3.570012-1.83l1.350002-3.03c.86.68 1.91 1.24 3.15 1.68 1.26.42 2.52.63 3.78.63 1.56004 0 2.72004-.25 3.48004-.75.78-.5 1.17-1.16 1.17-1.98 0-.6-.22-1.09-.66-1.47-.42-.4-.96-.71-1.62-.93s-1.56003-.47-2.70003-.75c-1.6-.38-2.89999-.76-3.89999-1.14-.98-.38-1.83002-.97-2.55002-1.77-.7-.81999-1.04999-1.91999-1.04999-3.29999 0-1.16.30999-2.21.92999-3.15.64-.96 1.59001-1.72 2.85001-2.28 1.28-.559998 2.83999-.839998 4.67999-.839998 1.28004 0 2.54004.160001 3.78004.479998 1.24.32 2.31.78 3.21 1.38l-1.23 3.03c-.92-.54-1.88-.95-2.88-1.23s-1.97-.42-2.91004-.42c-1.54 0-2.68998.26-3.44998.78-.74.52-1.11001 1.21-1.11001 2.07 0 .6.21 1.09.63 1.47.44.38.98999.68 1.64999.9s1.56002.47 2.70002.75c1.56002.35999 2.84002.73999 3.84002 1.13999 1 .38 1.85.97 2.55 1.77.72.8 1.08 1.88 1.08 3.24 0 1.16-.32 2.21-.96 3.15-.62.94-1.57 1.69-2.85 2.25s-2.84.84-4.68004.84z"/><path d="m32.624 22.3c-2.14 0-4.07-.46-5.79-1.38-1.72-.94-3.07-2.23-4.05-3.87-.98-1.66-1.47-3.51-1.47-5.55 0-2.03999.49-3.87999 1.47-5.51999.98-1.66 2.33-2.95 4.05-3.87 1.72-.94 3.65-1.409998 5.79-1.409998s4.07.469998 5.79 1.409998c1.72.92 3.07 2.2 4.05 3.84s1.47 3.49 1.47 5.54999c0 2.06-.49 3.91-1.47 5.55s-2.33 2.93-4.05 3.87c-1.72.92-3.65 1.38-5.79 1.38zm0-3.42c1.4 0 2.66-.31 3.78-.93 1.12-.64 1.9999-1.52 2.6399-2.64.64-1.14.9601-2.41.9601-3.81s-.3201-2.65999-.9601-3.77999c-.64-1.14-1.5199-2.02-2.6399-2.64-1.12-.64-2.38-.96-3.78-.96s-2.66.32-3.78.96c-1.12.62-2.0001 1.5-2.6401 2.64-.64 1.12-.9599 2.37999-.9599 3.77999s.3199 2.67.9599 3.81c.64 1.12 1.5201 2 2.6401 2.64 1.12.62 2.38.93 3.78.93z"/><path d="m49.5679 1.00001h3.9v17.69999h10.98v3.3h-14.88z"/><path d="m77.7639 22.3c-2.9 0-5.16-.81-6.78-2.43-1.62-1.64-2.43-3.98-2.43-7.02v-11.84999h3.9v11.69999c0 4.12 1.78 6.18 5.34 6.18 3.54 0 5.31-2.06 5.31-6.18v-11.69999h3.84v11.84999c0 3.04-.81 5.38-2.43 7.02-1.6 1.62-3.85 2.43-6.75 2.43z"/><path d="m97.7849 4.30001h-6.96v-3.3h17.8201v3.3h-6.96v17.69999h-3.9001z"/><path d="m113.072 1.00001h3.9v20.99999h-3.9z"/><path d="m133.962 22.3c-2.14 0-4.07-.46-5.79-1.38-1.72-.94-3.07-2.23-4.05-3.87-.98-1.66-1.47-3.51-1.47-5.55 0-2.03999.49-3.87999 1.47-5.51999.98-1.66 2.33-2.95 4.05-3.87 1.72-.94 3.65-1.409998 5.79-1.409998s4.07.469998 5.79 1.409998c1.72.92 3.07 2.2 4.05 3.84s1.47 3.49 1.47 5.54999c0 2.06-.49 3.91-1.47 5.55s-2.33 2.93-4.05 3.87c-1.72.92-3.65 1.38-5.79 1.38zm0-3.42c1.4 0 2.66-.31 3.78-.93 1.12-.64 2-1.52 2.64-2.64.64-1.14.96-2.41.96-3.81s-.32-2.65999-.96-3.77999c-.64-1.14-1.52-2.02-2.64-2.64-1.12-.64-2.38-.96-3.78-.96s-2.66.32-3.78.96c-1.12.62-2 1.5-2.64 2.64-.64 1.12-.96 2.37999-.96 3.77999s.32 2.67.96 3.81c.64 1.12 1.52 2 2.64 2.64 1.12.62 2.38.93 3.78.93z"/><path d="m169.566 1.00001v20.99999h-3.21l-11.58-14.21999v14.21999h-3.87v-20.99999h3.21l11.58 14.21999v-14.21999z"/><path d="m46 51h80v3h-80z"/></g></svg>