<svg width="1080" height="203" viewBox="0 0 1080 203" fill="none" xmlns="http://www.w3.org/2000/svg">
<path d="M74.3688 93.4659C71.8248 93.4659 69.5208 92.9139 67.4568 91.8099C65.4168 90.6819 63.8088 89.1339 62.6328 87.1659C61.4808 85.1979 60.9048 82.9779 60.9048 80.5059C60.9048 78.0339 61.4928 75.8139 62.6688 73.8459C63.8448 71.8779 65.4528 70.3419 67.4928 69.2379C69.5568 68.1099 71.8608 67.5459 74.4048 67.5459C76.4688 67.5459 78.3528 67.9059 80.0568 68.6259C81.7608 69.3459 83.2008 70.3899 84.3768 71.7579L81.3528 74.6019C79.5288 72.6339 77.2848 71.6499 74.6208 71.6499C72.8928 71.6499 71.3448 72.0339 69.9768 72.8019C68.6088 73.5459 67.5408 74.5899 66.7728 75.9339C66.0048 77.2779 65.6208 78.8019 65.6208 80.5059C65.6208 82.2099 66.0048 83.7339 66.7728 85.0779C67.5408 86.4219 68.6088 87.4779 69.9768 88.2459C71.3448 88.9899 72.8928 89.3619 74.6208 89.3619C77.2848 89.3619 79.5288 88.3659 81.3528 86.3739L84.3768 89.2539C83.2008 90.6219 81.7488 91.6659 80.0208 92.3859C78.3168 93.1059 76.4328 93.4659 74.3688 93.4659Z" fill="url(#paint0_linear)"/>
<path d="M96.493 71.8659H88.141V67.9059H109.525V71.8659H101.173V93.1059H96.493V71.8659Z" fill="url(#paint1_linear)"/>
<path d="M130.605 93.1059L125.457 85.7259C125.241 85.7499 124.917 85.7619 124.485 85.7619H118.797V93.1059H114.117V67.9059H124.485C126.669 67.9059 128.565 68.2659 130.173 68.9859C131.805 69.7059 133.053 70.7379 133.917 72.0819C134.781 73.4259 135.213 75.0219 135.213 76.8699C135.213 78.7659 134.745 80.3979 133.809 81.7659C132.897 83.1339 131.577 84.1539 129.849 84.8259L135.645 93.1059H130.605ZM130.497 76.8699C130.497 75.2619 129.969 74.0259 128.913 73.1619C127.857 72.2979 126.309 71.8659 124.269 71.8659H118.797V81.9099H124.269C126.309 81.9099 127.857 81.4779 128.913 80.6139C129.969 79.7259 130.497 78.4779 130.497 76.8699Z" fill="url(#paint2_linear)"/>
<path d="M95.6371 134.954C93.909 134.054 90.273 132.182 87.8251 129.194C89.949 125.846 91.3531 122.786 92.2531 116.018H94.701V112.202H84.1531C84.5131 111.086 84.621 110.726 84.909 109.322C84.9811 109.106 85.0171 108.962 85.449 108.746C85.737 108.602 85.8451 108.494 85.8451 108.314C85.8451 108.098 85.629 107.918 85.233 107.846L81.129 106.946C80.913 108.674 80.6611 110.546 79.8331 113.318C78.8251 116.666 77.925 118.25 77.025 119.798V109.322H64.569V113.03H73.0651V117.458H64.569V128.654C64.569 131.354 66.333 132.83 68.241 132.83H73.461C76.629 132.83 77.673 131.174 78.609 126.89L75.4051 125.45C75.2251 126.674 75.081 127.142 74.793 128.042C74.505 128.87 74.217 129.05 73.353 129.05H69.789C68.781 129.05 68.457 128.618 68.457 127.394V120.878H76.305C75.981 121.346 75.729 121.67 75.261 122.174L78.969 123.722C79.149 123.506 79.797 122.606 80.229 121.994C80.877 124.622 81.5251 126.458 83.0011 129.05C79.9051 132.218 77.3851 133.658 73.6411 134.954L76.953 138.014C80.481 136.358 82.641 134.99 85.3411 132.29C87.6451 134.81 89.5171 136.214 92.7211 137.906L95.6371 134.954ZM88.545 116.018C88.2931 119.402 87.5011 122.606 85.5211 125.846C83.8291 122.858 83.253 119.438 83.0011 116.018H88.545Z" fill="url(#paint3_linear)"/>
<path d="M132.537 126.638V123.65H126.057L126.453 122.894C127.101 122.786 127.281 122.534 127.281 122.318C127.281 122.03 126.957 121.778 125.841 121.526L124.761 121.274H132.357V118.61H119.073V116.882H128.073V114.074H119.073V112.67H131.493V109.862H123.933C124.401 109.034 124.689 108.494 124.977 108.35C125.409 108.206 125.733 108.062 125.733 107.882C125.733 107.558 125.409 107.45 124.509 107.27L121.125 106.622C120.621 108.062 120.333 108.746 119.649 109.862H114.105C112.989 108.17 112.197 107.198 111.729 106.622L108.021 107.738C108.885 108.71 109.173 109.106 109.713 109.862H102.369V112.67H114.753V114.074H105.753V116.882H114.753V118.61H101.397V121.274H109.065L106.833 121.886C107.085 122.354 107.373 122.966 107.625 123.65H101.253V126.638H132.537ZM122.817 121.274C122.637 121.814 121.881 123.218 121.629 123.65H119.073V121.274H122.817ZM114.753 123.65H111.909C111.441 122.498 111.189 122.03 110.793 121.274H114.753V123.65ZM128.289 138.05V128.258H105.465V138.05H109.749V137.222H124.113V138.05H128.289ZM124.113 134.126H109.749V131.282H124.113V134.126Z" fill="url(#paint4_linear)"/>
<path d="M162.331 174.348C204.096 139.923 210.046 78.1594 175.622 36.3947L177.164 35.1238C212.29 77.7401 206.218 140.763 163.602 175.889C120.986 211.016 57.9629 204.944 22.8364 162.328C-12.29 119.712 -6.21834 56.6888 36.3979 21.5623L37.6688 23.1042C-4.0959 57.5287 -10.0463 119.292 24.3783 161.057C58.8029 202.822 120.566 208.772 162.331 174.348Z" fill="#95D1E6"/>
<path d="M123.521 185.93C171.683 172.939 200.196 123.365 187.205 75.2025L189.135 74.6821C202.413 123.91 173.269 174.581 124.041 187.859C74.8135 201.137 24.1425 171.994 10.8646 122.766C-2.41326 73.5377 26.73 22.8667 75.9579 9.58887L76.4782 11.5181C28.3158 24.5085 -0.196703 74.0828 12.7938 122.245C25.7843 170.408 75.3586 198.92 123.521 185.93Z" fill="#95D1E6"/>
<path d="M181.606 115.656C172.231 160.688 128.126 189.593 83.0941 180.218C38.0625 170.843 9.15735 126.737 18.5327 81.7054C27.908 36.6738 72.0135 7.76869 117.045 17.144L117.452 15.1878C71.3404 5.58759 26.1767 35.1862 16.5765 81.2981C6.97624 127.41 36.5748 172.574 82.6868 182.174C128.799 191.774 173.962 162.176 183.563 116.064L181.606 115.656Z" fill="#95D1E6"/>
<path d="M286.781 72.9987C287.177 72.2067 287.609 71.3067 288.005 70.2987H291.641V72.9987H286.781ZM295.709 70.2987H302.153V66.4107H295.709V61.8747H291.641V66.4107H289.337C289.661 65.3307 289.949 64.2507 290.165 63.1347L286.241 62.3067C285.593 65.7267 284.405 69.3627 282.929 71.6307C283.757 71.9187 285.233 72.5307 286.169 72.9987H283.469V76.8507H291.641V79.4787H284.873V92.4027H288.689V83.2947H291.641V95.2467H295.709V83.2947H298.877V88.5507C298.877 88.9107 298.769 88.9827 298.445 88.9827C298.121 89.0187 297.221 89.0187 296.213 88.9467C296.681 89.9907 297.149 91.5027 297.257 92.5827C299.057 92.6187 300.425 92.5467 301.433 91.9347C302.477 91.3227 302.729 90.3147 302.729 88.6587V79.4787H295.709V76.8507H303.593V72.9987H295.709V70.2987ZM309.209 64.6107H305.213V84.8787H309.209V64.6107ZM311.657 62.2707V90.1707C311.657 90.7827 311.441 90.9267 310.865 90.9627C310.253 90.9627 308.381 90.9627 306.545 90.8907C307.085 92.1507 307.661 94.0227 307.805 95.2107C310.577 95.2107 312.665 95.0667 313.997 94.3827C315.293 93.6627 315.761 92.5107 315.761 90.2067V62.2707H311.657Z" fill="url(#paint5_linear)"/>
<path d="M328.577 61.8027C326.777 66.9147 323.645 72.0267 320.369 75.2667C321.125 76.3467 322.349 78.7947 322.745 79.8387C323.465 79.0467 324.221 78.1467 324.977 77.2467V95.2467H329.297V70.5867C330.629 68.1747 331.817 65.6187 332.753 63.0987L328.577 61.8027ZM354.389 71.5947V67.5267H340.421C341.105 66.0507 341.681 64.5747 342.185 63.0627L338.045 62.0187C336.425 67.1667 333.581 72.3507 330.413 75.5907C331.313 76.2747 333.005 77.7867 333.689 78.5787C335.309 76.7067 336.965 74.2587 338.405 71.5947H339.773V95.2827H344.165V87.2907H353.957V83.3307H344.165V79.2627H353.489V75.3747H344.165V71.5947H354.389Z" fill="url(#paint6_linear)"/>
<path d="M291.893 133.567C291.173 133.567 291.065 133.315 291.065 131.803V112.147H280.517C280.625 109.735 280.625 107.251 280.661 104.767H276.053C276.053 107.287 276.053 109.735 275.981 112.147H266.297V116.395H275.729C275.549 118.159 275.297 119.887 274.901 121.543C273.389 120.571 271.877 119.671 270.509 118.879L267.593 121.867C269.429 122.983 271.481 124.351 273.461 125.755C271.769 129.427 268.961 132.559 264.245 134.863C265.361 135.691 266.729 137.203 267.377 138.319C272.165 135.835 275.225 132.451 277.169 128.563C278.789 129.823 280.157 131.083 281.129 132.127L284.369 128.635C283.037 127.303 281.057 125.719 278.861 124.171C279.581 121.723 280.013 119.095 280.265 116.395H286.637V131.803C286.637 136.447 287.717 137.743 291.101 137.743H294.233C297.545 137.743 298.553 135.511 298.913 129.031C297.725 128.707 295.889 127.879 294.881 127.087C294.773 132.415 294.629 133.567 293.837 133.567H291.893Z" fill="url(#paint7_linear)"/>
<path d="M314.393 123.883L313.961 120.175L310.973 120.895V115.279H314.537V111.319H310.973V104.695H306.761V111.319H302.225V115.279H306.761V121.939C304.817 122.407 303.089 122.803 301.685 123.055L302.837 127.519C304.061 127.159 305.393 126.763 306.761 126.331V133.675C306.761 134.179 306.581 134.323 306.113 134.359C305.645 134.359 304.133 134.359 302.765 134.287C303.269 135.403 303.809 137.131 303.953 138.211C306.473 138.211 308.201 138.103 309.425 137.455C310.577 136.807 310.973 135.763 310.973 133.639V124.999L314.393 123.883ZM327.965 123.847C327.029 125.755 325.769 127.411 324.221 128.815C322.673 127.375 321.413 125.719 320.477 123.847H327.965ZM330.809 119.851L330.017 119.995H316.445C320.513 117.403 321.521 113.335 321.557 109.951H326.165V113.839C326.165 117.367 327.065 118.411 330.017 118.411H332.285C334.769 118.411 335.669 117.187 336.029 112.759C334.949 112.507 333.329 111.859 332.537 111.247C332.465 114.379 332.357 114.883 331.817 114.883H330.809C330.377 114.883 330.269 114.775 330.269 113.803V105.991H317.525V109.663C317.525 112.039 317.093 114.847 313.529 116.899C314.321 117.511 315.833 119.131 316.337 119.995H315.617V123.847H319.541L316.517 124.783C317.705 127.267 319.109 129.463 320.837 131.299C318.389 132.775 315.509 133.783 312.377 134.395C313.169 135.367 314.141 137.167 314.573 138.319C318.173 137.419 321.413 136.087 324.221 134.251C326.741 136.051 329.765 137.419 333.293 138.247C333.941 137.095 335.129 135.295 336.101 134.359C332.933 133.747 330.125 132.739 327.749 131.371C330.413 128.743 332.393 125.323 333.617 120.967L330.809 119.851Z" fill="url(#paint8_linear)"/>
<path d="M365.225 107.251H360.041C360.185 107.827 360.365 108.871 360.437 109.735C360.509 110.707 360.581 112.615 360.617 114.595C359.357 114.631 358.097 114.667 356.909 114.667C354.965 114.667 353.201 114.559 351.437 114.307V118.843C353.237 118.951 355.433 119.059 357.017 119.059C358.205 119.059 359.465 119.059 360.689 119.023C360.689 119.491 360.689 119.923 360.689 120.283C360.689 126.367 360.077 129.571 357.341 132.451C356.333 133.567 354.533 134.719 353.129 135.331L357.305 138.607C364.469 134.035 365.117 128.815 365.117 120.319C365.117 119.959 365.117 119.419 365.117 118.843C367.277 118.699 369.257 118.555 370.805 118.375L370.841 113.695C369.257 113.983 367.241 114.199 365.081 114.379C365.081 112.363 365.081 110.491 365.117 109.735C365.117 108.907 365.153 108.043 365.225 107.251ZM347.729 107.863L342.401 107.359C342.365 108.259 342.329 109.483 342.185 110.455C341.717 113.407 340.997 118.951 340.997 124.855C340.997 129.319 342.257 134.359 343.049 136.519L347.081 136.123C347.045 135.619 347.009 135.007 346.973 134.611C346.973 134.215 347.081 133.423 347.189 132.847C347.657 130.831 348.593 127.195 349.673 124.099L347.405 122.659C346.829 123.955 346.145 125.719 345.677 126.835C344.705 122.371 346.001 114.811 346.901 110.815C347.045 110.059 347.441 108.763 347.729 107.863ZM368.069 105.991L365.621 106.747C366.341 108.223 366.989 110.311 367.493 111.859L369.977 111.031C369.581 109.663 368.753 107.431 368.069 105.991ZM371.777 104.839L369.329 105.631C370.049 107.071 370.769 109.123 371.309 110.671L373.757 109.879C373.325 108.511 372.461 106.279 371.777 104.839Z" fill="url(#paint9_linear)"/>
<path d="M320.632 197.993C374.753 198.468 419.012 154.979 419.487 100.857L421.485 100.875C421 156.1 375.839 200.475 320.614 199.991C265.389 199.506 221.014 154.344 221.499 99.1195C221.983 43.8947 267.145 -0.480848 322.37 0.00393447L322.352 2.00198C268.231 1.52689 223.972 45.0157 223.497 99.137C223.022 153.258 266.51 197.517 320.632 197.993Z" fill="#95D1E6"/>
<path d="M283.457 181.918C328.701 202.925 382.409 183.277 403.416 138.032L405.228 138.873C383.756 185.119 328.861 205.202 282.615 183.731C236.369 162.259 216.286 107.363 237.758 61.1177C259.229 14.8721 314.125 -5.21122 360.371 16.2604L359.529 18.0727C314.285 -2.93418 260.577 16.7144 239.57 61.9591C218.563 107.204 238.212 160.911 283.457 181.918Z" fill="#95D1E6"/>
<path d="M373.123 165.423C336.996 193.892 284.629 187.684 256.159 151.557C227.689 115.429 233.897 63.0625 270.025 34.5927C306.152 6.1228 358.519 12.3307 386.989 48.4583L388.558 47.2216C359.405 10.2272 305.782 3.8704 268.788 33.0233C231.794 62.1762 225.437 115.799 254.59 152.794C283.743 189.788 337.366 196.145 374.36 166.992L373.123 165.423Z" fill="#95D1E6"/>
<path d="M515.173 67.3845V70.3725H509.269V67.3845H515.173ZM509.269 77.0685V74.1165H515.173V77.0685H509.269ZM511.573 83.4045C512.257 84.4125 512.941 85.5285 513.589 86.6445L509.269 87.7245V81.0285H519.133V63.4245H505.165V88.6605C504.301 88.8765 503.473 89.0565 502.753 89.2005L503.977 93.5925C507.253 92.6925 511.465 91.5405 515.533 90.3885C516.073 91.5405 516.505 92.6205 516.757 93.5565L520.537 91.6485C519.637 88.8765 517.261 84.8085 515.029 81.7845L511.573 83.4045ZM535.045 63.3525H521.149V95.2485H525.505V67.6725H530.617V84.9525C530.617 85.4205 530.473 85.6005 530.005 85.6005C529.501 85.6005 528.025 85.6365 526.621 85.5285C527.269 86.7165 527.953 88.9125 528.097 90.2085C530.401 90.2085 532.093 90.1005 533.425 89.3085C534.721 88.5165 535.045 87.1125 535.045 85.0965V63.3525Z" fill="url(#paint10_linear)"/>
<path d="M549.013 88.1925V80.1285H564.997V88.1925H549.013ZM564.997 68.1405V75.8805H549.013V68.1405H564.997ZM544.585 63.8205V94.8525H549.013V92.5125H564.997V94.7805H569.605V63.8205H544.585Z" fill="url(#paint11_linear)"/>
<path d="M513.517 114.885C513.121 117.513 512.545 119.925 511.789 122.157C510.205 120.249 508.585 118.413 507.037 116.757L503.977 119.169C505.957 121.365 508.081 123.921 509.989 126.477C508.153 129.933 505.669 132.705 502.321 134.649C503.221 135.441 504.697 137.133 505.201 137.997C508.225 135.981 510.673 133.389 512.581 130.221C513.625 131.841 514.453 133.353 515.029 134.649L518.449 131.733C517.621 130.005 516.325 127.989 514.741 125.901C516.037 122.805 517.009 119.313 517.693 115.425L513.517 114.885ZM518.809 121.257C520.429 123.705 521.977 126.981 522.517 129.105L526.225 127.197C525.649 125.073 523.921 121.977 522.229 119.601L518.809 121.257ZM536.269 112.653H532.417V104.661H528.205V112.653H520.357V110.205H513.697V104.697H509.593V110.205H503.329V114.165H519.169V116.757H528.205V132.957C528.205 133.533 527.989 133.713 527.341 133.713C526.729 133.713 524.785 133.749 522.769 133.641C523.381 134.937 523.993 136.989 524.137 138.249C527.125 138.249 529.249 138.069 530.617 137.313C531.985 136.629 532.417 135.369 532.417 132.957V116.757H536.269V112.653Z" fill="url(#paint12_linear)"/>
<path d="M547.357 112.905H573.349V108.837H560.353V104.697H555.889V108.837H543.073V117.909C543.073 123.093 542.821 130.653 539.869 135.801C540.877 136.269 542.785 137.493 543.577 138.213C546.817 132.597 547.357 123.705 547.357 117.909V112.905ZM566.257 118.233C564.313 116.541 560.425 114.381 557.545 113.013L554.701 115.821C557.653 117.333 561.433 119.745 563.161 121.437L566.257 118.233ZM550.525 135.153C552.145 132.273 552.793 127.521 553.189 123.381L549.337 122.553C548.977 126.549 548.221 130.725 546.709 133.461L550.525 135.153ZM559.849 133.785C558.841 133.785 558.697 133.605 558.697 132.309V119.781H554.449V132.345C554.449 136.341 555.349 137.601 559.165 137.601H563.161C566.509 137.601 567.589 135.873 567.985 129.717C566.869 129.429 565.105 128.745 564.205 127.989C564.061 132.957 563.845 133.785 562.765 133.785H559.849ZM565.645 123.093C567.697 126.909 569.569 131.913 570.037 135.117L574.249 133.389C573.673 130.113 571.585 125.361 569.461 121.617L565.645 123.093Z" fill="url(#paint13_linear)"/>
<path d="M445.724 134.727C463.788 185.746 519.792 212.462 570.812 194.398L571.479 196.282C519.419 214.714 462.273 187.454 443.841 135.393C425.408 83.3333 452.669 26.1878 504.729 7.75537C556.789 -10.6771 613.935 16.5835 632.367 68.6437L630.484 69.3106C612.42 18.2907 556.416 -8.42523 505.396 9.63891C454.376 27.7031 427.66 83.7067 445.724 134.727Z" fill="#95D1E6"/>
<path d="M448.115 94.2957C443.849 143.997 480.682 187.745 530.383 192.01L530.212 194.001C479.411 189.641 441.764 144.925 446.124 94.1248C450.484 43.3244 495.2 5.67685 546 10.0367C596.801 14.3965 634.448 59.1126 630.088 109.913L628.097 109.742C632.363 60.0413 595.53 16.2929 545.829 12.0275C496.128 7.76202 452.38 44.5948 448.115 94.2957Z" fill="#95D1E6"/>
<path d="M494.283 172.913C455.174 148.701 443.097 97.3696 467.309 58.2603C491.52 19.151 542.852 7.07404 581.961 31.2857C621.071 55.4973 633.148 106.829 608.936 145.938L610.635 146.99C635.428 106.943 623.061 54.3792 583.013 29.5868C542.966 4.79426 490.402 17.1609 465.61 57.2085C440.817 97.2561 453.184 149.819 493.232 174.612L494.283 172.913Z" fill="#95D1E6"/>
<path d="M712.417 66.5928V71.5968C713.425 71.5248 715.369 71.4528 716.881 71.4528H733.045V86.3568H716.449C714.829 86.3568 713.209 86.2488 711.949 86.1408V91.2888C713.137 91.1808 715.189 91.0728 716.593 91.0728H733.009C733.009 91.7568 733.009 92.3688 732.973 92.9448H738.193C738.121 91.8648 738.049 89.9568 738.049 88.6968V70.0488C738.049 69.0048 738.121 67.5648 738.157 66.7368C737.545 66.7728 736.033 66.8088 734.989 66.8088H716.845C715.621 66.8088 713.749 66.7368 712.417 66.5928Z" fill="url(#paint14_linear)"/>
<path d="M772.789 67.7448L769.837 65.5488C769.117 65.8008 767.677 66.0168 766.129 66.0168H753.421C752.341 66.0168 750.145 65.9088 749.173 65.7648V70.8768C749.929 70.8408 751.909 70.6248 753.421 70.6248H765.625C764.833 73.1808 762.637 76.7448 760.261 79.4448C756.877 83.2248 751.297 87.6168 745.501 89.7768L749.209 93.6648C754.141 91.3248 758.929 87.5808 762.745 83.5488C766.129 86.8248 769.477 90.4968 771.817 93.7368L775.921 90.1728C773.797 87.5808 769.441 82.9728 765.877 79.8768C768.289 76.6368 770.305 72.7848 771.529 69.9768C771.853 69.2568 772.501 68.1408 772.789 67.7448Z" fill="url(#paint15_linear)"/>
<path d="M786.109 88.6968C786.109 90.1368 785.965 92.2968 785.749 93.7368H791.365C791.221 92.2608 791.041 89.7408 791.041 88.6968V78.5088C794.929 79.8408 800.329 81.9288 804.037 83.8728L806.089 78.9048C802.777 77.2848 795.865 74.7288 791.041 73.3248V67.9968C791.041 66.5208 791.221 64.9368 791.365 63.6768H785.749C786.001 64.9368 786.109 66.7368 786.109 67.9968V88.6968Z" fill="url(#paint16_linear)"/>
<path d="M729.409 112.761C729.013 110.925 728.005 108.153 726.961 106.029L723.469 107.253C724.405 109.377 725.377 112.329 725.701 114.165L729.409 112.761ZM728.941 126.657V124.317H736.321V126.657H728.941ZM736.321 118.485V120.717H728.941V118.485H736.321ZM740.461 114.489H734.701V104.661H730.453V114.489H724.837V137.853H728.941V130.257H736.321V133.209C736.321 133.677 736.141 133.821 735.673 133.857C735.169 133.857 733.621 133.857 732.217 133.785C732.721 134.865 733.225 136.629 733.369 137.781C735.889 137.781 737.581 137.709 738.805 137.061C740.101 136.377 740.461 135.261 740.461 133.281V114.489ZM739.237 113.949C740.137 112.113 741.253 109.305 742.189 106.677L737.941 105.741C737.473 107.973 736.537 111.033 735.673 113.049L739.237 113.949ZM747.373 109.017H743.233V129.105H747.373V109.017ZM751.153 105.345V132.993C751.153 133.677 750.865 133.893 750.181 133.929C749.425 133.929 747.121 133.929 744.781 133.821C745.429 135.045 746.077 137.025 746.257 138.249C749.533 138.285 751.945 138.141 753.421 137.421C754.897 136.701 755.401 135.549 755.401 133.029V105.345H751.153Z" fill="url(#paint17_linear)"/>
<path d="M770.665 108.297C769.369 107.145 766.705 105.705 764.689 104.841L762.277 108.009C764.365 108.945 766.921 110.565 768.109 111.753L770.665 108.297ZM768.901 117.801C767.605 116.649 765.013 115.317 762.961 114.525L760.621 117.693C762.637 118.593 765.193 120.105 766.381 121.257L768.901 117.801ZM765.481 123.453C764.113 127.809 762.169 132.525 760.801 135.405L764.689 137.529C766.165 133.929 767.713 129.645 768.937 125.685L765.481 123.453ZM780.241 123.957V127.809H777.757V123.957H780.241ZM783.085 130.941V120.861H774.949V132.885H777.757V130.941H783.085ZM782.797 115.713H775.129V118.845H782.797V115.713ZM790.033 116.037C789.529 118.485 788.881 120.753 788.053 122.841C787.729 120.141 787.477 117.045 787.297 113.697H793.813V109.917H792.337L794.101 108.189C793.165 107.073 791.113 105.633 789.493 104.733L787.189 106.893C788.593 107.721 790.141 108.909 791.185 109.917H787.117C787.045 108.333 787.009 106.713 787.009 105.057H783.085C783.121 106.713 783.157 108.333 783.229 109.917H770.197V119.961C770.197 124.821 769.945 131.445 767.209 136.089C768.109 136.485 769.729 137.565 770.413 138.249C773.437 133.209 773.941 125.361 773.941 119.961V113.697H783.409C783.697 119.601 784.201 124.713 784.993 128.709C783.157 131.409 780.889 133.605 778.117 135.297C778.945 135.945 780.349 137.313 780.925 138.033C782.869 136.665 784.633 135.045 786.181 133.173C787.297 136.377 788.809 138.141 790.789 138.177C792.265 138.177 794.029 136.773 794.929 130.221C794.245 129.897 792.589 128.853 791.905 128.025C791.725 131.337 791.365 133.173 790.861 133.137C790.213 133.101 789.601 131.625 789.025 129.069C791.077 125.541 792.625 121.401 793.705 116.721L790.033 116.037Z" fill="url(#paint18_linear)"/>
<path d="M707.804 18.644C660.696 45.2932 644.111 105.085 670.76 152.193L669.021 153.177C641.829 105.109 658.752 44.0974 706.82 16.9048C754.889 -10.2877 815.9 6.63552 843.093 54.704C870.285 102.772 853.362 163.784 805.293 190.976L804.31 189.237C851.418 162.588 868.003 102.796 841.353 55.6878C814.704 8.57986 754.912 -8.00525 707.804 18.644Z" fill="#95D1E6"/>
<path d="M748.036 13.9771C698.35 18.4069 661.662 62.2769 666.092 111.963L664.101 112.141C659.573 61.3552 697.073 16.5147 747.859 11.9869C798.644 7.45903 843.485 44.9584 848.013 95.7441C852.54 146.53 815.041 191.37 764.255 195.898L764.078 193.908C813.764 189.478 850.452 145.608 846.022 95.9216C841.593 46.2351 797.723 9.54725 748.036 13.9771Z" fill="#95D1E6"/>
<path d="M678.63 73.0963C695.683 30.3768 744.138 9.56968 786.857 26.6222C829.576 43.6748 850.384 92.1295 833.331 134.849C816.278 177.568 767.824 198.376 725.104 181.323L724.363 183.179C768.108 200.64 817.725 179.334 835.187 135.59C852.648 91.8454 831.342 42.2281 787.598 24.7665C743.853 7.30483 694.236 28.6112 676.774 72.3555L678.63 73.0963Z" fill="#95D1E6"/>
<path d="M944.143 64.2158H938.707C938.851 65.2238 938.923 66.3758 938.923 67.8158V74.6558C938.923 80.2718 938.455 82.9718 935.971 85.6718C933.811 88.0118 930.895 89.3798 927.331 90.2078L931.075 94.1678C933.703 93.3398 937.447 91.5758 939.823 88.9838C942.487 86.0318 943.999 82.6838 943.999 74.9438V67.8158C943.999 66.3758 944.071 65.2238 944.143 64.2158ZM927.439 64.5038H922.255C922.363 65.3318 922.399 66.5918 922.399 67.2758V79.4078C922.399 80.4878 922.255 81.8918 922.219 82.5758H927.439C927.367 81.7478 927.331 80.3438 927.331 79.4438V67.2758C927.331 66.1238 927.367 65.3318 927.439 64.5038Z" fill="url(#paint19_linear)"/>
<path d="M953.107 65.6918V70.1918C954.151 70.1198 955.303 70.0838 956.599 70.0838H960.523V76.2038H954.655C953.539 76.2038 951.739 76.0958 950.731 76.0238V80.7398C951.811 80.6678 953.611 80.5598 954.655 80.5598H960.523V87.5078C960.523 91.1438 962.143 93.4118 968.731 93.4118C972.115 93.4118 976.183 93.2678 978.523 93.1238L978.847 88.2638C975.967 88.5518 972.799 88.7678 969.559 88.7678C966.679 88.7678 965.455 88.0478 965.455 86.0678V80.5598H976.435C977.227 80.5598 978.847 80.5598 979.855 80.6678L979.819 76.0598C978.883 76.1318 977.083 76.2038 976.327 76.2038H965.455V70.0838H973.915C975.211 70.0838 976.219 70.1558 977.155 70.1918V65.6918C976.327 65.7998 975.139 65.8718 973.915 65.8718H956.599C955.303 65.8718 954.151 65.7638 953.107 65.6918Z" fill="url(#paint20_linear)"/>
<path d="M986.587 75.4838V81.1358C987.919 81.0278 990.331 80.9558 992.383 80.9558H1011.71C1013.23 80.9558 1015.06 81.0998 1015.93 81.1358V75.4838C1014.99 75.5558 1013.41 75.6998 1011.71 75.6998H992.383C990.511 75.6998 987.883 75.5918 986.587 75.4838Z" fill="url(#paint21_linear)"/>
<path d="M1022.3 88.6958C1022.3 90.1358 1022.15 92.2958 1021.94 93.7358H1027.55C1027.41 92.2598 1027.23 89.7398 1027.23 88.6958V78.5078C1031.12 79.8398 1036.52 81.9278 1040.23 83.8718L1042.28 78.9038C1038.97 77.2838 1032.05 74.7278 1027.23 73.3238V67.9958C1027.23 66.5198 1027.41 64.9358 1027.55 63.6758H1021.94C1022.19 64.9358 1022.3 66.7358 1022.3 67.9958V88.6958Z" fill="url(#paint22_linear)"/>
<path d="M956.347 114.884C955.951 117.512 955.375 119.924 954.619 122.156C953.035 120.248 951.415 118.412 949.867 116.756L946.807 119.168C948.787 121.364 950.911 123.92 952.819 126.476C950.983 129.932 948.499 132.704 945.151 134.648C946.051 135.44 947.527 137.132 948.031 137.996C951.055 135.98 953.503 133.388 955.411 130.22C956.455 131.84 957.283 133.352 957.859 134.648L961.279 131.732C960.451 130.004 959.155 127.988 957.571 125.9C958.867 122.804 959.839 119.312 960.523 115.424L956.347 114.884ZM961.639 121.256C963.259 123.704 964.807 126.98 965.347 129.104L969.055 127.196C968.479 125.072 966.751 121.976 965.059 119.6L961.639 121.256ZM979.099 112.652H975.247V104.66H971.035V112.652H963.187V110.204H956.527V104.696H952.423V110.204H946.159V114.164H961.999V116.756H971.035V132.956C971.035 133.532 970.819 133.712 970.171 133.712C969.559 133.712 967.615 133.748 965.599 133.64C966.211 134.936 966.823 136.988 966.967 138.248C969.955 138.248 972.079 138.068 973.447 137.312C974.815 136.628 975.247 135.368 975.247 132.956V116.756H979.099V112.652Z" fill="url(#paint23_linear)"/>
<path d="M990.187 112.904H1016.18V108.836H1003.18V104.696H998.719V108.836H985.903V117.908C985.903 123.092 985.651 130.652 982.699 135.8C983.707 136.268 985.615 137.492 986.407 138.212C989.647 132.596 990.187 123.704 990.187 117.908V112.904ZM1009.09 118.232C1007.14 116.54 1003.25 114.38 1000.37 113.012L997.531 115.82C1000.48 117.332 1004.26 119.744 1005.99 121.436L1009.09 118.232ZM993.355 135.152C994.975 132.272 995.623 127.52 996.019 123.38L992.167 122.552C991.807 126.548 991.051 130.724 989.539 133.46L993.355 135.152ZM1002.68 133.784C1001.67 133.784 1001.53 133.604 1001.53 132.308V119.78H997.279V132.344C997.279 136.34 998.179 137.6 1001.99 137.6H1005.99C1009.34 137.6 1010.42 135.872 1010.81 129.716C1009.7 129.428 1007.93 128.744 1007.03 127.988C1006.89 132.956 1006.67 133.784 1005.59 133.784H1002.68ZM1008.47 123.092C1010.53 126.908 1012.4 131.912 1012.87 135.116L1017.08 133.388C1016.5 130.112 1014.41 125.36 1012.29 121.616L1008.47 123.092Z" fill="url(#paint24_linear)"/>
<path d="M1029.73 15.5768C983.098 -11.8953 923.024 3.63757 895.552 50.2704L893.83 49.2562C921.862 1.67253 983.161 -14.177 1030.74 13.8552C1078.33 41.8874 1094.18 103.186 1066.15 150.77C1038.11 198.354 976.815 214.203 929.231 186.171L930.245 184.449C976.878 211.921 1036.95 196.389 1064.42 149.756C1091.9 103.123 1076.36 43.0489 1029.73 15.5768Z" fill="#95D1E6"/>
<path d="M1053.89 48.0851C1025.21 7.27018 968.872 -2.56739 928.057 26.1122L926.908 24.4773C968.626 -4.83673 1026.21 5.21848 1055.52 46.9363C1084.84 88.6541 1074.78 146.237 1033.06 175.551C991.346 204.865 933.764 194.81 904.449 153.092L906.084 151.943C934.764 192.758 991.1 202.596 1031.92 173.916C1072.73 145.236 1082.57 88.8999 1053.89 48.0851Z" fill="#95D1E6"/>
<path d="M967.986 17.5374C1013.51 10.9456 1055.76 42.5051 1062.35 88.0275C1068.94 133.55 1037.38 175.797 991.857 182.389C946.335 188.98 904.088 157.421 897.496 111.899L895.519 112.185C902.269 158.799 945.529 191.116 992.144 184.366C1038.76 177.616 1071.07 134.356 1064.33 87.7412C1057.58 41.1267 1014.31 8.81 967.7 15.5599L967.986 17.5374Z" fill="#95D1E6"/>
<defs>
<linearGradient id="paint0_linear" x1="98.1929" y1="65.1067" x2="98.1929" y2="135.041" gradientUnits="userSpaceOnUse">
<stop stop-color="#37A4BD"/>
<stop offset="1" stop-color="#4D74B9"/>
</linearGradient>
<linearGradient id="paint1_linear" x1="98.1929" y1="65.1067" x2="98.1929" y2="135.041" gradientUnits="userSpaceOnUse">
<stop stop-color="#37A4BD"/>
<stop offset="1" stop-color="#4D74B9"/>
</linearGradient>
<linearGradient id="paint2_linear" x1="98.1929" y1="65.1067" x2="98.1929" y2="135.041" gradientUnits="userSpaceOnUse">
<stop stop-color="#37A4BD"/>
<stop offset="1" stop-color="#4D74B9"/>
</linearGradient>
<linearGradient id="paint3_linear" x1="98.1929" y1="65.1067" x2="98.1929" y2="135.041" gradientUnits="userSpaceOnUse">
<stop stop-color="#37A4BD"/>
<stop offset="1" stop-color="#4D74B9"/>
</linearGradient>
<linearGradient id="paint4_linear" x1="98.1929" y1="65.1067" x2="98.1929" y2="135.041" gradientUnits="userSpaceOnUse">
<stop stop-color="#37A4BD"/>
<stop offset="1" stop-color="#4D74B9"/>
</linearGradient>
<linearGradient id="paint5_linear" x1="318.785" y1="58.1592" x2="318.785" y2="135.159" gradientUnits="userSpaceOnUse">
<stop stop-color="#37A4BD"/>
<stop offset="1" stop-color="#4D74B9"/>
</linearGradient>
<linearGradient id="paint6_linear" x1="318.785" y1="58.1592" x2="318.785" y2="135.159" gradientUnits="userSpaceOnUse">
<stop stop-color="#37A4BD"/>
<stop offset="1" stop-color="#4D74B9"/>
</linearGradient>
<linearGradient id="paint7_linear" x1="318.785" y1="58.1592" x2="318.785" y2="135.159" gradientUnits="userSpaceOnUse">
<stop stop-color="#37A4BD"/>
<stop offset="1" stop-color="#4D74B9"/>
</linearGradient>
<linearGradient id="paint8_linear" x1="318.785" y1="58.1592" x2="318.785" y2="135.159" gradientUnits="userSpaceOnUse">
<stop stop-color="#37A4BD"/>
<stop offset="1" stop-color="#4D74B9"/>
</linearGradient>
<linearGradient id="paint9_linear" x1="318.785" y1="58.1592" x2="318.785" y2="135.159" gradientUnits="userSpaceOnUse">
<stop stop-color="#37A4BD"/>
<stop offset="1" stop-color="#4D74B9"/>
</linearGradient>
<linearGradient id="paint10_linear" x1="538.285" y1="63.1602" x2="538.285" y2="139.16" gradientUnits="userSpaceOnUse">
<stop stop-color="#37A4BD"/>
<stop offset="1" stop-color="#4D74B9"/>
</linearGradient>
<linearGradient id="paint11_linear" x1="538.285" y1="63.1602" x2="538.285" y2="139.16" gradientUnits="userSpaceOnUse">
<stop stop-color="#37A4BD"/>
<stop offset="1" stop-color="#4D74B9"/>
</linearGradient>
<linearGradient id="paint12_linear" x1="538.285" y1="63.1602" x2="538.285" y2="139.16" gradientUnits="userSpaceOnUse">
<stop stop-color="#37A4BD"/>
<stop offset="1" stop-color="#4D74B9"/>
</linearGradient>
<linearGradient id="paint13_linear" x1="538.285" y1="63.1602" x2="538.285" y2="139.16" gradientUnits="userSpaceOnUse">
<stop stop-color="#37A4BD"/>
<stop offset="1" stop-color="#4D74B9"/>
</linearGradient>
<linearGradient id="paint14_linear" x1="758.785" y1="65.6602" x2="758.785" y2="141.16" gradientUnits="userSpaceOnUse">
<stop stop-color="#37A4BD"/>
<stop offset="1" stop-color="#4D74B9"/>
</linearGradient>
<linearGradient id="paint15_linear" x1="758.785" y1="65.6602" x2="758.785" y2="141.16" gradientUnits="userSpaceOnUse">
<stop stop-color="#37A4BD"/>
<stop offset="1" stop-color="#4D74B9"/>
</linearGradient>
<linearGradient id="paint16_linear" x1="758.785" y1="65.6602" x2="758.785" y2="141.16" gradientUnits="userSpaceOnUse">
<stop stop-color="#37A4BD"/>
<stop offset="1" stop-color="#4D74B9"/>
</linearGradient>
<linearGradient id="paint17_linear" x1="758.785" y1="65.6602" x2="758.785" y2="141.16" gradientUnits="userSpaceOnUse">
<stop stop-color="#37A4BD"/>
<stop offset="1" stop-color="#4D74B9"/>
</linearGradient>
<linearGradient id="paint18_linear" x1="758.785" y1="65.6602" x2="758.785" y2="141.16" gradientUnits="userSpaceOnUse">
<stop stop-color="#37A4BD"/>
<stop offset="1" stop-color="#4D74B9"/>
</linearGradient>
<linearGradient id="paint19_linear" x1="981.115" y1="64.1592" x2="981.115" y2="137.659" gradientUnits="userSpaceOnUse">
<stop stop-color="#37A4BD"/>
<stop offset="1" stop-color="#4D74B9"/>
</linearGradient>
<linearGradient id="paint20_linear" x1="981.115" y1="64.1592" x2="981.115" y2="137.659" gradientUnits="userSpaceOnUse">
<stop stop-color="#37A4BD"/>
<stop offset="1" stop-color="#4D74B9"/>
</linearGradient>
<linearGradient id="paint21_linear" x1="981.115" y1="64.1592" x2="981.115" y2="137.659" gradientUnits="userSpaceOnUse">
<stop stop-color="#37A4BD"/>
<stop offset="1" stop-color="#4D74B9"/>
</linearGradient>
<linearGradient id="paint22_linear" x1="981.115" y1="64.1592" x2="981.115" y2="137.659" gradientUnits="userSpaceOnUse">
<stop stop-color="#37A4BD"/>
<stop offset="1" stop-color="#4D74B9"/>
</linearGradient>
<linearGradient id="paint23_linear" x1="981.115" y1="64.1592" x2="981.115" y2="137.659" gradientUnits="userSpaceOnUse">
<stop stop-color="#37A4BD"/>
<stop offset="1" stop-color="#4D74B9"/>
</linearGradient>
<linearGradient id="paint24_linear" x1="981.115" y1="64.1592" x2="981.115" y2="137.659" gradientUnits="userSpaceOnUse">
<stop stop-color="#37A4BD"/>
<stop offset="1" stop-color="#4D74B9"/>
</linearGradient>
</defs>
</svg>
