<svg fill="none" height="54" viewBox="0 0 85 54" width="85" xmlns="http://www.w3.org/2000/svg"><g fill="#00beff"><path d="m11.3933 22.3c-2.11996 0-4.03997-.46-5.75997-1.38-1.7-.94-3.03999-2.23-4.01999-3.87-.959998-1.64-1.44-3.49-1.44-5.55 0-2.06005.490001-3.91005 1.47-5.55005.98-1.64 2.31999-2.92 4.01999-3.84 1.72-.94 3.64001-1.409999 5.75997-1.409999 1.72 0 3.29.300001 4.71.899999 1.42.6 2.62 1.47 3.6 2.61l-2.52 2.37c-1.52-1.64-3.39-2.46-5.61-2.46-1.44 0-2.72996.32-3.86996.96-1.14.62-2.03002 1.49-2.67002 2.61s-.95999 2.39005-.95999 3.81005.31999 2.69.95999 3.81 1.53002 2 2.67002 2.64c1.14.62 2.42996.93 3.86996.93 2.22 0 4.09-.83 5.61-2.49l2.52 2.4c-.98 1.14-2.19 2.01-3.63 2.61-1.42.6-2.99.9-4.71.9z"/><path d="m38.1508 17.14h-10.5l-2.0701 4.86h-4.0199l9.4499-21.00005h3.8401l9.4799 21.00005h-4.0799zm-1.2901-3.06-3.9599-9.18005-3.93 9.18005z"/><path d="m55.0114 22.3c-1.62 0-3.1899-.23-4.7099-.69-1.5-.46-2.6901-1.07-3.5701-1.83l1.3501-3.03c.86.68 1.9099 1.24 3.1499 1.68 1.26.42 2.52.63 3.78.63 1.56 0 2.7201-.25 3.4801-.75.78-.5 1.17-1.16 1.17-1.98 0-.6-.22-1.09-.66-1.47-.42-.4-.96-.71-1.62-.93s-1.56-.47-2.7-.75c-1.6-.38-2.9-.76-3.9-1.14-.98-.38-1.8301-.97-2.5501-1.77-.7-.82005-1.0499-1.92005-1.0499-3.30005 0-1.16.31-2.21.93-3.15.64-.96 1.59-1.72 2.85-2.28 1.28-.559999 2.8399-.839999 4.6799-.839999 1.28 0 2.54.160001 3.78.479999 1.24.32 2.3101.78 3.2101 1.38l-1.23 3.03c-.92-.54-1.88-.95-2.88-1.23s-1.97-.42-2.91-.42c-1.5401 0-2.69.26-3.45.78-.74.52-1.11 1.21-1.11 2.07 0 .6.21 1.09.63 1.47.44.38.99.68 1.65.9s1.56.47 2.7.75c1.56.36005 2.84.74005 3.84 1.14005 1 .38 1.8499.97 2.5499 1.77.72.8 1.0801 1.88 1.0801 3.24 0 1.16-.32 2.21-.96 3.15-.62.94-1.57 1.69-2.85 2.25s-2.8401.84-4.6801.84z"/><path d="m84.6187 18.73v3.27h-15.75v-21.00005h15.3299v3.27h-11.43v5.46h10.1401v3.21005h-10.1401v5.79z"/><path d="m3 51h80v3h-80z"/></g></svg>