<svg width="526" height="111" viewBox="0 0 526 111" fill="none" xmlns="http://www.w3.org/2000/svg">
<path d="M24.729 5.88001L12.585 38H18.701L21.077 31.092H34.937L37.357 38H43.429L31.285 5.88001H24.729ZM28.029 11.072L33.353 26.472H22.661L28.029 11.072Z" fill="white"/>
<path d="M48.4357 5.88001V38H53.9797V5.88001H48.4357Z" fill="white"/>
<path d="M79.7152 25.108L89.9672 35.36L93.1352 32.192L82.8832 21.94L93.1352 11.688L89.9672 8.52001L79.7152 18.772L69.4632 8.52001L66.2952 11.688L76.5472 21.94L66.2952 32.192L69.4632 35.36L79.7152 25.108Z" fill="white"/>
<path d="M130.447 11.424C122.879 15.34 115.883 16.792 112.319 17.408V6.93601C112.319 6.67201 112.319 6.40801 112.671 6.14401C113.067 5.79201 113.375 5.52801 113.375 5.26402C113.375 4.78001 112.671 4.60401 111.703 4.47201L107.391 3.85601V29.992C107.391 35.624 108.095 38 121.955 38C127.587 38 132.251 37.472 134.583 37.208V31.884C130.139 32.632 126.839 33.16 122.175 33.16C120.371 33.16 114.739 32.984 113.419 32.236C112.319 31.62 112.319 30.168 112.319 28.98V21.852C119.183 20.532 125.475 18.948 131.503 16.352C131.987 16.132 132.471 16.132 133.439 16.132C133.615 16.132 133.967 16.044 133.967 15.78C133.967 15.56 133.879 15.384 132.911 14.284L130.447 11.424Z" fill="white"/>
<path d="M153.547 18.112V6.32001C153.547 6.05602 153.547 6.01201 154.075 5.57201C154.251 5.44002 154.471 5.22001 154.471 5.00001C154.471 4.64802 153.987 4.47201 152.667 4.25201L148.707 3.59201V39.188H153.547V20.092C156.979 21.632 161.027 23.392 166.263 29.376L169.475 24.932C165.163 20.62 160.631 17.584 155.131 15.252L153.547 18.112Z" fill="white"/>
<path d="M203.883 38.572C207.183 37.34 217.083 33.644 217.083 21.324C217.083 12.084 210.659 5.52801 200.495 5.52801C189.319 5.52801 181.531 14.064 181.531 23.744C181.531 32.544 187.867 36.416 190.595 36.416C193.191 36.416 195.303 31.62 195.743 30.608C199.439 22.292 200.495 14.9 201.199 9.70802C203.795 10.104 212.155 11.336 212.155 21.28C212.155 31.312 203.355 33.732 200.583 34.524L203.883 38.572ZM196.227 10.192C195.787 16.088 194.335 21.94 192.003 27.396C191.431 28.716 190.639 30.52 189.671 30.52C188.131 30.52 185.887 27.66 185.887 23.744C185.887 20.708 186.987 13.36 196.227 10.192Z" fill="white"/>
<path d="M241.415 14.416V7.50801H238.203C238.291 6.49601 238.467 4.16401 241.283 3.59201V0.864014C240.051 1.08401 235.475 1.87601 235.475 7.94801V14.416H241.415ZM249.555 14.416V7.50801H246.343C246.431 6.49601 246.607 4.16401 249.423 3.59201V0.864014C248.191 1.08401 243.615 1.87601 243.615 7.94801V14.416H249.555Z" fill="white"/>
<path d="M272.347 39.32H277.451V16.044C279.959 14.02 282.379 11.952 284.491 9.70802C286.075 7.99201 286.251 7.77201 286.647 7.77201C287.879 7.77201 288.011 7.77201 288.011 7.37601C288.011 6.98001 287.835 6.89201 286.603 5.79201L283.303 2.93201C279.475 7.68401 270.983 17.012 257.167 22.116L260.995 26.252C264.559 24.668 267.859 22.82 272.347 19.784V39.32Z" fill="white"/>
<path d="M311.947 39.32H317.051V16.044C319.559 14.02 321.979 11.952 324.091 9.70802C325.675 7.99201 325.851 7.77201 326.247 7.77201C327.479 7.77201 327.611 7.77201 327.611 7.37601C327.611 6.98001 327.435 6.89201 326.203 5.79201L322.903 2.93201C319.075 7.68401 310.583 17.012 296.767 22.116L300.595 26.252C304.159 24.668 307.459 22.82 311.947 19.784V39.32Z" fill="white"/>
<path d="M351.547 18.112V6.32001C351.547 6.05602 351.547 6.01201 352.075 5.57201C352.251 5.44002 352.471 5.22001 352.471 5.00001C352.471 4.64802 351.987 4.47201 350.667 4.25201L346.707 3.59201V39.188H351.547V20.092C354.979 21.632 359.027 23.392 364.263 29.376L367.475 24.932C363.163 20.62 358.631 17.584 353.131 15.252L351.547 18.112Z" fill="white"/>
<path d="M411.255 8.69601H382.699V13.536H406.063V29.244H382.699V34.084H406.063V35.844H411.255V8.69601Z" fill="white"/>
<path d="M451.031 11.336C450.063 10.104 448.787 8.69601 446.367 7.33201L444.299 9.35601C446.103 10.632 447.555 11.864 448.787 13.404L451.031 11.336ZM456.399 8.34401C454.331 5.74801 452.659 4.60401 451.603 3.98801L449.667 6.05602C451.647 7.55201 452.967 8.87201 454.155 10.28L456.399 8.34401ZM434.795 18.112V6.32001C434.795 6.05602 434.795 6.01201 435.323 5.57201C435.499 5.44002 435.719 5.22001 435.719 5.00001C435.719 4.64802 435.235 4.47201 433.915 4.25201L429.955 3.59201V39.188H434.795V20.092C438.227 21.632 442.275 23.392 447.511 29.376L450.723 24.932C446.411 20.62 441.879 17.584 436.379 15.252L434.795 18.112Z" fill="white"/>
<path d="M469.247 25.328H474.263V6.49601C474.263 6.23201 475.143 5.39601 475.143 5.17601C475.143 4.78001 474.615 4.69201 473.207 4.60401L469.247 4.38401V25.328ZM487.023 16.968C487.023 29.904 480.643 33.688 474.483 35.844L478.003 40.156C481.919 38.132 490.279 33.776 491.555 22.908C491.907 19.74 492.171 10.148 492.171 6.58401C492.171 5.79201 492.171 5.74801 492.479 5.44001C492.875 5.08801 493.139 4.86802 493.139 4.69201C493.139 4.07601 492.567 4.07601 491.423 4.03201L487.023 3.81202V16.968Z" fill="white"/>
<path d="M513.775 1.39201V8.30001H516.987C516.899 9.35601 516.723 11.688 513.907 12.216V14.944C515.139 14.724 519.715 13.976 519.715 7.86001V1.39201H513.775ZM505.635 1.39201V8.30001H508.847C508.759 9.35601 508.583 11.688 505.767 12.216V14.944C506.999 14.724 511.575 13.976 511.575 7.86001V1.39201H505.635Z" fill="white"/>
<path d="M12.2552 72.712C12.2112 75.792 11.7272 77.992 10.8912 81.688C9.21916 81.908 7.89916 81.996 6.18316 81.996C5.12716 81.996 3.85116 81.952 2.70716 81.732L2.75116 86.704C4.51116 86.66 7.72316 86.44 9.70316 86.352C8.91116 89.344 5.91916 100.036 0.63916 107.34L5.69916 109.1C9.83516 101.18 12.5632 92.952 14.5872 85.604C17.6232 85.076 20.8792 84.24 23.0352 83.184V78.212C20.9672 79.576 17.7112 80.456 15.8632 80.852C16.0832 80.06 17.0512 75.968 17.1392 75.792C17.3152 75.616 17.7992 75.308 17.9752 75.132C18.1072 75 18.1512 74.868 18.1512 74.736C18.1512 74.384 17.3152 74.076 16.8312 73.944L12.2552 72.712ZM33.2872 87.188C32.0552 86.924 30.6472 86.572 27.3912 86.572C26.3352 86.572 21.2752 86.88 20.1312 86.924V91.72C21.1872 91.5 23.2552 91.06 26.0272 91.06C29.2392 91.06 31.9232 91.632 33.2872 91.94V87.188ZM30.9992 78.74C30.0752 77.464 28.7992 75.836 26.7312 74.384L24.6192 76.232C26.1592 77.508 27.4352 78.784 28.7992 80.632L30.9992 78.74ZM33.6392 103.204C30.9112 103.996 28.7112 104.26 25.9392 104.26C20.5272 104.26 19.6032 103.468 19.6032 101.664C19.6032 100.872 19.8232 100.344 19.9552 100.036L15.5992 98.936C15.4232 99.86 15.1152 101.444 15.1152 103.116C15.1152 107.032 17.1832 108.924 26.6432 108.924C30.8672 108.924 32.8472 108.616 33.8592 108.44L33.6392 103.204ZM36.0592 76.408C35.0032 74.428 33.0672 72.844 32.1872 72.184L29.9872 73.988C31.0432 74.868 32.2752 76.012 33.6832 78.124L36.0592 76.408Z" fill="white"/>
<path d="M48.9512 107.56C53.5712 101.796 56.6512 94.58 58.5872 86.748C61.1832 86.308 62.3712 86.264 62.8112 86.264C64.0872 86.264 65.2312 86.66 65.2312 89.696C65.2312 93.172 64.6152 96.208 63.2512 99.728C62.1512 102.676 61.1392 103.116 59.9072 103.116C58.5872 103.116 57.0912 102.588 55.8592 102.192V106.944C56.6072 107.252 57.8392 107.78 59.8192 107.78C65.2752 107.78 66.7272 103.996 67.3872 102.236C67.8712 101.004 69.7632 95.768 69.7632 89.212C69.7632 83.8 67.5632 81.908 63.6032 81.908C62.2832 81.908 60.9632 82.084 59.6432 82.304C59.9512 80.808 60.7872 76.76 60.9192 76.232C61.0512 76.012 61.5792 75.616 61.7552 75.484C61.8432 75.396 61.8432 75.308 61.8432 75.176C61.8432 74.868 61.5792 74.78 60.2592 74.516L55.7712 73.548C55.7712 76.716 55.5512 79.488 54.8912 83.052C51.5472 83.58 48.5992 84.02 45.3432 84.284L46.7512 89.564C49.0392 88.728 50.6232 88.376 53.7912 87.672C51.9432 94.14 48.9512 100.256 44.3752 105.184L48.9512 107.56ZM74.0752 95.988C77.8592 95.196 80.1912 94.36 80.1912 91.676C80.1912 90.796 79.8392 85.78 73.2832 78.036L69.8512 80.5C74.6472 86.704 75.0432 89.3 75.0432 89.916C75.0432 91.016 74.2512 91.148 72.0952 91.456L74.0752 95.988Z" fill="white"/>
<path d="M112.399 77.948C108.395 75.22 104.787 73.68 101.135 72.58L99.2872 76.98C103.203 78.256 106.371 79.62 109.935 82.392L112.399 77.948ZM97.3952 99.332C98.7592 97.66 99.9912 96.164 102.323 94.668C104.303 93.392 107.075 92.204 109.495 92.204C111.299 92.204 114.775 93.26 114.775 97.44C114.775 104.92 103.115 105.14 100.915 105.14C99.4632 105.14 98.1432 105.052 97.2632 105.008L99.1552 109.892C104.831 109.76 119.703 109.32 119.703 97.616C119.703 91.896 115.919 87.892 109.803 87.892C104.699 87.892 100.915 90.488 98.9352 91.808C99.2432 89.608 99.6832 86.66 101.883 81.732L97.4392 79.752C95.4152 84.284 94.5352 88.2 93.4352 96.868L97.3952 99.332Z" fill="white"/>
<path d="M165.419 74.384C154.859 77.156 143.991 78.3 133.123 79.048L134.003 83.932C137.347 83.448 140.031 83.096 143.155 82.612C144.387 82.436 150.503 81.468 151.911 81.336C148.303 84.372 142.583 89.168 142.583 97.044C142.583 100.872 144.783 104.788 149.271 107.252C151.119 108.264 153.363 109.056 157.851 109.716L159.479 104.524C154.859 104.392 147.643 103.6 147.643 96.076C147.643 89.74 153.451 85.076 155.871 83.36C159.787 80.632 162.823 79.928 165.639 79.356L165.419 74.384ZM165.287 90.488C163.307 88.552 161.283 87.32 160.359 86.748L158.643 88.992C160.623 90.268 161.899 91.368 163.307 92.776L165.287 90.488ZM168.587 86.308C166.827 84.592 165.419 83.58 163.967 82.7L162.207 84.68C163.791 85.736 165.419 86.924 166.739 88.42L168.587 86.308Z" fill="white"/>
<path d="M203.171 74.34C200.399 76.364 198.155 77.2 195.295 78.168C195.075 77.552 194.239 74.912 194.239 74.472C194.239 74.296 194.767 73.548 194.767 73.372C194.767 72.888 194.591 72.888 193.139 72.888H188.343C189.003 74.12 190.235 77.42 190.895 79.224C189.223 79.532 186.451 80.016 183.459 80.016C181.743 80.016 180.731 79.884 179.939 79.796L181.347 84.284C185.219 84.284 187.859 84.064 192.391 83.052C193.183 85.076 193.403 85.56 193.931 86.792C192.259 87.188 187.463 88.42 183.239 88.42C181.655 88.42 180.379 88.244 179.455 88.156L181.039 92.512C187.639 92.424 191.159 91.632 195.735 90.532C196.967 92.908 197.715 94.008 198.727 95.328C197.011 94.844 194.767 94.184 191.731 94.184C186.319 94.184 181.743 96.516 181.743 102.104C181.743 107.868 186.891 109.848 195.031 109.848C198.375 109.848 200.707 109.496 202.291 109.232V104.436C199.123 105.052 196.791 105.536 193.711 105.536C190.147 105.536 186.363 104.876 186.363 101.884C186.363 99.288 189.443 97.88 192.215 97.88C193.183 97.88 197.715 97.88 203.039 101.532L206.251 97.88C203.215 94.624 202.203 93.128 200.091 89.212C203.523 88.024 205.283 87.232 207.835 85.912L206.735 81.248C204.227 83.096 201.719 84.196 198.243 85.472C197.363 83.536 197.099 82.876 196.703 81.908C200.003 80.808 201.147 80.324 204.403 78.916L203.171 74.34Z" fill="white"/>
<path d="M225.699 99.596C230.759 94.052 233.971 90.488 240.043 90.488C246.115 90.488 247.127 94.14 247.127 96.648C247.127 100.036 245.323 101.576 243.959 102.72C243.343 101.356 241.363 96.956 235.555 96.956C230.627 96.956 228.691 100.036 228.691 102.896C228.691 108.528 234.763 109.276 237.711 109.276C245.675 109.276 251.835 104.304 251.835 96.692C251.835 92.996 250.163 86.528 241.407 86.528C239.735 86.528 238.547 86.792 237.755 87.012C242.331 81.776 244.795 79.004 247.479 77.024L245.455 73.548C241.583 75.176 233.795 75.836 231.287 75.836C230.055 75.836 227.943 75.704 226.711 75.616L227.459 80.676C232.123 80.368 233.487 80.236 237.931 79.664C233.531 85.912 227.987 91.236 221.959 95.944L225.699 99.596ZM239.911 104.744C239.383 104.92 238.371 105.184 237.183 105.184C235.291 105.184 232.959 104.436 232.959 102.764C232.959 101.664 234.103 100.696 235.511 100.696C238.723 100.696 239.515 103.424 239.911 104.744Z" fill="white"/>
<path d="M279.247 75.88H273.043L260.415 96.34V100.916H273.923V108H279.247V100.916H283.559V96.34H279.247V75.88ZM265.035 96.34L273.923 81.908V96.34H265.035Z" fill="white"/>
<path d="M304.444 106.592C311.264 104.92 314.08 103.996 317.556 101.664C321.076 99.244 323.584 95.152 323.584 90.224C323.584 84.02 319.316 78.696 312.1 78.696C308.58 78.696 307.392 79.136 297.272 82.612C292.608 84.24 289.352 84.812 287.46 85.164L289.88 90.224C291.904 89.608 293.356 89.168 297.184 87.716C306.952 83.932 308.668 83.272 311.528 83.272C315.708 83.272 318.7 86.132 318.7 90.136C318.7 97.352 311.308 100.564 301.628 101.4L304.444 106.592Z" fill="white"/>
<path d="M354.692 108.572C357.992 107.34 367.892 103.644 367.892 91.324C367.892 82.084 361.468 75.528 351.304 75.528C340.128 75.528 332.34 84.064 332.34 93.744C332.34 102.544 338.676 106.416 341.404 106.416C344 106.416 346.112 101.62 346.552 100.608C350.248 92.292 351.304 84.9 352.008 79.708C354.604 80.104 362.964 81.336 362.964 91.28C362.964 101.312 354.164 103.732 351.392 104.524L354.692 108.572ZM347.036 80.192C346.596 86.088 345.144 91.94 342.812 97.396C342.24 98.716 341.448 100.52 340.48 100.52C338.94 100.52 336.696 97.66 336.696 93.744C336.696 90.708 337.796 83.36 347.036 80.192Z" fill="white"/>
<path d="M401.64 75.66C400.056 81.556 397.856 85.164 396.36 87.628C393.896 85.34 392.18 83.976 389.54 82.216L386.416 86.132C389.364 88.156 391.52 90.092 393.28 91.764C386.768 99.464 380.212 101.928 378.188 102.676L382.368 106.9C385.316 105.36 391.256 102.104 396.888 95.548C397.636 96.384 399.968 99.112 401.42 101.972L405.292 98.188C403.62 95.768 402.08 93.876 400.012 91.456C402.828 87.144 403.268 86.132 405.6 80.28C405.776 79.884 405.82 79.84 406.744 79.576C407.228 79.444 407.404 79.312 407.404 79.092C407.404 78.652 406.964 78.432 405.908 77.86L401.64 75.66Z" fill="white"/>
<path d="M426.456 95.328H431.472V76.496C431.472 76.232 432.352 75.396 432.352 75.176C432.352 74.78 431.824 74.692 430.416 74.604L426.456 74.384V95.328ZM444.232 86.968C444.232 99.904 437.852 103.688 431.692 105.844L435.212 110.156C439.128 108.132 447.488 103.776 448.764 92.908C449.116 89.74 449.38 80.148 449.38 76.584C449.38 75.792 449.38 75.748 449.688 75.44C450.084 75.088 450.348 74.868 450.348 74.692C450.348 74.076 449.776 74.076 448.632 74.032L444.232 73.812V86.968Z" fill="white"/>
<path d="M469.18 91.676C467.64 87.496 466.276 85.648 465.66 84.856L462.14 86.308C463.548 88.376 464.648 90.312 465.572 92.996L469.18 91.676ZM477.276 89.916C476.44 87.276 475.516 85.032 473.976 82.744L470.632 84.152C471.952 86.264 472.964 88.288 473.668 91.104L477.276 89.916ZM470.72 108.66C483.304 102.676 485.812 92.776 487.572 86.22C487.66 85.824 487.748 85.692 488.1 85.472C488.364 85.296 488.628 85.12 488.628 84.856C488.628 84.592 488.32 84.46 487.308 84.152L483.964 83.14C481.676 94.712 477.804 101.356 467.376 105.58L470.72 108.66Z" fill="white"/>
<path d="M509.396 88.112V76.32C509.396 76.056 509.396 76.012 509.924 75.572C510.1 75.44 510.32 75.22 510.32 75C510.32 74.648 509.836 74.472 508.516 74.252L504.556 73.592V109.188H509.396V90.092C512.828 91.632 516.876 93.392 522.112 99.376L525.324 94.932C521.012 90.62 516.48 87.584 510.98 85.252L509.396 88.112Z" fill="white"/>
</svg>
