<svg fill="none" height="38" viewBox="0 0 472 38" width="472" xmlns="http://www.w3.org/2000/svg" xmlns:xlink="http://www.w3.org/1999/xlink"><filter id="a" color-interpolation-filters="sRGB" filterUnits="userSpaceOnUse" height="35.1836" width="38.8977" x=".713379" y=".669434"><feFlood flood-opacity="0" result="BackgroundImageFix"/><feColorMatrix in="SourceAlpha" type="matrix" values="0 0 0 0 0 0 0 0 0 0 0 0 0 0 0 0 0 0 127 0"/><feOffset dy="-2"/><feColorMatrix type="matrix" values="0 0 0 0 1 0 0 0 0 1 0 0 0 0 1 0 0 0 1 0"/><feBlend in2="BackgroundImageFix" mode="normal" result="effect1_dropShadow"/><feColorMatrix in="SourceAlpha" type="matrix" values="0 0 0 0 0 0 0 0 0 0 0 0 0 0 0 0 0 0 127 0"/><feOffset dy="2"/><feColorMatrix type="matrix" values="0 0 0 0 1 0 0 0 0 1 0 0 0 0 1 0 0 0 1 0"/><feBlend in2="effect1_dropShadow" mode="normal" result="effect2_dropShadow"/><feBlend in="SourceGraphic" in2="effect2_dropShadow" mode="normal" result="shape"/></filter><g fill="#333"><path d="m77.0618 15.152h-8.684v-2.938c0-.312 0-.494.26-.624.546-.26.624-.312.624-.468 0-.234-.286-.26-.702-.286l-3.094-.156c.026.65.078 3.744.078 4.472h-8.45v18.07h2.704v-15.418h5.72c-.806 4.94-3.822 7.358-5.122 8.32l2.054 2.184c1.742-1.56 3.562-3.51 4.706-6.162.468 1.066 1.248 2.86 4.628 6.032l2.106-1.976c-4.394-3.432-5.174-6.474-5.486-8.398h5.928v11.596c0 1.144-.884 1.144-1.248 1.144-.156 0-1.482-.052-1.69-.052l.858 2.73c3.822 0 4.81 0 4.81-2.938z"/><path d="m94.3778 18.116h-4.3941v-1.014h5.278v-1.69h-5.278v-1.04h4.836v-1.794h-4.836v-.65c0-.078 0-.182.156-.26.39-.234.442-.26.442-.39 0-.26-.312-.286-.494-.286l-2.392-.104v1.69h-1.8979c.234-.364.234-.416.312-.442.182-.104.312-.156.312-.312s-.234-.26-.442-.312l-2.0281-.52c-.182.78-.9099 2.418-2.0019 3.51l1.8459.91h-1.4299v1.69h5.3299v1.014h-4.1599v5.018h2.158v-3.198h2.0019v3.276h2.288v-3.276h2.236v.78c0 .442-.182.624-.65.624h-.936l.468 1.924h.624c.676 0 .728-.026 1.1181-.104v.728h-10.556v2.314h7.54c-1.95 1.092-5.018 2.132-7.9561 2.73l1.4041 2.314c2.418-.884 3.354-1.248 5.512-2.132v1.794c-2.184.338-2.886.364-3.432.364l.338 2.34c.078.468.104.702.338.702.104 0 .208-.052.286-.156.416-.494.468-.494 1.04-.624 2.678-.572 5.382-1.144 8.034-1.768l.208-2.236c-2.2361.494-3.2761.728-4.576.962v-2.366c.858-.442 1.6639-.858 2.3919-1.352 3.146 3.64 6.5781 5.382 9.3863 6.422l1.898-2.08c-.806-.234-2.106-.572-4.602-1.768.26-.26 1.43-1.326 1.69-1.482.104-.052.442-.078.728-.078.078 0 .208-.026.208-.156 0-.156-.078-.234-.312-.416l-1.43-1.014h3.614v-2.314h-9.1523v-.65c0-.13.0521-.182.442-.416.0781-.052.156-.13.156-.234 0-.13-.104-.312-.52-.338l-1.326-.078c.13-.26.1821-.442.1821-.884zm1.716 2.236h2.5219v-7.072c0-.13.0001-.26.1301-.364.286-.26.312-.286.312-.364 0-.182-.1821-.234-.5461-.26l-2.4179-.156zm-12.168-4.94c.156-.208.312-.416.702-1.04h3.0679v1.04zm15.86 10.79c-.572.754-.9101 1.144-1.6901 1.95-1.3-.936-1.846-1.508-2.262-1.95zm1.0402-15.444v9.438c0 .702-.208.702-2.0802.702l.9879 2.6c2.6263-.104 3.6923-.234 3.6923-2.782v-8.71c0-.156 0-.286.182-.39.364-.234.416-.26.416-.442 0-.234-.182-.312-.624-.338z"/><path d="m128.776 12.136c-6.24 1.638-12.662 2.314-19.084 2.756l.52 2.886c1.976-.286 3.562-.494 5.408-.78.728-.104 4.342-.676 5.174-.754-2.132 1.794-5.512 4.628-5.512 9.282 0 2.262 1.3 4.576 3.952 6.032 1.092.598 2.418 1.066 5.07 1.456l.962-3.068c-2.73-.078-6.994-.546-6.994-4.992 0-3.744 3.432-6.5 4.862-7.514 2.314-1.612 4.108-2.028 5.772-2.366zm-.078 9.516c-1.17-1.144-2.366-1.872-2.912-2.21l-1.014 1.326c1.17.754 1.924 1.404 2.756 2.236zm1.95-2.47c-1.04-1.014-1.872-1.612-2.73-2.132l-1.04 1.17c.936.624 1.898 1.326 2.678 2.21z"/><path d="m139.722 11.122c-.962 2.964-2.834 6.578-5.304 9.412l2.054 1.924c.806-.962 1.144-1.508 1.456-1.976v12.792h2.652v-15.574c0-.13 0-.208.208-.364.442-.364.494-.416.494-.546 0-.208-.39-.416-.806-.598.702-1.352 1.352-2.6 1.612-3.224.104-.182.156-.286.312-.364.52-.26.598-.312.598-.494 0-.104 0-.234-.546-.364zm5.642-.078c-.806 3.562-2.548 6.708-4.732 9.204l2.314 1.534c.572-.702 1.404-1.716 2.886-4.654h1.092v16.146h2.626v-5.252h7.02v-2.6h-7.02v-2.86h6.214v-2.6h-6.214v-2.834h7.384v-2.366h-9.932c.208-.494.962-2.236 1.248-2.366.234-.104.442-.208.442-.312 0-.156-.234-.312-.546-.39z"/><path d="m171.13 31.454c2.47-.468 9.178-1.794 9.178-7.618 0-3.25-2.444-5.434-5.538-5.434-1.664 0-2.184.182-6.864 1.768-1.482.494-3.042.832-4.576.988l1.118 2.444c1.196-.234 2.756-.754 4.004-1.248 3.276-1.274 4.472-1.716 6.006-1.716 1.508 0 3.432 1.066 3.432 3.224 0 1.404-.78 4.654-8.06 5.2z"/><path d="m207.738 12.136c-7.722 1.924-16.978 2.236-19.058 2.288l.442 2.886c1.508-.156 8.84-.988 10.504-1.17-2.392 1.924-5.616 4.524-5.616 8.996 0 6.188 7.124 7.488 8.892 7.8l.962-3.068c-1.95-.156-6.89-.572-6.89-4.888 0-3.978 4.29-8.866 10.894-9.906z"/><path d="m230.384 16.998c-.182 2.08-.572 3.822-.988 5.278-2.314-1.014-3.952-1.404-4.914-1.638.572-1.196 2.626-5.538 3.77-6.994l-1.612-1.95c-1.456.806-3.64 1.144-5.616 1.144-.78 0-1.326-.052-1.69-.078l.65 2.782c1.95 0 3.666-.39 4.03-.468-.832 2.106-1.56 3.692-2.288 5.304-2.73.052-4.004.806-4.706 1.326-1.43 1.066-2.808 2.964-2.808 5.122 0 2.054 1.508 3.458 3.12 3.458 2.106 0 2.964-1.664 5.98-7.358 2.106.39 3.952 1.3 5.174 1.976-.702 1.69-2.366 4.992-5.642 5.902l2.574 2.002c3.042-1.742 4.628-4.81 5.356-6.474 1.482 1.118 2.21 1.742 2.73 2.21l1.794-2.938c-1.482-.988-2.314-1.482-3.432-2.106.624-1.924.884-3.276 1.04-4.134.052-.364.078-.364.39-.52.13-.052.286-.13.286-.338s-.156-.338-.676-.546zm-9.88 5.902c-.728 1.456-1.56 2.964-1.924 3.536-.234.364-.52.806-1.014.806-.468 0-.728-.494-.728-.91 0-.754.598-2.808 3.666-3.432z"/><path d="m247.752 11.018c0 1.3-.156 2.366-.832 5.252-.494.052-1.274.13-2.262.13-1.17 0-1.898-.104-2.522-.208l.13 2.938c1.664-.026 2.496-.078 3.978-.208-.624 2.236-2.21 7.696-5.356 12.402l2.964 1.118c1.378-2.86 3.224-6.708 5.33-13.91 2.002-.39 3.51-.754 5.07-1.456l-.104-2.886c-.65.39-1.508.91-4.186 1.56.104-.39.702-2.912.78-3.016.052-.078.416-.286.494-.364s.078-.208.078-.26c0-.182-.598-.364-.806-.416zm12.454 8.45c-.442-.104-1.118-.286-3.484-.286-.598 0-3.614.104-4.29.13v2.834c1.508-.364 3.198-.39 3.562-.39 1.352 0 2.912.26 4.212.52zm.13 9.49c-.78.234-2.21.624-4.81.624-2.886 0-3.432-.624-3.432-1.612 0-.442.13-.728.234-.962l-2.678-.65c-.182.754-.286 1.612-.286 2.392 0 2.808 2.054 3.588 6.89 3.588.858 0 2.886 0 4.212-.286z"/><path d="m272.452 31.142c.208-2.73.806-4.264 1.404-5.876l-1.768-1.118c-.676 1.508-.832 2.054-.962 2.522-.286-1.014-.598-2.08-.598-4.316 0-4.446 1.066-8.034 1.456-8.71.078-.104.572-.416.572-.52 0-.234-.416-.39-.728-.468l-2.522-.65c-.104.598-.156.806-.494 2.418-.572 2.756-.858 5.486-.858 7.462 0 3.328.78 6.994 2.002 9.854zm3.094-10.686c2.184.052 3.432-.026 5.564-.39.026.572.078 1.482.078 2.444 0 5.512-1.768 7.228-3.978 9.36l2.756 1.534c2.106-2.626 3.874-5.044 3.874-10.842 0-1.066-.078-2.626-.104-3.068 2.912-.78 3.25-.858 3.51-.884l-.104-2.886c-1.404.572-2.002.78-3.51 1.222-.078-1.508-.104-2.21-.104-2.886 0-.832 0-1.118.078-1.248.052-.078.364-.442.364-.546 0-.286-.52-.338-.91-.364l-2.86-.208c.39 1.976.65 4.966.728 5.85-1.17.182-2.08.312-3.198.312-.806 0-1.56-.052-2.704-.234z"/><path d="m311.01 13.93c-.52-.91-1.248-2.08-1.976-2.808l-1.352.988c.65.806 1.378 1.716 1.898 2.756zm3.042-1.404c-.312-.546-1.118-1.898-2.054-2.54797l-1.3.88397c.806.806 1.378 1.586 1.976 2.626zm-3.172 16.536c-1.976.39-4.992.988-7.982.988-2.106 0-4.966-.156-4.966-2.626 0-3.952 7.696-6.448 13.104-8.034l-.832-3.12c-1.092.494-6.032 2.6-7.02 3.042-1.196-.494-1.482-1.144-1.482-4.056 0-1.534.026-2.808.078-4.134l-3.354.442c.156 1.664.572 6.344.936 7.462.312.988.832 1.378 1.222 1.638-3.978 2.34-5.382 4.186-5.382 6.76 0 5.278 5.564 5.278 7.618 5.278 2.678 0 5.382-.182 8.06-.364z"/><path d="m323.62 10.602v2.912h-4.888v2.444h12.298v-2.444h-4.602v-1.742c0-.13.65-.65.65-.806 0-.182-.182-.234-.832-.26zm7.02 5.772v2.652h2.912c-.832 7.566-3.094 10.582-6.942 13.052l2.366 1.846c3.51-2.912 6.084-5.616 7.124-14.898h2.132c-.026 3.016-.182 5.824-.624 8.788-.312 2.08-.442 3.068-2.626 3.068-.494 0-1.248-.078-1.612-.13l1.17 2.886c2.782-.182 4.732-.338 5.356-3.458.624-3.172.91-10.27.936-13.806h-4.628v-4.03c0-.338.052-.364.364-.598.208-.156.234-.182.234-.312 0-.26-.52-.312-.754-.312l-2.418-.078v5.33zm-4.81 1.612c1.118 1.014 2.522 2.366 3.796 4.238l1.898-1.534c-1.04-1.534-2.236-2.782-3.796-4.16zm-3.276-1.534c-1.352 1.612-2.6 2.704-4.446 3.874l2.106 1.69c1.43-1.144 2.184-1.898 3.354-3.276.234-.286.494-.572.702-.598.52-.078.572-.078.572-.234 0-.182-.364-.468-.78-.676zm-1.768 6.214c.884.91 2.288 2.704 2.704 3.224-1.482 2.08-2.912 3.796-5.538 5.824l2.106 1.69c2.34-1.95 3.51-3.224 5.044-5.278.442.624.962 1.404 1.69 2.704l2.106-1.742c-.416-.702-1.352-2.054-2.262-3.354.494-.936.754-1.43 1.222-2.678.052-.13.182-.442.39-.468.442-.104.546-.13.546-.312 0-.208-.312-.442-.494-.52l-2.21-.988c-.416 1.118-.754 1.846-1.196 2.73-.988-1.196-1.456-1.742-2.132-2.366z"/><path d="m353.208 25.032c-1.872 1.872-4.472 4.108-8.45 5.642l2.028 2.158c3.822-2.158 5.226-3.094 7.8-5.616v6.214h2.522v-6.214c2.158 2.47 3.302 3.38 7.254 5.694l1.898-2.262c-3.458-1.56-5.59-2.86-8.138-5.616h8.866v-2.366h-9.88v-1.638h6.916v-9.62h-16.328v9.62h6.89v1.638h-9.906v2.366zm1.378-9.854h-4.29v-1.69h4.29zm2.522 0v-1.69h4.342v1.69zm0 1.95h4.342v1.794h-4.342zm-2.522 0v1.794h-4.29v-1.794z"/><path d="m374.398 32.286c2.704-3.692 4.186-8.086 5.096-12.558.286-.052 1.95-.416 2.6-.416 1.326 0 1.404 1.274 1.404 2.834 0 2.99-.962 5.46-1.118 5.798-.416.962-.858 1.43-1.794 1.43-.702 0-1.43-.208-2.262-.442l.13 2.808c.442.156 1.066.39 2.08.39 3.458 0 4.264-2.47 4.602-3.484.26-.78 1.04-3.458 1.04-6.734 0-2.652-.416-5.174-3.484-5.174-.962 0-1.976.208-2.678.338.156-.884.364-2.392.546-3.588.026-.078.364-.312.416-.39.052-.052.13-.13.13-.26 0-.208-.104-.208-.988-.364l-2.652-.442c.078 1.898.026 3.406-.26 5.642-3.406.676-3.796.754-5.59.988l.962 3.094c1.144-.494 2.08-.78 4.134-1.326-.91 3.9-2.548 7.592-5.096 10.608zm18.174-16.718c-.624-.884-1.378-1.846-2.314-2.756l-1.404 1.04c.988 1.04 1.586 1.846 2.158 2.756zm2.444-1.482c-.702-1.222-1.3-1.976-2.054-2.678l-1.378 1.014c.91.988 1.404 1.716 1.95 2.6zm-6.318 10.894c1.794-.494 3.484-.962 3.484-2.6 0-.572-.286-3.432-4.498-7.904l-1.924 1.456c3.224 3.77 3.328 5.304 3.328 5.486 0 .572-.468.676-1.69.936z"/><path d="m415.608 23.108v5.98h-5.902v-7.41h7.722v-7.878c0-.156 0-.26.26-.364.39-.156.546-.26.546-.442 0-.234-.312-.234-.702-.26l-2.834-.156v6.5h-4.992v-6.786c0-.156.052-.312.182-.39.312-.182.468-.312.468-.442 0-.234-.234-.312-.572-.312l-2.808-.104v8.034h-5.096v-5.486c0-.156 0-.208.156-.312.208-.156.364-.286.364-.416 0-.182-.312-.26-.468-.26l-2.808-.104v9.178h7.852v7.41h-5.85v-4.732c0-.104.026-.234.13-.312.234-.182.364-.312.364-.442 0-.286-.442-.286-.754-.312l-2.444-.13v10.062h2.704v-1.534h14.482v1.534h2.704v-9.022c0-.156-.026-.26.13-.364.208-.156.312-.26.312-.39 0-.234-.182-.26-.494-.26z"/><path d="m443.246 30.102c-1.118-.962-2.366-1.872-4.238-2.808 0-.546-.104-3.276-.104-3.9 0-.728 0-1.144 1.222-2.158l-2.574-1.56c-.78.676-1.3 1.326-1.3 3.068 0 .52.078 3.016.104 3.588-.494-.13-1.3-.312-2.418-.312-2.574 0-4.394 1.638-4.394 3.666 0 2.34 2.314 3.796 5.2 3.796 3.614 0 4.108-1.976 4.316-3.068.884.598 1.612 1.17 2.47 2.028zm-6.864-1.066c-.052.728-.13 2.002-2.002 2.002-.728 0-2.288-.26-2.288-1.378 0-.286.156-1.248 1.664-1.248.806 0 1.482.208 2.626.624zm-3.952-18.382c-.338 1.638-.832 3.224-1.326 4.758-.728.052-1.404.104-2.132.104-.988 0-1.898-.104-2.47-.156l.13 2.756c1.066-.026 2.47-.078 3.536-.13-1.326 3.406-2.938 6.682-5.356 9.386l2.886 1.352c.156-.26 3.562-5.98 5.408-10.946 1.846-.208 3.042-.442 4.108-.728l.182-2.938c-.624.312-1.378.546-3.354.936.156-.468.832-2.47 1.066-2.626.13-.078.572-.364.572-.442 0-.234-.546-.416-.832-.52zm12.428 8.268c-1.222-.988-3.094-2.262-5.85-2.964l-1.404 2.054c1.716.572 4.16 1.638 5.694 3.146z"/><path d="m458.43 23.888c-.624 1.508-1.716 3.926-2.626 3.926-.832 0-1.924-1.716-1.924-5.226 0-3.328 1.092-6.292 1.3-6.448.338-.26.52-.39.52-.546 0-.234-.442-.442-.702-.572l-2.782-1.274c-.104.572-.624 3.016-.728 3.536-.26 1.248-.494 2.912-.494 4.732 0 5.2 1.95 9.36 4.524 9.36 1.56 0 3.016-1.3 5.07-5.642zm13.208 2.938c-.312-3.484-1.326-8.034-3.822-11.544l-2.782 1.17c1.248 1.794 3.25 5.2 3.406 10.79z"/></g><path clip-rule="evenodd" d="m32 10h-26v26h26zm-28-2v30h30v-30z" fill="#4d4d4d" fill-rule="evenodd"/><g filter="url(#a)"><path clip-rule="evenodd" d="m39.611 7.33075-23.6733 26.52225-15.224321-13.1369 4.573071-5.2997 10.01275 8.6399 19.0896-21.38687z" fill="#f6ca2b" fill-rule="evenodd"/></g></svg>