<svg fill="none" height="96" viewBox="0 0 632 96" width="632" xmlns="http://www.w3.org/2000/svg"><g fill="#fff"><path clip-rule="evenodd" d="m293.583 80.9177h-250.583v-1.8357h251.076l24.04 13.9008 24.058-13.9008h251.076v1.8357h-250.583l-24.551 14.1854z" fill-rule="evenodd"/><path d="m.0180664 27.6081h15.8340336v9.744h4.494v-9.744h15.876v-4.032h-15.876v-3.528h11.256v-17.97596h-27.42603v17.97596h11.67603v3.528h-15.8340336zm27.2160336-18.47996h-18.69003v-3.10801h18.69003zm0 6.92996h-18.69003v-3.402h18.69003z"/><path d="m70.5781 34.6221c-3.276-4.326-7.182-8.988-14.112-14.028-1.806-1.302-2.016-1.428-2.016-1.932 0-.714 1.68-2.142 2.814-3.066 3.906-3.318 8.148-6.88796 11.298-10.45796.336-.378.378-.378.966-.462.42-.084.588-.25201.588-.42001 0-.29399-.084-.37799-1.008-1.17599l-3.444-2.940003c-2.646 4.368003-9.114 10.457963-10.332 11.591963-.672.63-3.822 3.318-4.41 3.948-1.008 1.008-1.344 2.016-1.344 3.024 0 2.058.798 2.73 5.334 6.51 6.468 5.418 10.332 10.878 11.718 12.81z"/><path d="m85.1101 30.9261c2.898 2.058 4.704 3.402 6.72 6.72l3.192-3.192c-1.26-1.638-3.696-4.242-8.274-5.922z"/><path d="m141.684 1.10614c0 2.1-.252 3.822-1.344 8.484-.798.084-2.058.21-3.654.21-1.89 0-3.066-.16801-4.074-.33601l.21 4.74597c2.688-.042 4.032-.126 6.426-.336-1.008 3.612-3.57 12.432-8.652 20.034l4.788 1.806c2.226-4.62 5.208-10.836 8.61-22.47 3.234-.63 5.67-1.218 8.19-2.352l-.168-4.66197c-1.05.63-2.436 1.47001-6.762 2.52001.168-.63 1.134-4.704 1.26-4.872.084-.126.672-.462.798-.58801.126-.12599.126-.33599.126-.41999 0-.294-.966-.58801-1.302-.672zm20.118 13.64996c-.714-.168-1.806-.462-5.628-.462-.966 0-5.838.168-6.93.21v4.578c2.436-.588 5.166-.63 5.754-.63 2.184 0 4.704.42 6.804.84zm.21 15.33c-1.26.378-3.57 1.008-7.77 1.008-4.662 0-5.544-1.008-5.544-2.604 0-.714.21-1.176.378-1.554l-4.326-1.05c-.294 1.218-.462 2.604-.462 3.864 0 4.536 3.318 5.796 11.13 5.796 1.386 0 4.662 0 6.804-.462z"/><path d="m199.098 34.6221c-3.276-4.326-7.182-8.988-14.112-14.028-1.806-1.302-2.016-1.428-2.016-1.932 0-.714 1.68-2.142 2.814-3.066 3.906-3.318 8.148-6.88796 11.298-10.45796.336-.378.378-.378.966-.462.42-.084.588-.25201.588-.42001 0-.29399-.084-.37799-1.008-1.17599l-3.444-2.940003c-2.646 4.368003-9.114 10.457963-10.332 11.591963-.672.63-3.822 3.318-4.41 3.948-1.008 1.008-1.344 2.016-1.344 3.024 0 2.058.798 2.73 5.334 6.51 6.468 5.418 10.332 10.878 11.718 12.81z"/><path d="m228.54 2.03014c.966 2.478 2.604 6.594 2.898 7.35-5.124 1.25996-8.232 1.38596-9.744 1.38596-1.176 0-2.226-.084-2.982-.126l2.226 4.662c5.67-.294 8.736-1.092 12.18-2.016 1.512 3.066 2.394 4.62 4.242 6.888-2.772-.798-3.612-1.05-5.67-1.05-5.334 0-10.164 3.024-10.164 8.736 0 6.678 5.712 8.82 14.448 8.82 1.974 0 3.696-.126 4.746-.21l-.63-4.662c-2.982.336-3.528.42-5.292.42-4.452 0-8.652-.504-8.652-4.494 0-3.948 4.41-4.41 6.258-4.41 4.578 0 7.98 2.436 9.66 3.654l3.192-4.242c-3.612-3.276-5.46-5.796-8.022-10.752 3.276-1.176 5.334-2.05796 7.35-3.10796l-2.562-4.074c-2.142 1.554-4.032 2.31-6.468 3.276-1.344-3.78-1.512-5.376-1.512-5.418 0-.168.42-.96601.42-1.13401 0-.25199-.252-.33599-.42-.33599-.126 0-1.176.21-1.428.25199z"/><path d="m263.232 34.7901c1.218-3.738 2.898-7.602 5.124-10.332 2.058-2.562 5.04-3.822 6.678-3.822.882 0 1.89.336 1.89 2.478 0 1.176-1.008 6.342-1.008 7.392 0 1.134.63 4.914 5.46 4.914 4.914 0 8.19-3.612 11.13-7.056l-2.562-3.948c-1.302 1.764-4.536 6.048-7.812 6.048-1.386 0-1.596-1.092-1.596-1.806 0-1.26 1.092-6.72 1.092-7.854 0-1.008-.252-4.662-4.62-4.662-2.52 0-4.704 1.092-5.922 1.764 2.142-3.78 6.51-11.46596 7.308-11.92797.126-.08399.84-.29399.966-.33599.21-.084.252-.252.252-.336 0-.336-.714-.756-1.176-1.05001l-4.158-2.43599c-2.352 5.754-5.082 10.79396-9.408 18.81596-2.352 4.326-4.914 9.114-6.72 13.146z"/><path d="m299.31 30.9261c2.898 2.058 4.704 3.402 6.72 6.72l3.192-3.192c-1.26-1.638-3.696-4.242-8.274-5.922z"/><path d="m378.564 19.5021v-3.822h-18.942c.336-.63 1.848-3.612 2.142-3.948.126-.168 1.302-.84 1.302-1.092 0-.21-.084-.252-.798-.588l-3.696-1.76396h14.616v4.82996h4.578v-8.52596h-14.532v-1.30201c0-.33599 0-.50399.294-.756.294-.29399.546-.588.546-.84 0-.378-.336-.37799-1.05-.41999l-4.326-.252v3.57h-14.658v8.52596h4.2v-4.82996h9.87c-.672 2.51996-2.394 5.66996-3.36 7.39196h-11.886v3.822h9.744c-3.108 5.208-4.074 6.342-4.956 7.35l4.41 1.848c.294-.462.966-1.47 1.302-2.142 2.73.84 4.284 1.428 5.754 2.1-5.334 3.15-9.534 4.158-15.246 4.326l2.268 4.2c7.56-1.134 11.97-2.604 17.178-6.384 3.234 1.806 5.544 3.234 8.946 6.258l3.654-3.318c-3.234-2.478-5.628-3.948-9.324-6.006 2.268-2.604 2.52-3.108 4.998-8.232zm-11.928 0c-1.008 2.73-2.016 4.242-4.116 6.426-2.226-.924-3.528-1.47-7.35-2.268.924-1.512 1.344-2.226 2.31-4.158z"/><path d="m413.298 34.6221c-3.276-4.326-7.182-8.988-14.112-14.028-1.806-1.302-2.016-1.428-2.016-1.932 0-.714 1.68-2.142 2.814-3.066 3.906-3.318 8.148-6.88796 11.298-10.45796.336-.378.378-.378.966-.462.42-.084.588-.25201.588-.42001 0-.29399-.084-.37799-1.008-1.17599l-3.444-2.940003c-2.646 4.368003-9.114 10.457963-10.332 11.591963-.672.63-3.822 3.318-4.41 3.948-1.008 1.008-1.344 2.016-1.344 3.024 0 2.058.798 2.73 5.334 6.51 6.468 5.418 10.332 10.878 11.718 12.81z"/><path d="m436.734 1.27414c-1.554 4.788-4.578 10.62596-8.568 15.20396l3.318 3.108c1.302-1.554 1.848-2.436 2.352-3.192v20.664h4.284v-25.158c0-.21 0-.336.336-.588.714-.588.798-.672.798-.882 0-.336-.63-.67196-1.302-.96597 1.134-2.184 2.184-4.19999 2.604-5.208.168-.29399.252-.46199.504-.58799.84-.42.966-.504.966-.798 0-.168 0-.37801-.882-.588zm9.114-.126c-1.302 5.754-4.116 10.83596-7.644 14.86796l3.738 2.478c.924-1.134 2.268-2.772 4.662-7.518h1.764v26.082h4.242v-8.484h11.34v-4.2h-11.34v-4.62h10.038v-4.2h-10.038v-4.578h11.928v-3.82196h-16.044c.336-.798 1.554-3.612 2.016-3.822.378-.168.714-.336.714-.504 0-.252-.378-.50401-.882-.63z"/><path d="m485.706 9.21214c.168-1.84801.378-4.62.714-5.376.042-.168.756-.714.756-.924 0-.294-.042-.46201-1.428-.714l-4.242-.798c.252 1.09199.504 2.604.504 4.956 0 1.26-.042 2.562-.168 4.07396-3.15 1.302-4.998 1.848-8.148 2.184l1.848 4.788c3.192-1.134 4.62-1.68 5.922-2.226-.168 2.604-.21 2.898-.252 3.402-2.772 5.04-5.796 8.274-7.77 10.29l4.41 2.856c1.428-2.478 2.898-4.788 3.15-5.208-.042 2.604-.168 7.056-.42 9.996l4.872-.168c-.504-5.208-.42-12.768-.336-15.75 1.764-2.142 6.678-7.728 8.988-7.728.63 0 1.764.63 1.764 2.982 0 .378-1.176 10.794-1.176 12.852 0 4.158 2.1 5.922 4.536 5.922 1.89 0 4.83-.882 7.602-3.78l-1.428-4.788c-1.974 2.268-3.402 3.486-4.662 3.486-1.638 0-1.638-2.31-1.638-2.688 0-1.344.126-2.898.588-6.468.714-5.334.756-5.796.756-6.93 0-3.066-1.848-5.33396-4.62-5.33396-1.638 0-2.898.588-5.292 2.39396-.588.42-3.108 2.73-3.738 3.234.252-.504 1.554-2.814 1.848-3.318l-1.89-1.84796z"/><path d="m520.692 26.9781c4.83-5.292 7.896-8.694 13.692-8.694s6.762 3.486 6.762 5.88c0 3.234-1.722 4.704-3.024 5.796-.588-1.302-2.478-5.502-8.022-5.502-4.704 0-6.552 2.94-6.552 5.67 0 5.376 5.796 6.09 8.61 6.09 7.602 0 13.482-4.746 13.482-12.012 0-3.528-1.596-9.702-9.954-9.702-1.596 0-2.73.252-3.486.462 4.368-4.99796 6.72-7.64396 9.282-9.53396l-1.932-3.318c-3.696 1.554-11.13 2.184-13.524 2.184-1.176 0-3.192-.126-4.368-.21001l.714 4.83001c4.452-.294 5.754-.42001 9.996-.96601-4.2 5.96397-9.492 11.04597-15.246 15.53997zm13.566 4.914c-.504.168-1.47.42-2.604.42-1.806 0-4.032-.714-4.032-2.31 0-1.05 1.092-1.974 2.436-1.974 3.066 0 3.822 2.604 4.2 3.864z"/><path d="m562.818 34.5801c4.41-5.502 7.35-12.39 9.198-19.866 2.478-.42 3.612-.462 4.032-.462 1.218 0 2.31.378 2.31 3.276 0 3.318-.588 6.216-1.89 9.576-1.05 2.814-2.016 3.234-3.192 3.234-1.26 0-2.688-.504-3.864-.882v4.536c.714.294 1.89.798 3.78.798 5.208 0 6.594-3.612 7.224-5.292.462-1.176 2.268-6.174 2.268-12.432 0-5.166-2.1-6.972-5.88-6.972-1.26 0-2.52.168-3.78.378.294-1.42797 1.092-5.29196 1.218-5.79596.126-.21.63-.58801.798-.714.084-.08401.084-.168.084-.294 0-.294-.252-.37801-1.512-.63l-4.284-.924c0 3.024-.21 5.67-.84 9.07196-3.192.504-6.006.924-9.114 1.176l1.344 5.04c2.184-.798 3.696-1.134 6.72-1.806-1.764 6.174-4.62 12.012-8.988 16.716zm23.982-11.046c3.612-.756 5.838-1.554 5.838-4.116 0-.84-.336-5.628-6.594-13.01996l-3.276 2.352c4.578 5.92196 4.956 8.39996 4.956 8.98796 0 1.05-.756 1.176-2.814 1.47z"/><path d="m624.222 6.31414c-3.822-2.60401-7.266-4.074-10.752-5.124l-1.764 4.2c3.738 1.218 6.762 2.52 10.164 5.16596zm-14.322 20.41196c1.302-1.596 2.478-3.024 4.704-4.452 1.89-1.218 4.536-2.352 6.846-2.352 1.722 0 5.04 1.008 5.04 4.998 0 7.14-11.13 7.35-13.23 7.35-1.386 0-2.646-.084-3.486-.126l1.806 4.662c5.418-.126 19.614-.546 19.614-11.718 0-5.46-3.612-9.282-9.45-9.282-4.872 0-8.484 2.478-10.374 3.738.294-2.1.714-4.914 2.814-9.61796l-4.242-1.89c-1.932 4.32596-2.772 8.06396-3.822 16.33796z"/></g></svg>