<svg fill="none" height="92" viewBox="0 0 348 92" width="348" xmlns="http://www.w3.org/2000/svg"><path d="m32.4402 68.3605c-2.4-2.48-5.24-4.0801-8.24-5.4401l-2.44 3.1601c3.88 1.8 6.32 3.9199 8 5.4799zm-29.64002.44c1.08.08 2.48.1599 3.84.1599 1.4 0 2.12-.08 2.76-.12.04 3.36.04 3.76.04 5.48-2.12 1.04-4.32 2.32-6 3.6801-1.92 1.5599-2.760004 2.7599-2.760004 4.2799 0 1.84 1.240004 2.8801 2.520004 3.8401 2.6 1.88 5.44 3.1999 7.12002 3.1999 2.44 0 2.8-1.9999 2.8-4.6399 0-.8-.12-6.76-.12-8 1.84-.64 4.2-1.4401 6.68-1.4401 2.96 0 5.32 1.8401 5.32 4.8801 0 2.36-1.36 5.04-3.52 5.04-1.44 0-1.44-1.5201-1.44-1.8801 0-.68.12-1.36.2-1.72l-3.68-.92c-.24.64-.6 1.6-.6 3.0401 0 2.12.92 5.5999 5.2 5.5999 3.76 0 8.16-2.88 8.16-9.12 0-5.44-3.76-8.56-9.32-8.56-2.64 0-4.76.56-6.88 1.24.04-.68.16-3.88.2-4.6 2.96-.64 4.04-.96 6.96-1.8399l-.04-4.5601c-2.28 1.28-4.24 1.8-6.6 2.36.04-.64.4-4.72.64-5.04.08-.12.68-.76.68-.92 0-.44-.96-.6-1.2-.64l-4.24002-.64c.08.72.08 1.1601.08 1.7601 0 1.4-.08 4.52-.16 6.08-.44.04-1.2.1199-2.2.1199-2.36 0-3.8-.4-4.92-.68zm6.64 9.3999c-.08 3.28-.16 5.08-.16 5.44-.04.36-.12 1.3601-1.08 1.3601-1 0-3.56-1.4801-3.56-2.4401 0-1.56 3-3.32 4.8-4.36z" fill="#2755ad"/><path d="m57.1202 76.3204c1.96 2.56 4.04 4.8 7.2 7.32l2.24-3.2399c-3.76-2.48-7.12-5.6-9.2-9.64h8.48v-3.68h-8.72v-1.8801c0-.48 0-.72.28-1 .64-.6.72-.68.72-.92 0-.44-.12-.4799-1.32-.5199l-3.4-.1601v4.4801h-8.44v3.68h7.84c-2.36 5-6.4 8.3999-8.8 10.1999l2.52 3c3.12-2.72 4.36-4 6.88-7.8v8.76h3.72zm10.04 13.24v1.4401h4.12v-33.32h-31.76v33.32h4.12v-1.4401zm-23.52-3.68v-24.5199h23.52v24.5199z" fill="#2755ad"/><path d="m88.0402 81.4005c2.12-6.08 4.4-10.8 5.24-12.6l-2.96-1.6801c-.8 1.6-1.64 3.3601-3.16 6.9601-.04-.56-.12-2.0001-.12-3.2401 0-4.68 1.52-9.48 1.96-10.36.08-.2.8-.84.8-1 0-.32-.52-.44-1.4-.64l-3.56-.76c-.48 2.32-1.76 8.8001-1.76 13.3601 0 5.8 1.28 8.6399 2.08 10.4399zm9.68 9.64c4.1198-4.8 8.1598-9.72 8.1598-22.4401 0-1.4399-.4-7.68-.4-8.96 0-.2.56-1 .56-1.16 0-.4-.44-.36-1.4-.24l-4.12.4401c.24 1.3599.92 5.3999.92 10.7999 0 8.28-2.1598 12.7201-7.6798 18.6401z" fill="#2755ad"/><path d="m137.88 89.5204c3-1.12 12-4.48 12-15.68 0-8.4-5.84-14.36-15.08-14.36-10.16 0-17.24 7.76-17.24 16.5601 0 8 5.76 11.5199 8.24 11.5199 2.36 0 4.28-4.36 4.68-5.28 3.36-7.56 4.32-14.28 4.96-19 2.36.36 9.96 1.48 9.96 10.52 0 9.12-8 11.32-10.52 12.04zm-6.96-25.7999c-.4 5.36-1.72 10.68-3.84 15.64-.52 1.2-1.24 2.8399-2.12 2.8399-1.4 0-3.44-2.5999-3.44-6.1599 0-2.76 1-9.44 9.4-12.32z" fill="#2755ad"/><path d="m167.76 78.6805h-10.52v12.4h3.56v-2h3.4v1.5199h3.56v-2.72l2.56 2.08c2.52-2.08 5.08-5.1199 6.92-7.9199v9.04h3.64v-8.8401c1.8 2.8 4.6 5.6001 6.4 7.1601l3.32-2.8401c-3-1.84-6.24-4.72-7.96-7.72h7.48v-3.4399h-9.24v-2.5201h7.32v-15.1199h-17.72v15.1199h6.76v2.5201h-8.44v3.4399h6.24c-1.8 3.04-4.44 5.8801-7.28 8.2401zm6.4-17.8001h3.08v2.88h-3.08zm10.4 0v2.88h-3.68v-2.88zm-10.4 5.8401h3.08v3.08h-3.08zm10.4 0v3.08h-3.68v-3.08zm-26.88 6.7999v2.96h9.64v-2.96zm0-5.28v3.08h9.52v-3.08zm3.12 13.8801h3.4v3.5199h-3.4zm-3-24.5201v3.2h9.52v-3.2zm-2.12 5.36v3.0801h13.2v-3.0801z" fill="#2755ad"/><path d="m220.48 63.6004c.6-1.2399.64-1.4 1.24-2.8h7.6v-3.16h-17.72v3.16h6.2c-.48 1.6-.64 2.04-.96 2.8h-3.88v15.4801h14.88v-15.4801zm-24.04 6.1601h14v-12.1201h-14zm27.88 2.5199h-7.84v-2h7.84zm0-4.32h-7.84v-1.8h7.84zm0 8.56h-7.84v-1.92h7.84zm-17.56-11.96v2.4401h-6.64v-2.4401zm0-2.1999h-6.64v-2.28h6.64zm-4.36 21.44c-.88-.76-1.64-1.7601-1.76-1.9601.12-.96.16-2.16.16-3 0-.24.08-.56.24-.68s.52-.3199.52-.4399c0-.24-.48-.3201-1.16-.4001l-3.16-.44c-.16 6.12-.92 9.64-2.56 13l3.56 1.32c.68-1.8 1.16-3.2799 1.8-6.0399 1.16 1.52 4.2 5.4799 14.52 5.4799h13.76l1.4-4.4799c-4 .72-9.96.96-14.12.96-5.56 0-8.2-.76-9.4-1.12v-4.92h5.12v-3h-5.12v-3.4h5.36v-3.2001h-16.6v3.2001h7.44zm10.92 2.0399c2.72-1.64 3-1.7999 5.04-3.4799.24-.16.44-.2.8-.2.16 0 .32-.0801.32-.2001 0-.2-.28-.52-.52-.72l-2.08-1.92c-.8.7201-3.56 2.68-6.44 3.96zm7.32-3.96c2.6 1.92 3.96 2.72 6.6 3.76l2.04-3.36c-2.76-.48-5.28-1.9999-6.48-2.9199z" fill="#2755ad"/><g fill="#fff"><path d="m111.48 32.6801c-2.52-6.2-4.72-10.68-8.92-16.72l-3.5598 2.28c2.1598 3.24 3.3198 5.16 5.2798 9-3.2.64-6.4398 1.24-12.0398 1.96 1.52-5.08 3.56-11.88 4.48-15.28.28-1.04.36-1.4 1-1.72.4-.24.68-.36.68-.72 0-.48-.64-.64-1-.72l-4.64-1.00002c-.48 3.56002-1.68 10.96002-4.96 20.00002-.96.12-2.8.32-3.88.44l.92 4.48c.08.48.2.84.48.84.2 0 .36-.16.6-.4.36-.4.56-.56 1.64-.72 9.88-1.48 15.1198-2.56 18.4398-3.24.48 1.12 1 2.4 1.44 3.68zm-19.5998-28.44002h-12.24c.16 1.28.4 3.44.4 8.32002 0 9.44-.84 13.84-3.88 20.44l4.24 1.08c2-4.44 3.68-9.8 3.68-21.04v-4.68003h26.9598v-4.11999h-14.3998v-2.44c0-.16.04-.4.16-.56.32-.440004.4-.440004.4-.600002 0-.320001-.48-.400002-.76-.400002l-4.56-.1599979z"/><path d="m131.52 8.80008v5.16002h-15.04v3.88h34.56v-3.88h-15.32v-5.16002h11.48v-3.68h-11.48v-3.08c0-.24 1.04-.92 1.04-1.160003 0-.399999-.52-.439999-1.16-.480001l-4.08-.2v4.920004h-5.36c.24-.52.44-.92.8-1.68.12-.24.24-.44.48-.52.32-.16.68-.24.68-.56s-.6-.52-.88-.6l-4.04-1.000003c-1.36 4.360003-3 7.400003-4.8 10.120023l3.8 1.96c.44-.68.64-1.04 2.24-4.04002zm-9.76 26.08002h4.28v-1.6h15.64v1.6h4.28v-14.24h-24.2zm4.28-5.2v-5.44h15.64v5.44z"/><path d="m167.52 5.00008c1.04-.08 2.4-.28 3.64-.52.32-.08.88-.2 1.12-.24.28.08 1.08.44 1.28.44.28 0 .44-.16.44-.36 0-.24-.2-.52-.48-.96l-1.8-2.680003c-1.52.560003-4.68 1.760003-11.64 1.760003-1.28 0-2.16-.04-3-.08l1.8 3.08c2.08 0 3.24-.04 5.12-.16v1.52h-7.88v2.88h7.88v1.64002h-6.44v10.64h6.44v1.76h-6.76v2.8h6.76v2.36c-2.48.24-3.52.32-7.76.64l.48 3.44c.04.4.12.88.44.88.2 0 .76-.88.96-.96.64-.2 13.24-1.72 15.72-2.08-.84 1.04-1.36 1.52-2.48 2.36l3.72 2.56c5.24-6.16 6.96-11.92 7.84-22.48h2.84c-.04 3.48-.2 15-1.88 17.32-.4.52-.76.52-3.92.52l1.84 4c2.64-.04 5.56-.12 6.6-5.28.44-2.12 1.32-7.68 1.36-20.28002h-6.6c0-.84-.04-5.12-.04-6.08 0-.52.04-.8.4-1.04.68-.48.84-.64.84-.84 0-.4-.56-.44-1.4-.48l-4.04-.200003c.16 1.760003.32 4.160003.24 8.640003h-3.28v3.72002h3.08c-.52 9.32-3.04 14-4.44 16.64v-2c-1 .08-5.88.56-7 .68v-2.04h6.96v-2.8h-6.96v-1.76h6.64v-10.64h-6.64v-1.64002h7.68v-2.88h-7.68zm-3.52 10.56002h-2.88v-1.92h2.88zm6.72 0h-3.2v-1.92h3.2zm-6.72 2.2v2h-2.88v-2zm6.72 0v2h-3.2v-2z"/><path d="m221.96 26.7601v-17.92002h-7.96v-3.32h15.12v-3.64h-34v3.64h15v3.32h-7.76v17.92002zm-11.84-10.72h-4v-3.76h4zm3.88 0v-3.76h4.08v3.76zm-3.88 3.32v3.96h-4v-3.96zm3.88 0h4.08v3.96h-4.08zm10.56 10.48h-24.76v-19.16c0-.24.08-.52.28-.64.56-.44002.64-.48002.64-.68002 0-.44-.88-.52-1.08-.52l-3.96-.32v26.32002h4.12v-1.56h24.76v1.56h4.12v-24.64c0-.44002.04-.56002.36-.80002.36-.28.4-.32.4-.48 0-.32-.4-.36-1.16-.44l-3.72-.44z"/><path d="m265.64 2.44008c-9.6 2.52-19.48 3.56-29.36 4.24l.8 4.44002c3.04-.44 5.48-.76 8.32-1.20002 1.12-.16 6.68-1.04 7.96-1.16-3.28 2.76002-8.48 7.12002-8.48 14.28002 0 3.48 2 7.04 6.08 9.28 1.68.92 3.72 1.64 7.8 2.24l1.48-4.72c-4.2-.12-10.76-.84-10.76-7.68 0-5.76 5.28-10 7.48-11.56 3.56-2.48002 6.32-3.12002 8.88-3.64002zm-.12 14.64002c-1.8-1.76-3.64-2.88-4.48-3.4l-1.56 2.04c1.8 1.16 2.96 2.16 4.24 3.44zm3-3.8c-1.6-1.56-2.88-2.48-4.2-3.28l-1.6 1.8c1.44.96 2.92 2.04 4.12 3.4z"/><path d="m264.16 68.7601c-2.68 1.92-6 3.32-7 3.72-.6-2.28-1.68-4.48-5.4-4.48-1.72 0-2.84.44-3.48.68.72-1 1.32-1.96 2.08-3.48 1.88-.2 6.56-.76 9.64-1.52l.48-4.28c-2.12.96-6.12 1.76-8.24 2 .16-.36 1.2-2.64 1.36-2.72.8-.56.88-.64.88-.84s0-.36-1.44-.6l-3.88-.68c-.36 1.8-1.04 3.68-1.64 5.32-1.64.04-1.76.04-2.76.04-1.76 0-3.44-.04-5.2-.24l.56 4.16c1.88.08 5.12-.12 5.64-.16-1.04 2.12-3.36 6.16-7.96 10.76l3.68 2.4c1.84-2.88 5.12-7.52 8.8-7.52 2.36 0 2.88 1.88 3.16 2.84-3.68 1.88-9.56 4.8-9.56 10.48 0 5.6 6.56 6.12 11.12 6.12 3.76 0 6.64-.44 9.04-.84v-4.32c-5.4 1.24-8.88 1.4-10.32 1.4-2.36 0-5.68-.28-5.68-3.16 0-3.16 4.16-5.2 5.6-5.92 0 1 0 1.12-.2 6.32h4.52c-.04-2.6-.24-5.4-.4-8.04 1.16-.44 6.84-2.68 8.12-3.16z"/><path d="m283.8 91.6401c3.16-.12 5.84-.48 5.84-3.4v-10.6l2.64 2.2c.76-.92 1.12-1.36 2-2.68h3.36v3.52h-6.16v3.56h6.16v7.52h3.76v-7.52h6.32v-3.56h-6.32v-3.52h5.52v-3.44h-5.52v-1.44c0-.24.04-.36.28-.64.08-.12.4-.44.4-.56 0-.24-.28-.28-.56-.36 5.76-1.28 6-2.32 6.08-13.08h-16.6v3.44h4.08c-.56 3.4-2 5.56-5.08 7.36l2.92 2.72c-.6 3.52-2.52 5.32-3.28 6.04v-11h-4.48l3.44-5.36-1.08-1.16h-6.44c.48-1.08.56-1.2.8-1.24.44-.04.88-.16.88-.48s-.32-.4-.8-.52l-3.84-1c-1.16 4.32-2.64 6.84-5.48 10.32l2.88 1.8c.08.88.2 2.72.2 5.68 0 8.76-1.2 12.08-3 15.72l3.36 1.4c1.72-3.4 2.32-6.16 2.76-9.16h7.56v4.48c0 1.52-1.32 1.68-1.88 1.68-.28 0-1.6-.12-1.92-.12zm-2.32-18.84h-2.32v-3.6h2.32zm2.52 0v-3.6h2.4v3.6zm0 2.64h2.4v3.8h-2.4zm-2.52 0v3.8h-2.4c.08-.76.08-1.28.08-2.84v-.96zm1.84-12.76-2 3.52h-3.8c.4-.56.92-1.32 2.12-3.52zm14.32 11.04h-2.08c0-.04.28-.84.4-1 .12-.08.68-.36.68-.52 0-.2-.16-.28-.84-.52l-2.44-.8c3.44-2.68 4.96-4.4 5.92-9.8h4.56v1.68c0 1.56 0 4.32-3.4 4.32-.44 0-.84-.04-1.2-.08l1.12 3.48-2.72-.32z"/><path d="m347.92 76.2801v-3.64h-3.12l.48-9.88h-9.56v-4.24c0-.48.12-.64.48-1.04.16-.2.44-.52.44-.68 0-.4-.88-.4-1.84-.44l-3.32-.12v6.52h-7.2v3.52h7.2c0 1.88 0 4.2-.08 6.36h-8.84v3.64h8.24c-.72 3-2.04 8.52-11.08 11.28l2.8 3.68c5.96-2.2 9.48-6.36 11.52-10.88 1.36 2.28 2.52 3.92 4.32 5.68 2.04 1.92 4.4 3.8 6.36 4.84l3.04-3.72c-8.08-4.16-9.76-6.76-11.68-10.88zm-12.36-3.64c.16-1.52.16-4.8.16-6.36h5.28l-.32 6.36zm-21.12-13.72c1.72 1.12 3.64 2.4 5.48 4.16l2.68-3.08c-1.72-1.56-3.76-3-5.76-4.28zm-3.16 10.6c1.48.96 3.72 2.44 5.48 3.84l2.48-3.24c-.92-.72-2.56-1.96-5.6-3.76zm6.24 7.8c-1.08 3.88-3.28 9-5.04 11.6l3.32 1.84c.6.32.84.44 1.12.44.4 0 .44-.36.44-.52 0-.12-.12-.84-.12-1 0-.36.12-.64.48-1.56 1.68-4.16 2.08-5.24 3.2-9.44z"/></g></svg>