<svg width="701" height="120" viewBox="0 0 701 120" fill="none" xmlns="http://www.w3.org/2000/svg">
<path d="M16.5756 83L10.4156 66.94H7.04965L0.889648 83H4.16765L5.35565 79.546H12.1096L13.2976 83H16.5756ZM11.2516 77.06H6.23565L8.36965 70.878L8.74365 69.47L9.09565 70.878L11.2516 77.06Z" fill="white"/>
<path d="M21.411 83V66.94H18.441V83H21.411Z" fill="white"/>
<path d="M37.4884 83C37.0484 82.692 36.4544 82.274 36.4544 80.668V79.04C36.4544 76.026 34.9364 75.564 33.3744 75.344C34.7384 75.036 35.2664 74.75 35.8824 74.046C36.5204 73.32 36.8724 72.352 36.8724 71.296C36.8724 68.788 34.9144 66.94 31.9224 66.94H24.3544V83H27.3244V76.708H31.4384C33.1544 76.708 33.5064 78.204 33.5064 79.348V81.284C33.5064 82.45 33.7044 82.692 34.0344 83H37.4884ZM33.7044 71.692C33.7044 73.342 32.6924 74.2 31.0424 74.2H27.3244V69.448H31.5264C32.8464 69.448 33.7044 70.24 33.7044 71.692Z" fill="white"/>
<path d="M60.9531 74.706C60.9531 70.416 58.5331 66.94 54.1111 66.94H46.9391V83H54.1111C58.5771 83 60.9531 79.128 60.9531 74.706ZM57.7411 74.596C57.7411 76.62 57.0591 80.492 54.0231 80.492H49.8871V69.448H54.0231C55.7391 69.448 57.7411 70.856 57.7411 74.596Z" fill="white"/>
<path d="M73.5105 77.94C73.4445 76.268 73.3344 74.662 72.3224 73.122C71.4424 71.78 69.9244 70.878 67.9664 70.878C65.0404 70.878 62.4224 72.88 62.4224 77.104C62.4224 81.152 64.8425 83.286 68.0545 83.286C71.9045 83.286 72.9165 80.492 73.2905 79.502H70.3644C69.8804 80.8 68.7365 80.932 68.2085 80.932C65.8765 80.932 65.4364 78.534 65.3264 77.94H73.5105ZM70.3644 76.048H65.3264C65.4584 75.3 65.8324 73.254 67.9884 73.254C69.4404 73.254 70.2984 74.2 70.3644 76.048Z" fill="white"/>
<path d="M84.4151 79.612C84.4151 78.578 83.9311 77.676 83.0951 77.082C82.4131 76.62 82.3031 76.554 79.3551 75.432C78.4311 75.08 77.8811 74.882 77.8811 74.288C77.8811 73.848 78.3431 73.188 79.5091 73.188C80.7631 73.188 81.1371 73.936 81.2031 74.794H84.1071C83.9751 73.452 83.7551 72.836 83.0291 72.11C81.9731 71.076 80.5651 70.878 79.5751 70.878C76.8691 70.878 74.9771 72.484 74.9771 74.464C74.9771 76.62 76.6051 77.192 79.0251 78.072C80.8951 78.732 81.4891 78.996 81.4891 79.81C81.4891 80.976 80.0371 80.976 79.7951 80.976C77.9911 80.976 77.7491 79.7 77.6611 79.128H74.7571C74.8891 80.624 75.1531 81.218 75.8351 81.9C77.0671 83.132 78.8271 83.286 79.6631 83.286C82.2371 83.286 84.4151 81.922 84.4151 79.612Z" fill="white"/>
<path d="M89.3871 69.8V66.94H86.4831V69.8H89.3871ZM89.3871 83V71.164H86.4831V83H89.3871Z" fill="white"/>
<path d="M102.758 73.012V70.878C101.57 70.878 101.218 71.054 100.338 72.044C99.8984 71.648 98.9744 70.878 96.8404 70.878C94.1344 70.878 91.8244 72.176 91.8244 74.684C91.8244 76.466 92.9024 77.192 93.4524 77.544C92.7924 77.962 91.7144 78.644 91.7144 79.766C91.7144 80.844 92.7044 81.196 93.2764 81.394C92.7704 81.482 91.3624 81.724 91.3624 83.418C91.3624 85.354 93.6284 85.948 96.4004 85.948C100.096 85.948 102.406 84.826 102.406 82.714C102.406 81.944 102.12 81.262 101.658 80.8C100.778 79.92 99.4584 79.788 96.4224 79.568C95.6304 79.502 94.6624 79.392 94.6624 78.842C94.6624 78.534 94.8824 78.38 95.4324 78.226C95.7404 78.27 96.0484 78.314 96.6864 78.314C100.096 78.314 101.482 76.466 101.482 74.574C101.482 74.156 101.416 73.914 101.35 73.694C101.966 73.012 102.23 73.012 102.758 73.012ZM98.8644 74.618C98.8644 76.07 97.1044 76.158 96.5984 76.158C96.0704 76.158 94.4424 76.114 94.4424 74.728C94.4424 73.848 95.1684 73.078 96.7304 73.078C97.8524 73.078 98.8644 73.496 98.8644 74.618ZM99.2604 82.868C99.2604 83.352 99.0844 83.792 96.9064 83.792C94.4644 83.792 94.4424 83.22 94.4424 82.846C94.4424 82.23 94.8164 82.054 95.6084 81.768C95.8944 81.79 97.2364 81.812 97.5004 81.834C98.3144 81.922 99.2604 82.142 99.2604 82.868Z" fill="white"/>
<path d="M114.301 83V75.058C114.301 72.374 112.849 70.878 110.341 70.878C108.031 70.878 107.151 72.352 106.689 73.166L106.799 72.154V71.164H103.895V83H106.799V76.092C106.799 73.914 108.207 73.32 109.395 73.32C110.847 73.32 111.397 74.2 111.397 75.52V83H114.301Z" fill="white"/>
<path d="M135.018 72.396C134.556 71.868 134.116 71.406 133.192 70.724L132.268 71.78C132.994 72.308 133.522 72.792 134.094 73.452L135.018 72.396ZM133.236 74.398C132.686 73.716 132.136 73.254 131.41 72.704L130.508 73.76C131.366 74.42 131.828 74.86 132.312 75.454L133.236 74.398ZM133.962 68.656V66.104C129.804 67.38 122.984 67.908 118.232 67.864L118.606 70.328C120.806 70.02 124.04 69.756 126.988 69.514C126.218 70.218 125.118 71.252 124.084 72.858C123.138 74.288 122.588 75.762 122.588 77.236C122.588 78.732 123.16 80.162 124.216 81.196C125.998 82.978 128.462 83.44 129.628 83.638L130.486 80.954C129.584 80.91 128.044 80.844 126.614 79.832C125.998 79.392 125.03 78.49 125.03 76.972C125.03 75.3 126.086 73.32 127.714 71.692C130.508 68.876 132.928 68.722 133.962 68.656Z" fill="white"/>
<path d="M157.458 79.81C155.478 78.468 154.532 78.094 153.674 77.742C153.432 75.278 153.388 74.222 153.366 71.846C154.07 71.714 155.214 71.538 156.116 71.23V68.854C155.28 69.36 154.004 69.624 153.388 69.756C153.498 68.546 153.564 67.578 153.696 67.028C153.916 66.896 154.114 66.786 154.114 66.676C154.114 66.544 154.048 66.434 153.586 66.368L151.122 65.972C151.078 68.15 151.078 68.392 151.034 70.042C150.418 70.108 149.824 70.174 148.988 70.174C147.954 70.174 147.404 70.108 147.008 70.042L147.03 72.308C148.394 72.374 149.582 72.286 151.012 72.132C151.056 73.628 151.122 74.552 151.298 77.17C150.858 77.126 150.396 77.082 149.956 77.082C147.822 77.082 146.084 77.94 146.084 79.92C146.084 83.088 149.78 83.088 150.418 83.088C153.41 83.088 153.85 81.944 153.894 80.25C154.818 80.8 155.412 81.24 156.204 81.988L157.458 79.81ZM144.896 77.874L143.51 76.928L142.608 78.248C142.498 77.346 142.498 76.18 142.498 75.938C142.498 74.244 143.114 70.108 143.312 69.118C143.378 68.854 143.642 67.732 143.796 67.622C143.862 67.6 144.148 67.49 144.214 67.446C144.28 67.402 144.302 67.336 144.302 67.292C144.302 67.072 143.84 66.874 143.774 66.852L141.64 66.016C140.782 69.382 140.298 72.836 140.298 76.312C140.298 78.622 140.474 80.932 141.134 83.132L143.158 82.802C143.4 81.042 144.412 78.908 144.896 77.874ZM151.43 79.26C151.474 80.404 151.518 80.91 150.066 80.91C148.768 80.91 148.13 80.448 148.13 79.942C148.13 79.436 148.834 79.062 149.868 79.062C150.528 79.062 151.1 79.194 151.43 79.26Z" fill="white"/>
<path d="M170.944 83V80.69H163.508C164.19 79.348 164.74 78.732 166.896 77.236C168.986 75.784 170.812 74.332 170.812 71.758C170.812 68.942 168.678 66.654 165.378 66.654C160.406 66.654 160.23 71.164 160.186 72.594H162.98C163.002 71.406 163.068 69.096 165.29 69.096C166.742 69.096 167.798 70.24 167.798 71.758C167.798 73.166 167.094 74.046 164.74 75.762C161.11 78.424 160.12 80.14 159.724 83H170.944Z" fill="white"/>
<path d="M183.146 74.97C183.146 72.902 182.882 70.768 181.782 69.008C180.924 67.644 179.582 66.654 177.558 66.654C172.432 66.654 171.97 72.616 171.97 75.256C171.97 77.324 172.454 83.308 177.558 83.308C182.816 83.308 183.146 76.994 183.146 74.97ZM180.11 74.97C180.11 79.7 179.164 80.932 177.558 80.932C176.128 80.932 174.962 80.052 174.984 74.97C174.984 70.108 176.04 69.03 177.514 69.03C178.966 69.03 180.11 69.888 180.11 74.97Z" fill="white"/>
<path d="M191.631 83V66.94H189.255C188.771 69.03 186.923 69.734 185.757 69.734H184.481V71.824H188.837V83H191.631Z" fill="white"/>
<path d="M207.507 74.244C207.507 70.922 206.297 66.654 201.853 66.654C198.355 66.654 196.507 69.778 196.507 72.396C196.507 75.366 198.663 77.61 201.369 77.61C202.227 77.61 203.789 77.324 204.647 75.872C204.383 78.028 204.031 80.866 201.655 80.866C200.445 80.866 199.719 79.964 199.653 78.952H196.749C197.013 80.426 197.299 81.13 198.179 81.966C199.103 82.824 200.291 83.308 201.589 83.308C207.331 83.308 207.507 75.916 207.507 74.244ZM204.515 72.132C204.515 73.628 203.613 75.168 201.853 75.168C200.423 75.168 199.499 73.87 199.499 72.176C199.499 70.284 200.621 69.272 201.985 69.272C203.481 69.272 204.515 70.46 204.515 72.132Z" fill="white"/>
<path d="M228.532 79.788V77.456H221.8V74.486H225.628V72.22H221.8V69.58H227.476V67.358H215.288C215.332 67.27 215.728 66.522 215.772 66.522C215.816 66.456 216.168 66.368 216.234 66.346C216.3 66.302 216.344 66.214 216.344 66.148C216.344 66.082 216.3 65.994 216.19 65.95L213.484 64.938C212.692 67.16 211.262 69.558 209.216 71.626L211.592 72.88C212.12 72.308 212.802 71.582 214.056 69.58H219.116V72.22H212.912V77.456H209.744V79.788H219.116V84.122H221.888V79.788H228.532ZM219.116 77.456H215.574V74.486H219.116V77.456Z" fill="white"/>
<path d="M250.07 74.86C250.07 74.068 249.52 71.472 246.638 68.392L244.812 69.712C246.022 71.098 247.254 73.298 247.254 73.98C247.254 74.508 246.748 74.552 245.802 74.64L247.298 76.906C248.706 76.642 250.07 76.114 250.07 74.86ZM244.856 73.892C244.856 72.55 244.614 70.108 241.622 70.108C241.028 70.108 240.368 70.196 239.884 70.284C240.038 69.448 240.192 68.678 240.302 67.886C240.324 67.666 240.368 67.644 240.764 67.402C241.006 67.248 241.05 67.182 241.05 67.094C241.05 66.896 240.61 66.764 240.434 66.742L237.75 66.368C237.728 68.194 237.53 69.36 237.266 70.768C236.298 70.922 234.274 71.296 232.668 71.428L233.548 74.09C234.692 73.672 235.594 73.408 236.672 73.144C235.374 77.324 234.252 79.282 232.316 81.746L234.824 82.868C237.068 79.216 238.234 76.642 239.378 72.616C239.796 72.55 240.236 72.506 240.632 72.506C242.216 72.506 242.458 73.21 242.458 74.376C242.458 76.598 241.534 79.26 241.116 79.854C240.808 80.294 240.456 80.404 239.796 80.404C238.938 80.404 238.3 80.206 237.816 80.052L238.124 82.714C238.74 82.802 239.422 82.846 240.016 82.846C240.962 82.846 242.37 82.758 243.316 81.152C244.482 79.128 244.856 75.718 244.856 73.892Z" fill="white"/>
<path d="M265.888 67.622C264.194 66.61 262.104 65.818 260.63 65.356L259.684 67.534C262.302 68.458 263.358 69.03 264.766 69.932L265.888 67.622ZM269.936 77.434C269.936 74.244 267.362 72.616 265.052 72.616C263.93 72.616 261.62 73.034 259.64 74.838C259.926 73.188 260.388 71.56 260.96 69.998L258.43 69.008C257.946 70.68 256.89 74.42 256.714 77.412L258.628 78.424C260.894 75.784 263.116 74.904 264.634 74.904C266.284 74.904 267.406 75.806 267.406 77.214C267.406 79.238 265.536 81.372 261.444 81.372C260.432 81.372 259.398 81.218 258.694 81.13L259.86 83.836C262.588 83.77 269.936 83.638 269.936 77.434Z" fill="white"/>
<path d="M294.312 77.39C293.718 72.308 291.76 69.536 290.704 68.04L288.438 69.14C289.582 70.9 291.034 73.496 291.672 78.072L294.312 77.39ZM284.61 77.06L282.784 75.432C282.366 76.488 281.464 78.82 280.672 78.82C280.232 78.82 279.176 78.028 279.176 73.738C279.176 71.318 279.352 70.042 279.594 68.832C279.968 68.7 280.232 68.612 280.232 68.37C280.232 68.106 279.88 67.996 279.726 67.952L277.306 67.292C276.954 68.766 276.646 70.196 276.646 73.012C276.646 77.192 277.35 79.766 278.89 81.262C279.264 81.614 279.814 81.988 280.518 81.988C282.3 81.988 283.4 79.656 284.61 77.06Z" fill="white"/>
<path d="M314.42 77.984C314.42 75.3 312.242 73.54 309.536 73.54C308.634 73.54 307.094 73.782 304.872 75.234C305.312 73.782 305.774 72.044 305.95 71.362C308.7 70.966 310.13 70.614 312.066 69.888V67.49C310.394 68.304 309.096 68.722 306.5 69.206C306.61 68.744 307.138 66.588 307.248 66.17C307.512 66.016 307.798 66.016 307.798 65.774C307.798 65.62 307.49 65.532 307.336 65.488L304.828 64.916C304.674 66.632 304.278 68.458 304.036 69.492C303.684 69.514 303.31 69.536 302.892 69.536C302.76 69.536 301.33 69.536 299.812 69.184L300.12 71.516C301 71.604 301.99 71.604 302.188 71.604C302.606 71.604 303.09 71.604 303.552 71.56C303.2 72.99 302.584 75.432 301.836 77.346L303.684 78.798C305.356 77.236 307.16 75.608 309.184 75.608C310.702 75.608 312.044 76.62 312.044 78.116C312.044 79.942 310.042 81.724 305.686 81.724C305.422 81.724 304.168 81.724 302.826 81.548L303.552 84.056C306.082 84.012 309.404 83.902 311.34 82.912C313.276 81.922 314.42 80.096 314.42 77.984Z" fill="white"/>
<path d="M338.642 79.392V77.038H330.524V75.146H336.64V65.51H321.636V75.146H327.708V77.038H319.59V79.392H327.708V84.144H330.524V79.392H338.642ZM333.978 69.184H324.298V67.71H333.978V69.184ZM333.978 72.902H324.298V71.296H333.978V72.902Z" fill="white"/>
<path d="M355.89 66.962C355.89 66.742 355.472 66.412 355.428 66.368L353.404 64.806C351.292 67.402 349.488 69.14 346.364 71.978C345.638 72.66 344.846 73.474 344.846 74.442C344.846 74.838 345 75.586 345.946 76.378C348.784 78.82 350.94 80.756 353.536 84.628L355.802 82.516C353.338 79.414 351.204 77.5 348.366 75.168C348.124 74.97 347.992 74.728 347.992 74.398C347.992 73.98 348.102 73.87 349.554 72.506C351.82 70.394 353.954 68.348 354.416 67.864C354.988 67.292 355.054 67.226 355.318 67.204C355.824 67.138 355.89 67.138 355.89 66.962Z" fill="white"/>
<path d="M379.54 66.236C379.54 65.972 379.1 65.95 378.99 65.95L376.174 65.796C376.284 67.556 376.328 70.614 376.328 71.142C376.328 77.786 374.436 79.876 369.926 81.658L371.84 83.792C374.128 82.626 376.988 80.998 378.286 77.104C378.99 74.97 379.034 73.232 379.034 68.942C379.034 68.722 378.99 67.732 379.012 67.534C379.012 66.918 379.012 66.852 379.298 66.566C379.518 66.39 379.54 66.302 379.54 66.236ZM370.388 66.412C370.388 66.214 369.992 66.192 369.816 66.17L367.198 65.95V76.334H369.816V67.05C369.816 66.984 369.838 66.962 370.168 66.72C370.256 66.632 370.388 66.522 370.388 66.412Z" fill="white"/>
<path d="M403.234 75.124V72.814H395.688V68.832H401.782V66.522H389.11V68.832H393.158V72.814H387.02V75.124H393.158V79.568C393.158 82.714 395.644 82.824 397.734 82.824C398.988 82.824 401.76 82.78 402.332 82.758V80.14C401.452 80.25 400.242 80.382 398.548 80.382C396.502 80.382 395.688 80.074 395.688 78.908V75.124H403.234Z" fill="white"/>
<path d="M424.882 76.026V73.232H409.24V76.026H424.882Z" fill="white"/>
<path d="M441.778 76.07C440.898 75.3 440.084 74.574 438.346 73.43C436.454 72.198 435.728 71.912 434.606 71.428L433.572 73.056V67.27C433.572 67.16 434.144 66.808 434.144 66.676C434.144 66.412 433.682 66.346 433.616 66.324L430.976 65.862V83.286H433.572V73.782C436.212 74.882 438.412 76.664 440.04 78.182L441.778 76.07Z" fill="white"/>
<path d="M463.514 68.458L462.062 66.94H447.894V74.376H450.666V69.536H460.302C460.258 70.68 460.17 73.122 458.432 76.004C456.232 79.634 453.262 81.108 451.788 81.834L454.516 83.682C456.1 82.626 459.048 80.69 461.138 76.906C462.964 73.584 463.316 70.306 463.514 68.458Z" fill="white"/>
<path d="M485.382 76.026V73.232H469.74V76.026H485.382Z" fill="white"/>
<path d="M507.206 69.976L505.424 67.886C505.072 68.106 504.72 68.304 504.456 68.304H499.528C499.748 67.886 500.012 67.446 500.144 67.116C500.452 67.028 500.694 66.984 500.694 66.808C500.694 66.588 500.254 66.39 500.122 66.346L497.856 65.488C496.976 68.128 494.93 71.406 491.784 73.936L493.962 75.432C496.184 73.298 497.394 71.604 498.142 70.526H503.774C503.422 71.714 502.762 73.76 500.87 76.312C498.252 79.832 495.348 81.328 493.984 82.054L496.382 83.704C497.79 82.824 500.122 81.35 502.344 78.49C504.5 75.718 505.468 73.166 506.26 71.032C506.436 70.57 506.766 70.284 507.206 69.976Z" fill="white"/>
<path d="M529.294 74.442L528.546 71.934C527.512 72.396 527.226 72.528 524.652 73.738C524.146 72.286 523.178 71.516 521.66 71.516C520.714 71.516 520.054 71.846 519.768 71.978C520.142 71.406 520.318 71.098 521.022 69.8C522.496 69.624 524.3 69.426 526.28 68.964L526.434 66.5C525.136 67.006 524.146 67.292 522.122 67.622C522.232 67.38 522.782 66.148 522.804 66.126C522.826 66.126 523.266 65.928 523.31 65.906C523.442 65.862 523.53 65.796 523.53 65.664C523.53 65.51 523.156 65.466 523.09 65.444L520.34 64.96C520.076 65.928 519.79 66.698 519.24 67.886C517.326 67.952 516.358 67.908 515.038 67.798L515.302 70.086C516.226 70.086 516.908 70.064 518.162 69.998C516.666 72.616 515.566 74.178 513.828 76.048L515.984 77.39C517.194 75.41 518.514 73.408 520.67 73.408C521.946 73.408 522.21 74.2 522.342 74.86C519.042 76.554 517.018 77.588 517.018 80.316C517.018 80.624 517.018 81.592 517.854 82.472C519.24 83.946 521.792 83.946 523.024 83.946C523.728 83.946 526.17 83.946 528.26 83.616V81.13C526.412 81.548 524.542 81.834 522.65 81.834C521.044 81.834 519.35 81.548 519.35 80.118C519.35 78.578 521.638 77.434 522.474 77.016C522.452 77.984 522.43 79.062 522.364 80.316H524.916C524.916 79.568 524.872 76.84 524.872 75.982C526.5 75.366 527.556 74.992 529.294 74.442Z" fill="white"/>
<path d="M553.01 68.326V66.808H549.424C549.688 66.456 549.908 66.082 550.018 65.906C550.326 65.818 550.612 65.752 550.612 65.576C550.612 65.488 550.612 65.356 549.864 65.246L548.126 64.982C547.906 65.796 547.642 66.346 547.334 66.808H544.672C544.276 66.038 543.88 65.532 543.418 64.982L541.394 65.466C541.68 65.774 541.878 66.06 542.23 66.808H539.084V68.326H544.232L543.858 69.052H540.338V74.882H551.976V69.052H546.3L546.762 68.326H553.01ZM549.644 72.242H542.67V71.692H549.644V72.242ZM549.644 70.746H542.67V70.196H549.644V70.746ZM549.644 73.738H542.67V73.166H549.644V73.738ZM538.578 67.16C537.412 66.06 536.84 65.576 536.07 64.982L534.596 66.632C535.586 67.402 536.268 68.04 536.994 68.788L538.578 67.16ZM553.428 75.52C551.58 75.674 548.544 75.916 544.056 75.916C542.736 75.916 540.514 75.828 539.458 75.168C538.842 74.772 538.798 74.134 538.798 73.76V70.13H534.354V72.11H536.51V74.486C535.146 75.102 534.662 75.344 533.98 75.586L534.574 77.126C534.684 77.39 534.794 77.698 534.97 77.698C535.234 77.698 535.3 77.39 535.344 77.148C536.158 76.62 536.334 76.488 537.984 75.388C538.82 76.488 539.546 77.456 543.33 77.456H547.048V78.138H534.134V80.118H539.766L538.446 81.372C539.436 82.12 540.008 82.714 540.8 83.704L542.648 82.01C542.296 81.658 541.614 80.888 540.668 80.118H547.048V81.46C547.048 81.922 546.938 82.076 546.388 82.076C545.86 82.076 545.596 82.054 544.452 81.9L545.42 84.254C546.454 84.232 549.446 84.21 549.446 82.648V80.118H553.054V78.138H549.446V77.456H552.504L553.428 75.52Z" fill="white"/>
<path d="M575.626 82.01C574.438 81.35 571.886 79.876 569.884 76.158C568.256 73.122 567.86 70.13 567.86 67.798C567.86 67.094 567.882 66.258 567.948 65.576H560.886V68.194H565.33C565.352 69.074 565.374 69.492 565.44 70.152L563.504 69.668C563.328 71.142 562.976 74.024 560.974 77.214C559.06 80.228 556.816 81.702 555.628 82.472L557.982 84.144C561.788 81.504 564.142 77.742 565.814 72.572C566.122 73.87 566.672 76.224 568.432 78.996C570.236 81.812 572.128 83.264 573.118 84.034L575.626 82.01Z" fill="white"/>
<path d="M595.536 77.632L593.38 75.85C591.224 80.074 588.276 80.844 587.044 80.844C585.636 80.844 585.152 79.986 585.108 79.92C584.69 79.172 584.69 77.038 584.69 76.026C584.69 73.606 585.13 67.798 585.306 67.226C585.658 66.94 585.922 66.764 585.922 66.588C585.922 66.456 585.724 66.302 585.196 66.236L582.27 65.818C582.336 67.292 582.16 73.826 582.16 75.168C582.16 80.448 582.512 81.57 583.546 82.472C584.25 83.088 585.372 83.594 586.758 83.594C587.682 83.594 589.288 83.396 591.136 82.186C593.314 80.778 594.634 78.886 595.536 77.632Z" fill="white"/>
<path d="M617.47 68.59V65.95C613.18 67.204 606.602 67.952 601.432 67.996L601.872 70.592C604.49 70.108 607.46 69.866 610.254 69.646C609.22 70.614 605.986 73.65 605.986 77.412C605.986 82.318 611.486 83.462 613.268 83.836L614.038 81.064C613.114 81.042 611.596 80.998 610.21 80.008C608.846 79.04 608.582 77.676 608.582 76.928C608.582 74.728 610.408 72.286 612.344 70.724C614.742 68.788 616.524 68.678 617.47 68.59Z" fill="white"/>
<path d="M640.812 77.39C640.218 72.308 638.26 69.536 637.204 68.04L634.938 69.14C636.082 70.9 637.534 73.496 638.172 78.072L640.812 77.39ZM631.11 77.06L629.284 75.432C628.866 76.488 627.964 78.82 627.172 78.82C626.732 78.82 625.676 78.028 625.676 73.738C625.676 71.318 625.852 70.042 626.094 68.832C626.468 68.7 626.732 68.612 626.732 68.37C626.732 68.106 626.38 67.996 626.226 67.952L623.806 67.292C623.454 68.766 623.146 70.196 623.146 73.012C623.146 77.192 623.85 79.766 625.39 81.262C625.764 81.614 626.314 81.988 627.018 81.988C628.8 81.988 629.9 79.656 631.11 77.06Z" fill="white"/>
<path d="M660.568 80.426C658.28 78.974 656.828 78.446 655.002 77.94C654.936 76.642 654.936 76.422 654.892 75.322C657.488 75.124 658.654 74.926 659.6 74.772V72.374C657.576 72.748 656.762 72.88 654.848 73.122V70.526C655.948 70.504 657.994 70.46 660.436 70.46L660.524 68.128C658.456 68.282 657.708 68.326 654.892 68.458C654.914 67.314 654.936 66.896 654.936 66.874C654.98 66.676 655.134 66.544 655.222 66.478C655.464 66.28 655.508 66.258 655.508 66.17C655.508 66.016 655.376 65.95 654.958 65.906L652.274 65.642L652.34 68.568C650.382 68.612 649.194 68.656 646.686 68.656L646.73 71.032C648.622 70.812 649.876 70.724 652.406 70.614L652.45 73.364C651.944 73.408 651.658 73.408 650.932 73.408C650.558 73.408 650.096 73.408 650.096 73.1C650.096 72.814 650.426 72.572 650.822 72.286L649.568 71.208C648.71 71.824 647.214 72.858 647.214 73.936C647.214 74.794 648.226 75.52 650.25 75.52C650.888 75.52 652.098 75.476 652.494 75.454L652.538 77.566L651.922 77.544C646.972 77.368 646.752 79.92 646.752 80.558C646.752 82.34 648.644 83.418 651.68 83.418C654.496 83.418 655.024 82.538 655.112 80.294C656.74 80.932 657.708 81.46 659.138 82.472L660.568 80.426ZM652.56 79.656C652.582 80.888 652.494 81.284 651.064 81.284C650.8 81.284 649.392 81.284 649.392 80.536C649.392 79.964 650.096 79.59 651.526 79.59C652.032 79.59 652.318 79.612 652.56 79.656Z" fill="white"/>
<path d="M683.888 70.262V67.886C681.644 68.062 680.962 68.128 677.904 68.304V66.038C677.904 65.95 677.926 65.906 678.08 65.774C678.234 65.642 678.278 65.576 678.278 65.444C678.278 65.224 678.146 65.158 677.64 65.136L675.198 64.982C675.33 66.588 675.33 67.754 675.352 68.436C670.732 68.656 668.84 68.656 667.344 68.656V71.208C670.138 70.856 673.46 70.658 675.418 70.548L675.462 72.198C675.154 72.088 674.846 72.022 674.428 72.022C672.184 72.022 670.974 73.694 670.974 76.114C670.974 77.192 671.216 78.38 672.118 79.172C672.668 79.656 673.35 79.854 673.922 79.854C674.296 79.854 674.626 79.766 675.11 79.634C674.626 81.24 673.284 82.384 671.964 83.242L674.428 84.518C675.22 83.704 676.408 82.472 677.42 80.426C678.41 78.446 678.542 76.818 678.542 76.18C678.542 74.794 678.146 74.024 677.904 73.496V70.416C680.764 70.306 682.216 70.262 683.888 70.262ZM675.88 75.828C675.88 77.39 674.824 77.874 674.362 77.874C673.856 77.874 673.152 77.368 673.152 76.048C673.152 74.882 673.768 74.112 674.648 74.112C674.934 74.112 675.242 74.2 675.462 74.42C675.814 74.794 675.88 75.366 675.88 75.828Z" fill="white"/>
<path d="M691.39 77.478C689.52 77.478 687.98 78.974 687.98 80.866C687.98 82.736 689.52 84.276 691.39 84.276C693.26 84.254 694.778 82.736 694.778 80.866C694.778 78.974 693.238 77.478 691.39 77.478ZM691.39 78.534C692.666 78.534 693.722 79.568 693.722 80.866C693.722 82.164 692.688 83.198 691.39 83.198C690.092 83.22 689.036 82.164 689.036 80.866C689.036 79.568 690.114 78.534 691.39 78.534Z" fill="white"/>
<path d="M46.8739 101.236C46.8739 100.972 46.4339 100.95 46.3239 100.95L43.5079 100.796C43.6179 102.556 43.6619 105.614 43.6619 106.142C43.6619 112.786 41.7699 114.876 37.2599 116.658L39.1739 118.792C41.4619 117.626 44.3219 115.998 45.6199 112.104C46.3239 109.97 46.3679 108.232 46.3679 103.942C46.3679 103.722 46.3239 102.732 46.3459 102.534C46.3459 101.918 46.3459 101.852 46.6319 101.566C46.8519 101.39 46.8739 101.302 46.8739 101.236ZM37.7219 101.412C37.7219 101.214 37.3259 101.192 37.1499 101.17L34.5319 100.95V111.334H37.1499V102.05C37.1499 101.984 37.1719 101.962 37.5019 101.72C37.5899 101.632 37.7219 101.522 37.7219 101.412Z" fill="white"/>
<path d="M70.5679 110.124V107.814H63.0219V103.832H69.1159V101.522H56.4439V103.832H60.4919V107.814H54.3539V110.124H60.4919V114.568C60.4919 117.714 62.9779 117.824 65.0679 117.824C66.3219 117.824 69.0939 117.78 69.6659 117.758V115.14C68.7859 115.25 67.5759 115.382 65.8819 115.382C63.8359 115.382 63.0219 115.074 63.0219 113.908V110.124H70.5679Z" fill="white"/>
<path d="M92.2159 111.026V108.232H76.5739V111.026H92.2159Z" fill="white"/>
<path d="M109.112 111.07C108.232 110.3 107.418 109.574 105.68 108.43C103.788 107.198 103.062 106.912 101.94 106.428L100.906 108.056V102.27C100.906 102.16 101.478 101.808 101.478 101.676C101.478 101.412 101.016 101.346 100.95 101.324L98.3099 100.862V118.286H100.906V108.782C103.546 109.882 105.746 111.664 107.374 113.182L109.112 111.07Z" fill="white"/>
<path d="M131.75 107.396C131.288 106.868 130.848 106.406 129.924 105.724L129 106.78C129.726 107.308 130.254 107.792 130.826 108.452L131.75 107.396ZM129.968 109.398C129.418 108.716 128.868 108.254 128.142 107.704L127.24 108.76C128.098 109.42 128.56 109.86 129.044 110.454L129.968 109.398ZM130.694 103.656V101.104C126.536 102.38 119.716 102.908 114.964 102.864L115.338 105.328C117.538 105.02 120.772 104.756 123.72 104.514C122.95 105.218 121.85 106.252 120.816 107.858C119.87 109.288 119.32 110.762 119.32 112.236C119.32 113.732 119.892 115.162 120.948 116.196C122.73 117.978 125.194 118.44 126.36 118.638L127.218 115.954C126.316 115.91 124.776 115.844 123.346 114.832C122.73 114.392 121.762 113.49 121.762 111.972C121.762 110.3 122.818 108.32 124.446 106.692C127.24 103.876 129.66 103.722 130.694 103.656Z" fill="white"/>
<path d="M153.904 109.596C153.904 104.69 150.296 101.588 145.72 101.588C140.044 101.588 136.018 106.032 136.018 110.916C136.018 114.854 139.626 116.834 140.418 116.834C141.562 116.834 142.574 114.986 143.234 113.622C143.96 112.148 145.258 109.068 145.962 103.832C146.776 103.898 148.316 103.986 149.702 105.306C150.934 106.472 151.286 107.946 151.286 109.156C151.286 110.124 151.044 111.95 149.702 113.534C148.36 115.14 146.732 115.602 145.742 115.888L147.37 118.154C148.558 117.67 150.846 116.724 152.496 114.282C153.31 113.072 153.904 111.532 153.904 109.596ZM143.344 104.228C142.904 107.66 141.012 113.402 139.868 113.402C139.472 113.402 138.46 112.478 138.46 110.696C138.46 109.354 139.098 107.308 140.66 105.812C141.716 104.778 142.706 104.448 143.344 104.228Z" fill="white"/>
<path d="M176.212 100.598C176.212 100.4 175.86 100.334 175.728 100.334L173.506 100.158V116.218C173.506 116.9 172.956 116.9 172.714 116.9C172.582 116.9 171.878 116.878 170.976 116.834L172.208 119.188C174.716 119.122 175.794 119.034 175.794 116.834V101.236C175.794 101.126 175.838 101.082 175.992 100.928C176.124 100.796 176.212 100.686 176.212 100.598ZM172.274 102.93C172.274 102.688 171.79 102.666 171.636 102.666L169.678 102.6V114.744H171.878V103.414C172.12 103.194 172.274 103.084 172.274 102.93ZM168.974 108.276V106.142H164.464V104.624H168.204V102.49H164.464V100.928C164.662 100.752 164.86 100.62 164.86 100.444C164.86 100.268 164.486 100.202 164.354 100.202L162.154 100.114V102.49H160.856L161.054 101.962C161.296 101.874 161.538 101.874 161.538 101.654C161.538 101.456 161.208 101.39 161.142 101.368L159.074 100.95C158.436 103.018 157.644 104.338 157.16 105.064L159.47 105.724C159.778 105.13 159.866 104.932 159.998 104.624H162.154V106.142H157.512V108.276H162.154V109.64H158.304V118.022H160.614V111.752H162.154V119.122H164.464V111.752H166.026V115.14C166.026 115.778 165.564 115.756 164.618 115.756L165.608 117.824C167.192 117.56 168.358 117.384 168.358 115.998V109.64H164.464V108.276H168.974Z" fill="white"/>
<path d="M198.344 105.658V103.304H190.116C190.204 103.084 190.71 101.764 190.754 101.72C190.798 101.676 191.106 101.544 191.172 101.5C191.282 101.434 191.304 101.346 191.304 101.28C191.304 101.192 191.216 101.104 191.106 101.06L188.466 100.268C187.432 103.81 186.464 105.614 184.242 107.924L186.574 109.156C187.41 108.166 188.114 107.242 188.972 105.658H189.72V118.946H192.272V114.766H197.992V112.324H192.272V110.124H197.288V107.88H192.272V105.658H198.344ZM186.2 101.302C186.2 101.236 186.134 101.126 185.98 101.082L183.098 100.4C181.954 104.074 180.964 105.856 178.61 108.408L180.81 109.772C181.074 109.486 181.294 109.244 181.536 108.936V118.968H184.044V105.922C184.044 105.746 184.286 105.57 184.374 105.526C184.462 105.438 184.616 105.35 184.616 105.174C184.616 105.086 184.55 104.976 184.506 104.954L184.198 104.8C184.902 103.48 185.122 102.974 185.496 102.094C185.628 101.786 185.672 101.764 186.024 101.566C186.112 101.5 186.2 101.412 186.2 101.302Z" fill="white"/>
<path d="M218.166 104.844V102.292C217.33 102.578 215.526 103.194 212.952 103.194C211.764 103.194 210.774 103.04 210.136 102.952V105.372C211.302 105.482 212.314 105.482 212.49 105.482C214.932 105.482 217.154 105.042 218.166 104.844ZM219.222 116.394V113.666C218.43 113.886 216.714 114.348 214.206 114.348C211.984 114.348 211.764 113.754 211.742 111.664L209.344 111.994C209.41 115.712 210.246 116.79 214.25 116.79C216.582 116.79 218.056 116.57 219.222 116.394ZM207.716 112.478L206.418 111.774C205.934 112.632 205.802 112.852 205.538 113.314C205.23 112.368 205.23 110.674 205.23 110.3C205.23 106.978 206.176 102.996 206.506 102.798C206.55 102.776 206.836 102.666 206.88 102.644C206.968 102.578 206.99 102.49 206.99 102.446C206.99 102.27 206.572 102.116 206.418 102.05L204.174 101.236C203.866 102.534 203.558 103.876 203.25 106.252C203.096 107.55 202.92 109.178 202.92 110.586C202.92 112.28 203.162 114.326 203.822 116.372C204.086 117.186 204.284 117.538 204.636 118.11L206.374 117.428C206.594 116.02 206.924 114.282 207.716 112.478Z" fill="white"/>
<path d="M242.454 104.36V102.82H241.684L241.882 100.444H231.344L231.146 102.82H230.178V104.36H231.014L230.882 105.988C230.596 105.46 230.09 104.624 229.232 103.634L228.154 104.404V101.346C228.154 101.214 228.264 101.148 228.572 100.928C228.682 100.862 228.814 100.752 228.814 100.576C228.814 100.356 228.616 100.312 227.956 100.268L225.602 100.114V103.942C225.492 103.898 225.426 103.876 225.36 103.876L223.424 103.59C223.402 106.648 223.05 108.056 222.786 109.024L224.832 109.288C225.184 107.748 225.272 106.164 225.338 104.58C225.47 104.536 225.514 104.514 225.602 104.47V119.034H228.154V105.834C228.748 106.648 229.078 107.154 229.606 108.1L231.124 106.89H241.354L241.552 104.36H242.454ZM239.638 101.962L239.55 102.82H237.284L237.35 101.962H239.638ZM239.44 104.36L239.352 105.328H237.086L237.174 104.36H239.44ZM235.326 101.962L235.26 102.82H233.236L233.302 101.962H235.326ZM235.128 104.36L235.062 105.328H233.038L233.104 104.36H235.128ZM242.278 117.296C240.298 116.944 239.352 116.262 238.956 115.976H241.574V107.572H230.97V115.976H232.422C231.96 116.328 231.124 116.988 229.1 117.494L230.97 119.32C232.686 118.594 233.764 117.868 234.688 117.12L235.238 117.01C235.348 116.988 235.546 116.944 235.546 116.768C235.546 116.548 235.216 116.284 234.798 115.976H237.174L236.36 116.9C237.812 118.154 239.242 118.836 240.958 119.232L242.278 117.296ZM239.22 112.06H233.258V111.312H239.22V112.06ZM239.22 109.904H233.258V109.178H239.22V109.904ZM239.22 114.326H233.258V113.512H239.22V114.326Z" fill="white"/>
<path d="M263.772 115.558L263.09 113.094C262.188 114.37 261.352 114.766 260.736 114.766C260.142 114.766 259.922 114.524 259.922 113.314C259.922 112.874 259.944 112.148 260.142 110.212C260.428 107.264 260.45 107.022 260.45 106.626C260.45 104.888 259.13 103.986 258.03 103.986C256.556 103.986 254.466 105.944 253.608 106.736L254.092 105.768L252.684 104.426C252.75 102.754 252.794 101.698 252.904 101.522C252.97 101.456 253.3 101.17 253.3 101.104C253.3 100.906 253.102 100.884 252.75 100.84L250.572 100.598L250.484 105.328C249.692 105.636 248.328 106.12 246.524 106.384L247.602 108.76C248.702 108.408 249.296 108.188 250.462 107.77L250.418 109.706C248.878 112.016 247.734 113.402 246.238 114.766L248.526 116.306C249.296 115.096 249.67 114.568 250.352 113.622L250.286 118.704L252.75 118.572C252.618 115.998 252.618 113.71 252.596 110.652C254.136 108.76 255.83 106.648 257.084 106.648C257.832 106.648 257.942 107.55 257.942 108.122C257.942 109.046 257.546 113.138 257.546 113.974C257.546 114.524 257.546 117.582 260.098 117.582C261.55 117.582 262.76 116.636 263.772 115.558Z" fill="white"/>
<path d="M284.804 103.59V100.95C280.514 102.204 273.936 102.952 268.766 102.996L269.206 105.592C271.824 105.108 274.794 104.866 277.588 104.646C276.554 105.614 273.32 108.65 273.32 112.412C273.32 117.318 278.82 118.462 280.602 118.836L281.372 116.064C280.448 116.042 278.93 115.998 277.544 115.008C276.18 114.04 275.916 112.676 275.916 111.928C275.916 109.728 277.742 107.286 279.678 105.724C282.076 103.788 283.858 103.678 284.804 103.59Z" fill="white"/>
<path d="M308.146 112.39C307.552 107.308 305.594 104.536 304.538 103.04L302.272 104.14C303.416 105.9 304.868 108.496 305.506 113.072L308.146 112.39ZM298.444 112.06L296.618 110.432C296.2 111.488 295.298 113.82 294.506 113.82C294.066 113.82 293.01 113.028 293.01 108.738C293.01 106.318 293.186 105.042 293.428 103.832C293.802 103.7 294.066 103.612 294.066 103.37C294.066 103.106 293.714 102.996 293.56 102.952L291.14 102.292C290.788 103.766 290.48 105.196 290.48 108.012C290.48 112.192 291.184 114.766 292.724 116.262C293.098 116.614 293.648 116.988 294.352 116.988C296.134 116.988 297.234 114.656 298.444 112.06Z" fill="white"/>
<path d="M328.078 112.192C328.078 109.772 326.186 107.33 323.194 107.33C322.864 107.33 321.786 107.352 321.06 107.462C324.25 104.206 324.624 103.854 325.944 102.754L324.8 100.972C322.71 101.786 318.97 102.072 318.134 102.072C317.452 102.072 316.198 101.984 315.67 101.94L316.176 104.404C318.794 104.382 320.004 104.162 321.324 103.854C317.804 108.122 315.472 110.08 313.184 111.796L315.032 113.732C316.264 112.478 318.2 110.52 319.564 109.794C320.092 109.508 321.126 109.244 322.072 109.244C323.502 109.244 325.636 109.948 325.636 112.126C325.636 113.688 324.668 114.612 324.184 115.052C323.568 114.282 322.138 112.478 319.85 112.478C317.694 112.478 316.616 114.15 316.616 115.404C316.616 117.032 318.024 118.418 320.774 118.418C324.646 118.418 328.078 115.844 328.078 112.192ZM322.138 116.13C321.83 116.196 321.346 116.328 320.642 116.328C319.85 116.328 318.838 116.108 318.838 115.338C318.838 115.052 319.036 114.414 319.938 114.414C321.192 114.414 321.852 115.624 322.138 116.13Z" fill="white"/>
<path d="M351.904 109.86C351.904 109.068 351.354 106.472 348.472 103.392L346.646 104.712C347.856 106.098 349.088 108.298 349.088 108.98C349.088 109.508 348.582 109.552 347.636 109.64L349.132 111.906C350.54 111.642 351.904 111.114 351.904 109.86ZM346.69 108.892C346.69 107.55 346.448 105.108 343.456 105.108C342.862 105.108 342.202 105.196 341.718 105.284C341.872 104.448 342.026 103.678 342.136 102.886C342.158 102.666 342.202 102.644 342.598 102.402C342.84 102.248 342.884 102.182 342.884 102.094C342.884 101.896 342.444 101.764 342.268 101.742L339.584 101.368C339.562 103.194 339.364 104.36 339.1 105.768C338.132 105.922 336.108 106.296 334.502 106.428L335.382 109.09C336.526 108.672 337.428 108.408 338.506 108.144C337.208 112.324 336.086 114.282 334.15 116.746L336.658 117.868C338.902 114.216 340.068 111.642 341.212 107.616C341.63 107.55 342.07 107.506 342.466 107.506C344.05 107.506 344.292 108.21 344.292 109.376C344.292 111.598 343.368 114.26 342.95 114.854C342.642 115.294 342.29 115.404 341.63 115.404C340.772 115.404 340.134 115.206 339.65 115.052L339.958 117.714C340.574 117.802 341.256 117.846 341.85 117.846C342.796 117.846 344.204 117.758 345.15 116.152C346.316 114.128 346.69 110.718 346.69 108.892Z" fill="white"/>
<path d="M367.722 102.622C366.028 101.61 363.938 100.818 362.464 100.356L361.518 102.534C364.136 103.458 365.192 104.03 366.6 104.932L367.722 102.622ZM371.77 112.434C371.77 109.244 369.196 107.616 366.886 107.616C365.764 107.616 363.454 108.034 361.474 109.838C361.76 108.188 362.222 106.56 362.794 104.998L360.264 104.008C359.78 105.68 358.724 109.42 358.548 112.412L360.462 113.424C362.728 110.784 364.95 109.904 366.468 109.904C368.118 109.904 369.24 110.806 369.24 112.214C369.24 114.238 367.37 116.372 363.278 116.372C362.266 116.372 361.232 116.218 360.528 116.13L361.694 118.836C364.422 118.77 371.77 118.638 371.77 112.434Z" fill="white"/>
<path d="M395.31 115.36C393.506 113.402 391.614 111.532 389.48 109.926C390.866 107.77 391.284 106.758 392.032 104.998C392.296 104.36 392.78 103.986 393.22 103.678L391.526 101.808C391.13 102.072 390.8 102.292 390.382 102.292H380.9V104.844H389.282C388.776 106.098 387.918 108.32 385.542 110.85C382.748 113.82 379.954 114.986 378.524 115.602L380.46 117.604C384.596 115.58 386.224 113.908 387.984 111.95C389.788 113.402 391.35 114.986 393.352 117.45L395.31 115.36Z" fill="white"/>
<path d="M416.364 116.13C415.198 113.38 413.79 110.938 411.634 108.386L409.302 109.552C410.534 110.872 411.282 112.06 411.832 112.962C409.412 113.38 407.102 113.688 403.978 114.04C404.946 111.664 406.794 106.89 407.96 103.48C408.158 102.886 408.202 102.82 408.422 102.71C408.796 102.49 408.84 102.468 408.84 102.358C408.84 102.138 408.422 101.984 408.224 101.94L405.628 101.302C404.66 105.13 403.01 109.948 401.294 114.304C400.018 114.414 399.38 114.458 398.852 114.48L399.38 117.032C399.468 117.428 399.534 117.626 399.71 117.626C399.798 117.626 399.842 117.582 399.886 117.538C399.908 117.516 400.172 117.252 400.216 117.23C400.37 117.12 410.842 115.382 412.954 115.03C413.394 116.042 413.614 116.548 413.878 117.494L416.364 116.13Z" fill="white"/>
<path d="M436.076 111.026V108.232H420.434V111.026H436.076Z" fill="white"/>
<path d="M459.088 100.554C458.582 99.784 458.054 99.234 457.416 98.706L456.36 99.586C457.218 100.334 457.724 101.016 458.032 101.434L459.088 100.554ZM457.702 103.15C457.218 102.38 456.712 101.764 456.074 101.104L454.996 101.962C455.634 102.6 456.096 103.194 456.624 104.008L457.702 103.15ZM456.822 115.294C455.018 113.314 453.126 111.444 450.97 109.86C452.378 107.616 452.862 106.494 453.5 104.976C453.83 104.206 454.226 103.898 454.71 103.59L452.884 101.676C452.664 101.896 452.268 102.292 451.85 102.292H442.368V104.844H450.728C447.802 111.906 442.852 114.392 439.97 115.58L441.928 117.604C446.284 115.448 447.912 113.71 449.496 111.928C451.322 113.446 452.884 114.92 454.82 117.428L456.822 115.294Z" fill="white"/>
<path d="M478.096 115.404C476.71 114.524 475.764 113.974 474.312 113.402C474.07 111.774 474.026 110.806 474.026 110.344C474.026 109.706 474.158 109.156 474.862 108.584L472.574 107.352C472.134 107.88 471.628 108.54 471.628 109.596C471.628 110.058 471.892 112.302 471.936 112.808C471.496 112.742 470.946 112.676 470.22 112.676C467.184 112.676 466.326 114.612 466.326 115.8C466.326 116.724 466.788 117.362 467.14 117.67C468.064 118.484 469.318 118.704 470.726 118.704C473.608 118.704 474.268 117.78 474.466 116.02C475.324 116.482 475.896 116.856 476.644 117.472L478.096 115.404ZM472.046 115.008C472.046 115.8 472.068 116.724 470.286 116.724C469.076 116.724 468.46 116.218 468.46 115.734C468.46 115.294 468.988 114.678 470.132 114.678C470.88 114.678 471.65 114.898 472.046 115.008ZM478.712 106.208C477.084 104.976 475.434 104.47 473.806 104.184L472.816 106.076C474.994 106.626 476.182 107.198 477.634 108.078L478.712 106.208ZM472.156 105.064V102.6C471.584 102.798 470.924 103.018 469.626 103.348C469.714 103.062 470.132 101.654 470.154 101.632C470.286 101.5 470.66 101.368 470.66 101.148C470.66 100.906 470.242 100.796 470.132 100.774L467.734 100.246C467.58 101.588 467.316 102.556 466.942 103.876C465.578 104.052 464.654 104.14 463.202 104.162L463.532 106.45C464.566 106.384 465.182 106.318 466.194 106.186C465.292 108.672 464.192 111.51 462.432 114.194L464.786 115.206C465.93 113.116 467.074 110.916 468.856 105.768C470.726 105.438 471.408 105.262 472.156 105.064Z" fill="white"/>
<path d="M502.714 101.632C502.098 100.862 501.482 100.312 500.844 99.828L499.898 100.818C500.8 101.544 501.24 102.072 501.702 102.688L502.714 101.632ZM501.482 104.14C500.8 103.194 500.294 102.71 499.656 102.182L498.71 103.172C499.48 103.788 499.964 104.338 500.536 105.13L501.482 104.14ZM498.094 103.898L497.104 102.116C495.432 102.358 493.76 102.468 492.088 102.468C490.24 102.468 488.37 102.336 486.544 102.072L487.204 104.492C488.238 104.558 488.876 104.58 490.196 104.58C491.868 104.58 492.638 104.536 493.584 104.47C492.748 105.24 491.868 106.032 491.362 106.472L492.88 108.056C494.684 106.516 496.378 105.086 498.094 103.898ZM499.128 116.966L498.974 114.326C497.434 114.634 495.498 115.03 492.176 115.03C488.436 115.03 488.282 114.414 488.282 113.798C488.282 113.006 489.162 112.236 489.514 111.95L487.6 110.388C486.94 110.982 485.466 112.302 485.466 114.282C485.466 116.504 487.578 117.428 492.55 117.428C495.234 117.428 497.434 117.164 499.128 116.966Z" fill="white"/>
<path d="M523.966 108.232V105.988H522.074V101.28C522.074 101.148 522.118 101.104 522.426 100.84C522.558 100.73 522.624 100.642 522.624 100.51C522.624 100.246 522.294 100.18 522.118 100.18L519.654 100.048V105.988H514.726V108.232H519.654V115.932C519.654 116.702 519.478 116.856 517.212 116.724L518.4 119.1C521.37 119.056 522.074 118.792 522.074 116.46V108.232H523.966ZM518.312 113.006C517.894 111.532 517.234 110.432 516.42 109.398L514.286 110.586C515.232 111.884 515.694 112.962 516.046 114.084L518.312 113.006ZM515.694 105.504V103.26H511.69V101.104C511.932 100.862 512.13 100.818 512.13 100.598C512.13 100.422 511.954 100.356 511.844 100.356L509.072 100.18V103.26H505.112V105.504H511.426C510.92 108.034 510.832 108.43 510.282 109.86C508.984 108.122 508.302 107.462 507.488 106.758L505.53 108.188C507.026 109.508 507.884 110.564 509.072 112.28C507.576 114.876 505.86 116.328 504.254 117.648L506.542 119.144C508.72 117.296 509.732 115.844 510.524 114.634C511.118 115.756 511.514 116.592 512.042 117.868L514.352 116.46C513.34 114.458 512.592 113.248 511.91 112.148C512.504 110.828 513.252 109.134 513.934 105.504H515.694Z" fill="white"/>
<path d="M542.182 108.606C541.082 107.154 539.388 105.68 538.31 104.822L536.44 106.67C537.408 107.374 538.904 108.584 540.07 110.278L542.182 108.606ZM546.516 116.768C545.504 113.446 544.272 111.202 543.656 110.102L541.236 111.378C541.962 112.654 543.04 114.766 543.898 117.758L546.516 116.768ZM545.988 104.8V102.556H537.892V101.126C537.892 101.016 538.002 100.972 538.178 100.862C538.42 100.73 538.442 100.62 538.442 100.554C538.442 100.378 538.376 100.29 537.76 100.246L534.966 100.07V102.556H527.662C527.992 105.746 528.014 109.156 528.014 109.508C528.014 114.436 527.156 116.592 526.166 118.572L528.718 119.364C529.664 117.296 530.478 114.898 530.478 107.88C530.478 107.198 530.478 106.076 530.346 104.8H545.988ZM542.138 115.096L539.718 114.172C539.718 114.37 539.718 115.778 539.696 115.844C539.652 116.196 539.454 116.636 538.882 116.636H537.958C537.408 116.636 537.276 116.35 537.276 115.58V109.266C537.276 109.112 537.364 109.046 537.408 109.002C537.672 108.782 537.738 108.738 537.738 108.606C537.738 108.386 537.386 108.32 536.946 108.298L534.46 108.188V117.208C534.46 118.132 534.878 119.166 536.088 119.166H539.938C541.786 119.166 541.984 117.274 542.138 115.096ZM534.218 110.982C534.218 110.762 533.888 110.696 533.69 110.652L531.468 110.19C531.446 111.29 531.072 114.502 530.104 116.614L532.524 117.538C533.272 115.734 533.404 114.722 533.888 111.532C533.91 111.422 533.954 111.378 534.13 111.158C534.174 111.114 534.218 111.07 534.218 110.982Z" fill="white"/>
<path d="M569.506 102.776C568.956 102.028 568.384 101.412 567.79 100.928L566.646 101.764C567.24 102.314 567.768 102.93 568.208 103.656L569.506 102.776ZM567.108 104.008C566.624 103.37 566.03 102.688 565.414 102.138L564.226 103.018C564.908 103.612 565.414 104.162 565.964 104.954L567.108 104.008ZM566.756 109.948C566.756 107.616 563.764 104.074 562.752 102.864L560.97 104.096C563.302 106.802 564.138 108.606 564.138 109.156C564.138 109.684 563.676 109.794 562.884 109.904L564.05 111.994C564.864 111.884 566.756 111.62 566.756 109.948ZM561.762 109.97C561.762 108.012 561.498 105.394 558.528 105.394C557.89 105.394 557.274 105.482 556.922 105.548C557.098 104.558 557.142 104.162 557.252 103.282C557.296 102.996 557.296 102.996 557.56 102.82C557.78 102.688 557.802 102.666 557.802 102.578C557.802 102.402 557.56 102.292 557.274 102.248L554.634 101.874C554.656 103.722 554.59 104.646 554.414 106.054C552.61 106.45 551.862 106.604 550.19 106.868L551.004 109.508C552.104 108.98 552.808 108.694 553.996 108.32C553.116 111.774 552.082 113.952 550.014 116.9L552.302 117.934C554.304 114.898 555.36 112.258 556.482 107.748C556.746 107.704 557.186 107.638 557.67 107.638C559.034 107.638 559.452 108.166 559.452 109.86C559.452 110.916 559.276 113.688 558.286 114.92C557.89 115.404 557.45 115.536 556.768 115.536C556.13 115.536 555.668 115.448 555.272 115.36L555.8 117.736C556.196 117.78 556.79 117.824 557.45 117.824C558.77 117.824 559.496 117.428 559.958 116.966C560.992 115.976 561.762 113.138 561.762 109.97Z" fill="white"/>
<path d="M589.746 103.084V100.774H571.354V103.084H584.84V115.8C584.84 116.482 584.642 116.812 583.894 116.812C583.476 116.812 582.86 116.724 582.2 116.636L583.19 119.166H585.258C586.776 119.166 587.458 118.154 587.458 116.746V103.084H589.746ZM581.76 114.26V105.856H573.576V115.976H576.04V114.26H581.76ZM579.208 111.972H576.04V108.144H579.208V111.972Z" fill="white"/>
<path d="M601.494 117.296V106.978H593.882V118.924H596.214V114.766H599.184V116.24C599.184 116.636 598.986 116.856 598.722 116.878C598.502 116.922 597.512 116.878 597.292 116.878L598.106 118.924H599.668C600.746 118.924 601.494 118.352 601.494 117.296ZM599.184 110.102H596.214V108.848H599.184V110.102ZM599.184 113.094H596.214V111.796H599.184V113.094ZM612.12 105.614L609.942 104.58C609.524 106.582 609.26 106.604 608.886 106.604H606.048C605.674 106.604 605.41 106.472 605.41 106.054V105.372C608.028 104.228 609.502 103.348 609.59 103.282C610.074 102.996 610.14 102.974 610.316 102.974C610.382 102.974 610.69 102.996 610.756 102.996C610.844 102.996 610.932 102.996 610.932 102.864C610.932 102.71 610.712 102.468 610.646 102.402L609.106 100.84C607.852 102.05 606.312 102.754 605.41 103.084V101.368C605.41 101.28 605.454 101.214 605.608 101.126C605.696 101.082 605.806 100.994 605.806 100.884C605.806 100.708 605.674 100.642 605.322 100.598L602.968 100.356V107.088C602.968 108.32 603.826 108.694 605.542 108.694H609.722C610.712 108.694 611.174 108.056 611.416 107.572C611.746 106.956 611.966 106.296 612.12 105.614ZM612.12 115.382L610.118 114.392C609.986 115.052 609.92 115.338 609.678 115.756C609.458 116.174 609.37 116.284 608.886 116.284H606.048C605.674 116.284 605.41 116.152 605.41 115.734V114.832C607.214 113.974 609.458 112.434 610.426 111.686C610.514 111.642 610.58 111.598 610.844 111.598C611.13 111.598 611.218 111.598 611.218 111.422C611.218 111.268 611.042 111.092 610.91 110.982L609.216 109.618C608.138 110.696 606.488 111.884 605.41 112.456V110.41C605.41 110.344 605.454 110.278 605.608 110.168C605.696 110.124 605.806 110.036 605.806 109.948C605.806 109.728 605.564 109.662 605.322 109.64L603.1 109.398V116.856C603.1 118.11 603.87 118.462 605.542 118.462H609.722C610.778 118.462 611.592 117.736 612.12 115.382ZM602.594 105.592C602.044 104.118 601.076 102.578 600.438 101.698L598.612 102.534C598.876 103.04 598.964 103.172 599.074 103.37C598.612 103.458 598.348 103.502 597.006 103.634C597.38 102.974 597.886 101.94 598.172 101.258C598.194 101.214 598.238 101.17 598.458 101.126C598.546 101.104 598.744 101.06 598.744 100.928C598.744 100.774 598.524 100.708 598.216 100.642L595.884 100.114C595.554 101.434 595.048 103.018 594.696 103.832C594.146 103.876 593.728 103.92 592.672 103.942L593.266 106.01C593.288 106.098 593.376 106.384 593.596 106.384C593.662 106.384 593.904 106.142 593.97 106.12C594.146 106.054 595.114 105.944 595.378 105.922C595.818 105.878 598.766 105.46 599.998 105.262C600.174 105.636 600.46 106.252 600.57 106.604L602.594 105.592Z" fill="white"/>
<path d="M633.35 107.396C632.888 106.868 632.448 106.406 631.524 105.724L630.6 106.78C631.326 107.308 631.854 107.792 632.426 108.452L633.35 107.396ZM631.568 109.398C631.018 108.716 630.468 108.254 629.742 107.704L628.84 108.76C629.698 109.42 630.16 109.86 630.644 110.454L631.568 109.398ZM632.294 103.656V101.104C628.136 102.38 621.316 102.908 616.564 102.864L616.938 105.328C619.138 105.02 622.372 104.756 625.32 104.514C624.55 105.218 623.45 106.252 622.416 107.858C621.47 109.288 620.92 110.762 620.92 112.236C620.92 113.732 621.492 115.162 622.548 116.196C624.33 117.978 626.794 118.44 627.96 118.638L628.818 115.954C627.916 115.91 626.376 115.844 624.946 114.832C624.33 114.392 623.362 113.49 623.362 111.972C623.362 110.3 624.418 108.32 626.046 106.692C628.84 103.876 631.26 103.722 632.294 103.656Z" fill="white"/>
<path d="M654.822 105.262V102.886C652.578 103.062 651.896 103.128 648.838 103.304V101.038C648.838 100.95 648.86 100.906 649.014 100.774C649.168 100.642 649.212 100.576 649.212 100.444C649.212 100.224 649.08 100.158 648.574 100.136L646.132 99.982C646.264 101.588 646.264 102.754 646.286 103.436C641.666 103.656 639.774 103.656 638.278 103.656V106.208C641.072 105.856 644.394 105.658 646.352 105.548L646.396 107.198C646.088 107.088 645.78 107.022 645.362 107.022C643.118 107.022 641.908 108.694 641.908 111.114C641.908 112.192 642.15 113.38 643.052 114.172C643.602 114.656 644.284 114.854 644.856 114.854C645.23 114.854 645.56 114.766 646.044 114.634C645.56 116.24 644.218 117.384 642.898 118.242L645.362 119.518C646.154 118.704 647.342 117.472 648.354 115.426C649.344 113.446 649.476 111.818 649.476 111.18C649.476 109.794 649.08 109.024 648.838 108.496V105.416C651.698 105.306 653.15 105.262 654.822 105.262ZM646.814 110.828C646.814 112.39 645.758 112.874 645.296 112.874C644.79 112.874 644.086 112.368 644.086 111.048C644.086 109.882 644.702 109.112 645.582 109.112C645.868 109.112 646.176 109.2 646.396 109.42C646.748 109.794 646.814 110.366 646.814 110.828Z" fill="white"/>
<path d="M662.324 112.478C660.454 112.478 658.914 113.974 658.914 115.866C658.914 117.736 660.454 119.276 662.324 119.276C664.194 119.254 665.712 117.736 665.712 115.866C665.712 113.974 664.172 112.478 662.324 112.478ZM662.324 113.534C663.6 113.534 664.656 114.568 664.656 115.866C664.656 117.164 663.622 118.198 662.324 118.198C661.026 118.22 659.97 117.164 659.97 115.866C659.97 114.568 661.048 113.534 662.324 113.534Z" fill="white"/>
<path d="M20.8967 2.56799C20.8967 2.13599 20.1767 2.09999 19.9967 2.09999L15.3887 1.84799C15.5687 4.72799 15.6407 9.73199 15.6407 10.596C15.6407 21.468 12.5447 24.888 5.16468 27.804L8.29668 31.296C12.0407 29.388 16.7207 26.724 18.8447 20.352C19.9967 16.86 20.0687 14.016 20.0687 6.99599C20.0687 6.63599 19.9967 5.01599 20.0327 4.69199C20.0327 3.68399 20.0327 3.57599 20.5007 3.10799C20.8607 2.81999 20.8967 2.67599 20.8967 2.56799ZM5.92068 2.85599C5.92068 2.53199 5.27268 2.49599 4.98468 2.45999L0.700684 2.09999V19.092H4.98468V3.89999C4.98468 3.79199 5.02068 3.75599 5.56068 3.35999C5.70468 3.21599 5.92068 3.03599 5.92068 2.85599Z" fill="white"/>
<path d="M56.7887 17.112V13.332H44.4407V6.81599H54.4127V3.03599H33.6767V6.81599H40.3007V13.332H30.2567V17.112H40.3007V24.384C40.3007 29.532 44.3687 29.712 47.7887 29.712C49.8407 29.712 54.3767 29.64 55.3127 29.604V25.32C53.8727 25.5 51.8927 25.716 49.1207 25.716C45.7727 25.716 44.4407 25.212 44.4407 23.304V17.112H56.7887Z" fill="white"/>
<path d="M92.2127 18.588V14.016H66.6167V18.588H92.2127Z" fill="white"/>
<path d="M120.941 18.66C119.501 17.4 118.169 16.212 115.325 14.34C112.229 12.324 111.041 11.856 109.205 11.064L107.513 13.728V4.25999C107.513 4.07999 108.449 3.50399 108.449 3.28799C108.449 2.85599 107.693 2.74799 107.585 2.71199L103.265 1.95599V30.468H107.513V14.916C111.833 16.716 115.433 19.632 118.097 22.116L120.941 18.66Z" fill="white"/>
<path d="M158.705 12.648C157.949 11.784 157.229 11.028 155.717 9.91199L154.205 11.64C155.393 12.504 156.257 13.296 157.193 14.376L158.705 12.648ZM155.789 15.924C154.889 14.808 153.989 14.052 152.801 13.152L151.325 14.88C152.729 15.96 153.485 16.68 154.277 17.652L155.789 15.924ZM156.977 6.52799V2.35199C150.173 4.43999 139.013 5.30399 131.237 5.23199L131.849 9.26399C135.449 8.75999 140.741 8.32799 145.565 7.93199C144.305 9.08399 142.505 10.776 140.813 13.404C139.265 15.744 138.365 18.156 138.365 20.568C138.365 23.016 139.301 25.356 141.029 27.048C143.945 29.964 147.977 30.72 149.885 31.044L151.289 26.652C149.813 26.58 147.293 26.472 144.953 24.816C143.945 24.096 142.361 22.62 142.361 20.136C142.361 17.4 144.089 14.16 146.753 11.496C151.325 6.88799 155.285 6.63599 156.977 6.52799Z" fill="white"/>
<path d="M195.677 16.248C195.677 8.21999 189.773 3.14399 182.285 3.14399C172.997 3.14399 166.409 10.416 166.409 18.408C166.409 24.852 172.313 28.092 173.609 28.092C175.481 28.092 177.137 25.068 178.217 22.836C179.405 20.424 181.529 15.384 182.681 6.81599C184.013 6.92399 186.533 7.06799 188.801 9.22799C190.817 11.136 191.393 13.548 191.393 15.528C191.393 17.112 190.997 20.1 188.801 22.692C186.605 25.32 183.941 26.076 182.321 26.544L184.985 30.252C186.929 29.46 190.673 27.912 193.373 23.916C194.705 21.936 195.677 19.416 195.677 16.248ZM178.397 7.46399C177.677 13.08 174.581 22.476 172.709 22.476C172.061 22.476 170.405 20.964 170.405 18.048C170.405 15.852 171.449 12.504 174.005 10.056C175.733 8.36399 177.353 7.82399 178.397 7.46399Z" fill="white"/>
<path d="M232.901 1.52399C232.901 1.19999 232.325 1.09199 232.109 1.09199L228.473 0.803992V27.084C228.473 28.2 227.573 28.2 227.177 28.2C226.961 28.2 225.809 28.164 224.333 28.092L226.349 31.944C230.453 31.836 232.217 31.692 232.217 28.092V2.56799C232.217 2.38799 232.289 2.31599 232.541 2.06399C232.757 1.84799 232.901 1.66799 232.901 1.52399ZM226.457 5.33999C226.457 4.94399 225.665 4.90799 225.413 4.90799L222.209 4.79999V24.672H225.809V6.13199C226.205 5.77199 226.457 5.59199 226.457 5.33999ZM221.057 14.088V10.596H213.677V8.11199H219.797V4.61999H213.677V2.06399C214.001 1.77599 214.325 1.55999 214.325 1.27199C214.325 0.983992 213.713 0.875994 213.497 0.875994L209.897 0.731994V4.61999H207.773L208.097 3.75599C208.493 3.61199 208.889 3.61199 208.889 3.25199C208.889 2.92799 208.349 2.81999 208.241 2.78399L204.857 2.09999C203.813 5.48399 202.517 7.64399 201.725 8.832L205.505 9.91199C206.009 8.93999 206.153 8.61599 206.369 8.11199H209.897V10.596H202.301V14.088H209.897V16.32H203.597V30.036H207.377V19.776H209.897V31.836H213.677V19.776H216.233V25.32C216.233 26.364 215.477 26.328 213.929 26.328L215.549 29.712C218.141 29.28 220.049 28.992 220.049 26.724V16.32H213.677V14.088H221.057Z" fill="white"/>
<path d="M269.837 9.80399V5.95199H256.373C256.517 5.59199 257.345 3.43199 257.417 3.35999C257.489 3.28799 257.993 3.07199 258.101 2.99999C258.281 2.89199 258.317 2.74799 258.317 2.63999C258.317 2.49599 258.173 2.35199 257.993 2.27999L253.673 0.983993C251.981 6.77999 250.397 9.73199 246.761 13.512L250.577 15.528C251.945 13.908 253.097 12.396 254.501 9.80399H255.725V31.548H259.901V24.708H269.261V20.712H259.901V17.112H268.109V13.44H259.901V9.80399H269.837ZM249.965 2.67599C249.965 2.56799 249.857 2.38799 249.605 2.31599L244.889 1.19999C243.017 7.21199 241.397 10.128 237.545 14.304L241.145 16.536C241.577 16.068 241.937 15.672 242.333 15.168V31.584H246.437V10.236C246.437 9.94799 246.833 9.65999 246.977 9.58799C247.121 9.44399 247.373 9.29999 247.373 9.01199C247.373 8.86799 247.265 8.68799 247.193 8.65199L246.689 8.39999C247.841 6.23999 248.201 5.41199 248.813 3.97199C249.029 3.46799 249.101 3.43199 249.677 3.10799C249.821 2.99999 249.965 2.85599 249.965 2.67599Z" fill="white"/>
<path d="M303.533 25.752C301.265 24.312 299.717 23.412 297.341 22.476C296.945 19.812 296.873 18.228 296.873 17.472C296.873 16.428 297.089 15.528 298.241 14.592L294.497 12.576C293.777 13.44 292.949 14.52 292.949 16.248C292.949 17.004 293.381 20.676 293.453 21.504C292.733 21.396 291.833 21.288 290.645 21.288C285.677 21.288 284.273 24.456 284.273 26.4C284.273 27.912 285.029 28.956 285.605 29.46C287.117 30.792 289.169 31.152 291.473 31.152C296.189 31.152 297.269 29.64 297.593 26.76C298.997 27.516 299.933 28.128 301.157 29.136L303.533 25.752ZM293.633 25.104C293.633 26.4 293.669 27.912 290.753 27.912C288.773 27.912 287.765 27.084 287.765 26.292C287.765 25.572 288.629 24.564 290.501 24.564C291.725 24.564 292.985 24.924 293.633 25.104ZM304.541 10.704C301.877 8.68799 299.177 7.85999 296.513 7.39199L294.893 10.488C298.457 11.388 300.401 12.324 302.777 13.764L304.541 10.704ZM293.813 8.832V4.79999C292.877 5.12399 291.797 5.48399 289.673 6.02399C289.817 5.55599 290.501 3.25199 290.537 3.21599C290.753 2.99999 291.365 2.78399 291.365 2.42399C291.365 2.02799 290.681 1.84799 290.501 1.81199L286.577 0.947992C286.325 3.14399 285.893 4.72799 285.281 6.88799C283.049 7.17599 281.537 7.31999 279.161 7.35599L279.701 11.1C281.393 10.992 282.401 10.884 284.057 10.668C282.581 14.736 280.781 19.38 277.901 23.772L281.753 25.428C283.625 22.008 285.497 18.408 288.413 9.98399C291.473 9.44399 292.589 9.15599 293.813 8.832Z" fill="white"/>
<path d="M329.561 4.83599C326.789 3.17999 323.369 1.88399 320.957 1.12799L319.409 4.69199C323.693 6.20399 325.421 7.13999 327.725 8.61599L329.561 4.83599ZM336.185 20.892C336.185 15.672 331.973 13.008 328.193 13.008C326.357 13.008 322.577 13.692 319.337 16.644C319.805 13.944 320.561 11.28 321.497 8.72399L317.357 7.10399C316.565 9.83999 314.837 15.96 314.549 20.856L317.681 22.512C321.389 18.192 325.025 16.752 327.509 16.752C330.209 16.752 332.045 18.228 332.045 20.532C332.045 23.844 328.985 27.336 322.289 27.336C320.633 27.336 318.941 27.084 317.789 26.94L319.697 31.368C324.161 31.26 336.185 31.044 336.185 20.892Z" fill="white"/>
<path d="M370.241 30L360.161 3.71999H354.653L344.573 30H349.937L351.881 24.348H362.933L364.877 30H370.241ZM361.529 20.28H353.321L356.813 10.164L357.425 7.85999L358.001 10.164L361.529 20.28Z" fill="white"/>
<path d="M378.873 30V3.71999H374.013V30H378.873Z" fill="white"/>
<path d="M405.901 30C405.181 29.496 404.209 28.812 404.209 26.184V23.52C404.209 18.588 401.725 17.832 399.169 17.472C401.401 16.968 402.265 16.5 403.273 15.348C404.317 14.16 404.893 12.576 404.893 10.848C404.893 6.74399 401.689 3.71999 396.793 3.71999H384.409V30H389.269V19.704H396.001C398.809 19.704 399.385 22.152 399.385 24.024V27.192C399.385 29.1 399.709 29.496 400.249 30H405.901ZM399.709 11.496C399.709 14.196 398.053 15.6 395.353 15.6H389.269V7.82399H396.145C398.305 7.82399 399.709 9.11999 399.709 11.496Z" fill="white"/>
<path d="M445.738 16.428C445.738 9.40799 441.778 3.71999 434.542 3.71999H422.806V30H434.542C441.85 30 445.738 23.664 445.738 16.428ZM440.482 16.248C440.482 19.56 439.366 25.896 434.398 25.896H427.63V7.82399H434.398C437.206 7.82399 440.482 10.128 440.482 16.248Z" fill="white"/>
<path d="M467.007 21.72C466.899 18.984 466.719 16.356 465.063 13.836C463.623 11.64 461.139 10.164 457.935 10.164C453.147 10.164 448.863 13.44 448.863 20.352C448.863 26.976 452.823 30.468 458.079 30.468C464.379 30.468 466.035 25.896 466.647 24.276H461.859C461.067 26.4 459.195 26.616 458.331 26.616C454.515 26.616 453.795 22.692 453.615 21.72H467.007ZM461.859 18.624H453.615C453.831 17.4 454.443 14.052 457.971 14.052C460.347 14.052 461.751 15.6 461.859 18.624Z" fill="white"/>
<path d="M485.571 24.456C485.571 22.764 484.779 21.288 483.411 20.316C482.295 19.56 482.115 19.452 477.291 17.616C475.779 17.04 474.879 16.716 474.879 15.744C474.879 15.024 475.635 13.944 477.543 13.944C479.595 13.944 480.207 15.168 480.315 16.572H485.067C484.851 14.376 484.491 13.368 483.303 12.18C481.575 10.488 479.271 10.164 477.651 10.164C473.223 10.164 470.127 12.792 470.127 16.032C470.127 19.56 472.791 20.496 476.751 21.936C479.811 23.016 480.783 23.448 480.783 24.78C480.783 26.688 478.407 26.688 478.011 26.688C475.059 26.688 474.663 24.6 474.519 23.664H469.767C469.983 26.112 470.415 27.084 471.531 28.2C473.547 30.216 476.427 30.468 477.795 30.468C482.007 30.468 485.571 28.236 485.571 24.456Z" fill="white"/>
<path d="M494.427 8.39999V3.71999H489.675V8.39999H494.427ZM494.427 30V10.632H489.675V30H494.427Z" fill="white"/>
<path d="M517.027 13.656V10.164C515.083 10.164 514.507 10.452 513.067 12.072C512.347 11.424 510.835 10.164 507.343 10.164C502.915 10.164 499.135 12.288 499.135 16.392C499.135 19.308 500.899 20.496 501.799 21.072C500.719 21.756 498.955 22.872 498.955 24.708C498.955 26.472 500.575 27.048 501.511 27.372C500.683 27.516 498.379 27.912 498.379 30.684C498.379 33.852 502.087 34.824 506.623 34.824C512.671 34.824 516.451 32.988 516.451 29.532C516.451 28.272 515.983 27.156 515.227 26.4C513.787 24.96 511.627 24.744 506.659 24.384C505.363 24.276 503.779 24.096 503.779 23.196C503.779 22.692 504.139 22.44 505.039 22.188C505.543 22.26 506.047 22.332 507.091 22.332C512.671 22.332 514.939 19.308 514.939 16.212C514.939 15.528 514.831 15.132 514.723 14.772C515.731 13.656 516.163 13.656 517.027 13.656ZM510.655 16.284C510.655 18.66 507.775 18.804 506.947 18.804C506.083 18.804 503.419 18.732 503.419 16.464C503.419 15.024 504.607 13.764 507.163 13.764C508.999 13.764 510.655 14.448 510.655 16.284ZM511.303 29.784C511.303 30.576 511.015 31.296 507.451 31.296C503.455 31.296 503.419 30.36 503.419 29.748C503.419 28.74 504.031 28.452 505.327 27.984C505.795 28.02 507.991 28.056 508.423 28.092C509.755 28.236 511.303 28.596 511.303 29.784Z" fill="white"/>
<path d="M536.635 30V17.004C536.635 12.612 534.259 10.164 530.155 10.164C526.375 10.164 524.935 12.576 524.179 13.908L524.359 12.252V10.632H519.607V30H524.359V18.696C524.359 15.132 526.663 14.16 528.607 14.16C530.983 14.16 531.883 15.6 531.883 17.76V30H536.635Z" fill="white"/>
<path d="M568.663 8.47199V4.29599C567.295 4.76399 564.343 5.77199 560.131 5.77199C558.187 5.77199 556.567 5.51999 555.523 5.37599V9.33599C557.431 9.51599 559.087 9.51599 559.375 9.51599C563.371 9.51599 567.007 8.79599 568.663 8.47199ZM570.391 27.372V22.908C569.095 23.268 566.287 24.024 562.183 24.024C558.547 24.024 558.187 23.052 558.151 19.632L554.227 20.172C554.335 26.256 555.703 28.02 562.255 28.02C566.071 28.02 568.483 27.66 570.391 27.372ZM551.563 20.964L549.439 19.812C548.647 21.216 548.431 21.576 547.999 22.332C547.495 20.784 547.495 18.012 547.495 17.4C547.495 11.964 549.043 5.44799 549.583 5.12399C549.655 5.08799 550.123 4.90799 550.195 4.87199C550.339 4.76399 550.375 4.61999 550.375 4.54799C550.375 4.25999 549.691 4.00799 549.439 3.89999L545.767 2.56799C545.263 4.69199 544.759 6.88799 544.255 10.776C544.003 12.9 543.715 15.564 543.715 17.868C543.715 20.64 544.111 23.988 545.191 27.336C545.623 28.668 545.947 29.244 546.523 30.18L549.367 29.064C549.727 26.76 550.267 23.916 551.563 20.964Z" fill="white"/>
<path d="M581.119 26.184C581.623 25.644 581.695 25.608 582.199 25.14C585.475 28.596 586.375 29.568 587.923 31.224L591.739 29.712C591.775 25.32 591.775 24.672 591.811 18.948C593.071 18.48 595.159 17.688 597.283 17.688C600.559 17.688 602.287 20.064 602.287 22.476C602.287 24.996 600.811 26.292 599.515 26.292C598.399 26.292 598.111 25.356 597.679 23.88L594.331 25.212C594.835 27.84 595.339 30.324 599.299 30.324C603.151 30.324 606.031 26.832 606.031 22.404C606.031 17.904 602.935 14.196 597.355 14.196C594.799 14.196 592.855 14.736 591.811 15.024L591.847 11.46C593.503 11.136 595.195 10.776 597.463 9.91199V5.80799C595.447 6.74399 594.223 7.17599 591.919 7.67999C591.955 6.99599 592.063 3.46799 592.207 3.25199C592.279 3.14399 592.819 2.71199 592.819 2.56799C592.819 2.38799 592.819 2.13599 591.811 1.99199L587.815 1.45199C587.851 3.79199 587.851 4.11599 587.887 8.18399C586.843 8.25599 586.303 8.29199 585.403 8.29199C583.747 8.29199 582.883 8.21999 581.875 8.11199L582.415 12.18C584.431 12.252 585.727 12.216 587.887 12L587.923 16.644C585.511 17.94 584.827 18.336 578.923 22.152L581.119 26.184ZM587.923 26.472C587.275 25.896 585.799 24.528 584.647 23.088C586.159 21.972 586.915 21.504 587.923 20.892V26.472ZM608.767 11.244C607.003 9.87599 604.627 8.25599 601.675 7.17599L599.335 10.344C602.935 11.676 604.807 13.044 606.427 14.448L608.767 11.244Z" fill="white"/>
<path d="M645.703 17.724V13.8H637.243V6.31199C639.259 5.91599 641.095 5.44799 641.383 5.37599C641.743 5.30399 643.219 4.79999 643.543 4.79999C643.759 4.79999 644.551 5.05199 644.731 5.05199C645.163 5.05199 645.199 4.65599 645.199 4.65599C645.199 4.33199 644.911 4.00799 644.767 3.86399L642.031 0.983993C635.731 3.10799 630.151 3.71999 625.111 3.86399L626.731 7.49999C629.611 7.31999 631.267 7.13999 633.103 6.95999V13.8H624.391V17.724H633.103V26.652H625.219V30.54H644.659V26.652H637.243V17.724H645.703ZM625.543 2.49599C625.543 2.09999 624.931 1.91999 624.751 1.84799L620.935 0.623993C619.675 5.48399 617.011 10.74 613.375 14.484L616.975 16.536C617.515 15.996 617.947 15.528 618.487 14.88V31.548H622.447V9.87599C622.447 9.76799 622.771 9.33599 622.807 9.26399C622.951 9.08399 623.023 8.90399 623.023 8.75999C623.023 8.32799 622.627 8.11199 622.447 7.96799C623.275 6.52799 623.743 5.41199 624.535 3.53999C624.679 3.17999 624.787 3.14399 625.219 2.92799C625.435 2.81999 625.543 2.67599 625.543 2.49599Z" fill="white"/>
<path d="M681.235 12.72L681.199 8.75999C677.887 9.29999 676.735 9.44399 674.719 9.73199L674.899 4.36799C674.935 4.22399 674.935 4.11599 675.223 3.93599C675.547 3.71999 675.619 3.64799 675.619 3.46799C675.619 3.25199 675.619 3.03599 674.431 2.89199L670.759 2.45999C671.155 5.87999 671.119 8.50799 671.083 10.2C666.943 10.776 665.611 10.92 663.451 11.172C663.451 7.03199 663.487 6.81599 663.523 6.23999C663.523 6.16799 663.559 5.95199 663.883 5.69999C664.423 5.33999 664.495 5.30399 664.495 5.12399C664.495 4.65599 664.027 4.61999 663.271 4.51199L659.203 3.97199C659.383 6.49199 659.419 10.2 659.419 11.676C656.719 11.964 655.639 12.072 652.795 12.324L652.939 16.284C656.179 15.78 656.539 15.744 659.419 15.312L659.455 20.244C659.491 26.94 660.463 29.46 668.563 29.46C673.387 29.46 676.627 29.1 678.211 28.92L678.535 24.6C676.879 25.068 674.107 25.86 669.283 25.86C663.955 25.86 663.307 24.816 663.307 20.712C663.307 20.496 663.307 18.336 663.379 14.736C666.619 14.304 667.231 14.196 671.047 13.728C671.047 17.652 670.939 18.3 668.743 18.3C667.663 18.3 667.159 18.156 666.619 18.048L667.519 21.828C667.879 21.9 668.671 21.972 669.607 21.972C672.307 21.972 673.459 21.18 673.999 19.668C674.359 18.66 674.431 17.58 674.611 13.332C677.995 12.936 679.651 12.792 681.235 12.72Z" fill="white"/>
<path d="M695.203 25.14V30H700.027V25.14H695.203ZM695.203 3.71999V11.028L696.427 22.908H698.803L700.027 11.028V3.71999H695.203Z" fill="white"/>
</svg>
