<svg fill="none" height="229" viewBox="0 0 769 229" width="769" xmlns="http://www.w3.org/2000/svg"><g fill="#fff"><path d="m100.028 123.496.9-.972c-.288-.18-.468-.288-1.0442-.612 2.8082-1.836 5.1122-3.384 8.4962-5.832l-1.764-2.088h-22.2482v3.276h16.3082c-1.0442.828-2.1962 1.656-4.2842 3.024-.756-.396-2.988-1.476-5.112-2.232l-1.692 2.808c2.7 1.044 4.032 1.656 5.58 2.628h-13.932v3.492h13.248v11.916c0 .72-.648 1.08-1.332 1.08-.324 0-1.44-.036-3.492-.468l1.26 4.176h3.456c3.168 0 3.924-1.296 3.924-4.248v-12.456h7.4882c-1.908 2.844-3.204 4.572-4.896 6.552l3.024 2.124c2.232-2.7 4.644-5.76 7.524-10.368l-2.196-1.8z"/><path d="m126.452 116.404v18.792h10.584v-21.42h-10.584v2.52c-1.872-1.692-4.068-2.736-5.076-3.204l-2.16 3.24c1.62.684 3.744 1.908 5.256 3.132zm7.308 6.48v3.24h-3.996v-3.24zm0-6.012v3.24h-3.996v-3.24zm0 12.024v3.312h-3.996v-3.312zm-9.684-4.752c-1.656-1.044-4.104-2.16-6.048-2.556l-1.656 3.132c2.772.792 4.788 1.98 5.868 2.664zm-1.368 5.256c-1.116 3.456-3.456 8.136-6.012 11.52l3.24 2.592c.252.18.504.18.54.18.108 0 .324-.108.324-.432 0-.108-.144-.612-.144-.72s.36-.792.432-.9c1.656-3.384 3.24-6.768 4.5-10.296zm10.044 7.956c.9 1.548 2.916 4.392 4.176 5.76l3.024-2.196c-1.512-1.404-3.384-3.924-4.284-5.436zm6.156-21.924v19.44h3.384v-17.316c0-.324.216-.612.36-.792.072-.108.468-.504.468-.612 0-.288-.432-.36-.54-.36zm-9.972 20.124c-1.872 3.096-3.564 4.68-5.364 5.976l2.736 2.124c1.728-1.44 2.736-2.448 3.636-3.636.18-.288 1.08-1.62 1.368-1.908.108-.108.972-.468.972-.648 0-.144-.36-.36-.504-.432zm13.176 8.316c2.7-.036 5.868-.18 5.868-3.06v-25.38c0-.288.144-.612.288-.792.252-.324.504-.612.504-.72 0-.252-.432-.288-.612-.324l-3.708-.396v25.596c0 1.332-1.08 1.512-2.088 1.512-.396 0-1.116-.036-1.8-.108z"/><path clip-rule="evenodd" d="m162.877 214.514c55.194-27.228 77.865-94.044 50.637-149.2374l1.794-.8849c27.716 56.1843 4.638 124.1993-51.546 151.9163-56.185 27.716-124.1998 4.639-151.9163-51.546-27.7166-56.184-4.63873-124.1995 51.5457-151.916l.8849 1.7936c-55.19391 27.2278-77.8649 94.0434-50.637 149.2374 27.2278 55.194 94.0437 77.865 149.2377 50.637z" fill-rule="evenodd"/><path clip-rule="evenodd" d="m116.903 217.241c56.699-1.837 101.174-49.29 99.337-105.989l1.999-.065c1.873 57.803-43.468 106.18-101.271 108.053-57.8039 1.872-106.1808-43.469-108.05328-101.272-1.87251-57.8035 43.46848-106.1804 101.27228-108.05296l.064 1.99896c-56.6991 1.8367-101.17408 49.2897-99.3373 105.989 1.8367 56.7 49.2897 101.175 105.9893 99.338z" fill-rule="evenodd"/><path clip-rule="evenodd" d="m73.5443 200.427c47.4137 22.11 103.7727 1.597 125.8827-45.817l1.812.845c-22.576 48.415-80.125 69.361-128.54 46.785-48.4147-22.576-69.36103-80.126-46.7849-128.5404 22.5762-48.4148 80.1259-69.36109 128.5409-46.7849l-.846 1.8126c-47.413-22.10936-103.7729-1.5962-125.8822 45.8175-22.10939 47.4132-1.5962 103.7732 45.8175 125.8822z" fill-rule="evenodd"/><path d="m359.583 139.264h-3.888v-3.888h3.888zm-6.516-11.484v3.024h9.072v-3.024zm2.628 14.4h3.888v1.296h3.06v-10.98h-9.972v11.376h3.024zm-2.628-19.152v3.06h9.072v-3.06zm19.8 13.536c-1.188.36-2.412.72-3.852 1.116v-7.344h2.412v-3.384h-8.136v3.384h2.232v8.244c-1.404.36-1.908.468-2.412.576l.864 3.348c.18.72.396.792.576.792.216 0 .36-.108.432-.36.108-.36.072-.36.54-.54 1.044-.36 6.192-2.196 7.344-2.628zm-19.8-23.4v3.204h8.856v-3.204zm-1.296 4.86v3.312h11.34v-3.312zm24.48-3.168c.576.648 1.836 2.16 2.772 4.032l2.988-1.656c-.828-1.656-1.764-2.88-3.024-4.032zm-4.572-2.484c0 3.168 0 3.564.108 6.768h-7.74v3.924h7.848c.216 6.984 2.412 20.844 7.848 20.844 2.304 0 2.772-3.816 2.916-8.1l-2.988-1.728c-.072 1.584-.18 4.536-.756 4.536s-1.476-3.096-1.728-3.924c-1.296-4.572-1.476-7.848-1.728-11.628h6.984v-3.924h-7.092c0-.792-.072-4.5.072-4.968.072-.144.828-.792.828-.972 0-.252-.468-.504-1.008-.54z"/><path d="m394.251 113.092c-1.332 4.104-3.924 9.108-7.344 13.032l2.844 2.664c1.116-1.332 1.584-2.088 2.016-2.736v17.712h3.672v-21.564c0-.18 0-.288.288-.504.612-.504.684-.576.684-.756 0-.288-.54-.576-1.116-.828.972-1.872 1.872-3.6 2.232-4.464.144-.252.216-.396.432-.504.72-.36.828-.432.828-.684 0-.144 0-.324-.756-.504zm7.812-.108c-1.116 4.932-3.528 9.288-6.552 12.744l3.204 2.124c.792-.972 1.944-2.376 3.996-6.444h1.512v22.356h3.636v-7.272h9.72v-3.6h-9.72v-3.96h8.604v-3.6h-8.604v-3.924h10.224v-3.276h-13.752c.288-.684 1.332-3.096 1.728-3.276.324-.144.612-.288.612-.432 0-.216-.324-.432-.756-.54z"/><path d="m630.832 143.8h3.24v-12.564h2.952v5.796c0 1.404-1.188 1.296-1.98 1.188l1.152 3.456c3.744-.144 4.392-1.584 4.392-3.384v-10.044h-6.516v-2.448h7.452v-3.168h-7.452v-2.592h6.336v-3.096h-6.336v-2.52c0-.18.72-.864.72-1.08 0-.36-.252-.324-.9-.36l-3.06-.108v4.068h-2.412c.072-.18.36-1.116.504-1.26.144-.072.828-.36.828-.504 0-.252-.396-.324-.612-.36l-3.492-.72c-.432 2.7-1.116 4.896-2.556 6.984l3.204 1.152c.144-.288.828-1.656 1.08-2.196h3.456v2.592h-7.992v3.168h7.992v2.448h-6.372v13.716h3.492v-10.728h2.88zm11.916-6.984h3.528v-18.324c0-.252.18-.468.36-.648.144-.108.324-.324.324-.468 0-.216-.18-.252-.648-.288l-3.564-.252zm3.924 7.056c4.284-.36 5.94-.648 5.94-4.428v-24.804c0-.144.144-.324.252-.468.324-.36.468-.504.468-.612 0-.216-.324-.216-.684-.252l-3.744-.324v25.56c0 1.152-.18 1.656-1.44 1.656-.36 0-2.16-.108-2.556-.108z"/><path d="m666.472 113.092c-1.332 4.104-3.924 9.108-7.344 13.032l2.844 2.664c1.116-1.332 1.584-2.088 2.016-2.736v17.712h3.672v-21.564c0-.18 0-.288.288-.504.612-.504.684-.576.684-.756 0-.288-.54-.576-1.116-.828.972-1.872 1.872-3.6 2.232-4.464.144-.252.216-.396.432-.504.72-.36.828-.432.828-.684 0-.144 0-.324-.756-.504zm7.812-.108c-1.116 4.932-3.528 9.288-6.552 12.744l3.204 2.124c.792-.972 1.944-2.376 3.996-6.444h1.512v22.356h3.636v-7.272h9.72v-3.6h-9.72v-3.96h8.604v-3.6h-8.604v-3.924h10.224v-3.276h-13.752c.288-.684 1.332-3.096 1.728-3.276.324-.144.612-.288.612-.432 0-.216-.324-.432-.756-.54z"/><path d="m75.7283 81.9398-6.0721 16.06h3.0581l1.188-3.454h6.93l1.2099 3.454h3.0361l-6.072-16.06zm1.65 2.596 2.662 7.7h-5.346z"/><path d="m88.0216 81.9398v16.06h2.772v-16.06z"/><path d="m99.2834 97.5158c.132-1.298.462-3.036 1.4296-4.642l-1.4516-1.1c-.462.858-.66 1.166-.858 1.452-.132-.792-.176-1.606-.176-2.178 0-3.388 1.254-8.294 1.694-8.47.066-.022.2636-.088.3296-.132.044-.022.044-.088.044-.132 0-.176-.132-.242-.5716-.418l-2.178-.88c-1.232 6.072-1.518 7.436-1.518 9.878 0 2.398.418 5.17 1.606 7.216zm12.3416-15.048c-1.672.506-3.344.748-5.104.748-1.518 0-2.288-.176-3.366-.44l.022 2.31c.792.286 2.354.286 2.838.286 2.376 0 4.246-.352 5.566-.594zm.66 11.682c-2.772.638-4.642.66-5.17.66-1.892 0-2.618-.638-2.618-1.782 0-.374.044-.836.154-1.21l-2.244.198c-.22 4.18.792 5.148 5.412 5.148 1.716 0 2.948-.066 4.4-.286z"/><path d="m133.999 95.3598c-2.684-1.87-4.29-2.464-6.248-3.014-.154-1.892-.242-3.366-.286-5.302 2.86-.044 4.576-.308 5.83-.55v-2.574c-1.738.638-3.828.836-5.742.902.11-1.408.264-2.596.396-2.926.044-.088.462-.462.462-.594 0-.22-.528-.33-.924-.396l-2.354-.44c.044.418.088.814.11 1.804 0 .528-.044 3.08-.044 3.674 0 1.452.066 2.684.264 5.984-.374-.044-1.034-.11-1.782-.11-3.234 0-5.06 1.342-5.06 3.432 0 3.124 4.092 3.124 5.038 3.124 2.024 0 4.312-.132 4.312-2.926 0-.242-.022-.572-.022-.748 1.54.572 2.794 1.078 4.598 2.772zm-8.448-1.276c.022.946.022 1.056-.022 1.21-.264 1.012-2.046 1.012-2.376 1.012-1.078 0-2.244-.374-2.244-1.232 0-.638.726-1.254 2.354-1.254.77 0 1.914.198 2.288.264z"/><path d="m142.953 93.7978c2.53-2.772 4.136-4.554 7.172-4.554s3.542 1.826 3.542 3.08c0 1.694-.902 2.464-1.584 3.036-.308-.682-1.298-2.882-4.202-2.882-2.464 0-3.432 1.54-3.432 2.97 0 2.816 3.036 3.19 4.51 3.19 3.982 0 7.062-2.486 7.062-6.292 0-1.848-.836-5.082-5.214-5.082-.836 0-1.43.132-1.826.242 2.288-2.618 3.52-4.004 4.862-4.994l-1.012-1.738c-1.936.814-5.83 1.144-7.084 1.144-.616 0-1.672-.066-2.288-.11l.374 2.53c2.332-.154 3.014-.22 5.236-.506-2.2 3.124-4.972 5.786-7.986 8.14zm7.106 2.574c-.264.088-.77.22-1.364.22-.946 0-2.112-.374-2.112-1.21 0-.55.572-1.034 1.276-1.034 1.606 0 2.002 1.364 2.2 2.024z"/><path d="m330.615 82.732c.154-.33.462-1.1.66-1.606.044-.11.154-.264.264-.308.286-.132.396-.198.396-.33 0-.176-.264-.242-.726-.264l-2.222-.154c-.088.374-.352 1.584-.946 2.662h-3.85v16.28h2.266v-1.232h9.306v1.232h2.244v-16.28zm5.148 8.602h-9.306v-2.288h9.306zm0-4.29h-9.306v-2.266h9.306zm0 8.69h-9.306v-2.398h9.306z"/><path d="m349.645 82.6c.572-.044 1.32-.154 2.002-.286.176-.044.484-.11.616-.132.154.044.594.242.704.242.154 0 .242-.088.242-.198 0-.132-.11-.286-.264-.528l-.99-1.474c-.836.308-2.574.968-6.402.968-.704 0-1.188-.022-1.65-.044l.99 1.694c1.144 0 1.782-.022 2.816-.088v.836h-4.334v1.584h4.334v.902h-3.542v5.852h3.542v.968h-3.718v1.54h3.718v1.298c-1.364.132-1.936.176-4.268.352l.264 1.892c.022.22.066.484.242.484.11 0 .418-.484.528-.528.352-.11 7.282-.946 8.646-1.144-.462.572-.748.836-1.364 1.298l2.046 1.408c2.882-3.388 3.828-6.556 4.312-12.364h1.562c-.022 1.914-.11 8.25-1.034 9.526-.22.286-.418.286-2.156.286l1.012 2.2c1.452-.022 3.058-.066 3.63-2.904.242-1.166.726-4.224.748-11.154h-3.63c0-.462-.022-2.816-.022-3.344 0-.286.022-.44.22-.572.374-.264.462-.352.462-.462 0-.22-.308-.242-.77-.264l-2.222-.11c.088.968.176 2.288.132 4.752h-1.804v2.046h1.694c-.286 5.126-1.672 7.7-2.442 9.152v-1.1c-.55.044-3.234.308-3.85.374v-1.122h3.828v-1.54h-3.828v-.968h3.652v-5.852h-3.652v-.902h4.224v-1.584h-4.224zm-1.936 5.808h-1.584v-1.056h1.584zm3.696 0h-1.76v-1.056h1.76zm-3.696 1.21v1.1h-1.584v-1.1zm3.696 0v1.1h-1.76v-1.1z"/><path d="m366.233 91.048c.418-.462.814-.88 1.87-2.2v10.054h2.266v-12.584c0-.154 0-.264.176-.352.396-.22.44-.22.44-.33 0-.198-.308-.44-.484-.572.462-.814.946-1.738 1.408-2.794.11-.22.176-.264.308-.286.286-.066.44-.088.44-.264 0-.154-.264-.286-.44-.374l-2.134-1.056c-.902 2.64-2.178 5.72-5.676 9.196zm7.81-10.78v16.06c0 1.188.264 2.2 2.31 2.2h4.576c1.76 0 2.926-.088 3.124-3.322l-2.442-1.1c-.154 2.178-.308 2.222-1.562 2.222h-2.728c-.858 0-1.034-.242-1.034-1.012v-4.378c2.728-2.112 4.422-3.586 6.622-6.226.154-.198.242-.264.352-.264.462-.044.594-.044.594-.264 0-.198-.308-.352-.462-.44l-2.178-1.166c-.968 1.584-2.53 3.85-4.928 5.742v-6.798c0-.11 0-.242.154-.352.374-.22.396-.242.396-.396 0-.22-.264-.242-.55-.264z"/><path d="m398.023 98.286c1.65-.616 6.6-2.464 6.6-8.624 0-4.62-3.212-7.898-8.294-7.898-5.588 0-9.482 4.268-9.482 9.108 0 4.4 3.168 6.336 4.532 6.336 1.298 0 2.354-2.398 2.574-2.904 1.848-4.158 2.376-7.854 2.728-10.45 1.298.198 5.478.814 5.478 5.786 0 5.016-4.4 6.226-5.786 6.622zm-3.828-14.19c-.22 2.948-.946 5.874-2.112 8.602-.286.66-.682 1.562-1.166 1.562-.77 0-1.892-1.43-1.892-3.388 0-1.518.55-5.192 5.17-6.776z"/><path d="m413.269 97.736h2.09v-1.056h6.072v-4.114h-8.162zm6.05-2.508h-3.96v-1.254h3.96zm-7.15-6.49h10.406v-4.29h-10.406zm8.14-2.794v1.298h-5.918v-1.298zm-1.694-4.488v-.352c0-.132 0-.198.264-.396.264-.22.352-.33.352-.44 0-.154-.066-.154-.638-.198l-2.53-.154v1.54h-7.986v1.936h18.524v-1.936zm3.652 18.018c2.596-.22 3.344-.286 3.344-2.266v-7.414h-16.478v9.482h2.31v-7.744h11.836v4.862c0 .374-.022.814-.814.814-.132 0-.704-.022-1.21-.066z"/><path d="m446.335 90.872v-5.588h-4.29v-1.342h5.83v-1.76h-5.83v-.704c0-.11 0-.22.176-.396.264-.242.352-.308.352-.418 0-.264-.264-.264-.99-.286l-1.584-.066v1.87h-5.346v1.76h5.346v1.342h-4.202v5.588h2.772c-1.298 1.936-3.234 3.124-3.982 3.564l1.65 1.364c2.244-1.694 3.234-3.014 3.762-3.74v4.312h2.046v-4.18c1.562 1.87 3.322 2.926 4.378 3.498l1.54-1.496c-2.354-1.166-3.74-2.222-4.796-3.322zm-6.336-3.894v2.134h-2.134v-2.134zm2.046 0h2.222v2.134h-2.222zm-12.276-4.356c.99.726 1.826 1.43 2.838 2.706l1.474-1.584c-.924-1.166-1.716-1.914-2.838-2.728zm18.7 13.948c-2.86.286-6.644.462-9.856.462-1.606 0-4.51 0-4.51-2.288v-6.38h-4.686v2.002h2.552v4.884c-1.122.924-2.552 1.716-3.146 2.046l1.144 1.672c.154.22.374.44.528.44.044 0 .088-.022.132-.066.044-.066.088-.308.11-.418.066-.11 1.628-1.364 2.486-2.024 1.254 2.002 3.476 2.002 6.468 2.002h7.766z"/><path d="m594.788 81.9399-6.072 16.06h3.058l1.188-3.454h6.93l1.21 3.454h3.036l-6.072-16.06zm1.65 2.596 2.662 7.7h-5.346z"/><path d="m607.082 81.9399v16.06h2.772v-16.06z"/><path d="m627.825 85.7459c0-.44-.044-2.574-.044-3.058 0-.704 0-.792.22-1.012.088-.066.198-.154.198-.286 0-.22-.374-.264-.792-.286l-2.156-.154c.198 1.98.198 3.982.198 4.796h-4.048v-3.256c0-.176 0-.242.132-.374.11-.088.154-.176.154-.286 0-.176-.198-.242-.572-.308l-2.134-.352v4.576h-4.444v2.244h4.444v5.192h2.42v-5.192h4.048c0 4.312-.66 7.018-5.434 9.482l1.87 1.672c5.192-3.08 5.94-7.128 5.94-11.154h3.96v-2.244z"/><path d="m652.729 83.9859c1.188 0 2.156-.968 2.156-2.178s-.99-2.178-2.156-2.178-2.134.99-2.134 2.178.946 2.178 2.134 2.178zm0-.99c-.638 0-1.144-.55-1.144-1.188 0-.66.528-1.166 1.144-1.166.66 0 1.166.528 1.166 1.166 0 .616-.484 1.188-1.166 1.188zm-14.256 12.892c1.43-1.32 2.75-2.728 3.916-4.444.132-.176.132-.22.308-.22.198-.022.418-.022.418-.264 0-.154-.044-.176-.528-.506l-1.694-1.1c-1.32 2.156-2.882 3.718-4.576 4.994zm15.796-1.892c-1.1-2.024-2.398-3.52-3.85-4.84l-1.87 1.408c.616.638 2.464 2.53 3.608 4.95zm-11.792 4.356c3.608-.044 4.378-.066 4.378-2.838v-8.162h6.468v-2.178h-6.468v-2.86c0-.154 0-.22.176-.352.264-.198.286-.22.286-.308 0-.176-.198-.308-.66-.374l-2.244-.374v4.268h-6.622v2.178h6.622v7.304c0 1.188 0 1.254-.968 1.254-.506 0-1.254-.044-1.936-.154z"/><path d="m660.143 88.4299v2.442h15.796v-2.442z"/><path d="m689.557 88.0559v-5.896c0-.132 0-.154.264-.374.088-.066.198-.176.198-.286 0-.176-.242-.264-.902-.374l-1.98-.33v17.798h2.42v-9.548c1.716.77 3.74 1.65 6.358 4.642l1.606-2.222c-2.156-2.156-4.422-3.674-7.172-4.84z"/><path d="m715.165 98.2859c1.65-.616 6.6-2.464 6.6-8.624 0-4.62-3.212-7.898-8.294-7.898-5.588 0-9.482 4.268-9.482 9.108 0 4.4 3.168 6.336 4.532 6.336 1.298 0 2.354-2.398 2.574-2.904 1.848-4.158 2.376-7.854 2.728-10.45 1.298.198 5.478.814 5.478 5.786 0 5.016-4.4 6.226-5.786 6.622zm-3.828-14.19c-.22 2.948-.946 5.874-2.112 8.602-.286.66-.682 1.562-1.166 1.562-.77 0-1.892-1.43-1.892-3.388 0-1.518.55-5.192 5.17-6.776z"/><g clip-rule="evenodd" fill-rule="evenodd"><path d="m277.437 145.615c17.23 59.083 79.094 93.012 138.178 75.782l.56 1.92c-60.144 17.539-123.119-16.999-140.658-77.142-17.539-60.1442 16.999-123.1187 77.143-140.65778 60.144-17.53912 123.118 16.99878 140.657 77.14268l-1.92.5599c-17.23-59.0834-79.094-93.01243-138.177-75.78256-59.084 17.22986-93.013 79.09396-75.783 138.17776z"/><path d="m282.735 99.8656c-8.037 56.1574 30.973 108.1964 87.129 116.2334l-.283 1.98c-57.25-8.194-97.019-61.246-88.825-118.4967 8.193-57.2505 61.246-97.01902 118.496-88.8256 57.25 8.1934 97.019 61.2461 88.826 118.4963l-1.98-.283c8.037-56.1571-30.972-108.1966-87.129-116.2335-56.157-8.03691-108.197 30.9721-116.234 87.1291z"/><path d="m306.823 60.0857c-30.007 42.8543-19.592 101.9193 23.262 131.9263l-1.147 1.638c-43.759-30.64-54.394-90.953-23.754-134.7115 30.641-43.7589 90.953-54.39359 134.712-23.7533 43.759 30.6404 54.394 90.9528 23.753 134.7118l-1.638-1.147c30.007-42.854 19.592-101.9197-23.262-131.9265-42.854-30.00673-101.92-19.5919-131.926 23.2622z"/><path d="m664.63 3.36333c-61.334-5.08813-115.179 40.50797-120.267 101.84167l-1.993-.165c5.179-62.4349 59.991-108.84927 122.426-103.66983 62.434 5.17945 108.849 59.99143 103.669 122.42583-5.179 62.435-59.991 108.849-122.426 103.67l.165-1.994c61.334 5.089 115.18-40.507 120.268-101.841s-40.508-115.17954-101.842-120.26767z"/><path d="m705.442 24.7042c-49.547-27.628-112.11-9.8592-139.738 39.6877l-1.746-.974c28.166-50.5117 91.946-68.62642 142.458-40.4605 50.512 28.1659 68.626 91.9466 40.46 142.4586-28.165 50.511-91.946 68.626-142.458 40.46l.974-1.747c49.547 27.628 112.11 9.859 139.738-39.687 27.628-49.547 9.859-112.1099-39.688-139.7378z"/><path d="m733.948 61.4474c-29.255-43.3713-88.129-54.81534-131.5-25.5611l-1.119-1.658c44.287-29.87199 104.405-18.1863 134.277 26.1007s18.186 104.405-26.101 134.277-104.405 18.186-134.277-26.101l1.658-1.118c29.255 43.371 88.129 54.815 131.501 25.561 43.371-29.255 54.815-88.129 25.561-131.5006z"/></g></g></svg>