<svg fill="none" height="148" viewBox="0 0 753 148" width="753" xmlns="http://www.w3.org/2000/svg"><g fill="#2755ad"><path d="m79.6064 55.8001-11.04 29.2h5.56l2.16-6.28h12.6l2.2 6.28h5.52l-11.04-29.2zm3 4.72 4.84 14h-9.72z"/><path d="m103.158 55.8001v29.2h5.04v-29.2z"/><path d="m121.714 85.4401c4.16-5.68 6.44-12.44 7.84-19.32.44-.08 3-.64 4-.64 2.04 0 2.16 1.96 2.16 4.36 0 4.6-1.48 8.4-1.72 8.92-.64 1.48-1.32 2.2-2.76 2.2-1.08 0-2.2-.32-3.48-.68l.2 4.32c.68.24 1.64.6 3.2.6 5.32 0 6.56-3.8 7.08-5.36.4-1.2 1.6-5.32 1.6-10.36 0-4.08-.64-7.96-5.36-7.96-1.48 0-3.04.32-4.12.52.24-1.36.56-3.68.84-5.52.04-.12.56-.48.64-.6.08-.08.2-.2.2-.4 0-.32-.16-.32-1.52-.56l-4.08-.68c.12 2.92.04 5.24-.4 8.68-5.24 1.04-5.84 1.16-8.6 1.52l1.48 4.76c1.76-.76 3.2-1.2 6.36-2.04-1.4 6-3.92 11.68-7.84 16.32zm27.96-25.72c-.96-1.36-2.12-2.84-3.56-4.24l-2.16 1.6c1.52 1.6 2.44 2.84 3.32 4.24zm3.76-2.28c-1.08-1.88-2-3.04-3.16-4.12l-2.12 1.56c1.4 1.52 2.16 2.64 3 4zm-9.72 16.76c2.76-.76 5.36-1.48 5.36-4 0-.88-.44-5.28-6.92-12.16l-2.96 2.24c4.96 5.8 5.12 8.16 5.12 8.44 0 .88-.72 1.04-2.6 1.44z"/><path d="m176.794 79.1201h14.44v-18.84h-6.44c.2-.4.56-1.2.96-2.64h6.72v-3.4h-17.8v3.4h7c-.6 2.04-.72 2.32-.88 2.64h-4v1.28l-3.24-1.76c-.52 2.2-1.16 3.88-2.08 5.56v-6.72c0-.36.04-.44.44-.92.04-.08.12-.2.12-.36 0-.28-.2-.4-.72-.48l-3.4-.52v21.72c0 1.92 1.16 1.92 1.84 1.92h3.24c2.28 0 2.92-1.16 3.4-5.36l-2.96-1.28c-.24 2.48-.24 2.76-1.56 2.76-.4 0-.4-.56-.4-.68v-4.12c1.8-2.56 3.64-5.44 5.32-9.08zm3.68-8.2v-2.4h7.12v2.4zm0 5.2v-2.44h7.12v2.44zm0-10.36v-2.36h7.12v2.36zm-19.2 21.12h3.92v-23.76c0-.16.04-.52.2-.68.52-.6.56-.64.56-.92 0-.4-.12-.44-1.12-.92.36-.84 1.64-5.08 2.08-5.36.76-.48.84-.52.84-.76 0-.32-.32-.56-1.04-.72l-3.52-.88c-1.04 3.76-2.72 8.4-6.48 13.4l2.96 2.56c.68-.88 1.12-1.56 1.6-2.36zm22.52-5c2.12 2.2 4 3.72 6.4 5.08l2.88-2.64c-2.64-1.44-4.48-2.88-6.48-4.8zm-8.4 5.44c1.52-1.04 3.88-2.6 5.84-4.36.32-.32.48-.44.88-.48.72-.12.92-.16.92-.56 0-.28-.2-.48-.64-.72l-3.08-1.8c-3.4 3.28-5.72 4.56-7.2 5.32z"/><path d="m202.074 58.0401v28.6h4.24v-24.72h22.52v19.28c0 1-.44 1.56-1.48 1.56h-2.44l1.4 4.12h2.96c3.84 0 3.88-2.68 3.88-3.52v-25.32h-15.76c.28-.6.88-1.92 1.2-2.64.24-.52.36-.72.64-.92.6-.4.64-.44.64-.72 0-.44-.64-.52-1.16-.52l-3.96-.12c-.52 1.68-.96 2.92-2 4.92zm8.2 24.24h4.12v-2.36h10.36v-13.8h-14.48zm10.4-6.04h-6.32v-6.32h6.32z"/><path d="m272.354 64.7601c-2.68 1.92-6 3.32-7 3.72-.6-2.28-1.68-4.48-5.4-4.48-1.72 0-2.84.44-3.48.68.72-1 1.32-1.96 2.08-3.48 1.88-.2 6.56-.76 9.64-1.52l.48-4.28c-2.12.96-6.12 1.76-8.24 2 .16-.36 1.2-2.64 1.36-2.72.8-.56.88-.64.88-.84s0-.36-1.44-.6l-3.88-.68c-.36 1.8-1.04 3.68-1.64 5.32-1.64.04-1.76.04-2.76.04-1.76 0-3.44-.04-5.2-.24l.56 4.16c1.88.08 5.12-.12 5.64-.16-1.04 2.12-3.36 6.16-7.96 10.76l3.68 2.4c1.84-2.88 5.12-7.52 8.8-7.52 2.36 0 2.88 1.88 3.16 2.84-3.68 1.88-9.56 4.8-9.56 10.48 0 5.6 6.56 6.12 11.12 6.12 3.76 0 6.64-.44 9.04-.84v-4.32c-5.4 1.24-8.88 1.4-10.32 1.4-2.36 0-5.68-.28-5.68-3.16 0-3.16 4.16-5.2 5.6-5.92 0 1 0 1.12-.2 6.32h4.52c-.04-2.6-.24-5.4-.4-8.04 1.16-.44 6.84-2.68 8.12-3.16z"/><path d="m294.794 87.6401c3.16-.12 5.84-.48 5.84-3.4v-10.6l2.64 2.2c.76-.92 1.12-1.36 2-2.68h3.36v3.52h-6.16v3.56h6.16v7.52h3.76v-7.52h6.32v-3.56h-6.32v-3.52h5.52v-3.44h-5.52v-1.44c0-.24.04-.36.28-.64.08-.12.4-.44.4-.56 0-.24-.28-.28-.56-.36 5.76-1.28 6-2.32 6.08-13.08h-16.6v3.44h4.08c-.56 3.4-2 5.56-5.08 7.36l2.92 2.72c-.6 3.52-2.52 5.32-3.28 6.04v-11h-4.48l3.44-5.36-1.08-1.16h-6.44c.48-1.08.56-1.2.8-1.24.44-.04.88-.16.88-.48s-.32-.4-.8-.52l-3.84-1c-1.16 4.32-2.64 6.84-5.48 10.32l2.88 1.8c.08.88.2 2.72.2 5.68 0 8.76-1.2 12.08-3 15.72l3.36 1.4c1.72-3.4 2.32-6.16 2.76-9.16h7.56v4.48c0 1.52-1.32 1.68-1.88 1.68-.28 0-1.6-.12-1.92-.12zm-2.32-18.84h-2.32v-3.6h2.32zm2.52 0v-3.6h2.4v3.6zm0 2.64h2.4v3.8h-2.4zm-2.52 0v3.8h-2.4c.08-.76.08-1.28.08-2.84v-.96zm1.84-12.76-2 3.52h-3.8c.4-.56.92-1.32 2.12-3.52zm14.32 11.04h-2.08c0-.04.28-.84.4-1 .12-.08.68-.36.68-.52 0-.2-.16-.28-.84-.52l-2.44-.8c3.44-2.68 4.96-4.4 5.92-9.8h4.56v1.68c0 1.56 0 4.32-3.4 4.32-.44 0-.84-.04-1.2-.08l1.12 3.48-2.72-.32z"/><path d="m351.194 67.6401v19.36h4.36v-19.36h5.36v-4h-14.64v-4.44c1.96-.16 5.04-.4 8.88-1.44.52-.12 3.08-1 3.68-1 .16 0 .96.24 1.12.24.24 0 .48-.16.48-.36 0-.32-.32-.72-.48-.88l-3.12-3.08c-3.16 1.72-9.36 3.32-11.24 3.32l-3.8-.84c.36 4.76.44 10.96.44 12.16 0 8.88-1.32 13.2-5.16 18.48l4.24 1.56c1.48-2.12 4.96-7.16 4.96-18.16v-1.56zm-10.92-4.6v-3.88h-4.8v-4c0-.28.08-.32.8-.84.08-.08.24-.24.24-.48 0-.36-.28-.56-1.04-.6l-3.88-.12v6.04h-5.16v3.88h5c-.96 5.48-3.76 11.76-6.2 14.88l3.68 2.08c.96-1.8 1.64-3.24 2.68-6v13h3.88v-15.4c1.08 1.8 1.6 2.52 2.56 3.56l2.48-3.24c-2.24-2.12-4-4.4-5.04-7.44v-1.44z"/><path d="m396.474 71.8401c-1.4 3.08-4.48 9.92-11.04 9.92-4.28 0-4.6-3.44-4.6-7.36 0-6.8 1.2-17.84 1.72-18.32.04-.08.4-.24.48-.36.08-.08.12-.2.12-.32 0-.44-.28-.48-1.16-.64l-4.96-.92c.08.92.16 2.96.16 4.72 0 2.68-.4 14.48-.4 16.88 0 4.04.32 10.68 8.28 10.68 6.76 0 11.96-4.84 15-11.68z"/><path d="m409.794 81.1201c2.76 1.96 4.48 3.24 6.4 6.4l3.04-3.04c-1.2-1.56-3.52-4.04-7.88-5.64z"/><path d="m460.394 52.0801v4.48h-7.52v3.76h18.92v-3.76h-7.08v-2.68c0-.2 1-1 1-1.24 0-.28-.28-.36-1.28-.4zm10.8 8.88v4.08h4.48c-1.28 11.64-4.76 16.28-10.68 20.08l3.64 2.84c5.4-4.48 9.36-8.64 10.96-22.92h3.28c-.04 4.64-.28 8.96-.96 13.52-.48 3.2-.68 4.72-4.04 4.72-.76 0-1.92-.12-2.48-.2l1.8 4.44c4.28-.28 7.28-.52 8.24-5.32.96-4.88 1.4-15.8 1.44-21.24h-7.12v-6.2c0-.52.08-.56.56-.92.32-.24.36-.28.36-.48 0-.4-.8-.48-1.16-.48l-3.72-.12v8.2zm-7.4 2.48c1.72 1.56 3.88 3.64 5.84 6.52l2.92-2.36c-1.6-2.36-3.44-4.28-5.84-6.4zm-5.04-2.36c-2.08 2.48-4 4.16-6.84 5.96l3.24 2.6c2.2-1.76 3.36-2.92 5.16-5.04.36-.44.76-.88 1.08-.92.8-.12.88-.12.88-.36 0-.28-.56-.72-1.2-1.04zm-2.72 9.56c1.36 1.4 3.52 4.16 4.16 4.96-2.28 3.2-4.48 5.84-8.52 8.96l3.24 2.6c3.6-3 5.4-4.96 7.76-8.12.68.96 1.48 2.16 2.6 4.16l3.24-2.68c-.64-1.08-2.08-3.16-3.48-5.16.76-1.44 1.16-2.2 1.88-4.12.08-.2.28-.68.6-.72.68-.16.84-.2.84-.48 0-.32-.48-.68-.76-.8l-3.4-1.52c-.64 1.72-1.16 2.84-1.84 4.2-1.52-1.84-2.24-2.68-3.28-3.64z"/><path d="m507.514 74.2801c-2.88 2.88-6.88 6.32-13 8.68l3.12 3.32c5.88-3.32 8.04-4.76 12-8.64v9.56h3.88v-9.56c3.32 3.8 5.08 5.2 11.16 8.76l2.92-3.48c-5.32-2.4-8.6-4.4-12.52-8.64h13.64v-3.64h-15.2v-2.52h10.64v-14.8h-25.12v14.8h10.6v2.52h-15.24v3.64zm2.12-15.16h-6.6v-2.6h6.6zm3.88 0v-2.6h6.68v2.6zm0 3h6.68v2.76h-6.68zm-3.88 0v2.76h-6.6v-2.76z"/><path d="m566.354 64.7601c-2.68 1.92-6 3.32-7 3.72-.6-2.28-1.68-4.48-5.4-4.48-1.72 0-2.84.44-3.48.68.72-1 1.32-1.96 2.08-3.48 1.88-.2 6.56-.76 9.64-1.52l.48-4.28c-2.12.96-6.12 1.76-8.24 2 .16-.36 1.2-2.64 1.36-2.72.8-.56.88-.64.88-.84s0-.36-1.44-.6l-3.88-.68c-.36 1.8-1.04 3.68-1.64 5.32-1.64.04-1.76.04-2.76.04-1.76 0-3.44-.04-5.2-.24l.56 4.16c1.88.08 5.12-.12 5.64-.16-1.04 2.12-3.36 6.16-7.96 10.76l3.68 2.4c1.84-2.88 5.12-7.52 8.8-7.52 2.36 0 2.88 1.88 3.16 2.84-3.68 1.88-9.56 4.8-9.56 10.48 0 5.6 6.56 6.12 11.12 6.12 3.76 0 6.64-.44 9.04-.84v-4.32c-5.4 1.24-8.88 1.4-10.32 1.4-2.36 0-5.68-.28-5.68-3.16 0-3.16 4.16-5.2 5.6-5.92 0 1 0 1.12-.2 6.32h4.52c-.04-2.6-.24-5.4-.4-8.04 1.16-.44 6.84-2.68 8.12-3.16z"/><path d="m599.914 64.4401 1-1.08c-.32-.2-.52-.32-1.16-.68 3.12-2.04 5.68-3.76 9.44-6.48l-1.96-2.32h-24.72v3.64h18.12c-1.16.92-2.44 1.84-4.76 3.36-.84-.44-3.32-1.64-5.68-2.48l-1.88 3.12c3 1.16 4.48 1.84 6.2 2.92h-15.48v3.88h14.72v13.24c0 .8-.72 1.2-1.48 1.2-.36 0-1.6-.04-3.88-.52l1.4 4.64h3.84c3.52 0 4.36-1.44 4.36-4.72v-13.84h8.32c-2.12 3.16-3.56 5.08-5.44 7.28l3.36 2.36c2.48-3 5.16-6.4 8.36-11.52l-2.44-2z"/><path d="m630.474 56.5601v20.88h11.76v-23.8h-11.76v2.8c-2.08-1.88-4.52-3.04-5.64-3.56l-2.4 3.6c1.8.76 4.16 2.12 5.84 3.48zm8.12 7.2v3.6h-4.44v-3.6zm0-6.68v3.6h-4.44v-3.6zm0 13.36v3.68h-4.44v-3.68zm-10.76-5.28c-1.84-1.16-4.56-2.4-6.72-2.84l-1.84 3.48c3.08.88 5.32 2.2 6.52 2.96zm-1.52 5.84c-1.24 3.84-3.84 9.04-6.68 12.8l3.6 2.88c.28.2.56.2.6.2.12 0 .36-.12.36-.48 0-.12-.16-.68-.16-.8s.4-.88.48-1c1.84-3.76 3.6-7.52 5-11.44zm11.16 8.84c1 1.72 3.24 4.88 4.64 6.4l3.36-2.44c-1.68-1.56-3.76-4.36-4.76-6.04zm6.84-24.36v21.6h3.76v-19.24c0-.36.24-.68.4-.88.08-.12.52-.56.52-.68 0-.32-.48-.4-.6-.4zm-11.08 22.36c-2.08 3.44-3.96 5.2-5.96 6.64l3.04 2.36c1.92-1.6 3.04-2.72 4.04-4.04.2-.32 1.2-1.8 1.52-2.12.12-.12 1.08-.52 1.08-.72 0-.16-.4-.4-.56-.48zm14.64 9.24c3-.04 6.52-.2 6.52-3.4v-28.2c0-.32.16-.68.32-.88.28-.36.56-.68.56-.8 0-.28-.48-.32-.68-.36l-4.12-.44v28.44c0 1.48-1.2 1.68-2.32 1.68-.44 0-1.24-.04-2-.12z"/><path d="m666.154 79.1601c-2.2 0-4.08 1.76-4.08 4.08 0 2.24 1.84 4.04 4.08 4.04 2.28 0 4.08-1.84 4.08-4.04 0-2.32-1.84-4.08-4.08-4.08zm0 1.2c1.6 0 2.88 1.24 2.88 2.88 0 1.56-1.28 2.84-2.88 2.88-1.56 0-2.88-1.32-2.88-2.88 0-1.64 1.32-2.88 2.88-2.88z"/><path d="m9.54156 144.52h3.80004v-1.92h11.04v-7.48h-14.84004zm11.00004-4.56h-7.2v-2.28h7.2zm-13.00004-11.8h18.92004v-7.8h-18.92004zm14.80004-5.08v2.36h-10.76v-2.36zm-3.08-8.16v-.64c0-.24 0-.36.48-.72.48-.4.64-.6.64-.8 0-.28-.12-.28-1.16-.36l-4.6-.28v2.8h-14.520038v3.52h33.680038v-3.52zm6.64 32.76c4.72-.4 6.08-.52 6.08-4.12v-13.48h-29.96004v17.24h4.2v-14.08h21.52004v8.84c0 .68-.04 1.48-1.48 1.48-.24 0-1.28-.04-2.2-.12z"/><path d="m68.3416 135.32c-1 4.64-4.48 6.24-7.64 6.24-6 0-8.68-5.28-8.68-11.16 0-5.96 2.8-11.12 9.12-11.12 3.12 0 6.16 1.36 7.08 5.36h5.24c-.56-2.32-2.4-9.8-12.36-9.8-8.92 0-14.44 6.04-14.44 15.64s5.4 15.48 14 15.48c10.6 0 12.44-8.48 12.92-10.64z"/><path d="m84.8531 115.8v4.2h9.56v25h5v-25h9.7599v-4.2z"/><path d="m121.956 115.8v29.2h5v-11.64h7.32c2.88 0 4.04 2.4 4.04 5.08v4.68c0 .8.24 1.44.84 1.88h5.76c-1.44-1.32-1.44-2.16-1.56-7.68-.12-5.04-2.52-5.64-6.6-6.2 2.36-.24 7.6-.76 7.6-7.4 0-5.48-4.28-7.92-9.6-7.92zm5 4.2h7.44c3.04 0 4.52 1.88 4.52 4.48 0 2.76-1.84 4.68-4.52 4.68h-7.44z"/><path d="m178.139 145.52c3-1.12 12-4.48 12-15.68 0-8.4-5.84-14.36-15.08-14.36-10.16 0-17.24 7.76-17.24 16.56 0 8 5.76 11.52 8.24 11.52 2.36 0 4.28-4.36 4.68-5.28 3.36-7.56 4.32-14.28 4.96-19 2.36.36 9.96 1.48 9.96 10.52 0 9.12-8 11.32-10.52 12.04zm-6.96-25.8c-.4 5.36-1.72 10.68-3.84 15.64-.52 1.2-1.24 2.84-2.12 2.84-1.4 0-3.44-2.6-3.44-6.16 0-2.76 1-9.44 9.4-12.32z"/><path d="m238.939 144.68c-2.52-6.2-4.72-10.68-8.92-16.72l-3.56 2.28c2.16 3.24 3.32 5.16 5.28 9-3.2.64-6.44 1.24-12.04 1.96 1.52-5.08 3.56-11.88 4.48-15.28.28-1.04.36-1.4 1-1.72.4-.24.68-.36.68-.72 0-.48-.64-.64-1-.72l-4.64-1c-.48 3.56-1.68 10.96-4.96 20-.96.12-2.8.32-3.88.44l.92 4.48c.08.48.2.84.48.84.2 0 .36-.16.6-.4.36-.4.56-.56 1.64-.72 9.88-1.48 15.12-2.56 18.44-3.24.48 1.12 1 2.4 1.44 3.68zm-19.6-28.44h-12.24c.16 1.28.4 3.44.4 8.32 0 9.44-.84 13.84-3.88 20.44l4.24 1.08c2-4.44 3.68-9.8 3.68-21.04v-4.68h26.96v-4.12h-14.4v-2.44c0-.16.04-.4.16-.56.32-.44.4-.44.4-.6 0-.32-.48-.4-.76-.4l-4.56-.16z"/><path d="m267.779 120.8v5.16h-15.04v3.88h34.56v-3.88h-15.32v-5.16h11.48v-3.68h-11.48v-3.08c0-.24 1.04-.92 1.04-1.16 0-.4-.52-.44-1.16-.48l-4.08-.2v4.92h-5.36c.24-.52.44-.92.8-1.68.12-.24.24-.44.48-.52.32-.16.68-.24.68-.56s-.6-.52-.88-.6l-4.04-1c-1.36 4.36-3 7.4-4.8 10.12l3.8 1.96c.44-.68.64-1.04 2.24-4.04zm-9.76 26.08h4.28v-1.6h15.64v1.6h4.28v-14.24h-24.2zm4.28-5.2v-5.44h15.64v5.44z"/><path d="m312.579 117c1.04-.08 2.4-.28 3.64-.52.32-.08.88-.2 1.12-.24.28.08 1.08.44 1.28.44.28 0 .44-.16.44-.36 0-.24-.2-.52-.48-.96l-1.8-2.68c-1.52.56-4.68 1.76-11.64 1.76-1.28 0-2.16-.04-3-.08l1.8 3.08c2.08 0 3.24-.04 5.12-.16v1.52h-7.88v2.88h7.88v1.64h-6.44v10.64h6.44v1.76h-6.76v2.8h6.76v2.36c-2.48.24-3.52.32-7.76.64l.48 3.44c.04.4.12.88.44.88.2 0 .76-.88.96-.96.64-.2 13.24-1.72 15.72-2.08-.84 1.04-1.36 1.52-2.48 2.36l3.72 2.56c5.24-6.16 6.96-11.92 7.84-22.48h2.84c-.04 3.48-.2 15-1.88 17.32-.4.52-.76.52-3.92.52l1.84 4c2.64-.04 5.56-.12 6.6-5.28.44-2.12 1.32-7.68 1.36-20.28h-6.6c0-.84-.04-5.12-.04-6.08 0-.52.04-.8.4-1.04.68-.48.84-.64.84-.84 0-.4-.56-.44-1.4-.48l-4.04-.2c.16 1.76.32 4.16.24 8.64h-3.28v3.72h3.08c-.52 9.32-3.04 14-4.44 16.64v-2c-1 .08-5.88.56-7 .68v-2.04h6.96v-2.8h-6.96v-1.76h6.64v-10.64h-6.64v-1.64h7.68v-2.88h-7.68zm-3.52 10.56h-2.88v-1.92h2.88zm6.72 0h-3.2v-1.92h3.2zm-6.72 2.2v2h-2.88v-2zm6.72 0v2h-3.2v-2z"/><path d="m375.819 138.76v-17.92h-7.96v-3.32h15.12v-3.64h-34v3.64h15v3.32h-7.76v17.92zm-11.84-10.72h-4v-3.76h4zm3.88 0v-3.76h4.08v3.76zm-3.88 3.32v3.96h-4v-3.96zm3.88 0h4.08v3.96h-4.08zm10.56 10.48h-24.76v-19.16c0-.24.08-.52.28-.64.56-.44.64-.48.64-.68 0-.44-.88-.52-1.08-.52l-3.96-.32v26.32h4.12v-1.56h24.76v1.56h4.12v-24.64c0-.44.04-.56.36-.8.36-.28.4-.32.4-.48 0-.32-.4-.36-1.16-.44l-3.72-.44z"/><path d="m402.179 145.44c4.16-5.68 6.44-12.44 7.84-19.32.44-.08 3-.64 4-.64 2.04 0 2.16 1.96 2.16 4.36 0 4.6-1.48 8.4-1.72 8.92-.64 1.48-1.32 2.2-2.76 2.2-1.08 0-2.2-.32-3.48-.68l.2 4.32c.68.24 1.64.6 3.2.6 5.32 0 6.56-3.8 7.08-5.36.4-1.2 1.6-5.32 1.6-10.36 0-4.08-.64-7.96-5.36-7.96-1.48 0-3.04.32-4.12.52.24-1.36.56-3.68.84-5.52.04-.12.56-.48.64-.6.08-.08.2-.2.2-.4 0-.32-.16-.32-1.52-.56l-4.08-.68c.12 2.92.04 5.24-.4 8.68-5.24 1.04-5.84 1.16-8.6 1.52l1.48 4.76c1.76-.76 3.2-1.2 6.36-2.04-1.4 6-3.92 11.68-7.84 16.32zm27.96-25.72c-.96-1.36-2.12-2.84-3.56-4.24l-2.16 1.6c1.52 1.6 2.44 2.84 3.32 4.24zm3.76-2.28c-1.08-1.88-2-3.04-3.16-4.12l-2.12 1.56c1.4 1.52 2.16 2.64 3 4zm-9.72 16.76c2.76-.76 5.36-1.48 5.36-4 0-.88-.44-5.28-6.92-12.16l-2.96 2.24c4.96 5.8 5.12 8.16 5.12 8.44 0 .88-.72 1.04-2.6 1.44z"/><path d="m459.859 114.68h-15.04v3.08h15.04v1.64h-10.16v7.48h10.16v1.64h-12.56v2.96h12.56v1.68h-14.68v3h14.68v1.68h-12.56v3.08h12.56v1.44c0 1-1.08 1-1.56 1-1.16 0-1.88-.08-2.52-.12l1.72 4.16c4.96 0 6.28-.68 6.28-3.56v-2.92h8.8v1.48h4v-6.24h2.48v-3h-2.48v-4.64h-12.8v-1.64h10.12v-7.48h-10.12v-1.64h15.44v-3.08h-15.44v-.68c0-.12 0-.28.16-.36.28-.16.76-.4.76-.6 0-.4-.56-.44-1.12-.48l-3.72-.24zm3.92 18.48v-1.68h8.8v1.68zm0 4.68v-1.68h8.8v1.68zm-10.08-13.72v-1.84h6.16v1.84zm10.08 0v-1.84h6.2v1.84z"/><path d="m499.299 138.68h6.44v2.4c0 1.72-.92 1.8-2.36 1.8h-1.84l1.6 4.12c4.92-.36 6.6-.88 6.6-5.44v-18h-14.44v23.52h4zm6.44-9.28h-6.44v-2.4h6.44zm0 5.96h-6.44v-2.64h6.44zm-.96-17.76 2.12-.92c-.28-.44-2-3-3.36-4.56l-4.04 1.72c.72.76 1.88 2.08 2.84 3.76h-9.28v3.64h34.44v-3.64h-9.72c.28-.4 1.4-2.6 1.8-2.96.12-.12 1.08-.44 1.08-.64 0-.28-.72-.52-.84-.56l-4.08-1.24c-.68 1.88-2.04 4.24-2.84 5.4zm16.24 5.4v17.68c0 1.76-.44 1.76-4.32 1.76l2.08 4.44c5.72-.32 6.36-.6 6.36-5.64v-16.44c0-.2.08-.28.88-.68.12-.08.24-.2.24-.4s0-.6-1.6-.64zm-8.2 17.6h4v-15.12c0-.16.08-.2.8-.76.08-.04.24-.24.24-.44 0-.24-.2-.44-1.36-.48l-3.68-.12z"/><path d="m549.299 144.12c.24-2.36.84-5.52 2.6-8.44l-2.64-2c-.84 1.56-1.2 2.12-1.56 2.64-.24-1.44-.32-2.92-.32-3.96 0-6.16 2.28-15.08 3.08-15.4.12-.04.48-.16.6-.24.08-.04.08-.16.08-.24 0-.32-.24-.44-1.04-.76l-3.96-1.6c-2.24 11.04-2.76 13.52-2.76 17.96 0 4.36.76 9.4 2.92 13.12zm22.44-27.36c-3.04.92-6.08 1.36-9.28 1.36-2.76 0-4.16-.32-6.12-.8l.04 4.2c1.44.52 4.28.52 5.16.52 4.32 0 7.72-.64 10.12-1.08zm1.2 21.24c-5.04 1.16-8.44 1.2-9.4 1.2-3.44 0-4.76-1.16-4.76-3.24 0-.68.08-1.52.28-2.2l-4.08.36c-.4 7.6 1.44 9.36 9.84 9.36 3.12 0 5.36-.12 8-.52z"/><path d="m594.139 140.84c.48-.76 1.28-2.12 3.68-5.44-.28 7.2-.6 9.8-.76 11.16l4.72-.16c-.12-6.92-.12-10.28-.12-11.84 0-.72 0-2.44.04-4.2 4.28-4.04 7.64-4.6 9.44-4.6 3.16 0 5.8 2.48 5.8 6.28 0 2.92-1.52 6-4.36 7.8-2.04 1.32-3.96 1.8-4.96 2.04l2.76 4.16c8.28-3.2 11.12-8.92 11.12-13.72 0-6.12-4.56-10.52-9.84-10.52-3.6 0-6.36 1.76-8.32 3 .76-1.32 2.2-3.76 2.28-3.92l-2.08-1.8c-.16.04-.92.32-1.12.4.12-.84.36-3.32.64-3.84.08-.16.8-.92.8-1.12 0-.36-1.32-.6-1.72-.68l-3.76-.68c.08 2.36.08 5.04.08 7.44-4.36 1.08-5.48 1.16-6.76 1.28l.68 4.68c3.12-1 3.48-1.12 5.92-1.84 0 .32-.12 1.8-.12 2.16-3.44 6-6.8 9.44-7.92 10.6z"/><path d="m642.419 144.6c4.2-5.24 7-11.8 8.76-18.92 2.36-.4 3.44-.44 3.84-.44 1.16 0 2.2.36 2.2 3.12 0 3.16-.56 5.92-1.8 9.12-1 2.68-1.92 3.08-3.04 3.08-1.2 0-2.56-.48-3.68-.84v4.32c.68.28 1.8.76 3.6.76 4.96 0 6.28-3.44 6.88-5.04.44-1.12 2.16-5.88 2.16-11.84 0-4.92-2-6.64-5.6-6.64-1.2 0-2.4.16-3.6.36.28-1.36 1.04-5.04 1.16-5.52.12-.2.6-.56.76-.68.08-.08.08-.16.08-.28 0-.28-.24-.36-1.44-.6l-4.08-.88c0 2.88-.2 5.4-.8 8.64-3.04.48-5.72.88-8.68 1.12l1.28 4.8c2.08-.76 3.52-1.08 6.4-1.72-1.68 5.88-4.4 11.44-8.56 15.92zm22.84-10.52c3.44-.72 5.56-1.48 5.56-3.92 0-.8-.32-5.36-6.28-12.4l-3.12 2.24c4.36 5.64 4.72 8 4.72 8.56 0 1-.72 1.12-2.68 1.4z"/><path d="m691.099 137.36c4.6-5.04 7.52-8.28 13.04-8.28s6.44 3.32 6.44 5.6c0 3.08-1.64 4.48-2.88 5.52-.56-1.24-2.36-5.24-7.64-5.24-4.48 0-6.24 2.8-6.24 5.4 0 5.12 5.52 5.8 8.2 5.8 7.24 0 12.84-4.52 12.84-11.44 0-3.36-1.52-9.24-9.48-9.24-1.52 0-2.6.24-3.32.44 4.16-4.76 6.4-7.28 8.84-9.08l-1.84-3.16c-3.52 1.48-10.6 2.08-12.88 2.08-1.12 0-3.04-.12-4.16-.2l.68 4.6c4.24-.28 5.48-.4 9.52-.92-4 5.68-9.04 10.52-14.52 14.8zm12.92 4.68c-.48.16-1.4.4-2.48.4-1.72 0-3.84-.68-3.84-2.2 0-1 1.04-1.88 2.32-1.88 2.92 0 3.64 2.48 4 3.68z"/><path d="m747.539 123.76 1.36 13.56h2.36l1.36-13.56v-7.96h-5.08zm5.08 21.24v-5.08h-5.08v5.08z"/><path d="m338.2 24.0401c4.65-1.14 6.57-1.77 8.94-3.36 2.4-1.65 4.11-4.44 4.11-7.8 0-4.23-2.91-7.86-7.83-7.86-2.4 0-3.21.3-10.11 2.67-3.18 1.11-5.4 1.5-6.69 1.74l1.65 3.45c1.38-.42 2.37-.72 4.98-1.71 6.66-2.58 7.83-3.03 9.78-3.03 2.85 0 4.89 1.95 4.89 4.68 0 4.92-5.04 7.11-11.64 7.68z"/><path d="m379.81 22.0001c-2.55-1.83-5.04-2.88-7.71-3.66-.18-1.32-.3-2.34-.39-3.99.54-.03 4.59-.3 6.99-.9l.09-3.18c-1.77.51-3.9.96-7.14 1.32.03-1.5.06-3.06.09-3.96.99-.03 1.89-.06 3.66-.06 2.85 0 3.78.12 4.47.21l.15-3.3c-1.86.15-3.21.21-8.16.42.12-1.98.12-2.22.21-2.52.03-.12.69-.57.69-.72 0-.3-.09-.3-1.08-.42l-3.18-.390002c0 .570002.09 3.450002.09 4.110002-1.44.06-7.44.27-8.19.27l.18 3.21c2.01-.39 6.87-.63 8.07-.69 0 .54 0 .87.03 4.02-1.95.03-2.16.06-2.76 0-.36-.03-1.11-.12-1.11-.54 0-.33.66-.66 1.44-1.05l-1.53-1.41c-1.2.51-3.57 1.74-3.57 3.69 0 2.25 3.81 2.16 7.59 2.04.06.93.12 1.59.3 3.21-.48-.06-1.26-.15-2.13-.15-3.54 0-6.3 1.62-6.3 4.14 0 3.45 4.47 4.2 7.05 4.2 2.31 0 4.98-.66 4.98-3.24 0-.3-.03-.6-.06-1.14 2.37.93 3.96 1.95 5.37 3.24zm-10.44-1.41c.06.66.06.84.06 1.17 0 .6 0 1.26-2.31 1.26-1.62 0-3.39-.54-3.39-1.47 0-.84 1.32-1.29 2.82-1.29.81 0 1.83.15 2.82.33z"/><path d="m395.68 19.3001c1.59-4.56 3.3-8.1 3.93-9.45l-2.22-1.26c-.6 1.2-1.23 2.52-2.37 5.22-.03-.42-.09-1.5-.09-2.43 0-3.51 1.14-7.11 1.47-7.77.06-.15.6-.63.6-.75 0-.24-.39-.33-1.05-.48l-2.67-.57c-.36 1.74-1.32 6.6-1.32 10.02 0 4.35.96 6.48 1.56 7.83zm7.26 7.23c3.09-3.6 6.12-7.29 6.12-16.83 0-1.08-.3-5.76-.3-6.72 0-.15.42-.75.42-.87 0-.3-.33-.27-1.05-.18l-3.09.33c.18 1.02.69 4.05.69 8.1 0 6.21-1.62 9.54-5.76 13.98z"/><path d="m425.71 9.0701 1.02 10.17h1.77l1.02-10.17v-5.97h-3.81zm3.81 15.93v-3.81h-3.81v3.81z"/></g></svg>