<svg fill="none" height="240" viewBox="0 0 1020 240" width="1020" xmlns="http://www.w3.org/2000/svg"><g fill="#fff"><path clip-rule="evenodd" d="m120 236c64.065 0 116-51.935 116-116s-51.935-116-116-116-116 51.935-116 116 51.935 116 116 116zm0 4c66.274 0 120-53.726 120-120 0-66.2742-53.726-120-120-120-66.2742 0-120 53.7258-120 120 0 66.274 53.7258 120 120 120z" fill-rule="evenodd"/><path d="m123.56 48.96h-4.992c-1.728 4.464-3.072 6.336-9.84 6.384v4.08h8.976v24.576h5.856z"/><path d="m38.4465 129.708c-.65 3.016-2.912 4.056-4.966 4.056-3.9 0-5.642-3.432-5.642-7.254 0-3.874 1.82-7.228 5.928-7.228 2.028 0 4.004.884 4.602 3.484h3.406c-.364-1.508-1.56-6.37-8.034-6.37-5.798 0-9.386 3.926-9.386 10.166s3.51 10.062 9.1 10.062c6.89 0 8.086-5.512 8.398-6.916z"/><path d="m45.097 117.02v18.98h3.25v-7.566h4.758c1.872 0 2.626 1.56 2.626 3.302v3.042c0 .52.156.936.546 1.222h3.744c-.936-.858-.936-1.404-1.014-4.992-.078-3.276-1.638-3.666-4.29-4.03 1.534-.156 4.94-.494 4.94-4.81 0-3.562-2.782-5.148-6.24-5.148zm3.25 2.73h4.836c1.976 0 2.938 1.222 2.938 2.912 0 1.794-1.196 3.042-2.938 3.042h-4.836z"/><path d="m67.0558 126.718c-2.002.754-3.484 1.274-4.68 1.664l.52 2.366c.052.234.156.78.416.78.13 0 .234-.078.286-.182.182-.416.208-.494.52-.65.39-.208 2.47-1.014 2.938-1.222v7.878h2.574v-8.996c1.378-.624 1.846-.858 2.288-1.066l-.156-2.522c-.962.416-1.612.702-2.132.91v-4.186h2.288v-2.236h-2.288v-2.886c0-.208.156-.364.338-.494.416-.312.468-.364.468-.468 0-.26-.598-.312-.858-.312l-2.522-.052v4.212h-1.118c.026-.182.104-1.144.182-1.352.026-.078.312-.312.312-.39 0-.234-.546-.312-.78-.338l-2.106-.234c-.13 2.808-.442 4.732-1.378 7.28l2.522.494c.416-1.17.65-1.924.884-3.224h1.482zm9.75-6.76v2.236h-4.862v2.236h7.514v2.652h-7.228v2.314h7.228v4.316c0 .52 0 1.04-1.404 1.04-.286 0-.598-.026-1.118-.078l.832 2.6c2.886-.078 4.316-.104 4.316-2.418v-5.46h2.834v-2.314h-2.834v-2.652h3.042v-2.236h-5.694v-2.236h4.888v-2.288h-4.888v-1.742c0-.104.026-.234.13-.312.26-.286.312-.312.312-.416 0-.208-.104-.208-.988-.234l-2.08-.078v2.782h-4.134v2.288zm-4.628 11.466c1.144 1.248 1.95 2.73 2.21 3.198l2.262-1.404c-.364-.65-1.092-1.898-2.288-3.276z"/><path d="m92.5878 115.2c-.962 1.82-2.132 3.562-4.186 5.33l2.236 1.534c1.482-1.378 2.782-3.25 3.744-4.914.286-.234.65-.468.65-.572s-.234-.26-.624-.468zm5.538 17.29c-.156.026-2.418.416-3.016.494l.208 2.21c.026.338.078.676.26.676.078 0 .156-.052.234-.104.338-.338.442-.416.78-.572.208-.078 5.8762-1.638 6.9162-1.924l-.078-1.872c-.416.13-2.522.572-2.99.676v-1.664h2.34v-2.236h-2.34v-1.846h2.626v-1.274l.754.338c.312 2.496.754 4.186 1.56 6.396-.962 1.664-1.846 2.808-3.484 3.926l2.236 1.482c.962-.962 1.612-1.664 2.418-2.886.624 1.066 1.248 2.054 2.21 2.938l2.028-1.534c-1.196-1.222-1.924-2.132-2.912-3.848 1.17-2.782 1.898-5.616 2.21-9.932h.806v-2.236h-4.342c.39-.962.78-2.418.91-2.964.026-.13.078-.312.234-.364.286-.104.416-.156.416-.338 0-.13 0-.234-.832-.416l-2.288-.494c-.234 2.158-.65 3.952-1.69 6.708v-4.212c0-.13.026-.234.078-.286.026-.026.338-.39.338-.442 0-.182-.182-.208-.676-.26l-1.612-.13v3.926h-1.014v-4.108c0-.156 0-.208.26-.416.156-.104.234-.208.234-.338 0-.182-.26-.208-.468-.234l-2.1062-.208v5.304h-.962v-2.964c0-.104.026-.156.13-.182s.312-.156.312-.286c0-.156-.182-.182-.39-.208l-2.002-.208v5.252c-.104-.078-.208-.156-.338-.234l-1.716-1.066c-1.144 2.704-2.86 4.68-4.992 6.5l1.898 1.69c.156-.182.65-.676 1.092-1.196v9.672h2.548v-11.544c0-.13 0-.208.156-.312.182-.13.312-.234.312-.312 0-.182-.26-.26-.624-.364.338-.494.728-1.04 1.092-1.664.104-.156.234-.416.286-.546.182-.052.468-.104.546-.156h7.4362c-.754 1.482-1.014 1.82-1.222 2.08h-6.6822v1.95h2.912v1.846h-2.47v2.236h2.47zm7.6702-10.556h2.054c-.13 2.704-.52 4.524-1.222 6.812-.416-1.43-.624-2.6-.91-6.63z"/><path d="m134.058 122.844c-1.742 1.248-3.9 2.158-4.55 2.418-.39-1.482-1.092-2.912-3.51-2.912-1.118 0-1.846.286-2.262.442.468-.65.858-1.274 1.352-2.262 1.222-.13 4.264-.494 6.266-.988l.312-2.782c-1.378.624-3.978 1.144-5.356 1.3.104-.234.78-1.716.884-1.768.52-.364.572-.416.572-.546s0-.234-.936-.39l-2.522-.442c-.234 1.17-.676 2.392-1.066 3.458-1.066.026-1.144.026-1.794.026-1.144 0-2.236-.026-3.38-.156l.364 2.704c1.222.052 3.328-.078 3.666-.104-.676 1.378-2.184 4.004-5.174 6.994l2.392 1.56c1.196-1.872 3.328-4.888 5.72-4.888 1.534 0 1.872 1.222 2.054 1.846-2.392 1.222-6.214 3.12-6.214 6.812 0 3.64 4.264 3.978 7.228 3.978 2.444 0 4.316-.286 5.876-.546v-2.808c-3.51.806-5.772.91-6.708.91-1.534 0-3.692-.182-3.692-2.054 0-2.054 2.704-3.38 3.64-3.848 0 .65 0 .728-.13 4.108h2.938c-.026-1.69-.156-3.51-.26-5.226.754-.286 4.446-1.742 5.278-2.054z"/><path d="m155.222 137.352h1.404c3.302 0 3.302-1.82 3.302-2.782v-16.198h2.678v-2.6h-21.814v2.6h16.198v15.314c0 .364 0 .936-.858.936h-1.95zm-1.898-5.694v-9.906h-9.542v12.168h2.678v-2.262zm-2.678-2.366h-4.186v-5.148h4.186z"/><path d="m179.844 128.642h2.652v6.058c0 1.3.468 2.132 1.768 2.132h2.86c1.274 0 1.82-.546 2.054-1.508.052-.26.286-1.612.364-1.924l-2.236-1.118c-.182 1.846-.39 2.158-.988 2.158h-.598c-.442 0-.78-.13-.78-.702v-5.096h2.548v-13.104h-10.634v13.104h2.08c-.962 4.602-2.366 5.798-5.33 6.864l1.976 2.106c.78-.416 3.588-1.872 4.914-5.33.156-.364.702-2.262.728-2.34.312-.234.468-.364.468-.468 0-.156-.286-.26-.624-.39zm5.278-5.694h-5.876v-1.794h5.876zm0-3.588h-5.876v-1.82h5.876zm0 5.408v1.872h-5.876v-1.872zm-9.49-5.954h-3.094v-2.34c0-.364 0-.52.182-.702.078-.078.468-.442.468-.52 0-.182-.078-.208-.754-.234l-2.366-.13v3.926h-3.562v2.314h6.526c-1.69 3.25-4.368 5.85-7.384 7.93l2.028 1.768c.832-.624 1.508-1.17 2.47-2.08v8.58h2.444v-9.724c1.014 1.144 1.534 1.56 2.314 2.132l1.534-1.898c-1.508-1.118-2.314-1.872-3.042-2.704.65-.91 1.976-2.756 3.146-5.486z"/><path d="m194.326 127.784c.494-.546.962-1.04 2.21-2.6v11.882h2.678v-14.872c0-.182 0-.312.208-.416.468-.26.52-.26.52-.39 0-.234-.364-.52-.572-.676.546-.962 1.118-2.054 1.664-3.302.13-.26.208-.312.364-.338.338-.078.52-.104.52-.312 0-.182-.312-.338-.52-.442l-2.522-1.248c-1.066 3.12-2.574 6.76-6.708 10.868zm9.23-12.74v18.98c0 1.404.312 2.6 2.73 2.6h5.408c2.08 0 3.458-.104 3.692-3.926l-2.886-1.3c-.182 2.574-.364 2.626-1.846 2.626h-3.224c-1.014 0-1.222-.286-1.222-1.196v-5.174c3.224-2.496 5.226-4.238 7.826-7.358.182-.234.286-.312.416-.312.546-.052.702-.052.702-.312 0-.234-.364-.416-.546-.52l-2.574-1.378c-1.144 1.872-2.99 4.55-5.824 6.786v-8.034c0-.13 0-.286.182-.416.442-.26.468-.286.468-.468 0-.26-.312-.286-.65-.312z"/><path d="m48.1622 173.362 1.456 1.014c9.126-3.016 13.26-6.76 15.886-9.698l-1.56-2.808c-1.638 1.846-5.564 6.344-12.792 8.45v-13.39c0-.182.026-.234.39-.468.13-.104.234-.182.234-.312 0-.286-.416-.338-1.04-.39l-2.574-.26z"/><path d="m89.4242 158.438c1.404 0 2.548-1.144 2.548-2.574s-1.17-2.574-2.548-2.574-2.522 1.17-2.522 2.574 1.118 2.574 2.522 2.574zm0-1.17c-.754 0-1.352-.65-1.352-1.404 0-.78.624-1.378 1.352-1.378.78 0 1.378.624 1.378 1.378 0 .728-.572 1.404-1.378 1.404zm-16.848 15.236c1.69-1.56 3.25-3.224 4.628-5.252.156-.208.156-.26.364-.26.234-.026.494-.026.494-.312 0-.182-.052-.208-.624-.598l-2.002-1.3c-1.56 2.548-3.406 4.394-5.408 5.902zm18.668-2.236c-1.3-2.392-2.834-4.16-4.55-5.72l-2.21 1.664c.728.754 2.912 2.99 4.264 5.85zm-13.936 5.148c4.264-.052 5.174-.078 5.174-3.354v-9.646h7.644v-2.574h-7.644v-3.38c0-.182 0-.26.208-.416.312-.234.338-.26.338-.364 0-.208-.234-.364-.78-.442l-2.652-.442v5.044h-7.826v2.574h7.826v8.632c0 1.404 0 1.482-1.144 1.482-.598 0-1.482-.052-2.288-.182z"/><path d="m97.6662 163.69v2.886h18.6678v-2.886z"/><path d="m131.908 163.248v-6.968c0-.156 0-.182.312-.442.104-.078.234-.208.234-.338 0-.208-.286-.312-1.066-.442l-2.34-.39v21.034h2.86v-11.284c2.028.91 4.42 1.95 7.514 5.486l1.898-2.626c-2.548-2.548-5.226-4.342-8.476-5.72z"/><path d="m152.942 154.122c-.962 2.964-2.834 6.578-5.304 9.412l2.054 1.924c.806-.962 1.144-1.508 1.456-1.976v12.792h2.652v-15.574c0-.13 0-.208.208-.364.442-.364.494-.416.494-.546 0-.208-.39-.416-.806-.598.702-1.352 1.352-2.6 1.612-3.224.104-.182.156-.286.312-.364.52-.26.598-.312.598-.494 0-.104 0-.234-.546-.364zm5.642-.078c-.806 3.562-2.548 6.708-4.732 9.204l2.314 1.534c.572-.702 1.404-1.716 2.886-4.654h1.092v16.146h2.626v-5.252h7.02v-2.6h-7.02v-2.86h6.214v-2.6h-6.214v-2.834h7.384v-2.366h-9.932c.208-.494.962-2.236 1.248-2.366.234-.104.442-.208.442-.312 0-.156-.234-.312-.546-.39z"/><path d="m187.054 157.996c0-.598 0-2.418.208-2.912.052-.104.546-.52.546-.65 0-.286-.442-.286-1.066-.312l-2.21-.078c0 2.184.026 2.496.078 3.952h-9.334c.182 1.482.286 2.678.286 5.07 0 6.266-.624 8.84-2.236 11.934l2.444 1.066c1.144-2.496 1.378-3.432 1.768-5.07l1.066 2.444c4.758-.156 5.096-1.742 5.174-9.984h-5.538v-2.86h6.526c.364 4.498.884 6.656 2.054 9.334-1.612 1.872-3.094 3.094-5.382 4.394l1.742 2.028c2.444-1.456 3.614-2.574 4.966-4.03 1.976 2.574 3.224 4.186 4.888 4.186.858 0 1.716-.364 2.496-4.602l-2.106-1.326c-.156.78-.442 2.158-.91 2.158-.546 0-1.768-1.196-2.6-2.6.572-.858 1.898-2.834 3.068-6.188.156-.494.182-.546.26-.598.364-.208.494-.26.494-.39 0-.156-.078-.182-.806-.442l-2.184-.78c-.676 2.912-1.586 4.576-2.184 5.668-.676-2.132-.936-3.068-1.378-6.812h8.424v-2.6h-3.614l1.612-1.17c-.806-.936-1.196-1.378-2.418-2.626l-2.002 1.274c.65.598 1.3 1.274 2.054 2.522zm-5.798 7.93c-.078 4.186-.832 4.992-1.95 4.992-.26 0-.598-.026-1.742-.234.312-1.69.494-2.73.598-4.758z"/><path clip-rule="evenodd" d="m380 236c64.065 0 116-51.935 116-116s-51.935-116-116-116-116 51.935-116 116 51.935 116 116 116zm0 4c66.274 0 120-53.726 120-120 0-66.2742-53.726-120-120-120s-120 53.7258-120 120c0 66.274 53.726 120 120 120z" fill-rule="evenodd"/><path d="m374.728 79.0079c1.008-2.496 1.92-3.984 7.44-7.68 5.184-3.456 9.216-6.672 9.216-12.432 0-4.08-2.4-10.56-11.136-10.56-11.088 0-11.52 9.36-11.616 12.528h5.856c.096-3.12.576-7.44 5.712-7.44 4.176 0 5.232 3.264 5.232 5.616 0 2.736-1.344 4.848-6.576 8.304-8.064 5.28-10.368 9.408-11.328 16.656h23.952v-4.992z"/><path d="m325.244 128.382c-.13 2.002-.286 2.6-1.482 2.6h-2.756c-.572 0-.832-.286-.832-.806v-5.304h6.214v-8.216h-8.892v2.444h6.136v3.484h-6.058v9.256c0 .936.494 1.664 1.69 1.664h4.602c2.964 0 3.276-1.326 3.822-3.952zm14.092 6.656c-1.638-.702-3.536-1.794-5.226-3.952 2.34-3.666 2.964-7.774 3.172-9.932h1.95v-2.314h-7.67c.078-.26.156-.546.26-1.144.182-.936.208-1.04.338-1.17.078-.104.676-.52.676-.65 0-.208-.312-.364-.676-.442l-2.756-.52c-.598 5.304-2.236 9.308-3.692 11.18l2.158 1.248c.39-.546.702-.988 1.3-1.976.338 1.976.91 3.718 1.846 5.486-2.392 2.574-5.486 3.978-6.474 4.394l2.054 2.184c2.626-1.3 4.004-2.444 5.902-4.238 1.274 1.664 2.73 2.938 4.81 4.03zm-4.524-13.884c-.182 2.262-.702 4.914-2.262 7.54-.702-1.482-1.534-3.588-1.898-6.942.026-.078.156-.494.208-.598z"/><path d="m364.972 125.236v-1.872h-9.646v-1.274h6.656v-1.846h-6.656v-1.222h8.996v-1.846h-5.746c.78-1.17.884-1.248 1.196-1.378.338-.13.468-.208.468-.338 0-.156-.208-.234-.416-.26l-2.782-.364c-.364.962-.676 1.612-1.04 2.34h-5.694l1.716-.39c-.26-.546-.624-1.248-1.3-2.262l-2.314.65c.442.65.754 1.3 1.092 2.002h-5.746v1.846h8.97v1.222h-6.552v1.846h6.552v1.274h-9.62v1.872h6.006l-1.872.52c.338.468.624 1.04.832 1.56h-5.2v1.924h22.334v-1.924h-5.304c.468-.78.52-.884.598-.91.39-.104.52-.182.52-.364 0-.156-.104-.234-.442-.338l-1.56-.468zm-12.246 2.08h-2.002c-.416-.936-.728-1.482-1.118-2.08h3.12zm2.6-2.08h2.938c-.234.702-.442 1.17-.936 2.08h-2.002zm-6.916 12.064v-.728h10.972v.728h2.6v-6.63h-16.172v6.63zm0-4.758h10.972v2.002h-10.972z"/><path d="m382.652 136.338c1.95-.728 7.8-2.912 7.8-10.192 0-5.46-3.796-9.334-9.802-9.334-6.604 0-11.206 5.044-11.206 10.764 0 5.2 3.744 7.488 5.356 7.488 1.534 0 2.782-2.834 3.042-3.432 2.184-4.914 2.808-9.282 3.224-12.35 1.534.234 6.474.962 6.474 6.838 0 5.928-5.2 7.358-6.838 7.826zm-4.524-16.77c-.26 3.484-1.118 6.942-2.496 10.166-.338.78-.806 1.846-1.378 1.846-.91 0-2.236-1.69-2.236-4.004 0-1.794.65-6.136 6.11-8.008z"/><path d="m404.596 116.734h-8.164c.208 2.678.208 5.46.208 6.266 0 4.134-.39 8.788-2.288 13.598l2.652.676c1.638-4.706 2.21-8.45 2.236-14.586h3.484v3.796h9.1v-3.796h4.576v-2.158h-4.576v-1.638h5.304v-2.158h-9.646v-.728c0-.13.052-.26.156-.338.338-.26.364-.286.364-.364 0-.234-.494-.312-.754-.312l-2.652-.104zm.572 3.796v-1.638h4.212v1.638zm0 2.158h4.212v1.846h-4.212zm-2.444-2.158h-3.484v-1.638h3.484zm13.858 14.586c-1.794-.208-3.718-.468-7.046-1.69 1.144-.91 2.912-2.392 4.68-4.524l-1.404-1.3h-12.688v2.08h3.458l-1.82 1.196c.754.78 1.456 1.456 3.068 2.652-1.586.78-3.536 1.456-5.902 1.742l1.456 2.392c2.444-.676 4.576-1.404 6.942-2.652 1.794.936 3.458 1.612 8.06 2.626zm-6.37-5.434c-1.144 1.066-1.846 1.638-3.198 2.522-.442-.208-1.378-.702-3.042-2.522z"/><path d="m426.306 135.428c.156-1.534.546-3.588 1.69-5.486l-1.716-1.3c-.546 1.014-.78 1.378-1.014 1.716-.156-.936-.208-1.898-.208-2.574 0-4.004 1.482-9.802 2.002-10.01.078-.026.312-.104.39-.156.052-.026.052-.104.052-.156 0-.208-.156-.286-.676-.494l-2.574-1.04c-1.456 7.176-1.794 8.788-1.794 11.674 0 2.834.494 6.11 1.898 8.528zm14.586-17.784c-1.976.598-3.952.884-6.032.884-1.794 0-2.704-.208-3.978-.52l.026 2.73c.936.338 2.782.338 3.354.338 2.808 0 5.018-.416 6.578-.702zm.78 13.806c-3.276.754-5.486.78-6.11.78-2.236 0-3.094-.754-3.094-2.106 0-.442.052-.988.182-1.43l-2.652.234c-.26 4.94.936 6.084 6.396 6.084 2.028 0 3.484-.078 5.2-.338z"/><path d="m324.568 157.606c1.508 0 2.548-1.222 2.548-2.548 0-1.404-1.118-2.548-2.496-2.548-1.404 0-2.522 1.144-2.522 2.548 0 1.482 1.222 2.548 2.47 2.548zm.026-1.196c-.702 0-1.326-.598-1.326-1.352 0-.728.572-1.378 1.352-1.378.754 0 1.326.65 1.326 1.378 0 .676-.52 1.352-1.352 1.352zm-4.576 3.328c-1.56 5.772-4.316 10.348-11.934 13.676l2.392 2.314c8.476-4.212 10.712-10.166 11.726-13.104 1.118-3.198 1.118-3.198 1.846-3.718l-2.418-2.392c-.494.52-.936.52-1.274.52h-14.352v2.704z"/><path d="m334.474 155.422v2.626h12.402v-2.626zm11.362 8.294c-1.69 5.408-4.576 8.268-11.05 10.504l2.496 2.158c5.304-2.08 8.866-5.226 11.31-11.414.39-1.014.624-1.43 1.794-2.21l-2.6-2.47c-.832.806-1.17.806-1.56.806h-14.222v2.626z"/><path d="m364.92 159.478c-1.066-1.17-2.808-2.86-4.758-4.316l-2.002 2.314c2.236 1.612 3.926 3.666 4.576 4.472zm11.362.832c-2.99 3.536-7.254 8.606-17.94 11.414l1.3 2.782c.338.728.39.832.598.832s.286-.182.39-.442c.156-.338.286-.416 1.56-.988 6.396-2.886 9.854-4.446 15.548-10.92z"/><path d="m400.202 160.596v-2.86h-14.17v2.86zm2.574 12.064v-2.86h-19.526v2.86z"/><path d="m416.92 159.478c-1.066-1.17-2.808-2.86-4.758-4.316l-2.002 2.314c2.236 1.612 3.926 3.666 4.576 4.472zm11.362.832c-2.99 3.536-7.254 8.606-17.94 11.414l1.3 2.782c.338.728.39.832.598.832s.286-.182.39-.442c.156-.338.286-.416 1.56-.988 6.396-2.886 9.854-4.446 15.548-10.92z"/><path d="m444.61 157.866c.13-.26.78-1.56.884-1.612.338-.156.52-.26.52-.416s-.624-.416-.91-.52l-2.366-.91c-1.69 4.784-4.524 8.242-7.462 10.244l2.626 1.638c2.236-1.768 3.874-4.134 5.07-5.85h6.968c-2.236 6.76-5.59 11.102-11.596 14.144l2.73 1.872c6.786-4.186 9.438-8.892 11.622-14.924.312-.858.442-.936 1.508-1.612l-2.366-2.548c-.598.494-.858.494-1.248.494zm7.8-2.262c-.806-1.066-1.586-1.742-2.444-2.366l-1.378.988c.884.702 1.664 1.456 2.392 2.392zm4.056-.026c-.754-1.04-1.482-1.794-2.418-2.522l-1.352.936c.39.364 1.3 1.222 2.288 2.704z"/><path clip-rule="evenodd" d="m640 236c64.065 0 116-51.935 116-116s-51.935-116-116-116-116 51.935-116 116 51.935 116 116 116zm0 4c66.274 0 120-53.726 120-120 0-66.2742-53.726-120-120-120s-120 53.7258-120 120c0 66.274 53.726 120 120 120z" fill-rule="evenodd"/><path d="m628.104 72.8639c.384 7.44 4.8 11.76 11.808 11.76 7.44 0 12-4.704 12-10.944 0-2.16-.48-6.384-5.568-8.88 3.072-1.248 4.656-3.984 4.656-7.248 0-4.512-3.6-9.216-10.656-9.216-6.576 0-11.184 3.888-11.472 10.944h5.808c.048-1.344.288-6 5.664-6 3.216 0 4.848 2.016 4.848 4.752 0 3.552-2.88 5.472-6.24 5.472h-1.968v4.176h1.968c2.016 0 7.056.528 7.056 5.952 0 4.032-2.64 6-5.904 6-5.616 0-5.952-4.848-6.096-6.768z"/><path d="m570.32 134.18h-3.224v-3.536h3.224zm-5.252-6.734h7.124v-2.106h-7.124zm17.732-2.86h3.068v-2.6h-8.528v-3.068c1.352-.078 3.354-.338 5.46-.728.78-.156 2.028-.364 2.106-.364.104 0 .598.104.65.104.13 0 .234-.078.234-.208s-.156-.468-.338-.728l-1.248-1.794c-1.664.546-4.784 1.118-6.786 1.352l-2.912-.156c.13 1.716.156 4.29.156 6.292 0 5.642-.208 8.502-1.95 12.532v-6.604h-8.008v8.606h2.392v-1.092h3.224v.806h2.392v-.572l1.872 1.014c2.106-3.562 2.756-8.346 2.756-12.792h2.86v2.886c-.754-.546-.754-.546-1.43-.988l-1.56 2.002c.858.52 2.132 1.43 2.99 2.106v6.916h2.6v-4.706c.208.182 1.066.91 1.274 1.118l1.742-1.976c-1.014-.832-2.574-2.132-3.016-2.6zm-17.732-7.15h7.046v-2.184h-7.046zm0 6.734h7.124v-2.132h-7.124zm-1.092-3.302h9.464v-2.288h-9.464z"/><path d="m608.046 122.22c-1.17 1.872-2.652 3.484-3.64 4.394-.806-1.404-1.586-2.99-2.054-5.408h9.412v-2.652h-4.03l1.092-1.066c-.91-1.014-1.768-1.768-3.146-2.626l-1.612 1.898c.78.598 1.326 1.04 2.184 1.794h-3.978v-2.028c0-.13.052-.182.546-.52.078-.052.182-.182.182-.338 0-.338-.39-.39-.988-.416l-2.496-.13v3.432h-9.334v2.652h9.334v12.402c0 .702-.26.858-.702.858h-2.704l1.274 2.964c3.874-.104 4.888-.702 4.888-2.574v-6.864c1.248 2.184 3.406 5.512 7.41 7.774l2.6-2.054c-1.04-.442-3.536-1.43-6.37-4.914 1.3-1.196 2.496-2.496 3.666-3.822.156-.182.208-.182.624-.182.286 0 .442-.052.442-.234s-.026-.234-.234-.416zm-16.224 1.534c.962 1.144 2.132 2.886 2.782 4.446l2.392-1.69c-.468-1.014-1.144-2.34-2.938-4.446zm6.292 3.952c-2.002 1.534-5.928 3.666-8.06 4.55l1.326 2.756c.234.468.312.494.416.494.13 0 .182-.104.182-.208.026-.208.052-.312.598-.676 2.132-1.404 4.42-2.938 6.318-4.394z"/><path d="m621.748 127.264c4.082 3.068 5.564 5.252 7.098 7.566l2.444-1.846c-.936-1.326-1.56-2.106-2.47-3.146 3.016-3.146 4.524-4.992 5.122-5.72 1.872-2.34 2.028-2.444 3.198-3.25l-2.392-2.314c-1.066.936-1.482.936-1.794.936h-16.016v2.678h14.794c-1.924 2.47-3.198 3.848-4.94 5.642-1.378-1.248-2.288-1.924-3.198-2.574z"/><path d="m649.464 126.354c-.91-2.47-1.716-3.562-2.08-4.03l-2.08.858c.832 1.222 1.482 2.366 2.028 3.952zm4.784-1.04c-.494-1.56-1.04-2.886-1.95-4.238l-1.976.832c.78 1.248 1.378 2.444 1.794 4.108zm-3.874 11.076c7.436-3.536 8.918-9.386 9.958-13.26.052-.234.104-.312.312-.442.156-.104.312-.208.312-.364s-.182-.234-.78-.416l-1.976-.598c-1.352 6.838-3.64 10.764-9.802 13.26z"/><path d="m688.568 118.606c1.508 0 2.548-1.222 2.548-2.548 0-1.404-1.118-2.548-2.496-2.548-1.404 0-2.522 1.144-2.522 2.548 0 1.482 1.222 2.548 2.47 2.548zm.026-1.196c-.702 0-1.326-.598-1.326-1.352 0-.728.572-1.378 1.352-1.378.754 0 1.326.65 1.326 1.378 0 .676-.52 1.352-1.352 1.352zm-4.576 3.328c-1.56 5.772-4.316 10.348-11.934 13.676l2.392 2.314c8.476-4.212 10.712-10.166 11.726-13.104 1.118-3.198 1.118-3.198 1.846-3.718l-2.418-2.392c-.494.52-.936.52-1.274.52h-14.352v2.704z"/><path d="m714.256 116.136c-6.24 1.638-12.662 2.314-19.084 2.756l.52 2.886c1.976-.286 3.562-.494 5.408-.78.728-.104 4.342-.676 5.174-.754-2.132 1.794-5.512 4.628-5.512 9.282 0 2.262 1.3 4.576 3.952 6.032 1.092.598 2.418 1.066 5.07 1.456l.962-3.068c-2.73-.078-6.994-.546-6.994-4.992 0-3.744 3.432-6.5 4.862-7.514 2.314-1.612 4.108-2.028 5.772-2.366zm-.078 9.516c-1.17-1.144-2.366-1.872-2.912-2.21l-1.014 1.326c1.17.754 1.924 1.404 2.756 2.236zm1.95-2.47c-1.04-1.014-1.872-1.612-2.73-2.132l-1.04 1.17c.936.624 1.898 1.326 2.678 2.21z"/><path d="m559.148 163.43c.182 3.51.806 5.538 1.144 6.656-.624.728-1.482 1.69-2.626 2.652v-2.002h-5.122v-1.534h4.368v-9.022h-1.508c.156-.338.754-1.716 1.378-3.276.13-.312.416-.988.546-1.04.572-.26.598-.26.598-.364 0-.234-.468-.39-.624-.442l-2.262-.702c-.65 2.938-1.508 4.68-2.054 5.824h-6.994v9.022h4.316v1.534h-5.278v2.236h5.278v3.38h2.236v-3.38h4.836c-.728.624-1.274.91-1.794 1.196l1.82 1.82c1.352-1.014 2.47-1.95 3.874-3.536 1.066 1.924 2.756 4.056 3.926 4.056.936 0 2.002-1.742 2.522-3.874l-1.82-1.404c-.364.754-.676 1.43-.988 1.43-.286 0-1.456-1.508-1.898-2.392 1.092-1.508 1.222-1.716 2.028-3.354.13-.286.806-1.716.884-1.82.052-.104.624-.416.624-.546 0-.156-.078-.156-.728-.416l-1.898-.728c-.572 1.82-1.092 2.782-1.794 4.056-.234-1.404-.442-2.496-.624-4.446l5.902-1.04-.26-2.288-5.798.962c0-.676 0-5.408.234-5.72.052-.078.52-.364.52-.468 0-.26-.286-.286-.858-.338l-2.418-.208c0 3.302.026 5.278.156 7.124l-2.002.338.286 2.366zm-8.84.312h-2.002v-1.612h2.002zm4.29 0h-2.054v-1.612h2.054zm0 3.51h-2.054v-1.716h2.054zm-4.29 0h-2.002v-1.716h2.002zm12.272-11.492c1.352 2.262 1.534 2.704 1.872 3.484l2.08-.884c-.286-.78-.598-1.534-2.054-3.796zm-17.446.156c.494.624 1.222 1.638 2.002 3.562l2.08-1.066c-.52-1.3-1.17-2.652-2.028-3.744zm4.082-.858c.468 1.014 1.066 2.704 1.352 4.134l2.288-.676c-.468-2.028-.598-2.496-1.274-4.186z"/><path d="m585.72 155.968c.156-.494.26-.754.546-.884.312-.156.598-.26.598-.442 0-.26-.26-.364-.624-.442l-2.392-.494c-.78 3.094-2.08 5.538-3.406 7.176v-5.148h-8.658v19.084h2.158v-2.262h4.342v1.196h2.158v-6.604l1.17 1.326c.182-.104.546-.312.702-.442v8.32h2.47v-1.17h4.082v1.17h2.548v-8.476c.39.234.572.312 1.066.572l1.638-2.626c-.728-.26-3.484-1.17-5.616-3.016 1.144-1.274 2.548-3.172 3.614-5.642l-1.352-1.196zm-8.866 6.942v-4.836h1.43v4.836zm-1.638 0h-1.274v-4.836h1.274zm0 7.306h-1.274v-5.044h1.274zm1.638 0v-5.044h1.43v5.044zm6.76-3.016c.364-.26 1.56-1.066 3.172-2.6 1.248 1.222 2.678 2.158 3.406 2.6zm5.252 5.616h-4.082v-3.328h4.082zm-.182-14.69c-.208.442-.65 1.404-1.898 2.912-.624-.806-1.17-1.56-1.898-2.912zm-8.242 3.224 1.612 1.352c.494-.624.858-1.092 1.534-2.21.338.52.754 1.248 1.56 2.288-1.794 1.638-3.172 2.496-4.706 3.198z"/><path d="m611.694 158.1c.13-.416.468-2.288.598-2.704.026-.13.52-.624.52-.754 0-.234-.104-.234-.988-.364l-2.132-.286c-.078.78-.494 5.642-2.86 8.944v-4.992h-3.536c.182-.702.884-2.99.91-3.068s.416-.39.416-.494c0-.234-.078-.26-.884-.364l-2.236-.312c-.052.416-.364 2.314-.884 4.238h-2.834v18.018h2.6v-1.898h3.9v1.3h2.548v-12.168l2.366 1.482c.91-1.508 1.768-4.16 1.794-4.212h5.564c-.104 3.406-.208 7.358-.884 10.764-.39 1.872-1.378 2.054-2.418 2.054-.364 0-.78-.026-1.508-.052l.65 2.86c2.652-.052 4.394-.104 5.356-2.548 1.274-3.25 1.378-11.492 1.404-15.444zm-7.41 6.682h-3.9v-4.524h3.9zm0 6.968h-3.9v-4.654h3.9zm5.538-7.176c.832 1.144 1.69 2.86 2.262 4.628l2.366-1.222c-.624-1.82-1.326-3.068-2.418-4.654z"/><path d="m628.542 174.428c.156-1.534.546-3.588 1.69-5.486l-1.716-1.3c-.546 1.014-.78 1.378-1.014 1.716-.156-.936-.208-1.898-.208-2.574 0-4.004 1.482-9.802 2.002-10.01.078-.026.312-.104.39-.156.052-.026.052-.104.052-.156 0-.208-.156-.286-.676-.494l-2.574-1.04c-1.456 7.176-1.794 8.788-1.794 11.674 0 2.834.494 6.11 1.898 8.528zm14.586-17.784c-1.976.598-3.952.884-6.032.884-1.794 0-2.704-.208-3.978-.52l.026 2.73c.936.338 2.782.338 3.354.338 2.808 0 5.018-.416 6.578-.702zm.78 13.806c-3.276.754-5.486.78-6.11.78-2.236 0-3.094-.754-3.094-2.106 0-.442.052-.988.182-1.43l-2.652.234c-.26 4.94.936 6.084 6.396 6.084 2.028 0 3.484-.078 5.2-.338z"/><path d="m654.256 153.602v2.912h-4.888v2.444h12.298v-2.444h-4.602v-1.742c0-.13.65-.65.65-.806 0-.182-.182-.234-.832-.26zm7.02 5.772v2.652h2.912c-.832 7.566-3.094 10.582-6.942 13.052l2.366 1.846c3.51-2.912 6.084-5.616 7.124-14.898h2.132c-.026 3.016-.182 5.824-.624 8.788-.312 2.08-.442 3.068-2.626 3.068-.494 0-1.248-.078-1.612-.13l1.17 2.886c2.782-.182 4.732-.338 5.356-3.458.624-3.172.91-10.27.936-13.806h-4.628v-4.03c0-.338.052-.364.364-.598.208-.156.234-.182.234-.312 0-.26-.52-.312-.754-.312l-2.418-.078v5.33zm-4.81 1.612c1.118 1.014 2.522 2.366 3.796 4.238l1.898-1.534c-1.04-1.534-2.236-2.782-3.796-4.16zm-3.276-1.534c-1.352 1.612-2.6 2.704-4.446 3.874l2.106 1.69c1.43-1.144 2.184-1.898 3.354-3.276.234-.286.494-.572.702-.598.52-.078.572-.078.572-.234 0-.182-.364-.468-.78-.676zm-1.768 6.214c.884.91 2.288 2.704 2.704 3.224-1.482 2.08-2.912 3.796-5.538 5.824l2.106 1.69c2.34-1.95 3.51-3.224 5.044-5.278.442.624.962 1.404 1.69 2.704l2.106-1.742c-.416-.702-1.352-2.054-2.262-3.354.494-.936.754-1.43 1.222-2.678.052-.13.182-.442.39-.468.442-.104.546-.13.546-.312 0-.208-.312-.442-.494-.52l-2.21-.988c-.416 1.118-.754 1.846-1.196 2.73-.988-1.196-1.456-1.742-2.132-2.366z"/><path d="m683.584 168.032c-1.872 1.872-4.472 4.108-8.45 5.642l2.028 2.158c3.822-2.158 5.226-3.094 7.8-5.616v6.214h2.522v-6.214c2.158 2.47 3.302 3.38 7.254 5.694l1.898-2.262c-3.458-1.56-5.59-2.86-8.138-5.616h8.866v-2.366h-9.88v-1.638h6.916v-9.62h-16.328v9.62h6.89v1.638h-9.906v2.366zm1.378-9.854h-4.29v-1.69h4.29zm2.522 0v-1.69h4.342v1.69zm0 1.95h4.342v1.794h-4.342zm-2.522 0v1.794h-4.29v-1.794z"/><path d="m716.864 156.02h-3.276v11.856c0 2.912-1.3 4.888-4.472 4.888-4.498 0-4.498-3.9-4.498-4.888v-11.856h-3.25v11.804c0 6.76 4.706 7.8 7.8 7.8 2.34 0 7.696-.624 7.696-7.8z"/><path d="m721.097 156.02v18.98h3.25v-6.786h4.81c3.146 0 6.5-1.898 6.5-6.214 0-3.51-2.028-5.98-6.266-5.98zm3.25 2.73h4.524c2.47 0 3.328 1.664 3.328 3.354s-.936 3.38-3.328 3.38h-4.524z"/><path clip-rule="evenodd" d="m900 236c64.065 0 116-51.935 116-116s-51.935-116-116-116-116 51.935-116 116 51.935 116 116 116zm0 4c66.274 0 120-53.726 120-120 0-66.2742-53.726-120-120-120s-120 53.7258-120 120c0 66.274 53.726 120 120 120z" fill-rule="evenodd"/><path d="m907.928 48.96h-6.768l-13.776 22.32v4.992h14.736v7.728h5.808v-7.728h4.704v-4.992h-4.704zm-15.504 22.32 9.696-15.744v15.744z"/><path d="m816.02 114.602v2.912h-4.888v2.444h12.298v-2.444h-4.602v-1.742c0-.13.65-.65.65-.806 0-.182-.182-.234-.832-.26zm7.02 5.772v2.652h2.912c-.832 7.566-3.094 10.582-6.942 13.052l2.366 1.846c3.51-2.912 6.084-5.616 7.124-14.898h2.132c-.026 3.016-.182 5.824-.624 8.788-.312 2.08-.442 3.068-2.626 3.068-.494 0-1.248-.078-1.612-.13l1.17 2.886c2.782-.182 4.732-.338 5.356-3.458.624-3.172.91-10.27.936-13.806h-4.628v-4.03c0-.338.052-.364.364-.598.208-.156.234-.182.234-.312 0-.26-.52-.312-.754-.312l-2.418-.078v5.33zm-4.81 1.612c1.118 1.014 2.522 2.366 3.796 4.238l1.898-1.534c-1.04-1.534-2.236-2.782-3.796-4.16zm-3.276-1.534c-1.352 1.612-2.6 2.704-4.446 3.874l2.106 1.69c1.43-1.144 2.184-1.898 3.354-3.276.234-.286.494-.572.702-.598.52-.078.572-.078.572-.234 0-.182-.364-.468-.78-.676zm-1.768 6.214c.884.91 2.288 2.704 2.704 3.224-1.482 2.08-2.912 3.796-5.538 5.824l2.106 1.69c2.34-1.95 3.51-3.224 5.044-5.278.442.624.962 1.404 1.69 2.704l2.106-1.742c-.416-.702-1.352-2.054-2.262-3.354.494-.936.754-1.43 1.222-2.678.052-.13.182-.442.39-.468.442-.104.546-.13.546-.312 0-.208-.312-.442-.494-.52l-2.21-.988c-.416 1.118-.754 1.846-1.196 2.73-.988-1.196-1.456-1.742-2.132-2.366z"/><path d="m845.348 129.032c-1.872 1.872-4.472 4.108-8.45 5.642l2.028 2.158c3.822-2.158 5.226-3.094 7.8-5.616v6.214h2.522v-6.214c2.158 2.47 3.302 3.38 7.254 5.694l1.898-2.262c-3.458-1.56-5.59-2.86-8.138-5.616h8.866v-2.366h-9.88v-1.638h6.916v-9.62h-16.328v9.62h6.89v1.638h-9.906v2.366zm1.378-9.854h-4.29v-1.69h4.29zm2.522 0v-1.69h4.342v1.69zm0 1.95h4.342v1.794h-4.342zm-2.522 0v1.794h-4.29v-1.794z"/><path d="m877.458 119.1c.13-.416.468-2.288.598-2.704.026-.13.52-.624.52-.754 0-.234-.104-.234-.988-.364l-2.132-.286c-.078.78-.494 5.642-2.86 8.944v-4.992h-3.536c.182-.702.884-2.99.91-3.068s.416-.39.416-.494c0-.234-.078-.26-.884-.364l-2.236-.312c-.052.416-.364 2.314-.884 4.238h-2.834v18.018h2.6v-1.898h3.9v1.3h2.548v-12.168l2.366 1.482c.91-1.508 1.768-4.16 1.794-4.212h5.564c-.104 3.406-.208 7.358-.884 10.764-.39 1.872-1.378 2.054-2.418 2.054-.364 0-.78-.026-1.508-.052l.65 2.86c2.652-.052 4.394-.104 5.356-2.548 1.274-3.25 1.378-11.492 1.404-15.444zm-7.41 6.682h-3.9v-4.524h3.9zm0 6.968h-3.9v-4.654h3.9zm5.538-7.176c.832 1.144 1.69 2.86 2.262 4.628l2.366-1.222c-.624-1.82-1.326-3.068-2.418-4.654z"/><path d="m908.606 134.102c-1.118-.962-2.366-1.872-4.238-2.808 0-.546-.104-3.276-.104-3.9 0-.728 0-1.144 1.222-2.158l-2.574-1.56c-.78.676-1.3 1.326-1.3 3.068 0 .52.078 3.016.104 3.588-.494-.13-1.3-.312-2.418-.312-2.574 0-4.394 1.638-4.394 3.666 0 2.34 2.314 3.796 5.2 3.796 3.614 0 4.108-1.976 4.316-3.068.884.598 1.612 1.17 2.47 2.028zm-6.864-1.066c-.052.728-.13 2.002-2.002 2.002-.728 0-2.288-.26-2.288-1.378 0-.286.156-1.248 1.664-1.248.806 0 1.482.208 2.626.624zm-3.952-18.382c-.338 1.638-.832 3.224-1.326 4.758-.728.052-1.404.104-2.132.104-.988 0-1.898-.104-2.47-.156l.13 2.756c1.066-.026 2.47-.078 3.536-.13-1.326 3.406-2.938 6.682-5.356 9.386l2.886 1.352c.156-.26 3.562-5.98 5.408-10.946 1.846-.208 3.042-.442 4.108-.728l.182-2.938c-.624.312-1.378.546-3.354.936.156-.468.832-2.47 1.066-2.626.13-.078.572-.364.572-.442 0-.234-.546-.416-.832-.52zm12.428 8.268c-1.222-.988-3.094-2.262-5.85-2.964l-1.404 2.054c1.716.572 4.16 1.638 5.694 3.146z"/><path d="m922.438 117.8c.676-.052 1.56-.182 2.366-.338.208-.052.572-.13.728-.156.182.052.702.286.832.286.182 0 .286-.104.286-.234 0-.156-.13-.338-.312-.624l-1.17-1.742c-.988.364-3.042 1.144-7.566 1.144-.832 0-1.404-.026-1.95-.052l1.17 2.002c1.352 0 2.106-.026 3.328-.104v.988h-5.122v1.872h5.122v1.066h-4.186v6.916h4.186v1.144h-4.394v1.82h4.394v1.534c-1.612.156-2.288.208-5.044.416l.312 2.236c.026.26.078.572.286.572.13 0 .494-.572.624-.624.416-.13 8.606-1.118 10.218-1.352-.546.676-.884.988-1.612 1.534l2.418 1.664c3.406-4.004 4.524-7.748 5.096-14.612h1.846c-.026 2.262-.13 9.75-1.222 11.258-.26.338-.494.338-2.548.338l1.196 2.6c1.716-.026 3.614-.078 4.29-3.432.286-1.378.858-4.992.884-13.182h-4.29c0-.546-.026-3.328-.026-3.952 0-.338.026-.52.26-.676.442-.312.546-.416.546-.546 0-.26-.364-.286-.91-.312l-2.626-.13c.104 1.144.208 2.704.156 5.616h-2.132v2.418h2.002c-.338 6.058-1.976 9.1-2.886 10.816v-1.3c-.65.052-3.822.364-4.55.442v-1.326h4.524v-1.82h-4.524v-1.144h4.316v-6.916h-4.316v-1.066h4.992v-1.872h-4.992zm-2.288 6.864h-1.872v-1.248h1.872zm4.368 0h-2.08v-1.248h2.08zm-4.368 1.43v1.3h-1.872v-1.3zm4.368 0v1.3h-2.08v-1.3z"/><path d="m958.344 131.944v-11.648h-5.174v-2.158h9.828v-2.366h-22.1v2.366h9.75v2.158h-5.044v11.648zm-7.696-6.968h-2.6v-2.444h2.6zm2.522 0v-2.444h2.652v2.444zm-2.522 2.158v2.574h-2.6v-2.574zm2.522 0h2.652v2.574h-2.652zm6.864 6.812h-16.094v-12.454c0-.156.052-.338.182-.416.364-.286.416-.312.416-.442 0-.286-.572-.338-.702-.338l-2.574-.208v17.108h2.678v-1.014h16.094v1.014h2.678v-16.016c0-.286.026-.364.234-.52.234-.182.26-.208.26-.312 0-.208-.26-.234-.754-.286l-2.418-.286z"/><path d="m986.294 122.844c-1.742 1.248-3.9 2.158-4.55 2.418-.39-1.482-1.092-2.912-3.51-2.912-1.118 0-1.846.286-2.262.442.468-.65.858-1.274 1.352-2.262 1.222-.13 4.264-.494 6.266-.988l.312-2.782c-1.378.624-3.978 1.144-5.356 1.3.104-.234.78-1.716.884-1.768.52-.364.572-.416.572-.546s0-.234-.936-.39l-2.522-.442c-.234 1.17-.676 2.392-1.066 3.458-1.066.026-1.144.026-1.794.026-1.144 0-2.236-.026-3.38-.156l.364 2.704c1.222.052 3.328-.078 3.666-.104-.676 1.378-2.184 4.004-5.174 6.994l2.392 1.56c1.196-1.872 3.328-4.888 5.72-4.888 1.534 0 1.872 1.222 2.054 1.846-2.392 1.222-6.214 3.12-6.214 6.812 0 3.64 4.264 3.978 7.228 3.978 2.444 0 4.316-.286 5.876-.546v-2.808c-3.51.806-5.772.91-6.708.91-1.534 0-3.692-.182-3.692-2.054 0-2.054 2.704-3.38 3.64-3.848 0 .65 0 .728-.13 4.108h2.938c-.026-1.69-.156-3.51-.26-5.226.754-.286 4.446-1.742 5.278-2.054z"/><path d="m856.19 174.688h2.47v-1.248h7.176v-4.862h-9.646zm7.15-2.964h-4.68v-1.482h4.68zm-8.45-7.67h12.298v-5.07h-12.298zm9.62-3.302v1.534h-6.994v-1.534zm-2.002-5.304v-.416c0-.156 0-.234.312-.468.312-.26.416-.39.416-.52 0-.182-.078-.182-.754-.234l-2.99-.182v1.82h-9.438v2.288h21.892v-2.288zm4.316 21.294c3.068-.26 3.952-.338 3.952-2.678v-8.762h-19.474v11.206h2.73v-9.152h13.988v5.746c0 .442-.026.962-.962.962-.156 0-.832-.026-1.43-.078z"/><path d="m895.788 166.576v-6.604h-5.07v-1.586h6.89v-2.08h-6.89v-.832c0-.13 0-.26.208-.468.312-.286.416-.364.416-.494 0-.312-.312-.312-1.17-.338l-1.872-.078v2.21h-6.318v2.08h6.318v1.586h-4.966v6.604h3.276c-1.534 2.288-3.822 3.692-4.706 4.212l1.95 1.612c2.652-2.002 3.822-3.562 4.446-4.42v5.096h2.418v-4.94c1.846 2.21 3.926 3.458 5.174 4.134l1.82-1.768c-2.782-1.378-4.42-2.626-5.668-3.926zm-7.488-4.602v2.522h-2.522v-2.522zm2.418 0h2.626v2.522h-2.626zm-14.508-5.148c1.17.858 2.158 1.69 3.354 3.198l1.742-1.872c-1.092-1.378-2.028-2.262-3.354-3.224zm22.1 16.484c-3.38.338-7.852.546-11.648.546-1.898 0-5.33 0-5.33-2.704v-7.54h-5.538v2.366h3.016v5.772c-1.326 1.092-3.016 2.028-3.718 2.418l1.352 1.976c.182.26.442.52.624.52.052 0 .104-.026.156-.078.052-.078.104-.364.13-.494.078-.13 1.924-1.612 2.938-2.392 1.482 2.366 4.108 2.366 7.644 2.366h9.178z"/><path d="m915.808 161.636.65-.702c-.208-.13-.338-.208-.754-.442 2.028-1.326 3.692-2.444 6.136-4.212l-1.274-1.508h-16.068v2.366h11.778c-.754.598-1.586 1.196-3.094 2.184-.546-.286-2.158-1.066-3.692-1.612l-1.222 2.028c1.95.754 2.912 1.196 4.03 1.898h-10.062v2.522h9.568v8.606c0 .52-.468.78-.962.78-.234 0-1.04-.026-2.522-.338l.91 3.016h2.496c2.288 0 2.834-.936 2.834-3.068v-8.996h5.408c-1.378 2.054-2.314 3.302-3.536 4.732l2.184 1.534c1.612-1.95 3.354-4.16 5.434-7.488l-1.586-1.3z"/><path d="m934.372 156.514v13.572h7.644v-15.47h-7.644v1.82c-1.352-1.222-2.938-1.976-3.666-2.314l-1.56 2.34c1.17.494 2.704 1.378 3.796 2.262zm5.278 4.68v2.34h-2.886v-2.34zm0-4.342v2.34h-2.886v-2.34zm0 8.684v2.392h-2.886v-2.392zm-6.994-3.432c-1.196-.754-2.964-1.56-4.368-1.846l-1.196 2.262c2.002.572 3.458 1.43 4.238 1.924zm-.988 3.796c-.806 2.496-2.496 5.876-4.342 8.32l2.34 1.872c.182.13.364.13.39.13.078 0 .234-.078.234-.312 0-.078-.104-.442-.104-.52s.26-.572.312-.65c1.196-2.444 2.34-4.888 3.25-7.436zm7.254 5.746c.65 1.118 2.106 3.172 3.016 4.16l2.184-1.586c-1.092-1.014-2.444-2.834-3.094-3.926zm4.446-15.834v14.04h2.444v-12.506c0-.234.156-.442.26-.572.052-.078.338-.364.338-.442 0-.208-.312-.26-.39-.26zm-7.202 14.534c-1.352 2.236-2.574 3.38-3.874 4.316l1.976 1.534c1.248-1.04 1.976-1.768 2.626-2.626.13-.208.78-1.17.988-1.378.078-.078.702-.338.702-.468 0-.104-.26-.26-.364-.312zm9.516 6.006c1.95-.026 4.238-.13 4.238-2.21v-18.33c0-.208.104-.442.208-.572.182-.234.364-.442.364-.52 0-.182-.312-.208-.442-.234l-2.678-.286v18.486c0 .962-.78 1.092-1.508 1.092-.286 0-.806-.026-1.3-.078z"/></g></svg>