<svg fill="none" height="54" viewBox="0 0 80 54" width="80" xmlns="http://www.w3.org/2000/svg"><g fill="#fff"><path d="m12.9073 4.2702v6.39h10.14v3.3h-10.14v8.04h-3.89998v-21.00001h15.32998v3.27001z"/><path d="m42.3207 17.1402h-10.5l-2.07 4.86h-4.02l9.45-21.00001h3.84l9.48 21.00001h-4.08zm-1.29-3.06-3.96-9.18001-3.93 9.18001z"/><path d="m74.5484 24.1002c-.7.82-1.52 1.44-2.46 1.86-.92.42-1.93.63-3.03.63-1.44 0-2.76-.33-3.96-.99-1.2-.64-2.57-1.76-4.11-3.36-1.94-.16-3.68-.72-5.22-1.68-1.54-.98-2.74-2.25-3.6-3.81-.86-1.58-1.29-3.33-1.29-5.25 0-2.04.49-3.88 1.47-5.52.98-1.66 2.33-2.95 4.05-3.87 1.72-.94 3.65-1.410005 5.79-1.410005s4.07.470005 5.79 1.410005c1.72.92 3.07 2.19999 4.05 3.84.98 1.64 1.47 3.49 1.47 5.55 0 1.66-.33 3.2-.99 4.62-.66 1.4-1.58 2.6-2.76 3.6-1.18.98-2.55 1.69-4.11 2.13.58.62 1.15 1.07 1.71 1.35s1.16.42 1.8.42c1.38 0 2.58-.56 3.6-1.68zm-19.74-12.6c0 1.4.32 2.67.96 3.81.64 1.12 1.52 2 2.64 2.64 1.12.62 2.38.93 3.78.93s2.66-.31 3.78-.93c1.12-.64 2-1.52 2.64-2.64.64-1.14.96-2.41.96-3.81s-.32-2.66-.96-3.78c-.64-1.14001-1.52-2.02-2.64-2.64-1.12-.64-2.38-.96-3.78-.96s-2.66.32-3.78.96c-1.12.62-2 1.49999-2.64 2.64-.64 1.12-.96 2.38-.96 3.78z"/><path d="m0 51h80v3h-80z"/></g></svg>