<svg fill="none" height="144" viewBox="0 0 781 144" width="781" xmlns="http://www.w3.org/2000/svg"><g fill="#222"><path d="m36.4093 51.1596v-49.37999h-36.3599836v49.55999h7.0800036v-2.04h22.19998v1.86zm-7.08-22.08h-22.19998v-7.5h22.19998zm0-13.68h-22.19998v-7.31999h22.19998zm0 27.6h-22.19998v-7.8h22.19998z"/><path d="m104.389 17.9196v-7.8h-16.7397c.72-2.87999.78-3.05999 1.14-5.33999.12-.42.3-.54.9-1.02.36-.3.42-.54.42-.66 0-.36-.42-.66-.78-.72l-6.42-1.02c-1.92 11.33999-4.62 16.13999-7.02 20.09999v-11.51999h-8.28c.66-2.1.9-3.18 1.44-5.58.18-.72.3-.84 1.26-1.38.48-.24.48-.6.48-.72 0-.36-.36-.54-.66-.6l-6.72-1.02c-.48 3.18-1.2 6.3-2.28 9.3h-6.54v40.79999h6.54v-3.36h8.22v2.1h6.54v-27.72l5.46 3c1.5-2.34 2.64-4.32 4.2-8.34h12.6v4.74c0 9.9-1.62 19.08-2.94 21.84-.9 1.86-2.16 2.46-4.5 2.46-.84 0-2.46-.06-4.5-.42l3.12 6.54h3.12c4.14 0 6.3-1.74 7.6797-4.44 3.18-6 4.26-21.54 4.26-29.22zm-35.0397 7.26h-8.22v-8.88h8.22zm0 16.2h-8.22v-10.2h8.22zm23.76-7.02c-.96-3.78-2.46-7.74-3.96-11.52l-5.7 1.92c1.74 3.66 2.94 7.5 3.72 11.52z"/><path d="m165.229 18.0396c0-7.56-6.48-10.55999-12.18-10.55999-2.76 0-5.34.72-7.38 1.32-2.94-3.9-4.26-5.34-6-7.14l-6.18 2.88c1.62 1.32 3.06 2.7 6.06 6.59999-2.52 1.08-4.32 1.92-7.56 3.6-1.02-1.86-2.82-5.15999-3.24-5.75999-.18-.36-.78-1.26-.78-1.5 0-.3.48-1.5.48-1.8 0-1.08-1.68-.24-2.4.06l-6.36 2.76c2.46 3.05999 4.14 5.87999 6.18 9.53999-8.34 4.8-9.3 5.34-10.14 5.82l5.4 5.94c1.92-1.74 3.72-3.18 7.8-5.88 2.58 5.16 6.12 12.48 10.2 27l6.72-3c-3.6-11.22-6.54-18.36-11.04-27.48 3.66-1.98 5.34-2.82 8.28-4.08 1.86 3.06 2.46 4.26 3 5.46l6.48-2.76c-1.38-2.28-2.34-3.84-3.18-4.98.84-.24 2.52-.72 3.9-.72 1.92 0 5.58 1.2 5.58 4.5 0 4.14-4.38 7.92-11.58 7.92-1.2 0-2.52-.12-3.72-.3l2.28 6.54c4.68-.12 19.38-.54 19.38-13.98z"/><path d="m228.709 45.1596c-4.5-2.94-8.76-6.48-11.64-11.04h10.68v-5.88h-13.14v-3.36h11.16v-23.39999h-28.14v23.39999h10.5v3.36h-12.18v5.88h8.34c-4.08 6.36-7.8 8.94-9.84 10.32v-11.22h-17.04v18.54h6v-2.64h5.22v1.68h5.82v-3.72l3.6 2.88c4.8-3.72 7.68-7.32 10.08-11.4v13.44h6.48v-11.76c3.36 4.8 6.42 7.38 9.12 9.36zm-9.24-34.5h-4.86v-3.83999h4.86zm0 9.6h-4.86v-4.74h4.86zm-11.34-9.6h-4.5v-3.83999h4.5zm0 9.6h-4.5v-4.74h4.5zm-19.5 23.34h-5.22v-5.22h5.22zm4.56-36.71999v-5.52h-14.04v5.52zm2.52 7.61999v-5.21999h-19.56v5.21999zm-2.7 7.92v-4.86h-13.98v4.86zm.18 7.8v-4.86h-14.34v4.86z"/><path d="m288.769 6.51961v-4.74h-26.16v4.74h8.64c-.66 1.8-1.08 2.7-2.04 4.31999h-5.16v23.52h5.88c-3.12 3.12-5.52 4.44-8.88 5.88l4.26 3.9c1.38-.72 3.96-2.16 7.8-5.52.42.06.6.12.78.12.24 0 .54-.06.54-.36 0-.42-.24-.66-.42-.84l-3.18-3.18h15.9v-23.52h-11.58c.78-1.19999 1.5-2.33999 2.46-4.31999zm-28.68 13.85999v-18.59999h-21.06v18.59999zm20.94 3.42h-11.28v-2.58h11.28zm0-6.12h-11.28v-2.58h11.28zm0 12.42h-11.28v-2.7h11.28zm-26.82-20.93999h-9.3v-3.18h9.3zm0 7.01999h-9.3v-3.48h9.3zm35.64 28.8c-7.44.84-15 1.32-22.5 1.32-8.1 0-11.22-1.02-13.26-1.62v-6.96h7.68v-4.86h-7.68v-5.16h7.74v-4.86h-24.6v4.86h10.92v13.26c-1.26-1.32-1.8-2.28-2.52-3.54 0-.36.24-3.9.3-4.02.06-.18.6-.72.6-.84 0-.3-.24-.48-.54-.54l-5.7-.66c-.36 8.76-1.56 13.68-4.08 19.08l5.82 1.8c1.08-2.46 1.8-4.68 2.7-8.7 1.26 1.56 3.3 4.08 7.26 5.76 1.98.84 7.56 2.22 13.98 2.22h21.54zm-1.38-5.64c-4.98-1.68-7.98-4.08-9.06-4.92l-3 3.96c1.56 1.38 4.74 4.02 9.24 5.58z"/><path d="m344.029 13.1196v-6.95999c-2.28.78-7.2 2.46-14.22 2.46-3.24 0-5.94-.42-7.68-.66v6.59999c3.18.3 5.94.3 6.42.3 6.66 0 12.72-1.2 15.48-1.74zm2.88 31.5v-7.44c-2.16.6-6.84 1.86-13.68 1.86-6.06 0-6.66-1.62-6.72-7.32l-6.54.9c.18 10.14 2.46 13.08 13.38 13.08 6.36 0 10.38-.6 13.56-1.08zm-31.38-10.68-3.54-1.92c-1.32 2.34-1.68 2.94-2.4 4.2-.84-2.58-.84-7.2-.84-8.22 0-9.06 2.58-19.91999 3.48-20.45999.12-.06.9-.36 1.02-.42.24-.18.3-.42.3-.54 0-.48-1.14-.9-1.56-1.08l-6.12-2.22c-.84 3.54-1.68 7.19999-2.52 13.67999-.42 3.54-.9 7.98-.9 11.82 0 4.62.66 10.2 2.46 15.78.72 2.22 1.26 3.18 2.22 4.74l4.74-1.86c.6-3.84 1.5-8.58 3.66-13.5z"/><path d="m400.909 23.3796c-3-3.96-7.62-7.98-10.56-10.32l-5.1 5.04c2.64 1.92 6.72 5.22 9.9 9.84zm11.82 22.26c-2.76-9.06-6.12-15.18-7.8-18.18l-6.6 3.48c1.98 3.48 4.92 9.24 7.26 17.4zm-1.44-32.64v-6.11999h-22.08v-3.9c0-.3.3-.42.78-.72.66-.36.72-.66.72-.84 0-.48-.18-.720001-1.86-.839999l-7.62-.4800016v6.7800006h-19.92c.9 8.69999.96 17.99999.96 18.95999 0 13.44-2.34 19.32-5.04 24.72l6.96 2.16c2.58-5.64 4.8-12.18 4.8-31.32 0-1.86 0-4.92-.36-8.4zm-10.5 28.08-6.6-2.52c0 .54 0 4.38-.06 4.56-.12.96-.66 2.16-2.22 2.16h-2.52c-1.5 0-1.86-.78-1.86-2.88v-17.22c0-.42.24-.6.36-.72.72-.6.9-.72.9-1.08 0-.6-.96-.78-2.16-.84l-6.78-.3v24.6c0 2.52 1.14 5.34 4.44 5.34h10.5c5.04 0 5.58-5.16 6-11.1zm-21.6-11.22c0-.6-.9-.78-1.44-.9l-6.06-1.26c-.06 3-1.08 11.76-3.72 17.52l6.6 2.52c2.04-4.92 2.4-7.68 3.72-16.38.06-.3.18-.42.66-1.02.12-.12.24-.24.24-.48z"/><path d="m466.849 9.21961c-1.86-2.1-3.36-3.42-5.58-5.16l-2.52 2.82c2.64 2.1 4.02 3.47999 5.52 5.15999zm-5.46 5.27999c-1.74-1.98-3.06-3.18-5.58-5.15999l-2.52 2.81999c2.16 1.68 3.78 3.18 5.52 5.16zm4.62 19.56-5.7-4.74c-4.86 10.26-12.12 13.8-16.92 13.8-1.32 0-3.42-.3-4.86-2.16-.84-1.02-1.44-2.64-1.44-11.28 0-7.5.78-22.79999 1.44-23.51999.36-.36 1.38-1.08 1.38-1.62 0-.66-1.68-.84-1.86-.84l-7.68-.9c.06 3.72 0 20.33999 0 23.75999 0 14.58 1.26 18.36 3.78 20.7 1.68 1.5 4.62 3.06 8.82 3.06 11.52 0 18.66-9.78 23.04-16.26z"/><path d="m524.569 9.69961v-7.2c-11.7 3.42-29.64 5.46-43.74 5.58l1.2 7.07999c7.14-1.32 15.24-1.98 22.86-2.58-2.82 2.64-11.64 10.92-11.64 21.18 0 13.38 15 16.5 19.86 17.52l2.1-7.56c-2.52-.06-6.66-.18-10.44-2.88-3.72-2.64-4.44-6.36-4.44-8.4 0-6 4.98-12.66 10.26-16.92 6.54-5.28 11.4-5.57999 13.98-5.81999z"/><path d="m578.509 48.9996-16.8-43.79999h-9.18l-16.8 43.79999h8.94l3.24-9.42h18.42l3.24 9.42zm-14.52-16.2h-13.68l5.82-16.86 1.02-3.84.96 3.84z"/><path d="m620.317 35.7996c0-2.4-.72-5.1-2.64-7.08-1.5-1.56-2.94-2.46-7.2-3.24 3.24-.54 4.38-1.14 5.76-2.64 1.56-1.68 2.52-3.96 2.52-6.72 0-6.83999-5.22-10.91999-14.1-10.91999h-19.2v43.79999h20.46c9.24 0 14.4-6.84 14.4-13.2zm-9.66-18.66c0 3.78-3 5.58-6.54 5.58h-10.56v-10.68h11.88c3.12 0 5.22 2.04 5.22 5.1zm1.44 18.42c0 4.68-3.72 6.6-6.96 6.6h-11.58v-12.78h12.54c3.18 0 6 2.22 6 6.18z"/><path d="m667.931 9.93961v-6.48h-29.04v6.48zm8.1 14.87999v-6.18h-45.3v6.18h20.16c-.3 11.7-4.02 17.46-16.02 21.78l5.88 4.92c3.3-1.56 9.3-4.32 13.32-11.16 3.54-6.06 3.72-12.18 3.78-15.54z"/><path d="m731.651 41.7996c-4.92-5.34-10.08-10.44-15.9-14.82 3.78-5.88 4.92-8.64 6.96-13.44.72-1.74 2.04-2.76 3.24-3.59999l-4.62-5.1c-1.08.72-1.98 1.32-3.12 1.32h-25.86v6.95999h22.86c-1.38 3.42-3.72 9.48-10.2 16.38-7.62 8.1-15.24 11.28-19.14 12.96l5.28 5.46c11.28-5.52 15.72-10.08 20.52-15.42 4.92 3.96 9.18 8.28 14.64 15z"/><path d="m780.911 30.0996c-2.4-2.1-4.62-4.08-9.36-7.2-5.16-3.36-7.14-4.14-10.2-5.46l-2.82 4.44v-15.77999c0-.3 1.56-1.26 1.56-1.62 0-.72-1.26-.9-1.44-.96l-7.2-1.26v47.51999h7.08v-25.92c7.2 3 13.2 7.86 17.64 12z"/><path d="m89.5201 92.1996c0-3.12-2.46-5.7-5.64-5.7-3.12 0-5.58 2.58-5.58 5.7 0 3.18 2.52 5.76 5.58 5.76 3.12 0 5.64-2.52 5.64-5.76zm-7.2 9.3004-5.94-5.4004c-.6.48-1.26.96-1.98.96h-33.96v6.9604h31.98c-1.08 3.12-2.94 8.58-7.5 14.7-7.32 9.9-15.84 13.86-19.92 15.72l6.54 5.28c4.14-2.28 11.34-6.3 17.76-14.64 5.7-7.38 8.28-14.22 10.56-20.28.6-1.56 1.5-2.46 2.46-3.3zm4.86-9.3004c0 2.04-1.56 3.42-3.3 3.42-1.68 0-3.3-1.44-3.3-3.42 0-1.92 1.56-3.36 3.3-3.36 1.8 0 3.3 1.44 3.3 3.36z"/><path d="m133.32 100.06v-6.7804h-28.5v6.7804zm7.32 10.68-4.86-5.16c-.72.42-1.98 1.14-2.94 1.14h-34.0199v6.6h31.1399c-.84 2.4-2.58 7.26-7.62 12.72-6.48 6.96-13.2 9.36-16.8 10.62l5.58 5.16c3.96-1.68 10.56-4.44 16.68-11.04 5.4-5.82 7.62-11.28 9.9-16.68.18-.36.84-1.68 2.94-3.36z"/><path d="m172.44 101.44c-3.78-3.1204-8.64-5.7004-12.6-7.4404l-3.66 5.64c4.8 2.1604 8.88 4.7404 12.3 7.5604zm28.56 6.24-4.14-6c-2.64 3.6-8.4 11.52-17.58 18.36-9.6 7.2-17.46 9.24-22.26 10.38l4.2 7.2c.42.78.96 1.14 1.32 1.14.48 0 .6-1.02.9-1.86 7.44-3.18 13.14-5.7 22.62-13.38 7.92-6.42 12.6-12.72 14.94-15.84z"/><path d="m251.82 105.88v-7.1404h-32.46v7.1404zm6.18 27.72v-7.14h-45.06v7.14z"/><path d="m288.84 101.44c-3.78-3.1204-8.64-5.7004-12.6-7.4404l-3.66 5.64c4.8 2.1604 8.88 4.7404 12.3 7.5604zm28.56 6.24-4.14-6c-2.64 3.6-8.4 11.52-17.58 18.36-9.6 7.2-17.46 9.24-22.26 10.38l4.2 7.2c.42.78.96 1.14 1.32 1.14.48 0 .6-1.02.9-1.86 7.44-3.18 13.14-5.7 22.62-13.38 7.92-6.42 12.6-12.72 14.94-15.84z"/><path d="m378.06 93.8796c-1.38-1.98-3.3-4.32-5.34-5.82l-3.06 2.46c2.46 1.86 4.26 4.32 5.34 5.82zm-8.58 0c-1.5-1.98-3.12-3.48-5.16-4.98l-3.12 2.46c2.16 1.56 3.66 3 5.22 4.98zm3.12 10.2004-5.04-5.8804c-1.14.72-1.98.9-2.58.9h-13.44c.66-.96 1.38-2.52 2.04-3.3 1.02-.36 1.38-.48 1.38-.84 0-.54-1.08-1.02-1.56-1.26l-6-2.7c-2.58 7.62-8.58 16.3204-17.1 23.1604l5.94 4.26c5.4-5.22 8.04-8.28 11.52-13.2h15.36c-.9 2.76-2.64 8.28-7.68 15.06-7.5 10.02-15.6 14.04-19.26 15.9l6.6 4.68c3.54-2.22 10.08-6.3 16.44-14.28 5.94-7.44 8.16-13.56 10.2-18.96.3-.84 1.26-2.16 3.18-3.54z"/><path d="m429.24 126.7c0-6.18-2.46-10.38-3.96-13.02l-5.58 2.94c.78 1.32 2.7 4.86 2.7 8.94 0 7.26-6.06 9.36-10.98 9.36-1.56 0-3.9-.18-5.64-1.8-1.56-1.5-1.92-3.6-1.92-5.28 0-1.86.48-4.02.72-5.52 1.62.12 3.06.3 5.34.3 2.94 0 4.8-.18 5.7-.24l1.56-6.6c-2.52.42-4.38.48-7.08.48-2.16 0-2.7 0-3.96-.18 1.08-3.84 1.8-6 2.52-8.04 4.92.54 6.78.54 8.82.48l1.38-6.48c-3.48.06-4.86.06-7.86-.06.84-2.0404 2.1-5.2204 3.18-7.0204.96-.3 1.8-.12 1.8-.84 0-.66-.9-.96-1.38-1.14l-6.9-2.58c-.84 3.06-1.74 5.58-3.54 10.8004-4.44-.84-6.84-1.6204-10.2-3.0004l-.54 6.9604c3.42.9 4.98 1.2 8.7 1.92-1.32 3.9-1.86 5.88-2.46 7.98-2.64-.48-4.5-.96-8.1-2.28l-1.02 6.6c2.82 1.02 5.34 1.56 7.56 1.98-.3 1.8-.72 4.26-.72 6.78 0 11.04 8.7 13.08 14.52 13.08 7.56 0 17.34-4.14 17.34-14.52z"/><path d="m494.64 98.1996v-6.54h-25.62v6.54zm-29.94-3.24c0-.24-.36-.6-.6-.78l-6-4.26c-5.52 6.18-10.38 9.66-13.38 11.7004l5.46 4.86c1.92-1.44 6.66-4.74 11.88-10.2004.6-.6.66-.66 1.44-.66.48 0 1.2 0 1.2-.66zm32.4 17.8804v-6.54h-30.36v6.54h15.06v20.88c0 1.44-.84 1.92-1.8 1.92-1.08 0-3.9-.48-5.82-.84l3 7.44h5.28c3.72 0 6.48-1.38 6.48-5.28v-24.12zm-30.42-6.3c0-.18-.12-.6-.54-.78l-5.88-3.36c-3.12 5.52-10.5 13.98-16.56 18l5.46 4.26c.9-.6 1.8-1.26 3.78-3.12v20.46h7.08v-24.72c0-.42.3-.66.54-.9.36-.24.6-.42.6-.96s-.3-.78-1.14-1.26c2.34-2.7 3.06-3.72 5.16-6.6.12-.18.18-.24.9-.36.36-.06.6-.3.6-.66z"/><path d="m557.58 123.7c-1.62-13.86-6.96-21.42-9.84-25.5004l-6.18 3.0004c3.12 4.8 7.08 11.88 8.82 24.36zm-26.46-.9-4.98-4.44c-1.14 2.88-3.6 9.24-5.76 9.24-1.2 0-4.08-2.16-4.08-13.86 0-6.6.48-10.08 1.14-13.38 1.02-.3604 1.74-.6004 1.74-1.2604 0-.72-.96-1.02-1.38-1.14l-6.6-1.8c-.96 4.0204-1.8 7.9204-1.8 15.6004 0 11.4 1.92 18.42 6.12 22.5 1.02.96 2.52 1.98 4.44 1.98 4.86 0 7.86-6.36 11.16-13.44z"/><path d="m612.66 131.98c-6.24-3.96-10.2-5.4-15.18-6.78-.18-3.54-.18-4.14-.3-7.14 7.08-.54 10.26-1.08 12.84-1.5v-6.54c-5.52 1.02-7.74 1.38-12.96 2.04v-7.08c3-.06 8.58-.18 15.24-.18l.24-6.3604c-5.64.42-7.68.54-15.36.9.06-3.12.12-4.26.12-4.32.12-.54.54-.9.78-1.08.66-.54.78-.6.78-.84 0-.42-.36-.6-1.5-.72l-7.32-.72.18 7.98c-5.34.12-8.58.24-15.42.24l.12 6.4804c5.16-.6 8.58-.84 15.48-1.14l.12 7.5c-1.38.12-2.16.12-4.14.12-1.02 0-2.28 0-2.28-.84 0-.78.9-1.44 1.98-2.22l-3.42-2.94c-2.34 1.68-6.42 4.5-6.42 7.44 0 2.34 2.76 4.32 8.28 4.32 1.74 0 5.04-.12 6.12-.18l.12 5.76-1.68-.06c-13.5-.48-14.1 6.48-14.1 8.22 0 4.86 5.16 7.8 13.44 7.8 7.68 0 9.12-2.4 9.36-8.52 4.44 1.74 7.08 3.18 10.98 5.94zm-21.84-2.1c.06 3.36-.18 4.44-4.08 4.44-.72 0-4.56 0-4.56-2.04 0-1.56 1.92-2.58 5.82-2.58 1.38 0 2.16.06 2.82.18z"/><path d="m677.46 104.26v-6.4804c-6.12.48-7.98.66-16.32 1.14v-6.18c0-.24.06-.36.48-.72s.54-.54.54-.9c0-.6-.36-.78-1.74-.84l-6.66-.42c.36 4.38.36 7.56.42 9.42-12.6.6-17.76.6-21.84.6v6.9604c7.62-.96 16.68-1.5 22.02-1.8l.12 4.5c-.84-.3-1.68-.48-2.82-.48-6.12 0-9.42 4.56-9.42 11.16 0 2.94.66 6.18 3.12 8.34 1.5 1.32 3.36 1.86 4.92 1.86 1.02 0 1.92-.24 3.24-.6-1.32 4.38-4.98 7.5-8.58 9.84l6.72 3.48c2.16-2.22 5.4-5.58 8.16-11.16 2.7-5.4 3.06-9.84 3.06-11.58 0-3.78-1.08-5.88-1.74-7.32v-8.4c7.8-.3 11.76-.42 16.32-.42zm-21.84 15.18c0 4.26-2.88 5.58-4.14 5.58-1.38 0-3.3-1.38-3.3-4.98 0-3.18 1.68-5.28 4.08-5.28.78 0 1.62.24 2.22.84.96 1.02 1.14 2.58 1.14 3.84z"/><path d="m699.12 123.94c-5.1 0-9.3 4.08-9.3 9.24 0 5.1 4.2 9.3 9.3 9.3 5.1-.06 9.24-4.2 9.24-9.3 0-5.16-4.2-9.24-9.24-9.24zm0 2.88c3.48 0 6.36 2.82 6.36 6.36s-2.82 6.36-6.36 6.36c-3.54.06-6.42-2.82-6.42-6.36s2.94-6.36 6.42-6.36z"/></g></svg>