<svg fill="none" height="77" viewBox="0 0 674 77" width="674" xmlns="http://www.w3.org/2000/svg"><g fill="#fff"><path d="m203.89 23.2152c-2.97-2.013-4.389-2.574-5.676-3.102-.363-3.696-.429-5.28-.462-8.844 1.056-.198 2.772-.462 4.125-.924v-3.56397c-1.254.759-3.168 1.155-4.092 1.353.165-1.815.264-3.267.462-4.092.33-.198.627-.363.627-.528 0-.198-.099-.363-.792-.462l-3.696-.594c-.066 3.267-.066 3.63-.132 6.105-.924.099-1.815.198-3.069.198-1.551 0-2.376-.099-2.97-.198l.033 3.39897c2.046.099 3.828-.033 5.973-.264.066 2.244.165 3.63.429 7.557-.66-.066-1.353-.132-2.013-.132-3.201 0-5.808 1.287-5.808 4.257 0 4.752 5.544 4.752 6.501 4.752 4.488 0 5.148-1.716 5.214-4.257 1.386.825 2.277 1.485 3.465 2.607zm-18.843-2.904-2.079-1.419-1.353 1.98c-.165-1.353-.165-3.102-.165-3.465 0-2.541.924-8.74497 1.221-10.22997.099-.396.495-2.079.726-2.244.099-.033.528-.198.627-.264s.132-.165.132-.231c0-.33-.693-.627-.792-.66l-3.201-1.254c-1.287 5.049-2.013 10.22997-2.013 15.44397 0 3.465.264 6.93 1.254 10.23l3.036-.495c.363-2.64 1.881-5.841 2.607-7.392zm9.801 2.079c.066 1.716.132 2.475-2.046 2.475-1.947 0-2.904-.693-2.904-1.452s1.056-1.32 2.607-1.32c.99 0 1.848.198 2.343.297z"/><path d="m235.735 6.12123c-1.023-1.155-1.848-1.881-3.069-2.838l-1.386 1.551c1.452 1.155 2.211 1.914 3.036 2.838zm-3.003 2.904c-.957-1.089-1.683-1.749-3.069-2.838l-1.386 1.551c1.188.924 2.079 1.749 3.036 2.83797zm2.541 10.75797-3.135-2.607c-2.673 5.643-6.666 7.59-9.306 7.59-.726 0-1.881-.165-2.673-1.188-.462-.561-.792-1.452-.792-6.204 0-4.125.429-12.53997.792-12.93597.198-.198.759-.594.759-.891 0-.363-.924-.462-1.023-.462l-4.224-.495c.033 2.046 0 11.18697 0 13.06797 0 8.019.693 10.098 2.079 11.385.924.825 2.541 1.683 4.851 1.683 6.336 0 10.263-5.379 12.672-8.943z"/><path d="m270.418 17.4402c0-2.31-.792-5.28-3.333-7.45797-2.178-1.848-4.521-2.211-5.973-2.442.33-1.485.363-1.716.759-4.026 0-.132.165-.264.264-.33.33-.231.462-.297.462-.462 0-.396-.759-.462-1.056-.495l-3.828-.363c0 1.782-.066 3.135-.462 5.709-2.178.363-3.498.792-5.412 1.782-.594-2.079-.891-3.399-1.089-5.379l-3.861 1.551c.429 1.749.924 3.399 1.848 6.07197-1.254 1.254-4.422 4.389-4.422 9.57 0 3.564 1.848 5.643 4.158 5.643 2.178 0 4.488-2.31 5.445-3.267.495.858.825 1.353 1.32 2.013l2.739-3.003c-.561-.726-.891-1.221-1.518-2.244 1.914-3.333 2.838-6.138 3.828-9.471 3.993.462 6.138 3.366 6.138 6.237 0 1.947-.726 4.257-2.673 6.138-2.244 2.112-4.785 2.64-6.27 2.937l2.277 3.168c1.518-.429 4.158-1.155 6.864-3.762 1.452-1.386 3.795-4.191 3.795-8.118zm-13.893-6.303c-.594 2.112-1.056 3.498-1.947 5.511-.66-1.419-1.155-2.607-1.617-3.861 1.65-1.056 2.376-1.353 3.564-1.65zm-4.224 9.306c-.462.594-1.815 2.277-3.201 2.277-.891 0-1.287-.891-1.287-1.848 0-.792.132-2.937 2.211-5.742 1.056 2.673 1.584 3.828 2.277 5.313z"/><path d="m302.791 6.38523v-3.96c-6.435 1.881-16.302 3.003-24.057 3.069l.66 3.894c3.927-.726 8.382-1.089 12.573-1.419-1.551 1.452-6.402 6.00597-6.402 11.64897 0 7.359 8.25 9.075 10.923 9.636l1.155-4.158c-1.386-.033-3.663-.099-5.742-1.584-2.046-1.452-2.442-3.498-2.442-4.62 0-3.3 2.739-6.963 5.643-9.30597 3.597-2.904 6.27-3.069 7.689-3.201z"/><path d="m338.101 15.3942c0-7.35897-5.412-12.01197-12.276-12.01197-8.514 0-14.553 6.66597-14.553 13.99197 0 5.907 5.412 8.877 6.6 8.877 1.716 0 3.234-2.772 4.224-4.818 1.089-2.211 3.036-6.831 4.092-14.68497 1.221.099 3.531.231 5.61 2.211 1.848 1.74897 2.376 3.95997 2.376 5.77497 0 1.452-.363 4.191-2.376 6.567-2.013 2.409-4.455 3.102-5.94 3.531l2.442 3.399c1.782-.726 5.214-2.145 7.689-5.808 1.221-1.815 2.112-4.125 2.112-7.029zm-15.84-8.05197c-.66 5.14797-3.498 13.76097-5.214 13.76097-.594 0-2.112-1.386-2.112-4.059 0-2.013.957-5.082 3.3-7.32597 1.584-1.551 3.069-2.046 4.026-2.376z"/><path d="m346.912 24.5022c.462-.495.528-.528.99-.957 3.003 3.168 3.828 4.059 5.247 5.577l3.498-1.386c.033-4.026.033-4.62.066-9.867 1.155-.429 3.069-1.155 5.016-1.155 3.003 0 4.587 2.178 4.587 4.389 0 2.31-1.353 3.498-2.541 3.498-1.023 0-1.287-.858-1.683-2.211l-3.069 1.221c.462 2.409.924 4.686 4.554 4.686 3.531 0 6.171-3.201 6.171-7.26 0-4.125-2.838-7.524-7.953-7.524-2.343 0-4.125.495-5.082.759l.033-3.267c1.518-.297 3.069-.627 5.148-1.41897v-3.762c-1.848.858-2.97 1.254-5.082 1.716.033-.627.132-3.861.264-4.059.066-.099.561-.495.561-.627 0-.165 0-.396-.924-.528l-3.663-.495c.033 2.145.033 2.442.066 6.171-.957.066-1.452.099-2.277.099-1.518 0-2.31-.066-3.234-.165l.495 3.72897c1.848.066 3.036.033 5.016-.165l.033 4.257c-2.211 1.188-2.838 1.551-8.25 5.049zm6.237.264c-.594-.528-1.947-1.782-3.003-3.102 1.386-1.023 2.079-1.452 3.003-2.013zm19.107-13.959c-1.617-1.25397-3.795-2.73897-6.501-3.72897l-2.145 2.904c3.3 1.22097 5.016 2.47497 6.501 3.76197z"/><path d="m406.642 18.1332c-6.072-.594-9.174-1.881-11.352-2.805 2.409-1.815 3.663-3.003 5.709-5.313l-1.947-1.84797h-8.91c.231-.297.297-.396.528-.726.132-.066.792-.264.924-.33.099-.066.231-.132.231-.264 0-.297-.231-.363-.528-.462h10.494v3.79497h3.729v-6.66597h-11.451v-1.056c0-.165.099-.231.33-.396.132-.099.297-.231.297-.462 0-.198-.099-.462-1.287-.462l-3.531-.033v2.409h-11.286v6.99597h3.663v-4.12497h4.488c-.726 1.221-1.419 2.409-3.3 4.09197-2.376 2.178-4.29 3.102-6.072 3.96l3.366 2.343c2.673-1.65 3.96-2.772 4.983-3.696 1.188 1.023 1.881 1.617 3.135 2.508-4.851 2.442-8.382 2.838-12.045 3.036l2.244 3.3c.858-.165 1.287-.264 3.234-.726v8.58h3.663v-.825h11.88v.825h3.663v-8.844c.99.231 2.31.495 2.772.594zm-8.811 7.854h-11.88v-3.168h11.88zm-2.937-14.982c-1.32 1.551-2.145 2.145-2.904 2.64-2.079-1.188-2.97-2.112-3.498-2.64zm2.805 8.877h-10.791c1.848-.66 3.135-1.254 5.148-2.376 2.178 1.089 3.795 1.749 5.643 2.376z"/><path d="m439.741 17.9352c0-.231-.363-.462-.462-.528l-2.376-1.584c-.594 1.254-1.584 2.871-2.64 3.729l2.442 1.815c1.188-1.188 1.881-2.31 2.31-3.003.066-.066.099-.099.396-.132.099 0 .33-.033.33-.297zm.924 7.293c-6.204-3.069-8.58-7.953-8.58-8.91v-.825h7.788v-2.508h-7.788v-1.683h5.544v-2.50797h-5.544v-1.584h7.095v-2.508h-4.125c.165-.297.924-1.848.957-1.881.066-.099.132-.099.429-.198.396-.099.462-.231.462-.396 0-.363-.726-.528-.957-.594l-2.706-.627c-.396 1.353-.759 2.376-1.386 3.696h-2.805c-.33-.693-1.155-2.475-2.046-3.795003l-2.607.990003c.594.957 1.155 2.046 1.452 2.805h-3.564v2.508h6.303v1.584h-4.95v2.50797h4.95v1.683h-6.732v2.508h6.732v4.62c-2.442 1.386-5.709 2.706-8.25 3.465l1.089 2.541c.132.297.429.957.693.957.132 0 .231-.33.363-.693.099-.264.165-.264.693-.495.627-.264 3.993-2.112 5.412-2.97v2.838c0 .693-.693.858-2.904.693l1.518 3.267c3.927-.066 4.884-.726 4.884-3.696v-3.762c1.749 2.409 3.729 4.191 6.237 5.709zm-13.992-5.577c-.462-.825-1.32-2.211-2.442-3.399l-2.343 1.848c1.122 1.056 1.98 2.508 2.442 3.3zm-4.422-2.739c-1.056-.99-2.937-3.168-3.465-4.752v-2.27697h2.574v-3.036h-2.574v-4.092c0-.099.33-.363.495-.528.066-.066.165-.132.165-.264 0-.297-.561-.363-1.122-.396l-2.838-.165v5.445h-4.059v3.036h3.696c-.363 3.53097-2.145 8.08497-4.488 11.35197l2.805 1.683c.726-1.089 1.551-2.409 2.046-3.861v10.461h3.3v-11.979c.33.462.495.66 1.452 1.683z"/><path d="m474.853 26.5482c-3.399-1.749-4.983-3.036-6.699-4.851.594-.363 1.815-1.221 3.333-2.673.231-.231.297-.231.99-.33.165 0 .429-.066.429-.363 0-.231-.264-.462-.429-.594l-2.442-1.881h2.244v-13.99197h-15.18v23.33097c-1.848.429-2.904.66-4.059.858l.924 3.3c.066.231.198.462.462.462.198 0 .264-.099.495-.396.132-.165.198-.165.825-.363 3.036-.891 6.072-1.914 9.075-3.003v-3.003c2.079 2.838 3.828 4.389 6.864 6.105zm-6.006-13.86h-8.283v-2.442h8.283zm0-5.44497h-8.283v-2.31h8.283zm-4.191 15.60897c-.924.429-1.815.759-4.092 1.452v-8.448h.99c.792 2.838 1.551 4.62 3.102 6.996zm-8.052-19.46997-1.848-1.65h-9.372v27.91797h3.399v-24.61797h3.432c-.726 2.112-1.749 4.62-2.673 6.59997.891 1.089 3.069 3.696 3.069 6.567 0 2.343-.825 2.31-3.696 2.178l1.518 3.63c.825-.033 2.244-.066 3.564-.891 2.145-1.353 2.277-4.026 2.277-4.818 0-1.749-.561-4.092-3.036-7.029 1.188-2.63997 2.277-5.24697 3.366-7.88697zm13.035 12.47397c-.858 1.386-1.98 2.541-3.234 3.465-.693-1.023-1.056-2.046-1.452-3.465z"/><path d="m506.566 10.9392v-6.59997h-11.583v-1.485c.33-.264.759-.462.759-.66 0-.33-.363-.429-.495-.429l-4.356-.363v2.937h-11.517v6.69897h3.267v-3.43197h20.691v3.33297zm.561 14.52c-3.333.297-7.095.528-12.111.561v-5.907h8.316v-3.3h-8.316v-3.465h8.052v-3.168h-20.163v3.168h8.316v11.913c-1.617-.891-3.498-2.178-4.488-5.94.231-.924.462-2.145.594-2.607.33-.297.66-.429.66-.627s-.297-.297-.429-.33l-3.795-.594c-.264 1.881-.561 4.125-1.914 7.26-1.32 3.102-2.343 4.191-3.531 5.412l3.399 1.617c1.254-1.485 2.178-2.772 3.465-5.61.66 1.122 1.683 2.904 3.861 4.092 1.518.858 3.729 1.353 5.544 1.353h11.451z"/><path d="m17.1429 63.6052c-1.32-1.155-2.541-2.244-5.148-3.96-2.83796-1.848-3.92696-2.277-5.60996-3.003l-1.551 2.442v-8.679c0-.165.858-.693.858-.891 0-.396-.693-.495-.792-.528l-3.959999-.693v26.136h3.893999v-14.256c3.96 1.65 7.25996 4.323 9.70196 6.6z"/><path d="m46.3809 52.5832v-3.729h-15.675v3.729zm4.026 5.874-2.673-2.838c-.396.231-1.089.627-1.617.627h-18.711v3.63h17.127c-.462 1.32-1.419 3.993-4.191 6.996-3.564 3.828-7.26 5.148-9.24 5.841l3.069 2.838c2.178-.924 5.808-2.442 9.174-6.072 2.97-3.201 4.191-6.204 5.445-9.174.099-.198.462-.924 1.617-1.848z"/><path d="m82.5489 50.9332c0-.264-.429-.693-.561-.792l-2.871-2.376c-4.983 5.907-12.243 11.319-19.14 14.025l2.871 2.937c3.861-1.815 6.072-3.201 8.316-4.686v14.52h4.125v-17.589c1.947-1.551 3.795-3.267 5.445-5.148.462-.495.528-.561 1.023-.594.66-.033.792-.066.792-.297z"/><path d="m119.443 52.9132-3.036-3.069c-.198.231-.726.726-1.155.726h-22.2091v3.564h20.6581c-1.749 3.003-3.96 5.247-6.006 7.128l3.069 2.607c3.597-3.531 7.062-8.58 8.679-10.956zm-11.418 2.607c0-.264-.099-.264-.792-.297l-3.861-.198c.264 6.864-1.287 12.111-8.2501 16.929l3.531 2.079c1.7491-1.287 7.3261-5.412 8.4481-14.85.066-.429.198-2.739.264-2.805.033-.132.429-.462.495-.561.099-.132.165-.198.165-.297z"/><path d="m154.291 61.1962-2.244-3.333c-2.112 3.201-5.874 6.897-8.712 8.448v-14.421c0-.033.396-.363.396-.396.297-.264.363-.363.363-.495 0-.33-.627-.396-.924-.429l-3.828-.462v20.031l2.805 2.178c3.96-2.211 8.91-6.765 12.144-11.121zm-17.787-9.933c0-.363-.363-.462-.957-.495l-3.993-.264c.132.99.363 3.168.363 6.237 0 8.217-3.894 11.022-7.062 12.87l3.663 2.673c2.409-1.914 6.336-5.148 7.128-11.979.165-1.452.165-1.947.165-8.118 0-.165 0-.231.231-.429.396-.33.462-.363.462-.495z"/><path d="m188.842 51.7252c0-1.716-1.353-3.168-3.135-3.168-1.716 0-3.102 1.419-3.102 3.168 0 1.782 1.419 3.201 3.102 3.201 1.716 0 3.135-1.452 3.135-3.201zm-1.287 0c0 1.056-.858 1.881-1.848 1.881s-1.815-.858-1.815-1.881c0-.957.759-1.848 1.815-1.848s1.848.858 1.848 1.848zm.132 16.929c-1.848-6.171-5.445-13.134-8.382-16.962l-3.432 1.947c3.3 4.092 6.534 11.55 7.689 16.896zm-16.269-15.246c0-.33-.693-.495-.792-.528l-3.993-.891c-1.056 6.105-3.828 13.002-8.382 17.919l4.191 1.65c1.518-2.046 4.785-6.435 7.194-14.553.132-.429.66-2.673.792-2.805.099-.132.693-.429.792-.528.099-.066.198-.132.198-.264z"/><path d="m208.279 60.4372c-.363-1.353-1.023-3.399-2.244-5.346l-2.937 1.122c1.023 1.683 1.782 3.366 2.343 5.346zm8.679-3.531c0-.231-.231-.462-.66-.594l-3.234-.99c-1.254 9.339-5.742 13.86-12.144 17.028l2.64 2.343c3.168-1.848 9.834-5.709 12.309-15.84.33-1.287.363-1.419.66-1.584.363-.132.429-.165.429-.363zm-14.52 5.115c-.561-1.848-1.419-3.564-2.541-5.313l-3.036 1.155c1.089 1.683 1.947 3.432 2.508 5.313z"/><path d="m254.017 57.6322v-3.729h-16.962c1.122-2.211 1.518-3.135 2.046-4.422.165-.429.198-.462.528-.627.33-.099.429-.165.429-.396 0-.363-.627-.594-.825-.66l-3.762-1.353c-2.046 6.765-4.818 11.253-9.702 15.774l3.861 2.145c1.518-1.584 2.838-3.036 5.214-6.732h6.93c-.033 1.782-.132 4.719-1.914 8.283-2.376 4.719-6.039 6.963-7.722 7.986l4.026 2.475c1.815-1.452 5.313-4.191 7.656-9.24 1.947-4.158 1.98-7.425 2.046-9.504z"/><path d="m285.829 63.5392v-4.191h-23.463v4.191z"/><path d="m320.875 48.5572c-1.188-1.221-2.904-2.178-3.498-2.508l-1.386 1.815c1.023.594 2.442 1.485 3.432 2.508zm-3.333 2.673c-1.089-1.122-2.343-1.914-3.333-2.475l-1.386 1.815c1.221.693 2.244 1.452 3.234 2.475zm-9.603-.528c-2.079-1.584-4.851-2.442-6.666-2.937l-1.749 3.168c1.287.363 4.29 1.32 6.468 2.97zm12.408 7.92-2.64-3.267c-4.059 6.303-10.362 12.243-19.47 16.137l1.749 3.234c.099.198.462.891.759.891.165 0 .231-.165.33-.594.066-.264.132-.264.561-.495 3.96-1.98 7.722-4.389 11.088-7.293 4.488-3.828 6.567-6.996 7.623-8.613zm-15.708-.099c-2.079-1.551-4.257-2.64-6.765-3.432l-1.815 3.333c2.442.759 4.488 1.815 6.567 3.201z"/><path d="m352.027 67.2352c0-3.399-1.353-5.709-2.178-7.161l-3.069 1.617c.429.726 1.485 2.673 1.485 4.917 0 3.993-3.333 5.148-6.039 5.148-.858 0-2.145-.099-3.102-.99-.858-.825-1.056-1.98-1.056-2.904 0-1.023.264-2.211.396-3.036.891.066 1.683.165 2.937.165 1.617 0 2.64-.099 3.135-.132l.858-3.63c-1.386.231-2.409.264-3.894.264-1.188 0-1.485 0-2.178-.099.594-2.112.99-3.3 1.386-4.422 2.706.297 3.729.297 4.851.264l.759-3.564c-1.914.033-2.673.033-4.323-.033.462-1.122 1.155-2.871 1.749-3.861.528-.165.99-.066.99-.462 0-.363-.495-.528-.759-.627l-3.795-1.419c-.462 1.683-.957 3.069-1.947 5.94-2.442-.462-3.762-.891-5.61-1.65l-.297 3.828c1.881.495 2.739.66 4.785 1.056-.726 2.145-1.023 3.234-1.353 4.389-1.452-.264-2.475-.528-4.455-1.254l-.561 3.63c1.551.561 2.937.858 4.158 1.089-.165.99-.396 2.343-.396 3.729 0 6.072 4.785 7.194 7.986 7.194 4.158 0 9.537-2.277 9.537-7.986z"/><path d="m390.406 49.4482c-.924-1.155-1.848-1.98-2.805-2.706l-1.419 1.485c1.353 1.089 2.013 1.881 2.706 2.805zm-1.848 3.762c-1.023-1.419-1.782-2.145-2.739-2.937l-1.419 1.485c1.155.924 1.881 1.749 2.739 2.937zm-5.082-.363-1.485-2.673c-2.508.363-5.016.528-7.524.528-2.772 0-5.577-.198-8.316-.594l.99 3.63c1.551.099 2.508.132 4.488.132 2.508 0 3.663-.066 5.082-.165-1.254 1.155-2.574 2.343-3.333 3.003l2.277 2.376c2.706-2.31 5.247-4.455 7.821-6.237zm1.551 19.602-.231-3.96c-2.31.462-5.214 1.056-10.197 1.056-5.61 0-5.841-.924-5.841-1.848 0-1.188 1.32-2.343 1.848-2.772l-2.871-2.343c-.99.891-3.201 2.871-3.201 5.841 0 3.333 3.168 4.719 10.626 4.719 4.026 0 7.326-.396 9.867-.693z"/><path d="m420.7 72.4492v-24.552h-23.463c.297 3.465.429 6.93.429 10.395 0 8.25-.462 12.045-2.64 15.774l3.432 1.221c1.782-3.696 2.376-6.039 2.706-10.923h6.105v9.405h3.729v-9.405h5.94v6.534c0 .924-.429 1.188-1.782 1.188-.462 0-1.023-.033-1.518-.132l1.815 3.597c5.214-.363 5.247-1.353 5.247-3.102zm-3.762-18.15h-5.94v-3.201h5.94zm0 6.963h-5.94v-3.861h5.94zm-9.669-6.963h-5.94c0-1.221 0-2.013-.033-3.201h5.973zm0 6.963h-5.973c0-.66.033-.99.066-3.861h5.907z"/><path d="m452.314 67.7962v-9.768h-19.536v9.768h9.57l-1.155.99c1.023 1.023 1.584 1.683 2.343 2.706l2.541-1.452c-.363-.495-.759-1.056-2.046-2.244zm-3.729-6.138h-12.177v-1.518h12.177zm0 3.696h-12.177v-1.551h12.177zm8.217-8.679v-2.871h-7.656c.462-.792.627-1.221.924-1.947h4.686v-2.706h-10.329v-.594c0-.099.033-.165.231-.297.132-.066.33-.198.33-.33s-.198-.297-.66-.33l-3.927-.231v1.782h-10.329v2.706h4.686c.231.429.528.99.858 1.947h-7.425v2.871zm-10.89-4.818c-.264.759-.462 1.188-.825 1.947h-5.28c-.198-.462-.528-1.155-1.023-1.947zm10.593 21.285c-1.221-1.815-2.211-3.036-3.597-4.488l-2.607 1.485c1.155 1.221 2.145 2.409 3.762 4.818zm-6.237-1.584-2.97-1.353c0 1.419-.33 2.442-1.221 2.442h-5.742c-.627 0-.825-.462-.825-.759v-2.211c0-.099.132-.231.297-.396.099-.099.198-.198.198-.33s-.198-.297-.693-.33l-2.838-.132v4.851c0 1.518.726 2.244 3.201 2.244h7.425c2.739 0 3.069-3.234 3.168-4.026zm-15.114-1.056c0-.231-.33-.462-.528-.561l-2.409-1.419c-.891 1.65-2.409 3.729-3.663 5.115l2.673 1.683c1.089-1.353 2.079-2.805 3.003-4.29.099-.165.132-.165.495-.231.099 0 .429-.033.429-.297z"/><path d="m488.02 65.9482-3.234-2.673c-3.234 6.336-7.656 7.491-9.504 7.491-2.112 0-2.838-1.287-2.904-1.386-.627-1.122-.627-4.323-.627-5.841 0-3.63.66-12.342.924-13.2.528-.429.924-.693.924-.957 0-.198-.297-.429-1.089-.528l-4.389-.627c.099 2.211-.165 12.012-.165 14.025 0 7.92.528 9.603 2.079 10.956 1.056.924 2.739 1.683 4.818 1.683 1.386 0 3.795-.297 6.567-2.112 3.267-2.112 5.247-4.95 6.6-6.831z"/><path d="m521.581 52.3852v-3.96c-6.435 1.881-16.302 3.003-24.057 3.069l.66 3.894c3.927-.726 8.382-1.089 12.573-1.419-1.551 1.452-6.402 6.006-6.402 11.649 0 7.359 8.25 9.075 10.923 9.636l1.155-4.158c-1.386-.033-3.663-.099-5.742-1.584-2.046-1.452-2.442-3.498-2.442-4.62 0-3.3 2.739-6.963 5.643-9.306 3.597-2.904 6.27-3.069 7.689-3.201z"/><path d="m532.042 70.5022c.462-.495.528-.528.99-.957 3.003 3.168 3.828 4.059 5.247 5.577l3.498-1.386c.033-4.026.033-4.62.066-9.867 1.155-.429 3.069-1.155 5.016-1.155 3.003 0 4.587 2.178 4.587 4.389 0 2.31-1.353 3.498-2.541 3.498-1.023 0-1.287-.858-1.683-2.211l-3.069 1.221c.462 2.409.924 4.686 4.554 4.686 3.531 0 6.171-3.201 6.171-7.26 0-4.125-2.838-7.524-7.953-7.524-2.343 0-4.125.495-5.082.759l.033-3.267c1.518-.297 3.069-.627 5.148-1.419v-3.762c-1.848.858-2.97 1.254-5.082 1.716.033-.627.132-3.861.264-4.059.066-.099.561-.495.561-.627 0-.165 0-.396-.924-.528l-3.663-.495c.033 2.145.033 2.442.066 6.171-.957.066-1.452.099-2.277.099-1.518 0-2.31-.066-3.234-.165l.495 3.729c1.848.066 3.036.033 5.016-.165l.033 4.257c-2.211 1.188-2.838 1.551-8.25 5.049zm6.237.264c-.594-.528-1.947-1.782-3.003-3.102 1.386-1.023 2.079-1.452 3.003-2.013zm19.107-13.959c-1.617-1.254-3.795-2.739-6.501-3.729l-2.145 2.904c3.3 1.221 5.016 2.475 6.501 3.762z"/><path d="m586.36 58.6222c0-2.178-.198-4.62-.396-6.93-.033-.33-.198-1.716-.198-2.013s.594-.495.594-.792c0-.429-.594-.429-.693-.429h-3.993c.726 4.818.825 9.9.825 10.263 0 3.036-.66 6.105-2.013 8.844-1.617 3.234-3.498 4.686-4.686 5.577l3.927 2.079c1.188-1.254 3.069-3.234 4.62-6.765 1.815-4.125 2.013-7.854 2.013-9.834zm-10.593-1.023-2.31-1.518c-.825 1.848-1.485 3.564-1.914 4.686-.165-.726-.231-1.089-.231-2.046 0-1.98.528-8.283 1.221-8.844.132-.132.462-.264.462-.495 0-.33-.495-.396-.693-.396l-3.597-.198c-.297 1.881-.924 5.709-.924 9.768 0 3.036.429 6.105 1.485 8.976h2.805c.957-3.399 2.277-6.699 3.696-9.933z"/><path d="m621.208 70.1392c-3.432-2.178-5.61-2.97-8.349-3.729-.099-1.947-.099-2.277-.165-3.927 3.894-.297 5.643-.594 7.062-.825v-3.597c-3.036.561-4.257.759-7.128 1.122v-3.894c1.65-.033 4.719-.099 8.382-.099l.132-3.498c-3.102.231-4.224.297-8.448.495.033-1.716.066-2.343.066-2.376.066-.297.297-.495.429-.594.363-.297.429-.33.429-.462 0-.231-.198-.33-.825-.396l-4.026-.396.099 4.389c-2.937.066-4.719.132-8.481.132l.066 3.564c2.838-.33 4.719-.462 8.514-.627l.066 4.125c-.759.066-1.188.066-2.277.066-.561 0-1.254 0-1.254-.462 0-.429.495-.792 1.089-1.221l-1.881-1.617c-1.287.924-3.531 2.475-3.531 4.092 0 1.287 1.518 2.376 4.554 2.376.957 0 2.772-.066 3.366-.099l.066 3.168-.924-.033c-7.425-.264-7.755 3.564-7.755 4.521 0 2.673 2.838 4.29 7.392 4.29 4.224 0 5.016-1.32 5.148-4.686 2.442.957 3.894 1.749 6.039 3.267zm-12.012-1.155c.033 1.848-.099 2.442-2.244 2.442-.396 0-2.508 0-2.508-1.122 0-.858 1.056-1.419 3.201-1.419.759 0 1.188.033 1.551.099z"/><path d="m656.848 54.8932v-3.564c-3.366.264-4.389.363-8.976.627v-3.399c0-.132.033-.198.264-.396s.297-.297.297-.495c0-.33-.198-.429-.957-.462l-3.663-.231c.198 2.409.198 4.158.231 5.181-6.93.33-9.768.33-12.012.33v3.828c4.191-.528 9.174-.825 12.111-.99l.066 2.475c-.462-.165-.924-.264-1.551-.264-3.366 0-5.181 2.508-5.181 6.138 0 1.617.363 3.399 1.716 4.587.825.726 1.848 1.023 2.706 1.023.561 0 1.056-.132 1.782-.33-.726 2.409-2.739 4.125-4.719 5.412l3.696 1.914c1.188-1.221 2.97-3.069 4.488-6.138 1.485-2.97 1.683-5.412 1.683-6.369 0-2.079-.594-3.234-.957-4.026v-4.62c4.29-.165 6.468-.231 8.976-.231zm-12.012 8.349c0 2.343-1.584 3.069-2.277 3.069-.759 0-1.815-.759-1.815-2.739 0-1.749.924-2.904 2.244-2.904.429 0 .891.132 1.221.462.528.561.627 1.419.627 2.112z"/><path d="m668.761 65.7172c-2.805 0-5.115 2.244-5.115 5.082 0 2.805 2.31 5.115 5.115 5.115 2.805-.033 5.082-2.31 5.082-5.115 0-2.838-2.31-5.082-5.082-5.082zm0 1.584c1.914 0 3.498 1.551 3.498 3.498s-1.551 3.498-3.498 3.498c-1.947.033-3.531-1.551-3.531-3.498s1.617-3.498 3.531-3.498z"/></g></svg>