<svg fill="none" height="42" viewBox="0 0 310 42" width="310" xmlns="http://www.w3.org/2000/svg"><g fill="#222"><path d="m31.2799 32.6002c-4.32-2.925-7.335-4.365-12.51-5.985-.36-5.715-.36-7.155-.315-10.98.9.09 2.115.135 3.015.135 2.025 0 4.95-.27 8.19-1.08v-5.22004c-1.395.54004-3.87 1.53004-9.135 1.53004-.99 0-1.26 0-1.89-.09 0-1.57504.135-4.86004.225-5.44504.045-.36.27-.495.54-.675.54-.36001.585-.405.585-.585 0-.405-.855-.54-1.08-.58501l-5.4-.76499v3.195c0 7.87504-.045 9.04504.27 19.48504-.72-.09-1.8-.225-3.285-.225-6.57002 0-10.48501719 3.105-10.48501719 7.02 0 3.06 2.47499719 6.345 10.66501719 6.345 7.335 0 8.73-2.61 8.46-7.02 4.005 1.665 6.255 3.15 9.315 5.49zm-17.415-2.52c0 1.98.045 4.23-3.555 4.23-1.48501 0-4.81502-.405-4.81502-2.295 0-1.305 1.575-2.34 4.41-2.34 1.66502 0 3.15002.27 3.96002.405z"/><path d="m71.4649 5.19516c0-.45-.855-1.125-.945-1.21501l-4.14-3.194994c-4.32 5.309994-8.01 8.865004-14.4 14.670044-1.485 1.395-3.105 3.06-3.105 5.04 0 .81.315 2.34 2.25 3.96 5.805 4.995 10.215 8.955 15.525 16.875l4.635-4.32c-5.04-6.345-9.405-10.26-15.21-15.03-.495-.405-.765-.9-.765-1.575 0-.855.225-1.08 3.195-3.87 4.635-4.32 9-8.50504 9.945-9.49504 1.17-1.17 1.305-1.305 1.845-1.35 1.035-.135 1.17-.135 1.17-.495z"/><path d="m123.98 27.1102c0-5.31-3.06-8.64-8.1-10.35l.72-2.07-5.175-1.125c-.18.855-.315 1.44-.54 2.34-1.98-.045-2.97 0-4.905.36.225-1.8.27-2.025.54-3.69 4.725-.54 7.56-1.125 11.88-2.385v-4.81504c-2.61 1.08-5.13 2.025-11.025 3.01499.54-1.97999.9-3.28499 1.395-4.41.495-.135 1.035-.26999 1.035-.67499 0-.13501 0-.36-1.125-.675l-4.68-1.26c-.72 2.745-1.125 4.41-1.665 7.605-3.2851.135-6.9301-.135-8.5501-.315l1.485 4.45504c2.43 0 3.6 0 6.4351-.135-.225 2.115-.36 3.24-.45 4.995-8.1451 4.5-9.8101 10.8-9.8101 13.86 0 3.645 2.115 5.85 4.95 5.85 2.745 0 5.2201-1.485 6.4351-2.25.27.855.315.99.63 1.665l4.32-2.34c-.45-1.44-.54-1.62-.855-2.7 3.375-3.69 5.085-6.615 7.335-11.34 1.26.54 4.5 1.89 4.5 6.21 0 2.475-.99 4.68-2.61 6.21-2.61 2.475-5.85 2.97-7.695 3.195l3.285 4.14c3.105-.9 12.24-3.465 12.24-13.365zm-14.445-7.335c-1.035 2.52-1.935 4.32-3.69 6.975-.135-1.44-.315-3.105-.225-6.48 1.485-.45 2.34-.54 3.915-.495zm-7.695 11.295c-.99.765-2.4301 1.935-4.1851 1.935-.765 0-1.665-.27-1.665-2.115s1.125-4.68 5.1751-8.055c.09 3.15.225 5.04.675 8.235z"/><path d="m168.08 26.1202c0-4.95-3.87-9.945-9.99-9.945-.675 0-2.88.045-4.365.27 6.525-6.66004 7.29-7.38004 9.99-9.63004l-2.34-3.645c-4.275 1.665-11.925 2.25-13.635 2.25-1.395 0-3.96-.18-5.04-.27l1.035 5.04004c5.355-.045 7.83-.49504 10.53-1.12504-7.2 8.73004-11.97 12.73504-16.65 16.24504l3.78 3.96c2.52-2.565 6.48-6.57 9.27-8.055 1.08-.585 3.195-1.125 5.13-1.125 2.925 0 7.29 1.44 7.29 5.895 0 3.195-1.98 5.085-2.97 5.985-1.26-1.575-4.185-5.265-8.865-5.265-4.41 0-6.615 3.42-6.615 5.985 0 3.33 2.88 6.165 8.505 6.165 7.92 0 14.94-5.265 14.94-12.735zm-12.15 8.055c-.63.135-1.62.405-3.06.405-1.62 0-3.69-.45-3.69-2.025 0-.585.405-1.89 2.25-1.89 2.565 0 3.915 2.475 4.5 3.51z"/><path d="m220.19 4.52016c-1.26-1.575-2.52-2.7-3.825-3.690005l-1.935 2.025005c1.845 1.485 2.745 2.565 3.69 3.825zm-2.52 5.13c-1.395-1.935-2.43-2.925-3.735-4.005l-1.935 2.025c1.575 1.26 2.565 2.38504 3.735 4.00504zm-6.93-.495-2.025-3.64501c-3.42.49501-6.84.72001-10.26.72001-3.78 0-7.605-.27-11.34-.81l1.35 4.95004c2.115.135 3.42.18 6.12.18 3.42 0 4.995-.09 6.93-.225-1.71 1.575-3.51 3.195-4.545 4.095l3.105 3.24c3.69-3.15 7.155-6.075 10.665-8.50504zm2.115 26.73004-.315-5.4c-3.15.63-7.11 1.44-13.905 1.44-7.65 0-7.965-1.26-7.965-2.52 0-1.62 1.8-3.195 2.52-3.78l-3.915-3.195c-1.35 1.215-4.365 3.915-4.365 7.965 0 4.545 4.32 6.435 14.49 6.435 5.49 0 9.99-.54 13.455-.945z"/><path d="m263.975 11.7202v-3.78004h-13.455c.045-.495.09-.9.09-1.39501 2.745-.04499 5.49-.26999 7.425-.45.63-.04499 1.62-.18 2.34-.22499.27.04499.945.18 1.08.18.18 0 .405 0 .405-.36 0-.315-.135-.54-.315-.81001l-2.475-3.555c-1.395.405-2.88.855-5.67 1.26-2.52.36001-3.78.36001-5.67.36001l-2.025-.315c.27 1.21499.405 2.565.405 3.78 0 4.41004-1.665 6.25504-3.465 8.14504l3.375 2.385h-14.13v16.785h3.96c-2.475 1.395-5.265 2.07-8.055 2.52l2.97 4.005c2.61-.585 5.94-1.53 10.71-4.05.63.18.855.225 1.08.225.36 0 .675-.09.675-.405 0-.36-.225-.585-.36-.72l-1.575-1.575h7.515l-1.215 1.53c2.475 1.71 6.66 3.87 12.105 4.905l2.925-4.23c-3.285-.63-5.355-1.125-7.785-2.205h3.915v-16.785h-12.06c1.17-1.17 2.295-2.565 3.15-5.22h2.97v4.23h4.725v-4.23zm-10.125 14.355h-17.055v-1.575h17.055zm0-4.41h-17.055v-1.53h17.055zm0 8.865h-17.055v-1.665h17.055zm-9.405-18.585v-3.73505h-11.34c.045-.89999.045-1.16999.045-1.665 3.96-.04499 7.38-.35999 7.83-.40499.27 0 1.17-.09 1.44-.135.225.045.99.225 1.125.225.225 0 .36-.135.36-.36 0-.135-.045-.45-.315-.855l-2.025-3.42c-4.005.9-8.01 1.305-12.105 1.26l-1.26-.135c.135.89999.36 2.56499.36 4.63499 0 2.47501-.315 4.50005-1.035 6.25505-.63 1.44-1.26 2.16-2.025 2.97l4.14 2.295c1.215-1.35 2.385-2.925 3.105-6.93h3.015v4.005h4.68v-4.005z"/><path d="m309.47 35.7502v-33.25504h-16.29v15.30004h11.43v15.795c0 1.305-.45 1.755-1.485 1.755-.72 0-1.35-.045-2.7-.18l2.34 5.22h2.25c3.6 0 4.455-1.395 4.455-4.635zm-4.86-27.36005h-6.525v-2.38499h6.525zm0 5.89505h-6.525v-2.475h6.525zm-15.12 3.51v-15.30004h-16.515v37.75504h4.995v-22.455zm-4.86-9.40505h-6.66v-2.38499h6.66zm0 5.89505h-6.66v-2.475h6.66zm14.985 19.17v-12.87h-17.01v14.985h4.995v-2.115zm-4.995-4.005h-7.02v-4.86h7.02z"/></g></svg>