<svg fill="none" height="12" viewBox="0 0 122 12" width="122" xmlns="http://www.w3.org/2000/svg"><g fill="#000"><path d="m9.45206 3.17552c-.444 0-.792-.36-.792-.792s.348-.804.792-.804c.432 0 .79204.372.79204.804s-.36004.792-.79204.792zm-7.692-.396c-.396 0-.876001-.036-1.200001-.072v1.056c.299999-.012.720001-.036 1.188001-.036h6.144c-.168 1.152-.72 2.82-1.572 3.912-1.008 1.284-2.352 2.304-4.68 2.87998l.816.9c2.196-.684 3.624-1.79998 4.728-3.20398.948-1.236 1.524-3.168 1.788-4.428l.024-.132c.144.048.3.072.456.072.74404 0 1.34404-.6 1.34404-1.344s-.6-1.356-1.34404-1.356c-.744 0-1.344.612-1.344 1.356 0 .132.024.264.06.384-.144.012-.276.012-.396.012z"/><path d="m21.3321 4.79552c-.132.072-.384.096-.66.096h-6.324c-.324 0-.732-.024-1.164-.072v1.008c.42-.024.876-.036 1.164-.036h6.372c-.216.864-.696 1.884-1.428 2.652-1.02 1.068-2.52 1.84798-4.224 2.19598l.744.852c1.524-.42 3.036-1.128 4.296-2.50798.888-.972 1.428-2.22 1.752-3.408.024-.084.096-.24.156-.348zm-7.08-1.74c.324-.024.708-.036 1.08-.036h4.704c.408 0 .816.012 1.104.036v-.996c-.288.048-.708.06-1.092.06h-4.716c-.384 0-.768-.012-1.08-.06z"/><path d="m33.5001 1.62752c-.672.852-1.932 1.896-3.156 2.652-1.32.828-3.36 1.74-5.364 2.208l.552.936c1.572-.468 3.228-1.164 4.512-1.872v4.53598c0 .456-.036 1.056-.072 1.284h1.176c-.048-.24-.072-.828-.072-1.284v-5.13598c1.236-.78 2.388-1.764 3.216-2.604z"/><path d="m45.3857 1.65152-.636.264c.324.456.732 1.176.972 1.668l.648-.288c-.24-.492-.684-1.224-.984-1.644zm1.32-.48-.636.264c.348.456.732 1.128.996 1.656l.648-.288c-.228-.444-.684-1.2-1.008-1.632zm-7.884 6.216c-.42 1.008-1.092 2.268-1.848 3.26398l1.02.432c.672-.96 1.32-2.19598 1.764-3.29998.504-1.224.924-3 1.092-3.744.048-.264.144-.612.216-.876l-1.068-.216c-.156 1.38-.66 3.204-1.176 4.44zm5.904-.456c.504 1.284 1.056 2.904 1.356 4.12798l1.068-.348c-.312-1.07998-.948-2.91598-1.44-4.10398-.504-1.272-1.272-2.928-1.752-3.792l-.972.324c.528.888 1.26 2.556 1.74 3.792z"/><path d="m52.2977 1.78352-.54.804c.708.408 2.004 1.272 2.58 1.704l.564-.816c-.516-.384-1.896-1.296-2.604-1.692zm-1.8 8.56798.552.984c1.116-.228 2.772-.792 3.984-1.48798 1.908-1.128 3.564-2.676 4.608-4.296l-.576-.984c-.972 1.692-2.556 3.252-4.548 4.392-1.212.696-2.7 1.16398-4.02 1.39198zm-.012-5.86798-.528.816c.72.372 2.028 1.212 2.616 1.644l.552-.84c-.528-.384-1.92-1.236-2.64-1.62z"/><path d="m62.3897 6.97952c.372-.036 1.008-.06 1.668-.06h6.588c.54 0 1.044.048 1.284.06v-1.176c-.264.024-.696.06-1.296.06h-6.576c-.672 0-1.308-.036-1.668-.06z"/><path d="m83.4617 1.36352c.432 0 .768.348.768.768 0 .432-.336.768-.768.768-.42 0-.756-.336-.756-.768 0-.42.336-.768.756-.768zm0 2.076c.732 0 1.32-.576 1.32-1.308 0-.72-.588-1.319997-1.32-1.319997-.72 0-1.308.599997-1.308 1.319997 0 .732.588 1.308 1.308 1.308zm-6.792 2.748c-.468.972-1.5 2.4-2.292 3.144l.828.564c.672-.744 1.8-2.268 2.304-3.3zm6.588-1.44c.288 0 .648 0 .972.024v-.996c-.3.048-.696.06-.984.06h-3.168v-1.224c0-.264.036-.696.072-.864h-1.128c.048.18.084.588.084.852v1.236h-3.336c-.384 0-.684-.024-1.02-.06v1.008c.324-.024.66-.036 1.02-.036h3.336v5.41198c0 .312-.144.456-.468.456-.312 0-.864-.048-1.392-.144l.096.96c.48.048 1.2.084 1.704.084.72 0 1.032-.324 1.032-.96v-5.80798zm-1.548 1.884c.636.756 1.536 2.256 2.004 3.192l.888-.492c-.48-.864-1.44-2.364-2.076-3.132z"/><path d="m88.7777 1.98752c.024.228.048.648.048.864v3.996c0 .36-.036.744-.048.924h1.104c-.024-.216-.036-.612-.036-.912v-4.008c0-.288.012-.636.036-.864zm5.556-.084c.024.288.06.636.06 1.032v1.896c0 2.268-.144 3.24-1.008 4.236-.744.84-1.776 1.31998-2.88 1.59598l.78.828c.876-.3 2.076-.816 2.856-1.75198.864-1.032 1.248-1.98 1.248-4.86v-1.944c0-.396.024-.744.048-1.032z"/><path d="m102.218 1.78352-.54.804c.708.408 2.004 1.272 2.58 1.704l.564-.816c-.516-.384-1.896-1.296-2.604-1.692zm-1.8 8.56798.552.984c1.116-.228 2.772-.792 3.984-1.48798 1.908-1.128 3.564-2.676 4.608-4.296l-.576-.984c-.972 1.692-2.556 3.252-4.548 4.392-1.212.696-2.7 1.16398-4.02 1.39198zm-.012-5.86798-.5283.816c.7203.372 2.0283 1.212 2.6163 1.644l.552-.84c-.528-.384-1.92-1.236-2.64-1.62z"/><path d="m112.31 6.97952c.372-.036 1.008-.06 1.668-.06h6.588c.54 0 1.044.048 1.284.06v-1.176c-.264.024-.696.06-1.296.06h-6.576c-.672 0-1.308-.036-1.668-.06z"/></g></svg>