<svg fill="none" height="77" viewBox="0 0 892 77" width="892" xmlns="http://www.w3.org/2000/svg"><g fill="#333"><path d="m11.547 2.72263h-7.96502c-1.161 0-1.944-.054-2.727-.162v1.782c.837-.108 1.62-.135 2.673-.135h18.17102c1.08 0 1.809.027 2.673.135v-1.782c-.837.108-1.539.162-2.673.162h-8.424v-.54c0-.702.054-1.215004.162-1.809004h-2.052c.108.621.162 1.134004.162 1.836004zm-6.21002 6.669c0 1.05297-.027 1.53897-.081 2.10597.864-.081 1.404-.108 2.43-.108h9.96302c1.161 0 1.701.027 2.484.108-.081-.594-.081-.918-.081-2.10597v-1.458c0-.918.027-1.296.081-2.079-.756.081-1.242.108-2.295.108h-10.01702c-1.161 0-1.863-.027-2.565-.108.054.567.081 1.188.081 2.052zm1.647-2.025h11.42102v2.64597h-11.42102zm-5.238 15.03897c0 1.053-.054 1.998-.162 2.727h1.998c-.135-.918-.162-1.566-.162-2.754v-7.776h18.49502v7.911c0 .54-.135.621-1.107.621-.945 0-1.971-.081-3.051-.243.216.621.297.945.351 1.674 1.728.081 1.89.081 2.511.081 1.431 0 1.89-.081 2.322-.378.459-.297.621-.756.621-1.674v-7.155c0-.945.027-1.539.108-2.376-.702.081-1.296.108-2.619.108h-16.74002c-1.134 0-1.89-.027-2.673-.108.081.81.108 1.485.108 2.43zm16.25402-4.293c0-.891.027-1.296.081-1.836-.702.054-1.35.081-2.376.081h-6.48002c-.999 0-1.566-.027-2.187-.081.054.567.081 1.107.081 1.971v2.7c0 .972-.054 1.674-.135 2.241h1.755v-1.485h6.85802c.945 0 1.782.027 2.484.081-.054-.54-.081-.945-.081-1.917zm-9.28802-.405h7.72202v2.646h-7.72202z"/><path d="m42.408 4.96363v2.268h-3.726c-1.08 0-1.809-.027-2.619-.135.081.837.108 1.485.108 2.565v1.67397c0 1.053-.027 1.674-.108 2.484.702-.081 1.377-.108 2.592-.108h3.105c-.81.864-1.161 1.188-1.782 1.701-1.701 1.377-3.132 2.214-5.4 3.186.513.513.702.756 1.08 1.404 1.944-.999 2.862-1.593 4.158-2.646 1.107-.864 1.674-1.431 2.7-2.673-.081.702-.108 1.215-.108 2.322v2.349c0 .864-.054 1.512-.162 2.187h1.917c-.108-.702-.162-1.323-.162-2.187v-2.322c0-.891-.027-1.755-.081-2.376 1.134 1.377 1.755 1.944 3.024 2.943 1.62 1.215 2.646 1.809 4.833 2.808.27-.675.459-.999.918-1.593-2.484-.945-3.834-1.62-5.562-2.916-.891-.648-1.323-1.026-2.511-2.187h3.618c1.269 0 1.944.027 2.592.108-.081-.729-.108-1.323-.108-2.538v-1.75497c0-1.134.027-1.701.108-2.43-.783.108-1.512.135-2.538.135h-4.293v-2.268h5.805c1.107 0 1.593.02699 2.295.16199v-1.83599c-.702.135-1.215.162-2.457.162h-5.643v-.945c0-.756.054-1.323.162-1.917004h-1.917c.108.540004.162 1.242004.162 1.971004v.891h-4.752c-1.296 0-1.89-.027-2.592-.162v1.83599c.675-.135 1.269-.16199 2.457-.16199zm0 3.699v3.61797h-4.617v-3.61797zm1.593 0h5.103v3.61797h-5.103zm-15.39-6.453c1.755 1.701 2.727 2.835 4.185 4.941l1.377-1.215c-1.512-1.971-2.511-3.078-4.32-4.806zm-.351 10.82697c.675-.108 1.08-.135 1.971-.135h1.701v6.534c-1.458 1.431-3.105 2.673-4.347 3.24l.891 1.782c.405-.351.702-.594 1.053-.864 1.269-.972 1.944-1.539 3.186-2.808.918 1.377 1.755 2.106 3.078 2.673 1.539.648 3.024.81 7.722.81 3.051 0 6.021-.054 8.802-.162.162-.891.216-1.053.621-1.998-2.592.351-6.534.54-11.799.54-4.455 0-6.237-.756-7.533-3.267v-5.265c0-1.35.027-1.998.135-2.862-.675.108-1.269.135-2.079.135h-1.323c-.999 0-1.431-.027-2.079-.135z"/><path d="m74.106 22.8376c-.405-.702-.756-1.485-1.431-3.105l-6.048-14.90397c-.675-1.647-.81-1.998-.918-2.511h-2.727c-.135.621-.351 1.242-.864 2.511l-6.048 14.90397c-.729 1.809-.918 2.214-1.458 3.105h2.808c.189-.945.432-1.728.837-2.754l1.404-3.483h9.423l1.404 3.483c.324.837.621 1.782.837 2.754zm-5.67-8.1h-8.127l3.456-8.90997c.054-.108.135-.405.297-.837.054-.189.162-.486.297-.891.513 1.485.513 1.512.594 1.728z"/><path d="m86.121 22.8376c4.131 0 6.507-2.052 6.507-5.67 0-1.728-.567-3.105-1.674-4.05-.729-.621-1.377-.891-2.619-1.134 1.08-.351 1.566-.594 2.133-1.08.972-.864 1.458-2.05197 1.458-3.61797 0-3.186-2.187-4.968-6.102-4.968h-5.751c-1.566 0-2.106 0-2.943-.054.162.972.216 1.701.216 2.86199v14.44498c0 1.566-.054 2.268-.243 3.348.945-.054 1.782-.081 2.97-.081zm-6.696-11.718v-6.96597h6.345c2.673 0 4.023 1.134 4.023 3.375 0 2.268-1.485 3.59097-3.996 3.59097zm0 1.836h6.453c2.997 0 4.563 1.377 4.563 4.05 0 2.592-1.566 3.996-4.509 3.996h-6.507z"/><path d="m116.197 11.2816c1.404 0 2.187.027 3.105.135v-1.99797c-.945.135-1.593.162-3.132.162h-15.795c-1.5393 0-2.1873-.027-3.1323-.162v1.99797c.918-.108 1.701-.135 3.1053-.135h7.317c-.054 2.106-.459 4.239-1.08 5.589-1.107 2.457-3.294 4.185-6.8313 5.319.6753.648.8913.945 1.2693 1.755 2.214-.891 3.564-1.647 4.752-2.673 2.052-1.728 3.186-3.942 3.645-7.128.162-1.053.27-2.052.297-2.862zm-16.2273-6.50697c.8103-.108 1.5123-.135 3.0783-.135h10.557c1.566 0 2.268.027 3.078.135v-2.052c-.891.162-1.431.189-3.105.189h-10.503c-1.674 0-2.214-.027-3.1053-.189z"/><path d="m145.308 21.5416c-3.078-3.267-5.454-5.4-8.991-8.1 1.674-2.079 2.943-4.21197 4.455-7.55997.297-.675.486-.999.756-1.323l-1.134-1.161c-.459.162-.783.189-1.728.216l-9.639.108c-.378 0-.621 0-.702 0-.918 0-1.404-.027-2.133-.135l.054 2.187c.783-.135 1.566-.189 2.781-.216l9.018-.135c.324 0 .405 0 .648-.027-.027.081-.027.108-.081.189-.054.135-.081.162-.135.324-1.971 4.72497-5.319 8.99097-9.639 12.17697-2.079 1.539-3.402 2.268-5.481 3.105.675.675.891.972 1.323 1.782 1.998-.999 3.429-1.89 5.292-3.24 1.944-1.431 3.267-2.673 5.157-4.833 3.456 2.673 6.507 5.616 8.64 8.343z"/><path d="m158.835 23.8366c-.108-.756-.135-1.35-.135-2.862v-8.127c0-.675-.027-1.053-.108-1.593l.054-.027c.243.189.432.297.837.459 3.807 1.566 7.533 3.564 10.071 5.346l1.161-1.998c-4.725-2.727-7.857-4.212-12.015-5.69697v-5.049c0-1.539.027-2.106.135-2.808h-2.322c.108.675.162 1.323.162 2.754v16.76697c0 1.458-.054 2.106-.162 2.835z"/><path d="m185.97 9.06763h.108c.054 0 .135 0 .27.027.054 0 .216 0 .459.027.108 0 .405 0 .864.054.945.054 1.944.081 3.051.081 1.026 0 1.863-.027 3.078-.081.081 3.94197.189 6.47997.27 7.04697-.621-.324-1.89-.54-2.997-.54-2.997 0-5.13 1.593-5.13 3.834 0 2.349 1.971 3.834 5.103 3.834 2.214 0 3.861-.837 4.509-2.268.216-.486.324-1.134.324-1.836 0-.243 0-.297-.054-.702.135.081.135.081.243.162.162.108.162.108.27.162 1.917 1.107 2.997 1.863 3.834 2.808l.837-1.89c-.297-.189-.351-.243-.675-.459-1.782-1.323-2.538-1.755-4.509-2.646-.216-3.591-.27-4.968-.297-7.64097 1.404-.162 2.16-.27 2.862-.432 1.836-.378 1.836-.378 1.89-.378l-.081-1.836c-1.026.432-2.592.756-4.671.999-.027-.594-.027-1.026-.027-1.323 0-2.241.054-3.51.189-4.239h-2.025c.054.27.081.648.081 1.107 0 2.052 0 2.052.027 4.59-1.107.054-1.836.081-2.889.081-2.376 0-3.537-.108-4.86-.432zm8.127 8.80197s.027.621.027.81c0 1.053-.162 1.701-.513 2.106-.513.594-1.566.945-2.754.945-1.89 0-3.132-.864-3.132-2.187 0-1.35 1.377-2.241 3.483-2.241 1.08 0 1.782.135 2.889.567zm-12.906-16.06497c-.027.351-.054.513-.297 1.701-1.053 4.671-1.404 7.50597-1.404 11.09697 0 2.727.27 5.508.756 8.019.108.621.135.756.162.999l1.917-.189c-.054-.378-.054-.405-.054-.54 0-1.593 1.053-5.022 2.322-7.668l-1.323-.621c-.054.189-.108.297-.216.54-.918 2.214-1.107 2.727-1.593 4.752l-.108-.027c0-.27 0-.27 0-.513-.027-.486-.027-.54-.027-.756-.054-1.242-.108-2.835-.108-3.78 0-4.428.918-9.96297 2.079-12.66297z"/><path d="m206.976 13.9546c.324.027.405.027.837.162 1.215.297 2.457.513 4.077.675-.027.243-.027.243-.054.648-.081.675-.108 1.215-.108 1.782 0 1.539.297 2.835.837 3.726 1.053 1.728 3.213 2.7 6.048 2.7 4.725 0 7.911-2.565 7.911-6.372 0-1.971-.621-3.294-2.538-5.373-.783.351-1.08.432-1.971.54 1.728 1.485 2.565 2.997 2.565 4.698 0 2.862-2.349 4.725-5.967 4.725-1.647 0-2.943-.405-3.807-1.161-.837-.729-1.242-1.755-1.242-3.24 0-.459.054-1.35.108-1.998.027-.351.027-.351.027-.54 1.215.054 1.647.054 2.322.054 1.269 0 2.43-.054 3.807-.216.378-.027.459-.027.729-.054l.054-1.809c-1.053.27-3.024.432-4.968.432-.378 0-.756 0-1.782-.027.162-1.512.189-1.782.621-4.88697 1.485.054 1.944.054 2.376.054.783 0 1.593-.027 2.43-.108 1.35-.108 1.35-.108 1.89-.162l.081-1.863c-1.215.297-2.916.459-4.941.459-.432 0-.81 0-1.566-.027.135-.756.189-1.026.27-1.62.243-1.485.243-1.485.27-1.728.189-.972.27-1.296.432-1.809l-2.16-.243v.216c0 .702-.216 2.484-.648 5.076-1.89-.162-3.699-.567-4.86-1.053l-.243 1.782c.378.081.486.108.837.189 1.593.378 2.754.567 4.023.729-.216 1.431-.486 3.53697-.621 4.85997-2.052-.243-3.753-.594-4.833-1.08z"/><path d="m234.354 7.39363h.216c.162 0 .405 0 .756.027 1.566.108 2.754.162 4.482.189-.918 3.18597-2.457 6.96597-3.618 8.80197l1.944.783c.54-.702 1.161-1.188 2.268-1.728 1.836-.918 4.185-1.458 6.264-1.458 3.24 0 5.184 1.242 5.184 3.294 0 2.592-2.808 4.293-7.074 4.293-2.457 0-4.644-.432-6.75-1.35.081.864.135 1.35.135 1.485v.162c0 .081 0 .243-.027.432 2.16.729 4.266 1.053 6.669 1.053 5.454 0 9.045-2.403 9.045-6.075 0-3.024-2.727-4.968-6.993-4.968-2.943 0-5.967.864-7.857 2.268l-.027-.054c.756-1.242 1.944-4.32 2.7-6.93897 4.077-.135 6.237-.297 10.017-.783.567-.081.729-.081 1.188-.135l-.135-1.944c-1.755.594-5.346.972-10.638 1.161.27-.972.351-1.296.729-2.862.297-1.323.297-1.323.432-1.728l-2.16-.216c-.027 1.215-.297 2.727-.864 4.833-2.835 0-4.563-.135-5.832-.459z"/><path d="m265.026 5.07163c.405-.081 1.08-.135 1.944-.135 3.024-.08101 6.534-.297 7.695-.486.108-.027.216-.054.351-.054l.054.027c-.135.135-.135.135-.216.216-.108.108-.135.135-.243.27-2.484 2.592-6.156 6.07497-8.964 8.53197-1.62 1.377-2.511 2.079-3.51 2.673l1.35 1.674c.567-.567 1.188-1.08 2.106-1.701 2.7-1.863 5.913-2.97 8.667-2.97 3.321 0 5.373 1.431 5.373 3.78 0 2.781-2.862 4.698-7.047 4.698-2.322 0-4.941-.621-6.885-1.674.135.837.189 1.242.189 1.701 0 .135 0 .27-.027.486 2.511.891 4.482 1.269 6.507 1.269 2.187 0 4.32-.432 5.751-1.134 2.187-1.107 3.51-3.105 3.51-5.346 0-3.294-2.727-5.373-7.02-5.373-2.457 0-4.158.54-6.858 2.133l-.081-.081c2.187-1.539 3.429-2.646 7.371-6.61497 2.511-2.511 2.511-2.511 2.916-2.781l-1.134-1.566c-.324.135-.54.189-1.107.243-1.863.189-5.292.351-7.803.351-1.647 0-2.16-.027-2.997-.162z"/><path d="m296.454 1.37263c-.162.81-.756 2.511-3.699 10.31397-3.888 10.368-3.888 10.368-4.239 11.124l2.079.648c.351-1.62 1.593-4.698 2.484-6.21 1.512-2.565 3.267-3.996 4.833-3.996.81 0 1.296.324 1.539.999.162.432.216.945.216 2.052v1.539c0 1.512.081 2.376.243 2.916.513 1.539 1.944 2.43 3.942 2.43 2.214 0 4.131-1.053 5.373-2.943.837-1.269 1.377-2.619 1.917-4.752-.783-.459-1.08-.702-1.782-1.377-.162 1.458-.459 2.592-1.026 3.834-.999 2.268-2.403 3.375-4.32 3.375-.891 0-1.701-.324-2.052-.837-.324-.486-.432-1.161-.432-2.565v-1.836c0-1.539-.135-2.403-.459-3.051-.486-.972-1.539-1.593-2.7-1.593-1.917 0-3.294.972-5.076 3.537l-.135-.054c.108-.243.135-.297.243-.486.135-.27.243-.486.297-.594 1.107-2.322 1.107-2.322 1.944-4.45497 2.646-6.777 2.646-6.777 2.997-7.425z"/><path d="m328.719 5.09863c1.35.054 2.133.243 3.132.675 2.727 1.215 4.293 3.699 4.293 6.77697 0 3.321-1.809 6.21-4.779 7.56-1.269.594-2.538.945-4.509 1.269.513.648.675.918.945 1.809 1.863-.405 2.889-.729 4.104-1.242 3.915-1.674 6.183-5.13 6.183-9.315 0-2.592-.918-4.94097-2.619-6.58797-1.755-1.728-4.401-2.673-7.425-2.673-3.618 0-6.561 1.215-8.721 3.591-1.809 2.02499-2.835 4.69797-2.835 7.45197 0 3.78 1.917 6.588 4.482 6.588 1.944 0 3.537-1.62 5.103-5.184 1.215-2.835 2.241-6.96597 2.646-10.71897zm-1.944.02699c-.351 3.45601-1.35 7.45198-2.457 9.98998-1.161 2.646-2.241 3.915-3.375 3.915-1.458 0-2.592-1.998-2.592-4.59 0-3.348 1.674-6.39897 4.401-8.04597 1.242-.756 2.403-1.134 4.023-1.26901z"/><path d="m347.646 5.50363c.351 0 .405.027.891.081 1.755.216 4.05.351 5.94.351 1.539 0 2.457-.081 4.077-.351-.27.162-.324.162-.513.27-.324.162-.378.189-.675.351-1.215.675-1.863 1.08-3.591 2.241l1.377 1.107c2.646-1.917 5.13-3.402 6.804-4.104l-.135-1.782c-1.485.378-3.672.567-6.831.567-3.078 0-5.211-.189-7.182-.648zm1.62 6.91197c-2.079 1.755-3.105 3.456-3.105 5.211 0 1.863 1.053 3.24 3.078 4.077 1.323.513 3.618.837 6.21.837 2.376 0 4.941-.216 7.29-.621.459-.081.567-.108.918-.135l-.243-2.214c-1.512.621-4.725 1.026-8.1 1.026-2.133 0-3.915-.189-4.941-.54-1.512-.513-2.295-1.404-2.295-2.646 0-1.269.81-2.511 2.565-3.969z"/><path d="m377.211 1.80463c.162.432.216.567.459 1.701.702 3.456 1.215 5.346 1.971 7.55997-1.674.837-2.511 1.35-3.537 2.187-1.593 1.296-2.403 2.862-2.403 4.59 0 2.133 1.134 3.618 3.348 4.428 1.296.486 3.321.729 5.994.729 1.89 0 3.186-.081 5.967-.351 1.485-.162 1.485-.162 1.998-.162l-.216-2.241c-1.593.567-4.617.918-7.722.918-5.292 0-7.371-.945-7.371-3.402 0-2.241 1.998-4.023 6.615-5.859 2.376-.972 6.237-2.21397 8.127-2.61897l-.81-2.052c-.54.27-.783.351-1.728.702-4.185 1.458-4.941 1.755-6.534 2.40297-.918-2.69997-1.917-7.12797-2.025-8.93697z"/><path d="m397.623 18.8956c2.025 1.674 3.591 3.375 5.319 5.886l1.512-1.431c-1.836-2.484-3.213-3.942-5.427-5.724z"/><path d="m434.667 1.91263c-5.67 0-9.342 4.185-9.342 10.66497 0 6.507 3.618 10.665 9.315 10.665s9.342-4.158 9.342-10.665c0-6.50697-3.618-10.66497-9.315-10.66497zm.027 19.41297c-4.32 0-7.182-3.483-7.182-8.775 0-5.29197 2.835-8.74797 7.155-8.74797 1.863 0 3.483.648 4.725 1.863 1.566 1.566 2.376 3.942 2.376 6.91197 0 2.889-.864 5.4-2.403 6.912-1.215 1.215-2.808 1.836-4.671 1.836z"/><path d="m450.271 22.8376c-.135-1.053-.189-1.863-.189-3.051v-5.211c.216-1.08.54-1.755 1.242-2.673 1.134-1.458 2.349-2.13297 3.861-2.13297 2.133 0 3.294 1.29597 3.294 3.72597v6.291c0 1.188-.054 1.998-.189 3.051h2.43c-.135-.891-.189-1.647-.189-3.024v-6.669c0-1.323-.243-2.322-.756-3.105-.864-1.32297-2.376-2.02497-4.32-2.02497-2.43 0-4.185 1.053-5.454 3.26697.081-.621.081-.837.081-1.161v-1.83597h-2.241c.162 1.08.216 1.83597.216 3.05097v8.451c0 1.296-.054 2.025-.216 3.051z"/><path d="m477.815 15.8716c-.054-.729-.162-1.782-.189-2.079-.54-3.618-3.051-5.85897-6.534-5.85897-4.05 0-6.696 3.02397-6.696 7.64097 0 4.671 2.673 7.641 6.912 7.641 1.971 0 3.618-.648 4.887-1.89.621-.621.972-1.107 1.485-2.241l-1.89-.756c-.756 2.079-2.268 3.159-4.455 3.159-1.62 0-2.943-.648-3.807-1.836-.729-.972-.999-1.971-1.08-3.78zm-11.286-1.701c.162-1.026.297-1.512.675-2.187.81-1.512 2.187-2.34897 3.834-2.34897 1.296 0 2.349.40497 3.186 1.21497.864.837 1.269 1.809 1.431 3.321z"/><path d="m492.717 4.26163c.135.891.189 1.917.189 2.997v1.026h-1.08c-1.134 0-1.674-.027-2.43-.162v2.05197c.891-.108 1.512-.162 2.43-.162h1.08v9.666c0 1.269.215 2.052.755 2.592s1.459.837 2.647.837c1.107 0 1.944-.162 3.051-.621l-.595-1.89c-.891.54-1.43.702-2.132.702-.567 0-1.026-.162-1.323-.459-.243-.243-.351-.648-.351-1.431v-9.396h1.296c1.215 0 1.89.027 2.754.162v-2.05197c-.945.135-1.512.162-2.754.162h-1.296v-1.026c0-1.161.054-2.13301.189-2.997z"/><path d="m508.69 23.1886c4.347 0 7.155-3.024 7.155-7.641 0-4.644-2.781-7.61397-7.182-7.61397s-7.209 2.96997-7.209 7.64097 2.808 7.614 7.236 7.614zm.027-13.55397c3.105 0 5.049 2.26797 5.049 5.91297s-1.944 5.886-5.103 5.886-5.13-2.241-5.13-5.913c0-3.645 1.971-5.88597 5.184-5.88597z"/><path d="m537.904 1.91263c-5.67 0-9.342 4.185-9.342 10.66497 0 6.507 3.618 10.665 9.315 10.665s9.342-4.158 9.342-10.665c0-6.50697-3.618-10.66497-9.315-10.66497zm.027 19.41297c-4.32 0-7.182-3.483-7.182-8.775 0-5.29197 2.835-8.74797 7.155-8.74797 1.863 0 3.483.648 4.725 1.863 1.566 1.566 2.376 3.942 2.376 6.91197 0 2.889-.864 5.4-2.403 6.912-1.215 1.215-2.808 1.836-4.671 1.836z"/><path d="m553.508 22.8376c-.135-1.053-.189-1.863-.189-3.051v-5.211c.216-1.08.54-1.755 1.242-2.673 1.134-1.458 2.349-2.13297 3.861-2.13297 2.133 0 3.294 1.29597 3.294 3.72597v6.291c0 1.188-.054 1.998-.189 3.051h2.43c-.135-.891-.189-1.647-.189-3.024v-6.669c0-1.323-.243-2.322-.756-3.105-.864-1.32297-2.376-2.02497-4.32-2.02497-2.43 0-4.185 1.053-5.454 3.26697.081-.621.081-.837.081-1.161v-1.83597h-2.241c.162 1.08.216 1.83597.216 3.05097v8.451c0 1.296-.054 2.025-.216 3.051z"/><path d="m581.052 15.8716c-.054-.729-.162-1.782-.189-2.079-.54-3.618-3.051-5.85897-6.534-5.85897-4.05 0-6.696 3.02397-6.696 7.64097 0 4.671 2.673 7.641 6.912 7.641 1.971 0 3.618-.648 4.887-1.89.621-.621.972-1.107 1.485-2.241l-1.89-.756c-.756 2.079-2.268 3.159-4.455 3.159-1.62 0-2.943-.648-3.807-1.836-.729-.972-.999-1.971-1.08-3.78zm-11.286-1.701c.162-1.026.297-1.512.675-2.187.81-1.512 2.187-2.34897 3.834-2.34897 1.296 0 2.349.40497 3.186 1.21497.864.837 1.269 1.809 1.431 3.321z"/><path d="m589.068 11.6326c4.05 3.267 8.073 7.695 10.53 11.61l1.647-1.377c-1.809-2.403-2.916-3.807-3.942-4.914 3.402-2.754 6.264-5.994 8.91-10.12497.567-.864.756-1.107 1.08-1.431l-1.134-1.35c-.432.162-.567.189-1.512.189h-15.741c-1.566 0-2.214-.027-3.159-.162v2.133c.918-.081 1.674-.108 3.132-.108 15.039-.027 15.039-.027 15.417-.054-.108.162-.135.189-.216.324-1.134 1.863-2.97 4.29297-4.455 5.85897-.999 1.053-2.43 2.349-3.591 3.321-2.457-2.511-3.456-3.429-5.481-5.103z"/><path d="m611.612 13.7386c.81-.081 1.377-.108 3.348-.108h15.66c1.809 0 2.43.027 3.294.108v-2.187c-.837.108-1.269.135-3.267.135h-15.687c-1.836 0-2.565-.027-3.348-.162z"/><path d="m658.214 8.17663c2.619.027 2.619.027 3.348.081v-1.971c-1.107.135-1.62.162-3.321.162-12.123 0-12.123 0-12.555.027.324-.513.783-1.512 1.404-2.943.351-.864.432-.999.675-1.485l-2.052-.648c-.216 1.107-.567 2.052-1.377 3.78-1.512 3.18599-3.294 5.48097-5.778 7.45197.864.459 1.107.648 1.593 1.269 1.944-1.782 3.159-3.267 4.698-5.72397h7.452c-.243 5.02197-1.377 8.04597-3.861 10.42197-1.647 1.593-3.348 2.619-5.697 3.51.702.567.945.891 1.323 1.728 1.971-.972 3.024-1.566 4.158-2.403 2.106-1.566 3.645-3.456 4.617-5.67.864-1.998 1.161-3.618 1.458-7.58697z"/><path d="m685.754 11.2816c1.404 0 2.187.027 3.105.135v-1.99797c-.945.135-1.593.162-3.132.162h-15.795c-1.539 0-2.187-.027-3.132-.162v1.99797c.918-.108 1.701-.135 3.105-.135h7.317c-.054 2.106-.459 4.239-1.08 5.589-1.107 2.457-3.294 4.185-6.831 5.319.675.648.891.945 1.269 1.755 2.214-.891 3.564-1.647 4.752-2.673 2.052-1.728 3.186-3.942 3.645-7.128.162-1.053.27-2.052.297-2.862zm-16.227-6.50697c.81-.108 1.512-.135 3.078-.135h10.557c1.566 0 2.268.027 3.078.135v-2.052c-.891.162-1.431.189-3.105.189h-10.503c-1.674 0-2.214-.027-3.105-.189z"/><path d="m710.695 6.36763c-.405.621-.702.972-1.512 1.755-2.295 2.29497-4.752 4.10397-7.722 5.61597-1.971 1.053-3.564 1.647-6.264 2.376.513.648.675.918.945 1.62 3.348-1.026 5.643-2.052 8.289-3.726v8.019c0 1.35-.027 1.701-.108 2.349h2.106c-.108-.675-.135-1.323-.135-2.376v-9.126c2.619-2.025 3.969-3.23997 5.427-4.75197.297-.324.351-.405.648-.621z"/><path d="m722.818 5.36862c2.349 1.43101 4.482 3.18601 6.426 5.29198l1.404-1.67397c-1.944-1.917-3.618-3.24-6.507-5.076zm.189 17.54998c.675-.216.891-.27 1.62-.432 4.509-1.026 7.29-2.133 10.071-4.023 3.564-2.457 6.075-5.616 8.235-10.31397-.756-.513-1.026-.756-1.647-1.593-2.187 5.72397-5.805 9.69297-11.016 12.01497-2.511 1.161-5.751 1.998-7.857 2.079z"/><path d="m756.892 1.15663c-.135.918-.675 2.16-1.701 3.915-1.863 3.294-3.915 5.53497-6.777 7.42497.783.486 1.053.702 1.512 1.377 2.646-1.971 4.806-4.34697 6.453-7.01997l9.099-.135c-.945 3.37497-2.565 6.53397-4.644 9.01797-2.592 3.132-5.454 5.184-9.531 6.831.702.567.918.81 1.35 1.593 3.942-1.755 6.912-3.915 9.396-6.75 2.268-2.592 4.212-6.237 5.292-9.85497.297-.972.297-.999.54-1.323l-1.458-1.404c-.351.162-.432.162-1.377.189l-6.804.10799c-.486 0-.702.02701-.972.08101.297-.459.54-.918 1.242-2.376.351-.756.351-.756.594-1.107zm12.15-.108c1.134 1.377 1.809 2.484 2.484 3.915l1.35-.729c-.864-1.647-1.377-2.43-2.484-3.834003zm-2.457 1.161c1.134 1.404 1.809 2.484 2.484 3.915l1.35-.729c-.864-1.62-1.377-2.43-2.484-3.834z"/><path d="m776.656 16.2766c.243-.297.297-.351.783-.891 1.728-1.917 3.132-3.618 4.725-5.75097 1.296-1.728 1.539-1.944 2.133-1.944.459 0 .891.324 1.62 1.161 2.619 3.05097 3.645 4.15797 5.238 5.77797 1.809 1.782 4.887 4.536 6.561 5.859.351.27.405.324.648.567l.918-2.322c-.594-.243-1.134-.594-2.16-1.404-2.376-1.836-6.075-5.454-8.559-8.31597-1.242-1.431-1.701-1.944-1.971-2.187-.837-.837-1.566-1.215-2.322-1.215-.702 0-1.404.351-2.16 1.026-.351.324-.567.594-1.35 1.62-2.268 2.99697-4.401 5.34597-5.427 6.02097z"/><path d="m816.184 5.09863c1.35.054 2.133.243 3.132.675 2.727 1.215 4.293 3.699 4.293 6.77697 0 3.321-1.809 6.21-4.779 7.56-1.269.594-2.538.945-4.509 1.269.513.648.675.918.945 1.809 1.863-.405 2.889-.729 4.104-1.242 3.915-1.674 6.183-5.13 6.183-9.315 0-2.592-.918-4.94097-2.619-6.58797-1.755-1.728-4.401-2.673-7.425-2.673-3.618 0-6.561 1.215-8.721 3.591-1.809 2.02499-2.835 4.69797-2.835 7.45197 0 3.78 1.917 6.588 4.482 6.588 1.944 0 3.537-1.62 5.103-5.184 1.215-2.835 2.241-6.96597 2.646-10.71897zm-1.944.02699c-.351 3.45601-1.35 7.45198-2.457 9.98998-1.161 2.646-2.241 3.915-3.375 3.915-1.458 0-2.592-1.998-2.592-4.59 0-3.348 1.674-6.39897 4.401-8.04597 1.242-.756 2.403-1.134 4.023-1.26901z"/><path d="m835.705 5.26063h-2.997c-1.026 0-1.728-.054-2.484-.162v1.836c.675-.108 1.269-.135 2.403-.135h5.616c-.162 2.781-.594 4.94097-1.323 7.01997-1.809-2.187-3.024-3.591-4.347-4.88697l-1.269 1.07997c1.89 1.836 3.105 3.213 4.887 5.508-1.485 3.051-3.294 5.184-6.237 7.371.621.432.918.702 1.35 1.296 2.754-2.241 4.455-4.32 5.994-7.209 1.134 1.566 2.43 3.672 3.294 5.292l1.35-1.296c-1.323-2.187-2.16-3.456-3.861-5.67 1.08-2.592 1.674-5.157 1.917-8.50497 1.188 0 1.782.027 2.457.108v-1.809c-.756.108-1.458.162-2.484.162h-2.565v-1.809c0-1.161.027-1.89.135-2.727004h-1.998c.108.702004.162 1.242004.162 2.727004zm13.77 3.186v13.82397c0 .567-.216.675-1.431.675-.891 0-2.16-.108-3.456-.297.297.648.405.972.567 1.809 1.188.054 1.863.081 3.078.081 2.43 0 2.97-.405 2.97-2.187v-13.90497h.648c1.107 0 1.701.027 2.646.162v-1.863c-.675.108-1.512.162-2.619.162h-.675v-3.024c0-1.242.027-2.106.162-2.943004h-2.079c.135.702004.189 1.512004.189 2.943004v3.024h-4.212c-1.215 0-1.917-.027-2.565-.135v1.836c.729-.108 1.485-.162 2.538-.162zm-7.317 3.07797c1.701 2.025 2.727 3.618 3.888 6.21l1.485-1.026c-1.377-2.592-2.295-3.969-3.996-6.021z"/><path d="m869.482 3.39763h-7.128c-1.08 0-1.89-.027-2.727-.135.108.837.135 1.782.135 3.645 0 9.74697-.486 12.87897-2.511 16.33497.594.378.972.675 1.512 1.242 1.08-1.863 1.701-3.699 2.106-6.129.486-2.862.648-5.913.648-13.39197h17.388c1.35 0 2.133.027 2.916.135v-1.863c-.702.108-1.485.162-2.916.162h-7.668v-1.404c0-.81.027-1.242005.162-1.728005h-2.079c.108.567001.162 1.080005.162 1.701005zm-6.102 18.68397c1.377-3.078 1.863-4.968 2.376-9.342l-1.701-.459c-.378 4.131-.972 6.453-2.295 8.829zm4.347-12.14997c.108.62097.162 1.24197.162 2.42997v10.314c0 1.593.648 1.863 4.455 1.863 2.619 0 3.672-.189 4.239-.837.594-.648.918-2.322 1.107-5.697-.594-.135-.945-.27-1.728-.675v.675c0 1.674-.216 3.672-.459 4.185-.27.567-.945.729-3.267.729-1.107 0-1.89-.054-2.187-.162-.351-.135-.432-.27-.432-.702v-9.666c0-1.188.054-1.863.162-2.45697zm8.073.29697c-2.538-1.99797-3.753-2.80797-6.561-4.26597l-1.134 1.188c2.916 1.458 4.32 2.43 6.507 4.45497zm6.264 10.692c-.918-3.564-1.62-5.454-3.294-8.856l-1.566.675c1.674 3.24 2.322 5.076 3.105 8.937z"/><path d="m885.088 18.8956c2.025 1.674 3.591 3.375 5.319 5.886l1.512-1.431c-1.836-2.484-3.213-3.942-5.427-5.724z"/><path d="m76.1058 60.0676v-4.617c3.483-.567 5.535-1.08 7.776-1.998.702-.297.729-.297.972-.378l-1.377-1.512c-.675.486-1.35.783-2.484 1.161-2.214.702-4.968 1.242-6.399 1.242-.054 0-.189 0-.324 0 .081.783.135 1.944.135 4.995 0 9.018-.81 12.798-3.402 15.984.675.351.972.594 1.539 1.134.918-1.242 1.458-2.268 1.998-3.699.945-2.457 1.512-6.102 1.539-9.693 0-.702 0-.702 0-1.053h4.239v11.772c0 1.323-.054 1.998-.162 2.7h2.079c-.135-.675-.162-1.35-.162-2.7v-11.772h.999c1.107 0 1.701.027 2.376.135v-1.863c-.621.108-1.269.162-2.484.162zm-7.965-6.021v-.729c0-.891.027-1.323.135-1.89h-1.971c.108.594.135 1.026.135 1.89v.729h-2.7c-1.188 0-1.755-.027-2.376-.135v1.809c.702-.108 1.215-.135 2.349-.135h6.912c1.053 0 1.566.027 2.295.135v-1.809c-.648.108-1.161.135-2.268.135zm-5.076 6.21c-1.08 0-1.647-.027-2.241-.135v1.809c.621-.108 1.188-.135 2.241-.135h8.019c.972 0 1.512.027 2.187.135v-1.809c-.621.108-1.161.135-2.187.135h-1.593c.621-1.053 1.188-2.295 1.836-3.915l-1.62-.513c-.378 1.62-.864 2.835-1.809 4.428zm2.808 6.021c-.756 1.404-1.161 1.971-1.971 2.889-.999 1.107-2.16 2.079-3.51 2.97.432.459.729.891 1.026 1.512 2.457-1.89 3.996-3.672 5.103-5.994-.054.891-.081 1.593-.081 2.241v3.834c0 .891-.054 1.62-.162 2.322h1.863c-.108-.729-.135-1.377-.135-2.322v-3.915c-.027-.999-.054-1.782-.108-2.376 1.053 1.62 1.62 2.241 3.375 3.726.324-.621.513-.945.945-1.458-2.025-1.296-2.781-1.998-3.807-3.429h2.565c1.026 0 1.566.027 2.187.135v-1.755c-.702.135-1.242.162-2.187.162h-2.97v-1.431c0-.351.027-.783.108-1.107h-1.809c.081.324.135.756.135 1.107v1.431h-3.294c-1.107 0-1.647-.027-2.268-.162v1.782c.648-.135 1.161-.162 2.214-.162zm.027-6.777c-.459-1.485-.783-2.295-1.539-3.645l-1.431.54c.729 1.269 1.08 2.106 1.539 3.618z"/><path d="m99.5148 54.1006h-8.127c-1.161 0-1.944-.054-2.808-.162v1.809c.783-.081 1.674-.135 2.754-.135h3.402c.567 1.053 1.026 2.187 1.323 3.267h-3.807c-1.026 0-1.998-.027-2.565-.108.081.702.108 1.35.108 2.187v12.15c0 1.242-.054 2.025-.162 2.943h2.025c-.108-.891-.162-1.674-.162-2.943v-12.771h5.454c-.135.999-.27 1.404-.567 1.998-.756 1.458-1.89 2.214-4.509 3.159.54.567.729.81 1.026 1.377 2.808-1.269 4.023-2.214 4.941-3.942.432-.81.567-1.215.783-2.592h3.2132v3.051c0 1.269.513 1.512 3.132 1.512 3.159 0 3.51-.243 3.861-2.727-.486-.108-.999-.351-1.377-.621-.081.972-.135 1.296-.27 1.539-.162.351-.486.405-2.079.405-1.539 0-1.701-.054-1.701-.54v-2.619h6.075v13.149c0 .567-.243.729-1.215.729-.837 0-2.268-.135-3.51-.297.27.621.378.999.486 1.809 1.242.081 2.241.108 2.997.108 1.296 0 1.809-.081 2.268-.405.459-.297.675-.864.675-1.809v-12.663c0-.945.027-1.512.108-2.187-.621.081-1.242.108-2.538.108h-4.104c.486-.81 1.026-1.89 1.566-3.267h3.591c1.107 0 1.971.054 2.754.135v-1.809c-.756.108-1.62.162-2.808.162h-8.505v-1.188c0-.567.054-1.323.162-1.836h-2.0522c.135.648.162 1.107.162 1.836zm-1.701 4.779c-.378-1.161-.729-2.079-1.296-3.267h7.8842c-.378 1.188-.756 1.998-1.512 3.267zm7.5602 9.396c0-1.053.027-1.485.108-2.214-.513.054-1.107.081-2.457.081h-5.3462c-1.026 0-1.512-.027-2.295-.081.081.594.108 1.161.108 1.863v3.996c0 .729-.027 1.269-.135 1.971h1.728v-1.377h5.9402c1.053 0 1.728.027 2.457.108-.081-.783-.108-1.188-.108-2.349zm-8.2892-.729h6.6962v3.564h-6.6962z"/><path d="m120.683 59.2036c0 .918-.027 1.62-.108 2.349.729-.081 1.566-.108 2.862-.108h9.207c1.323 0 2.079.027 2.835.108-.081-.648-.108-1.35-.108-2.376v-4.563c0-.972.027-1.539.108-2.241-.729.108-1.485.135-3.051.135h-8.829c-1.431 0-2.187-.027-3.024-.135.081.702.108 1.35.108 2.268zm1.701-5.157h11.259v5.859h-11.259zm-5.589 19.224c0 1.377-.027 2.106-.135 2.808h1.809v-1.701h6.264v1.188h1.755c-.081-.648-.108-1.323-.108-2.646v-6.237c0-1.512.027-1.971.081-2.538-.702.054-1.323.081-2.187.081h-5.103c-1.053 0-1.701-.027-2.484-.108.081.81.108 1.566.108 2.619zm1.674-7.533h6.264v7.128h-6.264zm10.584 7.695c0 1.242-.027 1.944-.108 2.646h1.755v-1.701h6.912v1.701h1.836c-.108-.675-.135-1.35-.135-2.808v-6.507c0-1.134.027-1.944.108-2.646-.648.081-1.296.108-2.322.108h-5.94c-.918 0-1.512-.027-2.187-.081.081.648.081 1.053.081 2.322zm1.647-7.695h6.939v7.128h-6.939z"/><path d="m157.025 56.0986c1.35.054 2.133.243 3.132.675 2.727 1.215 4.293 3.699 4.293 6.777 0 3.321-1.809 6.21-4.779 7.56-1.269.594-2.538.945-4.509 1.269.513.648.675.918.945 1.809 1.863-.405 2.889-.729 4.104-1.242 3.915-1.674 6.183-5.13 6.183-9.315 0-2.592-.918-4.941-2.619-6.588-1.755-1.728-4.401-2.673-7.425-2.673-3.618 0-6.561 1.215-8.721 3.591-1.809 2.025-2.835 4.698-2.835 7.452 0 3.78 1.917 6.588 4.482 6.588 1.944 0 3.537-1.62 5.103-5.184 1.215-2.835 2.241-6.966 2.646-10.719zm-1.944.027c-.351 3.456-1.35 7.452-2.457 9.99-1.161 2.646-2.241 3.915-3.375 3.915-1.458 0-2.592-1.998-2.592-4.59 0-3.348 1.674-6.399 4.401-8.046 1.242-.756 2.403-1.134 4.023-1.269z"/><path d="m191.018 62.2816c1.404 0 2.187.027 3.105.135v-1.998c-.945.135-1.593.162-3.132.162h-15.795c-1.539 0-2.187-.027-3.132-.162v1.998c.918-.108 1.701-.135 3.105-.135h7.317c-.054 2.106-.459 4.239-1.08 5.589-1.107 2.457-3.294 4.185-6.831 5.319.675.648.891.945 1.269 1.755 2.214-.891 3.564-1.647 4.752-2.673 2.052-1.728 3.186-3.942 3.645-7.128.162-1.053.27-2.052.297-2.862zm-16.227-6.507c.81-.108 1.512-.135 3.078-.135h10.557c1.566 0 2.268.027 3.078.135v-2.052c-.891.162-1.431.189-3.105.189h-10.503c-1.674 0-2.214-.027-3.105-.189z"/><path d="m220.129 72.5416c-3.078-3.267-5.454-5.4-8.991-8.1 1.674-2.079 2.943-4.212 4.455-7.56.297-.675.486-.999.756-1.323l-1.134-1.161c-.459.162-.783.189-1.728.216l-9.639.108c-.378 0-.621 0-.702 0-.918 0-1.404-.027-2.133-.135l.054 2.187c.783-.135 1.566-.189 2.781-.216l9.018-.135c.324 0 .405 0 .648-.027-.027.081-.027.108-.081.189-.054.135-.081.162-.135.324-1.971 4.725-5.319 8.991-9.639 12.177-2.079 1.539-3.402 2.268-5.481 3.105.675.675.891.972 1.323 1.782 1.998-.999 3.429-1.89 5.292-3.24 1.944-1.431 3.267-2.673 5.157-4.833 3.456 2.673 6.507 5.616 8.64 8.343z"/><path d="m233.656 74.8366c-.108-.756-.135-1.35-.135-2.862v-8.127c0-.675-.027-1.053-.108-1.593l.054-.027c.243.189.432.297.837.459 3.807 1.566 7.533 3.564 10.071 5.346l1.161-1.998c-4.725-2.727-7.857-4.212-12.015-5.697v-5.049c0-1.539.027-2.106.135-2.808h-2.322c.108.675.162 1.323.162 2.754v16.767c0 1.458-.054 2.106-.162 2.835z"/><path d="m255.248 62.6326c4.05 3.267 8.073 7.695 10.53 11.61l1.647-1.377c-1.809-2.403-2.916-3.807-3.942-4.914 3.402-2.754 6.264-5.994 8.91-10.125.567-.864.756-1.107 1.08-1.431l-1.134-1.35c-.432.162-.567.189-1.512.189h-15.741c-1.566 0-2.214-.027-3.159-.162v2.133c.918-.081 1.674-.108 3.132-.108 15.039-.027 15.039-.027 15.417-.054-.108.162-.135.189-.216.324-1.134 1.863-2.97 4.293-4.455 5.859-.999 1.053-2.43 2.349-3.591 3.321-2.457-2.511-3.456-3.429-5.481-5.103z"/><path d="m277.792 64.7386c.81-.081 1.377-.108 3.348-.108h15.66c1.809 0 2.43.027 3.294.108v-2.187c-.837.108-1.269.135-3.267.135h-15.687c-1.836 0-2.565-.027-3.348-.162z"/><path d="m324.394 59.1766c2.619.027 2.619.027 3.348.081v-1.971c-1.107.135-1.62.162-3.321.162-12.123 0-12.123 0-12.555.027.324-.513.783-1.512 1.404-2.943.351-.864.432-.999.675-1.485l-2.052-.648c-.216 1.107-.567 2.052-1.377 3.78-1.512 3.186-3.294 5.481-5.778 7.452.864.459 1.107.648 1.593 1.269 1.944-1.782 3.159-3.267 4.698-5.724h7.452c-.243 5.022-1.377 8.046-3.861 10.422-1.647 1.593-3.348 2.619-5.697 3.51.702.567.945.891 1.323 1.728 1.971-.972 3.024-1.566 4.158-2.403 2.106-1.566 3.645-3.456 4.617-5.67.864-1.998 1.161-3.618 1.458-7.587z"/><path d="m339.433 52.1026c-.054 1.242-.486 3.537-.918 5.076-.513 0-1.404.027-1.944.027-1.485 0-2.295-.054-3.213-.216l-.027 1.863h.351c.081 0 .297 0 .594.027.405 0 1.323.027 1.782.027.405 0 1.323-.027 1.998-.054-.783 2.565-1.566 4.509-2.808 6.966-.999 1.944-1.728 3.132-2.592 4.212l1.836 1.08c.135-.216.297-.54.54-.918 1.026-1.782 1.269-2.241 1.917-3.537 1.188-2.484 2.16-4.995 2.997-7.884 1.647-.108 3.321-.324 4.428-.567.648-.108.648-.108.945-.162l-.081-1.863c-1.242.405-2.943.729-4.833.891.378-1.377.54-2.025.729-2.943.216-1.107.243-1.215.432-1.728zm15.903 7.452c-2.187-1.404-3.996-2.322-7.128-3.564l-.999 1.512c2.835 1.026 4.887 2.106 7.155 3.672zm.054 11.961c-.189-.135-.189-.135-.486-.432-1.458-1.296-3.132-2.322-5.292-3.267-.162-1.026-.297-2.889-.297-4.104 0-.945.081-1.512.351-2.511l-1.836-.189c-.216.999-.27 1.647-.27 2.619 0 .675.054 1.944.189 3.699-1.053-.297-1.728-.405-2.727-.405-1.215 0-2.241.189-3.186.594-1.512.621-2.511 1.971-2.511 3.429 0 2.403 2.025 3.915 5.265 3.915 3.294 0 5.13-1.539 5.13-4.32 0-.27 0-.432-.054-.864 1.971 1.026 3.672 2.376 4.725 3.672zm-7.506-2.457s.054.837.054 1.161c0 2.025-1.053 2.943-3.375 2.943-2.133 0-3.429-.837-3.429-2.214 0-1.485 1.458-2.43 3.753-2.43 1.08 0 1.863.135 2.997.54z"/><path d="m375.316 53.2096c.837.972 1.728 2.403 2.484 3.969l1.431-.675c-.918-1.728-1.404-2.484-2.511-3.915zm2.754-1.134c.918 1.08 1.674 2.295 2.484 3.969l1.431-.675c-.945-1.782-1.566-2.781-2.511-3.915zm-11.718.891c.162.432.216.594.459 1.728.702 3.456 1.215 5.346 1.971 7.533-1.674.837-2.511 1.377-3.537 2.214-1.593 1.296-2.403 2.862-2.403 4.59 0 2.133 1.134 3.618 3.348 4.428 1.296.486 3.321.729 5.994.729 1.89 0 3.186-.081 5.967-.351 1.485-.162 1.485-.162 1.998-.162l-.216-2.241c-1.593.567-4.617.918-7.722.918-5.292 0-7.371-.972-7.371-3.402 0-2.241 1.998-4.023 6.615-5.886 2.376-.945 6.237-2.187 8.127-2.619l-.81-2.052c-.54.297-.783.378-1.728.729-4.185 1.458-4.941 1.728-6.534 2.403-.918-2.727-1.917-7.128-2.025-8.937z"/><path d="m386.845 69.8956c2.025 1.674 3.591 3.375 5.319 5.886l1.512-1.431c-1.836-2.484-3.213-3.942-5.427-5.724z"/><path d="m419.866 57.9616h1.971v9.936c0 .243-.108.324-.432.324s-.378 0-1.053-.162c.162.594.216.972.243 1.647.297.027.648.054.891.054 1.485 0 1.863-.324 1.863-1.647v-9.234c0-1.458.027-2.025.081-2.538-.675.081-1.134.108-2.106.108h-1.458v-2.106c0-1.485.027-2.052.162-2.727h-1.917c.108.702.162 1.404.162 2.727v2.106h-1.269c-1.026 0-1.647-.027-2.295-.108.081.783.108 1.485.108 2.592v8.505c0 .999-.054 2.187-.135 2.97h1.755c-.081-.729-.081-1.188-.081-2.916v-9.531h1.917v15.282c0 1.458-.027 2.106-.162 2.808h1.917c-.135-.675-.162-1.323-.162-2.808zm4.266-3.753c.702-.108 1.377-.135 2.511-.135h9.18c1.323 0 1.863.027 2.646.162v-1.809c-.648.108-1.35.162-2.646.162h-9.18c-1.161 0-1.89-.054-2.511-.162zm1.674 5.265c0 1.026-.027 1.62-.108 2.322.702-.081 1.485-.108 2.619-.108h6.102c1.161 0 1.863.027 2.565.108-.081-.702-.108-1.269-.108-2.349v-1.269c0-1.08.027-1.593.108-2.322-.648.081-1.35.108-2.457.108h-6.291c-1.161 0-1.836-.027-2.538-.108.081.729.108 1.296.108 2.349zm1.62-2.106h7.803v2.916h-7.803zm-2.727 15.579c0 1.377-.054 2.241-.135 2.997h1.701v-1.296h10.341v1.323h1.782c-.108-.81-.162-1.836-.162-3.078v-6.777c0-1.134.027-1.917.108-2.619-.783.081-1.35.108-2.646.108h-8.424c-1.269 0-1.89-.027-2.673-.108.081.729.108 1.485.108 2.673zm1.566-7.884h4.32v3.267h-4.32zm5.832 0h4.563v3.267h-4.563zm-5.832 4.644h4.32v3.483h-4.32zm5.832 0h4.563v3.483h-4.563z"/><path d="m446.434 74.8096c.405-.081.675-.108 1.161-.135 7.047-.567 10.287-.972 15.174-1.944.648 1.188.918 1.728 1.566 3.213l1.593-1.053c-1.701-3.456-3.861-6.723-6.75-10.314l-1.485.891c1.836 2.214 2.97 3.78 4.239 5.859-1.836.351-2.916.513-5.238.783-.918.108-2.808.297-5.724.567 1.647-3.24 2.997-6.831 4.779-12.501.243-.81.351-1.134.54-1.647l-2.133-.54c-.54 3.726-2.808 10.287-5.13 14.796-.648.054-1.647.081-2.133.081-.378 0-.513 0-.864-.054zm7.695-19.791h-6.885c-1.08 0-1.836-.027-2.7-.135.081.837.108 1.62.108 3.375 0 5.022-.297 8.748-.891 11.259-.432 1.782-1.026 3.186-2.079 4.914.621.405.756.54 1.485 1.296 1.242-2.133 1.944-3.969 2.403-6.345.594-3.105.837-6.507.864-12.771h16.767c1.566 0 2.214.027 2.916.135v-1.89c-.729.108-1.485.162-2.916.162h-7.317v-1.566c0-.81.027-1.215.162-1.755h-2.079c.135.594.162.945.162 1.728z"/><path d="m471.895 54.8566c.054.486.054.567.081 1.593.135 6.642.513 10.098 1.458 12.663.918 2.592 2.322 4.104 3.834 4.104 1.917 0 3.159-1.809 4.482-6.534-.756-.594-.999-.837-1.593-1.539-.351 1.836-.783 3.267-1.404 4.617-.405.891-.864 1.35-1.35 1.35-1.026 0-2.133-1.863-2.727-4.617-.405-1.728-.702-5.427-.702-8.397 0-1.485.054-2.376.189-3.213zm13.662 2.295c3.159 3.672 5.13 8.289 5.616 13.311l1.917-.783c-.486-3.024-.999-4.941-2.025-7.209-.999-2.295-2.106-4.077-3.861-6.156z"/><path d="m510.262 67.0336h7.911v6.102c0 .675-.243.81-1.431.81-.972 0-2.295-.108-3.861-.297.243.675.351 1.134.405 1.755 1.134.081 2.484.135 3.348.135 2.619 0 3.24-.405 3.24-2.106v-18.117c0-1.215.027-1.917.108-2.646-.783.081-1.512.108-2.862.108h-14.526c-1.35 0-2.16-.027-2.97-.108.108 1.161.108 1.674.108 4.401 0 6.669-.243 10.611-.837 13.095-.432 1.836-1.026 3.051-2.187 4.563.702.405.972.594 1.566 1.161 1.809-2.565 2.511-4.779 2.916-8.856h7.398v5.103c0 1.431-.027 2.241-.135 2.943h1.944c-.108-.648-.135-1.512-.135-2.943zm0-7.911v-4.725h7.911v4.725zm-1.674 0h-7.128l.027-1.512v-3.213h7.101zm1.674 1.539h7.911v4.806h-7.911zm-1.674 0v4.806h-7.29c.081-1.242.081-1.35.108-3.024 0-.378 0-1.026.027-1.782z"/><path d="m539.395 59.5546v2.835h-5.454c-1.053 0-1.755-.054-2.376-.162v1.755c.783-.108 1.404-.135 2.349-.135h5.481v5.913c0 .486-.162.594-.918.594-.864 0-1.701-.081-2.646-.27.297.567.459 1.026.594 1.728 1.107.054 1.296.054 1.674.054 2.403 0 2.943-.351 2.943-1.863v-6.156h5.076c.972 0 1.647.027 2.43.135v-1.755c-.675.108-1.377.162-2.43.162h-5.076v-2.835h1.971c.999 0 1.431.027 2.079.135v-1.701c-.621.108-1.053.135-2.133.135h-5.859c-1.08 0-1.539-.027-2.16-.135v1.701c.621-.108 1.134-.135 2.106-.135zm-.243-7.857c-.972 1.377-1.728 2.187-3.051 3.321-1.701 1.458-3.078 2.322-5.346 3.375.486.513.729.837 1.053 1.458 3.564-1.917 5.697-3.645 8.154-6.561 2.403 2.808 4.671 4.59 8.397 6.588.27-.54.648-1.08 1.107-1.566-1.971-.837-3.132-1.485-4.725-2.673-1.674-1.269-2.727-2.295-3.969-3.942zm-3.888 13.284c-1.161 2.16-1.944 3.105-4.023 4.833.675.459.837.594 1.296 1.161 1.863-1.701 2.862-2.943 4.185-5.292zm7.803.756c1.377 2.268 2.403 3.51 4.347 5.319.567-.567.783-.783 1.431-1.188-2.052-1.62-2.97-2.673-4.428-4.887zm-18.036-12.609c1.836 1.755 2.754 2.808 4.158 4.86l1.377-1.215c-1.485-1.917-2.43-2.97-4.293-4.725zm-.27 10.881c.621-.108 1.107-.135 1.971-.135h1.782v6.534c-1.512 1.485-3.213 2.754-4.347 3.267l.891 1.782c.432-.378.702-.621.972-.81 1.485-1.161 2.025-1.647 3.267-2.862.783 1.215 1.674 2.025 2.808 2.565 1.593.756 2.997.918 7.884.918 3.294 0 6.156-.054 8.91-.189.162-.864.216-1.053.621-1.971-2.592.378-5.967.54-11.34.54-3.537 0-5.103-.351-6.642-1.458-.594-.432-.918-.864-1.35-1.782v-5.319c0-1.404.027-1.998.135-2.835-.648.108-1.215.135-2.079.135h-1.404c-.972 0-1.458-.027-2.079-.135z"/><path d="m569.824 59.8786c.999 1.188 1.701 2.295 2.43 3.834l1.377-.702c-.918-1.728-1.458-2.538-2.484-3.78zm2.619-1.269c.999 1.188 1.701 2.295 2.457 3.834l1.35-.702c-.918-1.728-1.458-2.538-2.484-3.78zm-19.035-.351c1.323-.297 3.726-.513 9.315-.891 2.997-.189 4.347-.324 5.94-.594-1.026.486-1.728.864-2.565 1.431-3.213 2.187-5.049 5.157-5.049 8.289 0 2.241 1.08 4.212 2.997 5.508 1.539 1.053 3.159 1.62 5.832 2.079.432.081.54.108.837.162l.351-2.187c-.108 0-.216 0-.27 0-1.026 0-2.727-.378-4.05-.864-2.403-.918-3.78-2.727-3.78-4.995 0-2.241 1.161-4.428 3.321-6.237 1.485-1.269 3.375-2.241 5.184-2.7 1.026-.27 1.944-.378 3.024-.378l-.162-1.998c-.432.108-1.701.216-3.213.297-3.483.135-12.123.648-15.336.891-.837.054-1.161.081-1.539.081-.189 0-.459 0-.972-.027z"/><path d="m596.662 59.4736c1.296 1.404 1.89 2.187 2.727 3.618l1.323-.756c-.891-1.431-1.404-2.106-2.754-3.591zm-10.719 3.942c-2.079 1.755-3.105 3.456-3.105 5.211 0 1.863 1.053 3.24 3.078 4.077 1.323.513 3.618.837 6.21.837 2.376 0 4.941-.216 7.29-.621.459-.081.567-.108.918-.135l-.243-2.214c-1.512.621-4.725 1.026-8.1 1.026-2.133 0-3.915-.189-4.941-.54-1.512-.513-2.295-1.404-2.295-2.646 0-1.269.81-2.511 2.565-3.969zm13.203-5.4c1.296 1.404 1.89 2.187 2.727 3.618l1.323-.756c-.891-1.431-1.404-2.106-2.754-3.591zm-14.823-1.512c.351 0 .405.027.891.081 1.755.216 4.05.351 5.94.351 1.539 0 2.457-.081 4.077-.351-.27.162-.324.162-.513.27-.324.162-.378.189-.675.351-1.215.675-1.863 1.08-3.591 2.241l1.377 1.107c2.646-1.917 5.13-3.402 6.804-4.104l-.135-1.782c-1.485.378-3.672.567-6.831.567-3.078 0-5.211-.189-7.182-.648z"/><path d="m621.718 59.6896h-5.13c-1.161 0-2.025-.054-2.727-.162v1.917c.756-.108 1.701-.162 2.727-.162h5.13v4.59h-3.969c-.864 0-1.431-.027-1.971-.108.081.675.108 1.458.108 2.376v5.184c0 1.134-.027 1.917-.135 2.646h1.836v-1.539h10.449v1.539h1.836c-.081-.567-.135-1.539-.135-2.619v-5.13c0-1.188.027-1.917.108-2.457-.459.081-1.107.108-2.079.108h-4.32v-4.59h5.265c1.107 0 1.971.054 2.754.162v-1.917c-.729.108-1.566.162-2.754.162h-5.265v-4.671c2.592-.486 4.698-.972 6.264-1.431.594-.162.594-.162.891-.243l-1.242-1.62c-.81.432-1.593.702-3.105 1.08-3.78.972-7.668 1.485-11.421 1.539.405.675.54 1.026.702 1.647 2.052-.108 3.861-.297 6.183-.675zm-4.131 7.722h10.449v5.427h-10.449zm-9.45-14.256c2.133 1.431 3.213 2.322 4.698 3.78l1.053-1.431c-1.458-1.35-2.565-2.214-4.644-3.591zm-1.026 6.885c1.971.999 3.186 1.809 4.968 3.348l.945-1.566c-1.917-1.485-2.835-2.052-4.968-3.105zm4.806 6.318c-1.296 3.078-2.295 4.86-3.807 6.804-.324.405-.54.648-.837.918l1.539 1.404c2.214-3.402 3.105-4.995 4.482-8.046z"/><path d="m647.962 67.0336h7.911v6.102c0 .675-.243.81-1.431.81-.972 0-2.295-.108-3.861-.297.243.675.351 1.134.405 1.755 1.134.081 2.484.135 3.348.135 2.619 0 3.24-.405 3.24-2.106v-18.117c0-1.215.027-1.917.108-2.646-.783.081-1.512.108-2.862.108h-14.526c-1.35 0-2.16-.027-2.97-.108.108 1.161.108 1.674.108 4.401 0 6.669-.243 10.611-.837 13.095-.432 1.836-1.026 3.051-2.187 4.563.702.405.972.594 1.566 1.161 1.809-2.565 2.511-4.779 2.916-8.856h7.398v5.103c0 1.431-.027 2.241-.135 2.943h1.944c-.108-.648-.135-1.512-.135-2.943zm0-7.911v-4.725h7.911v4.725zm-1.674 0h-7.128l.027-1.512v-3.213h7.101zm1.674 1.539h7.911v4.806h-7.911zm-1.674 0v4.806h-7.29c.081-1.242.081-1.35.108-3.024 0-.378 0-1.026.027-1.782z"/><path d="m664.675 54.8566c.054.486.054.567.081 1.593.135 6.642.513 10.098 1.458 12.663.918 2.592 2.322 4.104 3.834 4.104 1.917 0 3.159-1.809 4.482-6.534-.756-.594-.999-.837-1.593-1.539-.351 1.836-.783 3.267-1.404 4.617-.405.891-.864 1.35-1.35 1.35-1.026 0-2.133-1.863-2.727-4.617-.405-1.728-.702-5.427-.702-8.397 0-1.485.054-2.376.189-3.213zm13.662 2.295c3.159 3.672 5.13 8.289 5.616 13.311l1.917-.783c-.486-3.024-.999-4.941-2.025-7.209-.999-2.295-2.106-4.077-3.861-6.156z"/><path d="m691.54 58.9336c.243-.027.405-.027.459-.027h.108c1.053.054 1.296.054 2.241.054.999 0 1.323 0 1.863-.027-.999 5.292-3.078 11.448-5.076 14.931l1.971.837c1.431-3.294 2.214-5.346 3.105-8.235.729-2.457 1.485-5.508 1.89-7.641 1.323-.108 3.186-.351 4.563-.648.54-.108.54-.108.756-.135l-.135-1.863c-1.296.432-2.754.702-4.86.918.135-.81.216-1.188.351-2.052.324-1.917.324-1.917.486-2.565l-2.133-.216c0 1.188-.054 1.647-.594 4.968-.783.054-1.08.054-1.62.054-1.431 0-2.511-.081-3.375-.243zm20.385 1.323c-2.025-.081-2.43-.081-2.943-.081-2.268 0-4.023.216-7.155.891l.189 1.836c2.457-.675 4.347-.918 6.75-.918 1.134 0 1.89.054 3.186.189zm-9.828 5.832c-1.431 1.836-1.809 2.673-1.809 3.888 0 2.673 2.295 4.05 6.723 4.05 1.431 0 2.997-.135 4.806-.459.891-.135.891-.135 1.188-.189l-.189-2.025c-1.539.54-3.942.918-5.967.918-3.078 0-4.725-.864-4.725-2.484 0-.648.243-1.35.675-1.917.189-.297.27-.378.81-1.026z"/><path d="m733.579 53.4256c1.107 1.269 1.836 2.322 2.592 3.78l1.377-.756c-.864-1.539-1.323-2.214-2.646-3.753zm-14.742 5.508c.243-.027.405-.027.459-.027h.108c1.053.054 1.296.054 2.241.054.999 0 1.323 0 1.863-.027-.999 5.292-3.078 11.448-5.076 14.931l1.971.837c1.431-3.294 2.214-5.346 3.105-8.235.729-2.457 1.485-5.508 1.89-7.641 1.323-.108 3.186-.351 4.563-.648.54-.108.54-.108.756-.135l-.135-1.863c-1.296.432-2.754.702-4.86.918.135-.81.216-1.188.351-2.052.324-1.917.324-1.917.486-2.565l-2.133-.216c0 1.188-.054 1.647-.594 4.968-.783.054-1.08.054-1.62.054-1.431 0-2.511-.081-3.375-.243zm17.388-6.831c1.134 1.296 1.836 2.322 2.619 3.78l1.35-.756c-.837-1.539-1.323-2.214-2.619-3.753zm2.997 8.154c-2.025-.081-2.43-.081-2.943-.081-2.268 0-4.023.216-7.155.891l.189 1.836c2.457-.675 4.347-.918 6.75-.918 1.134 0 1.89.054 3.186.189zm-9.828 5.832c-1.431 1.836-1.809 2.673-1.809 3.888 0 2.673 2.295 4.05 6.723 4.05 1.431 0 2.997-.135 4.806-.459.891-.135.891-.135 1.188-.189l-.189-2.025c-1.539.54-3.942.918-5.967.918-3.078 0-4.725-.864-4.725-2.484 0-.648.243-1.35.675-1.917.189-.297.27-.378.81-1.026z"/><path d="m753.721 60.5266c.189-.027.324-.027.405-.027.108 0 .243 0 .486.027.972.054 2.511.108 3.267.108 1.188 0 2.754-.054 3.942-.162.054.783.054 1.377.054 2.133 0 4.32-.432 6.291-1.809 8.046-.972 1.242-2.241 2.187-4.131 3.105.702.54.918.756 1.458 1.458 2.079-1.215 3.24-2.16 4.239-3.483 1.593-2.16 2.079-4.374 2.079-9.504 0-.783 0-1.215-.027-1.944 1.08-.135 1.917-.297 2.943-.54.81-.216.864-.216 1.431-.324l-.135-1.944c-.999.486-2.241.837-4.293 1.134-.135-3.753-.135-3.753-.162-4.374-.027-.486-.027-.621-.027-.81 0-.324.027-.486.081-.918l-2.079.027c.135.81.189 1.593.324 6.291-1.35.108-2.349.162-3.429.162-1.998 0-3.564-.108-4.59-.351zm-4.86-7.668c-.027.486-.054.756-.243 1.863-.837 4.995-1.08 7.209-1.08 10.395 0 2.835.324 5.454.999 7.992.135.513.162.594.216.945l1.863-.162c0-.918.216-1.836.756-3.429.54-1.458 1.215-3.132 1.998-4.725l-1.377-.648c-1.539 3.321-1.728 3.807-2.268 5.724 0-.297-.054-.864-.162-1.458-.108-.918-.216-2.916-.216-4.401 0-3.672.783-9.207 1.647-11.772z"/><path d="m794.788 71.8396c-.351-.216-.486-.297-.918-.621-2.835-2.052-5.184-3.294-7.533-3.942-.108-2.619-.108-2.619-.162-4.131 1.998-.135 4.131-.351 5.994-.648.945-.135 1.215-.162 1.566-.189l-.108-1.863c-1.485.513-3.807.837-7.479 1.107-.027-1.431-.027-1.431-.054-3.645 2.997-.189 3.726-.27 6.264-.648 1.404-.189 1.404-.189 1.863-.216l-.135-1.836c-1.485.486-4.266.864-7.992 1.107.027-1.944.081-3.24.189-3.807h-2.079c.108.594.108.594.135 3.888-.891 0-1.809.027-2.349.027-2.943 0-5.751-.216-6.912-.54l-.027 1.836c.162-.027.297-.027.378-.027.135 0 .297 0 .486.027 2.43.189 4.617.27 6.588.27.621 0 1.053 0 1.836-.027l.054 3.699c-.756.027-1.701.027-2.403.027-2.727 0-4.968-.162-6.183-.432l-.027 1.782h.216c.162 0 .378 0 .675.027 1.674.135 2.943.189 4.563.189.864 0 2.214-.027 3.186-.054.027.702.027 1.215.054 1.566.027.783.027 1.35.054 1.593 0 .162.027.27.027.297 0 .243 0 .243.027.324-1.161-.189-1.539-.216-2.43-.216-1.188 0-1.998.081-2.808.27-2.376.54-3.78 1.944-3.78 3.726 0 1.107.54 2.16 1.458 2.835.918.702 2.403 1.08 4.185 1.08 2.133 0 3.78-.594 4.563-1.701.486-.648.675-1.512.675-2.943 0-.351 0-.351-.054-.972.729.297 1.35.567 1.809.81 2.295 1.188 4.266 2.565 5.508 3.861zm-10.179-2.187c0 1.296-.162 2.052-.54 2.43-.513.594-1.539.891-2.97.891-2.349 0-3.699-.81-3.699-2.241s1.755-2.403 4.428-2.403c1.188 0 1.728.054 2.754.297z"/><path d="m813.634 56.0176c-1.836.054-3.942.108-6.534.216-4.347.162-4.347.162-5.13.162-.405 0-.594 0-1.08-.027l.081 1.971c1.809-.297 7.263-.567 12.69-.675v1.404c0 .324.027.594.027.702 0 .999 0 1.107.027 1.485-.702-.783-1.836-1.215-3.132-1.215-2.754 0-4.779 1.89-4.779 4.455 0 2.484 1.836 4.266 4.428 4.266 1.431 0 2.592-.486 3.402-1.458.324-.378.486-.675.729-1.323-.108 2.457-1.053 4.212-3.024 5.697-1.08.81-2.268 1.35-4.374 2.025.567.594.729.837 1.188 1.701 1.971-.756 3.159-1.377 4.266-2.187 2.322-1.755 3.618-4.239 3.618-7.047 0-1.188-.189-2.052-.648-3.186v-5.346c2.187-.054 2.484-.054 2.889-.054 3.213 0 4.158.027 5.157.135v-1.917c-.891.108-2.97.162-8.073.189v-.297c0-2.106.027-2.511.135-3.375h-2.025c.081.567.108.864.108 1.566zm-.081 7.884c0 1.89-1.296 3.186-3.159 3.186-1.647 0-2.781-1.107-2.781-2.673 0-1.62 1.296-2.835 2.997-2.835.729 0 1.296.135 1.809.432.783.432 1.134.999 1.134 1.89z"/><path d="m829.088 67.6546c-2.241 0-4.05 1.809-4.05 4.05s1.809 4.05 4.05 4.05 4.05-1.809 4.05-4.05-1.809-4.05-4.05-4.05zm0 1.539c1.377 0 2.511 1.134 2.511 2.511s-1.134 2.511-2.511 2.511-2.511-1.134-2.511-2.511 1.134-2.511 2.511-2.511z"/></g></svg>