<svg fill="none" height="12" viewBox="0 0 50 12" width="50" xmlns="http://www.w3.org/2000/svg"><g fill="#000"><path d="m4.53577 2.06034h5.76003v.876h.828v-1.56h-7.38003v1.56h.792zm.612 5.304v-.804h1.812v.804zm0-2.172h1.812v.78h-1.812zm4.536 0v.78h-1.848v-.78zm0 2.172h-1.848v-.804h1.848zm-2.724 3.16796h.876v-1.13996h3.50403v-.684h-3.50403v-.732h2.65203v-3.396h-2.65203v-.72h3.00003v-.672h-3.00003v-.828h-.876v.828h-2.964v.672h2.964v.72h-2.592v3.396h2.592v.732h-3.42v.684h3.42zm-3.636-7.31996c-.372-.588-1.2-1.404-1.932-1.956l-.683996.504c.731996.576 1.535996 1.404 1.895996 2.004zm-.36 2.448h-2.363997v.84h1.523997v3.072c-.54.50396-1.151997 1.00796-1.655997 1.37996l.468.852c.587997-.516 1.139997-1.02 1.667997-1.536.744.936 1.824 1.356 3.396 1.416 1.344.06 3.876.036 5.22003-.024.036-.264.18-.672.288-.876-1.44.096-4.20003.132-5.52003.072-1.404-.048-2.46-.456-3.024-1.34396z"/><path d="m21.7678 10.6763h-6.372v-1.63196h6.372zm-5.544-5.44796h4.62v1.38h-4.62zm5.484 2.076v-2.772h-6.324v2.772h2.448c-.072.312-.18.66-.264.96h-3.012v3.65996h.84v-.456h6.372v.444h.876v-3.64796h-4.224c.132-.3.264-.624.384-.96zm-.108-4.452c.384-.432.804-.972 1.164-1.476l-.924-.312c-.276.528-.792 1.272-1.224 1.788h-2.184l.588-.228c-.156-.456-.576-1.176-.936-1.680004l-.78.264004c.336.504.72 1.176.888 1.644h-2.34l.36-.168c-.204-.432-.684-1.092-1.116-1.56l-.756.336c.348.42.744.972.972 1.392h-1.692v2.34h.828v-1.572h8.184v1.572h.852v-2.34z"/><path d="m26.0638 7.77234h3.156c-.324.876-.84 1.968-1.296 2.79596-.648.024-1.248.036-1.764.048l.12.876c2.052-.072 5.16-.204 8.1-.348.228.288.408.564.552.804l.804-.492c-.552-.888-1.716-2.18396-2.82-3.13196l-.756.408c.528.468 1.092 1.056 1.584 1.61996-1.68.072-3.372.132-4.86.18.48-.83996.996-1.87196 1.416-2.75996h5.628v-.828h-9.864zm2.04-3.108v.816h5.676v-.816zm2.304-3.684004c-.924 1.524004-2.916 3.252004-4.968 4.236004.192.18.42.504.516.708 2.04-1.008 3.984-2.652 4.956-4.092 1.116 1.548 3.216 3.144 5.064 4.044.156-.264.372-.576.576-.792-1.884-.78-3.972-2.34-5.232-4.104004z"/><path d="m42.9718 7.74834c-.3-.264-1.356-1.188-1.908-1.632.624-.804 1.176-1.692 1.548-2.616l-.504-.336-.156.036h-1.044v-2.232004h-.876v2.232004h-1.884v.816h3.336c-.828 1.596-2.328 3.108-3.756 3.936.144.168.372.576.468.804.612-.396 1.236-.9 1.836-1.488v4.64396h.876v-4.96796c.54.504 1.2 1.176 1.512 1.524zm3.264 2.95196v-4.97996h2.556v-.864h-2.556v-3.804h-.888v3.804h-2.568v.864h2.568v4.97996h-3.036v.876h6.72v-.876z"/></g></svg>