<svg fill="none" height="13" viewBox="0 0 134 13" width="134" xmlns="http://www.w3.org/2000/svg"><g fill="#000"><path d="m4.99216 10.1442c2.328 0 4.332-1.73996 4.332-4.47596 0-2.724-2.004-4.428-4.332-4.428s-4.332004 1.704-4.332004 4.428c0 2.736 2.004004 4.47596 4.332004 4.47596zm0-.55196c-2.028 0-3.708-1.584-3.708-3.924s1.68-3.876 3.708-3.876c2.016 0 3.708 1.536 3.708 3.876s-1.692 3.924-3.708 3.924zm.096-1.272c.804 0 1.332-.324 1.812-.756l-.396-.576c-.396.336-.792.6-1.368.6-.972 0-1.596-.744-1.596-1.92 0-1.056.648-1.8 1.632-1.8.48 0 .804.204 1.176.552l.456-.528c-.42-.432-.912-.756-1.668-.756-1.296 0-2.472.972-2.472 2.532 0 1.656 1.08 2.652 2.424 2.652z"/><path d="m10.9925 10.0002h5.532v-.94796h-2.436c-.444 0-.984.048-1.44.084 2.064-1.956 3.444-3.744 3.444-5.496 0-1.572-.984-2.604-2.556-2.604-1.116 0-1.872.516-2.592 1.296l.636.624c.48-.576 1.104-1.02 1.824-1.02 1.092 0 1.62.732 1.62 1.74 0 1.512-1.272 3.264-4.032 5.676z"/><path d="m20.9368 10.1562c1.668 0 2.736-1.52396 2.736-4.58396 0-3.048-1.068-4.536-2.736-4.536-1.68 0-2.748 1.476-2.748 4.536s1.068 4.58396 2.748 4.58396zm0-.87596c-1.008 0-1.68-1.116-1.68-3.708 0-2.568.672-3.648 1.68-3.648.996 0 1.668 1.08 1.668 3.648 0 2.592-.672 3.708-1.668 3.708z"/><path d="m25.265 10.0002h5.532v-.94796h-2.436c-.444 0-.984.048-1.44.084 2.064-1.956 3.444-3.744 3.444-5.496 0-1.572-.984-2.604-2.556-2.604-1.116 0-1.872.516-2.592 1.296l.636.624c.48-.576 1.104-1.02 1.824-1.02 1.092 0 1.62.732 1.62 1.74 0 1.512-1.272 3.264-4.032 5.676z"/><path d="m35.2093 10.1562c1.668 0 2.736-1.52396 2.736-4.58396 0-3.048-1.068-4.536-2.736-4.536-1.68 0-2.748 1.476-2.748 4.536s1.068 4.58396 2.748 4.58396zm0-.87596c-1.008 0-1.68-1.116-1.68-3.708 0-2.568.672-3.648 1.68-3.648.996 0 1.668 1.08 1.668 3.648 0 2.592-.672 3.708-1.668 3.708z"/><path d="m46.8291 10.1562c1.188 0 2.16-.43196 2.724-1.01996v-3.696h-2.88v.924h1.86v2.304c-.348.324-.96.516-1.596.516-1.884 0-2.928-1.392-2.928-3.612 0-2.196 1.152-3.564 2.916-3.564.9 0 1.464.372 1.908.84l.6-.72c-.504-.54-1.308-1.092-2.532-1.092-2.328 0-4.032 1.728-4.032 4.572 0 2.856 1.644 4.54796 3.96 4.54796z"/><path d="m53.5306 10.1562c.804 0 1.536-.41996 2.16-.93596h.036l.096.77996h.9v-4.00796c0-1.608-.672-2.676-2.256-2.676-1.044 0-1.968.468-2.568.852l.432.756c.516-.348 1.2-.696 1.956-.696 1.068 0 1.344.804 1.344 1.644-2.772.312-4.008 1.02-4.008 2.436 0 1.176.816 1.84796 1.908 1.84796zm.312-.87596c-.648 0-1.152-.3-1.152-1.044 0-.84.744-1.38 2.94-1.644v1.824c-.636.564-1.152.864-1.788.864z"/><path d="m60.436 10.1562c.288 0 .48-.036.636-.096l-.156-.83996c-.12.024-.168.024-.228.024-.168 0-.312-.132-.312-.468v-8.327998h-1.092v8.255998c0 .924.336 1.45196 1.152 1.45196z"/><path d="m64.6859 10.1562c.804 0 1.536-.41996 2.16-.93596h.036l.096.77996h.9v-4.00796c0-1.608-.672-2.676-2.256-2.676-1.044 0-1.968.468-2.568.852l.432.756c.516-.348 1.2-.696 1.956-.696 1.068 0 1.344.804 1.344 1.644-2.772.312-4.008 1.02-4.008 2.436 0 1.176.816 1.84796 1.908 1.84796zm.312-.87596c-.648 0-1.152-.3-1.152-1.044 0-.84.744-1.38 2.94-1.644v1.824c-.636.564-1.152.864-1.788.864z"/><path d="m70.4393 12.7482h1.092v-2.208l-.024-1.13996c.588.48 1.212.75596 1.8.75596 1.5 0 2.832-1.28396 2.832-3.51596 0-2.004-.912-3.324-2.592-3.324-.756 0-1.488.432-2.076.912h-.036l-.096-.744h-.9zm2.688-3.50396c-.432 0-1.008-.18-1.596-.684v-3.42c.636-.588 1.2-.9 1.752-.9 1.236 0 1.716.972 1.716 2.412 0 1.62-.792 2.592-1.872 2.592z"/><path d="m79.6732 10.1562c.804 0 1.536-.41996 2.16-.93596h.036l.096.77996h.9v-4.00796c0-1.608-.672-2.676-2.256-2.676-1.044 0-1.968.468-2.568.852l.432.756c.516-.348 1.2-.696 1.956-.696 1.068 0 1.344.804 1.344 1.644-2.772.312-4.008 1.02-4.008 2.436 0 1.176.816 1.84796 1.908 1.84796zm.312-.87596c-.648 0-1.152-.3-1.152-1.044 0-.84.744-1.38 2.94-1.644v1.824c-.636.564-1.152.864-1.788.864z"/><path d="m87.6227 13.0002c2.016 0 3.288-1.044 3.288-2.256 0-1.06796-.756-1.54796-2.268-1.54796h-1.272c-.876 0-1.14-.288-1.14-.708 0-.36.18-.576.42-.78.288.144.648.228.972.228 1.32 0 2.376-.876 2.376-2.268 0-.564-.216-1.044-.528-1.344h1.332v-.84h-2.268c-.228-.084-.552-.168-.912-.168-1.32 0-2.448.9-2.448 2.328 0 .78.42 1.404.852 1.752v.048c-.336.24-.732.672-.732 1.212 0 .516.252.864.6 1.068v.048c-.612.39596-.972.92396-.972 1.47596 0 1.128 1.104 1.752 2.7 1.752zm0-5.80796c-.756 0-1.392-.6-1.392-1.548 0-.96.624-1.524 1.392-1.524s1.38.576 1.38 1.524-.636 1.548-1.38 1.548zm.156 5.06396c-1.188 0-1.896-.456-1.896-1.152 0-.384.204-.768.672-1.104.288.072.6.108.84.108h1.128c.864 0 1.332.204 1.332.804 0 .684-.828 1.344-2.076 1.344z"/><path d="m95.0246 10.1562c1.596 0 3.024-1.24796 3.024-3.40796 0-2.172-1.428-3.432-3.024-3.432s-3.024 1.26-3.024 3.432c0 2.16 1.428 3.40796 3.024 3.40796zm0-.91196c-1.128 0-1.884-.996-1.884-2.496s.756-2.52 1.884-2.52 1.896 1.02 1.896 2.52-.768 2.496-1.896 2.496z"/><path d="m101.954 10.1562c1.536 0 2.376-.87596 2.376-1.93196 0-1.236-1.044-1.62-1.992-1.98-.732-.276-1.44-.504-1.44-1.128 0-.504.372-.936 1.188-.936.588 0 1.044.24 1.5.576l.528-.708c-.516-.396-1.224-.732-2.028-.732-1.416 0-2.2441.816-2.2441 1.848 0 1.104 1.0321 1.548 1.9441 1.884.72.276 1.488.576 1.488 1.236 0 .564-.42 1.02-1.284 1.02-.78 0-1.368-.312-1.932-.768l-.5401.72c.6241.516 1.5121.89996 2.4361.89996z"/><path d="m106.139 12.2802c1.08-.456 1.752-1.356 1.752-2.50796 0-.804-.348-1.296-.924-1.296-.444 0-.828.3-.828.768 0 .504.384.76796.804.76796.048 0 .084 0 .132-.012-.012.732-.456 1.308-1.2 1.632z"/><path d="m113.423 10.0002h1.116v-8.79596h-1.116z"/><path d="m117.322 10.0002h1.092v-4.72796c.66-.66 1.116-.996 1.788-.996.864 0 1.236.516 1.236 1.74v3.98396h1.092v-4.12796c0-1.668-.624-2.556-1.992-2.556-.888 0-1.56.492-2.184 1.104h-.036l-.096-.936h-.9z"/><path d="m127.706 10.1562c.78 0 1.524-.29996 2.1-.82796l-.468-.732c-.408.372-.936.648-1.536.648-1.2 0-2.016-.996-2.016-2.496s.864-2.52 2.04-2.52c.528 0 .924.24 1.308.588l.564-.732c-.468-.408-1.056-.768-1.908-.768-1.668 0-3.144 1.26-3.144 3.432 0 2.16 1.332 3.40796 3.06 3.40796z"/><path d="m132.288 10.1562c.432 0 .792-.33596.792-.82796s-.36-.852-.792-.852-.792.36-.792.852.36.82796.792.82796z"/></g></svg>