<svg width="928" height="38" viewBox="0 0 928 38" fill="none" xmlns="http://www.w3.org/2000/svg">
<path d="M31.2002 30.2C27.9202 26.64 24.4802 23.24 20.6002 20.32C23.1202 16.4 23.8802 14.56 25.2402 11.36C25.7202 10.2 26.6002 9.52 27.4002 8.96L24.3202 5.56C23.6002 6.04 23.0002 6.44 22.2402 6.44H5.00018V11.08H20.2402C19.3202 13.36 17.7602 17.4 13.4402 22C8.36018 27.4 3.28018 29.52 0.680176 30.64L4.20017 34.28C11.7202 30.6 14.6802 27.56 17.8802 24C21.1602 26.64 24.0002 29.52 27.6402 34L31.2002 30.2Z" fill="#222222"/>
<path d="M65.8402 11.56L62.8802 8.48C62.2802 8.88 61.5602 9.44 61.0802 9.44H51.8802C52.6802 8.08 53.4402 6.52 53.9202 5.56C54.4802 5.32 54.8402 5.16 54.8402 4.92C54.8402 4.64 54.2802 4.4 54.0402 4.32L49.6402 3.04C47.9202 8.04 44.0802 14.88 38.4402 18.72L42.1602 21.48C44.8002 19.4 46.7602 17.04 49.4002 13.36H59.6402C59.0802 15.36 58.4402 17.2 56.0402 20.76C53.2802 18.88 51.6402 18 49.2402 16.96L46.8002 19.96C49.8402 21.6 51.7202 22.92 53.4002 24.16C50.4002 27.32 47.0002 30.72 40.5202 32.96L44.1202 36.72C50.8402 33.2 53.7202 30.4 56.8002 26.96C58.4802 28.44 59.2402 29.24 59.9202 29.88L62.8802 26.44C61.4802 25.08 60.5202 24.24 59.5202 23.4C62.2002 19.2 63.0002 16.92 64.1202 13.8C64.4402 12.88 65.1202 12.16 65.8402 11.56Z" fill="#222222"/>
<path d="M102.12 22.32V17.24H73.6802V22.32H102.12Z" fill="#222222"/>
<path d="M131.64 22.4C130.04 21 128.56 19.68 125.4 17.6C121.96 15.36 120.64 14.84 118.6 13.96L116.72 16.92V6.4C116.72 6.2 117.76 5.56 117.76 5.32C117.76 4.84 116.92 4.72 116.8 4.68L112 3.84V35.52H116.72V18.24C121.52 20.24 125.52 23.48 128.48 26.24L131.64 22.4Z" fill="#222222"/>
<path d="M169.24 9.44L165.56 5.72C165.32 6 164.68 6.6 164.16 6.6H137.24V10.92H162.28C160.16 14.56 157.48 17.28 155 19.56L158.72 22.72C163.08 18.44 167.28 12.32 169.24 9.44ZM155.4 12.6C155.4 12.28 155.28 12.28 154.44 12.24L149.76 12C150.08 20.32 148.2 26.68 139.76 32.52L144.04 35.04C146.16 33.48 152.92 28.48 154.28 17.04C154.36 16.52 154.52 13.72 154.6 13.64C154.64 13.48 155.12 13.08 155.2 12.96C155.32 12.8 155.4 12.72 155.4 12.6Z" fill="#222222"/>
<path d="M188.52 18.56C188.08 16.92 187.28 14.44 185.8 12.08L182.24 13.44C183.48 15.48 184.4 17.52 185.08 19.92L188.52 18.56ZM199.04 14.28C199.04 14 198.76 13.72 198.24 13.56L194.32 12.36C192.8 23.68 187.36 29.16 179.6 33L182.8 35.84C186.64 33.6 194.72 28.92 197.72 16.64C198.12 15.08 198.16 14.92 198.52 14.72C198.96 14.56 199.04 14.52 199.04 14.28ZM181.44 20.48C180.76 18.24 179.72 16.16 178.36 14.04L174.68 15.44C176 17.48 177.04 19.6 177.72 21.88L181.44 20.48Z" fill="#222222"/>
<path d="M239.08 3.8C239.08 1.72 237.44 0 235.32 0C233.24 0 231.6 1.72 231.6 3.8C231.6 5.92 233.28 7.64 235.32 7.64C237.4 7.64 239.08 5.96 239.08 3.8ZM234.28 10L230.32 6.4C229.92 6.72 229.48 7.04 229 7.04H206.36V11.68H227.68C226.96 13.76 225.72 17.4 222.68 21.48C217.8 28.08 212.12 30.72 209.4 31.96L213.76 35.48C216.52 33.96 221.32 31.28 225.6 25.72C229.4 20.8 231.12 16.24 232.64 12.2C233.04 11.16 233.64 10.56 234.28 10ZM237.52 3.8C237.52 5.16 236.48 6.08 235.32 6.08C234.2 6.08 233.12 5.12 233.12 3.8C233.12 2.52 234.16 1.56 235.32 1.56C236.52 1.56 237.52 2.52 237.52 3.8Z" fill="#222222"/>
<path d="M271.04 11.16H258.48C258.72 8.36 258.76 7.4 258.76 5.72C258.76 5.16 258.76 5.12 259.12 4.76C259.52 4.4 259.56 4.36 259.56 4.16C259.56 3.92 259.52 3.72 258.44 3.64L253.72 3.24C253.84 7.28 253.64 9.48 253.52 11.16H241.92V15.56H252.88C252.52 17.4 251.8 20.68 249.64 24.28C246.52 29.44 242.6 31.68 240.4 32.92L244.44 36.12C246.64 34.72 250.64 32.2 254 26.28C256.48 21.88 257.4 17.6 257.84 15.56H266.04C265.88 21.48 264.84 27.88 263.28 29.96C262.72 30.76 262.16 31.08 260.76 31.08C260.12 31.08 259.28 31 256.68 30.64L258.96 35.8C263.48 35.76 265.52 35.24 267.08 33.16C268.64 31.04 270.8 23.92 271.04 11.16Z" fill="#222222"/>
<path d="M288.76 9.96C286.24 7.88 283 6.16 280.36 5L277.92 8.76C281.12 10.2 283.84 11.92 286.12 13.8L288.76 9.96ZM307.8 14.12L305.04 10.12C303.28 12.52 299.44 17.8 293.32 22.36C286.92 27.16 281.68 28.52 278.48 29.28L281.28 34.08C281.56 34.6 281.92 34.84 282.16 34.84C282.48 34.84 282.56 34.16 282.76 33.6C287.72 31.48 291.52 29.8 297.84 24.68C303.12 20.4 306.24 16.2 307.8 14.12Z" fill="#222222"/>
<path d="M342.2 9.56L338.24 5.96C337.84 6.28 337.4 6.6 336.92 6.6H314.32V11.28H335.6C331.48 23.36 324.36 28.52 317.44 31.76L321.8 35.28C324.2 33.96 328.64 31.56 332.76 26.52C337.08 21.28 339 16.24 340.8 11.56C341.12 10.72 341.48 10.24 342.2 9.56Z" fill="#222222"/>
<path d="M374.28 15.12C373.76 14.8 372.4 13.44 371.16 12.04C370.52 12.6 369.84 12.84 369 12.84H348.4V16.56H368.8C367.6 18.8 365.48 21.44 362.8 23.56L365.72 26.08C369.36 23 372.52 18.72 374.28 15.12ZM363.16 17.92C363.16 17.68 362.8 17.52 362.4 17.48L358.52 17.24C358.52 26.04 356.76 29.76 350.56 34.16L354.28 36.24C360 31.48 361.64 27.76 362.56 18.64C362.84 18.44 363.16 18.24 363.16 17.92Z" fill="#222222"/>
<path d="M409.2 19.32L406.76 14.92C405.04 16.72 401.92 20 397.2 23.16C392.2 26.48 388.96 27.28 387.36 27.68V7.6C387.36 7.44 387.4 7.4 388 6.92C388.36 6.6 388.4 6.52 388.4 6.36C388.4 5.96 387.6 5.84 387.32 5.8L382.56 5.2V31.64L385.28 34.4C393.72 31.68 403.16 26.04 409.2 19.32Z" fill="#222222"/>
<path d="M426.76 9.96C424.24 7.88 421 6.16 418.36 5L415.92 8.76C419.12 10.2 421.84 11.92 424.12 13.8L426.76 9.96ZM445.8 14.12L443.04 10.12C441.28 12.52 437.44 17.8 431.32 22.36C424.92 27.16 419.68 28.52 416.48 29.28L419.28 34.08C419.56 34.6 419.92 34.84 420.16 34.84C420.48 34.84 420.56 34.16 420.76 33.6C425.72 31.48 429.52 29.8 435.84 24.68C441.12 20.4 444.24 16.2 445.8 14.12Z" fill="#222222"/>
<path d="M481.2 30.2C477.92 26.64 474.48 23.24 470.6 20.32C473.12 16.4 473.88 14.56 475.24 11.36C475.72 10.2 476.6 9.52 477.4 8.96L474.32 5.56C473.6 6.04 473 6.44 472.24 6.44H455V11.08H470.24C469.32 13.36 467.76 17.4 463.44 22C458.36 27.4 453.28 29.52 450.68 30.64L454.2 34.28C461.72 30.6 464.68 27.56 467.88 24C471.16 26.64 474 29.52 477.64 34L481.2 30.2Z" fill="#222222"/>
<path d="M518 15.72C517.16 14.76 516.36 13.92 514.68 12.68L513 14.6C514.32 15.56 515.28 16.44 516.32 17.64L518 15.72ZM514.76 19.36C513.76 18.12 512.76 17.28 511.44 16.28L509.8 18.2C511.36 19.4 512.2 20.2 513.08 21.28L514.76 19.36ZM516.08 8.92V4.28C508.52 6.6 496.12 7.56 487.48 7.48L488.16 11.96C492.16 11.4 498.04 10.92 503.4 10.48C502 11.76 500 13.64 498.12 16.56C496.4 19.16 495.4 21.84 495.4 24.52C495.4 27.24 496.44 29.84 498.36 31.72C501.6 34.96 506.08 35.8 508.2 36.16L509.76 31.28C508.12 31.2 505.32 31.08 502.72 29.24C501.6 28.44 499.84 26.8 499.84 24.04C499.84 21 501.76 17.4 504.72 14.44C509.8 9.32 514.2 9.04 516.08 8.92Z" fill="#222222"/>
<path d="M555.56 26.8C555.56 22.68 553.92 19.88 552.92 18.12L549.2 20.08C549.72 20.96 551 23.32 551 26.04C551 30.88 546.96 32.28 543.68 32.28C542.64 32.28 541.08 32.16 539.92 31.08C538.88 30.08 538.64 28.68 538.64 27.56C538.64 26.32 538.96 24.88 539.12 23.88C540.2 23.96 541.16 24.08 542.68 24.08C544.64 24.08 545.88 23.96 546.48 23.92L547.52 19.52C545.84 19.8 544.6 19.84 542.8 19.84C541.36 19.84 541 19.84 540.16 19.72C540.88 17.16 541.36 15.72 541.84 14.36C545.12 14.72 546.36 14.72 547.72 14.68L548.64 10.36C546.32 10.4 545.4 10.4 543.4 10.32C543.96 8.96 544.8 6.84 545.52 5.64C546.16 5.44 546.72 5.56 546.72 5.08C546.72 4.64 546.12 4.44 545.8 4.32L541.2 2.6C540.64 4.64 540.04 6.32 538.84 9.8C535.88 9.24 534.28 8.72 532.04 7.8L531.68 12.44C533.96 13.04 535 13.24 537.48 13.72C536.6 16.32 536.24 17.64 535.84 19.04C534.08 18.72 532.84 18.4 530.44 17.52L529.76 21.92C531.64 22.6 533.32 22.96 534.8 23.24C534.6 24.44 534.32 26.08 534.32 27.76C534.32 35.12 540.12 36.48 544 36.48C549.04 36.48 555.56 33.72 555.56 26.8Z" fill="#222222"/>
<path d="M600 3.56H581.44V7.52H586.68C586.6 8.4 586.48 9.08 586.2 10.32C584.36 9.56 583.64 9.36 583.16 9.2L581.16 12.68C582.56 13.24 583.36 13.6 584.48 14.12C583.6 15.44 582.88 16.28 580.2 18.2L583.4 21.04C585.68 19.28 586.88 17.96 588.16 15.96C588.96 16.36 589.64 16.76 590.6 17.36L591.24 16.32L592.24 19.96C590.96 18.92 590.36 18.56 589.92 18.28L587.32 21.2C588 21.68 588.76 22.2 590.36 23.56L590.2 23.52L586.04 23.36V33.6C586.04 35.48 587.44 36.72 589.48 36.72H594.36C596.04 36.72 596.88 35.84 598.24 31.52L594.12 29C593.96 29.92 593.64 31.16 593.32 31.92C593.16 32.36 592.88 32.76 592.36 32.76H591.36C590.64 32.76 590.4 32.48 590.4 31.72V25.12C590.4 24.92 591.04 24.36 591.08 24.2C591.68 24.72 591.76 24.76 592.52 25.44L594.88 22.32C594.24 21.6 593.24 20.76 592.72 20.32C594.72 20.4 596.84 20.32 597.96 18.56C600.28 14.96 600.04 3.84 600 3.56ZM595.48 7.52C595.36 10 595.04 12.8 594.72 14.48C594.4 16.04 593.92 16.12 593.12 16.12C592.56 16.12 592 16.12 591.4 16L592.88 13.6C592.32 13.28 591.8 12.92 590 12C590.48 10.44 590.68 9.36 590.8 7.52H595.48ZM585.96 26.52C585.96 26.24 585.76 26.12 585.52 26.04L582 24.96C581.36 28.16 579.8 31.88 579.6 32.36V24.08H567.56V36.68H571.36V35.04H575.76V36.2H579.6V33.64L582.92 34.48C584.48 31.44 585.32 27.28 585.36 27.04C585.56 26.96 585.96 26.84 585.96 26.52ZM575.72 31.36H571.36V27.72H575.72V31.36ZM602.32 30.2C601.36 27.88 599.64 25.08 598.24 23.4L595.04 25.28C596.04 26.72 597.76 29.56 598.96 32.52L602.32 30.2ZM578.4 6.6V3.2H568.12V6.6H578.4ZM580.2 11.96V8.48H566.64V11.96H580.2ZM578.64 16.92V13.64H568.12V16.92H578.64ZM578.72 22.12V18.8H568.12V22.12H578.72Z" fill="#222222"/>
<path d="M640.24 22.2C640.24 19.4 639.28 15.8 636.2 13.16C633.56 10.92 630.72 10.48 628.96 10.2C629.36 8.4 629.4 8.12 629.88 5.32C629.88 5.16 630.08 5 630.2 4.92C630.6 4.64 630.76 4.56 630.76 4.36C630.76 3.88 629.84 3.8 629.48 3.76L624.84 3.32C624.84 5.48 624.76 7.12 624.28 10.24C621.64 10.68 620.04 11.2 617.72 12.4C617 9.88 616.64 8.28 616.4 5.88L611.72 7.76C612.24 9.88 612.84 11.88 613.96 15.12C612.44 16.64 608.6 20.44 608.6 26.72C608.6 31.04 610.84 33.56 613.64 33.56C616.28 33.56 619.08 30.76 620.24 29.6C620.84 30.64 621.24 31.24 621.84 32.04L625.16 28.4C624.48 27.52 624.08 26.92 623.32 25.68C625.64 21.64 626.76 18.24 627.96 14.2C632.8 14.76 635.4 18.28 635.4 21.76C635.4 24.12 634.52 26.92 632.16 29.2C629.44 31.76 626.36 32.4 624.56 32.76L627.32 36.6C629.16 36.08 632.36 35.2 635.64 32.04C637.4 30.36 640.24 26.96 640.24 22.2ZM623.4 14.56C622.68 17.12 622.12 18.8 621.04 21.24C620.24 19.52 619.64 18.08 619.08 16.56C621.08 15.28 621.96 14.92 623.4 14.56ZM618.28 25.84C617.72 26.56 616.08 28.6 614.4 28.6C613.32 28.6 612.84 27.52 612.84 26.36C612.84 25.4 613 22.8 615.52 19.4C616.8 22.64 617.44 24.04 618.28 25.84Z" fill="#222222"/>
<path d="M670.24 7.04C667.16 5.2 663.36 3.76 660.68 2.92L658.96 6.88C663.72 8.56 665.64 9.6 668.2 11.24L670.24 7.04ZM677.6 24.88C677.6 19.08 672.92 16.12 668.72 16.12C666.68 16.12 662.48 16.88 658.88 20.16C659.4 17.16 660.24 14.2 661.28 11.36L656.68 9.56C655.8 12.6 653.88 19.4 653.56 24.84L657.04 26.68C661.16 21.88 665.2 20.28 667.96 20.28C670.96 20.28 673 21.92 673 24.48C673 28.16 669.6 32.04 662.16 32.04C660.32 32.04 658.44 31.76 657.16 31.6L659.28 36.52C664.24 36.4 677.6 36.16 677.6 24.88Z" fill="#222222"/>
<path d="M722.04 30.56L720.8 26.08C719.16 28.4 717.64 29.12 716.52 29.12C715.44 29.12 715.04 28.68 715.04 26.48C715.04 25.68 715.08 24.36 715.44 20.84C715.96 15.48 716 15.04 716 14.32C716 11.16 713.6 9.52 711.6 9.52C708.92 9.52 705.12 13.08 703.56 14.52L704.44 12.76L701.88 10.32C702 7.28 702.08 5.36 702.28 5.04C702.4 4.92 703 4.4 703 4.28C703 3.92 702.64 3.88 702 3.8L698.04 3.36L697.88 11.96C696.44 12.52 693.96 13.4 690.68 13.88L692.64 18.2C694.64 17.56 695.72 17.16 697.84 16.4L697.76 19.92C694.96 24.12 692.88 26.64 690.16 29.12L694.32 31.92C695.72 29.72 696.4 28.76 697.64 27.04L697.52 36.28L702 36.04C701.76 31.36 701.76 27.2 701.72 21.64C704.52 18.2 707.6 14.36 709.88 14.36C711.24 14.36 711.44 16 711.44 17.04C711.44 18.72 710.72 26.16 710.72 27.68C710.72 28.68 710.72 34.24 715.36 34.24C718 34.24 720.2 32.52 722.04 30.56Z" fill="#222222"/>
<path d="M761.2 20.44V16.2C760 16.08 758.72 15.96 755.92 15.96C753.8 15.96 751.8 16.08 749.72 16.24V20.44C750.68 20.32 753.16 20 755.72 20C756.32 20 758.2 20.04 761.2 20.44ZM752.16 12.4V7.96C750.56 8.72 748.16 9.8 745.8 10.32C746.08 9.2 746.4 7.76 746.76 5.96C746.84 5.56 746.92 5.52 747.44 5.28C747.8 5.12 747.92 5 747.92 4.72C747.92 4.28 747 4.08 746.92 4.08L742 2.92C741.92 5.6 741.24 8.68 740.64 11.4C739.76 11.6 737.24 11.64 736.68 11.64C734.72 11.64 733.88 11.48 733.44 11.4L733.76 15.56C735.16 15.52 736.52 15.48 739.72 15.08C736.56 25.92 734 30.24 731.6 34.12L736.48 35.6C740.68 27.4 742.76 20.96 744.72 14.32C749.12 13.48 750.8 12.84 752.16 12.4ZM761.84 35.28L761.44 30.64C760.28 30.92 758.12 31.52 754.4 31.52C753.48 31.52 750.44 31.48 749.32 30.44C748.92 30.08 748.84 29.76 748.84 29.24C748.84 29.16 748.84 28.52 749 27.76L745.04 26.92C744.56 28.32 744.56 29.6 744.56 29.8C744.56 33.88 747.64 35.88 754.84 35.88C757.64 35.88 759.8 35.64 761.84 35.28Z" fill="#222222"/>
<path d="M795.4 32.84V25H779.96V34.32H784V32.84H795.4ZM803.16 34.28V20.04H771.84V37H776.32V23.24H798.64V32.24C798.64 33.48 798.36 33.56 797.12 33.56C796.64 33.56 795.4 33.48 795.08 33.48L796.88 37.52H799.04C801.6 37.52 803.16 36.12 803.16 34.28ZM791.32 29.84H784V27.68H791.32V29.84ZM797.16 18.44V10.48H777.84V18.44H797.16ZM792.72 15.6H782.32V13.36H792.72V15.6ZM804.48 8.88V5.32H790.12V4.2C790.12 4.04 790.24 3.92 790.52 3.72C790.76 3.6 790.96 3.44 790.96 3.24C790.96 2.88 790.16 2.84 790 2.84L785.16 2.44V5.32H770.6V8.88H804.48Z" fill="#222222"/>
<path d="M845.12 24.8C844.04 15.56 840.48 10.52 838.56 7.8L834.44 9.8C836.52 13 839.16 17.72 840.32 26.04L845.12 24.8ZM827.48 24.2L824.16 21.24C823.4 23.16 821.76 27.4 820.32 27.4C819.52 27.4 817.6 25.96 817.6 18.16C817.6 13.76 817.92 11.44 818.36 9.24C819.04 9 819.52 8.84 819.52 8.4C819.52 7.92 818.88 7.72 818.6 7.64L814.2 6.44C813.56 9.12 813 11.72 813 16.84C813 24.44 814.28 29.12 817.08 31.84C817.76 32.48 818.76 33.16 820.04 33.16C823.28 33.16 825.28 28.92 827.48 24.2Z" fill="#222222"/>
<path d="M885.72 14.44V6H871.72V4.64C871.72 4.4 872.04 4.16 872.12 4.12C872.36 3.92 872.48 3.8 872.48 3.64C872.48 3.36 872.24 3.28 871.56 3.24L866.76 2.84V6H852.8V14.64H856.92V9.56H866.6C866.68 11 866.68 11.08 866.68 12.6H858.72V15.88H866.72V17.88H856.16V21.32H866.6C866.56 21.88 866.48 22.44 866.24 23.4H852.8V26.84H864.8C862.68 29.76 860.16 32.12 852.36 33.12L854.92 36.72C857.36 36.24 860.28 35.68 863.4 33.92C866.6 32.12 867.84 30.2 868.92 28.52C870.24 30.2 871.6 31.96 874.84 33.88C878.44 36.04 880.96 36.48 883.28 36.88L885.36 33C882.92 32.52 879.6 31.88 876.44 30.16C874.16 28.88 873.52 28 872.72 26.84H885.56V23.4H870.84C871 22.48 871.08 22.12 871.2 21.32H882.08V17.88H871.4V15.88H879.48V12.6H871.4V9.56H881.56V14.44H885.72Z" fill="#222222"/>
<path d="M928 33.56C924.8 32.84 923.6 32.4 921.44 30.96H925.4V17.44H907.88V30.96H912.16C910.12 32.48 908.64 33.16 905.52 33.8L907.68 37.32C909.24 36.84 911.36 36.2 914.96 34.08C915.2 34.2 915.56 34.32 915.8 34.32C915.92 34.32 916.24 34.32 916.24 33.88C916.24 33.6 916.08 33.4 915.96 33.24L914.12 30.96H919.08L917.64 33.44C920.76 35.32 922.64 36.04 925.92 36.96L928 33.56ZM921.2 24.76H912.04V23.4H921.2V24.76ZM921.2 21.24H912.04V19.96H921.2V21.24ZM921.2 28.32H912.04V26.92H921.2V28.32ZM927.28 16.16V13.16H918.52V11.72H924.72V8.8H918.52V7.52H926.56V4.52H918.52C918.52 3.88 918.52 3.8 918.84 3.56C918.96 3.44 919.12 3.28 919.12 3C919.12 2.72 918.88 2.56 917.88 2.52L913.88 2.4V4.52H905.68V7.52H913.88V8.8H907.76V11.72H913.88V13.16H905.32V15.84C904.92 15 904.68 14.64 904.56 14.44L901.32 15.72C901.68 16.48 901.88 16.92 902.24 17.8C901.68 17.84 900.24 17.88 899.28 17.88C901.12 15.24 901.44 14.68 904.56 9.8C904.76 9.48 904.84 9.48 905.68 9.4C905.84 9.36 906.16 9.32 906.16 8.92C906.16 8.56 905.52 8.2 905.28 8.08L902.08 6.44C901.36 8.28 900.24 10.16 899.48 11.36C898.84 10.76 898.8 10.72 898.32 10.24C899.36 8.72 900.08 7.48 901 5.96C901.36 5.32 901.44 5.24 902.12 5.16C902.28 5.12 902.56 5.08 902.56 4.72C902.56 4.36 901.92 4.08 901.64 3.96L898.48 2.48C897.36 5.08 896.56 6.48 895.6 8C895.4 7.84 894.6 7.2 894.44 7.08L892.04 10.24C894.16 11.84 895.32 13 897.24 14.84C896.84 15.4 896.08 16.52 895.28 17.76C894.44 17.76 894.08 17.76 892.56 17.72L892.8 21.24C892.84 21.92 892.84 22.56 893.44 22.56C893.8 22.56 893.96 22.4 894.4 21.96C894.56 21.8 895.2 21.8 895.68 21.76C895.96 21.72 896.76 21.68 897.72 21.6V36.92H901.76V21.2C902.2 21.16 903.08 21.04 903.44 21C903.64 21.56 903.76 22 903.96 22.72L907.64 21.28C906.8 18.92 906.36 18.04 905.48 16.16H927.28ZM907 30.36C906.16 27.6 905.88 25.88 905.64 23.4L902.24 24.16C902.4 25.96 902.68 28.4 903.56 31.44L907 30.36ZM897.24 24.12C897.24 23.72 896.96 23.6 896.16 23.52L893.28 23.24C893.12 26.36 892.68 29.48 891.72 32.48L895.36 33.08C896.2 29.68 896.32 27.92 896.48 25.24C896.52 24.88 896.56 24.84 897.04 24.44C897.12 24.36 897.24 24.28 897.24 24.12Z" fill="#222222"/>
</svg>
