<svg fill="none" height="65" viewBox="0 0 876 65" width="876" xmlns="http://www.w3.org/2000/svg"><g fill="#333"><path d="m157.351 5.30468c-1.485.513-3.186.864-5.508 1.161v-2.592c0-1.242.027-1.755.135-2.511h-1.998c.108.81.135 1.485.135 2.565v2.673c-.81.054-1.863.081-2.592.081-1.215 0-1.971-.054-2.754-.189v1.782h.486.621c.297.027 1.026.027 1.431.027.783 0 1.242 0 1.728-.027.837-.054.837-.054 1.08-.081v5.10302c-1.701.729-2.808 1.377-3.807 2.214-1.458 1.242-2.133 2.403-2.133 3.591 0 .972.405 1.809 1.242 2.538 1.188 1.053 2.943 1.728 4.455 1.728 1.323 0 1.971-.702 1.971-2.16v-6.75c2.268-.729 3.996-1.053 5.724-1.053 3.537 0 5.778 1.647 5.778 4.293 0 2.214-1.512 3.807-3.618 3.807-1.971 0-2.781-1.161-2.781-3.969 0-.324 0-.567.054-1.053-.675.378-.945.486-1.782.702-.027 1.35.081 2.16.324 3.051.513 1.944 2.025 3.051 4.158 3.051 3.105 0 5.508-2.43 5.508-5.589 0-1.998-.999-3.726-2.781-4.779-1.242-.756-2.862-1.134-4.779-1.134-1.809 0-3.456.27-5.805.972v-4.67102c1.269-.135 2.565-.351 4.779-.81.378-.081.486-.108.81-.162zm-7.236 14.90402c0 1.161-.081 1.323-.621 1.323-.702 0-1.674-.324-2.403-.783-.783-.513-1.161-1.053-1.161-1.62 0-1.296 1.512-2.754 4.185-4.05zm16.227-11.42102c-1.62-2.079-2.97-3.375-5.454-5.13l-1.404 1.053c2.106 1.431 4.023 3.294 5.454 5.29202z"/><path d="m175.036 22.6657c0 .783-.054 1.539-.162 2.322h1.836v-1.053h11.853v1.053h1.863c-.108-.756-.162-1.404-.162-2.322v-3.726c0-.675.027-1.053.054-1.647 1.485.459 2.079.621 3.807 1.053.216-.756.405-1.134.81-1.809-4.401-.729-7.533-1.782-10.827-3.672 1.62-1.161 3.456-2.754 4.968-4.32002.243-.27.297-.324.486-.513l-.999-.972c-.675.081-1.35.108-2.457.108h-5.886c.513-.594.513-.594.648-.756.135-.189.243-.297.297-.378.162-.216.189-.216.351-.378l-1.755-.621c-.486.999-1.836 2.646-3.078 3.753-1.62 1.43102-2.97 2.29502-5.292 3.40202.567.459.756.675 1.161 1.296 2.511-1.458 3.618-2.241 5.184-3.72602 1.242 1.32302 2.187 2.13302 3.564 3.10502-3.456 2.052-6.804 3.267-11.097 4.023.405.486.648.918.891 1.593 1.863-.459 2.538-.648 3.888-1.107.027.54.054.999.054 1.566zm3.942-14.12102h7.911c-1.836 1.72802-2.673 2.43002-4.185 3.45602-1.755-1.188-2.781-2.05202-3.915-3.26702zm-1.674 8.37002c-.459 0-.648 0-.999 0 2.808-1.08 4.347-1.836 6.399-3.105 2.241 1.404 3.888 2.187 6.453 3.078-.432.027-.648.027-1.242.027zm-.594 1.458h11.853v4.077h-11.853zm4.752-15.09302h-7.344c-1.053 0-1.89-.027-2.862-.135.081.594.108 1.107.108 1.863v1.512c0 .81-.027 1.242-.108 1.89h1.728v-3.645h19.035v3.672h1.755c-.081-.567-.108-1.08-.108-1.89v-1.539c0-.81.027-1.296.108-1.863-.999.108-1.782.135-3.024.135h-7.56v-.702c0-.648.081-1.404.189-1.944h-2.079c.108.756.162 1.296.162 1.944z"/><path d="m212.512 5.84468v2.322h-3.051c-1.107 0-1.62-.027-2.295-.135v1.755c.729-.108 1.161-.135 2.349-.135h2.997v2.43002h-4.185c-1.053 0-1.701-.027-2.349-.108v1.674c.621-.108 1.296-.135 2.322-.135h4.212v3.888c-3.024 2.106-5.697 3.537-7.722 4.104l.783 1.782c.324-.243.81-.513 1.215-.729 3.132-1.674 3.24-1.728 5.724-3.483v3.807c0 .486-.162.594-.945.594s-1.674-.081-2.673-.243c.297.567.405.999.486 1.701.756.081 1.485.108 2.214.108 2.025 0 2.538-.378 2.538-1.836v-5.076c0-.513-.027-.999-.216-2.673 1.242 2.7 2.052 3.942 3.564 5.508 1.161 1.188 2.295 2.079 3.969 3.105.378-.675.675-1.08 1.134-1.566-2.187-1.053-3.618-2.106-5.13-3.78 1.296-1.134 2.106-1.998 3.375-3.672l-1.377-.972c-.999 1.566-1.728 2.403-2.943 3.483-1.026-1.377-1.485-2.214-2.214-4.05h5.157c.918 0 1.728.054 2.43.162v-1.755c-.729.108-1.458.162-2.457.162h-5.292v-2.43002h4.104c1.107 0 1.701.027 2.43.135v-1.782c-.675.108-1.35.162-2.457.162h-4.077v-2.322h4.914c1.026 0 1.728.054 2.457.162v-1.755c-.729.108-1.458.162-2.457.162h-2.376c.405-.648 1.296-2.214 1.728-3.078l-1.593-.566999c-.486 1.322999-.972 2.294999-1.836 3.644999h-3.132c-.513-1.296-1.053-2.268-1.944-3.591l-1.431.621c.864 1.161 1.323 1.944 1.755 2.97h-1.431c-1.08 0-1.728-.027-2.376-.135v1.701c.702-.108 1.215-.135 2.349-.135zm-10.8.162h-1.674c-.891 0-1.431-.027-1.89-.108v1.674c.486-.081 1.053-.108 1.89-.108h1.404c-.297 1.377-.837 3.05102-1.512 4.64402-.756 1.782-1.512 3.051-2.538 4.266.513.648.756 1.053 1.026 1.674.81-1.215 1.215-1.89 1.782-3.051.81-1.755 1.134-2.7 1.728-5.21102-.027.45902-.054.78302-.054.99902-.027.675-.054 1.161-.081 1.323-.081 1.296-.081 1.296-.081 2.376v7.641c0 1.404-.054 2.349-.162 3.132h1.944c-.108-.729-.162-1.674-.162-3.132v-8.181c0-.945-.027-2.133-.108-4.40102.54 1.51202.945 2.43002 1.755 3.78002.324-.567.594-.999.945-1.458-1.107-1.35-2.052-3.02402-2.511-4.40102h.972c.648 0 1.188.027 1.701.081v-1.647c-.513.081-.918.108-1.701.108h-1.053v-2.646c0-1.35.027-2.106.135-2.781001h-1.89c.108.621001.135 1.242001.135 2.808001zm4.833 8.96402c1.134 1.188 1.701 1.944 2.538 3.321l1.242-.891c-.864-1.296-1.512-2.106-2.565-3.267z"/><path d="m234.031 9.16568h.108c.054 0 .135 0 .27.027.054 0 .216 0 .459.027.108 0 .405 0 .864.054.945.054 1.944.081 3.051.081 1.026 0 1.863-.027 3.078-.081.081 3.94202.189 6.48002.27 7.04702-.621-.324-1.89-.54-2.997-.54-2.997 0-5.13 1.593-5.13 3.834 0 2.349 1.971 3.834 5.103 3.834 2.214 0 3.861-.837 4.509-2.268.216-.486.324-1.134.324-1.836 0-.243 0-.297-.054-.702.135.081.135.081.243.162.162.108.162.108.27.162 1.917 1.107 2.997 1.863 3.834 2.808l.837-1.89c-.297-.189-.351-.243-.675-.459-1.782-1.323-2.538-1.755-4.509-2.646-.216-3.591-.27-4.968-.297-7.64102 1.404-.162 2.16-.27 2.862-.432 1.836-.378 1.836-.378 1.89-.378l-.081-1.836c-1.026.432-2.592.756-4.671.999-.027-.594-.027-1.026-.027-1.323 0-2.241.054-3.51.189-4.239h-2.025c.054.27.081.648.081 1.107 0 2.052 0 2.052.027 4.59-1.107.054-1.836.081-2.889.081-2.376 0-3.537-.108-4.86-.432zm8.127 8.80202s.027.621.027.81c0 1.053-.162 1.701-.513 2.106-.513.594-1.566.945-2.754.945-1.89 0-3.132-.864-3.132-2.187 0-1.35 1.377-2.241 3.483-2.241 1.08 0 1.782.135 2.889.567zm-12.906-16.06502c-.027.351-.054.513-.297 1.701-1.053 4.671-1.404 7.50602-1.404 11.09702 0 2.727.27 5.508.756 8.019.108.621.135.756.162.999l1.917-.189c-.054-.378-.054-.405-.054-.54 0-1.593 1.053-5.022 2.322-7.668l-1.323-.621c-.054.189-.108.297-.216.54-.918 2.214-1.107 2.727-1.593 4.752l-.108-.027c0-.27 0-.27 0-.513-.027-.486-.027-.54-.027-.756-.054-1.242-.108-2.835-.108-3.78 0-4.428.918-9.96302 2.079-12.66302z"/><path d="m259.384 4.60268c0-1.161.027-1.566.135-2.268h-2.214c.081.675.108 1.134.108 2.241v12.44702c0 1.107.027 1.647.054 2.106.135 1.269.459 2.052 1.107 2.592.945.783 2.727 1.107 5.913 1.107 1.863 0 5.427-.189 7.155-.378 2.025-.216 2.025-.216 2.538-.27l-.162-2.133c-.999.27-1.512.378-2.673.54-2.106.27-4.509.432-6.183.432-1.08 0-2.349-.054-3.186-.162-1.107-.135-1.701-.351-2.052-.702-.459-.459-.567-1.08-.567-2.97 0-.108 0-.216 0-.324.027-.081.027-.135.027-.162v-3.942c4.968-.918 8.667-2.241 13.014-4.59002.675-.378.729-.405 1.161-.594l-1.377-1.809c-2.052 1.89-8.262 4.42802-12.798 5.21102z"/><path d="m302.746 3.17168c-.486.189-.486.189-2.295.189h-14.499c-1.539 0-2.295-.054-3.213-.189v2.079c.999-.108 1.701-.135 3.186-.135h15.336c-.783 1.539-1.782 2.862-3.024 4.023-1.269 1.18802-2.376 1.83602-4.266 2.56502.702.621.918.864 1.323 1.539 3.51-1.62 6.021-4.07702 7.884-7.69502.324-.648.378-.729.648-1.08zm-11.772 4.698c.081.513.108.702.108 1.458 0 5.26502-1.053 8.01902-3.915 10.31402-1.404 1.161-2.754 1.836-4.941 2.484.648.675.837.945 1.242 1.809 3.267-1.242 5.265-2.592 6.912-4.671 1.836-2.322 2.592-4.995 2.673-9.50402.027-1.404.027-1.404.108-1.89z"/><path d="m313.087 2.25368c.081.648.108 1.107.108 2.268v7.20902c0 1.08-.027 1.647-.108 2.268h2.241c-.081-.648-.108-.945-.108-2.241v-7.26302c0-1.242.027-1.593.108-2.241zm11.934 0c.081.594.108.972.108 2.376v3.051c0 4.10402-.081 5.34602-.378 6.88502-.513 2.511-1.809 4.239-4.32 5.697-1.404.837-2.7 1.296-5.13 1.836.675.81.837 1.08 1.134 1.863 2.295-.675 3.591-1.188 4.914-1.944 2.646-1.485 4.347-3.456 5.13-5.994.486-1.566.675-3.942.675-8.23502v-3.186c0-1.296.027-1.728.135-2.349z"/><path d="m338.494 5.46668c2.349 1.431 4.482 3.186 6.426 5.29202l1.404-1.67402c-1.944-1.917-3.618-3.24-6.507-5.076zm.189 17.55002c.675-.216.891-.27 1.62-.432 4.509-1.026 7.29-2.133 10.071-4.023 3.564-2.457 6.075-5.616 8.235-10.31402-.756-.513-1.026-.756-1.647-1.593-2.187 5.72402-5.805 9.69302-11.016 12.01502-2.511 1.161-5.751 1.998-7.857 2.079z"/><path d="m372.568 1.25468c-.135.918-.675 2.16-1.701 3.915-1.863 3.294-3.915 5.53502-6.777 7.42502.783.486 1.053.702 1.512 1.377 2.646-1.971 4.806-4.34702 6.453-7.02002l9.099-.135c-.945 3.37502-2.565 6.53402-4.644 9.01802-2.592 3.132-5.454 5.184-9.531 6.831.702.567.918.81 1.35 1.593 3.942-1.755 6.912-3.915 9.396-6.75 2.268-2.592 4.212-6.237 5.292-9.85502.297-.972.297-.999.54-1.323l-1.458-1.404c-.351.162-.432.162-1.377.189l-6.804.108c-.486 0-.702.027-.972.081.297-.459.54-.918 1.242-2.376.351-.756.351-.756.594-1.107zm12.15-.108c1.134 1.377 1.809 2.484 2.484 3.915l1.35-.729c-.864-1.647-1.377-2.43-2.484-3.833999zm-2.457 1.161c1.134 1.404 1.809 2.484 2.484 3.915l1.35-.729c-.864-1.62-1.377-2.43-2.484-3.834z"/><path d="m395.383 3.98168c1.971.675 4.779 2.187 6.642 3.564l1.107-1.809c-2.295-1.431-4.05-2.322-6.696-3.402zm-2.133 6.45302c2.457.918 4.914 2.268 6.885 3.699l1.053-1.809c-2.349-1.485-4.293-2.48402-6.858-3.53702zm.918 12.933c.405-.135.513-.189 1.053-.297s1.026-.216 1.458-.297c2.214-.459 4.941-1.377 6.831-2.322 4.752-2.349 8.046-6.021 10.395-11.63702-.729-.486-.999-.729-1.674-1.431-.837 2.376-1.728 4.07702-3.24 6.04802-2.187 2.835-4.752 4.752-8.1 6.021-2.7 1.026-5.508 1.674-7.263 1.674z"/><path d="m419.251 13.8367c.81-.081 1.377-.108 3.348-.108h15.66c1.809 0 2.43.027 3.294.108v-2.187c-.837.108-1.269.135-3.267.135h-15.687c-1.836 0-2.565-.027-3.348-.162z"/><path d="m454.756 23.9347c-.108-.756-.135-1.35-.135-2.862v-8.127c0-.675-.027-1.053-.108-1.593l.054-.027c.243.189.432.297.837.459 3.807 1.566 7.533 3.564 10.071 5.346l1.161-1.998c-4.725-2.727-7.857-4.212-12.015-5.69702v-5.049c0-1.539.027-2.106.135-2.808h-2.322c.108.675.162 1.323.162 2.754v16.76702c0 1.458-.054 2.106-.162 2.835z"/><path d="m481.351 4.92668c-2.754 0-4.806-.108-5.778-.297l-.027 1.863c.297-.027.351-.027.594-.027h.432c.999.027 3.537.081 3.969.081.135 0 .405-.027.513-.054-.162.27-.162.27-.243.405-1.944 3.45602-4.185 6.29102-6.048 7.72202l1.512 1.512c.432-.729 1.026-1.35 2.079-2.241 2.187-1.863 4.32-2.862 6.021-2.862 1.269 0 1.917.648 2.133 2.133-1.809.783-3.105 1.485-4.023 2.16-1.836 1.377-2.754 2.781-2.754 4.266 0 2.781 2.349 4.158 7.182 4.158 2.079 0 4.428-.189 6.561-.54.54-.081.675-.108 1.08-.135l-.243-2.079c-1.539.621-4.536 1.053-7.209 1.053-3.807 0-5.481-.783-5.481-2.565 0-1.62 1.404-2.889 5.076-4.617.027.324.027.378.027.81 0 1.647-.081 3.294-.162 3.888l1.836-.027c-.054-.378-.054-.594-.054-.972 0-.243 0-.621.027-1.215.027-.54.027-1.134.027-1.485 0-.675 0-.945-.054-1.647 3.375-1.323 5.805-2.133 7.209-2.376l-.864-1.89002c-.432.29702-.513.32402-1.836.78302-1.188.432-2.727.999-4.698 1.782-.351-1.998-1.566-2.99702-3.564-2.99702-1.404 0-2.835.459-4.077 1.32302-.27.189-.27.189-1.242.945-.027-.027-.027-.027-.054-.081 0 0 0 0 0-.027 0 0 .027 0 .027-.027.027-.027.162-.135.351-.27.108-.081.648-.702.918-1.026.945-1.16102 1.62-2.24102 2.43-3.83402 3.267-.108 6.102-.324 8.91-.702.486-.081.648-.108 1.08-.135l-.162-1.836c-1.485.486-4.185.81-8.505 1.026-.243 0-.243 0-.567.027.135-.243.486-.972.837-1.836.459-1.107.459-1.107.702-1.458l-2.16-.378c-.081.864-.405 1.809-1.296 3.699z"/><path d="m502.087 3.30668c.648-.081 1.188-.108 2.052-.108h4.239c.864 0 1.458.027 2.052.108v-1.701c-.675.108-1.08.135-2.052.135h-4.239c-.972 0-1.404-.027-2.052-.135zm-.945 3.807c.648-.081 1.215-.108 2.16-.108h6.237c.972 0 1.431.027 1.971.108v-1.755c-.567.108-1.053.135-2.16.135h-6.048c-1.026 0-1.539-.027-2.16-.135zm1.053 3.78002c.567-.081 1.053-.108 1.944-.108h4.482c.864 0 1.269.027 1.917.108v-1.67402c-.513.081-.999.108-1.917.108h-4.482c-.945 0-1.377-.027-1.944-.108zm0 3.699c.567-.081 1.08-.108 1.944-.108h4.482c.864 0 1.188.027 1.917.108v-1.674c-.54.081-.972.108-1.917.108h-4.482c-.945 0-1.377-.027-1.944-.108zm1.89 10.638v-1.701h4.86v1.35h1.674c-.081-.648-.135-1.377-.135-2.133v-3.888c0-.999.027-1.512.081-2.106-.486.081-.783.081-1.944.081h-4.104c-.837 0-1.458-.027-2.16-.108.108.702.135 1.323.135 2.241v3.645c0 1.107-.054 1.836-.162 2.619zm-.027-7.02h4.887v3.915h-4.887zm10.476-6.237h6.642c1.134 0 1.809.027 2.646.108-.081-.729-.108-1.431-.108-2.51102v-5.13c0-1.485.027-1.944.081-2.646-.783.081-1.431.108-2.565.108h-6.534c-.945 0-1.728-.054-2.484-.162v1.89c.729-.108 1.377-.135 2.484-.135h7.317v6.93902h-6.777c-1.107 0-1.836-.027-2.619-.108.108.756.135 1.323.135 2.592v9.072c0 1.215.297 1.674 1.134 1.944.81.216 2.106.324 4.428.324 3.753 0 5.076-.243 5.724-1.107.567-.729.891-2.106 1.188-4.725-.54-.135-1.215-.459-1.809-.81-.135 2.565-.405 3.942-.81 4.374-.513.486-1.404.621-4.212.621-1.539 0-2.7-.054-3.159-.162-.567-.135-.702-.297-.702-.837z"/><path d="m539.752 3.98168c-.135 2.7-.351 4.05-.864 5.886-.837 2.88902-2.214 5.48102-4.158 7.85702-1.782 2.16-3.321 3.483-6.264 5.319.675.486 1.026.891 1.458 1.593 1.701-1.161 2.403-1.728 3.402-2.646 1.404-1.296 2.646-2.673 3.645-4.104 1.836-2.592 2.943-5.157 3.78-8.74802.486 2.10602.891 3.29402 1.701 4.99502.918 1.998 2.295 4.05 3.861 5.832 1.62 1.863 2.889 2.97 5.238 4.617.594-.918.783-1.107 1.512-1.728-2.43-1.485-3.456-2.295-5.049-3.915-1.674-1.755-2.997-3.564-4.05-5.589-1.566-2.997-2.295-6.02102-2.295-9.42302 0-.594.027-1.107.108-1.782-.54.108-1.215.162-2.511.162h-3.564c-.972 0-1.512-.027-2.052-.135v1.944c.891-.081 1.539-.135 2.052-.135z"/><path d="m558.274 3.95468c.054.486.054.567.081 1.593.135 6.64202.513 10.09802 1.458 12.66302.918 2.592 2.322 4.104 3.834 4.104 1.917 0 3.159-1.809 4.482-6.534-.756-.594-.999-.837-1.593-1.539-.351 1.836-.783 3.267-1.404 4.617-.405.891-.864 1.35-1.35 1.35-1.026 0-2.133-1.863-2.727-4.617-.405-1.728-.702-5.427-.702-8.39702 0-1.485.054-2.376.189-3.213zm13.662 2.295c3.159 3.672 5.13 8.28902 5.616 13.31102l1.917-.783c-.486-3.024-.999-4.941-2.025-7.209-.999-2.29502-2.106-4.07702-3.861-6.15602z"/><path d="m585.139 8.03168c.243-.027.405-.027.459-.027h.108c1.053.054 1.296.054 2.241.054.999 0 1.323 0 1.863-.027-.999 5.29202-3.078 11.44802-5.076 14.93102l1.971.837c1.431-3.294 2.214-5.346 3.105-8.235.729-2.457 1.485-5.508 1.89-7.64102 1.323-.108 3.186-.351 4.563-.648.54-.108.54-.108.756-.135l-.135-1.863c-1.296.432-2.754.702-4.86.918.135-.81.216-1.188.351-2.052.324-1.917.324-1.917.486-2.565l-2.133-.216c0 1.188-.054 1.647-.594 4.968-.783.054-1.08.054-1.62.054-1.431 0-2.511-.081-3.375-.243zm20.385 1.323c-2.025-.081-2.43-.081-2.943-.081-2.268 0-4.023.216-7.155.89102l.189 1.836c2.457-.675 4.347-.918 6.75-.918 1.134 0 1.89.054 3.186.189zm-9.828 5.83202c-1.431 1.836-1.809 2.673-1.809 3.888 0 2.673 2.295 4.05 6.723 4.05 1.431 0 2.997-.135 4.806-.459.891-.135.891-.135 1.188-.189l-.189-2.025c-1.539.54-3.942.918-5.967.918-3.078 0-4.725-.864-4.725-2.484 0-.648.243-1.35.675-1.917.189-.297.27-.378.81-1.026z"/><path d="m627.178 2.52368c1.107 1.269 1.836 2.322 2.592 3.78l1.377-.756c-.864-1.539-1.323-2.214-2.646-3.753zm-14.742 5.508c.243-.027.405-.027.459-.027h.108c1.053.054 1.296.054 2.241.054.999 0 1.323 0 1.863-.027-.999 5.29202-3.078 11.44802-5.076 14.93102l1.971.837c1.431-3.294 2.214-5.346 3.105-8.235.729-2.457 1.485-5.508 1.89-7.64102 1.323-.108 3.186-.351 4.563-.648.54-.108.54-.108.756-.135l-.135-1.863c-1.296.432-2.754.702-4.86.918.135-.81.216-1.188.351-2.052.324-1.917.324-1.917.486-2.565l-2.133-.216c0 1.188-.054 1.647-.594 4.968-.783.054-1.08.054-1.62.054-1.431 0-2.511-.081-3.375-.243zm17.388-6.831c1.134 1.296 1.836 2.322 2.619 3.78l1.35-.756c-.837-1.539-1.323-2.214-2.619-3.753zm2.997 8.154c-2.025-.081-2.43-.081-2.943-.081-2.268 0-4.023.216-7.155.89102l.189 1.836c2.457-.675 4.347-.918 6.75-.918 1.134 0 1.89.054 3.186.189zm-9.828 5.83202c-1.431 1.836-1.809 2.673-1.809 3.888 0 2.673 2.295 4.05 6.723 4.05 1.431 0 2.997-.135 4.806-.459.891-.135.891-.135 1.188-.189l-.189-2.025c-1.539.54-3.942.918-5.967.918-3.078 0-4.725-.864-4.725-2.484 0-.648.243-1.35.675-1.917.189-.297.27-.378.81-1.026z"/><path d="m653.935 1.33568c-.945 1.485-4.32 4.644-7.911 7.398-1.971 1.51202-1.971 1.51202-2.295 1.83602-.513.54-.783 1.161-.783 1.809 0 .918.432 1.512 1.944 2.7 3.942 3.078 5.022 3.969 6.831 5.643 1.782 1.647 2.835 2.781 3.483 3.699l1.701-1.674c-.297-.243-.351-.27-.756-.675-3.969-3.753-4.725-4.374-8.64-7.371-2.187-1.701-2.403-1.89-2.403-2.376 0-.378.189-.594 1.188-1.35 3.402-2.61902 4.86-3.83402 6.21-5.10302 2.808-2.7 3.024-2.889 3.321-3.132z"/><path d="m682.258 2.52368c1.107 1.269 1.836 2.322 2.592 3.78l1.377-.756c-.864-1.539-1.323-2.214-2.646-3.753zm-14.742 5.508c.243-.027.405-.027.459-.027h.108c1.053.054 1.296.054 2.241.054.999 0 1.323 0 1.863-.027-.999 5.29202-3.078 11.44802-5.076 14.93102l1.971.837c1.431-3.294 2.214-5.346 3.105-8.235.729-2.457 1.485-5.508 1.89-7.64102 1.323-.108 3.186-.351 4.563-.648.54-.108.54-.108.756-.135l-.135-1.863c-1.296.432-2.754.702-4.86.918.135-.81.216-1.188.351-2.052.324-1.917.324-1.917.486-2.565l-2.133-.216c0 1.188-.054 1.647-.594 4.968-.783.054-1.08.054-1.62.054-1.431 0-2.511-.081-3.375-.243zm17.388-6.831c1.134 1.296 1.836 2.322 2.619 3.78l1.35-.756c-.837-1.539-1.323-2.214-2.619-3.753zm2.997 8.154c-2.025-.081-2.43-.081-2.943-.081-2.268 0-4.023.216-7.155.89102l.189 1.836c2.457-.675 4.347-.918 6.75-.918 1.134 0 1.89.054 3.186.189zm-9.828 5.83202c-1.431 1.836-1.809 2.673-1.809 3.888 0 2.673 2.295 4.05 6.723 4.05 1.431 0 2.997-.135 4.806-.459.891-.135.891-.135 1.188-.189l-.189-2.025c-1.539.54-3.942.918-5.967.918-3.078 0-4.725-.864-4.725-2.484 0-.648.243-1.35.675-1.917.189-.297.27-.378.81-1.026z"/><path d="m702.4 9.62468c.189-.027.324-.027.405-.027.108 0 .243 0 .486.027.972.054 2.511.108 3.267.108 1.188 0 2.754-.054 3.942-.162.054.78302.054 1.37702.054 2.13302 0 4.32-.432 6.291-1.809 8.046-.972 1.242-2.241 2.187-4.131 3.105.702.54.918.756 1.458 1.458 2.079-1.215 3.24-2.16 4.239-3.483 1.593-2.16 2.079-4.374 2.079-9.504 0-.783 0-1.215-.027-1.94402 1.08-.135 1.917-.297 2.943-.54.81-.216.864-.216 1.431-.324l-.135-1.944c-.999.486-2.241.837-4.293 1.134-.135-3.753-.135-3.753-.162-4.374-.027-.486-.027-.621-.027-.81 0-.324.027-.486.081-.918l-2.079.027c.135.81.189 1.593.324 6.291-1.35.108-2.349.162-3.429.162-1.998 0-3.564-.108-4.59-.351zm-4.86-7.668c-.027.486-.054.756-.243 1.863-.837 4.995-1.08 7.20902-1.08 10.39502 0 2.835.324 5.454.999 7.992.135.513.162.594.216.945l1.863-.162c0-.918.216-1.836.756-3.429.54-1.458 1.215-3.132 1.998-4.725l-1.377-.648c-1.539 3.321-1.728 3.807-2.268 5.724 0-.297-.054-.864-.162-1.458-.108-.918-.216-2.916-.216-4.401 0-3.672.783-9.20702 1.647-11.77202z"/><path d="m724.033 16.7527c-2.241 0-4.05 1.809-4.05 4.05s1.809 4.05 4.05 4.05 4.05-1.809 4.05-4.05-1.809-4.05-4.05-4.05zm0 1.539c1.377 0 2.511 1.134 2.511 2.511s-1.134 2.511-2.511 2.511-2.511-1.134-2.511-2.511 1.134-2.511 2.511-2.511z"/><path d="m13.6723 47.7197h-10.824c-1.21 0-1.65-.022-2.485995-.132v1.76c.725995-.11 1.341995-.132 2.463995-.132h11.198c-1.232 4.928-3.322 8.074-6.92999 10.494-1.69401 1.122-2.99201 1.738-4.97201 2.332.572.572.748.814 1.078 1.518 1.804-.682 2.79401-1.166 4.04801-1.958 2.15599-1.342 4.11399-3.168 5.41199-5.038 1.254-1.782 2.288-4.18 3.058-7.04.198.044.33.066.484.066 1.254 0 2.266-1.012 2.266-2.266s-1.012-2.266-2.266-2.266-2.266 1.012-2.266 2.244c0 .132.022.242.044.418zm2.53-1.738c.748 0 1.342.594 1.342 1.342s-.594 1.342-1.342 1.342c-.726 0-1.342-.616-1.342-1.342 0-.748.594-1.342 1.342-1.342z"/><path d="m24.6943 48.1377c.594-.088 1.122-.11 2.288-.11h7.392c1.166 0 1.694.022 2.288.11v-1.694c-.638.132-1.078.154-2.31.154h-7.348c-1.232 0-1.672-.022-2.31-.154zm-1.892 5.06c.748-.088 1.386-.11 2.552-.11h11.484c-1.012 2.706-2.002 4.334-3.564 5.764-1.65 1.518-3.586 2.508-6.534 3.344.528.638.682.88.946 1.518 5.698-1.914 8.734-4.73 10.604-9.856.374-.968.418-1.078.616-1.386l-.814-.946c-.374.132-.616.154-1.43.154h-11.286c-1.32 0-1.782-.022-2.574-.132z"/><path d="m45.6383 48.7317c1.914 1.166 3.652 2.596 5.236 4.312l1.144-1.364c-1.584-1.562-2.948-2.64-5.302-4.136zm.154 14.3c.55-.176.726-.22 1.32-.352 3.674-.836 5.94-1.738 8.206-3.278 2.904-2.002 4.95-4.576 6.71-8.404-.616-.418-.836-.616-1.342-1.298-1.782 4.664-4.73 7.898-8.976 9.79-2.046.946-4.686 1.628-6.402 1.694z"/><path d="m69.0683 50.3377c.66-.066 1.254-.088 2.332-.088h8.448c1.078 0 1.672.022 2.332.088v-1.782c-.726.11-1.21.132-2.354.132h-8.404c-1.144 0-1.628-.022-2.354-.132zm-2.222 10.516c.748-.088 1.364-.11 2.53-.11h12.518c1.166 0 1.804.022 2.53.11v-1.848c-.792.11-1.254.132-2.552.132h-12.474c-1.298 0-1.76-.022-2.552-.132z"/><path d="m90.5183 48.7317c1.914 1.166 3.652 2.596 5.236 4.312l1.144-1.364c-1.584-1.562-2.948-2.64-5.302-4.136zm.154 14.3c.55-.176.726-.22 1.32-.352 3.674-.836 5.94-1.738 8.2057-3.278 2.904-2.002 4.95-4.576 6.71-8.404-.616-.418-.836-.616-1.342-1.298-1.782 4.664-4.73 7.898-8.9757 9.79-2.046.946-4.686 1.628-6.402 1.694z"/><path d="m118.282 45.2997c-.11.748-.55 1.76-1.386 3.19-1.518 2.684-3.19 4.51-5.522 6.05.638.396.858.572 1.232 1.122 2.156-1.606 3.916-3.542 5.258-5.72l7.414-.11c-.77 2.75-2.09 5.324-3.784 7.348-2.112 2.552-4.444 4.224-7.766 5.566.572.462.748.66 1.1 1.298 3.212-1.43 5.632-3.19 7.656-5.5 1.848-2.112 3.432-5.082 4.312-8.03.242-.792.242-.814.44-1.078l-1.188-1.144c-.286.132-.352.132-1.122.154l-5.544.088c-.396 0-.572.022-.792.066.242-.374.44-.748 1.012-1.936.286-.616.286-.616.484-.902zm9.9-.088c.924 1.122 1.474 2.024 2.024 3.19l1.1-.594c-.704-1.342-1.122-1.98-2.024-3.124zm-2.002.946c.924 1.144 1.474 2.024 2.024 3.19l1.1-.594c-.704-1.32-1.122-1.98-2.024-3.124z"/><path d="m142.966 52.9337c-.99 0-1.804.814-1.804 1.804s.814 1.804 1.804 1.804 1.804-.814 1.804-1.804-.814-1.804-1.804-1.804z"/><path d="m160.896 49.1937v2.596h-3.168c-.902 0-1.43-.022-2.024-.132v1.496c.594-.088 1.166-.132 2.09-.132h3.102v2.398h-2.332c-.792 0-1.408-.022-2.09-.11.066.594.088 1.21.088 2.046v3.476c0 1.32-.022 1.694-.11 2.266h1.518c-.066-.616-.088-1.232-.088-2.288v-4.158h3.014v5.61c0 1.034-.044 1.76-.132 2.486h1.584c-.088-.66-.11-1.254-.11-2.486v-5.61h2.992v4.73c0 .308-.132.374-.792.374-.638 0-1.056-.022-1.54-.11.132.418.198.792.22 1.32.792.044.902.044 1.21.044 1.76 0 2.2-.264 2.2-1.32v-4.356c0-.902.022-1.43.088-2.024-.638.088-1.254.11-2.046.11h-2.332v-2.398h3.058c1.056 0 1.584.022 2.09.11v-1.452c-.572.088-1.188.11-2.068.11h-3.08v-2.596h2.244c1.056 0 1.606.022 2.156.11v-1.452c-.506.088-1.056.11-2.156.11h-2.244v-.88c0-1.166.022-1.628.132-2.222h-1.606c.11.594.132 1.122.132 2.244v.858h-2.332c.176-.484.264-.77.418-1.276.11-.462.242-.836.374-1.144l-1.43-.352c-.022.33-.088.704-.242 1.232-.44 1.672-.99 2.794-2.002 4.224.484.176.814.352 1.232.638.55-.88.748-1.21 1.144-2.09zm7.502-3.036c.11.616.132 1.21.132 2.42v8.602c0 1.43-.022 1.87-.11 2.464h1.606c-.088-.572-.11-1.012-.11-2.464v-8.624c0-1.232.022-1.804.132-2.398zm4.488-1.232c.11.682.154 1.386.154 2.684v14.872c0 .55-.154.66-1.056.66-.726 0-1.65-.066-2.772-.22.242.484.33.814.418 1.408 1.056.088 1.76.11 2.332.11 2.002 0 2.464-.374 2.464-1.98v-14.872c0-1.276.044-2.024.154-2.662z"/><path d="m189.012 49.4797v13.002c0 1.166-.044 1.782-.132 2.31h1.694c-.11-.55-.154-1.232-.154-2.31v-3.366h4.532c.77 0 1.342.044 1.936.132v-1.518c-.616.088-1.144.132-1.936.132h-4.532v-3.564h4.466c.748 0 1.254.044 1.936.132v-1.518c-.616.088-1.122.132-1.936.132h-4.466v-3.564h5.17c.924 0 1.452.022 2.002.11v-1.496c-.638.11-1.122.132-2.002.132h-6.974c.33-.77.44-1.056.748-1.958.198-.572.264-.726.44-1.122l-1.54-.506c-.066.748-.396 1.826-.924 3.124-.99 2.376-2.178 4.202-3.894 6.028.66.462.66.462 1.1 1.056 1.452-1.716 2.464-3.278 3.498-5.368zm-5.874-4.84c-.132.858-.418 1.804-.924 2.948-1.166 2.662-2.706 4.84-4.642 6.6.528.528.528.528.924 1.166 1.276-1.298 1.958-2.178 2.728-3.476-.066 1.298-.088 1.892-.088 2.838v7.304c0 1.056-.044 1.826-.154 2.684h1.716c-.11-.726-.154-1.65-.154-2.64v-12.034c.836-1.65 1.122-2.288 1.628-3.652.176-.44.242-.638.506-1.232z"/><path d="m215.632 47.7197h-10.824c-1.21 0-1.65-.022-2.486-.132v1.76c.726-.11 1.342-.132 2.464-.132h11.198c-1.232 4.928-3.322 8.074-6.93 10.494-1.694 1.122-2.992 1.738-4.972 2.332.572.572.748.814 1.078 1.518 1.804-.682 2.794-1.166 4.048-1.958 2.156-1.342 4.114-3.168 5.412-5.038 1.254-1.782 2.288-4.18 3.058-7.04.198.044.33.066.484.066 1.254 0 2.266-1.012 2.266-2.266s-1.012-2.266-2.266-2.266-2.266 1.012-2.266 2.244c0 .132.022.242.044.418zm2.53-1.738c.748 0 1.342.594 1.342 1.342s-.594 1.342-1.342 1.342c-.726 0-1.342-.616-1.342-1.342 0-.748.594-1.342 1.342-1.342z"/><path d="m238.622 61.2937v1.562h1.672c-.044-.462-.066-1.034-.066-1.694v-11.902c0-.902 0-1.188.066-1.716-.506.066-.77.066-1.716.066h-11.726c-.858 0-1.276-.022-1.716-.066.066.528.088.814.088 1.716v11.946c0 .726-.022 1.166-.088 1.65h1.694v-1.562zm0-1.43h-11.792v-10.802h11.792z"/><path d="m250.92 51.4377-2.794.374c-.748.088-1.518.154-1.892.154-.088 0-.176 0-.33 0l.198 1.65c.704-.176.704-.176 2.156-.374l2.662-.374v5.302c0 2.244.154 2.926.814 3.63.704.726 1.98 1.034 4.488 1.034 1.496 0 2.992-.11 5.214-.396.594-.066.726-.088 1.32-.11l-.11-1.782c-1.694.484-4.092.77-6.402.77-1.804 0-2.728-.154-3.19-.55s-.55-.858-.55-2.904v-5.192c2.508-.352 5.324-.748 8.404-1.166.132-.022.176-.022.264-.044.22-.044.308-.066.506-.11-.968 2.002-2.596 3.674-4.994 5.104.616.33.814.484 1.32 1.056 1.606-1.122 2.816-2.244 3.74-3.432.572-.748 1.078-1.562 1.672-2.816.176-.33.198-.374.352-.616l-1.078-.902c-.374.198-.418.22-1.254.308l-8.932 1.188v-3.212c0-.968.022-1.408.11-2.024h-1.782c.088.726.088.88.088 2.024z"/><path d="m286.428 61.9097c-2.508-2.662-4.444-4.4-7.326-6.6 1.364-1.694 2.398-3.432 3.63-6.16.242-.55.396-.814.616-1.078l-.924-.946c-.374.132-.638.154-1.408.176l-7.854.088c-.308 0-.506 0-.572 0-.748 0-1.144-.022-1.738-.11l.044 1.782c.638-.11 1.276-.154 2.266-.176l7.348-.11c.264 0 .33 0 .528-.022-.022.066-.022.088-.066.154-.044.11-.066.132-.11.264-1.606 3.85-4.334 7.326-7.854 9.922-1.694 1.254-2.772 1.848-4.466 2.53.55.55.726.792 1.078 1.452 1.628-.814 2.794-1.54 4.312-2.64 1.584-1.166 2.662-2.178 4.202-3.938 2.816 2.178 5.302 4.576 7.04 6.798z"/><path d="m300.046 52.9337c-.99 0-1.804.814-1.804 1.804s.814 1.804 1.804 1.804 1.804-.814 1.804-1.804-.814-1.804-1.804-1.804z"/><path d="m316.81 49.8317c-1.1 0-1.628-.022-2.376-.154l.022 1.672c.792-.11 1.034-.11 2.332-.11l4.004-.022c-.286 2.464-.616 3.696-1.364 5.236-1.21 2.464-3.102 4.4-5.72 5.786.55.484.726.66 1.122 1.298 2.486-1.496 4.532-3.564 5.764-5.83.968-1.848 1.474-3.674 1.76-6.49l6.16-.022c-.022 3.256-.22 6.072-.55 7.81-.418 2.178-.77 2.706-1.848 2.706-.726 0-1.65-.176-2.838-.572.198.572.242.88.242 1.386v.264c1.166.264 2.024.374 2.728.374 1.98 0 2.64-.792 3.19-3.806.286-1.518.55-4.84.616-7.7.022-.792.044-.99.176-1.32l-.814-.704c-.44.132-.462.154-1.452.154l-5.5.022c.066-.616.066-.88.11-1.562.088-2.332.088-2.332.176-2.838l-1.782-.044c.066.396.088.638.088 1.144 0 .968-.044 2.178-.132 3.3z"/><path d="m351.152 45.6297c-.616 1.034-2.156 2.574-4.202 4.158-3.476 2.728-7.282 4.62-11.418 5.698.44.55.55.77.858 1.474 4.026-1.364 5.632-2.09 8.492-3.85v8.36c0 1.21-.022 1.716-.132 2.288h1.914c-.088-.594-.11-1.078-.11-2.332v-9.372c1.892-1.364 3.762-2.97 5.148-4.422.55-.594.572-.638.968-.924z"/><path d="m361.612 51.6357-2.794.374c-.748.11-1.518.176-1.892.176-.088 0-.176 0-.33-.022l.198 1.672c.704-.176.704-.176 2.156-.374l2.662-.374v5.28c0 2.266.154 2.948.814 3.652.704.726 1.98 1.034 4.488 1.034 1.496 0 2.992-.11 5.214-.396.594-.088.726-.088 1.32-.11l-.11-1.804c-1.694.506-4.092.792-6.402.792-1.804 0-2.728-.154-3.19-.55s-.55-.858-.55-2.926v-5.17l8.36-1.166c.396-.044.55-.088.814-.154-.968 2.002-2.596 3.652-4.994 5.104.616.33.814.484 1.32 1.056 1.606-1.144 2.816-2.244 3.74-3.432.572-.748 1.078-1.584 1.672-2.816.176-.352.198-.374.352-.616l-1.078-.902c-.374.198-.418.198-1.254.308l-8.932 1.188v-3.212c0-.968.022-1.408.11-2.024h-1.782c.088.726.088.88.088 2.002zm9.284-5.764c.924 1.122 1.43 1.848 2.112 3.168l1.188-.572c-.792-1.386-.99-1.672-2.156-3.124zm2.178-1.034c.99 1.188 1.43 1.848 2.112 3.124l1.166-.55c-.66-1.21-1.166-1.936-2.156-3.08z"/><path d="m380.928 48.7317c1.914 1.166 3.652 2.596 5.236 4.312l1.144-1.364c-1.584-1.562-2.948-2.64-5.302-4.136zm.154 14.3c.55-.176.726-.22 1.32-.352 3.674-.836 5.94-1.738 8.206-3.278 2.904-2.002 4.95-4.576 6.71-8.404-.616-.418-.836-.616-1.342-1.298-1.782 4.664-4.73 7.898-8.976 9.79-2.046.946-4.686 1.628-6.402 1.694z"/><path d="m410.32 51.3497h-5.544c-1.034 0-1.694-.044-2.332-.132v1.54c.66-.088 1.452-.132 2.332-.132h5.544v3.454h-6.776c-1.034 0-1.694-.044-2.31-.132v1.562c.66-.088 1.32-.132 2.31-.132h6.776v4.84c0 .484-.22.638-.924.638-.946 0-2.354-.132-3.74-.374.242.638.33.924.396 1.518 1.166.132 2.442.198 3.3.198 1.87 0 2.398-.374 2.398-1.738v-5.082h6.292c.99 0 1.628.044 2.31.132v-1.562c-.638.088-1.298.132-2.31.132h-6.292v-3.454h5.324c.968 0 1.716.044 2.332.132v-1.54c-.638.088-1.298.132-2.332.132h-5.324v-3.696c2.596-.374 3.19-.506 6.71-1.496l-1.21-1.298c-1.078.55-2.97 1.056-5.61 1.496-2.948.462-5.874.704-9.108.704.33.572.44.792.572 1.364 2.794-.088 4.29-.198 7.216-.572z"/><path d="m434.894 49.7877v4.026h-4.048c-.924 0-1.584-.044-2.178-.132v1.54c.616-.088 1.342-.132 2.156-.132h3.256c-.836 2.42-1.738 4.422-3.19 6.996-.88.088-1.43.11-1.848.11-.242 0-.418 0-.748-.044l.352 1.584c.484-.088.792-.132 1.694-.22 4.818-.528 4.818-.528 6.424-.77 2.222-.33 2.222-.33 3.96-.638.418.748.594 1.1 1.166 2.244l1.342-.792c-1.628-2.882-2.772-4.554-4.686-6.908l-1.188.638c1.276 1.584 1.782 2.244 2.706 3.718-2.156.396-3.696.572-7.546.946 1.342-2.53 1.804-3.542 3.08-6.864h5.698c.792 0 1.408.044 2.002.132v-1.54c-.594.088-1.166.132-2.024.132h-4.972v-4.026h4.202c.814 0 1.364.044 1.958.132v-1.54c-.594.088-1.166.132-1.98.132h-4.18v-1.518c0-.968.022-1.54.132-2.178h-1.672c.088.506.132 1.122.132 2.178v1.518h-3.08c-.924 0-1.606-.044-2.156-.132v1.54c.594-.088 1.342-.132 2.134-.132zm-10.296-3.718c1.474.99 2.442 1.826 3.542 3.058l.902-1.144c-1.232-1.232-2.09-1.936-3.542-2.882zm-1.254 5.258c1.496.902 2.42 1.628 3.74 2.926l.858-1.21c-1.584-1.32-2.332-1.87-3.762-2.75zm3.608 5.302c-.748 2.002-1.21 2.97-2.112 4.576-.55.946-.902 1.452-1.342 1.914l1.276 1.144c.242-.462.308-.616.44-.836 1.298-2.244 1.958-3.608 2.882-5.94z"/><path d="m452.45 48.2917c-2.244 0-3.916-.088-4.708-.242l-.022 1.518c.242-.022.286-.022.484-.022h.352c.814.022 2.882.066 3.234.066.11 0 .33-.022.418-.044-.132.22-.132.22-.198.33-1.584 2.816-3.41 5.126-4.928 6.292l1.232 1.232c.352-.594.836-1.1 1.694-1.826 1.782-1.518 3.52-2.332 4.906-2.332 1.034 0 1.562.528 1.738 1.738-1.474.638-2.53 1.21-3.278 1.76-1.496 1.122-2.244 2.266-2.244 3.476 0 2.266 1.914 3.388 5.852 3.388 1.694 0 3.608-.154 5.346-.44.44-.066.55-.088.88-.11l-.198-1.694c-1.254.506-3.696.858-5.874.858-3.102 0-4.466-.638-4.466-2.09 0-1.32 1.144-2.354 4.136-3.762.022.264.022.308.022.66 0 1.342-.066 2.684-.132 3.168l1.496-.022c-.044-.308-.044-.484-.044-.792 0-.198 0-.506.022-.99.022-.44.022-.924.022-1.21 0-.55 0-.77-.044-1.342 2.75-1.078 4.73-1.738 5.874-1.936l-.704-1.54c-.352.242-.418.264-1.496.638-.968.352-2.222.814-3.828 1.452-.286-1.628-1.276-2.442-2.904-2.442-1.144 0-2.31.374-3.322 1.078-.22.154-.22.154-1.012.77-.022-.022-.022-.022-.044-.066 0 0 0 0 0-.022 0 0 .022 0 .022-.022.022-.022.132-.11.286-.22.088-.066.528-.572.748-.836.77-.946 1.32-1.826 1.98-3.124 2.662-.088 4.972-.264 7.26-.572.396-.066.528-.088.88-.11l-.132-1.496c-1.21.396-3.41.66-6.93.836-.198 0-.198 0-.462.022.11-.198.396-.792.682-1.496.374-.902.374-.902.572-1.188l-1.76-.308c-.066.704-.33 1.474-1.056 3.014z"/><path d="m479.972 60.3037v2.156c0 .792-.066 1.518-.154 2.266h1.606c-.088-.792-.132-1.43-.132-2.266v-2.156h2.002c.792 0 1.254.022 1.782.11v-1.452c-.506.088-.99.11-1.782.11h-2.002v-4.62c0-.88-.022-1.474-.066-2.75 1.1 2.508 1.98 3.916 3.498 5.72 1.034 1.232 1.958 2.178 3.124 3.102.374-.55.66-.902 1.078-1.232-1.672-1.188-2.772-2.2-3.982-3.696s-1.804-2.398-3.102-4.84h4.158c.858 0 1.606.044 2.244.132v-1.54c-.638.088-1.32.132-2.266.132h-4.686v-2.42c0-.814.066-1.65.176-2.156h-1.65c.088.638.154 1.496.154 2.156v2.42h-4.004c-.902 0-1.628-.044-2.2-.132v1.54c.682-.088 1.364-.132 2.178-.132h3.454c-.748 1.672-1.166 2.376-2.222 3.85-1.54 2.112-2.684 3.3-4.576 4.664.594.506.748.66 1.056 1.166 1.562-1.298 2.596-2.398 3.718-3.938 1.078-1.43 1.716-2.596 2.64-4.752-.044.946-.044 1.694-.044 2.706v4.62h-1.826c-.814 0-1.32-.022-1.804-.11v1.452c.506-.088.99-.11 1.782-.11zm-9.064 1.782c0 1.144-.044 1.848-.132 2.64h1.628c-.088-.748-.11-1.496-.11-2.574v-11.748c.704-1.452.99-2.068 1.584-3.696.286-.792.396-1.056.594-1.518l-1.54-.462c-.176 1.012-.374 1.694-.836 2.882-.968 2.464-2.31 4.576-4.268 6.71.484.55.55.66.88 1.254 1.034-1.188 1.54-1.914 2.266-3.212-.066 1.078-.066 1.694-.066 2.684z"/><path d="m507.362 49.4577c-.33 1.298-1.012 2.662-1.936 3.982-.616-1.43-.946-2.838-1.232-5.258h3.586c1.188 0 1.76.022 2.464.11v-1.43c-.594.11-1.122.132-2.486.132l.814-.77c-.902-.682-1.43-1.012-2.596-1.65l-.902.748c1.078.572 1.738.99 2.552 1.672h-3.564c-.044-.616-.066-.924-.066-1.254 0-.418.022-.682.066-1.034h-1.562c.088.374.11.528.132.88l.132 1.408h-7.678c-1.056 0-1.892-.044-2.596-.11.066.66.11 1.298.11 2.134 0 5.236-.352 6.996-1.76 9.02.572.264.858.462 1.232.88 1.474-2.266 1.848-4.378 1.87-10.736h8.954c.374 2.992.814 4.686 1.65 6.358-1.122 1.276-2.024 2.002-3.432 2.838.418.308.638.506.968.924 1.32-.88 2.09-1.562 3.102-2.662 1.056 1.65 2.354 2.662 3.388 2.662s1.584-.836 2.046-3.124c-.484-.264-.704-.462-1.1-.88-.242 1.848-.55 2.684-.968 2.684-.638 0-1.65-.946-2.53-2.376.858-1.122 1.276-1.826 2.046-3.454.44-.88.462-.924.594-1.188zm-5.148.198c-.506.066-.946.088-1.694.088h-4.202c-.77 0-1.21-.022-1.716-.088v1.298c.572-.066.99-.088 1.716-.088h4.202c.726 0 1.188.022 1.694.088zm-7.04 5.874c0 .506-.022.924-.066 1.232.396-.044.748-.066 1.474-.066h3.586c.814 0 .946 0 1.474.044-.044-.638-.044-.748-.044-1.254v-2.002c0-.506.022-.858.066-1.21-.44.044-.858.066-1.518.066h-3.542c-.638 0-1.078-.022-1.496-.066.044.396.066.726.066 1.232zm1.21-2.112h4.004v2.2h-4.004zm-2.882 5.346c-.66 2.156-1.166 3.036-2.552 4.488l1.188.836c1.254-1.496 1.804-2.486 2.574-4.73zm4.136 1.474c0-.638.022-.968.11-1.496h-1.584c.088.528.132.902.132 1.628v2.508c0 1.298.594 1.518 4.048 1.518 5.126 0 5.412-.154 5.72-3.08-.594-.154-.814-.242-1.342-.55-.022.99-.132 1.628-.352 1.892-.308.374-1.166.506-3.542.506-2.882 0-3.19-.066-3.19-.572zm8.492-.77c1.364 1.584 1.892 2.354 2.948 4.312l1.188-.704c-1.012-1.716-1.672-2.618-2.992-4.136zm-2.904 1.034c-1.276-1.078-2.09-1.65-3.608-2.464l-.858.814c1.76 1.034 2.332 1.452 3.564 2.596z"/><path d="m527.602 51.5917c.814.968 1.386 1.87 1.98 3.124l1.122-.572c-.748-1.408-1.188-2.068-2.024-3.08zm2.134-1.034c.814.968 1.386 1.87 2.002 3.124l1.1-.572c-.748-1.408-1.188-2.068-2.024-3.08zm-15.51-.286c1.078-.242 3.036-.418 7.59-.726 2.442-.154 3.542-.264 4.84-.484-.836.396-1.408.704-2.09 1.166-2.618 1.782-4.114 4.202-4.114 6.754 0 1.826.88 3.432 2.442 4.488 1.254.858 2.574 1.32 4.752 1.694.352.066.44.088.682.132l.286-1.782c-.088 0-.176 0-.22 0-.836 0-2.222-.308-3.3-.704-1.958-.748-3.08-2.222-3.08-4.07 0-1.826.946-3.608 2.706-5.082 1.21-1.034 2.75-1.826 4.224-2.2.836-.22 1.584-.308 2.464-.308l-.132-1.628c-.352.088-1.386.176-2.618.242-2.838.11-9.878.528-12.496.726-.682.044-.946.066-1.254.066-.154 0-.374 0-.792-.022z"/><path d="m537.986 50.2937c.396-.044.44-.044 1.364-.066 2.486-.044 4.246-.154 5.94-.396.55 1.188.682 1.43 1.254 2.508-1.804.33-4.642.55-6.93.55-.88 0-1.276-.022-1.76-.066l.044 1.452c.396-.044.484-.044 1.54-.088 4.114-.132 5.544-.242 7.722-.638.77 1.342 1.672 2.662 2.354 3.388-1.452-.462-2.618-.638-4.444-.638-4.18 0-6.71 1.43-6.71 3.806 0 1.144.594 2.134 1.65 2.728 1.122.638 2.508.924 4.532.924 1.958 0 3.828-.264 5.632-.814 1.012-.308 1.012-.308 1.32-.374l-.308-1.716c-1.32.814-4.224 1.474-6.512 1.474-3.014 0-4.686-.792-4.686-2.244 0-1.518 2.046-2.508 5.214-2.508.99 0 2.112.088 2.882.198 1.078.176 1.584.352 2.42.836l1.298-.924c-1.694-1.98-1.936-2.288-3.234-4.378.814-.154 1.914-.396 3.454-.792.726-.198.814-.198 1.188-.286l-.176-1.474c-.902.44-2.134.77-5.038 1.364-.33-.594-.924-1.76-1.254-2.486 1.232-.198 3.586-.704 5.544-1.232l-.132-1.43c-1.232.528-3.3 1.034-5.874 1.452-.55-1.166-.968-2.31-1.166-3.102l-1.65.286c.198.308.638 1.32 1.32 3.014-2.024.22-3.366.308-5.214.308-.748 0-1.122-.022-1.65-.066z"/><path d="m562.318 48.3577c.484-.066.704-.088 1.188-.11 3.344-.11 5.984-.264 6.688-.396.132-.022.132-.022.198-.022l.044.044-.088.088c-.044.044-.088.088-.088.088-.176.176-.176.176-.308.308-1.518 1.496-4.994 4.554-7.348 6.424-1.496 1.21-2.288 1.782-3.08 2.244l.99 1.408c2.552-2.354 6.028-3.762 9.262-3.762 2.97 0 4.73 1.254 4.73 3.366 0 1.87-1.21 3.212-3.52 3.85-.308-.968-.55-1.496-1.012-2.112-.88-1.166-2.156-1.804-3.63-1.804-1.826 0-3.19 1.1-3.19 2.574 0 2.024 1.782 3.168 4.884 3.168 4.884 0 8.074-2.266 8.074-5.698 0-2.816-2.354-4.62-6.028-4.62-1.936 0-3.718.462-5.39 1.364l-.044-.066c1.54-.99 4.202-3.278 7.238-6.248.704-.682.814-.77 1.122-.924l-.924-1.21c-.286.154-.484.198-1.056.242-1.98.154-4.906.286-6.732.286-1.056 0-1.452-.022-2.068-.132zm7.216 13.926c-.792.132-1.056.154-1.606.154-.946 0-1.892-.198-2.464-.506-.594-.352-.88-.77-.88-1.342 0-.836.682-1.364 1.782-1.364 1.584 0 2.684 1.056 3.168 3.058z"/><path d="m595.802 47.7197h-10.824c-1.21 0-1.65-.022-2.486-.132v1.76c.726-.11 1.342-.132 2.464-.132h11.198c-1.232 4.928-3.322 8.074-6.93 10.494-1.694 1.122-2.992 1.738-4.972 2.332.572.572.748.814 1.078 1.518 1.804-.682 2.794-1.166 4.048-1.958 2.156-1.342 4.114-3.168 5.412-5.038 1.254-1.782 2.288-4.18 3.058-7.04.198.044.33.066.484.066 1.254 0 2.266-1.012 2.266-2.266s-1.012-2.266-2.266-2.266-2.266 1.012-2.266 2.244c0 .132.022.242.044.418zm2.53-1.738c.748 0 1.342.594 1.342 1.342s-.594 1.342-1.342 1.342c-.726 0-1.342-.616-1.342-1.342 0-.748.594-1.342 1.342-1.342z"/><path d="m606.824 48.1377c.594-.088 1.122-.11 2.288-.11h7.392c1.166 0 1.694.022 2.288.11v-1.694c-.638.132-1.078.154-2.31.154h-7.348c-1.232 0-1.672-.022-2.31-.154zm-1.892 5.06c.748-.088 1.386-.11 2.552-.11h11.484c-1.012 2.706-2.002 4.334-3.564 5.764-1.65 1.518-3.586 2.508-6.534 3.344.528.638.682.88.946 1.518 5.698-1.914 8.734-4.73 10.604-9.856.374-.968.418-1.078.616-1.386l-.814-.946c-.374.132-.616.154-1.43.154h-11.286c-1.32 0-1.782-.022-2.574-.132z"/><path d="m627.768 48.7317c1.914 1.166 3.652 2.596 5.236 4.312l1.144-1.364c-1.584-1.562-2.948-2.64-5.302-4.136zm.154 14.3c.55-.176.726-.22 1.32-.352 3.674-.836 5.94-1.738 8.206-3.278 2.904-2.002 4.95-4.576 6.71-8.404-.616-.418-.836-.616-1.342-1.298-1.782 4.664-4.73 7.898-8.976 9.79-2.046.946-4.686 1.628-6.402 1.694z"/><path d="m649.526 55.7277c.264.022.33.022.682.132.99.242 2.002.418 3.322.55-.022.198-.022.198-.044.528-.066.55-.088.99-.088 1.452 0 1.254.242 2.31.682 3.036.858 1.408 2.618 2.2 4.928 2.2 3.85 0 6.446-2.09 6.446-5.192 0-1.606-.506-2.684-2.068-4.378-.638.286-.88.352-1.606.44 1.408 1.21 2.09 2.442 2.09 3.828 0 2.332-1.914 3.85-4.862 3.85-1.342 0-2.398-.33-3.102-.946-.682-.594-1.012-1.43-1.012-2.64 0-.374.044-1.1.088-1.628.022-.286.022-.286.022-.44.99.044 1.342.044 1.892.044 1.034 0 1.98-.044 3.102-.176.308-.022.374-.022.594-.044l.044-1.474c-.858.22-2.464.352-4.048.352-.308 0-.616 0-1.452-.022.132-1.232.154-1.452.506-3.982 1.21.044 1.584.044 1.936.044.638 0 1.298-.022 1.98-.088 1.1-.088 1.1-.088 1.54-.132l.066-1.518c-.99.242-2.376.374-4.026.374-.352 0-.66 0-1.276-.022.11-.616.154-.836.22-1.32.198-1.21.198-1.21.22-1.408.154-.792.22-1.056.352-1.474l-1.76-.198v.176c0 .572-.176 2.024-.528 4.136-1.54-.132-3.014-.462-3.96-.858l-.198 1.452c.308.066.396.088.682.154 1.298.308 2.244.462 3.278.594-.176 1.166-.396 2.882-.506 3.96-1.672-.198-3.058-.484-3.938-.88z"/><path d="m684.11 51.2617c1.056 1.144 1.54 1.782 2.222 2.948l1.078-.616c-.726-1.166-1.144-1.716-2.244-2.926zm-8.734 3.212c-1.694 1.43-2.53 2.816-2.53 4.246 0 1.518.858 2.64 2.508 3.322 1.078.418 2.948.682 5.06.682 1.936 0 4.026-.176 5.94-.506.374-.066.462-.088.748-.11l-.198-1.804c-1.232.506-3.85.836-6.6.836-1.738 0-3.19-.154-4.026-.44-1.232-.418-1.87-1.144-1.87-2.156 0-1.034.66-2.046 2.09-3.234zm10.758-4.4c1.056 1.144 1.54 1.782 2.222 2.948l1.078-.616c-.726-1.166-1.144-1.716-2.244-2.926zm-12.078-1.232c.286 0 .33.022.726.066 1.43.176 3.3.286 4.84.286 1.254 0 2.002-.066 3.322-.286-.22.132-.264.132-.418.22-.264.132-.308.154-.55.286-.99.55-1.518.88-2.926 1.826l1.122.902c2.156-1.562 4.18-2.772 5.544-3.344l-.11-1.452c-1.21.308-2.992.462-5.566.462-2.508 0-4.246-.154-5.852-.528z"/><path d="m703.47 57.4217h6.446v4.972c0 .55-.198.66-1.166.66-.792 0-1.87-.088-3.146-.242.198.55.286.924.33 1.43.924.066 2.024.11 2.728.11 2.134 0 2.64-.33 2.64-1.716v-14.762c0-.99.022-1.562.088-2.156-.638.066-1.232.088-2.332.088h-11.836c-1.1 0-1.76-.022-2.42-.088.088.946.088 1.364.088 3.586 0 5.434-.198 8.646-.682 10.67-.352 1.496-.836 2.486-1.782 3.718.572.33.792.484 1.276.946 1.474-2.09 2.046-3.894 2.376-7.216h6.028v4.158c0 1.166-.022 1.826-.11 2.398h1.584c-.088-.528-.11-1.232-.11-2.398zm0-6.446v-3.85h6.446v3.85zm-1.364 0h-5.808l.022-1.232v-2.618h5.786zm1.364 1.254h6.446v3.916h-6.446zm-1.364 0v3.916h-5.94c.066-1.012.066-1.1.088-2.464 0-.308 0-.836.022-1.452z"/><path d="m724.238 46.4437h-5.082c-1.034 0-1.672-.044-2.178-.132v1.364c.66-.066 1.21-.088 2.156-.088h1.342c.528 1.144.66 1.474.902 2.156h-3.3c-1.276 0-2.024-.044-2.64-.132v1.408c.616-.088 1.276-.11 2.596-.11h14.212c1.32 0 2.002.022 2.596.11v-1.408c-.616.11-1.254.132-2.574.132h-3.608c.418-.704.682-1.232 1.1-2.156h1.298c.99 0 1.584.022 2.288.088v-1.364c-.55.088-1.188.132-2.266.132h-5.412v-.418c0-.528.044-.99.132-1.496h-1.694c.088.55.132.99.132 1.496zm-1.43 3.3c-.286-.814-.594-1.518-.902-2.156h6.38c-.308.77-.66 1.452-1.078 2.156zm6.864 8.866c.792 0 1.804.022 2.354.066-.066-.506-.088-1.034-.088-1.848v-2.75c0-.924.022-1.452.088-1.914-.594.066-1.254.088-2.486.088h-8.998c-1.144 0-1.76-.022-2.42-.088.066.55.088 1.034.088 1.936v2.772c0 .858-.022 1.32-.088 1.804.726-.044 1.364-.066 2.42-.066zm-10.164-5.258h11.132v1.496h-11.132zm0 2.552h11.132v1.606h-11.132zm-3.058 8.404c1.364-1.54 1.958-2.486 2.706-4.29l-1.254-.572c-.638 1.716-1.21 2.574-2.64 4.004zm5.544-3.146c0-.792.022-1.144.132-1.672h-1.628c.088.484.132 1.034.132 1.672v1.826c0 1.232.594 1.408 4.642 1.408 4.994 0 5.17-.11 5.302-3.542-.66-.132-.792-.176-1.364-.506.022.154.022.242.022.352 0 1.122-.11 1.892-.308 2.068-.352.352-1.078.418-4.092.418-1.276 0-2.024-.044-2.398-.132-.352-.088-.44-.198-.44-.484zm13.002 1.958c-1.078-1.496-1.87-2.442-3.234-3.806l-1.122.638c1.298 1.298 2.112 2.31 3.212 4.004zm-7.678-1.694c-1.012-1.122-1.716-1.738-2.794-2.486l-.946.682c1.144.858 1.694 1.408 2.64 2.618z"/><path d="m741.64 45.9377c.066.44.088.704.088 1.166 0 .352 0 .77-.022 1.43-.176 6.93-.198 7.48-.198 8.954 0 2.31.308 3.476 1.21 4.51.88 1.012 2.266 1.54 4.136 1.54 2.574 0 4.642-.902 6.204-2.75.968-1.122 1.606-2.42 2.442-4.994-.704-.352-.968-.528-1.584-1.056-.308 1.54-.572 2.398-1.078 3.454-1.254 2.508-3.278 3.828-5.896 3.828-1.144 0-2.134-.308-2.75-.858-.66-.594-.946-1.32-1.034-2.64-.022-.506-.044-1.056-.044-1.32 0-.99.066-3.982.154-6.622.066-2.772.154-3.894.286-4.642z"/><path d="m759.931 50.3157c1.078-.242 3.036-.418 7.59-.726 2.442-.154 3.542-.264 4.84-.484-.836.396-1.408.704-2.09 1.166-2.618 1.76-4.114 4.202-4.114 6.754 0 1.804.88 3.432 2.442 4.488 1.254.858 2.574 1.32 4.752 1.694.352.066.44.088.682.132l.286-1.782c-.088 0-.176 0-.22 0-.836 0-2.222-.308-3.3-.704-1.958-.748-3.08-2.222-3.08-4.07 0-1.826.946-3.608 2.706-5.082 1.21-1.034 2.75-1.826 4.224-2.222.836-.198 1.584-.286 2.464-.286l-.132-1.65c-.352.11-1.386.198-2.618.242-2.838.132-9.878.528-12.496.726-.682.044-.946.066-1.254.066-.154 0-.374 0-.792 0z"/><path d="m793.019 48.5997c-1.21.418-2.596.704-4.488.946v-2.112c0-1.012.022-1.43.11-2.046h-1.628c.088.66.11 1.21.11 2.09v2.178c-.66.044-1.518.066-2.112.066-.99 0-1.606-.044-2.244-.154v1.452h.396.506c.242.022.836.022 1.166.022.638 0 1.012 0 1.408-.022.682-.044.682-.044.88-.066v4.158c-1.386.594-2.288 1.122-3.102 1.804-1.188 1.012-1.738 1.958-1.738 2.926 0 .792.33 1.474 1.012 2.068.968.858 2.398 1.408 3.63 1.408 1.078 0 1.606-.572 1.606-1.76v-5.5c1.848-.594 3.256-.858 4.664-.858 2.882 0 4.708 1.342 4.708 3.498 0 1.804-1.232 3.102-2.948 3.102-1.606 0-2.266-.946-2.266-3.234 0-.264 0-.462.044-.858-.55.308-.77.396-1.452.572-.022 1.1.066 1.76.264 2.486.418 1.584 1.65 2.486 3.388 2.486 2.53 0 4.488-1.98 4.488-4.554 0-1.628-.814-3.036-2.266-3.894-1.012-.616-2.332-.924-3.894-.924-1.474 0-2.816.22-4.73.792v-3.806c1.034-.11 2.09-.286 3.894-.66.308-.066.396-.088.66-.132zm-5.896 12.144c0 .946-.066 1.078-.506 1.078-.572 0-1.364-.264-1.958-.638-.638-.418-.946-.858-.946-1.32 0-1.056 1.232-2.244 3.41-3.3zm13.222-9.306c-1.32-1.694-2.42-2.75-4.444-4.18l-1.144.858c1.716 1.166 3.278 2.684 4.444 4.312z"/><path d="m808.397 45.2777c0 .264-.022.374-.066.704-.55 3.894-.748 5.962-.748 8.118v.506l.044 2.288.022.396v.242l1.584-.066c-.022-.33-.022-.44-.022-.528 0-1.606.418-3.3 1.188-4.906 1.254-2.574 2.662-3.828 4.334-3.828 2.112 0 3.344 2.046 3.344 5.588 0 3.52-1.21 5.83-3.784 7.304-1.276.726-2.42 1.078-4.466 1.386.484.594.616.836.88 1.496 1.54-.33 2.86-.77 3.916-1.298 3.3-1.65 5.082-4.664 5.082-8.646 0-2.354-.396-3.982-1.32-5.346-.858-1.276-2.09-1.958-3.52-1.958-1.716 0-3.168.946-4.4 2.838-.638.99-1.078 2.068-1.342 3.278-.11.462-.11.462-.154.638l-.088-.022c.066-1.122.374-3.52.726-5.742.198-1.188.33-1.804.506-2.266z"/><path d="m844.235 61.3377c-.286-.176-.396-.242-.748-.506-2.31-1.672-4.224-2.684-6.138-3.212-.088-2.134-.088-2.134-.132-3.366 1.628-.11 3.366-.286 4.884-.528.77-.11.99-.132 1.276-.154l-.088-1.518c-1.21.418-3.102.682-6.094.902-.022-1.166-.022-1.166-.044-2.97 2.442-.154 3.036-.22 5.104-.528 1.144-.154 1.144-.154 1.518-.176l-.11-1.496c-1.21.396-3.476.704-6.512.902.022-1.584.066-2.64.154-3.102h-1.694c.088.484.088.484.11 3.168-.726 0-1.474.022-1.914.022-2.398 0-4.686-.176-5.632-.44l-.022 1.496c.132-.022.242-.022.308-.022.11 0 .242 0 .396.022 1.98.154 3.762.22 5.368.22.506 0 .858 0 1.496-.022l.044 3.014c-.616.022-1.386.022-1.958.022-2.222 0-4.048-.132-5.038-.352l-.022 1.452h.176c.132 0 .308 0 .55.022 1.364.11 2.398.154 3.718.154.704 0 1.804-.022 2.596-.044.022.572.022.99.044 1.276.022.638.022 1.1.044 1.298 0 .132.022.22.022.242 0 .198 0 .198.022.264-.946-.154-1.254-.176-1.98-.176-.968 0-1.628.066-2.288.22-1.936.44-3.08 1.584-3.08 3.036 0 .902.44 1.76 1.188 2.31.748.572 1.958.88 3.41.88 1.738 0 3.08-.484 3.718-1.386.396-.528.55-1.232.55-2.398 0-.286 0-.286-.044-.792.594.242 1.1.462 1.474.66 1.87.968 3.476 2.09 4.488 3.146zm-8.294-1.782c0 1.056-.132 1.672-.44 1.98-.418.484-1.254.726-2.42.726-1.914 0-3.014-.66-3.014-1.826s1.43-1.958 3.608-1.958c.968 0 1.408.044 2.244.242z"/><path d="m859.591 48.4457c-1.496.044-3.212.088-5.324.176-3.542.132-3.542.132-4.18.132-.33 0-.484 0-.88-.022l.066 1.606c1.474-.242 5.918-.462 10.34-.55v1.144c0 .264.022.484.022.572 0 .814 0 .902.022 1.21-.572-.638-1.496-.99-2.552-.99-2.244 0-3.894 1.54-3.894 3.63 0 2.024 1.496 3.476 3.608 3.476 1.166 0 2.112-.396 2.772-1.188.264-.308.396-.55.594-1.078-.088 2.002-.858 3.432-2.464 4.642-.88.66-1.848 1.1-3.564 1.65.462.484.594.682.968 1.386 1.606-.616 2.574-1.122 3.476-1.782 1.892-1.43 2.948-3.454 2.948-5.742 0-.968-.154-1.672-.528-2.596v-4.356c1.782-.044 2.024-.044 2.354-.044 2.618 0 3.388.022 4.202.11v-1.562c-.726.088-2.42.132-6.578.154v-.242c0-1.716.022-2.046.11-2.75h-1.65c.066.462.088.704.088 1.276zm-.066 6.424c0 1.54-1.056 2.596-2.574 2.596-1.342 0-2.266-.902-2.266-2.178 0-1.32 1.056-2.31 2.442-2.31.594 0 1.056.11 1.474.352.638.352.924.814.924 1.54z"/><path d="m872.184 57.9277c-1.826 0-3.3 1.474-3.3 3.3s1.474 3.3 3.3 3.3 3.3-1.474 3.3-3.3-1.474-3.3-3.3-3.3zm0 1.254c1.122 0 2.046.924 2.046 2.046s-.924 2.046-2.046 2.046-2.046-.924-2.046-2.046.924-2.046 2.046-2.046z"/></g></svg>