<svg fill="none" height="156" viewBox="0 0 870 156" width="870" xmlns="http://www.w3.org/2000/svg" xmlns:xlink="http://www.w3.org/1999/xlink"><linearGradient id="a" gradientUnits="userSpaceOnUse" x1="3.62179" x2="235.285" y1="160.743" y2="13.9143"><stop offset="0" stop-color="#00beff"/><stop offset=".0727" stop-color="#0fc2ff" stop-opacity=".9054"/><stop offset=".213" stop-color="#37ccff" stop-opacity=".723"/><stop offset=".4067" stop-color="#77dcff" stop-opacity=".4712"/><stop offset=".6437" stop-color="#cef3ff" stop-opacity=".1631"/><stop offset=".7691" stop-color="#fff" stop-opacity="0"/></linearGradient><g fill="#222"><path d="m243.62 13.7v-6.65995h-21v-3c0-.24.24-.42.66-.6.3-.18.78-.42.78-.9 0-.72-1.2-.96-2.04-1.02l-7.62-.42v5.94h-18.96c.12 1.74.48 5.28005.48 11.10005 0 16.8-2.52 25.38-6.84 32.82l6.96 2.52c4.8-7.8 6.6-20.1 6.6-31.2v-8.5801zm1.26 37.2001c-2.7-9.78-9.24-20.88-13.8-26.1l-6 3.7799c2.04 2.8201 4.5 6.4201 8.04 13.1401-2.64.48-7.44 1.32-17.94 2.58 2.1-6.66 5.4-17.34 7.5-24 .12-.3.24-.3601 1.08-.84.48-.3.78-.72.78-1.08 0-.54-.42-.84-1.86-1.2001l-7.14-1.7399c-1.38 7.56-4.08 20.0399-7.8 29.58-4.02.3599-4.5.36-5.76.42l1.32 7.08c.12.5999.3 1.98 1.26 1.98.36 0 .42-.12.96-1.08.48-.78.84-.84 1.8-.96 9.54-1.32 19.02-2.94 28.38-5.1 1.08 2.82 1.5 4.2 2.04 6.6z"/><path d="m304.82 27.56v-6.36h-22.38v-6.84h16.86v-5.99995h-16.86v-3.9c0-.6.48-.96.9-1.14.48-.3.84-.48.84-.9s-.54-.54-.9-.6l-7.92-.78v7.32h-7.68c.18-.42 1.02-2.64 1.2-2.88.06-.06.9-.6.9-.66.18-.12.36-.36.36-.54 0-.36-.18-.6-.48-.66l-6.84-1.92c-2.16 5.88-4.38 10.26005-7.92 14.87995l6.6 2.8801c1.32-1.8601 2.1-3.1201 3.12-5.1001h10.74v6.84h-22.32v6.36zm-7.14 25.2601v-21.42h-37.44v21.42h7.14v-1.38h22.98v1.38zm-7.32-7.5h-22.98v-7.5601h22.98z"/><path d="m365.12 13.76h-9.72c.06-1.38.24-7.37995.3-8.57995.06-.66.18-.72 1.14-1.62.18-.18.36-.36.36-.72 0-.78-.96-.84-1.44-.84l-6.48-.3c0 5.46 0 5.52-.06 12.05995h-4.5v5.9401h4.2c-.24 3.12-.84 8.5199-2.76 14.6999-1.5 4.92-3.06 7.44-4.02 8.94v-1.7399c-3.3.3-4.2.3599-9.78.8399v-2.7599h9.66v-4.5h-9.66v-2.4601h9.36v-15.84h-9.36v-2.5799h11.82v-4.56005h-11.82v-3.06c1.32-.18 3.9-.48 3.96-.48.42-.06 2.22-.42 2.58-.42s1.74.48 1.98.48c.54 0 .72-.24.72-.48 0-.3-.24-.6-.42-.9l-3-3.900001c-6.96 1.920001-14.22 2.040001-21.42 1.800001l2.1 4.74c4.14 0 6.12-.12 7.38-.24v2.46h-11.76v4.56005h11.76v2.5799h-9.3v15.84h9.3v2.4601h-9.72v4.5h9.72v3.18c-2.1.18-7.74.6-11.46.72l.84 5.46c.12.84.42 1.14.9 1.14.54 0 .72-.24 1.2-.9.36-.54.54-.48 1.86-.66 3.24-.36 17.46-1.98 20.34-2.34-1.62 1.86-2.22 2.4599-3.06 3.24l6.12 3.06c8.64-10.86 11.1-21 12.06-32.88h3.78c-.18 10.68-1.5 21-2.34 24.36-.48 1.86-1.5 3.18-4.2 3.18-1.08 0-2.16-.18-2.82-.3l2.88 6.24c6.6-.12 8.88-1.62 10.32-9.12 2.04-10.38 2.34-25.2001 2.46-30.3001zm-28.92 9.1801h-3.84v-2.5201h3.84zm0 6.24h-3.84v-2.6401h3.84zm-9.96-6.24h-3.78v-2.5201h3.78zm0 6.24h-3.78v-2.6401h3.78z"/><path d="m426.86 9.02005v-5.76h-50.82v5.76h22.38v4.79995h-12.06v26.94h29.82v-26.94h-11.88v-4.79995zm-16.56 15.66005h-6v-5.6401h6zm0 10.7999h-6v-5.76h6zm-11.88-10.7999h-6.12v-5.6401h6.12zm0 10.7999h-6.12v-5.76h6.12zm28.68-21.24c0-.42-.24-.66-1.2-.7799l-6.18-.7801v32.16h-37.08v-28.4399c0-.6.24-.7801.84-1.3201.18-.18.3-.3599.3-.5999 0-.48-.42-.6001-1.2-.6601l-6.06-.4799v39.12h6.12v-1.98h37.08v2.16h6v-36.6001c0-.4799.3-.66.96-1.08.3-.18.42-.48.42-.72z"/><path d="m486.92 27.08c0-13.3799-9.84-21.83995-22.32-21.83995-15.48 0-26.46 12.12005-26.46 25.44005 0 10.74 9.84 16.14 12 16.14 3.12 0 5.88-5.04 7.68-8.76 1.98-4.02 5.52-12.42 7.44-26.7001 2.22.18 6.42.42 10.2 4.02 3.36 3.18 4.32 7.2001 4.32 10.5001 0 2.64-.66 7.62-4.32 11.94-3.66 4.38-8.1 5.64-10.8 6.42l4.44 6.18c3.24-1.32 9.48-3.9 13.98-10.56 2.22-3.3 3.84-7.5 3.84-12.7801zm-28.8-14.6399c-1.2 9.36-6.36 25.02-9.48 25.02-1.08 0-3.84-2.5201-3.84-7.3801 0-3.6599 1.74-9.24 6-13.32 2.88-2.8199 5.58-3.72 7.32-4.3199z"/><path d="m546.26 15.26v-6.47995c-6.12.48-7.98.66-16.32 1.14v-6.18c0-.24.06-.36.48-.72s.54-.54.54-.9c0-.6-.36-.78-1.74-.84l-6.66-.420002c.36 4.380002.36 7.560002.42 9.419952-12.6.6001-17.76.6001-21.84.6001v6.96c7.62-.9601 16.68-1.5001 22.02-1.8001l.12 4.5c-.84-.3-1.68-.48-2.82-.48-6.12 0-9.42 4.56-9.42 11.16 0 2.9401.66 6.1801 3.12 8.3401 1.5 1.32 3.36 1.86 4.92 1.86 1.02 0 1.92-.24 3.24-.6-1.32 4.38-4.98 7.5-8.58 9.84l6.72 3.48c2.16-2.22 5.4-5.5801 8.16-11.1601 2.7-5.4 3.06-9.8399 3.06-11.5799 0-3.78-1.08-5.8801-1.74-7.3201v-8.3999c7.8-.3 11.76-.4201 16.32-.4201zm-21.84 15.1801c0 4.2599-2.88 5.58-4.14 5.58-1.38 0-3.3-1.38-3.3-4.98 0-3.18 1.68-5.2801 4.08-5.2801.78 0 1.62.2401 2.22.84.96 1.02 1.14 2.5801 1.14 3.8401z"/><path d="m609.56 8.42005c-1.38-1.68-2.7-3.06-5.22-4.68l-2.94 2.82c2.76 1.8 4.02 3.24 5.22 4.67995zm-5.94 5.27995c-1.38-1.74-2.76-3.1199-5.1-4.61995l-2.94 2.81995c2.1 1.3201 3.36 2.46 5.1 4.62zm6.78 23.8201c-1.86-1.2001-4.8-3.24-8.88-7.2-3.42-3.3-10.02-10.0201-14.04-14.5801-3.96-4.4999-5.22-5.87995-7.98-5.87995-3.18 0-5.04 2.52005-7.5 6.00005-7.08 9.84-8.1 11.2799-13.02 16.0199l6.54 3.78c3.18-3.6 6.06-7.32 11.28-14.82 1.68-2.4 3.18-2.3999 3.48-2.3999.96 0 2.16.84 2.82 1.68 7.32 9.18 12.54 15.6 22.2 23.52z"/><path d="m667.52 10.7001v-7.20005c-11.7 3.42-29.64 5.46-43.74 5.58l1.2 7.08005c7.14-1.32 15.24-1.98 22.86-2.5801-2.82 2.6401-11.64 10.92-11.64 21.18 0 13.38 15 16.5001 19.86 17.5201l2.1-7.56c-2.52-.06-6.66-.1801-10.44-2.8801-3.72-2.64-4.44-6.36-4.44-8.4 0-6 4.98-12.66 10.26-16.92 6.54-5.28 11.4-5.5799 13.98-5.8199z"/><path d="m728.24 26.6601-2.04-6.84c-2.82 1.26-3.6 1.62-10.62 4.9199-1.38-3.9599-4.02-6.0599-8.16-6.0599-2.58 0-4.38.9-5.16 1.26 1.02-1.56 1.5-2.4 3.42-5.94 4.02-.48 8.94-1.02 14.34-2.28l.42-6.72005c-3.54 1.38-6.24 2.16-11.76 3.06.3-.66 1.8-4.02 1.86-4.08.06 0 1.26-.54 1.38-.6.36-.12.6-.3.6-.66 0-.42-1.02-.54-1.2-.6l-7.5-1.320001c-.72 2.640001-1.5 4.740001-3 7.980001-5.22.18-7.86.06-11.46-.24l.72 6.24005c2.52 0 4.38-.0601 7.8-.2401-4.08 7.14-7.08 11.4001-11.82 16.5001l5.88 3.66c3.3-5.4 6.9-10.86 12.78-10.86 3.48 0 4.2 2.16 4.56 3.96-9 4.62-14.52 7.44-14.52 14.88 0 .84 0 3.48 2.28 5.88 3.78 4.02 10.74 4.02 14.1 4.02 1.92 0 8.58 0 14.28-.9v-6.78c-5.04 1.14-10.14 1.92-15.3 1.92-4.38 0-9-.78-9-4.68 0-4.2 6.24-7.32 8.52-8.46-.06 2.64-.12 5.58-.3 9h6.96c0-2.04-.12-9.48-.12-11.82 4.44-1.68 7.32-2.7 12.06-4.2z"/><path d="m595.076 116.12v-6.96c-2.28.78-7.2 2.46-14.22 2.46-3.24 0-5.94-.42-7.68-.66v6.6c3.18.3 5.94.3 6.42.3 6.66 0 12.72-1.2 15.48-1.74zm2.88 31.5v-7.44c-2.16.6-6.84 1.86-13.68 1.86-6.06 0-6.66-1.62-6.72-7.32l-6.54.9c.18 10.14 2.46 13.08 13.38 13.08 6.36 0 10.38-.6 13.56-1.08zm-31.38-10.68-3.54-1.92c-1.32 2.34-1.68 2.94-2.4 4.2-.84-2.58-.84-7.2-.84-8.22 0-9.06 2.58-19.92 3.48-20.46.12-.06.9-.36 1.02-.42.24-.18.3-.42.3-.54 0-.48-1.14-.9-1.56-1.08l-6.12-2.22c-.84 3.54-1.68 7.2-2.52 13.68-.42 3.54-.9 7.98-.9 11.82 0 4.62.66 10.2 2.46 15.78.72 2.22 1.26 3.18 2.22 4.74l4.74-1.86c.6-3.84 1.5-8.58 3.66-13.5z"/><path d="m614.936 145.64c.84-.9.96-.96 1.8-1.74 5.46 5.76 6.96 7.38 9.54 10.14l6.36-2.52c.06-7.32.06-8.4.12-17.94 2.1-.78 5.58-2.1 9.12-2.1 5.46 0 8.34 3.96 8.34 7.98 0 4.2-2.46 6.36-4.62 6.36-1.86 0-2.34-1.56-3.06-4.02l-5.58 2.22c.84 4.38 1.68 8.52 8.28 8.52 6.42 0 11.22-5.82 11.22-13.2 0-7.5-5.16-13.68-14.46-13.68-4.26 0-7.5.9-9.24 1.38l.06-5.94c2.76-.54 5.58-1.14 9.36-2.58v-6.84c-3.36 1.56-5.4 2.28-9.24 3.12.06-1.14.24-7.02.48-7.38.12-.18 1.02-.9 1.02-1.14 0-.3 0-.72-1.68-.96l-6.66-.9c.06 3.9.06 4.44.12 11.22-1.74.12-2.64.18-4.14.18-2.76 0-4.2-.12-5.88-.3l.9 6.78c3.36.12 5.52.06 9.12-.3l.06 7.74c-4.02 2.16-5.16 2.82-15 9.18zm11.34.48c-1.08-.96-3.54-3.24-5.46-5.64 2.52-1.86 3.78-2.64 5.46-3.66zm34.74-25.38c-2.94-2.28-6.9-4.98-11.82-6.78l-3.9 5.28c6 2.22 9.12 4.5 11.82 6.84z"/><path d="m714.956 144.98c-6.24-3.96-10.2-5.4-15.18-6.78-.18-3.54-.18-4.14-.3-7.14 7.08-.54 10.26-1.08 12.84-1.5v-6.54c-5.52 1.02-7.74 1.38-12.96 2.04v-7.08c3-.06 8.58-.18 15.24-.18l.24-6.36c-5.64.42-7.68.54-15.36.9.06-3.12.12-4.26.12-4.32.12-.54.54-.9.78-1.08.66-.54.78-.6.78-.84 0-.42-.36-.6-1.5-.72l-7.32-.72.18 7.98c-5.34.12-8.58.24-15.42.24l.12 6.48c5.16-.6 8.58-.84 15.48-1.14l.12 7.5c-1.38.12-2.16.12-4.14.12-1.02 0-2.28 0-2.28-.84 0-.78.9-1.44 1.98-2.22l-3.42-2.94c-2.34 1.68-6.42 4.5-6.42 7.44 0 2.34 2.76 4.32 8.28 4.32 1.74 0 5.04-.12 6.12-.18l.12 5.76-1.68-.06c-13.5-.48-14.1 6.48-14.1 8.22 0 4.86 5.16 7.8 13.44 7.8 7.68 0 9.12-2.4 9.36-8.52 4.44 1.74 7.08 3.18 10.98 5.94zm-21.84-2.1c.06 3.36-.18 4.44-4.08 4.44-.72 0-4.56 0-4.56-2.04 0-1.56 1.92-2.58 5.82-2.58 1.38 0 2.16.06 2.82.18z"/><path d="m780.716 129.8c0-2.16-1.5-9.24-9.36-17.64l-4.98 3.6c3.3 3.78 6.66 9.78 6.66 11.64 0 1.44-1.38 1.56-3.96 1.8l4.08 6.18c3.84-.72 7.56-2.16 7.56-5.58zm-14.22-2.64c0-3.66-.66-10.32-8.82-10.32-1.62 0-3.42.24-4.74.48.42-2.28.84-4.38 1.14-6.54.06-.6.18-.66 1.26-1.32.66-.42.78-.6.78-.84 0-.54-1.2-.9-1.68-.96l-7.32-1.02c-.06 4.98-.6 8.16-1.32 12-2.64.42-8.16 1.44-12.54 1.8l2.4 7.26c3.12-1.14 5.58-1.86 8.52-2.58-3.54 11.4-6.6 16.74-11.88 23.46l6.84 3.06c6.12-9.96 9.3-16.98 12.42-27.96 1.14-.18 2.34-.3 3.42-.3 4.32 0 4.98 1.92 4.98 5.1 0 6.06-2.52 13.32-3.66 14.94-.84 1.2-1.8 1.5-3.6 1.5-2.34 0-4.08-.54-5.4-.96l.84 7.26c1.68.24 3.54.36 5.16.36 2.58 0 6.42-.24 9-4.62 3.18-5.52 4.2-14.82 4.2-19.8z"/><path d="m840.296 123.2-.06-6.6c-5.52.9-7.44 1.14-10.8 1.62l.3-8.94c.06-.24.06-.42.54-.72.54-.36.66-.48.66-.78 0-.36 0-.72-1.98-.96l-6.12-.72c.66 5.7.6 10.08.54 12.9-6.9.96-9.12 1.2-12.72 1.62 0-6.9.06-7.26.12-8.22 0-.12.06-.48.6-.9.9-.6 1.02-.66 1.02-.96 0-.78-.78-.84-2.04-1.02l-6.78-.9c.3 4.2.36 10.38.36 12.84-4.5.48-6.3.66-11.04 1.08l.24 6.6c5.4-.84 6-.9 10.8-1.62l.06 8.22c.06 11.16 1.68 15.36 15.18 15.36 8.04 0 13.44-.6 16.08-.9l.54-7.2c-2.76.78-7.38 2.1-15.42 2.1-8.88 0-9.96-1.74-9.96-8.58 0-.36 0-3.96.12-9.96 5.4-.72 6.42-.9 12.78-1.68 0 6.54-.18 7.62-3.84 7.62-1.8 0-2.64-.24-3.54-.42l1.5 6.3c.6.12 1.92.24 3.48.24 4.5 0 6.42-1.32 7.32-3.84.6-1.68.72-3.48 1.02-10.56 5.64-.66 8.4-.9 11.04-1.02z"/><path d="m859.916 136.94c-5.1 0-9.3 4.08-9.3 9.24 0 5.1 4.2 9.3 9.3 9.3 5.1-.06 9.24-4.2 9.24-9.3 0-5.16-4.2-9.24-9.24-9.24zm0 2.88c3.48 0 6.36 2.82 6.36 6.36s-2.82 6.36-6.36 6.36c-3.54.06-6.42-2.82-6.42-6.36s2.94-6.36 6.42-6.36z"/></g><path d="m115.93 139.664-5.903 13.571h-7.396l22.053-50.892h7.397l22.053 50.892h-7.396l-5.835-13.571zm21.986-6.786-9.501-21.985-9.5 21.985z" fill="#00beff"/><path d="m167.031 102.342v50.892h-6.786v-50.892z" fill="#00beff"/><path d="m185.353 137.966v15.268h-6.786v-50.892h20.357c4.953 0 9.161 1.765 12.623 5.224 3.461 3.462 5.224 7.6 5.224 12.553 0 4.138-1.29 7.804-3.869 11.062-2.511 3.19-5.699 5.224-9.568 6.242l12.553 15.811h-8.754l-12.08-15.268zm13.571-28.839h-13.571v22.054h13.571c3.054 0 5.699-1.086 7.804-3.258 2.172-2.172 3.258-4.749 3.258-7.804 0-3.054-1.086-5.631-3.258-7.804-2.105-2.102-4.75-3.188-7.804-3.188z" fill="#00beff"/><path d="m252.466 139.663-5.904 13.571h-7.396l22.053-50.894h7.397l22.053 50.894h-7.396l-5.835-13.571zm21.987-6.785-9.5-21.986-9.501 21.986z" fill="#0076a9"/><path d="m311.033 153.234c-4.682 0-8.687-1.629-12.01-4.953-3.326-3.325-4.953-7.328-4.953-12.009 0-4.684 1.629-8.686 4.953-12.012 3.326-3.326 7.328-4.953 12.01-4.953 3.733 0 7.124 1.154 10.179 3.394v-20.359h6.785v50.892h-3.393l-3.394-3.394c-2.985 2.243-6.379 3.394-10.177 3.394zm0-6.785c2.782 0 5.224-1.018 7.192-2.987 1.969-1.968 2.987-4.41 2.987-7.193 0-2.782-1.018-5.224-2.987-7.192-1.968-1.969-4.412-2.987-7.192-2.987-2.783 0-5.225 1.018-7.193 2.987-1.969 1.968-2.987 4.412-2.987 7.192 0 2.781 1.018 5.225 2.987 7.193 1.966 1.969 4.41 2.987 7.193 2.987z" fill="#0076a9"/><path d="m358.536 153.234h-6.786v-50.892h6.786l18.661 18.662 18.662-18.662h6.786v50.892h-6.786v-41.256l-18.662 18.662-18.661-18.662z" fill="#0076a9"/><path d="m426.395 119.307c4.681 0 8.686 1.629 12.012 4.953 3.326 3.326 4.953 7.328 4.953 12.012 0 4.681-1.629 8.686-4.953 12.01-3.326 3.326-7.329 4.952-12.012 4.952-4.684 0-8.686-1.629-12.01-4.952-3.326-3.326-4.953-7.329-4.953-12.01 0-4.684 1.629-8.686 4.953-12.012s7.328-4.953 12.01-4.953zm0 27.142c2.783 0 5.224-1.018 7.193-2.987 1.968-1.968 2.986-4.409 2.986-7.192s-1.018-5.225-2.986-7.193c-1.969-1.969-4.412-2.987-7.193-2.987s-5.224 1.018-7.193 2.987c-1.968 1.968-2.986 4.412-2.986 7.193 0 2.78 1.018 5.224 2.986 7.192 1.969 1.969 4.41 2.987 7.193 2.987z" fill="#0076a9"/><path d="m452.658 119.307 11.062 25.379 10.994-25.379h7.329l-14.658 33.93h-7.396l-14.725-33.93z" fill="#0076a9"/><path d="m490.797 102.342c1.154 0 2.172.407 2.918 1.222.815.746 1.222 1.764 1.222 2.918s-.407 2.105-1.222 2.851c-.814.815-1.764 1.222-2.918 1.222s-2.104-.407-2.851-1.222c-.815-.746-1.222-1.697-1.222-2.851s.407-2.104 1.222-2.918c.747-.815 1.697-1.222 2.851-1.222zm3.394 16.965v33.927h-6.786v-33.927z" fill="#0076a9"/><path d="m525.134 143.464 4.817 4.818c-3.326 3.326-7.329 4.952-12.012 4.952-4.684 0-8.686-1.629-12.01-4.952-3.326-3.326-4.953-7.329-4.953-12.01 0-4.684 1.629-8.686 4.953-12.012 3.326-3.326 7.328-4.953 12.01-4.953 4.681 0 8.686 1.629 12.012 4.953 4.274 4.342 5.835 9.5 4.681 15.403h-26.33c.543 1.426 1.358 2.715 2.444 3.799 1.968 1.969 4.41 2.987 7.193 2.987s5.226-1.018 7.195-2.985zm-14.386-14.387c-1.086 1.154-1.9 2.376-2.443 3.801h19.272c-.475-1.425-1.289-2.647-2.443-3.801-1.969-1.969-4.412-2.987-7.193-2.987s-5.224 1.021-7.193 2.987z" fill="#0076a9"/><path d="m107.79 84.1272c-1.396.2079-1.882.3012-2.923.5345-3.072.6979-8.4084 2.3184-12.0419 3.6569-17.2406 6.3506-29.3883 20.5324-41.0906 34.2134-13.571 15.867-28.5717 25.656-48.93248 30.541-.59392.14-2.80202.583-2.80202.583s2.11901.344 6.88945.344c23.79275 0 48.92615-2.887 67.88485-23.853 10.6162-11.526 14.7143-27.738 25.4977-38.7486 2.775-2.8274 5.076-4.6283 7.732-6.5373.602-.4327 1.22-.8442 1.22-.8442s-.179-.0806-1.434.1103z" fill="url(#a)"/></svg>