<svg fill="none" height="46" viewBox="0 0 46 46" width="46" xmlns="http://www.w3.org/2000/svg"><path d="m29.929 34.979c-8.3723 5.175-18.2845 4.3125-22.13383-1.8208-1.53975-2.3958-1.92468-5.3666-1.15481-8.4333 1.05857-4.6 4.61924-9.1041 9.43094-12.075 4.8117-2.97078 10.3933-4.02495 15.1088-2.97078 3.1757.76668 5.5816 2.39578 7.1213 4.79168 3.7531 6.1333 0 15.3332-8.3724 20.5082zm1.5398-27.02488c-5.1967-1.24583-11.1632 0-16.3598 3.16248-5.29291 3.2583-8.94981 8.05-10.20086 13.225-.8661 3.6416-.38493 6.9958 1.34728 9.7749 4.33058 6.9958 15.39748 8.05 24.63598 2.3959 9.2384-5.6542 13.184-16.0042 8.8535-23-1.8284-2.7791-4.6192-4.79161-8.2761-5.55828z" fill="#004097"/><path d="m9.52734 30.9546c3.65686 0 21.07526-6.5166 20.69036-11.4999-.3849-4.6958-10.4895.0958-13.6653 1.6291l.385-3.8333c2.2134-1.725 16.3598-7.85828 18.6694-.6708 2.887 9.0083-18.477 14.9499-26.07946 14.3749z" fill="#004097"/><path d="m16.2637 23.0963c1.9247 0 3.4645-1.5334 3.4645-3.45 0-1.9167-1.5398-3.45-3.4645-3.45-1.9246 0-3.4644 1.5333-3.4644 3.45 0 1.9166 1.5398 3.45 3.4644 3.45z" fill="#8b92c7"/><path d="m18.7655 36.7046c0-3.2583 0-9.2 0-9.2958 0-1.4375-1.1548-2.5875-2.5983-2.5875s-2.5984 1.15-2.5984 2.5875v8.6249c1.636.4792 3.4645.6709 5.1967.6709z" fill="#8b92c7"/><path d="m2.79079 19.9329c-.09623.0958-.09623.1916-.19247.3833-.19247.575-.19247.8625-.19247 1.15h-.67364c0-.3833 0-.8625.38494-1.725zm.2887 1.4375c.09624.0958.19247.2875.28871.2875.19246.0958.38493-.0959.48117-.4792.09623-.2875.19246-.575.2887-.8625l.67364.2875c0 .0958-.09624.1917-.19247.4792-.19247.575-.38494.8625-.57741 1.0541-.09623.0959-.38493.2875-.76987.0959-.2887-.0959-.48117-.3834-.67364-.575zm-2.790788-.0959c.192469.0959.288703.0959.481171.1917l.288707-.8625.67363.2875-.38493.9583c1.05857.575 1.63598.9584 2.50209 1.6292l-.57741.4792c-.5774-.575-1.73221-1.2459-2.21338-1.5334l-.192473.4792-.673639-.2875.288703-.575c-.192469-.0958-.288703-.0958-.481171-.1917z" fill="#8b92c7"/><path d="m5.96677 17.634c-.09624-.0958-.19247-.0958-.28871-.1916-.48117-.2875-.96234-.4792-1.44351-.6709-.38493-.0958-.76987-.0958-1.05857 0l-.09624-.6708c.57741-.0958 1.05858-.1917 2.02092.2875.48117.1917.86611.4792 1.15481.575zm-3.9456.1917c.38493.2875.76987.575 1.15481.8625.2887.1917.67364.3833.96234.4792.09623 0 .38494.0958.48117 0 .09623-.0959 0-.1917-.09623-.3834-.09624-.0958-.19247-.3833-.38494-.575l.5774-.2875c.28871.2875.96235 1.0542.57741 1.6292-.19247.3833-.67364.3833-.96234.2875-.38494 0-1.05858-.3833-1.53975-.6708-.38494-.2875-.86611-.575-1.15481-.7667z" fill="#8b92c7"/><path d="m5.77408 12.2666c.09623.0958.2887.1917.67364.4792l.38493-.4792.48118.4792-.38494.4791c.67364.575 1.05857.9584.5774 1.5334 0 0-.19246.1916-.48117.3833l-.38493-.3833c.19246-.1917.38493-.2875.38493-.2875.09624-.1917 0-.2875-.48117-.6709l-.76987.9584.76987.575c.57741.4791.57741.4791 1.15481-.1917.28871-.2875.57741-.6708.76988-.9583l.5774.4791c-.09623.1917-.38494.4792-.5774.7667-.48118.575-.86611 1.0542-1.34728.9583-.28871-.0958-.48117-.0958-.96234-.575l-.76988-.6708-.38493.4792-.48117-.4792.38493-.4792-.5774-.575.38493-.4791.57741.4791.76987-.8625c-.38494-.2875-.48117-.3833-.67364-.4791z" fill="#8b92c7"/><path d="m9.23825 13.3214c.2887-.2875.76985-.6708 1.05855-1.0541.1925-.1917.5774-.8625 0-1.5334-.1924-.1916-.38491-.2875-.48115-.2875-.19247 0-.38494 0-.67364.1917-.19247.1917-.5774.6708-.86611 1.0542-.38493.575-.38493.575-.48117.6708l-.67364-.4792c.19247-.1916.28871-.2875.57741-.6708.5774-.6708.76987-.9583.96234-1.15.67364-.575 1.53976-.47916 2.11716.1917.5774.6708.5774 1.4375.3849 1.8208-.2887.575-.6736 1.0542-1.34725 1.5333z" fill="#8b92c7"/><path d="m12.9919 9.10383c0 .2875.0962.47917.0962.575.1925.2875.4812.09583.7699-.09583.2887-.19167.5774-.38334.7699-.575l.3849.575c-.0962.09583-.2887.19166-.5774.4792-.5774.3833-1.3473.8625-1.8285.0958-.1924-.2875-.2887-.575-.2887-.95833zm.1924-2.39582.385.575-1.8285 1.14999-.2887-.47916zm-2.2133 1.24583c.2887.67083.6736 1.34166 1.0585 1.91666.1925.2875.5774.8625 1.0586 1.3417l-.5774.3833c-.3849-.3833-.6736-.8625-.9623-1.2458-.4812-.67087-.8661-1.3417-1.1548-2.01253z" fill="#8b92c7"/><path d="m14.5315 5.6543c.2888.67083.9624 2.10832 1.0586 2.20416.2887.57499.4812.76666.9624.47916.7698-.38333.5774-1.24583.3849-1.82083h.6736c.0963.2875.2887.8625.0963 1.4375-.0963.38333-.2887.67083-.8661.95833-1.0586.67083-1.5398-.09583-2.0209-.95833-.1925-.2875-.8662-1.725-.9624-2.01249z" fill="#8b92c7"/><path d="m19.6319 6.61242c-.0962 0-.1925 0-.2887 0-.1925.09584-.4812.19167-.385.47917.0963.2875.385.19167.4812.09583.2887-.09583.2887-.2875.1925-.38333zm-.8661-2.39582-.0963-.38333.6737-.19167.0962.38333 1.1548-.38333.1925.575-1.1548.38333.0962.2875 1.0586-.38333.2887.67083-1.0586.38333.0963.38333c.4811 0 1.0585.19167 1.3472.38334l-.1924.76666c-.1925-.09583-.5774-.2875-.9624-.38333v.09583c.0963.19167.0963.2875 0 .47917-.0962.19166-.1924.38333-.5774.47916-.6736.19167-1.1548 0-1.3473-.47916-.1924-.575.0963-.95833.7699-1.24583.0962 0 .1925-.09584.2887-.09584l-.0962-.19166-1.3473.47916-.1925-.575 1.3473-.47916-.1925-.38333-1.4435.47916-.1924-.575z" fill="#8b92c7"/><path d="m23.481 4.79205c0-.09583-.0963-.2875-.385-.2875-.0962 0-.2887.09583-.2887.47917 0 .19166.0963.38333.385.38333.1924 0 .2887-.19167.2887-.38333zm-.385-2.10833.6737-.09583.0962.38333 1.0586-.19166.0962.67083-1.0586.19166.1925.95833c.0962.09584.0962.38334.1925.575.0962.67083-.1925 1.05416-.4812 1.24583s-.5774.38333-1.0586.38333l-.2887-.575c.1925 0 .5774-.09583.8661-.28749.2887-.19167.385-.2875.385-.47917-.0963.09583-.0963.19167-.385.19167-.5774.09583-.9623-.2875-1.0585-.76667-.0963-.38333.0962-.95833.7698-1.05416h.2887l-.0962-.19167-1.9247.38334-.0962-.67084 1.8284-.38333z" fill="#8b92c7"/><g fill="#004097"><path d="m29.2553.479165c-.0962 0-.1925.191666-.1925.287499 0 .191666.0963.287496.1925.287496.0963 0 .1925-.191663.1925-.287496 0-.191666-.0962-.287499-.1925-.287499zm0 1.054165c-.2887 0-.4812-.38333-.4812-.766666 0-.383332.1925-.766664.4812-.766664s.4812.383332.4812.766664c0 .479166-.1925.766666-.4812.766666zm-.5774-.766666c0 .862496.3849 1.054166.6737 1.054166-.0963 1.62916-.4812 3.83332-2.5984 4.59998l-.2887-1.05416c1.7322-.38333 2.1172-1.82083 2.2134-3.54582h-2.5983v-1.054166z"/><path d="m33.5861 2.77838c-.4812 2.29999-1.3473 3.73748-3.4645 3.64165v-1.05416c1.4435.09583 2.1172-.47917 2.5021-1.725l-2.5983-.38333.1925-1.05416zm0-1.725-.1925.95833-2.7908-.47916.1925-.958331z"/><path d="m35.1256 7.66743-.6737-.2875 1.0586-2.58749c-.6736.2875-1.2511.38333-1.636.47916v-.95833c.6737-.09583 1.4435-.2875 2.1172-.67083.7698-.38333 1.4435-.95833 1.9246-1.34166l.2888.8625c-.5775.47916-1.0586.86249-1.7323 1.24583z"/><path d="m41.8618 5.84576c.2887-.575.3849-.76666.4811-1.05416l.385.09583c-.1925.47917-.385.8625-.4812 1.05416zm-.4812-.19167c.0962-.19166.3849-.67083.4812-1.05416l.3849.09583c-.0962.19167-.2887.67084-.4812 1.05417zm.1925-.86249c-.1925.38333-.1925.47916-.4812.86249h.0962c-.6736 1.15-1.3472 2.58749-1.5397 3.73749l-.9624.2875c.2887-1.43749.9624-2.87499 2.4059-5.17498zm-5.1004 2.49165c.6736-.38333 1.251-.95832 1.8284-1.53332.8661-.8625 1.3473-1.62916 1.7322-2.10833l.4812.47917c-1.8285 2.39582-2.7908 3.44998-3.9456 4.12082z"/><path d="m40.0335 9.39133c.9624.86247 1.8285 1.34167 4.7155-.19166v.76666c-2.9832 1.62917-4.2343 1.34167-5.4853.28747zm1.7323 0c0-.47916 0-.95833-.1925-1.43749l.8661-.38334c.0962.2875.1925.8625.1925 1.4375zm1.4435-.76666c0-.575-.0963-1.05417-.1925-1.4375l.8661-.47916c.1925.38333.2887.95833.2887 1.43749z"/><path d="m46.0001 14.6627-1.0585.3834-1.4436-3.3542 1.0586-.3833z"/><path d="m10.6821 43.2207c0-1.3417.7699-1.4375 1.0586-1.4375.5774 0 1.0586.4792 1.0586 1.3417 0 .6708-.385 1.0541-.6737 1.3416-.3849.3834-.6736.575-.6736.7667h1.3473v.7667h-2.1172c0-.4792.0963-.9584.7699-1.6292.5774-.575.7699-.7667.7699-1.2458 0-.2875-.0963-.575-.385-.575-.3849 0-.4811.4791-.4811.7666h-.6737z"/><path d="m14.0503 42.4542c.6736 0 .8661-.3834.8661-.7667h.4812v4.2167h-.5774v-2.875h-.7699z"/><path d="m17.0337 43.8917c0 1.4375.3849 2.1083 1.0586 2.1083.7698 0 1.0585-.6708 1.0585-2.1083s-.3849-2.1083-1.0585-2.1083c-.6737-.0959-1.0586.575-1.0586 2.1083zm.6736 0c0-1.0542.0963-1.5333.4812-1.5333s.4812.3833.4812 1.5333c0 1.0542-.0963 1.5333-.4812 1.5333-.3849-.0958-.4812-.4791-.4812-1.5333z"/><path d="m20.209 43.8917c0 1.4375.3849 2.1083 1.0586 2.1083.7698 0 1.0585-.6708 1.0585-2.1083s-.3849-2.1083-1.0585-2.1083c-.6737-.0959-1.0586.575-1.0586 2.1083zm.6736 0c0-1.0542.0963-1.5333.4812-1.5333s.4812.3833.4812 1.5333c0 1.0542-.0963 1.5333-.4812 1.5333-.3849-.0958-.4812-.4791-.4812-1.5333z"/><path d="m23.3848 43.8917c0 1.4375.3849 2.1083 1.0585 2.1083.7699 0 1.0586-.6708 1.0586-2.1083s-.3849-2.1083-1.0586-2.1083c-.6736-.0959-1.0585.575-1.0585 2.1083zm.6736 0c0-1.0542.0962-1.5333.4812-1.5333.3849 0 .4811.3833.4811 1.5333 0 1.0542-.0962 1.5333-.4811 1.5333-.385-.0958-.4812-.4791-.4812-1.5333z"/><path d="m26.6568 44.8501c.0962.6708.4812 1.0542.9623 1.0542.5774 0 1.1548-.4792 1.1548-2.1083 0-.575 0-2.2042-1.1548-2.2042-.5774 0-1.0586.4792-1.0586 1.5333 0 .6709.385 1.3417.9624 1.3417.1925 0 .4812-.0958.5774-.3833 0 .8625-.2887 1.1499-.4812 1.1499-.1924 0-.2887-.0958-.3849-.3833zm.5774-1.8208c0-.575.2887-.6708.4812-.6708.2887 0 .4811.2875.4811.7666 0 .4792-.2887.6709-.4811.6709-.2887 0-.4812-.0959-.4812-.7667z"/><path d="m29.8325 43.2207c0-1.3417.7699-1.4375 1.0586-1.4375.5774 0 1.0586.4792 1.0586 1.3417 0 .6708-.385 1.0541-.6737 1.3416-.3849.3834-.6736.575-.6736.7667h1.3473v.7667h-2.1172c0-.4792.0963-.9584.7699-1.6292.5774-.575.7699-.7667.7699-1.2458 0-.2875-.0963-.575-.385-.575-.3849 0-.4811.4791-.4811.7666h-.6737z"/><path d="m33.0083 43.8917c0 1.4375.3849 2.1083 1.0586 2.1083.7698 0 1.0586-.6708 1.0586-2.1083s-.385-2.1083-1.0586-2.1083c-.7699-.0959-1.0586.575-1.0586 2.1083zm.5774 0c0-1.0542.0962-1.5333.4812-1.5333.3849 0 .4811.3833.4811 1.5333 0 1.0542-.0962 1.5333-.4811 1.5333-.385-.0958-.4812-.4791-.4812-1.5333z"/></g></svg>