<svg width="690" height="140" viewBox="0 0 690 140" fill="none" xmlns="http://www.w3.org/2000/svg">
<rect width="690" height="140" rx="70" fill="#E92923"/>
<path d="M592.893 83.8131C593.163 83.9519 593.466 84.0154 593.769 83.9968C594.072 83.9782 594.365 83.8782 594.615 83.7075L616.282 68.8567C616.504 68.7048 616.685 68.5021 616.81 68.2659C616.935 68.0297 617 67.767 617 67.5003C617 67.2337 616.935 66.971 616.81 66.7347C616.685 66.4985 616.504 66.2958 616.282 66.1439L594.615 51.2932C594.365 51.1219 594.072 51.0216 593.769 51.0031C593.465 50.9846 593.163 51.0487 592.893 51.1884C592.624 51.3281 592.398 51.5381 592.241 51.7957C592.083 52.0532 592 52.3485 592 52.6495V82.3511C592 82.6523 592.083 82.9478 592.241 83.2055C592.398 83.4632 592.624 83.6733 592.893 83.8131Z" fill="#FCED68"/>
<path d="M87.228 79.254C87.228 77.826 88.866 76.65 91.848 76.65C93.024 76.65 94.158 76.776 95.292 76.944C95.334 77.7 95.334 78.288 95.334 78.75C95.334 81.186 93.864 81.816 91.638 81.816C88.74 81.816 87.228 80.85 87.228 79.254ZM100.374 50.022H94.704C94.872 50.82 94.956 52.122 94.956 52.92C94.956 53.424 94.956 54.096 94.956 54.894C94.41 54.894 93.864 54.894 93.318 54.894C90.756 54.894 85.968 54.474 82.944 53.97L83.07 58.758C85.842 59.136 90.714 59.514 93.36 59.514C93.864 59.514 94.368 59.514 94.914 59.514C94.872 60.942 94.872 62.454 94.872 63.84C94.2 63.84 93.528 63.84 92.856 63.84C90.63 63.84 85.464 63.546 82.734 63.042L82.776 67.998C85.548 68.334 90.336 68.544 92.772 68.544C93.528 68.544 94.242 68.544 94.956 68.544C94.998 69.804 95.04 71.148 95.124 72.45C94.284 72.366 93.402 72.324 92.52 72.324C86.052 72.324 82.146 75.306 82.146 79.548C82.146 84 85.674 86.562 92.394 86.562C97.938 86.562 100.668 83.79 100.668 80.22C100.668 79.758 100.668 79.254 100.626 78.666C103.986 80.178 106.842 82.404 109.11 84.504L112.134 79.8C109.698 77.784 105.666 74.97 100.374 73.458C100.248 71.778 100.164 70.056 100.08 68.46C104.112 68.334 107.388 68.04 111.168 67.62L111.21 62.664C107.808 63.126 104.238 63.462 99.996 63.672C99.996 62.37 99.996 60.816 99.996 59.346C104.07 59.136 107.892 58.758 110.664 58.422L110.706 53.592C107.01 54.222 103.524 54.558 100.08 54.726C100.08 54.054 100.08 53.424 100.122 53.004C100.164 51.912 100.248 50.862 100.374 50.022ZM133.806 70.854C133.806 68.628 135.444 67.536 136.998 67.536C138.174 67.536 139.182 67.998 139.77 69.006C140.316 72.702 138.804 74.046 137.04 74.046C135.36 74.046 133.806 72.786 133.806 70.854ZM149.766 49.476L146.322 50.904C147.33 52.416 148.212 54.054 149.052 55.65C147.33 55.65 145.566 55.65 144.012 55.65C144.012 55.146 144.054 54.684 144.054 54.348C144.096 53.676 144.222 51.408 144.348 50.736H138.3C138.384 51.282 138.552 52.71 138.678 54.39C138.72 54.726 138.72 55.146 138.72 55.692C133.05 55.776 125.406 55.944 120.618 55.986L120.744 61.068C125.91 60.774 132.462 60.48 138.804 60.396C138.846 61.32 138.846 62.286 138.846 63.21C138.3 63.126 137.754 63.084 137.166 63.084C132.588 63.084 128.724 66.234 128.724 70.98C128.724 76.062 132.756 78.666 135.99 78.666C136.704 78.666 137.334 78.582 137.922 78.456C135.612 80.976 131.874 82.362 127.632 83.244L132.084 87.738C142.374 84.84 145.608 77.91 145.608 72.408C145.608 70.182 145.062 68.166 144.012 66.57C144.012 64.722 144.012 62.496 143.97 60.354C149.64 60.354 153.63 60.48 156.15 60.606L156.192 55.608C154.932 55.608 152.496 55.608 149.808 55.65L152.706 54.432C151.95 52.962 150.816 50.988 149.766 49.476ZM155.394 48.3L151.908 49.728C153 51.24 154.008 53.004 154.848 54.684L158.376 53.214C157.578 51.66 156.444 49.812 155.394 48.3ZM180.888 78.54C180.888 76.944 182.484 75.936 184.878 75.936C186.012 75.936 187.146 76.104 188.238 76.398C188.238 76.692 188.238 76.944 188.238 77.154C188.238 79.632 187.356 80.976 184.794 80.976C182.568 80.976 180.888 80.262 180.888 78.54ZM193.362 51.114H187.356C187.524 51.954 187.65 53.256 187.65 53.886C187.65 54.768 187.692 56.49 187.692 58.548C186.726 58.59 185.718 58.59 184.752 58.59C182.232 58.59 179.796 58.464 177.402 58.212V63.21C179.88 63.378 182.274 63.462 184.752 63.462C185.718 63.462 186.726 63.462 187.734 63.42C187.776 66.402 187.944 69.468 188.028 72.072C187.188 71.946 186.264 71.904 185.298 71.904C179.586 71.904 175.974 74.844 175.974 79.086C175.974 83.496 179.586 85.932 185.382 85.932C191.052 85.932 193.32 83.076 193.572 79.044C195.252 80.178 196.932 81.648 198.696 83.286L201.594 78.876C199.578 77.028 196.932 74.886 193.446 73.458C193.278 70.602 193.068 67.242 192.984 63.168C195.294 63 197.478 62.748 199.494 62.454V57.204C197.478 57.624 195.294 57.96 192.984 58.17C193.026 56.322 193.068 54.768 193.11 53.844C193.152 52.92 193.236 51.912 193.362 51.114ZM172.866 51.576L167.07 51.072C167.028 52.416 166.818 54.012 166.65 55.188C166.188 58.422 164.928 66.36 164.928 72.702C164.928 78.414 165.726 83.202 166.608 86.142L171.354 85.764C171.312 85.176 171.27 84.462 171.27 84.042C171.27 83.58 171.354 82.656 171.48 82.068C171.984 79.8 173.328 75.516 174.504 72.072L171.942 69.972C171.312 71.4 170.598 72.828 170.052 74.298C169.926 73.458 169.884 72.408 169.884 71.568C169.884 67.368 171.27 58.128 171.9 55.314C172.026 54.558 172.53 52.416 172.866 51.576ZM218.31 52.08C216.21 51.072 212.22 49.728 209.448 49.056L207.264 52.458C210.162 53.298 214.11 54.81 216.042 55.86L218.31 52.08ZM215.916 75.768H234.102V77.616H215.916V75.768ZM215.916 71.148H234.102V72.954H215.916V71.148ZM215.916 66.528H234.102V68.334H215.916V66.528ZM222.72 63.546C226.584 62.454 228.936 60.984 230.406 59.01C231.666 60.816 233.598 62.37 236.832 63.546H222.72ZM239.184 80.598V64.26C240.024 64.47 240.948 64.638 241.956 64.806C242.418 63.588 243.51 61.656 244.434 60.732C235.95 59.724 233.556 57.414 232.674 54.726H237.336C236.79 55.608 236.202 56.406 235.698 57.036L239.562 58.254C240.948 56.7 242.46 54.18 243.552 51.912L240.234 51.072L239.478 51.198H227.088C227.508 50.526 227.844 49.854 228.18 49.14L223.77 48.426C222.678 50.862 220.62 53.634 217.596 55.734C218.73 56.196 220.452 57.204 221.334 58.086C222.636 57.036 223.728 55.902 224.694 54.726H227.718C226.794 57.708 224.568 59.514 217.89 60.606L217.47 56.826C213.018 57.876 208.524 58.926 205.416 59.514L207.264 63.882C210.414 63 214.32 61.866 217.932 60.816L217.89 60.648C218.562 61.32 219.36 62.538 219.864 63.546H211.086V80.598H217.26C214.362 82.026 209.784 83.37 205.71 84.126C206.76 85.008 208.524 86.814 209.406 87.78C213.648 86.604 219.024 84.546 222.51 82.278L218.688 80.598H230.952L227.172 82.782C231.414 84.378 235.698 86.352 238.092 87.738L243.888 85.512C241.032 84.126 236.202 82.11 231.918 80.598H239.184ZM276.858 55.776C275.514 54.222 272.532 52.08 270.18 50.694L267.786 54.054C270.096 55.608 272.994 57.876 274.296 59.514L276.858 55.776ZM265.854 64.596C268.29 66.066 271.356 68.292 272.742 69.846L275.262 65.856C273.75 64.344 270.642 62.328 268.206 61.026L265.854 64.596ZM262.074 50.736C261.612 53.676 260.604 57.918 259.764 60.564L262.914 61.446C263.964 59.01 265.182 55.02 266.274 51.66L262.074 50.736ZM253.926 60.564C253.716 57.96 252.876 53.97 251.784 50.946L248.298 51.87C249.264 54.894 250.104 58.968 250.188 61.572L253.926 60.564ZM265.392 74.382C264.51 73.206 260.52 68.502 259.302 67.284V66.99H265.518V62.328H259.302V48.594H254.682V62.328H248.34V66.99H253.128C251.826 70.812 249.684 75.306 247.584 77.868C248.34 79.254 249.432 81.522 249.852 83.034C251.658 80.514 253.338 76.608 254.682 72.702V87.528H259.302V72.786C260.52 74.718 261.696 76.902 262.326 78.246L265.392 74.382ZM287.61 75.348L286.854 70.686L282.57 71.484V48.384H277.866V72.324L265.392 74.55L266.148 79.212L277.866 77.112V87.612H282.57V76.272L287.61 75.348ZM322.218 49.518L318.9 50.862C319.824 52.206 320.832 54.054 321.63 55.65C320.706 55.902 319.488 56.028 318.354 56.028H309.786C310.29 55.104 311.382 53.214 312.39 51.744L306.3 49.854C305.922 51.282 305.04 53.214 304.41 54.222C302.268 57.876 298.362 63.63 291.012 68.166L295.548 71.694C299.79 68.754 303.696 64.722 306.636 60.816H318.648C318.018 63.42 316.212 67.032 314.07 70.098C311.382 68.292 308.736 66.57 306.51 65.31L302.772 69.132C304.914 70.518 307.686 72.408 310.416 74.382C306.972 77.91 302.31 81.312 295.044 83.538L299.916 87.78C306.468 85.302 311.214 81.732 314.91 77.826C316.632 79.212 318.186 80.514 319.32 81.564L323.352 76.818C322.092 75.81 320.454 74.592 318.648 73.29C321.672 69.09 323.772 64.596 324.864 61.194C325.242 60.144 325.788 59.01 326.25 58.17L323.184 56.28L325.536 55.272C324.78 53.718 323.268 51.03 322.218 49.518ZM327.174 47.586L323.856 48.972C325.032 50.568 326.376 53.004 327.258 54.768L330.576 53.298C329.82 51.828 328.266 49.182 327.174 47.586ZM356.364 49.686H349.896C350.19 51.492 350.232 52.374 350.232 53.55V56.784H341.244C339.648 56.784 338.388 56.742 336.96 56.574C337.128 57.582 337.17 59.262 337.17 60.186V67.452C337.17 68.586 337.086 69.93 336.96 70.98H342.756C342.672 70.14 342.63 68.838 342.63 67.872V61.74H363.462C362.958 65.478 361.866 69.468 359.724 72.534C357.372 75.936 353.676 78.414 350.19 79.716C348.468 80.388 346.158 81.018 344.268 81.354L348.636 86.394C356.112 84.462 362.412 80.01 365.772 73.794C367.83 69.972 368.964 65.94 369.678 61.908C369.846 61.068 370.182 59.472 370.518 58.548L366.864 56.322C366.15 56.574 365.142 56.784 363.378 56.784H356.07V53.55C356.07 52.374 356.154 51.492 356.364 49.686ZM385.302 52.08L381.354 56.28C384.42 58.422 389.67 63 391.854 65.352L396.138 60.984C393.702 58.422 388.242 54.054 385.302 52.08ZM380.052 80.052L383.58 85.596C389.502 84.588 394.92 82.236 399.162 79.674C405.924 75.6 411.51 69.804 414.702 64.134L411.426 58.212C408.78 63.882 403.32 70.308 396.138 74.55C392.064 76.986 386.604 79.128 380.052 80.052ZM423.312 54.222C423.396 55.398 423.396 57.12 423.396 58.296V78.834C423.396 80.85 423.27 84.504 423.27 84.714H429.066C429.066 84.588 429.066 83.622 429.024 82.446H449.268C449.268 83.664 449.226 84.63 449.226 84.714H455.022C455.022 84.546 454.938 80.514 454.938 78.876V58.296C454.938 57.036 454.938 55.482 455.022 54.222C453.51 54.306 451.914 54.306 450.864 54.306H427.764C426.63 54.306 425.034 54.264 423.312 54.222ZM429.024 59.64H449.31V77.07H429.024V59.64ZM464.724 64.554V71.148C466.278 71.022 469.092 70.938 471.486 70.938H494.04C495.804 70.938 497.946 71.106 498.954 71.148V64.554C497.862 64.638 496.014 64.806 494.04 64.806H471.486C469.302 64.806 466.236 64.68 464.724 64.554ZM532.344 52.752L528.816 54.222C530.37 56.406 531.294 58.086 532.512 60.732L536.166 59.094C535.2 57.204 533.52 54.516 532.344 52.752ZM537.846 50.442L534.36 52.08C535.914 54.18 536.922 55.734 538.266 58.38L541.794 56.658C540.828 54.768 539.064 52.122 537.846 50.442ZM515.586 80.598C515.586 82.236 515.418 84.798 515.166 86.436H521.76C521.55 84.714 521.34 81.774 521.34 80.598V68.712C525.876 70.224 532.176 72.66 536.544 74.97L538.896 69.132C535.032 67.242 526.926 64.26 521.34 62.58V56.448C521.34 54.684 521.55 52.836 521.718 51.366H515.166C515.46 52.878 515.586 54.936 515.586 56.448V80.598Z" fill="white"/>
</svg>
