<svg width="759" height="141" viewBox="0 0 759 141" fill="none" xmlns="http://www.w3.org/2000/svg">
<rect width="759" height="141" rx="70.5" fill="#E92923"/>
<path d="M674.893 89.8131C675.163 89.9519 675.466 90.0154 675.769 89.9968C676.072 89.9782 676.365 89.8782 676.615 89.7075L698.282 74.8567C698.504 74.7048 698.685 74.5021 698.81 74.2659C698.935 74.0297 699 73.767 699 73.5003C699 73.2337 698.935 72.971 698.81 72.7347C698.685 72.4985 698.504 72.2958 698.282 72.1439L676.615 57.2932C676.365 57.1219 676.072 57.0216 675.769 57.0031C675.465 56.9846 675.163 57.0487 674.893 57.1884C674.624 57.3281 674.398 57.5381 674.241 57.7957C674.083 58.0532 674 58.3485 674 58.6495V88.3511C674 88.6523 674.083 88.9478 674.241 89.2055C674.398 89.4632 674.624 89.6733 674.893 89.8131Z" fill="#FCED68"/>
<path d="M82.542 85.0597C82.542 83.2723 84.5922 81.8004 88.3246 81.8004C89.7965 81.8004 91.2159 81.9581 92.6353 82.1684C92.6879 83.1146 92.6879 83.8506 92.6879 84.4288C92.6879 87.4779 90.8479 88.2664 88.0618 88.2664C84.4345 88.2664 82.542 87.0573 82.542 85.0597ZM98.9962 48.4715H91.8993C92.1096 49.4703 92.2147 51.1 92.2147 52.0988C92.2147 52.7296 92.2147 53.5707 92.2147 54.5695C91.5313 54.5695 90.8479 54.5695 90.1645 54.5695C86.9578 54.5695 80.9649 54.0438 77.1799 53.413L77.3376 59.4059C80.8072 59.879 86.9052 60.3521 90.2171 60.3521C90.8479 60.3521 91.4788 60.3521 92.1622 60.3521C92.1096 62.1395 92.1096 64.032 92.1096 65.7668C91.2685 65.7668 90.4274 65.7668 89.5863 65.7668C86.8001 65.7668 80.3341 65.3988 76.9171 64.768L76.9697 70.9711C80.4392 71.3917 86.4321 71.6545 89.4811 71.6545C90.4274 71.6545 91.3211 71.6545 92.2147 71.6545C92.2673 73.2316 92.3199 74.9138 92.425 76.5435C91.3736 76.4383 90.2697 76.3858 89.1657 76.3858C81.0701 76.3858 76.1811 80.1182 76.1811 85.4277C76.1811 91 80.5969 94.2067 89.008 94.2067C95.9471 94.2067 99.3641 90.7372 99.3641 86.2688C99.3641 85.6905 99.3641 85.0597 99.3116 84.3237C103.517 86.2162 107.092 89.0024 109.931 91.6308L113.716 85.7431C110.667 83.2198 105.62 79.6976 98.9962 77.8051C98.8385 75.7024 98.7333 73.547 98.6282 71.5494C103.675 71.3917 107.775 71.0237 112.506 70.498L112.559 64.2948C108.301 64.8731 103.833 65.2936 98.523 65.5565C98.523 63.9268 98.523 61.9818 98.523 60.1419C103.622 59.879 108.406 59.4059 111.876 58.9853L111.928 52.9399C107.302 53.7284 102.939 54.149 98.6282 54.3592C98.6282 53.5181 98.6282 52.7296 98.6807 52.2039C98.7333 50.8371 98.8385 49.5229 98.9962 48.4715ZM140.841 74.5458C140.841 71.7597 142.891 70.3929 144.837 70.3929C146.308 70.3929 147.57 70.9711 148.306 72.2328C148.989 76.8589 147.097 78.5411 144.889 78.5411C142.786 78.5411 140.841 76.964 140.841 74.5458ZM160.818 47.7881L156.507 49.5754C157.769 51.4679 158.873 53.5181 159.924 55.5158C157.769 55.5158 155.561 55.5158 153.616 55.5158C153.616 54.8849 153.668 54.3067 153.668 53.8861C153.721 53.045 153.878 50.2063 154.036 49.3652H146.466C146.571 50.0486 146.782 51.8359 146.939 53.9387C146.992 54.3592 146.992 54.8849 146.992 55.5683C139.895 55.6735 130.327 55.8838 124.335 55.9363L124.492 62.2972C130.958 61.9292 139.159 61.5612 147.097 61.4561C147.15 62.6126 147.15 63.8217 147.15 64.9782C146.466 64.8731 145.783 64.8205 145.047 64.8205C139.317 64.8205 134.48 68.7632 134.48 74.7035C134.48 81.0644 139.527 84.3237 143.575 84.3237C144.469 84.3237 145.257 84.2186 145.993 84.0609C143.102 87.215 138.423 88.9498 133.114 90.0538L138.686 95.6787C151.565 92.0514 155.613 83.3775 155.613 76.4909C155.613 73.7047 154.93 71.1814 153.616 69.1838C153.616 66.8707 153.616 64.0846 153.563 61.4035C160.66 61.4035 165.654 61.5612 168.808 61.7189L168.861 55.4632C167.284 55.4632 164.235 55.4632 160.87 55.5158L164.497 53.9913C163.551 52.1513 162.132 49.6806 160.818 47.7881ZM167.862 46.3162L163.499 48.1035C164.865 49.996 166.127 52.2039 167.178 54.3067L171.594 52.4668C170.595 50.5217 169.176 48.2087 167.862 46.3162ZM199.771 84.166C199.771 82.1684 201.769 80.9067 204.765 80.9067C206.185 80.9067 207.604 81.117 208.971 81.485C208.971 81.853 208.971 82.1684 208.971 82.4312C208.971 85.5328 207.867 87.215 204.66 87.215C201.874 87.215 199.771 86.3213 199.771 84.166ZM215.384 49.8383H207.867C208.077 50.8897 208.235 52.5193 208.235 53.3079C208.235 54.4118 208.288 56.5672 208.288 59.143C207.078 59.1956 205.817 59.1956 204.608 59.1956C201.454 59.1956 198.405 59.0379 195.408 58.7225V64.9782C198.51 65.1885 201.506 65.2936 204.608 65.2936C205.817 65.2936 207.078 65.2936 208.34 65.2411C208.393 68.9735 208.603 72.811 208.708 76.0703C207.657 75.9126 206.5 75.8601 205.291 75.8601C198.142 75.8601 193.621 79.5399 193.621 84.8494C193.621 90.3692 198.142 93.4182 205.396 93.4182C212.493 93.4182 215.332 89.8435 215.647 84.7968C217.75 86.2162 219.853 88.0561 222.061 90.1063L225.688 84.5866C223.165 82.2735 219.853 79.5925 215.49 77.8051C215.279 74.2304 215.016 70.0249 214.911 64.9257C217.803 64.7154 220.536 64.4 223.06 64.032V57.4608C220.536 57.9865 217.803 58.4071 214.911 58.6699C214.964 56.3569 215.016 54.4118 215.069 53.2553C215.122 52.0988 215.227 50.8371 215.384 49.8383ZM189.731 50.4166L182.476 49.7857C182.424 51.4679 182.161 53.4656 181.95 54.9375C181.372 58.9853 179.795 68.9209 179.795 76.8589C179.795 84.0083 180.794 90.0012 181.898 93.681L187.838 93.2079C187.786 92.4719 187.733 91.5783 187.733 91.0526C187.733 90.4743 187.838 89.3178 187.996 88.5818C188.627 85.7431 190.309 80.381 191.781 76.0703L188.574 73.4419C187.786 75.2292 186.892 77.0166 186.209 78.8565C186.051 77.8051 185.998 76.4909 185.998 75.4395C185.998 70.1826 187.733 58.6174 188.522 55.0952C188.679 54.149 189.31 51.4679 189.731 50.4166ZM246.611 51.0474C243.982 49.7857 238.988 48.1035 235.518 47.2624L232.785 51.5205C236.412 52.5719 241.354 54.4644 243.772 55.7786L246.611 51.0474ZM243.614 80.6964H266.377V83.0095H243.614V80.6964ZM243.614 74.9138H266.377V77.1743H243.614V74.9138ZM243.614 69.1312H266.377V71.3917H243.614V69.1312ZM252.13 65.3988C256.967 64.032 259.911 62.1921 261.75 59.7213C263.328 61.9818 265.746 63.9268 269.794 65.3988H252.13ZM272.737 86.7419V66.2925C273.789 66.5553 274.945 66.7656 276.207 66.9759C276.785 65.4514 278.152 63.0332 279.309 61.8766C268.69 60.615 265.693 57.7237 264.589 54.3592H270.424C269.741 55.4632 269.005 56.462 268.374 57.2506L273.211 58.7751C274.945 56.83 276.838 53.6758 278.205 50.8371L274.052 49.7857L273.105 49.9434H257.598C258.123 49.1023 258.544 48.2612 258.964 47.3675L253.445 46.4739C252.078 49.5229 249.502 52.9924 245.717 55.6209C247.136 56.1992 249.292 57.4608 250.396 58.5648C252.025 57.2506 253.392 55.8312 254.601 54.3592H258.386C257.23 58.0917 254.443 60.3521 246.085 61.7189L245.559 56.9877C239.987 58.3019 234.362 59.6162 230.472 60.3521L232.785 65.8193C236.728 64.7154 241.616 63.296 246.137 61.9818L246.085 61.7715C246.926 62.6126 247.925 64.1371 248.556 65.3988H237.569V86.7419H245.296C241.669 88.5292 235.939 90.2115 230.84 91.1577C232.154 92.2617 234.362 94.5221 235.466 95.7312C240.775 94.2593 247.504 91.6834 251.867 88.8447L247.084 86.7419H262.434L257.703 89.4755C263.012 91.4731 268.374 93.9439 271.371 95.6787L278.625 92.8925C275.051 91.1577 269.005 88.6344 263.643 86.7419H272.737ZM319.892 55.6735C318.21 53.7284 314.477 51.0474 311.534 49.3126L308.537 53.5181C311.428 55.4632 315.056 58.3019 316.685 60.3521L319.892 55.6735ZM306.119 66.713C309.168 68.5529 313.005 71.3391 314.74 73.2842L317.894 68.2901C316.002 66.3976 312.112 63.8743 309.063 62.2446L306.119 66.713ZM301.388 49.3652C300.809 53.045 299.548 58.3545 298.496 61.6664L302.439 62.7703C303.753 59.7213 305.278 54.7272 306.645 50.5217L301.388 49.3652ZM291.189 61.6664C290.926 58.4071 289.875 53.413 288.508 49.628L284.145 50.7845C285.354 54.5695 286.405 59.6687 286.511 62.928L291.189 61.6664ZM305.541 78.9616C304.437 77.4897 299.443 71.602 297.918 70.0774V69.7095H305.698V63.8743H297.918V46.6841H292.135V63.8743H284.198V69.7095H290.19C288.561 74.4933 285.88 80.1182 283.251 83.3249C284.198 85.0597 285.564 87.8984 286.09 89.7909C288.351 86.6368 290.453 81.7478 292.135 76.8589V95.4158H297.918V76.964C299.443 79.3822 300.915 82.1158 301.703 83.798L305.541 78.9616ZM333.35 80.1707L332.404 74.3356L327.041 75.3344V46.4213H321.154V76.3858L305.541 79.1719L306.487 85.0071L321.154 82.3786V95.521H327.041V81.3273L333.35 80.1707ZM376.667 47.8407L372.514 49.5229C373.67 51.2051 374.932 53.5181 375.931 55.5158C374.774 55.8312 373.25 55.9889 371.83 55.9889H361.106C361.737 54.8324 363.104 52.4668 364.366 50.6268L356.743 48.2612C356.27 50.0486 355.166 52.4668 354.377 53.7284C351.696 58.3019 346.808 65.5039 337.608 71.1814L343.285 75.5972C348.595 71.9174 353.484 66.8707 357.164 61.9818H372.198C371.41 65.2411 369.149 69.762 366.468 73.5996C363.104 71.3391 359.792 69.1838 357.006 67.6067L352.327 72.3905C355.008 74.1253 358.478 76.4909 361.895 78.9616C357.584 83.3775 351.749 87.6356 342.655 90.4217L348.753 95.7312C356.953 92.6296 362.894 88.1613 367.52 83.2723C369.675 85.0071 371.62 86.6368 373.04 87.951L378.086 82.0107C376.509 80.749 374.459 79.2245 372.198 77.5948C375.983 72.3379 378.612 66.713 379.979 62.4549C380.452 61.1407 381.135 59.7213 381.713 58.6699L377.876 56.3043L380.82 55.0426C379.874 53.0976 377.981 49.7332 376.667 47.8407ZM382.87 45.4225L378.717 47.1573C380.189 49.1549 381.871 52.2039 382.975 54.4118L387.128 52.5719C386.182 50.732 384.237 47.4201 382.87 45.4225ZM419.406 48.0509H411.31C411.678 50.3114 411.73 51.4154 411.73 52.8873V56.9351H400.481C398.483 56.9351 396.906 56.8826 395.119 56.6723C395.329 57.934 395.381 60.0367 395.381 61.1932V70.2877C395.381 71.7071 395.276 73.3893 395.119 74.7035H402.373C402.268 73.6522 402.215 72.0225 402.215 70.8134V63.1383H428.29C427.659 67.817 426.292 72.811 423.611 76.6486C420.667 80.9067 416.041 84.0083 411.678 85.6379C409.523 86.479 406.631 87.2676 404.266 87.6881L409.733 93.9964C419.09 91.5783 426.976 86.0059 431.181 78.2257C433.757 73.4419 435.176 68.3952 436.07 63.3486C436.28 62.2972 436.701 60.2996 437.121 59.143L432.548 56.3569C431.654 56.6723 430.393 56.9351 428.185 56.9351H419.038V52.8873C419.038 51.4154 419.143 50.3114 419.406 48.0509ZM455.626 51.0474L450.684 56.3043C454.522 58.9853 461.093 64.7154 463.827 67.6593L469.189 62.1921C466.14 58.9853 459.306 53.5181 455.626 51.0474ZM449.055 86.0585L453.47 92.9976C460.883 91.736 467.664 88.7921 472.974 85.5854C481.437 80.4862 488.429 73.2316 492.424 66.1348L488.324 58.7225C485.012 65.8193 478.178 73.8624 469.189 79.1719C464.089 82.2209 457.255 84.902 449.055 86.0585ZM503.201 53.7284C503.306 55.2004 503.306 57.3557 503.306 58.8276V84.534C503.306 87.0573 503.148 91.6308 503.148 91.8937H510.403C510.403 91.736 510.403 90.5269 510.35 89.0549H535.689C535.689 90.5794 535.636 91.7885 535.636 91.8937H542.891C542.891 91.6834 542.786 86.6368 542.786 84.5866V58.8276C542.786 57.2506 542.786 55.3055 542.891 53.7284C540.998 53.8336 539.001 53.8336 537.686 53.8336H508.773C507.354 53.8336 505.356 53.781 503.201 53.7284ZM510.35 60.5098H535.741V82.3261H510.35V60.5098ZM555.034 66.6604V74.9138C556.979 74.7561 560.501 74.651 563.498 74.651H591.728C593.935 74.651 596.616 74.8612 597.878 74.9138V66.6604C596.511 66.7656 594.198 66.9759 591.728 66.9759H563.498C560.764 66.9759 556.927 66.8182 555.034 66.6604ZM639.671 51.8885L635.255 53.7284C637.2 56.462 638.356 58.5648 639.881 61.8766L644.454 59.8264C643.245 57.4608 641.143 54.0964 639.671 51.8885ZM646.557 48.9972L642.194 51.0474C644.139 53.6758 645.401 55.6209 647.083 58.9328L651.499 56.7774C650.29 54.4118 648.082 51.1 646.557 48.9972ZM618.696 86.7419C618.696 88.7921 618.485 91.9988 618.17 94.049H626.423C626.16 91.8937 625.898 88.2138 625.898 86.7419V71.8648C631.575 73.7573 639.46 76.8063 644.928 79.6976L647.871 72.3905C643.035 70.0249 632.889 66.2925 625.898 64.1897V56.5146C625.898 54.3067 626.16 51.9936 626.371 50.1537H618.17C618.538 52.0462 618.696 54.6221 618.696 56.5146V86.7419Z" fill="white"/>
</svg>
