<svg width="251" height="233" viewBox="0 0 251 233" fill="none" xmlns="http://www.w3.org/2000/svg">
<path d="M22.7123 185.554L8.05176 166.651L203.572 15.8027L218.245 34.7058L22.7123 185.554Z" fill="#1A4AE8"/>
<path d="M221.834 53.0065L243.461 0L186.739 7.7696L221.834 53.0065Z" fill="#1A4AE8"/>
<path d="M68.4255 161.254H11.0635V231.318H68.4255V161.254Z" fill="#EDB015"/>
<path d="M250.791 77.7217H193.429V231.306H250.791V77.7217Z" fill="#EDB015"/>
<path d="M58.2209 161.254H0.858887V231.318H58.2209V161.254Z" fill="#FFE43C"/>
<path d="M240.599 77.7217H183.237V231.306H240.599V77.7217Z" fill="#FFE43C"/>
<path d="M39.1798 90.4616H31.5859L32.4897 88.4658H38.2761L39.1798 90.4616Z" fill="#F15856"/>
<path d="M44.4131 90.21L49.6974 102.963C49.6974 102.963 50.5509 104.532 50.5886 105.122C50.689 106.54 49.6974 108.699 46.0574 108.573C42.4299 108.448 41.8901 96.5361 41.8901 96.5361L44.4131 90.21Z" fill="#F15856"/>
<path d="M39.3178 161.216H44.4013C44.4013 161.216 44.7402 159.961 43.2089 159.221C42.6566 158.957 39.3178 158.706 39.3178 158.706V161.216Z" fill="#006AA1"/>
<path d="M27.4181 161.216H22.3346C22.3346 161.216 21.9957 159.961 23.5271 159.221C24.0793 158.957 27.4181 158.706 27.4181 158.706V161.216Z" fill="#006AA1"/>
<path d="M44.4134 115.766H26.4015L24.7446 158.969L27.4182 159.584L33.6313 122.531L36.8697 122.544L39.3173 159.509L42.0285 158.969L44.4134 115.766Z" fill="#FEC604"/>
<path d="M28.3601 89.1436H42.4182C43.4474 89.1436 44.3135 89.7335 44.552 90.5368C44.6022 90.6874 44.6273 90.8381 44.6273 91.0012V112.553V113.833V116.507H26.151V91.0012C26.151 89.972 27.1426 89.1436 28.3601 89.1436Z" fill="#F15856"/>
<path d="M36.8578 84.9385H33.9834V89.3191H36.8578V84.9385Z" fill="#FB7A4F"/>
<path d="M35.4022 88.7168L32.6533 89.1436C32.6533 89.1436 34.3604 92.269 35.4022 92.269C36.444 92.269 38.151 89.1436 38.151 89.1436L35.4022 88.7168Z" fill="#FB7A4F"/>
<path d="M40.0457 80.5447C40.0457 84.0467 37.9747 86.8834 35.4266 86.8834C32.8786 86.8834 30.8076 84.0467 30.8076 80.5447C30.8076 77.0428 32.8786 74.2061 35.4266 74.2061C37.9747 74.2186 40.0457 77.0553 40.0457 80.5447Z" fill="#FB7A4F"/>
<path d="M32.6533 89.1562C32.6533 89.1562 34.3729 93.4992 35.4147 93.4992C36.4565 93.4992 38.1636 89.1562 38.1636 89.1562H32.6533Z" fill="#FB7A4F"/>
<path d="M46.5347 110.206H35.3887L38.4011 94.792H49.5597L46.5347 110.206Z" fill="white"/>
<path d="M48.5809 103.278C47.514 102.487 43.7987 102.16 43.1711 102.826C42.5435 103.491 46.4346 107.256 47.514 106.754C48.7441 106.177 49.56 103.993 48.5809 103.278Z" fill="#FB7A4F"/>
<path d="M24.1177 114.398C24.1177 114.398 25.172 116.343 26.0005 116.381C26.8289 116.419 28.6238 115.778 29.0255 114.912C29.4271 114.046 25.9879 111.938 25.9879 111.938L24.1177 114.398Z" fill="#FB7A4F"/>
<path d="M31.2348 94.0012L27.419 89.3193L16.9507 98.683L16.8252 98.7834C16.0219 99.4989 15.8085 100.704 16.3608 101.67L23.8041 114.674L27.4441 112.691L21.5071 101.231L31.2348 94.0012Z" fill="#F15856"/>
<path d="M30.7949 80.2813C30.7949 80.2813 28.2343 73.0138 31.5857 73.2522C31.5857 73.2522 34.6232 69.6373 39.6314 71.4197C39.6314 71.4197 38.7528 72.8882 38.3637 73.4907C38.3637 73.4907 40.9242 72.8129 40.0456 79.6913C40.0456 79.6913 38.8783 77.9341 38.326 75.8128C38.326 75.8128 34.937 76.9299 31.8241 76.8546C31.8116 76.8546 31.6359 78.9884 30.7949 80.2813Z" fill="#006AA1"/>
<path d="M216.764 70.0522C216.764 71.8974 215.195 73.391 213.262 73.391H206.208C204.275 73.391 202.706 71.8974 202.706 70.0522V51.8144C202.706 49.9693 204.275 48.4756 206.208 48.4756H213.262C215.195 48.4756 216.764 49.9693 216.764 51.8144V70.0522Z" fill="#FAD537"/>
<path d="M195.838 96.6377V99.3991H189.838C189.838 99.3991 189.989 97.2527 193.027 97.2904V96.6377H195.838Z" fill="#34334F"/>
<path d="M209.834 68.9619H202.767L202.051 70.1543L195.65 70.443C195.65 70.443 191.935 70.7443 190.981 71.8363C190.027 72.9283 190.378 76.4805 190.378 76.4805L192.286 96.7894H196.265V75.878H207.06C207.06 75.878 209.758 75.2378 210.549 73.4931C211.34 71.7484 209.834 68.9619 209.834 68.9619Z" fill="#0074B0"/>
<path d="M202.919 96.6367V99.3981H196.919C196.919 99.3981 197.07 97.2518 200.107 97.2894V96.6367H202.919Z" fill="#34334F"/>
<path d="M216.763 68.959H209.772L209.056 70.1514L202.504 71.4191C202.504 71.4191 199.14 72.1346 198.387 73.1011C197.534 74.2182 198.086 77.9587 198.086 77.9587L199.366 96.799H203.383L204.123 77.5068L213.726 76.8039C213.726 76.8039 215.884 76.8918 217.027 73.8668C217.717 72.0718 216.763 68.959 216.763 68.959Z" fill="#0074B0"/>
<path d="M209.799 44.5977H206.924V48.4887H209.799V44.5977Z" fill="#FB7A4F"/>
<path d="M212.346 39.7019C212.722 43.1788 210.965 46.2163 208.43 46.4925C205.894 46.7686 203.534 44.1704 203.158 40.6935C202.781 37.2166 204.538 34.1791 207.074 33.9029C209.609 33.6268 211.969 36.225 212.346 39.7019Z" fill="#FB7A4F"/>
<path d="M203.108 37.1534C203.108 37.1534 205.33 38.2203 208.656 38.032C211.983 37.8312 212.384 41.057 212.384 41.057C212.384 41.057 214.167 33.8648 210.878 32.823C210.878 32.823 207.351 29.4842 204.765 31.2791C202.18 33.0615 201.816 36.3124 203.108 37.1534Z" fill="#006AA1"/>
<path d="M202.417 64.0151H197.535L194.886 56.1953H199.769L202.417 64.0151Z" fill="#F15856"/>
<path d="M207.111 62.6094C207.111 62.6094 203.119 63.4755 201.964 63.0864C200.797 62.6973 198.211 60.5258 198.713 59.5342C199.215 58.5552 203.772 59.7727 203.772 59.7727L207.462 59.7476L207.111 62.6094Z" fill="#FB7A4F"/>
<path d="M220.617 60.3502C221.081 61.505 220.516 62.8104 219.361 63.2623C218.207 63.7267 216.901 63.1618 216.449 62.0071L212.496 52.0786C212.031 50.9238 212.596 49.6184 213.751 49.1665C214.906 48.7021 216.211 49.2669 216.663 50.4217L220.617 60.3502Z" fill="#F15856"/>
<path d="M220.729 61.4541C220.704 62.6717 219.524 63.6382 218.081 63.6382H218.018L205.328 63.3746C205.303 63.3746 205.29 63.3746 205.265 63.3746V58.8936C205.29 58.8936 205.328 58.8936 205.353 58.8936H205.416L218.106 59.1571C219.574 59.1822 220.754 60.2241 220.729 61.4541Z" fill="#F15856"/>
<path d="M194.421 180.999C195.262 179.418 193.768 175.577 193.103 173.769C192.061 170.983 190.756 168.297 189.35 165.686C190.593 165.033 191.835 164.38 193.078 163.74C195.137 167.958 197.069 172.552 197.76 177.221C198.011 178.853 198.036 180.56 197.496 182.016L194.421 180.999Z" fill="#FF9340"/>
<path d="M178.731 149.782C178.731 149.782 178.279 144.61 183.062 144.849C187.844 145.087 187.932 149.129 187.492 151.25C187.066 153.359 184.781 153.924 184.781 153.924L178.731 149.782Z" fill="#6F6F6F"/>
<path d="M181.32 156.242L181.303 160.184L183.173 160.192L183.19 156.25L181.32 156.242Z" fill="#FF9340"/>
<path d="M178.106 151.927C178.055 155.103 179.863 157.701 182.135 157.739C184.407 157.776 186.302 155.241 186.34 152.078C186.39 148.902 184.582 146.304 182.31 146.266C180.051 146.216 178.156 148.752 178.106 151.927Z" fill="#FF9340"/>
<path d="M189.941 188.604L190.041 186.295H174.037V190.035L172.481 230.879L174.778 231.318L180.464 193.236L183.338 193.249L185.585 231.243L187.895 231.168L189.74 193.286V193.274L189.966 188.604H189.941Z" fill="#F15856"/>
<path d="M185.51 232.987H190.028C190.028 232.987 190.33 231.694 188.974 230.941C188.485 230.665 185.522 230.414 185.522 230.414V232.987H185.51Z" fill="#565656"/>
<path d="M190.054 232.522C190.079 232.799 190.028 232.999 190.028 232.999H185.51V232.522H190.054Z" fill="#565656"/>
<path d="M174.94 232.987H170.422C170.422 232.987 170.12 231.694 171.476 230.941C171.965 230.665 174.928 230.414 174.928 230.414V232.987H174.94Z" fill="#565656"/>
<path d="M170.409 232.522C170.384 232.799 170.434 232.999 170.434 232.999H174.953V232.522H170.409Z" fill="#565656"/>
<path d="M162.576 180.823C163.593 181.124 164.723 181.137 165.789 180.923C165.915 180.898 166.078 180.861 166.216 180.823C166.379 180.785 166.455 180.76 166.568 180.722L166.643 180.697H166.668H166.681L166.731 180.672L166.806 180.647C166.907 180.609 167.007 180.572 167.095 180.534C167.283 180.446 167.446 180.358 167.597 180.258C168.199 179.869 168.626 179.43 169.003 179.015C169.731 178.162 170.27 177.308 170.747 176.48C171.224 175.639 171.639 174.811 172.015 174.007C172.756 172.401 173.358 170.882 173.835 169.576C174.312 168.271 174.676 167.179 174.927 166.401C175.053 166.012 175.141 165.71 175.216 165.497C175.279 165.284 175.316 165.158 175.316 165.158L170.672 164.041C170.672 164.041 170.647 164.141 170.609 164.33C170.559 164.531 170.496 164.819 170.409 165.183C170.233 165.924 169.969 166.978 169.618 168.233C169.266 169.489 168.827 170.945 168.287 172.451C168.011 173.204 167.71 173.957 167.371 174.698C167.032 175.426 166.656 176.128 166.266 176.681C166.078 176.944 165.877 177.17 165.752 177.271C165.727 177.296 165.702 177.321 165.689 177.333C165.676 177.346 165.676 177.346 165.676 177.346C165.639 177.359 165.727 177.333 165.714 177.333H165.702L165.676 177.346L165.601 177.371C165.501 177.409 165.375 177.459 165.338 177.472C165.275 177.497 165.225 177.522 165.137 177.547C164.534 177.748 163.932 177.798 163.379 177.71L162.576 180.823Z" fill="#FF9340"/>
<path d="M163.379 177.735C162.827 177.648 162.313 177.422 161.848 177.083C161.384 176.756 160.995 176.317 160.668 175.878C160.016 174.974 159.626 174.02 159.375 173.355C159.25 173.016 159.162 172.752 159.112 172.564C159.049 172.376 159.024 172.275 159.024 172.275L156.978 172.815C156.978 172.815 157.003 172.928 157.041 173.141C157.078 173.355 157.141 173.681 157.242 174.083C157.442 174.886 157.744 176.053 158.484 177.371C158.861 178.024 159.338 178.727 160.028 179.342C160.693 179.97 161.585 180.522 162.601 180.811L163.379 177.735Z" fill="#FF9340"/>
<path d="M159.112 172.666C159.112 172.666 158.396 169.264 156.877 169.038C155.371 168.812 156.112 171.448 156.262 171.825C156.413 172.201 156.2 173.394 157.505 173.758C158.81 174.109 159.112 172.666 159.112 172.666Z" fill="#FF9340"/>
<path d="M178.882 160.225C178.882 160.225 170.046 159.836 169.582 164.492C169.105 169.149 169.192 168.898 169.192 168.898L175.594 169.036L178.882 160.225Z" fill="#00E1D8"/>
<path d="M190.493 166.213V186.835H173.522V166.213C173.522 162.886 175.895 160.2 178.819 160.2H185.208C188.12 160.2 190.493 162.886 190.493 166.213Z" fill="#00E1D8"/>
<path d="M179.107 149.983C179.107 149.983 176.81 149.556 176.584 145.364C176.584 145.364 177.212 145.803 181.303 145.063C185.395 144.322 185.559 147.272 185.559 147.272C185.559 147.272 185.044 150.523 179.107 149.983Z" fill="#6F6F6F"/>
<path d="M183.625 160.385C183.625 160.385 192.826 158.829 193.968 163.36C195.11 167.891 194.997 167.665 194.997 167.665L188.684 168.732L183.625 160.385Z" fill="#00E1D8"/>
<path d="M186.437 184.438C186.45 184.702 186.249 184.915 185.985 184.915L178.479 185.179C178.216 185.191 178.002 184.99 178.002 184.727L177.638 174.246C177.626 173.995 177.827 173.769 178.09 173.769L185.596 173.505C185.86 173.493 186.073 173.694 186.073 173.957L186.437 184.438Z" fill="#008BD3"/>
<path d="M197.509 182.002C197.108 183.094 196.392 184.048 195.212 184.714C193.003 185.956 190.192 185.63 187.844 185.015C186.966 184.789 186.125 184.475 185.271 184.174C185.183 183.898 185.761 182.944 185.861 182.68C185.974 182.404 186.087 181.601 186.426 181.714C187.405 182.04 188.422 182.278 189.451 182.429C191.058 182.655 193.606 182.818 194.409 181.036C194.409 181.023 194.422 181.023 194.422 181.011L197.509 182.002Z" fill="#FF9340"/>
<path d="M187.179 181.941C187.179 181.941 183.564 180.372 182.585 180.749C181.606 181.125 183.576 183.937 186.689 184.678L187.179 181.941Z" fill="#FF9340"/>
<path d="M185.045 160.2V160.213C185.045 161.895 183.677 163.25 182.008 163.25C180.326 163.25 178.97 161.895 178.97 160.213V160.2H185.045Z" fill="#FF9340"/>
<path d="M157.493 120.899H97.6962V231.318H157.493V120.899Z" fill="#EDB015"/>
<path d="M146.862 120.899H87.0649V231.318H146.862V120.899Z" fill="#FFE43C"/>
</svg>
