<svg width="924" height="341" viewBox="0 0 924 341" fill="none" xmlns="http://www.w3.org/2000/svg">
<path d="M0 324.703H566.787" stroke="#FCED68" stroke-width="4.62211"/>
<path d="M6.392 222.102V226.488C7.412 226.42 8.874 226.386 10.03 226.386H21.148C22.338 226.386 23.664 226.42 24.82 226.488V222.102C23.664 222.272 22.304 222.374 21.148 222.374H10.03C8.874 222.374 7.48 222.272 6.392 222.102ZM2.448 230.806V235.26C3.4 235.192 4.726 235.124 5.712 235.124H15.062C14.926 237.98 14.348 240.53 12.954 242.638C11.594 244.644 9.214 246.582 6.8 247.5L10.778 250.39C13.804 248.86 16.422 246.242 17.612 243.862C18.836 241.482 19.584 238.626 19.788 235.124H27.982C28.934 235.124 30.226 235.158 31.076 235.226V230.806C30.192 230.942 28.696 231.01 27.982 231.01H5.712C4.658 231.01 3.468 230.942 2.448 230.806ZM26.86 219.756L24.14 220.878C25.058 222.17 26.112 224.21 26.826 225.604L29.546 224.414C28.9 223.156 27.71 221.014 26.86 219.756ZM30.872 218.226L28.186 219.348C29.104 220.64 30.192 222.612 30.906 224.04L33.626 222.85C33.014 221.66 31.756 219.518 30.872 218.226ZM58.82 221.66L55.964 222.85C57.188 224.584 57.97 226.046 58.956 228.188L61.914 226.93C61.132 225.366 59.772 223.088 58.82 221.66ZM63.478 220.028L60.588 221.218C61.846 222.918 62.696 224.244 63.784 226.386L66.674 225.094C65.858 223.598 64.532 221.388 63.478 220.028ZM44.03 221.014L41.582 224.754C43.826 226.012 47.362 228.29 49.266 229.616L51.782 225.876C50.014 224.618 46.274 222.238 44.03 221.014ZM37.74 245.154L40.29 249.608C43.282 249.064 48.178 247.364 51.646 245.426C57.188 242.196 62.016 237.912 65.144 233.186L62.526 228.562C59.84 233.424 55.08 238.082 49.3 241.312C45.628 243.352 41.548 244.508 37.74 245.154ZM38.794 228.766L36.346 232.506C38.624 233.73 42.16 236.008 44.098 237.368L46.58 233.56C44.846 232.336 41.106 229.99 38.794 228.766ZM86.6819 220.844L81.7519 219.314C81.4459 220.47 80.7319 222.034 80.1879 222.85C78.4879 225.808 75.3259 230.466 69.3759 234.172L73.0479 236.994C76.4819 234.614 79.6439 231.35 82.0239 228.188H91.7479C91.2379 230.296 89.7759 233.254 88.0079 235.702C85.8659 234.274 83.7239 232.88 81.9219 231.86L78.8959 234.954C80.6299 236.042 82.8739 237.572 85.0839 239.204C82.2619 242.026 78.4879 244.78 72.6059 246.582L76.5499 250.016C81.8539 248.01 85.7299 245.12 88.7219 241.958C90.1159 243.08 91.3739 244.134 92.2919 244.984L95.5219 241.142C94.5359 240.326 93.2099 239.34 91.7479 238.286C94.1619 234.886 95.8619 231.248 96.7799 228.494C97.0859 227.644 97.5279 226.726 97.9019 226.08L94.4339 223.938C93.6859 224.176 92.5299 224.312 91.4759 224.312H84.5739C84.9819 223.564 85.8319 222.034 86.6819 220.844ZM118.438 247.024L121.294 249.37C121.6 249.098 122.008 248.758 122.756 248.35C126.564 246.412 131.46 242.74 134.282 239.068L131.664 235.328C129.386 238.626 126.02 241.312 123.266 242.502V224.72C123.266 223.19 123.47 221.864 123.504 221.762H118.438C118.472 221.864 118.71 223.156 118.71 224.686V244.508C118.71 245.426 118.574 246.378 118.438 247.024ZM102.696 246.514L106.844 249.268C109.734 246.684 111.876 243.352 112.896 239.51C113.814 236.076 113.916 228.902 113.916 224.89C113.916 223.462 114.12 221.966 114.154 221.796H109.156C109.36 222.646 109.462 223.564 109.462 224.924C109.462 229.038 109.428 235.464 108.476 238.388C107.524 241.278 105.688 244.406 102.696 246.514ZM143.36 227.168H167.772V223.292H155.498V219.008H151.282V223.292H139.314V231.86C139.314 236.654 139.076 243.624 136.152 248.418C137.104 248.792 138.872 249.982 139.62 250.662C142.816 245.528 143.36 237.232 143.36 231.86V227.168ZM168.52 248.928C167.296 245.358 164.1 240.224 161.176 236.348L157.402 237.98C158.762 239.884 160.19 242.094 161.38 244.27C157.878 244.474 154.308 244.644 151.078 244.78C152.71 240.496 154.478 234.818 155.804 229.684L151.18 228.766C150.262 233.9 148.426 240.428 146.726 244.984C145.264 245.018 143.938 245.086 142.748 245.12L143.122 249.302C148.392 248.996 156.008 248.452 163.182 247.874C163.692 248.928 164.066 249.914 164.338 250.798L168.52 248.928ZM193.714 240.87V245.46H179.434V240.87H193.714ZM175.286 250.866H179.434V249.2H193.714V250.764H198.066V237.13H175.286V250.866ZM189.328 230.976V227.066H199.256V223.36H189.328V218.94H185.044V223.36H179.638C180.148 222.272 180.59 221.184 180.964 220.062L176.918 219.042C175.728 222.714 173.586 226.454 171.138 228.766C172.158 229.208 173.994 230.262 174.844 230.908C175.796 229.854 176.748 228.562 177.632 227.066H185.044V230.976H171.376V234.716H201.33V230.976H189.328ZM218.568 224.006V228.358C222.852 228.766 229.006 228.732 233.188 228.358V223.972C229.516 224.414 222.75 224.584 218.568 224.006ZM221.288 238.524L217.378 238.15C217.004 239.884 216.8 241.244 216.8 242.57C216.8 246.072 219.622 248.146 225.47 248.146C229.312 248.146 232.032 247.908 234.242 247.5L234.174 242.91C231.182 243.522 228.666 243.794 225.64 243.794C222.172 243.794 220.88 242.876 220.88 241.38C220.88 240.462 221.016 239.646 221.288 238.524ZM213.332 221.728L208.572 221.32C208.538 222.408 208.334 223.7 208.232 224.652C207.858 227.27 206.804 233.016 206.804 238.116C206.804 242.74 207.45 246.888 208.13 249.234L212.074 248.962C212.04 248.486 212.006 247.942 212.006 247.568C212.006 247.228 212.074 246.48 212.176 245.97C212.55 244.168 213.672 240.462 214.624 237.64L212.516 235.974C212.04 237.096 211.496 238.286 210.986 239.442C210.884 238.762 210.85 237.878 210.85 237.232C210.85 233.832 212.04 227.032 212.482 224.754C212.618 224.142 213.06 222.442 213.332 221.728ZM252.16 220.164H247.468C247.57 220.776 247.706 222.442 247.706 223.156C247.706 223.734 247.706 224.72 247.672 225.91C246.992 225.944 246.312 225.978 245.7 225.978C244.476 225.978 243.014 225.944 241.008 225.706L241.076 229.82C242.232 229.956 243.558 229.99 245.836 229.99C246.38 229.99 246.992 229.956 247.638 229.922C247.638 230.874 247.638 231.826 247.638 232.778C247.638 233.56 247.638 234.376 247.672 235.192C243.49 236.994 240.09 240.088 240.09 243.046C240.09 246.65 244.748 249.506 248.046 249.506C250.29 249.506 251.786 248.384 251.786 244.168C251.786 243.012 251.718 240.36 251.65 237.674C253.724 237.062 255.934 236.722 258.042 236.722C261 236.722 263.04 238.082 263.04 240.394C263.04 242.876 260.864 244.236 258.11 244.746C256.92 244.95 255.458 244.984 253.928 244.984L255.492 249.37C256.886 249.268 258.382 249.166 259.946 248.826C265.352 247.466 267.46 244.44 267.46 240.428C267.46 235.736 263.346 233.016 258.11 233.016C256.24 233.016 253.894 233.322 251.582 233.9C251.582 233.458 251.582 233.05 251.582 232.642C251.582 231.656 251.582 230.602 251.616 229.582C253.826 229.31 256.172 228.97 258.11 228.528L258.008 224.312C256.24 224.822 253.996 225.264 251.752 225.536C251.786 224.686 251.82 223.87 251.854 223.122C251.922 222.238 252.058 220.776 252.16 220.164ZM261.85 223.836L259.98 227.134C262.088 228.154 266.542 230.704 268.174 232.098L270.214 228.63C268.412 227.338 264.468 225.094 261.85 223.836ZM244.272 242.876C244.272 241.686 245.666 240.292 247.74 239.17C247.808 241.006 247.842 242.57 247.842 243.42C247.842 244.576 247.366 244.848 246.754 244.848C245.87 244.848 244.272 243.93 244.272 242.876ZM280.176 223.462L274.94 223.394C275.144 224.448 275.212 225.91 275.212 226.862C275.212 228.936 275.246 232.914 275.586 236.042C276.538 245.154 279.768 248.52 283.508 248.52C286.228 248.52 288.37 246.446 290.614 240.53L287.214 236.382C286.568 239.102 285.208 243.08 283.61 243.08C281.468 243.08 280.448 239.714 279.972 234.818C279.768 232.37 279.734 229.82 279.768 227.61C279.768 226.658 279.938 224.686 280.176 223.462ZM297.176 224.244L292.858 225.638C296.564 229.854 298.366 238.116 298.91 243.59L303.364 241.856C302.99 236.654 300.406 228.154 297.176 224.244ZM306.721 224.38L307.163 229.038C311.107 228.188 318.043 227.44 321.239 227.1C318.961 228.834 316.207 232.71 316.207 237.606C316.207 244.95 322.939 248.792 330.045 249.268L331.643 244.61C325.897 244.304 320.661 242.264 320.661 236.688C320.661 232.642 323.721 228.222 327.835 227.134C329.637 226.726 332.561 226.726 334.397 226.692L334.363 222.34C331.983 222.408 328.243 222.646 324.741 222.918C318.519 223.462 312.909 223.972 310.087 224.21C309.407 224.278 308.081 224.346 306.721 224.38ZM9.452 269.556H6.086V266.428H9.452V269.556ZM9.452 275.744H6.086V272.582H9.452V275.744ZM9.452 281.932H6.086V278.736H9.452V281.932ZM12.988 263.232H2.652V285.162H12.988V263.232ZM4.284 285.4C3.604 287.78 2.312 290.228 0.782 291.826C1.632 292.268 3.094 293.22 3.774 293.798C5.372 291.962 6.936 289.038 7.82 286.182L4.284 285.4ZM8.262 286.59C9.35 288.358 10.574 290.772 11.05 292.336L14.178 290.806C13.634 289.31 12.376 287.032 11.254 285.332L8.262 286.59ZM24.888 285.434V283.734H27.54V285.434H24.888ZM18.802 283.734H21.386V285.434H18.802V283.734ZM21.386 279.688V281.252H18.802V279.688H21.386ZM27.54 279.688V281.252H24.888V279.688H27.54ZM21.386 271.392H24.854V272.718H21.386V271.392ZM21.386 267.448H24.854V268.706H21.386V267.448ZM32.776 285.434H31.212V276.866H24.888V275.574H32.742V272.718H28.458V271.392H31.586V268.706H28.458V267.448H32.13V264.592H28.458V262.008H24.854V264.592H21.386V262.008H17.85V264.592H14.178V267.448H17.85V268.706H14.96V271.392H17.85V272.718H13.6V275.574H21.386V276.866H15.266V285.434H13.43V288.256H15.266V293.764H18.802V288.256H27.54V290.024C27.54 290.398 27.404 290.534 26.962 290.534C26.554 290.534 25.092 290.534 23.766 290.5C24.208 291.384 24.684 292.778 24.82 293.73C27.03 293.73 28.628 293.696 29.75 293.152C30.872 292.608 31.212 291.758 31.212 290.058V288.256H32.776V285.434ZM60.622 268.74H56.338V266.394H60.622V268.74ZM52.972 268.74H48.858V266.394H52.972V268.74ZM45.492 268.74H41.412V266.394H45.492V268.74ZM64.532 263.368H37.672V271.732H64.532V263.368ZM43.588 283.802H58.48V285.502H43.588V283.802ZM43.588 279.722H58.48V281.422H43.588V279.722ZM43.588 275.676H58.48V277.342H43.588V275.676ZM62.73 288.052V273.126H39.508V288.052H44.744C42.33 289.208 38.624 290.296 35.292 290.908C36.142 291.588 37.604 293.05 38.284 293.866C41.82 292.88 46.274 291.248 49.13 289.378L46.172 288.052H55.658L52.904 289.82C56.61 291.078 60.35 292.642 62.458 293.764L66.844 291.758C64.464 290.704 60.554 289.208 56.95 288.052H62.73ZM99.722 263.912H83.198V267.754H99.722V263.912ZM76.67 261.974C75.038 264.354 71.808 267.414 68.986 269.216C69.7 269.998 70.72 271.63 71.23 272.514C74.46 270.27 78.132 266.768 80.58 263.572L76.67 261.974ZM77.962 269.318C75.786 273.16 72.08 277.104 68.612 279.484C69.428 280.334 70.788 282.17 71.366 282.986C72.284 282.238 73.202 281.388 74.154 280.47V293.764H78.2V276.016C79.56 274.316 80.818 272.548 81.838 270.814L77.962 269.318ZM100.572 273.262H81.77V277.104H91.8V288.936C91.8 289.446 91.562 289.582 90.95 289.582C90.338 289.616 88.094 289.616 86.156 289.514C86.7 290.704 87.21 292.438 87.38 293.628C90.406 293.628 92.582 293.56 94.01 292.948C95.506 292.336 95.914 291.214 95.914 289.038V277.104H100.572V273.262ZM113.696 286.692H119.85V283.836H113.696V282.51H119.714V272.004H113.696V270.678H120.224V273.33H123.318C123.08 279.416 122.264 284.278 119.612 287.95C117.64 288.12 115.634 288.29 113.696 288.426V286.692ZM107.372 279.994V278.464H110.024V279.994H107.372ZM116.348 278.464V279.994H113.696V278.464H116.348ZM113.696 276.05V274.554H116.348V276.05H113.696ZM107.372 274.554H110.024V276.05H107.372V274.554ZM127.262 269.624C127.33 267.38 127.33 265 127.33 262.518H123.454C123.454 265.034 123.454 267.38 123.42 269.624H120.224V267.754H113.696V266.088C115.906 265.85 118.014 265.544 119.816 265.17L118.048 262.144C114.308 262.96 108.426 263.538 103.394 263.81C103.768 264.592 104.142 265.85 104.278 266.666C106.114 266.632 108.052 266.53 110.024 266.394V267.754H103.326V270.678H110.024V272.004H104.176V282.51H110.024V283.836H104.04V286.692H110.024V288.732C107.406 288.902 105.026 289.072 103.122 289.208L103.598 292.608C107.27 292.302 112.166 291.792 117.062 291.282C117.946 292.03 118.932 293.152 119.442 293.968C125.154 289.446 126.718 282.442 127.16 273.33H130.22C130.016 284.312 129.676 288.46 128.962 289.378C128.656 289.82 128.316 289.956 127.806 289.956C127.16 289.956 125.868 289.922 124.372 289.786C125.052 290.908 125.494 292.54 125.562 293.662C127.194 293.696 128.758 293.73 129.778 293.526C130.9 293.288 131.682 292.948 132.464 291.826C133.552 290.262 133.824 285.332 134.13 271.426C134.13 270.95 134.164 269.624 134.164 269.624H127.262ZM151.232 267.006V271.358C155.516 271.766 161.67 271.732 165.852 271.358V266.972C162.18 267.414 155.414 267.584 151.232 267.006ZM153.952 281.524L150.042 281.15C149.668 282.884 149.464 284.244 149.464 285.57C149.464 289.072 152.286 291.146 158.134 291.146C161.976 291.146 164.696 290.908 166.906 290.5L166.838 285.91C163.846 286.522 161.33 286.794 158.304 286.794C154.836 286.794 153.544 285.876 153.544 284.38C153.544 283.462 153.68 282.646 153.952 281.524ZM145.996 264.728L141.236 264.32C141.202 265.408 140.998 266.7 140.896 267.652C140.522 270.27 139.468 276.016 139.468 281.116C139.468 285.74 140.114 289.888 140.794 292.234L144.738 291.962C144.704 291.486 144.67 290.942 144.67 290.568C144.67 290.228 144.738 289.48 144.84 288.97C145.214 287.168 146.336 283.462 147.288 280.64L145.18 278.974C144.704 280.096 144.16 281.286 143.65 282.442C143.548 281.762 143.514 280.878 143.514 280.232C143.514 276.832 144.704 270.032 145.146 267.754C145.282 267.142 145.724 265.442 145.996 264.728ZM201.994 268.57H189.04V266.53H199.104V263.402H175.168V266.53H184.892V268.57H172.142V271.698H201.994V268.57ZM179.69 283.836H194.208V285.502H179.69V283.836ZM179.69 279.756H194.208V281.422H179.69V279.756ZM179.69 275.744H194.208V277.342H179.69V275.744ZM198.492 288.086V273.126H175.61V288.086H180.472C178.092 289.242 174.658 290.296 171.53 290.874C172.38 291.588 173.808 293.016 174.488 293.832C177.956 292.846 182.308 291.112 185.13 289.208L182.58 288.086H191.488L188.904 289.616C192.406 290.976 195.942 292.642 197.948 293.798L202.436 291.928C200.226 290.874 196.622 289.31 193.29 288.086H198.492ZM237.014 268.672C236.606 267.074 235.484 264.796 234.362 263.028L231.2 264.218C232.288 266.02 233.342 268.434 233.648 269.964L237.014 268.672ZM218.246 286.76V283.938H215.764V281.932H218.314V279.042H216.784C217.226 278.022 217.804 276.526 218.416 275.064L215.866 274.486C215.628 275.642 215.118 277.376 214.71 278.566L216.648 279.042H211.956L213.622 278.498C213.486 277.478 212.908 275.812 212.364 274.656L210.256 275.268C210.8 276.458 211.276 277.988 211.412 279.042H210.154V281.932H212.704V283.938H210.188V286.76H212.704V292.166H215.764V286.76H218.246ZM236.436 274.996V271.29H230.962V261.974H227.018V271.29H222.87V274.996H226.95C226.712 279.518 225.828 284.856 222.428 289.072V271.018H216.104V268.196H222.904V264.796H216.104V262.008H212.296V264.796H205.734V268.196H212.296V271.018H206.108V293.628H209.44V274.214H219.028V289.854C219.028 290.194 218.926 290.296 218.62 290.296C218.28 290.33 217.328 290.33 216.444 290.296C216.852 291.146 217.26 292.574 217.328 293.492C219.096 293.492 220.32 293.424 221.272 292.88C221.646 292.676 221.918 292.404 222.088 292.064C222.734 292.642 223.346 293.254 223.72 293.73C226.712 290.67 228.48 286.998 229.534 283.258C230.588 287.576 232.118 291.214 234.532 293.764C235.144 292.676 236.436 291.146 237.354 290.432C234.022 287.304 232.322 281.456 231.438 274.996H236.436ZM250.614 263.81L245.14 263.742C245.446 265.102 245.582 266.734 245.582 268.332C245.582 271.256 245.242 280.198 245.242 284.754C245.242 290.568 248.846 293.016 254.422 293.016C262.174 293.016 267.002 288.46 269.178 285.196L266.084 281.456C263.636 285.162 260.066 288.392 254.456 288.392C251.804 288.392 249.764 287.27 249.764 283.836C249.764 279.62 250.036 272.004 250.172 268.332C250.24 266.972 250.41 265.238 250.614 263.81ZM291.958 282.476L287.912 282.068C287.64 283.428 287.3 285.06 287.3 286.624C287.3 290.058 290.394 292.03 296.106 292.03C298.826 292.03 301.138 291.792 303.042 291.554L303.212 287.202C300.764 287.644 298.418 287.916 296.14 287.916C292.502 287.916 291.482 286.794 291.482 285.298C291.482 284.55 291.686 283.428 291.958 282.476ZM288.116 263.64L282.914 263.232C283.016 264.014 282.948 265.408 282.812 266.666C282.744 267.21 282.642 267.856 282.506 268.604C281.452 268.672 280.432 268.706 279.446 268.706C278.052 268.706 276.896 268.638 275.162 268.434L275.264 272.684C276.454 272.752 277.746 272.82 279.378 272.82C280.092 272.82 280.84 272.786 281.622 272.752C281.418 273.738 281.146 274.69 280.908 275.608C279.65 280.368 277.066 287.508 275.026 290.908L279.752 292.506C281.656 288.46 283.934 281.524 285.158 276.764C285.532 275.37 285.872 273.874 286.178 272.412C288.456 272.14 290.768 271.766 292.808 271.29V267.04C290.938 267.482 289.034 267.856 287.13 268.128C287.232 267.652 287.334 267.21 287.402 266.836C287.538 266.088 287.844 264.558 288.116 263.64ZM290.122 273.908V277.886C292.264 277.648 294.372 277.546 296.684 277.546C298.758 277.546 300.832 277.75 302.532 277.954L302.634 273.874C300.628 273.67 298.588 273.568 296.65 273.568C294.474 273.568 292.026 273.738 290.122 273.908ZM319.192 283.564H327.488C326.672 284.822 325.652 285.876 324.394 286.726C322.32 286.182 320.178 285.672 318.07 285.23L319.192 283.564ZM313.48 271.8H317.05V274.962H313.48V271.8ZM320.858 266.666H324.7V268.604H320.858V266.666ZM332.588 271.8V274.962H328.508V271.8H332.588ZM320.858 274.962V271.8H324.7V274.962H320.858ZM338.538 283.564V280.3H321.368C321.844 279.552 322.286 278.838 322.728 278.124H336.634V268.604H328.508V266.666H337.722V263.164H308.108V266.666H317.05V268.604H309.672V278.124H318.104C317.662 278.838 317.22 279.552 316.744 280.3H307.496V283.564H314.568C313.548 285.026 312.562 286.352 311.712 287.44L315.622 288.664L315.996 288.154C317.118 288.392 318.206 288.664 319.294 288.936C316.268 289.718 312.596 290.126 308.108 290.296C308.72 291.18 309.366 292.608 309.638 293.764C316.234 293.254 321.266 292.37 325.074 290.5C328.916 291.622 332.35 292.812 334.934 293.866L337.416 290.568C335.104 289.752 332.146 288.834 328.848 287.916C330.106 286.726 331.16 285.298 332.01 283.564H338.538ZM349.078 286.352C347.31 287.984 344.216 289.548 341.326 290.534C342.176 291.18 343.672 292.54 344.352 293.288C347.174 292.064 350.642 289.922 352.818 287.78L349.078 286.352ZM360.502 275.302C358.666 276.866 356.218 278.634 353.736 280.232C353.192 279.824 352.546 279.416 351.866 279.008C353.396 278.022 355.198 276.662 356.864 275.302H360.502ZM372.878 284.856C371.212 282.952 367.744 280.402 365.058 278.736L362.236 280.776C363.086 281.32 363.97 281.966 364.854 282.612L355.504 282.782C358.496 281.048 361.692 278.974 364.31 277.036L361.216 275.302H372.096V272.208H358.938V270.916H368.798V268.026H358.938V266.734H370.6V263.81H358.938V261.94H354.892V263.81H343.842V266.734H354.892V268.026H345.576V270.916H354.892V272.208H341.972V275.302H351.628C350.812 276.05 349.962 276.798 349.146 277.41C348.534 277.07 347.922 276.764 347.378 276.492L344.76 278.736C346.562 279.688 348.738 281.048 350.404 282.272C350.03 282.476 349.656 282.646 349.316 282.85C346.63 282.884 344.148 282.918 342.074 282.918L342.278 286.114C345.712 286.046 350.132 285.978 354.926 285.876V293.628H358.904V285.808C362.032 285.74 365.262 285.672 368.39 285.57C368.968 286.114 369.478 286.658 369.852 287.1L372.878 284.856ZM361.046 288.324C363.63 289.65 367.03 291.724 368.662 293.05L371.858 290.806C370.022 289.378 366.52 287.474 364.038 286.25L361.046 288.324ZM405.518 278.804C405.518 271.392 400.214 265.544 391.782 265.544C382.976 265.544 376.176 272.242 376.176 280.096C376.176 285.842 379.304 289.99 383.078 289.99C386.784 289.99 389.708 285.774 391.748 278.906C392.734 275.71 393.312 272.582 393.788 269.692C398.378 270.474 400.928 273.976 400.928 278.668C400.928 283.632 397.528 286.76 393.176 287.78C392.258 287.984 391.306 288.188 390.014 288.324L392.564 292.37C401.132 291.044 405.518 285.978 405.518 278.804ZM380.528 279.654C380.528 275.914 383.554 270.95 389.164 269.794C388.79 272.616 388.144 275.506 387.362 278.022C385.968 282.612 384.642 284.754 383.214 284.754C381.888 284.754 380.528 283.088 380.528 279.654ZM421.736 286.284V289.174H414.97V286.284H421.736ZM411.332 293.696H414.97V292.2H421.736V293.39H425.578V283.258H411.332V293.696ZM423.64 270.576H420.172V268.74H416.466V270.576H412.998V268.06H423.64V270.576ZM420.24 262.178H416.364V265.034H409.428V270.848H411.094V273.432H416.466V274.86H411.434V277.546H416.466V279.008H409.53V282.102H427.006V279.008H420.172V277.546H425.136V274.86H420.172V273.432H425.612V270.848H427.38V265.034H420.24V262.178ZM432.65 265.578H428.808V284.584H432.65V265.578ZM435.846 262.586V288.766C435.846 289.31 435.608 289.514 435.03 289.514C434.35 289.514 432.412 289.548 430.44 289.446C431.018 290.602 431.596 292.472 431.766 293.628C434.554 293.628 436.662 293.492 437.988 292.812C439.348 292.2 439.756 291.044 439.756 288.8V262.586H435.846ZM465.766 283.394V288.936H452.336V283.394H465.766ZM448.358 293.764H452.336V292.506H465.766V293.764H469.914V279.824H448.358V293.764ZM452.132 272.888C454.92 270.678 457.3 268.264 458.898 265.986C460.53 268.23 463.046 270.678 465.868 272.888H452.132ZM456.62 262.008C454.07 266.156 448.63 271.29 442.782 274.112C443.666 274.962 444.788 276.424 445.332 277.41C447.134 276.424 448.936 275.302 450.602 274.078V276.458H467.534V274.112C469.234 275.336 471.002 276.458 472.736 277.342C473.45 276.084 474.368 274.758 475.354 273.704C469.948 271.528 464.44 267.21 460.802 262.008H456.62Z" fill="black"/>
<path d="M596.818 134.619L572 46.5H549" stroke="black" stroke-width="1.15553"/>
<path d="M564.463 176.796L511.309 121.331H464.51" stroke="black" stroke-width="1.15553"/>
<circle cx="642.461" cy="214.35" r="126.53" fill="#F0F0F1"/>
<path fill-rule="evenodd" clip-rule="evenodd" d="M620.24 89.7642L640.149 215.505L519.571 244.611C517.192 234.915 515.93 224.78 515.93 214.35C515.93 152.05 560.955 100.266 620.24 89.7642Z" fill="#A7A8AF"/>
<path fill-rule="evenodd" clip-rule="evenodd" d="M588.609 227.946L517.702 235.574C516.537 228.673 515.93 221.582 515.93 214.35C515.93 192.68 521.378 172.282 530.978 154.451L640.143 215.467L640.149 215.506L588.609 227.946Z" fill="#61636F"/>
<path fill-rule="evenodd" clip-rule="evenodd" d="M617.889 338.497C563.082 327.711 520.974 281.535 516.352 224.757L645.349 214.928L617.889 338.497Z" fill="#36394A"/>
<path fill-rule="evenodd" clip-rule="evenodd" d="M525.276 166.537C531.246 151.919 539.872 138.668 550.555 127.383L640.727 215.506L525.276 166.537Z" fill="#898B94"/>
<path fill-rule="evenodd" clip-rule="evenodd" d="M640.149 87.8405V215.506L608.922 336.388C619.603 339.317 630.849 340.881 642.461 340.881C712.341 340.881 768.991 284.231 768.991 214.35C768.991 144.469 712.341 87.8198 642.461 87.8198C641.689 87.8198 640.918 87.8267 640.149 87.8405Z" fill="#FEBA55"/>
<path d="M663.695 198.758L661.67 198.092C661.546 198.564 661.254 199.202 661.046 199.548C660.353 200.741 659.147 202.53 656.72 204.013L658.273 205.164C659.632 204.235 660.838 203.015 661.768 201.809H665.664C665.442 202.849 664.638 204.513 663.695 205.594C662.489 206.967 660.949 208.173 658.107 209.019L659.743 210.489C662.35 209.463 664.028 208.187 665.345 206.579C666.593 205.026 667.383 203.181 667.758 201.947C667.869 201.601 668.063 201.212 668.215 200.949L666.801 200.075C666.482 200.172 666.024 200.242 665.595 200.242H662.807C662.821 200.214 662.835 200.2 662.849 200.172C663.015 199.867 663.376 199.243 663.695 198.758ZM680.751 198.813H678.657C678.712 199.202 678.74 199.645 678.74 200.2V202.835C678.74 204.998 678.56 206.038 677.603 207.078C676.771 207.979 675.648 208.506 674.275 208.825L675.717 210.35C676.729 210.031 678.171 209.352 679.087 208.353C680.113 207.216 680.695 205.927 680.695 202.946V200.2C680.695 199.645 680.723 199.202 680.751 198.813ZM674.317 198.924H672.32C672.361 199.243 672.375 199.729 672.375 199.992V204.665C672.375 205.081 672.32 205.622 672.306 205.885H674.317C674.289 205.566 674.275 205.026 674.275 204.679V199.992C674.275 199.548 674.289 199.243 674.317 198.924ZM685.41 199.895V201.795C685.756 201.767 686.353 201.739 686.727 201.739H689.403V207.397H685.881C685.451 207.397 684.952 207.355 684.522 207.286V209.296C684.98 209.241 685.465 209.227 685.881 209.227H695.019C695.338 209.227 695.92 209.241 696.322 209.296V207.286C695.962 207.341 695.518 207.397 695.019 207.397H691.344V201.739H694.27C694.672 201.739 695.158 201.767 695.574 201.795V199.895C695.172 199.937 694.686 199.978 694.27 199.978H686.727C686.339 199.978 685.77 199.937 685.41 199.895ZM698.208 204.18L699.082 205.927C700.787 205.428 702.548 204.679 703.977 203.93V208.367C703.977 208.977 703.935 209.851 703.88 210.184H706.07C705.973 209.837 705.946 208.977 705.946 208.367V202.765C707.291 201.878 708.622 200.796 709.676 199.756L708.178 198.328C707.277 199.424 705.696 200.81 704.268 201.698C702.729 202.641 700.69 203.542 698.208 204.18ZM713.731 198.938V200.727C714.161 200.699 714.743 200.672 715.229 200.672H720.789C721.274 200.672 721.815 200.699 722.287 200.727V198.938C721.815 199.008 721.261 199.035 720.789 199.035H715.215C714.757 199.035 714.189 199.008 713.731 198.938ZM712.123 202.488V204.305C712.511 204.277 713.038 204.249 713.454 204.249H717.267C717.212 205.414 716.976 206.454 716.407 207.314C715.853 208.118 714.882 208.922 713.898 209.296L715.52 210.475C716.754 209.851 717.822 208.769 718.307 207.813C718.806 206.842 719.111 205.677 719.195 204.249H722.536C722.925 204.249 723.451 204.263 723.798 204.291V202.488C723.438 202.543 722.828 202.571 722.536 202.571H713.454C713.024 202.571 712.539 202.53 712.123 202.488ZM725.468 205.622L726.286 207.258C727.493 206.884 729.046 206.246 730.266 205.636V209.296C730.266 209.782 730.224 210.517 730.196 210.794H732.249C732.166 210.517 732.152 209.782 732.152 209.296V204.54C733.386 203.722 734.606 202.738 735.258 202.017L733.885 200.672C733.178 201.573 731.777 202.821 730.432 203.639C729.337 204.305 727.271 205.234 725.468 205.622ZM748.375 197.884L747.238 198.356C747.502 198.758 747.779 199.243 748.015 199.701C747.765 199.729 747.529 199.729 747.363 199.729H740.943C740.485 199.729 739.695 199.673 739.293 199.618V201.573C739.653 201.545 740.305 201.517 740.943 201.517H747.391C747.21 202.71 746.684 204.277 745.768 205.428C744.645 206.842 743.078 208.048 740.333 208.686L741.844 210.35C744.326 209.546 746.171 208.173 747.418 206.509C748.583 204.97 749.18 202.821 749.512 201.462C749.582 201.171 749.679 200.769 749.817 200.505L748.93 199.923L749.443 199.715C749.193 199.216 748.736 198.411 748.375 197.884ZM750.317 197.538L749.166 197.995C749.54 198.508 749.97 199.299 750.275 199.867L751.426 199.368C751.162 198.883 750.663 198.037 750.317 197.538Z" fill="black"/>
<path d="M677.28 240.56H681.004V245.819H677.28V252.928H670.758V245.819H657.284L656.991 241.711L670.69 220.068H677.28V240.56ZM663.491 240.56H670.758V228.96L670.329 229.705L663.491 240.56ZM706.868 223.724L694.162 252.928H687.278L700.007 225.349H683.667V220.068H706.868V223.724ZM710.976 226.387C710.976 224.371 711.63 222.739 712.939 221.49C714.248 220.226 715.963 219.594 718.085 219.594C720.236 219.594 721.967 220.218 723.276 221.467C724.585 222.701 725.239 224.379 725.239 226.5V228.125C725.239 230.156 724.585 231.789 723.276 233.022C721.967 234.256 720.251 234.873 718.13 234.873C715.993 234.873 714.263 234.256 712.939 233.022C711.63 231.774 710.976 230.096 710.976 227.99V226.387ZM715.309 228.125C715.309 229.028 715.565 229.757 716.076 230.314C716.603 230.856 717.287 231.127 718.13 231.127C718.973 231.127 719.642 230.848 720.139 230.292C720.635 229.735 720.883 228.99 720.883 228.057V226.387C720.883 225.484 720.635 224.755 720.139 224.198C719.642 223.641 718.958 223.363 718.085 223.363C717.257 223.363 716.588 223.641 716.076 224.198C715.565 224.74 715.309 225.499 715.309 226.477V228.125ZM726.684 244.871C726.684 242.84 727.346 241.207 728.67 239.974C729.994 238.725 731.709 238.1 733.815 238.1C735.952 238.1 737.675 238.717 738.984 239.951C740.308 241.17 740.97 242.855 740.97 245.007V246.631C740.97 248.648 740.323 250.28 739.029 251.529C737.735 252.763 736.012 253.38 733.861 253.38C731.694 253.38 729.956 252.755 728.647 251.506C727.338 250.258 726.684 248.603 726.684 246.541V244.871ZM731.017 246.631C731.017 247.459 731.288 248.166 731.829 248.753C732.371 249.34 733.048 249.633 733.861 249.633C735.696 249.633 736.614 248.618 736.614 246.586V244.871C736.614 243.968 736.358 243.246 735.847 242.705C735.335 242.148 734.658 241.869 733.815 241.869C732.973 241.869 732.296 242.148 731.784 242.705C731.273 243.246 731.017 243.991 731.017 244.939V246.631ZM719.416 250.468L716.234 248.753L732.281 223.07L735.463 224.785L719.416 250.468Z" fill="black"/>
<path d="M566.204 247.982L565.42 248.307C565.602 248.584 565.793 248.919 565.955 249.234C565.783 249.253 565.621 249.253 565.506 249.253H561.081C560.766 249.253 560.221 249.215 559.944 249.177V250.524C560.193 250.505 560.642 250.486 561.081 250.486H565.525C565.401 251.308 565.038 252.388 564.407 253.181C563.633 254.156 562.553 254.987 560.661 255.427L561.702 256.574C563.413 256.019 564.684 255.073 565.544 253.927C566.347 252.866 566.758 251.385 566.987 250.448C567.035 250.247 567.102 249.97 567.197 249.789L566.586 249.387L566.939 249.244C566.767 248.9 566.452 248.346 566.204 247.982ZM567.542 247.744L566.748 248.059C567.006 248.412 567.303 248.957 567.513 249.349L568.306 249.005C568.124 248.67 567.78 248.088 567.542 247.744ZM570.638 248.709V249.942C570.915 249.922 571.326 249.913 571.632 249.913H575.292C575.636 249.913 576.085 249.922 576.343 249.942V248.709C576.076 248.747 575.607 248.756 575.311 248.756H571.632C571.307 248.756 570.905 248.747 570.638 248.709ZM577.146 251.48L576.295 250.954C576.162 251.012 575.903 251.05 575.598 251.05H570.867C570.571 251.05 570.16 251.021 569.759 250.993V252.235C570.16 252.197 570.638 252.187 570.867 252.187H575.483C575.311 252.722 575.015 253.315 574.499 253.841C573.772 254.586 572.626 255.217 571.192 255.513L572.138 256.593C573.361 256.249 574.585 255.599 575.55 254.529C576.267 253.735 576.678 252.808 576.964 251.881C577.002 251.776 577.079 251.604 577.146 251.48ZM580.366 248.776L579.468 249.731C580.166 250.219 581.36 251.26 581.857 251.795L582.832 250.802C582.278 250.219 581.035 249.225 580.366 248.776ZM579.172 255.14L579.975 256.402C581.322 256.172 582.555 255.637 583.52 255.054C585.059 254.127 586.33 252.808 587.056 251.518L586.311 250.171C585.708 251.461 584.466 252.923 582.832 253.888C581.905 254.443 580.663 254.93 579.172 255.14ZM594.137 248.929L593.335 249.263C593.688 249.76 593.898 250.142 594.176 250.744L595.007 250.372C594.787 249.942 594.405 249.33 594.137 248.929ZM595.389 248.403L594.596 248.776C594.95 249.253 595.179 249.607 595.485 250.209L596.288 249.817C596.068 249.387 595.666 248.785 595.389 248.403ZM590.324 255.264C590.324 255.637 590.286 256.22 590.229 256.593H591.729C591.681 256.201 591.634 255.532 591.634 255.264V252.56C592.666 252.904 594.099 253.458 595.093 253.984L595.628 252.656C594.749 252.226 592.905 251.547 591.634 251.165V249.769C591.634 249.368 591.681 248.948 591.72 248.613H590.229C590.296 248.957 590.324 249.425 590.324 249.769V255.264Z" fill="white"/>
<path d="M565.718 280.152H562.347V267.156L558.322 268.405V265.663L565.357 263.143H565.718V280.152ZM571.749 271.799L572.729 263.167H582.248V265.978H575.494L575.074 269.629C575.875 269.202 576.727 268.988 577.629 268.988C579.246 268.988 580.514 269.489 581.432 270.493C582.35 271.496 582.808 272.9 582.808 274.704C582.808 275.801 582.575 276.784 582.108 277.655C581.65 278.519 580.989 279.191 580.125 279.674C579.262 280.148 578.243 280.385 577.069 280.385C576.042 280.385 575.09 280.179 574.211 279.767C573.332 279.347 572.636 278.76 572.123 278.005C571.617 277.251 571.349 276.392 571.318 275.427H574.654C574.724 276.135 574.969 276.687 575.389 277.084C575.817 277.473 576.373 277.667 577.057 277.667C577.819 277.667 578.407 277.395 578.819 276.85C579.231 276.298 579.437 275.521 579.437 274.517C579.437 273.553 579.2 272.814 578.725 272.301C578.251 271.788 577.578 271.531 576.707 271.531C575.906 271.531 575.257 271.741 574.759 272.161L574.432 272.464L571.749 271.799ZM584.92 266.433C584.92 265.391 585.258 264.547 585.935 263.902C586.611 263.248 587.498 262.922 588.595 262.922C589.707 262.922 590.601 263.244 591.278 263.89C591.954 264.528 592.293 265.395 592.293 266.491V267.331C592.293 268.381 591.954 269.225 591.278 269.863C590.601 270.5 589.715 270.819 588.618 270.819C587.514 270.819 586.619 270.5 585.935 269.863C585.258 269.217 584.92 268.35 584.92 267.261V266.433ZM587.16 267.331C587.16 267.798 587.292 268.175 587.556 268.463C587.829 268.743 588.182 268.883 588.618 268.883C589.053 268.883 589.4 268.739 589.656 268.451C589.913 268.163 590.041 267.778 590.041 267.296V266.433C590.041 265.966 589.913 265.589 589.656 265.301C589.4 265.014 589.046 264.87 588.595 264.87C588.167 264.87 587.821 265.014 587.556 265.301C587.292 265.581 587.16 265.974 587.16 266.48V267.331ZM593.039 275.987C593.039 274.937 593.381 274.093 594.066 273.456C594.75 272.81 595.637 272.487 596.726 272.487C597.83 272.487 598.72 272.806 599.397 273.444C600.081 274.074 600.424 274.945 600.424 276.057V276.897C600.424 277.939 600.089 278.783 599.42 279.429C598.752 280.066 597.861 280.385 596.749 280.385C595.629 280.385 594.731 280.062 594.054 279.417C593.378 278.771 593.039 277.916 593.039 276.85V275.987ZM595.279 276.897C595.279 277.325 595.419 277.69 595.699 277.994C595.979 278.297 596.329 278.449 596.749 278.449C597.698 278.449 598.172 277.924 598.172 276.874V275.987C598.172 275.521 598.04 275.147 597.775 274.867C597.511 274.58 597.161 274.436 596.726 274.436C596.29 274.436 595.94 274.58 595.676 274.867C595.411 275.147 595.279 275.532 595.279 276.022V276.897ZM589.283 278.88L587.638 277.994L595.932 264.718L597.577 265.605L589.283 278.88Z" fill="white"/>
<path d="M539.188 185.069H537.745C537.783 185.337 537.802 185.642 537.802 186.025V187.84C537.802 189.331 537.678 190.048 537.019 190.765C536.445 191.386 535.671 191.749 534.725 191.969L535.719 193.02C536.417 192.8 537.411 192.332 538.041 191.644C538.748 190.86 539.15 189.971 539.15 187.917V186.025C539.15 185.642 539.169 185.337 539.188 185.069ZM534.754 185.145H533.378C533.406 185.365 533.416 185.7 533.416 185.881V189.102C533.416 189.389 533.378 189.761 533.368 189.943H534.754C534.735 189.723 534.725 189.35 534.725 189.111V185.881C534.725 185.575 534.735 185.365 534.754 185.145ZM541.95 188.06V189.561C542.303 189.532 542.944 189.513 543.488 189.513H548.62C549.022 189.513 549.509 189.551 549.738 189.561V188.06C549.49 188.079 549.07 188.118 548.62 188.118H543.488C542.992 188.118 542.294 188.089 541.95 188.06ZM552.089 185.623L552.386 186.732C553.026 186.713 554.029 186.684 554.947 186.608V187.965H552.252C551.956 187.965 551.631 187.936 551.373 187.907V189.14C551.621 189.121 551.975 189.102 552.271 189.102H554.899C554.717 190.516 553.953 191.539 552.5 192.208L553.714 193.039C555.329 192.064 556.017 190.707 556.16 189.102H558.636C558.894 189.102 559.219 189.121 559.477 189.14V187.907C559.266 187.926 558.817 187.965 558.607 187.965H556.199V186.445C556.772 186.359 557.336 186.254 557.804 186.13C557.967 186.092 558.215 186.025 558.54 185.948L557.756 184.897C557.279 185.117 556.304 185.337 555.348 185.47C554.297 185.623 552.816 185.642 552.089 185.623Z" fill="white"/>
<path d="M538.838 208.215C537.959 209.079 536.932 209.51 535.758 209.51C534.257 209.51 533.055 208.997 532.153 207.97C531.251 206.936 530.8 205.544 530.8 203.794C530.8 202.682 531.041 201.663 531.523 200.738C532.013 199.804 532.694 199.081 533.565 198.568C534.436 198.047 535.416 197.786 536.505 197.786C537.625 197.786 538.62 198.066 539.491 198.626C540.362 199.186 541.039 199.991 541.521 201.041C542.003 202.091 542.248 203.293 542.256 204.646V205.894C542.256 208.725 541.552 210.949 540.144 212.567C538.737 214.184 536.742 215.048 534.16 215.157L533.332 215.168V212.357L534.078 212.345C537.01 212.213 538.597 210.836 538.838 208.215ZM536.586 206.932C537.131 206.932 537.597 206.792 537.986 206.512C538.383 206.232 538.682 205.894 538.884 205.497V204.109C538.884 202.966 538.667 202.079 538.231 201.449C537.796 200.819 537.212 200.504 536.481 200.504C535.805 200.504 535.249 200.816 534.813 201.438C534.378 202.052 534.16 202.826 534.16 203.759C534.16 204.685 534.37 205.447 534.79 206.046C535.218 206.637 535.816 206.932 536.586 206.932ZM544.624 201.286C544.624 200.244 544.962 199.4 545.639 198.755C546.315 198.101 547.202 197.775 548.299 197.775C549.411 197.775 550.305 198.097 550.982 198.743C551.658 199.381 551.997 200.248 551.997 201.344V202.184C551.997 203.234 551.658 204.078 550.982 204.716C550.305 205.353 549.419 205.672 548.322 205.672C547.218 205.672 546.323 205.353 545.639 204.716C544.962 204.07 544.624 203.203 544.624 202.114V201.286ZM546.864 202.184C546.864 202.651 546.996 203.028 547.26 203.316C547.533 203.596 547.886 203.736 548.322 203.736C548.758 203.736 549.104 203.592 549.36 203.304C549.617 203.016 549.745 202.631 549.745 202.149V201.286C549.745 200.819 549.617 200.442 549.36 200.154C549.104 199.867 548.75 199.723 548.299 199.723C547.871 199.723 547.525 199.867 547.26 200.154C546.996 200.434 546.864 200.827 546.864 201.333V202.184ZM552.743 210.84C552.743 209.79 553.085 208.947 553.77 208.309C554.454 207.663 555.341 207.341 556.43 207.341C557.534 207.341 558.424 207.659 559.101 208.297C559.785 208.927 560.128 209.798 560.128 210.91V211.75C560.128 212.792 559.793 213.636 559.124 214.282C558.456 214.919 557.565 215.238 556.453 215.238C555.333 215.238 554.435 214.915 553.758 214.27C553.082 213.624 552.743 212.769 552.743 211.703V210.84ZM554.983 211.75C554.983 212.178 555.123 212.543 555.403 212.847C555.683 213.15 556.033 213.302 556.453 213.302C557.402 213.302 557.876 212.777 557.876 211.727V210.84C557.876 210.374 557.744 210 557.48 209.72C557.215 209.433 556.865 209.289 556.43 209.289C555.994 209.289 555.644 209.433 555.38 209.72C555.115 210 554.983 210.385 554.983 210.875V211.75ZM548.987 213.733L547.342 212.847L555.636 199.571L557.281 200.458L548.987 213.733Z" fill="white"/>
<path d="M395.302 116.264C395.14 116.984 394.87 117.884 394.618 118.532H392.728L392.8 118.514C392.764 117.92 392.53 117.02 392.26 116.264H395.302ZM395.248 123.446C395.014 124.292 394.672 124.994 394.204 125.552C393.43 125.264 392.674 124.994 391.972 124.778C392.188 124.346 392.422 123.896 392.638 123.446H395.248ZM399.316 120.35V118.532H396.544C396.814 117.884 397.12 117.092 397.408 116.264H398.884V114.464H394.87V112.754H392.692V114.464H388.678V116.264H390.676L390.316 116.336C390.55 117.002 390.748 117.866 390.838 118.532H388.138V120.35H391.792C391.63 120.764 391.45 121.196 391.252 121.646H388.444L388.3 120.494L386.932 120.854V118.118H388.318V116.156H386.932V112.772H384.88V116.156H382.792V118.118H384.88V121.358C383.962 121.574 383.116 121.772 382.432 121.916L382.882 123.986L384.88 123.446V127.136C384.88 127.406 384.79 127.478 384.574 127.478C384.34 127.496 383.602 127.496 382.9 127.46C383.17 128.054 383.44 128.972 383.494 129.548C384.736 129.548 385.582 129.476 386.176 129.116C386.752 128.792 386.932 128.216 386.932 127.154V122.87C387.382 122.744 387.832 122.6 388.282 122.474V123.446H390.442C389.992 124.418 389.524 125.354 389.11 126.074L390.964 126.668L391.144 126.344C391.576 126.488 392.026 126.668 392.476 126.848C391.324 127.388 389.776 127.694 387.706 127.874C388.012 128.27 388.336 129.008 388.498 129.602C391.216 129.242 393.178 128.702 394.582 127.766C395.842 128.378 396.994 129.008 397.75 129.566L399.1 127.964C398.344 127.442 397.264 126.884 396.076 126.344C396.652 125.57 397.066 124.616 397.354 123.446H399.298V121.646H393.502C393.718 121.214 393.916 120.764 394.096 120.35H399.316ZM405.652 123.248V121.79H406.588V123.248H405.652ZM403.366 121.79H404.248V123.248H403.348C403.366 122.852 403.366 122.492 403.366 122.132V121.79ZM405.058 115.976C404.878 116.462 404.68 116.948 404.482 117.344H403.258C403.474 116.912 403.672 116.444 403.87 115.976H405.058ZM405.652 118.928H406.588V120.278H405.652V118.928ZM403.366 118.928H404.248V120.278H403.366V118.928ZM408.316 117.344H406.264C406.678 116.606 407.056 115.778 407.362 115.022L406.228 114.248L405.886 114.356H404.428C404.554 113.96 404.662 113.546 404.752 113.15L402.88 112.754C402.412 114.842 401.548 116.93 400.396 118.244C400.756 118.46 401.296 118.91 401.674 119.252V122.132C401.674 124.13 401.566 126.776 400.45 128.648C400.846 128.828 401.584 129.296 401.908 129.566C402.7 128.27 403.078 126.506 403.24 124.814H406.588V127.532C406.588 127.748 406.516 127.82 406.3 127.82C406.102 127.82 405.4 127.82 404.68 127.802C404.95 128.27 405.202 129.062 405.274 129.584C406.354 129.584 407.092 129.53 407.632 129.224C408.154 128.918 408.316 128.396 408.316 127.568V117.344ZM410.818 121.844V118.136H411.844V121.844H410.818ZM414.94 118.136V121.844H413.824V118.136H414.94ZM417.586 128.972C417.406 127.694 416.704 125.696 415.948 124.13L414.274 124.67C414.526 125.228 414.76 125.84 414.976 126.452L413.824 126.56V123.626H416.812V116.372H413.824V112.754H411.844V116.372H409.036V123.626H411.844V126.74C410.62 126.866 409.486 126.956 408.568 127.01L408.856 129.062C410.692 128.864 413.14 128.612 415.516 128.324C415.642 128.792 415.714 129.224 415.768 129.602L417.586 128.972ZM422.284 123.5C422.284 123.68 422.23 123.716 422.05 123.716C421.888 123.734 421.366 123.716 420.88 123.716C421.096 124.202 421.312 124.922 421.366 125.426C422.284 125.426 422.968 125.426 423.49 125.156C424.048 124.868 424.138 124.382 424.138 123.554V119.702H427.126V117.812H424.138V116.426H426.676V114.644H424.138V112.916H422.284V117.812H421.312V114.266H419.638V117.812H418.648V119.702H422.284V123.5ZM419.89 120.152C419.62 121.394 419.116 122.708 418.486 123.554C418.936 123.752 419.746 124.184 420.124 124.454C420.772 123.5 421.402 121.97 421.744 120.548L419.89 120.152ZM426.298 123.284L427.36 122.888C427.18 122.132 426.676 120.98 426.19 120.098L424.606 120.62C424.984 121.394 425.38 122.33 425.578 123.068L425.056 122.906C424.03 125.588 421.834 127.082 418.756 127.856C419.206 128.324 419.692 129.044 419.908 129.62C423.328 128.504 425.686 126.668 426.856 123.446L426.298 123.284ZM429.322 123.302H432.94V124.418H429.322V123.302ZM429.322 120.692H432.94V121.79H429.322V120.692ZM429.322 118.1H432.94V119.198H429.322V118.1ZM434.866 126.002V116.498H431.806C431.932 116.102 432.076 115.688 432.202 115.256H435.172V113.456H427.036V115.256H430.042C430.006 115.67 429.934 116.084 429.862 116.498H427.486V126.002H428.998C428.278 126.776 426.892 127.748 425.686 128.252C426.136 128.63 426.766 129.206 427.108 129.602C428.332 129.044 429.844 128.018 430.744 127.1L429.052 126.002H434.866ZM431.446 127.118C432.328 127.856 433.48 128.9 434.038 129.584L435.694 128.45C435.1 127.766 433.894 126.776 433.012 126.11L431.446 127.118ZM440.086 116.282H453.064V114.374H446.674V112.772H444.442V114.374H438.034V119.414C438.034 122.042 437.926 125.786 436.432 128.342C436.918 128.558 437.818 129.152 438.178 129.512C439.816 126.74 440.086 122.33 440.086 119.414V116.282ZM448.258 119.486V120.674H444.982V119.486H448.258ZM450.382 122.294V119.486H452.974V117.794H450.382V116.606H448.258V117.794H444.982V116.606H442.966V117.794H440.536V119.486H442.966V122.294H450.382ZM448.924 124.688C448.33 125.264 447.592 125.768 446.764 126.164C445.918 125.75 445.198 125.264 444.658 124.688H448.924ZM450.742 122.924L450.364 123.014H440.662V124.688H443.344L442.498 124.994C443.074 125.768 443.776 126.434 444.568 126.992C443.146 127.406 441.562 127.658 439.906 127.802C440.23 128.252 440.608 129.062 440.77 129.602C442.912 129.332 444.928 128.9 446.692 128.198C448.258 128.9 450.094 129.368 452.164 129.62C452.434 129.062 452.992 128.234 453.424 127.784C451.804 127.64 450.31 127.388 448.996 127.01C450.292 126.146 451.354 125.03 452.074 123.59L450.742 122.924Z" fill="#36394A"/>
<path d="M407.612 146.514L408.351 140.01H415.522V142.128H410.434L410.117 144.879C410.721 144.557 411.362 144.396 412.042 144.396C413.261 144.396 414.216 144.774 414.907 145.53C415.599 146.286 415.944 147.343 415.944 148.703C415.944 149.529 415.769 150.27 415.417 150.926C415.071 151.577 414.573 152.083 413.923 152.447C413.272 152.804 412.505 152.983 411.62 152.983C410.847 152.983 410.129 152.828 409.467 152.517C408.805 152.201 408.28 151.758 407.894 151.19C407.513 150.622 407.311 149.974 407.287 149.248H409.801C409.854 149.781 410.038 150.197 410.355 150.496C410.677 150.789 411.096 150.935 411.611 150.935C412.186 150.935 412.628 150.73 412.938 150.32C413.249 149.904 413.404 149.318 413.404 148.562C413.404 147.835 413.226 147.279 412.868 146.892C412.511 146.505 412.004 146.312 411.348 146.312C410.744 146.312 410.255 146.47 409.88 146.787L409.634 147.015L407.612 146.514ZM417.535 142.471C417.535 141.686 417.79 141.05 418.3 140.564C418.81 140.072 419.478 139.826 420.304 139.826C421.142 139.826 421.815 140.069 422.325 140.555C422.835 141.036 423.09 141.689 423.09 142.515V143.148C423.09 143.939 422.835 144.575 422.325 145.055C421.815 145.536 421.147 145.776 420.321 145.776C419.489 145.776 418.815 145.536 418.3 145.055C417.79 144.569 417.535 143.916 417.535 143.095V142.471ZM419.223 143.148C419.223 143.5 419.322 143.784 419.522 144C419.727 144.211 419.993 144.317 420.321 144.317C420.649 144.317 420.91 144.208 421.104 143.992C421.297 143.775 421.394 143.485 421.394 143.122V142.471C421.394 142.12 421.297 141.835 421.104 141.619C420.91 141.402 420.644 141.293 420.304 141.293C419.981 141.293 419.721 141.402 419.522 141.619C419.322 141.83 419.223 142.125 419.223 142.506V143.148ZM423.652 149.669C423.652 148.878 423.91 148.243 424.426 147.762C424.941 147.276 425.609 147.033 426.43 147.033C427.262 147.033 427.933 147.273 428.442 147.753C428.958 148.228 429.216 148.884 429.216 149.722V150.355C429.216 151.14 428.964 151.776 428.46 152.262C427.956 152.743 427.285 152.983 426.447 152.983C425.604 152.983 424.927 152.74 424.417 152.253C423.907 151.767 423.652 151.123 423.652 150.32V149.669ZM425.34 150.355C425.34 150.677 425.445 150.953 425.656 151.181C425.867 151.41 426.131 151.524 426.447 151.524C427.162 151.524 427.52 151.128 427.52 150.337V149.669C427.52 149.318 427.42 149.037 427.221 148.826C427.022 148.609 426.758 148.5 426.43 148.5C426.102 148.5 425.838 148.609 425.639 148.826C425.439 149.037 425.34 149.327 425.34 149.696V150.355ZM420.822 151.849L419.583 151.181L425.832 141.179L427.071 141.847L420.822 151.849Z" fill="#36394A"/>
<path d="M624.614 10.686C623.84 12.72 622.814 14.412 621.518 15.816C620.132 14.358 619.07 12.63 618.296 10.686H624.614ZM629.726 10.686V8.598H622.58V5.754H620.402V8.598H613.346V10.686H615.92C616.892 13.314 618.134 15.564 619.754 17.418C617.936 18.804 615.686 19.83 613.022 20.532C613.454 21.054 614.12 22.062 614.372 22.62C617.108 21.756 619.43 20.586 621.392 19.02C623.282 20.622 625.622 21.828 628.52 22.566C628.844 21.954 629.528 20.946 630.05 20.424C627.314 19.812 625.046 18.75 623.192 17.328C624.848 15.528 626.162 13.35 627.134 10.686H629.726ZM633.812 14.646C633.83 14.034 633.83 13.44 633.83 12.9V12.414H635.234V14.646H633.812ZM635.234 8.31V10.47H633.83V8.31H635.234ZM646.646 13.044C646.34 13.422 645.908 13.908 645.458 14.34C645.35 13.656 645.26 12.936 645.17 12.198C646.052 11.928 646.898 11.64 647.654 11.316L645.998 9.66C644.576 10.362 642.308 11.1 640.202 11.604V9.498C642.596 9.012 645.206 8.31 647.222 7.482L645.494 5.772C644.126 6.456 642.038 7.14 639.95 7.644L638.222 7.176V13.278C638.222 15.492 638.132 18.336 637.124 20.604V20.316V6.384H632.012V12.9C632.012 15.51 631.94 19.128 630.968 21.612C631.436 21.792 632.264 22.224 632.624 22.53C633.272 20.892 633.578 18.714 633.722 16.608H635.234V20.28C635.234 20.514 635.18 20.586 635 20.586C634.802 20.586 634.226 20.586 633.686 20.55C633.92 21.09 634.154 22.008 634.208 22.53C635.252 22.53 635.954 22.494 636.476 22.152C636.764 21.972 636.926 21.702 637.016 21.36C637.502 21.648 638.114 22.188 638.366 22.566C639.986 19.92 640.202 15.924 640.202 13.314V12.36C640.346 12.72 640.472 13.08 640.544 13.35L641.012 13.26V22.53H642.938V12.81L643.496 12.666C643.91 16.86 644.648 20.496 646.556 22.638C646.88 22.026 647.6 21.198 648.086 20.802C647.024 19.776 646.34 18.174 645.854 16.266C646.52 15.816 647.258 15.222 648.086 14.7L646.646 13.044Z" fill="#36394A"/>
<path d="M628.006 46.4214H619.234V44.6812L623.374 40.269C623.942 39.6479 624.361 39.106 624.631 38.6431C624.906 38.1802 625.044 37.7407 625.044 37.3247C625.044 36.7563 624.9 36.311 624.613 35.9888C624.326 35.6606 623.916 35.4966 623.383 35.4966C622.809 35.4966 622.355 35.6958 622.021 36.0942C621.692 36.4868 621.528 37.0054 621.528 37.6499H618.98C618.98 36.8706 619.164 36.1587 619.533 35.5142C619.908 34.8696 620.436 34.3657 621.115 34.0024C621.795 33.6333 622.565 33.4487 623.427 33.4487C624.745 33.4487 625.768 33.7651 626.494 34.3979C627.227 35.0308 627.593 35.9243 627.593 37.0786C627.593 37.7114 627.429 38.356 627.101 39.0122C626.772 39.6685 626.21 40.4331 625.413 41.3062L622.504 44.3735H628.006V46.4214ZM629.535 36.0854C629.535 35.3003 629.79 34.6646 630.3 34.1782C630.81 33.686 631.478 33.4399 632.304 33.4399C633.142 33.4399 633.815 33.6831 634.325 34.1694C634.835 34.6499 635.09 35.3032 635.09 36.1294V36.7622C635.09 37.5532 634.835 38.189 634.325 38.6694C633.815 39.1499 633.147 39.3901 632.321 39.3901C631.489 39.3901 630.815 39.1499 630.3 38.6694C629.79 38.1831 629.535 37.5298 629.535 36.7095V36.0854ZM631.223 36.7622C631.223 37.1138 631.322 37.3979 631.522 37.6147C631.727 37.8257 631.993 37.9312 632.321 37.9312C632.649 37.9312 632.91 37.8228 633.104 37.606C633.297 37.3892 633.394 37.0991 633.394 36.7358V36.0854C633.394 35.7339 633.297 35.4497 633.104 35.2329C632.91 35.0161 632.644 34.9077 632.304 34.9077C631.981 34.9077 631.721 35.0161 631.522 35.2329C631.322 35.4438 631.223 35.7397 631.223 36.1206V36.7622ZM635.652 43.2837C635.652 42.4927 635.91 41.8569 636.426 41.3765C636.941 40.8901 637.609 40.647 638.43 40.647C639.262 40.647 639.933 40.8872 640.442 41.3677C640.958 41.8423 641.216 42.4985 641.216 43.3364V43.9692C641.216 44.7544 640.964 45.3901 640.46 45.8765C639.956 46.3569 639.285 46.5972 638.447 46.5972C637.604 46.5972 636.927 46.354 636.417 45.8677C635.907 45.3813 635.652 44.7368 635.652 43.9341V43.2837ZM637.34 43.9692C637.34 44.2915 637.445 44.5669 637.656 44.7954C637.867 45.0239 638.131 45.1382 638.447 45.1382C639.162 45.1382 639.52 44.7427 639.52 43.9517V43.2837C639.52 42.9321 639.42 42.6509 639.221 42.4399C639.022 42.2231 638.758 42.1147 638.43 42.1147C638.102 42.1147 637.838 42.2231 637.639 42.4399C637.439 42.6509 637.34 42.9409 637.34 43.3101V43.9692ZM632.822 45.4634L631.583 44.7954L637.832 34.7935L639.071 35.4614L632.822 45.4634Z" fill="#36394A"/>
<path d="M392.778 37.744L390.168 36.934C390.006 37.546 389.628 38.374 389.34 38.806C388.44 40.372 386.766 42.838 383.616 44.8L385.56 46.294C387.378 45.034 389.052 43.306 390.312 41.632H395.46C395.19 42.748 394.416 44.314 393.48 45.61C392.346 44.854 391.212 44.116 390.258 43.576L388.656 45.214C389.574 45.79 390.762 46.6 391.932 47.464C390.438 48.958 388.44 50.416 385.326 51.37L387.414 53.188C390.222 52.126 392.274 50.596 393.858 48.922C394.596 49.516 395.262 50.074 395.748 50.524L397.458 48.49C396.936 48.058 396.234 47.536 395.46 46.978C396.738 45.178 397.638 43.252 398.124 41.794C398.286 41.344 398.52 40.858 398.718 40.516L396.882 39.382C396.486 39.508 395.874 39.58 395.316 39.58H391.662C391.878 39.184 392.328 38.374 392.778 37.744ZM402.192 43.666V46.492C402.858 46.438 404.064 46.402 405.09 46.402H414.756C415.512 46.402 416.43 46.474 416.862 46.492V43.666C416.394 43.702 415.602 43.774 414.756 43.774H405.09C404.154 43.774 402.84 43.72 402.192 43.666ZM432.432 37.456L430.992 38.032C431.478 38.734 432.036 39.796 432.414 40.534L433.854 39.922C433.512 39.256 432.882 38.104 432.432 37.456ZM434.556 36.628L433.134 37.222C433.62 37.906 434.196 38.95 434.574 39.706L436.014 39.076C435.69 38.446 435.024 37.312 434.556 36.628ZM426.438 38.32L423.666 37.78C423.63 38.338 423.504 39.022 423.288 39.616C423.072 40.3 422.73 41.236 422.244 42.082C421.56 43.198 420.408 44.818 419.13 45.79L421.38 47.158C422.46 46.204 423.558 44.674 424.296 43.36H428.094C427.806 47.122 426.312 49.336 424.422 50.794C423.99 51.136 423.36 51.514 422.712 51.784L425.142 53.404C428.4 51.352 430.272 48.148 430.596 43.36H433.116C433.53 43.36 434.322 43.378 434.988 43.432V40.966C434.394 41.074 433.584 41.092 433.116 41.092H425.358C425.556 40.624 425.718 40.174 425.862 39.796C426.006 39.4 426.24 38.77 426.438 38.32ZM440.154 38.194V40.516C440.712 40.48 441.468 40.444 442.098 40.444H449.316C449.946 40.444 450.648 40.48 451.26 40.516V38.194C450.648 38.284 449.928 38.32 449.316 38.32H442.08C441.486 38.32 440.748 38.284 440.154 38.194ZM438.066 42.802V45.16C438.57 45.124 439.254 45.088 439.794 45.088H444.744C444.672 46.6 444.366 47.95 443.628 49.066C442.908 50.11 441.648 51.154 440.37 51.64L442.476 53.17C444.078 52.36 445.464 50.956 446.094 49.714C446.742 48.454 447.138 46.942 447.246 45.088H451.584C452.088 45.088 452.772 45.106 453.222 45.142V42.802C452.754 42.874 451.962 42.91 451.584 42.91H439.794C439.236 42.91 438.606 42.856 438.066 42.802ZM455.39 46.87L456.452 48.994C458.018 48.508 460.034 47.68 461.618 46.888V51.64C461.618 52.27 461.564 53.224 461.528 53.584H464.192C464.084 53.224 464.066 52.27 464.066 51.64V45.466C465.668 44.404 467.252 43.126 468.098 42.19L466.316 40.444C465.398 41.614 463.58 43.234 461.834 44.296C460.412 45.16 457.73 46.366 455.39 46.87ZM475.802 38.32L474.11 40.12C475.424 41.038 477.674 43 478.61 44.008L480.446 42.136C479.402 41.038 477.062 39.166 475.802 38.32ZM473.552 50.308L475.064 52.684C477.602 52.252 479.924 51.244 481.742 50.146C484.64 48.4 487.034 45.916 488.402 43.486L486.998 40.948C485.864 43.378 483.524 46.132 480.446 47.95C478.7 48.994 476.36 49.912 473.552 50.308ZM503.486 37.258L502.064 37.834C502.514 38.482 503.018 39.436 503.378 40.156L503.252 40.084C502.856 40.21 502.244 40.3 501.686 40.3H498.086C498.104 40.264 498.122 40.246 498.14 40.21C498.338 39.814 498.806 39.004 499.238 38.374L496.592 37.51C496.43 38.122 496.052 38.95 495.782 39.382C494.9 40.93 493.316 43.27 490.166 45.178L492.182 46.69C493.964 45.484 495.53 43.9 496.736 42.334H501.794C501.506 43.666 500.462 45.844 499.238 47.23C497.654 49.03 495.656 50.596 491.984 51.694L494.108 53.602C497.492 52.252 499.652 50.614 501.362 48.508C503 46.51 504.026 44.116 504.512 42.514C504.656 42.064 504.908 41.56 505.106 41.218L503.576 40.282L504.908 39.724C504.584 39.058 503.936 37.906 503.486 37.258ZM505.61 36.448L504.188 37.024C504.692 37.708 505.268 38.752 505.646 39.508L507.068 38.896C506.744 38.266 506.078 37.114 505.61 36.448ZM512.306 44.89V44.71H514.016V42.712H512.306V41.938L513.44 42.244C513.872 41.218 514.358 39.544 514.79 38.14L513.098 37.78C512.936 38.86 512.63 40.336 512.306 41.434V36.844H510.398V41.74C510.308 40.642 509.966 39.076 509.516 37.87L508.13 38.23C508.544 39.49 508.904 41.2 508.94 42.28L510.398 41.938V42.712H508.148V44.71H510.128C509.588 46.348 508.724 48.274 507.842 49.39C508.148 50.002 508.634 50.956 508.832 51.604C509.408 50.776 509.93 49.606 510.398 48.328V53.512H512.306V47.392C512.738 48.202 513.152 49.084 513.368 49.66L514.718 48.004C514.376 47.482 512.81 45.358 512.342 44.854L512.306 44.89ZM517.436 49.462V48.58H521.756V49.462H517.436ZM521.756 46.312V47.194H517.436V46.312H521.756ZM523.772 44.8H515.456V53.584H517.436V50.848H521.756V51.604C521.756 51.802 521.684 51.874 521.45 51.874C521.234 51.892 520.478 51.892 519.812 51.856C520.046 52.342 520.298 53.044 520.37 53.548C521.522 53.566 522.368 53.53 522.962 53.26C523.592 52.99 523.772 52.522 523.772 51.64V44.8ZM520.514 42.514V41.74H523.952V40.318H520.514V39.598H524.348V38.068H520.514V36.79H518.498V38.068H515.006V39.598H518.498V40.318H515.438V41.74H518.498V42.514H514.502V44.062H524.798V42.514H520.514ZM529.55 40.282H542.528V38.374H536.138V36.772H533.906V38.374H527.498V43.414C527.498 46.042 527.39 49.786 525.896 52.342C526.382 52.558 527.282 53.152 527.642 53.512C529.28 50.74 529.55 46.33 529.55 43.414V40.282ZM537.722 43.486V44.674H534.446V43.486H537.722ZM539.846 46.294V43.486H542.438V41.794H539.846V40.606H537.722V41.794H534.446V40.606H532.43V41.794H530V43.486H532.43V46.294H539.846ZM538.388 48.688C537.794 49.264 537.056 49.768 536.228 50.164C535.382 49.75 534.662 49.264 534.122 48.688H538.388ZM540.206 46.924L539.828 47.014H530.126V48.688H532.808L531.962 48.994C532.538 49.768 533.24 50.434 534.032 50.992C532.61 51.406 531.026 51.658 529.37 51.802C529.694 52.252 530.072 53.062 530.234 53.602C532.376 53.332 534.392 52.9 536.156 52.198C537.722 52.9 539.558 53.368 541.628 53.62C541.898 53.062 542.456 52.234 542.888 51.784C541.268 51.64 539.774 51.388 538.46 51.01C539.756 50.146 540.818 49.03 541.538 47.59L540.206 46.924Z" fill="#36394A"/>
<path d="M458.176 72.6929C457.514 73.3433 456.74 73.6685 455.855 73.6685C454.725 73.6685 453.819 73.2817 453.14 72.5083C452.46 71.729 452.12 70.6802 452.12 69.3618C452.12 68.5239 452.302 67.7563 452.665 67.0591C453.034 66.356 453.547 65.811 454.203 65.4243C454.859 65.0317 455.598 64.8354 456.418 64.8354C457.262 64.8354 458.012 65.0464 458.668 65.4683C459.324 65.8901 459.834 66.4966 460.197 67.2876C460.561 68.0786 460.745 68.9839 460.751 70.0034V70.9438C460.751 73.0767 460.221 74.7524 459.16 75.9712C458.1 77.1899 456.597 77.8403 454.651 77.9224L454.027 77.9312V75.813L454.59 75.8042C456.799 75.7046 457.994 74.6675 458.176 72.6929ZM456.48 71.7261C456.89 71.7261 457.241 71.6206 457.534 71.4097C457.833 71.1987 458.059 70.9438 458.211 70.645V69.5991C458.211 68.7378 458.047 68.0698 457.719 67.5952C457.391 67.1206 456.951 66.8833 456.4 66.8833C455.891 66.8833 455.472 67.1177 455.144 67.5864C454.815 68.0493 454.651 68.6323 454.651 69.3354C454.651 70.0327 454.81 70.6069 455.126 71.0581C455.448 71.5034 455.899 71.7261 456.48 71.7261ZM462.535 67.4722C462.535 66.687 462.79 66.0513 463.3 65.5649C463.81 65.0728 464.478 64.8267 465.304 64.8267C466.142 64.8267 466.815 65.0698 467.325 65.5562C467.835 66.0366 468.09 66.6899 468.09 67.5161V68.1489C468.09 68.9399 467.835 69.5757 467.325 70.0562C466.815 70.5366 466.147 70.7769 465.321 70.7769C464.489 70.7769 463.815 70.5366 463.3 70.0562C462.79 69.5698 462.535 68.9165 462.535 68.0962V67.4722ZM464.223 68.1489C464.223 68.5005 464.322 68.7847 464.522 69.0015C464.727 69.2124 464.993 69.3179 465.321 69.3179C465.649 69.3179 465.91 69.2095 466.104 68.9927C466.297 68.7759 466.394 68.4858 466.394 68.1226V67.4722C466.394 67.1206 466.297 66.8364 466.104 66.6196C465.91 66.4028 465.644 66.2944 465.304 66.2944C464.981 66.2944 464.721 66.4028 464.522 66.6196C464.322 66.8306 464.223 67.1265 464.223 67.5073V68.1489ZM468.652 74.6704C468.652 73.8794 468.91 73.2437 469.426 72.7632C469.941 72.2769 470.609 72.0337 471.43 72.0337C472.262 72.0337 472.933 72.2739 473.442 72.7544C473.958 73.229 474.216 73.8853 474.216 74.7231V75.356C474.216 76.1411 473.964 76.7769 473.46 77.2632C472.956 77.7437 472.285 77.9839 471.447 77.9839C470.604 77.9839 469.927 77.7407 469.417 77.2544C468.907 76.7681 468.652 76.1235 468.652 75.3208V74.6704ZM470.34 75.356C470.34 75.6782 470.445 75.9536 470.656 76.1821C470.867 76.4106 471.131 76.5249 471.447 76.5249C472.162 76.5249 472.52 76.1294 472.52 75.3384V74.6704C472.52 74.3188 472.42 74.0376 472.221 73.8267C472.022 73.6099 471.758 73.5015 471.43 73.5015C471.102 73.5015 470.838 73.6099 470.639 73.8267C470.439 74.0376 470.34 74.3276 470.34 74.6968V75.356ZM465.822 76.8501L464.583 76.1821L470.832 66.1802L472.071 66.8481L465.822 76.8501Z" fill="#36394A"/>
<path d="M629.172 88.9759V54.3101" stroke="black" stroke-width="1.15553"/>
<path d="M764.537 301.797C764.537 301.297 764.36 300.911 764.006 300.641C763.657 300.37 763.024 300.096 762.107 299.82C761.191 299.544 760.462 299.237 759.92 298.898C758.883 298.247 758.365 297.398 758.365 296.352C758.365 295.435 758.738 294.68 759.482 294.086C760.232 293.492 761.204 293.195 762.396 293.195C763.188 293.195 763.894 293.341 764.514 293.633C765.133 293.924 765.62 294.341 765.975 294.883C766.329 295.419 766.506 296.016 766.506 296.672H764.537C764.537 296.078 764.35 295.615 763.975 295.281C763.605 294.943 763.074 294.773 762.381 294.773C761.735 294.773 761.232 294.911 760.873 295.188C760.519 295.464 760.342 295.849 760.342 296.344C760.342 296.76 760.535 297.109 760.92 297.391C761.305 297.667 761.941 297.938 762.826 298.203C763.712 298.464 764.423 298.763 764.959 299.102C765.495 299.435 765.889 299.82 766.139 300.258C766.389 300.69 766.514 301.198 766.514 301.781C766.514 302.729 766.149 303.484 765.42 304.047C764.696 304.604 763.712 304.883 762.467 304.883C761.644 304.883 760.886 304.732 760.193 304.43C759.506 304.122 758.969 303.701 758.584 303.164C758.204 302.628 758.014 302.003 758.014 301.289H759.99C759.99 301.935 760.204 302.435 760.631 302.789C761.058 303.143 761.67 303.32 762.467 303.32C763.154 303.32 763.67 303.182 764.014 302.906C764.363 302.625 764.537 302.255 764.537 301.797ZM767.709 300.422C767.709 299.594 767.873 298.849 768.201 298.188C768.529 297.521 768.99 297.01 769.584 296.656C770.178 296.297 770.86 296.117 771.631 296.117C772.771 296.117 773.696 296.484 774.404 297.219C775.118 297.953 775.503 298.927 775.561 300.141L775.568 300.586C775.568 301.419 775.407 302.164 775.084 302.82C774.766 303.477 774.308 303.984 773.709 304.344C773.115 304.703 772.428 304.883 771.646 304.883C770.454 304.883 769.498 304.487 768.779 303.695C768.066 302.898 767.709 301.839 767.709 300.516V300.422ZM769.607 300.586C769.607 301.456 769.787 302.138 770.146 302.633C770.506 303.122 771.006 303.367 771.646 303.367C772.287 303.367 772.785 303.117 773.139 302.617C773.498 302.117 773.678 301.385 773.678 300.422C773.678 299.568 773.493 298.891 773.123 298.391C772.758 297.891 772.261 297.641 771.631 297.641C771.011 297.641 770.519 297.888 770.154 298.383C769.79 298.872 769.607 299.607 769.607 300.586ZM782.295 303.898C781.738 304.555 780.946 304.883 779.92 304.883C779.003 304.883 778.308 304.615 777.834 304.078C777.365 303.542 777.131 302.766 777.131 301.75V296.273H779.029V301.727C779.029 302.799 779.475 303.336 780.365 303.336C781.287 303.336 781.91 303.005 782.232 302.344V296.273H784.131V304.727H782.342L782.295 303.898ZM790.49 298.008C790.24 297.966 789.982 297.945 789.717 297.945C788.847 297.945 788.261 298.279 787.959 298.945V304.727H786.061V296.273H787.873L787.92 297.219C788.378 296.484 789.014 296.117 789.826 296.117C790.097 296.117 790.321 296.154 790.498 296.227L790.49 298.008ZM795.006 303.367C795.48 303.367 795.873 303.229 796.186 302.953C796.498 302.677 796.665 302.336 796.686 301.93H798.475C798.454 302.456 798.29 302.948 797.982 303.406C797.675 303.859 797.258 304.219 796.732 304.484C796.206 304.75 795.639 304.883 795.029 304.883C793.847 304.883 792.91 304.5 792.217 303.734C791.524 302.969 791.178 301.911 791.178 300.562V300.367C791.178 299.081 791.521 298.052 792.209 297.281C792.896 296.505 793.834 296.117 795.021 296.117C796.027 296.117 796.844 296.411 797.475 297C798.11 297.583 798.443 298.352 798.475 299.305H796.686C796.665 298.82 796.498 298.422 796.186 298.109C795.878 297.797 795.485 297.641 795.006 297.641C794.391 297.641 793.917 297.865 793.584 298.312C793.251 298.755 793.081 299.43 793.076 300.336V300.641C793.076 301.557 793.24 302.242 793.568 302.695C793.902 303.143 794.381 303.367 795.006 303.367ZM803.631 304.883C802.428 304.883 801.451 304.505 800.701 303.75C799.956 302.99 799.584 301.979 799.584 300.719V300.484C799.584 299.641 799.745 298.888 800.068 298.227C800.396 297.56 800.855 297.042 801.443 296.672C802.032 296.302 802.688 296.117 803.412 296.117C804.563 296.117 805.451 296.484 806.076 297.219C806.706 297.953 807.021 298.992 807.021 300.336V301.102H801.498C801.555 301.799 801.787 302.352 802.193 302.758C802.605 303.164 803.12 303.367 803.74 303.367C804.61 303.367 805.318 303.016 805.865 302.312L806.889 303.289C806.55 303.794 806.097 304.188 805.529 304.469C804.967 304.745 804.334 304.883 803.631 304.883ZM803.404 297.641C802.883 297.641 802.462 297.823 802.139 298.188C801.821 298.552 801.618 299.06 801.529 299.711H805.146V299.57C805.105 298.935 804.936 298.456 804.639 298.133C804.342 297.805 803.93 297.641 803.404 297.641ZM809.646 302.727C810.001 302.727 810.274 302.828 810.467 303.031C810.66 303.229 810.756 303.479 810.756 303.781C810.756 304.078 810.66 304.326 810.467 304.523C810.274 304.716 810.001 304.812 809.646 304.812C809.308 304.812 809.04 304.716 808.842 304.523C808.644 304.331 808.545 304.083 808.545 303.781C808.545 303.479 808.641 303.229 808.834 303.031C809.027 302.828 809.298 302.727 809.646 302.727ZM809.646 296.094C810.001 296.094 810.274 296.195 810.467 296.398C810.66 296.596 810.756 296.846 810.756 297.148C810.756 297.445 810.66 297.693 810.467 297.891C810.274 298.083 810.001 298.18 809.646 298.18C809.308 298.18 809.04 298.083 808.842 297.891C808.644 297.698 808.545 297.451 808.545 297.148C808.545 296.846 808.641 296.596 808.834 296.398C809.027 296.195 809.298 296.094 809.646 296.094ZM765.936 327.727H758.287V326.422L762.076 322.289C762.623 321.68 763.011 321.172 763.24 320.766C763.475 320.354 763.592 319.943 763.592 319.531C763.592 318.99 763.438 318.552 763.131 318.219C762.829 317.885 762.42 317.719 761.904 317.719C761.29 317.719 760.813 317.906 760.475 318.281C760.136 318.656 759.967 319.169 759.967 319.82H758.068C758.068 319.128 758.225 318.505 758.537 317.953C758.855 317.396 759.305 316.964 759.889 316.656C760.477 316.349 761.154 316.195 761.92 316.195C763.024 316.195 763.894 316.474 764.529 317.031C765.17 317.583 765.49 318.349 765.49 319.328C765.49 319.896 765.329 320.492 765.006 321.117C764.688 321.737 764.165 322.443 763.436 323.234L760.654 326.211H765.936V327.727ZM774.795 322.938C774.795 324.573 774.488 325.807 773.873 326.641C773.264 327.469 772.334 327.883 771.084 327.883C769.855 327.883 768.928 327.479 768.303 326.672C767.683 325.859 767.365 324.659 767.35 323.07V321.102C767.35 319.466 767.654 318.24 768.264 317.422C768.878 316.604 769.813 316.195 771.068 316.195C772.313 316.195 773.24 316.594 773.85 317.391C774.464 318.188 774.779 319.38 774.795 320.969V322.938ZM772.896 320.812C772.896 319.745 772.751 318.964 772.459 318.469C772.167 317.969 771.704 317.719 771.068 317.719C770.449 317.719 769.993 317.956 769.701 318.43C769.41 318.898 769.256 319.633 769.24 320.633V323.211C769.24 324.273 769.389 325.065 769.686 325.586C769.982 326.107 770.449 326.367 771.084 326.367C771.693 326.367 772.144 326.128 772.436 325.648C772.727 325.164 772.881 324.409 772.896 323.383V320.812ZM781.615 327.727H779.725V318.594L776.936 319.547V317.945L781.373 316.312H781.615V327.727ZM793.139 317.406L788.592 327.727H786.6L791.139 317.875H785.256V316.352H793.139V317.406ZM798.435 324.143V320.975H802.019V324.143H798.435ZM809.011 324.143H803.219V320.975H807.907V319.855H803.219V317.423H808.275V316.271H798.739C798.995 315.727 799.251 315.151 799.475 314.591L798.275 314.303C797.523 316.447 796.179 318.511 794.675 319.823C794.979 319.983 795.475 320.383 795.699 320.575C796.563 319.743 797.411 318.655 798.131 317.423H802.019V319.855H797.251V324.143H794.627V325.295H802.019V328.959H803.219V325.295H809.011V324.143ZM812.659 317.311V318.751C813.155 318.735 813.683 318.703 814.243 318.703H821.091C821.619 318.703 822.227 318.719 822.675 318.751V317.311C822.227 317.359 821.667 317.375 821.091 317.375H814.243C813.715 317.375 813.171 317.343 812.659 317.311ZM811.283 325.231V326.767C811.827 326.735 812.387 326.687 812.963 326.687H822.547C822.979 326.687 823.523 326.719 824.003 326.767V325.231C823.539 325.279 823.027 325.311 822.547 325.311H812.963C812.387 325.311 811.827 325.263 811.283 325.231ZM827.443 320.799V322.367C827.939 322.319 828.787 322.287 829.667 322.287H838.451C839.171 322.287 839.843 322.351 840.163 322.367V320.799C839.811 320.831 839.235 320.879 838.435 320.879H829.667C828.771 320.879 827.923 320.831 827.443 320.799ZM850.195 327.391L851.043 328.095C851.155 327.999 851.331 327.871 851.587 327.727C853.443 326.815 855.667 325.167 857.043 323.295L856.291 322.207C855.059 324.015 853.091 325.471 851.619 326.143V316.911C851.619 316.303 851.667 315.839 851.683 315.727H850.211C850.227 315.839 850.307 316.303 850.307 316.911V326.495C850.307 326.815 850.259 327.135 850.195 327.391ZM842.867 327.311L844.067 328.127C845.411 327.007 846.435 325.439 846.915 323.727C847.347 322.127 847.411 318.703 847.411 316.927C847.411 316.447 847.475 315.967 847.491 315.775H846.019C846.083 316.111 846.131 316.463 846.131 316.943C846.131 318.719 846.115 321.919 845.651 323.375C845.171 324.927 844.211 326.351 842.867 327.311ZM862.707 325.663C862.707 327.247 863.251 328.015 866.227 328.015C868.227 328.015 869.827 327.903 871.251 327.695L871.315 326.319C869.715 326.623 868.179 326.783 866.323 326.783C864.419 326.783 864.003 326.431 864.003 325.327V320.559C866.835 319.983 869.779 319.391 870.051 319.343C869.571 320.303 868.403 322.063 867.203 323.151L868.323 323.823C869.603 322.495 870.867 320.495 871.603 319.167C871.715 318.959 871.875 318.687 871.987 318.527L871.043 317.791C870.851 317.903 870.547 317.999 870.195 318.079C869.523 318.223 866.723 318.799 864.003 319.327V316.831C864.003 316.367 864.035 315.823 864.115 315.359H862.595C862.675 315.823 862.707 316.351 862.707 316.831V319.567C861.011 319.887 859.491 320.159 858.771 320.255L859.011 321.583C859.667 321.439 861.091 321.151 862.707 320.815V325.663ZM877.443 315.999L876.531 316.975C877.715 317.775 879.715 319.487 880.515 320.319L881.523 319.311C880.627 318.415 878.579 316.751 877.443 315.999ZM876.067 326.719L876.915 328.031C879.587 327.535 881.603 326.559 883.203 325.551C885.619 324.031 887.491 321.855 888.579 319.855L887.811 318.495C886.883 320.463 884.931 322.831 882.467 324.383C880.947 325.327 878.867 326.303 876.067 326.719ZM895.171 314.895H891.235V315.855H895.171V314.895ZM895.619 316.991H890.483V317.967H895.619V316.991ZM895.203 319.151H891.139V320.095H895.203V319.151ZM891.139 322.223H895.203V321.263H891.139V322.223ZM894.211 324.383V327.055H892.083V324.383H894.211ZM895.203 328.015V323.407H891.123V328.767H892.083V328.015H895.203ZM898.195 320.175V321.087H902.883V320.175H900.947V318.639H902.643V317.727H900.947V316.351H899.971V317.727H898.323V318.639H899.971V320.175H898.195ZM901.635 323.231V325.519H899.331V323.231H901.635ZM902.547 326.431V322.319H898.419V327.055H899.331V326.431H902.547ZM904.627 315.007H896.419V320.703C896.419 323.055 896.323 326.175 895.075 328.383C895.347 328.511 895.827 328.847 896.003 329.039C897.331 326.703 897.507 323.183 897.507 320.703V316.047H903.539V327.439C903.539 327.711 903.459 327.775 903.219 327.775C902.947 327.791 902.115 327.807 901.267 327.759C901.411 328.079 901.571 328.623 901.619 328.927C902.803 328.927 903.603 328.911 904.035 328.719C904.483 328.527 904.627 328.143 904.627 327.439V315.007ZM906.563 323.631L907.731 324.847C907.987 324.511 908.355 323.999 908.675 323.567C909.491 322.575 910.819 320.815 911.571 319.903C912.115 319.215 912.435 319.087 913.107 319.855C913.843 320.671 915.075 322.207 916.115 323.375C917.203 324.623 918.643 326.287 919.859 327.439L920.883 326.287C919.443 324.991 917.859 323.311 916.883 322.255C915.875 321.167 914.643 319.583 913.683 318.591C912.627 317.519 911.795 317.679 910.851 318.767C909.907 319.887 908.563 321.727 907.715 322.575C907.283 323.023 906.963 323.343 906.563 323.631ZM916.883 316.927L915.971 317.327C916.499 318.063 917.059 319.071 917.459 319.903L918.403 319.487C918.035 318.719 917.283 317.519 916.883 316.927ZM918.947 316.111L918.051 316.527C918.595 317.247 919.171 318.223 919.603 319.071L920.515 318.623C920.147 317.871 919.363 316.671 918.947 316.111Z" fill="black"/>
</svg>
