<svg width="675" height="629" viewBox="0 0 675 629" fill="none" xmlns="http://www.w3.org/2000/svg">
<path d="M277.388 234.651L234.296 137.5H199.5" stroke="black" stroke-width="2"/>
<path d="M310 203L328 145H370.5" stroke="black" stroke-width="2"/>
<path d="M241.9 280.911L183.6 220.076H132.271" stroke="black" stroke-width="2"/>
<circle cx="328.44" cy="385.44" r="194.44" fill="#F0F0F1"/>
<path fill-rule="evenodd" clip-rule="evenodd" d="M294.294 193.988L324.889 387.216L139.596 431.942C135.939 417.042 134 401.467 134 385.44C134 289.703 203.19 210.127 294.294 193.988Z" fill="#A7A8AF"/>
<path fill-rule="evenodd" clip-rule="evenodd" d="M245.683 406.334L136.723 418.055C134.932 407.45 134 396.554 134 385.44C134 352.139 142.371 320.794 157.125 293.393L324.879 387.157L324.889 387.216L245.683 406.334Z" fill="#61636F"/>
<path fill-rule="evenodd" clip-rule="evenodd" d="M290.681 576.218C206.458 559.643 141.751 488.684 134.649 401.432L332.879 386.329L290.681 576.218Z" fill="#36394A"/>
<path fill-rule="evenodd" clip-rule="evenodd" d="M148.361 311.967C157.536 289.503 170.791 269.14 187.207 251.798L325.775 387.217L148.361 311.967Z" fill="#898B94"/>
<path fill-rule="evenodd" clip-rule="evenodd" d="M324.889 191.032V387.216L276.901 572.976C293.315 577.476 310.597 579.88 328.44 579.88C435.826 579.88 522.88 492.826 522.88 385.44C522.88 278.054 435.826 191 328.44 191C327.254 191 326.07 191.011 324.889 191.032Z" fill="#FEBA55"/>
<path d="M362.314 359.57L359.686 358.706C359.524 359.318 359.146 360.146 358.876 360.596C357.976 362.144 356.41 364.466 353.26 366.392L355.276 367.886C357.04 366.68 358.606 365.096 359.812 363.53H364.87C364.582 364.88 363.538 367.04 362.314 368.444C360.748 370.226 358.75 371.792 355.06 372.89L357.184 374.798C360.568 373.466 362.746 371.81 364.456 369.722C366.076 367.706 367.102 365.312 367.588 363.71C367.732 363.26 367.984 362.756 368.182 362.414L366.346 361.28C365.932 361.406 365.338 361.496 364.78 361.496H361.162C361.18 361.46 361.198 361.442 361.216 361.406C361.432 361.01 361.9 360.2 362.314 359.57ZM384.454 359.642H381.736C381.808 360.146 381.844 360.722 381.844 361.442V364.862C381.844 367.67 381.61 369.02 380.368 370.37C379.288 371.54 377.83 372.224 376.048 372.638L377.92 374.618C379.234 374.204 381.106 373.322 382.294 372.026C383.626 370.55 384.382 368.876 384.382 365.006V361.442C384.382 360.722 384.418 360.146 384.454 359.642ZM376.102 359.786H373.51C373.564 360.2 373.582 360.83 373.582 361.172V367.238C373.582 367.778 373.51 368.48 373.492 368.822H376.102C376.066 368.408 376.048 367.706 376.048 367.256V361.172C376.048 360.596 376.066 360.2 376.102 359.786ZM390.502 361.046V363.512C390.952 363.476 391.726 363.44 392.212 363.44H395.686V370.784H391.114C390.556 370.784 389.908 370.73 389.35 370.64V373.25C389.944 373.178 390.574 373.16 391.114 373.16H402.976C403.39 373.16 404.146 373.178 404.668 373.25V370.64C404.2 370.712 403.624 370.784 402.976 370.784H398.206V363.44H402.004C402.526 363.44 403.156 363.476 403.696 363.512V361.046C403.174 361.1 402.544 361.154 402.004 361.154H392.212C391.708 361.154 390.97 361.1 390.502 361.046ZM407.116 366.608L408.25 368.876C410.464 368.228 412.75 367.256 414.604 366.284V372.044C414.604 372.836 414.55 373.97 414.478 374.402H417.322C417.196 373.952 417.16 372.836 417.16 372.044V364.772C418.906 363.62 420.634 362.216 422.002 360.866L420.058 359.012C418.888 360.434 416.836 362.234 414.982 363.386C412.984 364.61 410.338 365.78 407.116 366.608ZM427.266 359.804V362.126C427.824 362.09 428.58 362.054 429.21 362.054H436.428C437.058 362.054 437.76 362.09 438.372 362.126V359.804C437.76 359.894 437.04 359.93 436.428 359.93H429.192C428.598 359.93 427.86 359.894 427.266 359.804ZM425.178 364.412V366.77C425.682 366.734 426.366 366.698 426.906 366.698H431.856C431.784 368.21 431.478 369.56 430.74 370.676C430.02 371.72 428.76 372.764 427.482 373.25L429.588 374.78C431.19 373.97 432.576 372.566 433.206 371.324C433.854 370.064 434.25 368.552 434.358 366.698H438.696C439.2 366.698 439.884 366.716 440.334 366.752V364.412C439.866 364.484 439.074 364.52 438.696 364.52H426.906C426.348 364.52 425.718 364.466 425.178 364.412ZM442.502 368.48L443.564 370.604C445.13 370.118 447.146 369.29 448.73 368.498V373.25C448.73 373.88 448.676 374.834 448.64 375.194H451.304C451.196 374.834 451.178 373.88 451.178 373.25V367.076C452.78 366.014 454.364 364.736 455.21 363.8L453.428 362.054C452.51 363.224 450.692 364.844 448.946 365.906C447.524 366.77 444.842 367.976 442.502 368.48ZM472.238 358.436L470.762 359.048C471.104 359.57 471.464 360.2 471.77 360.794C471.446 360.83 471.14 360.83 470.924 360.83H462.59C461.996 360.83 460.97 360.758 460.448 360.686V363.224C460.916 363.188 461.762 363.152 462.59 363.152H470.96C470.726 364.7 470.042 366.734 468.854 368.228C467.396 370.064 465.362 371.63 461.798 372.458L463.76 374.618C466.982 373.574 469.376 371.792 470.996 369.632C472.508 367.634 473.282 364.844 473.714 363.08C473.804 362.702 473.93 362.18 474.11 361.838L472.958 361.082L473.624 360.812C473.3 360.164 472.706 359.12 472.238 358.436ZM474.758 357.986L473.264 358.58C473.75 359.246 474.308 360.272 474.704 361.01L476.198 360.362C475.856 359.732 475.208 358.634 474.758 357.986Z" fill="black"/>
<path d="M389.166 422.001H394.384V429.369H389.166V439.329H380.028V429.369H361.15L360.739 423.614L379.933 393.289H389.166V422.001ZM369.846 422.001H380.028V405.748L379.427 406.791L369.846 422.001ZM430.621 398.412L412.818 439.329H403.174L421.008 400.689H398.115V393.289H430.621V398.412ZM436.376 402.143C436.376 399.318 437.293 397.031 439.127 395.282C440.961 393.511 443.364 392.625 446.336 392.625C449.351 392.625 451.775 393.5 453.609 395.25C455.443 396.979 456.36 399.329 456.36 402.301V404.578C456.36 407.424 455.443 409.711 453.609 411.44C451.775 413.168 449.372 414.033 446.399 414.033C443.406 414.033 440.982 413.168 439.127 411.44C437.293 409.69 436.376 407.34 436.376 404.388V402.143ZM442.447 404.578C442.447 405.843 442.805 406.865 443.522 407.645C444.26 408.404 445.219 408.784 446.399 408.784C447.58 408.784 448.518 408.394 449.214 407.614C449.909 406.834 450.257 405.79 450.257 404.483V402.143C450.257 400.878 449.909 399.856 449.214 399.076C448.518 398.296 447.559 397.906 446.336 397.906C445.177 397.906 444.239 398.296 443.522 399.076C442.805 399.835 442.447 400.899 442.447 402.27V404.578ZM458.384 428.041C458.384 425.195 459.311 422.907 461.166 421.179C463.021 419.429 465.425 418.554 468.376 418.554C471.369 418.554 473.783 419.419 475.617 421.147C477.472 422.855 478.4 425.216 478.4 428.23V430.507C478.4 433.332 477.493 435.619 475.68 437.369C473.867 439.097 471.454 439.962 468.439 439.962C465.403 439.962 462.969 439.087 461.135 437.337C459.301 435.587 458.384 433.268 458.384 430.38V428.041ZM464.455 430.507C464.455 431.666 464.834 432.657 465.593 433.479C466.352 434.301 467.301 434.712 468.439 434.712C471.011 434.712 472.297 433.29 472.297 430.444V428.041C472.297 426.776 471.938 425.764 471.222 425.005C470.505 424.225 469.556 423.835 468.376 423.835C467.195 423.835 466.247 424.225 465.53 425.005C464.813 425.764 464.455 426.807 464.455 428.135V430.507ZM448.202 435.882L443.743 433.479L466.226 397.495L470.684 399.898L448.202 435.882Z" fill="black"/>
<path d="M213.162 436.826L211.686 437.438C212.028 437.96 212.388 438.59 212.694 439.184C212.37 439.22 212.064 439.22 211.848 439.22H203.514C202.92 439.22 201.894 439.148 201.372 439.076V441.614C201.84 441.578 202.686 441.542 203.514 441.542H211.884C211.65 443.09 210.966 445.124 209.778 446.618C208.32 448.454 206.286 450.02 202.722 450.848L204.684 453.008C207.906 451.964 210.3 450.182 211.92 448.022C213.432 446.024 214.206 443.234 214.638 441.47C214.728 441.092 214.854 440.57 215.034 440.228L213.882 439.472L214.548 439.202C214.224 438.554 213.63 437.51 213.162 436.826ZM215.682 436.376L214.188 436.97C214.674 437.636 215.232 438.662 215.628 439.4L217.122 438.752C216.78 438.122 216.132 437.024 215.682 436.376ZM221.514 438.194V440.516C222.036 440.48 222.81 440.462 223.386 440.462H230.28C230.928 440.462 231.774 440.48 232.26 440.516V438.194C231.756 438.266 230.874 438.284 230.316 438.284H223.386C222.774 438.284 222.018 438.266 221.514 438.194ZM233.772 443.414L232.17 442.424C231.918 442.532 231.432 442.604 230.856 442.604H221.946C221.388 442.604 220.614 442.55 219.858 442.496V444.836C220.614 444.764 221.514 444.746 221.946 444.746H230.64C230.316 445.754 229.758 446.87 228.786 447.86C227.418 449.264 225.258 450.452 222.558 451.01L224.34 453.044C226.644 452.396 228.948 451.172 230.766 449.156C232.116 447.662 232.89 445.916 233.43 444.17C233.502 443.972 233.646 443.648 233.772 443.414ZM239.838 438.32L238.146 440.12C239.46 441.038 241.71 443 242.646 444.008L244.482 442.136C243.438 441.038 241.098 439.166 239.838 438.32ZM237.588 450.308L239.1 452.684C241.638 452.252 243.96 451.244 245.778 450.146C248.676 448.4 251.07 445.916 252.438 443.486L251.034 440.948C249.9 443.378 247.56 446.132 244.482 447.95C242.736 448.994 240.396 449.912 237.588 450.308ZM265.776 438.608L264.264 439.238C264.93 440.174 265.326 440.894 265.848 442.028L267.414 441.326C267 440.516 266.28 439.364 265.776 438.608ZM268.134 437.618L266.64 438.32C267.306 439.22 267.738 439.886 268.314 441.02L269.826 440.282C269.412 439.472 268.656 438.338 268.134 437.618ZM258.594 450.542C258.594 451.244 258.522 452.342 258.414 453.044H261.24C261.15 452.306 261.06 451.046 261.06 450.542V445.448C263.004 446.096 265.704 447.14 267.576 448.13L268.584 445.628C266.928 444.818 263.454 443.54 261.06 442.82V440.192C261.06 439.436 261.15 438.644 261.222 438.014H258.414C258.54 438.662 258.594 439.544 258.594 440.192V450.542Z" fill="white"/>
<path d="M217.128 487.215H212.405V469.008L206.766 470.756V466.916L216.622 463.385H217.128V487.215ZM225.578 475.513L226.951 463.418H240.288V467.357H230.825L230.236 472.473C231.359 471.873 232.552 471.574 233.816 471.574C236.082 471.574 237.858 472.276 239.144 473.682C240.43 475.088 241.073 477.055 241.073 479.582C241.073 481.119 240.746 482.497 240.092 483.718C239.449 484.927 238.523 485.87 237.314 486.545C236.104 487.21 234.677 487.542 233.031 487.542C231.593 487.542 230.258 487.253 229.027 486.676C227.796 486.088 226.82 485.265 226.101 484.208C225.393 483.151 225.017 481.947 224.974 480.596H229.648C229.746 481.587 230.089 482.361 230.678 482.917C231.277 483.462 232.056 483.734 233.015 483.734C234.083 483.734 234.906 483.353 235.483 482.59C236.061 481.816 236.349 480.727 236.349 479.321C236.349 477.97 236.017 476.935 235.352 476.216C234.688 475.496 233.745 475.137 232.525 475.137C231.402 475.137 230.493 475.431 229.795 476.019L229.338 476.444L225.578 475.513ZM244.031 467.994C244.031 466.534 244.505 465.352 245.453 464.448C246.401 463.532 247.643 463.075 249.18 463.075C250.738 463.075 251.991 463.527 252.939 464.431C253.887 465.325 254.361 466.54 254.361 468.076V469.253C254.361 470.724 253.887 471.906 252.939 472.8C251.991 473.693 250.749 474.14 249.212 474.14C247.665 474.14 246.412 473.693 245.453 472.8C244.505 471.895 244.031 470.68 244.031 469.155V467.994ZM247.169 469.253C247.169 469.907 247.355 470.435 247.725 470.838C248.106 471.23 248.602 471.427 249.212 471.427C249.823 471.427 250.307 471.225 250.667 470.822C251.027 470.419 251.206 469.879 251.206 469.204V467.994C251.206 467.34 251.027 466.812 250.667 466.409C250.307 466.006 249.812 465.804 249.18 465.804C248.58 465.804 248.096 466.006 247.725 466.409C247.355 466.801 247.169 467.351 247.169 468.06V469.253ZM255.407 481.38C255.407 479.909 255.886 478.727 256.845 477.834C257.804 476.929 259.046 476.477 260.572 476.477C262.119 476.477 263.367 476.924 264.315 477.817C265.274 478.7 265.753 479.92 265.753 481.478V482.655C265.753 484.115 265.284 485.298 264.347 486.202C263.41 487.095 262.163 487.542 260.604 487.542C259.035 487.542 257.777 487.09 256.829 486.186C255.881 485.281 255.407 484.083 255.407 482.59V481.38ZM258.545 482.655C258.545 483.255 258.741 483.767 259.133 484.192C259.526 484.617 260.016 484.829 260.604 484.829C261.934 484.829 262.599 484.094 262.599 482.623V481.38C262.599 480.727 262.413 480.204 262.043 479.811C261.672 479.408 261.182 479.207 260.572 479.207C259.962 479.207 259.471 479.408 259.101 479.811C258.73 480.204 258.545 480.743 258.545 481.429V482.655ZM250.144 485.434L247.839 484.192L259.46 465.592L261.765 466.834L250.144 485.434Z" fill="white"/>
<path d="M174.454 343.032H171.736C171.808 343.536 171.844 344.112 171.844 344.832V348.252C171.844 351.06 171.61 352.41 170.368 353.76C169.288 354.93 167.83 355.614 166.048 356.028L167.92 358.008C169.234 357.594 171.106 356.712 172.294 355.416C173.626 353.94 174.382 352.266 174.382 348.396V344.832C174.382 344.112 174.418 343.536 174.454 343.032ZM166.102 343.176H163.51C163.564 343.59 163.582 344.22 163.582 344.562V350.628C163.582 351.168 163.51 351.87 163.492 352.212H166.102C166.066 351.798 166.048 351.096 166.048 350.646V344.562C166.048 343.986 166.066 343.59 166.102 343.176ZM179.656 348.666V351.492C180.322 351.438 181.528 351.402 182.554 351.402H192.22C192.976 351.402 193.894 351.474 194.326 351.492V348.666C193.858 348.702 193.066 348.774 192.22 348.774H182.554C181.618 348.774 180.304 348.72 179.656 348.666ZM198.754 344.076L199.312 346.164C200.518 346.128 202.408 346.074 204.136 345.93V348.486H199.06C198.502 348.486 197.89 348.432 197.404 348.378V350.7C197.872 350.664 198.538 350.628 199.096 350.628H204.046C203.704 353.292 202.264 355.218 199.528 356.478L201.814 358.044C204.856 356.208 206.152 353.652 206.422 350.628H211.084C211.57 350.628 212.182 350.664 212.668 350.7V348.378C212.272 348.414 211.426 348.486 211.03 348.486H206.494V345.624C207.574 345.462 208.636 345.264 209.518 345.03C209.824 344.958 210.292 344.832 210.904 344.688L209.428 342.708C208.528 343.122 206.692 343.536 204.892 343.788C202.912 344.076 200.122 344.112 198.754 344.076Z" fill="white"/>
<path d="M176.667 380.591C175.436 381.8 173.997 382.405 172.352 382.405C170.249 382.405 168.566 381.686 167.302 380.247C166.038 378.798 165.406 376.848 165.406 374.396C165.406 372.838 165.743 371.41 166.419 370.114C167.105 368.806 168.059 367.793 169.279 367.074C170.5 366.344 171.873 365.979 173.398 365.979C174.967 365.979 176.362 366.371 177.582 367.155C178.803 367.94 179.751 369.068 180.426 370.539C181.102 372.01 181.445 373.693 181.456 375.589V377.338C181.456 381.304 180.47 384.421 178.498 386.687C176.525 388.953 173.73 390.163 170.113 390.316L168.952 390.332V386.393L169.998 386.376C174.106 386.191 176.329 384.263 176.667 380.591ZM173.512 378.793C174.275 378.793 174.929 378.597 175.474 378.204C176.03 377.812 176.449 377.338 176.732 376.782V374.837C176.732 373.236 176.427 371.993 175.817 371.111C175.207 370.228 174.39 369.787 173.365 369.787C172.417 369.787 171.638 370.223 171.028 371.094C170.418 371.955 170.113 373.039 170.113 374.347C170.113 375.644 170.407 376.711 170.995 377.55C171.595 378.379 172.434 378.793 173.512 378.793ZM184.774 370.882C184.774 369.422 185.248 368.24 186.196 367.335C187.144 366.42 188.386 365.962 189.922 365.962C191.48 365.962 192.734 366.414 193.682 367.319C194.63 368.212 195.104 369.427 195.104 370.964V372.14C195.104 373.611 194.63 374.794 193.682 375.687C192.734 376.581 191.491 377.027 189.955 377.027C188.408 377.027 187.155 376.581 186.196 375.687C185.248 374.783 184.774 373.568 184.774 372.042V370.882ZM187.912 372.14C187.912 372.794 188.097 373.323 188.468 373.726C188.849 374.118 189.345 374.314 189.955 374.314C190.565 374.314 191.05 374.113 191.41 373.71C191.769 373.306 191.949 372.767 191.949 372.091V370.882C191.949 370.228 191.769 369.7 191.41 369.297C191.05 368.893 190.554 368.692 189.922 368.692C189.323 368.692 188.838 368.893 188.468 369.297C188.097 369.689 187.912 370.239 187.912 370.947V372.14ZM196.15 384.268C196.15 382.797 196.629 381.615 197.588 380.721C198.547 379.817 199.789 379.365 201.314 379.365C202.862 379.365 204.109 379.811 205.057 380.705C206.016 381.588 206.496 382.808 206.496 384.366V385.543C206.496 387.003 206.027 388.185 205.09 389.09C204.153 389.983 202.905 390.43 201.347 390.43C199.778 390.43 198.519 389.978 197.572 389.073C196.624 388.169 196.15 386.97 196.15 385.478V384.268ZM199.288 385.543C199.288 386.142 199.484 386.654 199.876 387.079C200.268 387.504 200.759 387.717 201.347 387.717C202.676 387.717 203.341 386.981 203.341 385.51V384.268C203.341 383.614 203.156 383.091 202.785 382.699C202.415 382.296 201.925 382.094 201.314 382.094C200.704 382.094 200.214 382.296 199.843 382.699C199.473 383.091 199.288 383.631 199.288 384.317V385.543ZM190.887 388.321L188.582 387.079L200.203 368.479L202.508 369.721L190.887 388.321Z" fill="white"/>
<path d="M60.78 213.96C60.6 214.76 60.3 215.76 60.02 216.48H57.92L58 216.46C57.96 215.8 57.7 214.8 57.4 213.96H60.78ZM60.72 221.94C60.46 222.88 60.08 223.66 59.56 224.28C58.7 223.96 57.86 223.66 57.08 223.42C57.32 222.94 57.58 222.44 57.82 221.94H60.72ZM65.24 218.5V216.48H62.16C62.46 215.76 62.8 214.88 63.12 213.96H64.76V211.96H60.3V210.06H57.88V211.96H53.42V213.96H55.64L55.24 214.04C55.5 214.78 55.72 215.74 55.82 216.48H52.82V218.5H56.88C56.7 218.96 56.5 219.44 56.28 219.94H53.16L53 218.66L51.48 219.06V216.02H53.02V213.84H51.48V210.08H49.2V213.84H46.88V216.02H49.2V219.62C48.18 219.86 47.24 220.08 46.48 220.24L46.98 222.54L49.2 221.94V226.04C49.2 226.34 49.1 226.42 48.86 226.42C48.6 226.44 47.78 226.44 47 226.4C47.3 227.06 47.6 228.08 47.66 228.72C49.04 228.72 49.98 228.64 50.64 228.24C51.28 227.88 51.48 227.24 51.48 226.06V221.3C51.98 221.16 52.48 221 52.98 220.86V221.94H55.38C54.88 223.02 54.36 224.06 53.9 224.86L55.96 225.52L56.16 225.16C56.64 225.32 57.14 225.52 57.64 225.72C56.36 226.32 54.64 226.66 52.34 226.86C52.68 227.3 53.04 228.12 53.22 228.78C56.24 228.38 58.42 227.78 59.98 226.74C61.38 227.42 62.66 228.12 63.5 228.74L65 226.96C64.16 226.38 62.96 225.76 61.64 225.16C62.28 224.3 62.74 223.24 63.06 221.94H65.22V219.94H58.78C59.02 219.46 59.24 218.96 59.44 218.5H65.24ZM72.28 221.72V220.1H73.32V221.72H72.28ZM69.74 220.1H70.72V221.72H69.72C69.74 221.28 69.74 220.88 69.74 220.48V220.1ZM71.62 213.64C71.42 214.18 71.2 214.72 70.98 215.16H69.62C69.86 214.68 70.08 214.16 70.3 213.64H71.62ZM72.28 216.92H73.32V218.42H72.28V216.92ZM69.74 216.92H70.72V218.42H69.74V216.92ZM75.24 215.16H72.96C73.42 214.34 73.84 213.42 74.18 212.58L72.92 211.72L72.54 211.84H70.92C71.06 211.4 71.18 210.94 71.28 210.5L69.2 210.06C68.68 212.38 67.72 214.7 66.44 216.16C66.84 216.4 67.44 216.9 67.86 217.28V220.48C67.86 222.7 67.74 225.64 66.5 227.72C66.94 227.92 67.76 228.44 68.12 228.74C69 227.3 69.42 225.34 69.6 223.46H73.32V226.48C73.32 226.72 73.24 226.8 73 226.8C72.78 226.8 72 226.8 71.2 226.78C71.5 227.3 71.78 228.18 71.86 228.76C73.06 228.76 73.88 228.7 74.48 228.36C75.06 228.02 75.24 227.44 75.24 226.52V215.16ZM78.02 220.16V216.04H79.16V220.16H78.02ZM82.6 216.04V220.16H81.36V216.04H82.6ZM85.54 228.08C85.34 226.66 84.56 224.44 83.72 222.7L81.86 223.3C82.14 223.92 82.4 224.6 82.64 225.28L81.36 225.4V222.14H84.68V214.08H81.36V210.06H79.16V214.08H76.04V222.14H79.16V225.6C77.8 225.74 76.54 225.84 75.52 225.9L75.84 228.18C77.88 227.96 80.6 227.68 83.24 227.36C83.38 227.88 83.46 228.36 83.52 228.78L85.54 228.08ZM90.76 222C90.76 222.2 90.7 222.24 90.5 222.24C90.32 222.26 89.74 222.24 89.2 222.24C89.44 222.78 89.68 223.58 89.74 224.14C90.76 224.14 91.52 224.14 92.1 223.84C92.72 223.52 92.82 222.98 92.82 222.06V217.78H96.14V215.68H92.82V214.14H95.64V212.16H92.82V210.24H90.76V215.68H89.68V211.74H87.82V215.68H86.72V217.78H90.76V222ZM88.1 218.28C87.8 219.66 87.24 221.12 86.54 222.06C87.04 222.28 87.94 222.76 88.36 223.06C89.08 222 89.78 220.3 90.16 218.72L88.1 218.28ZM95.22 221.76L96.4 221.32C96.2 220.48 95.64 219.2 95.1 218.22L93.34 218.8C93.76 219.66 94.2 220.7 94.42 221.52L93.84 221.34C92.7 224.32 90.26 225.98 86.84 226.84C87.34 227.36 87.88 228.16 88.12 228.8C91.92 227.56 94.54 225.52 95.84 221.94L95.22 221.76ZM98.58 221.78H102.6V223.02H98.58V221.78ZM98.58 218.88H102.6V220.1H98.58V218.88ZM98.58 216H102.6V217.22H98.58V216ZM104.74 224.78V214.22H101.34C101.48 213.78 101.64 213.32 101.78 212.84H105.08V210.84H96.04V212.84H99.38C99.34 213.3 99.26 213.76 99.18 214.22H96.54V224.78H98.22C97.42 225.64 95.88 226.72 94.54 227.28C95.04 227.7 95.74 228.34 96.12 228.78C97.48 228.16 99.16 227.02 100.16 226L98.28 224.78H104.74ZM100.94 226.02C101.92 226.84 103.2 228 103.82 228.76L105.66 227.5C105 226.74 103.66 225.64 102.68 224.9L100.94 226.02ZM110.54 213.98H124.96V211.86H117.86V210.08H115.38V211.86H108.26V217.46C108.26 220.38 108.14 224.54 106.48 227.38C107.02 227.62 108.02 228.28 108.42 228.68C110.24 225.6 110.54 220.7 110.54 217.46V213.98ZM119.62 217.54V218.86H115.98V217.54H119.62ZM121.98 220.66V217.54H124.86V215.66H121.98V214.34H119.62V215.66H115.98V214.34H113.74V215.66H111.04V217.54H113.74V220.66H121.98ZM120.36 223.32C119.7 223.96 118.88 224.52 117.96 224.96C117.02 224.5 116.22 223.96 115.62 223.32H120.36ZM122.38 221.36L121.96 221.46H111.18V223.32H114.16L113.22 223.66C113.86 224.52 114.64 225.26 115.52 225.88C113.94 226.34 112.18 226.62 110.34 226.78C110.7 227.28 111.12 228.18 111.3 228.78C113.68 228.48 115.92 228 117.88 227.22C119.62 228 121.66 228.52 123.96 228.8C124.26 228.18 124.88 227.26 125.36 226.76C123.56 226.6 121.9 226.32 120.44 225.9C121.88 224.94 123.06 223.7 123.86 222.1L122.38 221.36Z" fill="#36394A"/>
<path d="M70.2402 249.91L71.3066 240.516H81.666V243.575H74.3154L73.8584 247.549C74.7301 247.083 75.6569 246.851 76.6387 246.851C78.3991 246.851 79.7786 247.396 80.7773 248.488C81.776 249.58 82.2754 251.108 82.2754 253.071C82.2754 254.265 82.0215 255.335 81.5137 256.283C81.0143 257.223 80.2949 257.955 79.3555 258.479C78.416 258.996 77.3073 259.254 76.0293 259.254C74.9121 259.254 73.8753 259.03 72.9189 258.581C71.9626 258.124 71.2051 257.485 70.6465 256.664C70.0964 255.843 69.8044 254.908 69.7705 253.858H73.4014C73.4775 254.629 73.7441 255.229 74.2012 255.661C74.6667 256.084 75.2718 256.296 76.0166 256.296C76.846 256.296 77.485 256 77.9336 255.407C78.3822 254.806 78.6064 253.96 78.6064 252.868C78.6064 251.819 78.3483 251.015 77.832 250.456C77.3158 249.897 76.5837 249.618 75.6357 249.618C74.764 249.618 74.0573 249.847 73.5156 250.304L73.1602 250.634L70.2402 249.91ZM84.5732 244.07C84.5732 242.936 84.9414 242.018 85.6777 241.315C86.4141 240.604 87.3789 240.249 88.5723 240.249C89.7826 240.249 90.7559 240.6 91.4922 241.303C92.2285 241.997 92.5967 242.94 92.5967 244.134V245.048C92.5967 246.19 92.2285 247.109 91.4922 247.803C90.7559 248.497 89.791 248.844 88.5977 248.844C87.3958 248.844 86.4225 248.497 85.6777 247.803C84.9414 247.1 84.5732 246.157 84.5732 244.972V244.07ZM87.0107 245.048C87.0107 245.556 87.1546 245.966 87.4424 246.279C87.7386 246.584 88.1237 246.736 88.5977 246.736C89.0716 246.736 89.4482 246.58 89.7275 246.267C90.0068 245.953 90.1465 245.535 90.1465 245.01V244.07C90.1465 243.562 90.0068 243.152 89.7275 242.839C89.4482 242.526 89.0632 242.369 88.5723 242.369C88.1068 242.369 87.7301 242.526 87.4424 242.839C87.1546 243.144 87.0107 243.571 87.0107 244.121V245.048ZM93.4092 254.468C93.4092 253.325 93.7816 252.407 94.5264 251.713C95.2712 251.01 96.236 250.659 97.4209 250.659C98.6227 250.659 99.5918 251.006 100.328 251.7C101.073 252.386 101.445 253.334 101.445 254.544V255.458C101.445 256.592 101.081 257.51 100.354 258.213C99.6257 258.907 98.6566 259.254 97.4463 259.254C96.2275 259.254 95.25 258.903 94.5137 258.2C93.7773 257.498 93.4092 256.567 93.4092 255.407V254.468ZM95.8467 255.458C95.8467 255.924 95.999 256.321 96.3037 256.651C96.6084 256.981 96.9893 257.146 97.4463 257.146C98.4788 257.146 98.9951 256.575 98.9951 255.433V254.468C98.9951 253.96 98.8512 253.554 98.5635 253.249C98.2757 252.936 97.8949 252.779 97.4209 252.779C96.9469 252.779 96.5661 252.936 96.2783 253.249C95.9906 253.554 95.8467 253.973 95.8467 254.506V255.458ZM89.3213 257.616L87.5312 256.651L96.5576 242.204L98.3477 243.169L89.3213 257.616Z" fill="#36394A"/>
<path d="M393.46 136.54C392.6 138.8 391.46 140.68 390.02 142.24C388.48 140.62 387.3 138.7 386.44 136.54H393.46ZM399.14 136.54V134.22H391.2V131.06H388.78V134.22H380.94V136.54H383.8C384.88 139.46 386.26 141.96 388.06 144.02C386.04 145.56 383.54 146.7 380.58 147.48C381.06 148.06 381.8 149.18 382.08 149.8C385.12 148.84 387.7 147.54 389.88 145.8C391.98 147.58 394.58 148.92 397.8 149.74C398.16 149.06 398.92 147.94 399.5 147.36C396.46 146.68 393.94 145.5 391.88 143.92C393.72 141.92 395.18 139.5 396.26 136.54H399.14ZM403.68 140.94C403.7 140.26 403.7 139.6 403.7 139V138.46H405.26V140.94H403.68ZM405.26 133.9V136.3H403.7V133.9H405.26ZM417.94 139.16C417.6 139.58 417.12 140.12 416.62 140.6C416.5 139.84 416.4 139.04 416.3 138.22C417.28 137.92 418.22 137.6 419.06 137.24L417.22 135.4C415.64 136.18 413.12 137 410.78 137.56V135.22C413.44 134.68 416.34 133.9 418.58 132.98L416.66 131.08C415.14 131.84 412.82 132.6 410.5 133.16L408.58 132.64V139.42C408.58 141.88 408.48 145.04 407.36 147.56V147.24V131.76H401.68V139C401.68 141.9 401.6 145.92 400.52 148.68C401.04 148.88 401.96 149.36 402.36 149.7C403.08 147.88 403.42 145.46 403.58 143.12H405.26V147.2C405.26 147.46 405.2 147.54 405 147.54C404.78 147.54 404.14 147.54 403.54 147.5C403.8 148.1 404.06 149.12 404.12 149.7C405.28 149.7 406.06 149.66 406.64 149.28C406.96 149.08 407.14 148.78 407.24 148.4C407.78 148.72 408.46 149.32 408.74 149.74C410.54 146.8 410.78 142.36 410.78 139.46V138.4C410.94 138.8 411.08 139.2 411.16 139.5L411.68 139.4V149.7H413.82V138.9L414.44 138.74C414.9 143.4 415.72 147.44 417.84 149.82C418.2 149.14 419 148.22 419.54 147.78C418.36 146.64 417.6 144.86 417.06 142.74C417.8 142.24 418.62 141.58 419.54 141L417.94 139.16Z" fill="#36394A"/>
<path d="M396.864 179H384.194V176.486L390.174 170.113C390.995 169.216 391.6 168.433 391.989 167.765C392.387 167.096 392.586 166.461 392.586 165.86C392.586 165.039 392.379 164.396 391.964 163.931C391.549 163.457 390.957 163.22 390.187 163.22C389.357 163.22 388.701 163.507 388.219 164.083C387.745 164.65 387.508 165.399 387.508 166.33H383.826C383.826 165.204 384.093 164.176 384.626 163.245C385.168 162.314 385.929 161.586 386.911 161.062C387.893 160.528 389.006 160.262 390.25 160.262C392.154 160.262 393.631 160.719 394.681 161.633C395.739 162.547 396.268 163.838 396.268 165.505C396.268 166.419 396.031 167.35 395.557 168.298C395.083 169.246 394.27 170.35 393.119 171.611L388.917 176.042H396.864V179ZM399.073 164.07C399.073 162.936 399.441 162.018 400.178 161.315C400.914 160.604 401.879 160.249 403.072 160.249C404.283 160.249 405.256 160.6 405.992 161.303C406.729 161.997 407.097 162.94 407.097 164.134V165.048C407.097 166.19 406.729 167.109 405.992 167.803C405.256 168.497 404.291 168.844 403.098 168.844C401.896 168.844 400.923 168.497 400.178 167.803C399.441 167.1 399.073 166.157 399.073 164.972V164.07ZM401.511 165.048C401.511 165.556 401.655 165.966 401.942 166.279C402.239 166.584 402.624 166.736 403.098 166.736C403.572 166.736 403.948 166.58 404.228 166.267C404.507 165.953 404.646 165.535 404.646 165.01V164.07C404.646 163.562 404.507 163.152 404.228 162.839C403.948 162.526 403.563 162.369 403.072 162.369C402.607 162.369 402.23 162.526 401.942 162.839C401.655 163.144 401.511 163.571 401.511 164.121V165.048ZM407.909 174.468C407.909 173.325 408.282 172.407 409.026 171.713C409.771 171.01 410.736 170.659 411.921 170.659C413.123 170.659 414.092 171.006 414.828 171.7C415.573 172.386 415.945 173.334 415.945 174.544V175.458C415.945 176.592 415.581 177.51 414.854 178.213C414.126 178.907 413.157 179.254 411.946 179.254C410.728 179.254 409.75 178.903 409.014 178.2C408.277 177.498 407.909 176.567 407.909 175.407V174.468ZM410.347 175.458C410.347 175.924 410.499 176.321 410.804 176.651C411.108 176.981 411.489 177.146 411.946 177.146C412.979 177.146 413.495 176.575 413.495 175.433V174.468C413.495 173.96 413.351 173.554 413.063 173.249C412.776 172.936 412.395 172.779 411.921 172.779C411.447 172.779 411.066 172.936 410.778 173.249C410.491 173.554 410.347 173.973 410.347 174.506V175.458ZM403.821 177.616L402.031 176.651L411.058 162.204L412.848 163.169L403.821 177.616Z" fill="#36394A"/>
<path d="M24.9757 127.16L22.0757 126.26C21.8957 126.94 21.4757 127.86 21.1557 128.34C20.1557 130.08 18.2957 132.82 14.7957 135L16.9557 136.66C18.9757 135.26 20.8357 133.34 22.2357 131.48H27.9557C27.6557 132.72 26.7957 134.46 25.7557 135.9C24.4957 135.06 23.2357 134.24 22.1757 133.64L20.3957 135.46C21.4157 136.1 22.7357 137 24.0357 137.96C22.3757 139.62 20.1557 141.24 16.6957 142.3L19.0157 144.32C22.1357 143.14 24.4157 141.44 26.1757 139.58C26.9957 140.24 27.7357 140.86 28.2757 141.36L30.1757 139.1C29.5957 138.62 28.8157 138.04 27.9557 137.42C29.3757 135.42 30.3757 133.28 30.9157 131.66C31.0957 131.16 31.3557 130.62 31.5757 130.24L29.5357 128.98C29.0957 129.12 28.4157 129.2 27.7957 129.2H23.7357C23.9757 128.76 24.4757 127.86 24.9757 127.16ZM35.4357 133.74V136.88C36.1757 136.82 37.5157 136.78 38.6557 136.78H49.3957C50.2357 136.78 51.2557 136.86 51.7357 136.88V133.74C51.2157 133.78 50.3357 133.86 49.3957 133.86H38.6557C37.6157 133.86 36.1557 133.8 35.4357 133.74ZM69.0357 126.84L67.4357 127.48C67.9757 128.26 68.5957 129.44 69.0157 130.26L70.6157 129.58C70.2357 128.84 69.5357 127.56 69.0357 126.84ZM71.3957 125.92L69.8157 126.58C70.3557 127.34 70.9957 128.5 71.4157 129.34L73.0157 128.64C72.6557 127.94 71.9157 126.68 71.3957 125.92ZM62.3757 127.8L59.2957 127.2C59.2557 127.82 59.1157 128.58 58.8757 129.24C58.6357 130 58.2557 131.04 57.7157 131.98C56.9557 133.22 55.6757 135.02 54.2557 136.1L56.7557 137.62C57.9557 136.56 59.1757 134.86 59.9957 133.4H64.2157C63.8957 137.58 62.2357 140.04 60.1357 141.66C59.6557 142.04 58.9557 142.46 58.2357 142.76L60.9357 144.56C64.5557 142.28 66.6357 138.72 66.9957 133.4H69.7957C70.2557 133.4 71.1357 133.42 71.8757 133.48V130.74C71.2157 130.86 70.3157 130.88 69.7957 130.88H61.1757C61.3957 130.36 61.5757 129.86 61.7357 129.44C61.8957 129 62.1557 128.3 62.3757 127.8ZM77.6157 127.66V130.24C78.2357 130.2 79.0757 130.16 79.7757 130.16H87.7957C88.4957 130.16 89.2757 130.2 89.9557 130.24V127.66C89.2757 127.76 88.4757 127.8 87.7957 127.8H79.7557C79.0957 127.8 78.2757 127.76 77.6157 127.66ZM75.2957 132.78V135.4C75.8557 135.36 76.6157 135.32 77.2157 135.32H82.7157C82.6357 137 82.2957 138.5 81.4757 139.74C80.6757 140.9 79.2757 142.06 77.8557 142.6L80.1957 144.3C81.9757 143.4 83.5157 141.84 84.2157 140.46C84.9357 139.06 85.3757 137.38 85.4957 135.32H90.3157C90.8757 135.32 91.6357 135.34 92.1357 135.38V132.78C91.6157 132.86 90.7357 132.9 90.3157 132.9H77.2157C76.5957 132.9 75.8957 132.84 75.2957 132.78ZM94.5443 137.3L95.7243 139.66C97.4643 139.12 99.7043 138.2 101.464 137.32V142.6C101.464 143.3 101.404 144.36 101.364 144.76H104.324C104.204 144.36 104.184 143.3 104.184 142.6V135.74C105.964 134.56 107.724 133.14 108.664 132.1L106.684 130.16C105.664 131.46 103.644 133.26 101.704 134.44C100.124 135.4 97.1443 136.74 94.5443 137.3ZM117.224 127.8L115.344 129.8C116.804 130.82 119.304 133 120.344 134.12L122.384 132.04C121.224 130.82 118.624 128.74 117.224 127.8ZM114.724 141.12L116.404 143.76C119.224 143.28 121.804 142.16 123.824 140.94C127.044 139 129.704 136.24 131.224 133.54L129.664 130.72C128.404 133.42 125.804 136.48 122.384 138.5C120.444 139.66 117.844 140.68 114.724 141.12ZM147.984 126.62L146.404 127.26C146.904 127.98 147.464 129.04 147.864 129.84L147.724 129.76C147.284 129.9 146.604 130 145.984 130H141.984C142.004 129.96 142.024 129.94 142.044 129.9C142.264 129.46 142.784 128.56 143.264 127.86L140.324 126.9C140.144 127.58 139.724 128.5 139.424 128.98C138.444 130.7 136.684 133.3 133.184 135.42L135.424 137.1C137.404 135.76 139.144 134 140.484 132.26H146.104C145.784 133.74 144.624 136.16 143.264 137.7C141.504 139.7 139.284 141.44 135.204 142.66L137.564 144.78C141.324 143.28 143.724 141.46 145.624 139.12C147.444 136.9 148.584 134.24 149.124 132.46C149.284 131.96 149.564 131.4 149.784 131.02L148.084 129.98L149.564 129.36C149.204 128.62 148.484 127.34 147.984 126.62ZM150.344 125.72L148.764 126.36C149.324 127.12 149.964 128.28 150.384 129.12L151.964 128.44C151.604 127.74 150.864 126.46 150.344 125.72ZM157.784 135.1V134.9H159.684V132.68H157.784V131.82L159.044 132.16C159.524 131.02 160.064 129.16 160.544 127.6L158.664 127.2C158.484 128.4 158.144 130.04 157.784 131.26V126.16H155.664V131.6C155.564 130.38 155.184 128.64 154.684 127.3L153.144 127.7C153.604 129.1 154.004 131 154.044 132.2L155.664 131.82V132.68H153.164V134.9H155.364C154.764 136.72 153.804 138.86 152.824 140.1C153.164 140.78 153.704 141.84 153.924 142.56C154.564 141.64 155.144 140.34 155.664 138.92V144.68H157.784V137.88C158.264 138.78 158.724 139.76 158.964 140.4L160.464 138.56C160.084 137.98 158.344 135.62 157.824 135.06L157.784 135.1ZM163.484 140.18V139.2H168.284V140.18H163.484ZM168.284 136.68V137.66H163.484V136.68H168.284ZM170.524 135H161.284V144.76H163.484V141.72H168.284V142.56C168.284 142.78 168.204 142.86 167.944 142.86C167.704 142.88 166.864 142.88 166.124 142.84C166.384 143.38 166.664 144.16 166.744 144.72C168.024 144.74 168.964 144.7 169.624 144.4C170.324 144.1 170.524 143.58 170.524 142.6V135ZM166.904 132.46V131.6H170.724V130.02H166.904V129.22H171.164V127.52H166.904V126.1H164.664V127.52H160.784V129.22H164.664V130.02H161.264V131.6H164.664V132.46H160.224V134.18H171.664V132.46H166.904ZM176.944 129.98H191.364V127.86H184.264V126.08H181.784V127.86H174.664V133.46C174.664 136.38 174.544 140.54 172.884 143.38C173.424 143.62 174.424 144.28 174.824 144.68C176.644 141.6 176.944 136.7 176.944 133.46V129.98ZM186.024 133.54V134.86H182.384V133.54H186.024ZM188.384 136.66V133.54H191.264V131.66H188.384V130.34H186.024V131.66H182.384V130.34H180.144V131.66H177.444V133.54H180.144V136.66H188.384ZM186.764 139.32C186.104 139.96 185.284 140.52 184.364 140.96C183.424 140.5 182.624 139.96 182.024 139.32H186.764ZM188.784 137.36L188.364 137.46H177.584V139.32H180.564L179.624 139.66C180.264 140.52 181.044 141.26 181.924 141.88C180.344 142.34 178.584 142.62 176.744 142.78C177.104 143.28 177.524 144.18 177.704 144.78C180.084 144.48 182.324 144 184.284 143.22C186.024 144 188.064 144.52 190.364 144.8C190.664 144.18 191.284 143.26 191.764 142.76C189.964 142.6 188.304 142.32 186.844 141.9C188.284 140.94 189.464 139.7 190.264 138.1L188.784 137.36Z" fill="#36394A"/>
<path d="M95.2764 168.611C94.32 169.551 93.2028 170.021 91.9248 170.021C90.2913 170.021 88.9837 169.462 88.002 168.345C87.0202 167.219 86.5293 165.704 86.5293 163.8C86.5293 162.59 86.7917 161.481 87.3164 160.474C87.8496 159.458 88.5902 158.671 89.5381 158.112C90.486 157.545 91.5524 157.262 92.7373 157.262C93.9561 157.262 95.0394 157.566 95.9873 158.176C96.9352 158.785 97.6715 159.661 98.1963 160.804C98.721 161.946 98.9876 163.254 98.9961 164.727V166.085C98.9961 169.166 98.2301 171.586 96.6982 173.347C95.1663 175.107 92.9954 176.047 90.1855 176.165L89.2842 176.178V173.118L90.0967 173.105C93.2874 172.962 95.014 171.464 95.2764 168.611ZM92.8262 167.215C93.4186 167.215 93.9264 167.062 94.3496 166.758C94.7812 166.453 95.1071 166.085 95.3271 165.653V164.143C95.3271 162.898 95.0902 161.934 94.6162 161.248C94.1423 160.562 93.5075 160.22 92.7119 160.22C91.9756 160.22 91.3704 160.558 90.8965 161.235C90.4225 161.904 90.1855 162.746 90.1855 163.762C90.1855 164.769 90.4141 165.598 90.8711 166.25C91.3366 166.893 91.9883 167.215 92.8262 167.215ZM101.573 161.07C101.573 159.936 101.941 159.018 102.678 158.315C103.414 157.604 104.379 157.249 105.572 157.249C106.783 157.249 107.756 157.6 108.492 158.303C109.229 158.997 109.597 159.94 109.597 161.134V162.048C109.597 163.19 109.229 164.109 108.492 164.803C107.756 165.497 106.791 165.844 105.598 165.844C104.396 165.844 103.423 165.497 102.678 164.803C101.941 164.1 101.573 163.157 101.573 161.972V161.07ZM104.011 162.048C104.011 162.556 104.155 162.966 104.442 163.279C104.739 163.584 105.124 163.736 105.598 163.736C106.072 163.736 106.448 163.58 106.728 163.267C107.007 162.953 107.146 162.535 107.146 162.01V161.07C107.146 160.562 107.007 160.152 106.728 159.839C106.448 159.526 106.063 159.369 105.572 159.369C105.107 159.369 104.73 159.526 104.442 159.839C104.155 160.144 104.011 160.571 104.011 161.121V162.048ZM110.409 171.468C110.409 170.325 110.782 169.407 111.526 168.713C112.271 168.01 113.236 167.659 114.421 167.659C115.623 167.659 116.592 168.006 117.328 168.7C118.073 169.386 118.445 170.334 118.445 171.544V172.458C118.445 173.592 118.081 174.51 117.354 175.213C116.626 175.907 115.657 176.254 114.446 176.254C113.228 176.254 112.25 175.903 111.514 175.2C110.777 174.498 110.409 173.567 110.409 172.407V171.468ZM112.847 172.458C112.847 172.924 112.999 173.321 113.304 173.651C113.608 173.981 113.989 174.146 114.446 174.146C115.479 174.146 115.995 173.575 115.995 172.433V171.468C115.995 170.96 115.851 170.554 115.563 170.249C115.276 169.936 114.895 169.779 114.421 169.779C113.947 169.779 113.566 169.936 113.278 170.249C112.991 170.554 112.847 170.973 112.847 171.506V172.458ZM106.321 174.616L104.531 173.651L113.558 159.204L115.348 160.169L106.321 174.616Z" fill="#36394A"/>
<path d="M403.877 597.338C403.877 596.713 403.656 596.231 403.213 595.893C402.777 595.554 401.986 595.212 400.84 594.867C399.694 594.522 398.783 594.138 398.105 593.715C396.81 592.901 396.162 591.84 396.162 590.531C396.162 589.385 396.628 588.441 397.559 587.699C398.496 586.957 399.71 586.586 401.201 586.586C402.191 586.586 403.073 586.768 403.848 587.133C404.622 587.497 405.231 588.018 405.674 588.695C406.117 589.366 406.338 590.111 406.338 590.932H403.877C403.877 590.189 403.643 589.61 403.174 589.193C402.712 588.77 402.048 588.559 401.182 588.559C400.374 588.559 399.746 588.731 399.297 589.076C398.854 589.421 398.633 589.903 398.633 590.521C398.633 591.042 398.874 591.479 399.355 591.83C399.837 592.175 400.632 592.514 401.738 592.846C402.845 593.171 403.734 593.546 404.404 593.969C405.075 594.385 405.566 594.867 405.879 595.414C406.191 595.954 406.348 596.589 406.348 597.318C406.348 598.503 405.892 599.447 404.98 600.15C404.076 600.847 402.845 601.195 401.289 601.195C400.26 601.195 399.313 601.007 398.447 600.629C397.588 600.245 396.917 599.717 396.436 599.047C395.96 598.376 395.723 597.595 395.723 596.703H398.193C398.193 597.51 398.46 598.135 398.994 598.578C399.528 599.021 400.293 599.242 401.289 599.242C402.148 599.242 402.793 599.07 403.223 598.725C403.659 598.373 403.877 597.911 403.877 597.338ZM407.842 595.619C407.842 594.584 408.047 593.653 408.457 592.826C408.867 591.993 409.443 591.355 410.186 590.912C410.928 590.463 411.781 590.238 412.744 590.238C414.17 590.238 415.326 590.697 416.211 591.615C417.103 592.533 417.585 593.751 417.656 595.268L417.666 595.824C417.666 596.866 417.464 597.797 417.061 598.617C416.663 599.438 416.09 600.072 415.342 600.521C414.6 600.971 413.74 601.195 412.764 601.195C411.273 601.195 410.078 600.701 409.18 599.711C408.288 598.715 407.842 597.39 407.842 595.736V595.619ZM410.215 595.824C410.215 596.911 410.439 597.764 410.889 598.383C411.338 598.995 411.963 599.301 412.764 599.301C413.564 599.301 414.186 598.988 414.629 598.363C415.078 597.738 415.303 596.824 415.303 595.619C415.303 594.551 415.072 593.705 414.609 593.08C414.154 592.455 413.532 592.143 412.744 592.143C411.969 592.143 411.354 592.452 410.898 593.07C410.443 593.682 410.215 594.6 410.215 595.824ZM426.074 599.965C425.378 600.785 424.388 601.195 423.105 601.195C421.96 601.195 421.09 600.86 420.498 600.189C419.912 599.519 419.619 598.549 419.619 597.279V590.434H421.992V597.25C421.992 598.591 422.549 599.262 423.662 599.262C424.814 599.262 425.592 598.848 425.996 598.021V590.434H428.369V601H426.133L426.074 599.965ZM436.318 592.602C436.006 592.549 435.684 592.523 435.352 592.523C434.264 592.523 433.532 592.94 433.154 593.773V601H430.781V590.434H433.047L433.105 591.615C433.678 590.697 434.473 590.238 435.488 590.238C435.827 590.238 436.107 590.284 436.328 590.375L436.318 592.602ZM441.963 599.301C442.555 599.301 443.047 599.128 443.438 598.783C443.828 598.438 444.036 598.012 444.062 597.504H446.299C446.273 598.161 446.068 598.777 445.684 599.35C445.299 599.916 444.779 600.365 444.121 600.697C443.464 601.029 442.754 601.195 441.992 601.195C440.514 601.195 439.342 600.717 438.477 599.76C437.611 598.803 437.178 597.481 437.178 595.795V595.551C437.178 593.943 437.607 592.657 438.467 591.693C439.326 590.723 440.498 590.238 441.982 590.238C443.239 590.238 444.261 590.606 445.049 591.342C445.843 592.071 446.26 593.031 446.299 594.223H444.062C444.036 593.617 443.828 593.119 443.438 592.729C443.053 592.338 442.562 592.143 441.963 592.143C441.195 592.143 440.602 592.423 440.186 592.982C439.769 593.536 439.557 594.379 439.551 595.512V595.893C439.551 597.038 439.756 597.895 440.166 598.461C440.583 599.021 441.182 599.301 441.963 599.301ZM452.744 601.195C451.24 601.195 450.02 600.723 449.082 599.779C448.151 598.829 447.686 597.566 447.686 595.99V595.697C447.686 594.643 447.887 593.702 448.291 592.875C448.701 592.042 449.274 591.394 450.01 590.932C450.745 590.469 451.566 590.238 452.471 590.238C453.91 590.238 455.02 590.697 455.801 591.615C456.589 592.533 456.982 593.832 456.982 595.512V596.469H450.078C450.15 597.341 450.439 598.031 450.947 598.539C451.462 599.047 452.106 599.301 452.881 599.301C453.968 599.301 454.854 598.861 455.537 597.982L456.816 599.203C456.393 599.835 455.827 600.326 455.117 600.678C454.414 601.023 453.623 601.195 452.744 601.195ZM452.461 592.143C451.81 592.143 451.283 592.37 450.879 592.826C450.482 593.282 450.228 593.917 450.117 594.73H454.639V594.555C454.587 593.76 454.375 593.161 454.004 592.758C453.633 592.348 453.118 592.143 452.461 592.143ZM460.264 598.5C460.706 598.5 461.048 598.627 461.289 598.881C461.53 599.128 461.65 599.441 461.65 599.818C461.65 600.189 461.53 600.499 461.289 600.746C461.048 600.987 460.706 601.107 460.264 601.107C459.84 601.107 459.505 600.987 459.258 600.746C459.01 600.505 458.887 600.196 458.887 599.818C458.887 599.441 459.007 599.128 459.248 598.881C459.489 598.627 459.827 598.5 460.264 598.5ZM460.264 590.209C460.706 590.209 461.048 590.336 461.289 590.59C461.53 590.837 461.65 591.15 461.65 591.527C461.65 591.898 461.53 592.208 461.289 592.455C461.048 592.696 460.706 592.816 460.264 592.816C459.84 592.816 459.505 592.696 459.258 592.455C459.01 592.214 458.887 591.905 458.887 591.527C458.887 591.15 459.007 590.837 459.248 590.59C459.489 590.336 459.827 590.209 460.264 590.209ZM473.555 601H463.994V599.369L468.73 594.203C469.414 593.441 469.899 592.807 470.186 592.299C470.479 591.785 470.625 591.27 470.625 590.756C470.625 590.079 470.433 589.532 470.049 589.115C469.671 588.699 469.16 588.49 468.516 588.49C467.747 588.49 467.152 588.725 466.729 589.193C466.305 589.662 466.094 590.303 466.094 591.117H463.721C463.721 590.251 463.916 589.473 464.307 588.783C464.704 588.087 465.267 587.546 465.996 587.162C466.732 586.778 467.578 586.586 468.535 586.586C469.915 586.586 471.003 586.934 471.797 587.631C472.598 588.321 472.998 589.278 472.998 590.502C472.998 591.212 472.796 591.957 472.393 592.738C471.995 593.513 471.341 594.395 470.43 595.385L466.953 599.105H473.555V601ZM484.629 595.014C484.629 597.058 484.245 598.601 483.477 599.643C482.715 600.678 481.553 601.195 479.99 601.195C478.454 601.195 477.295 600.691 476.514 599.682C475.739 598.666 475.342 597.165 475.322 595.18V592.719C475.322 590.674 475.703 589.141 476.465 588.119C477.233 587.097 478.402 586.586 479.971 586.586C481.527 586.586 482.686 587.084 483.447 588.08C484.215 589.076 484.609 590.567 484.629 592.553V595.014ZM482.256 592.357C482.256 591.023 482.074 590.046 481.709 589.428C481.344 588.803 480.765 588.49 479.971 588.49C479.196 588.49 478.626 588.786 478.262 589.379C477.897 589.965 477.705 590.883 477.686 592.133V595.355C477.686 596.684 477.871 597.673 478.242 598.324C478.613 598.975 479.196 599.301 479.99 599.301C480.752 599.301 481.315 599.001 481.68 598.402C482.044 597.797 482.236 596.853 482.256 595.57V592.357ZM493.154 601H490.791V589.584L487.305 590.775V588.773L492.852 586.732H493.154V601ZM507.559 588.1L501.875 601H499.385L505.059 588.686H497.705V586.781H507.559V588.1ZM514.178 596.52V592.56H518.658V596.52H514.178ZM527.398 596.52H520.158V592.56H526.018V591.16H520.158V588.12H526.478V586.68H514.558C514.878 586 515.198 585.28 515.478 584.58L513.978 584.22C513.038 586.9 511.358 589.48 509.478 591.12C509.858 591.32 510.478 591.82 510.758 592.06C511.838 591.02 512.898 589.66 513.798 588.12H518.658V591.16H512.698V596.52H509.418V597.96H518.658V602.54H520.158V597.96H527.398V596.52ZM531.958 587.98V589.78C532.578 589.76 533.238 589.72 533.938 589.72H542.498C543.158 589.72 543.918 589.74 544.478 589.78V587.98C543.918 588.04 543.218 588.06 542.498 588.06H533.938C533.278 588.06 532.598 588.02 531.958 587.98ZM530.238 597.88V599.8C530.918 599.76 531.618 599.7 532.338 599.7H544.318C544.858 599.7 545.538 599.74 546.138 599.8V597.88C545.558 597.94 544.918 597.98 544.318 597.98H532.338C531.618 597.98 530.918 597.92 530.238 597.88ZM550.438 592.34V594.3C551.058 594.24 552.118 594.2 553.218 594.2H564.198C565.098 594.2 565.938 594.28 566.338 594.3V592.34C565.898 592.38 565.178 592.44 564.178 592.44H553.218C552.098 592.44 551.038 592.38 550.438 592.34ZM578.878 600.58L579.938 601.46C580.078 601.34 580.298 601.18 580.618 601C582.938 599.86 585.718 597.8 587.438 595.46L586.498 594.1C584.958 596.36 582.498 598.18 580.658 599.02V587.48C580.658 586.72 580.718 586.14 580.738 586H578.898C578.918 586.14 579.018 586.72 579.018 587.48V599.46C579.018 599.86 578.958 600.26 578.878 600.58ZM569.718 600.48L571.218 601.5C572.898 600.1 574.178 598.14 574.778 596C575.318 594 575.398 589.72 575.398 587.5C575.398 586.9 575.478 586.3 575.498 586.06H573.658C573.738 586.48 573.798 586.92 573.798 587.52C573.798 589.74 573.778 593.74 573.198 595.56C572.598 597.5 571.398 599.28 569.718 600.48ZM594.518 598.42C594.518 600.4 595.198 601.36 598.918 601.36C601.418 601.36 603.418 601.22 605.198 600.96L605.278 599.24C603.278 599.62 601.358 599.82 599.038 599.82C596.658 599.82 596.138 599.38 596.138 598V592.04C599.678 591.32 603.358 590.58 603.698 590.52C603.098 591.72 601.638 593.92 600.138 595.28L601.538 596.12C603.138 594.46 604.718 591.96 605.638 590.3C605.778 590.04 605.978 589.7 606.118 589.5L604.938 588.58C604.698 588.72 604.318 588.84 603.878 588.94C603.038 589.12 599.538 589.84 596.138 590.5V587.38C596.138 586.8 596.178 586.12 596.278 585.54H594.378C594.478 586.12 594.518 586.78 594.518 587.38V590.8C592.398 591.2 590.498 591.54 589.598 591.66L589.898 593.32C590.718 593.14 592.498 592.78 594.518 592.36V598.42ZM612.938 586.34L611.798 587.56C613.278 588.56 615.778 590.7 616.778 591.74L618.038 590.48C616.918 589.36 614.358 587.28 612.938 586.34ZM611.218 599.74L612.278 601.38C615.618 600.76 618.138 599.54 620.138 598.28C623.158 596.38 625.498 593.66 626.858 591.16L625.898 589.46C624.738 591.92 622.298 594.88 619.218 596.82C617.318 598 614.718 599.22 611.218 599.74ZM635.098 584.96H630.178V586.16H635.098V584.96ZM635.658 587.58H629.238V588.8H635.658V587.58ZM635.138 590.28H630.058V591.46H635.138V590.28ZM630.058 594.12H635.138V592.92H630.058V594.12ZM633.898 596.82V600.16H631.238V596.82H633.898ZM635.138 601.36V595.6H630.038V602.3H631.238V601.36H635.138ZM638.878 591.56V592.7H644.738V591.56H642.318V589.64H644.438V588.5H642.318V586.78H641.098V588.5H639.038V589.64H641.098V591.56H638.878ZM643.178 595.38V598.24H640.298V595.38H643.178ZM644.318 599.38V594.24H639.158V600.16H640.298V599.38H644.318ZM646.918 585.1H636.658V592.22C636.658 595.16 636.538 599.06 634.978 601.82C635.318 601.98 635.918 602.4 636.138 602.64C637.798 599.72 638.018 595.32 638.018 592.22V586.4H645.558V600.64C645.558 600.98 645.458 601.06 645.158 601.06C644.818 601.08 643.778 601.1 642.718 601.04C642.898 601.44 643.098 602.12 643.158 602.5C644.638 602.5 645.638 602.48 646.178 602.24C646.738 602 646.918 601.52 646.918 600.64V585.1ZM649.338 595.88L650.798 597.4C651.118 596.98 651.578 596.34 651.978 595.8C652.998 594.56 654.658 592.36 655.598 591.22C656.278 590.36 656.678 590.2 657.518 591.16C658.438 592.18 659.978 594.1 661.278 595.56C662.638 597.12 664.438 599.2 665.958 600.64L667.238 599.2C665.438 597.58 663.458 595.48 662.238 594.16C660.978 592.8 659.438 590.82 658.238 589.58C656.918 588.24 655.878 588.44 654.698 589.8C653.518 591.2 651.838 593.5 650.778 594.56C650.238 595.12 649.838 595.52 649.338 595.88ZM662.238 587.5L661.098 588C661.758 588.92 662.458 590.18 662.958 591.22L664.138 590.7C663.678 589.74 662.738 588.24 662.238 587.5ZM664.818 586.48L663.698 587C664.378 587.9 665.098 589.12 665.638 590.18L666.778 589.62C666.318 588.68 665.338 587.18 664.818 586.48Z" fill="black"/>
<path d="M209.61 5.88V8.976C210.33 8.928 211.362 8.904 212.178 8.904H220.026C220.866 8.904 221.802 8.928 222.618 8.976V5.88C221.802 6 220.842 6.072 220.026 6.072H212.178C211.362 6.072 210.378 6 209.61 5.88ZM206.826 12.024V15.168C207.498 15.12 208.434 15.072 209.13 15.072H215.73C215.634 17.088 215.226 18.888 214.242 20.376C213.282 21.792 211.602 23.16 209.898 23.808L212.706 25.848C214.842 24.768 216.69 22.92 217.53 21.24C218.394 19.56 218.922 17.544 219.066 15.072H224.85C225.522 15.072 226.434 15.096 227.034 15.144V12.024C226.41 12.12 225.354 12.168 224.85 12.168H209.13C208.386 12.168 207.546 12.12 206.826 12.024ZM224.058 4.224L222.138 5.016C222.786 5.928 223.53 7.368 224.034 8.352L225.954 7.512C225.498 6.624 224.658 5.112 224.058 4.224ZM226.89 3.144L224.994 3.936C225.642 4.848 226.41 6.24 226.914 7.248L228.834 6.408C228.402 5.568 227.514 4.056 226.89 3.144ZM246.618 5.568L244.602 6.408C245.466 7.632 246.018 8.664 246.714 10.176L248.802 9.288C248.25 8.184 247.29 6.576 246.618 5.568ZM249.906 4.416L247.866 5.256C248.754 6.456 249.354 7.392 250.122 8.904L252.162 7.992C251.586 6.936 250.65 5.376 249.906 4.416ZM236.178 5.112L234.45 7.752C236.034 8.64 238.53 10.248 239.874 11.184L241.65 8.544C240.402 7.656 237.762 5.976 236.178 5.112ZM231.738 22.152L233.538 25.296C235.65 24.912 239.106 23.712 241.554 22.344C245.466 20.064 248.874 17.04 251.082 13.704L249.234 10.44C247.338 13.872 243.978 17.16 239.898 19.44C237.306 20.88 234.426 21.696 231.738 22.152ZM232.482 10.584L230.754 13.224C232.362 14.088 234.858 15.696 236.226 16.656L237.978 13.968C236.754 13.104 234.114 11.448 232.482 10.584ZM266.285 4.992L262.805 3.912C262.589 4.728 262.085 5.832 261.701 6.408C260.501 8.496 258.269 11.784 254.069 14.4L256.661 16.392C259.085 14.712 261.317 12.408 262.997 10.176H269.861C269.501 11.664 268.469 13.752 267.221 15.48C265.709 14.472 264.197 13.488 262.925 12.768L260.789 14.952C262.013 15.72 263.597 16.8 265.157 17.952C263.165 19.944 260.501 21.888 256.349 23.16L259.133 25.584C262.877 24.168 265.613 22.128 267.725 19.896C268.709 20.688 269.597 21.432 270.245 22.032L272.525 19.32C271.829 18.744 270.893 18.048 269.861 17.304C271.565 14.904 272.765 12.336 273.413 10.392C273.629 9.792 273.941 9.144 274.205 8.688L271.757 7.176C271.229 7.344 270.413 7.44 269.669 7.44H264.797C265.085 6.912 265.685 5.832 266.285 4.992ZM288.701 23.472L290.717 25.128C290.933 24.936 291.221 24.696 291.749 24.408C294.437 23.04 297.893 20.448 299.885 17.856L298.037 15.216C296.429 17.544 294.053 19.44 292.109 20.28V7.728C292.109 6.648 292.253 5.712 292.277 5.64H288.701C288.725 5.712 288.893 6.624 288.893 7.704V21.696C288.893 22.344 288.797 23.016 288.701 23.472ZM277.589 23.112L280.517 25.056C282.557 23.232 284.069 20.88 284.789 18.168C285.437 15.744 285.509 10.68 285.509 7.848C285.509 6.84 285.653 5.784 285.677 5.664H282.149C282.293 6.264 282.365 6.912 282.365 7.872C282.365 10.776 282.341 15.312 281.669 17.376C280.997 19.416 279.701 21.624 277.589 23.112ZM306.293 9.456H323.525V6.72H314.861V3.696H311.885V6.72H303.437V12.768C303.437 16.152 303.269 21.072 301.205 24.456C301.877 24.72 303.125 25.56 303.653 26.04C305.909 22.416 306.293 16.56 306.293 12.768V9.456ZM324.053 24.816C323.189 22.296 320.933 18.672 318.869 15.936L316.205 17.088C317.165 18.432 318.173 19.992 319.013 21.528C316.541 21.672 314.021 21.792 311.741 21.888C312.893 18.864 314.141 14.856 315.077 11.232L311.813 10.584C311.165 14.208 309.869 18.816 308.669 22.032C307.637 22.056 306.701 22.104 305.861 22.128L306.125 25.08C309.845 24.864 315.221 24.48 320.285 24.072C320.645 24.816 320.909 25.512 321.101 26.136L324.053 24.816ZM341.837 19.128V22.368H331.757V19.128H341.837ZM328.829 26.184H331.757V25.008H341.837V26.112H344.909V16.488H328.829V26.184ZM338.741 12.144V9.384H345.749V6.768H338.741V3.648H335.717V6.768H331.901C332.261 6 332.573 5.232 332.837 4.44L329.981 3.72C329.141 6.312 327.629 8.952 325.901 10.584C326.621 10.896 327.917 11.64 328.517 12.096C329.189 11.352 329.861 10.44 330.485 9.384H335.717V12.144H326.069V14.784H347.213V12.144H338.741ZM359.381 7.224V10.296C362.405 10.584 366.749 10.56 369.701 10.296V7.2C367.109 7.512 362.333 7.632 359.381 7.224ZM361.301 17.472L358.541 17.208C358.277 18.432 358.133 19.392 358.133 20.328C358.133 22.8 360.125 24.264 364.253 24.264C366.965 24.264 368.885 24.096 370.445 23.808L370.397 20.568C368.285 21 366.509 21.192 364.373 21.192C361.925 21.192 361.013 20.544 361.013 19.488C361.013 18.84 361.109 18.264 361.301 17.472ZM355.685 5.616L352.325 5.328C352.301 6.096 352.157 7.008 352.085 7.68C351.821 9.528 351.077 13.584 351.077 17.184C351.077 20.448 351.533 23.376 352.013 25.032L354.797 24.84C354.773 24.504 354.749 24.12 354.749 23.856C354.749 23.616 354.797 23.088 354.869 22.728C355.133 21.456 355.925 18.84 356.597 16.848L355.109 15.672C354.773 16.464 354.389 17.304 354.029 18.12C353.957 17.64 353.933 17.016 353.933 16.56C353.933 14.16 354.773 9.36 355.085 7.752C355.181 7.32 355.493 6.12 355.685 5.616ZM383.093 4.512H379.781C379.853 4.944 379.949 6.12 379.949 6.624C379.949 7.032 379.949 7.728 379.925 8.568C379.445 8.592 378.965 8.616 378.533 8.616C377.669 8.616 376.637 8.592 375.221 8.424L375.269 11.328C376.085 11.424 377.021 11.448 378.629 11.448C379.013 11.448 379.445 11.424 379.901 11.4C379.901 12.072 379.901 12.744 379.901 13.416C379.901 13.968 379.901 14.544 379.925 15.12C376.973 16.392 374.573 18.576 374.573 20.664C374.573 23.208 377.861 25.224 380.189 25.224C381.773 25.224 382.829 24.432 382.829 21.456C382.829 20.64 382.781 18.768 382.733 16.872C384.197 16.44 385.757 16.2 387.245 16.2C389.333 16.2 390.773 17.16 390.773 18.792C390.773 20.544 389.237 21.504 387.293 21.864C386.453 22.008 385.421 22.032 384.341 22.032L385.445 25.128C386.429 25.056 387.485 24.984 388.589 24.744C392.405 23.784 393.893 21.648 393.893 18.816C393.893 15.504 390.989 13.584 387.293 13.584C385.973 13.584 384.317 13.8 382.685 14.208C382.685 13.896 382.685 13.608 382.685 13.32C382.685 12.624 382.685 11.88 382.709 11.16C384.269 10.968 385.925 10.728 387.293 10.416L387.221 7.44C385.973 7.8 384.389 8.112 382.805 8.304C382.829 7.704 382.853 7.128 382.877 6.6C382.925 5.976 383.021 4.944 383.093 4.512ZM389.933 7.104L388.613 9.432C390.101 10.152 393.245 11.952 394.397 12.936L395.837 10.488C394.565 9.576 391.781 7.992 389.933 7.104ZM377.525 20.544C377.525 19.704 378.509 18.72 379.973 17.928C380.021 19.224 380.045 20.328 380.045 20.928C380.045 21.744 379.709 21.936 379.277 21.936C378.653 21.936 377.525 21.288 377.525 20.544ZM402.869 6.84L399.173 6.792C399.317 7.536 399.365 8.568 399.365 9.24C399.365 10.704 399.389 13.512 399.629 15.72C400.301 22.152 402.581 24.528 405.221 24.528C407.141 24.528 408.653 23.064 410.237 18.888L407.837 15.96C407.381 17.88 406.421 20.688 405.293 20.688C403.781 20.688 403.061 18.312 402.725 14.856C402.581 13.128 402.557 11.328 402.581 9.768C402.581 9.096 402.701 7.704 402.869 6.84ZM414.869 7.392L411.821 8.376C414.437 11.352 415.709 17.184 416.093 21.048L419.237 19.824C418.973 16.152 417.149 10.152 414.869 7.392ZM421.606 7.488L421.918 10.776C424.702 10.176 429.598 9.648 431.854 9.408C430.246 10.632 428.302 13.368 428.302 16.824C428.302 22.008 433.054 24.72 438.07 25.056L439.198 21.768C435.142 21.552 431.446 20.112 431.446 16.176C431.446 13.32 433.606 10.2 436.51 9.432C437.782 9.144 439.846 9.144 441.142 9.12L441.118 6.048C439.438 6.096 436.798 6.264 434.326 6.456C429.934 6.84 425.974 7.2 423.982 7.368C423.502 7.416 422.566 7.464 421.606 7.488ZM163.172 40.024H160.796V37.816H163.172V40.024ZM163.172 44.392H160.796V42.16H163.172V44.392ZM163.172 48.76H160.796V46.504H163.172V48.76ZM165.668 35.56H158.372V51.04H165.668V35.56ZM159.524 51.208C159.044 52.888 158.132 54.616 157.052 55.744C157.652 56.056 158.684 56.728 159.164 57.136C160.292 55.84 161.396 53.776 162.02 51.76L159.524 51.208ZM162.332 52.048C163.1 53.296 163.964 55 164.3 56.104L166.508 55.024C166.124 53.968 165.236 52.36 164.444 51.16L162.332 52.048ZM174.068 51.232V50.032H175.94V51.232H174.068ZM169.772 50.032H171.596V51.232H169.772V50.032ZM171.596 47.176V48.28H169.772V47.176H171.596ZM175.94 47.176V48.28H174.068V47.176H175.94ZM171.596 41.32H174.044V42.256H171.596V41.32ZM171.596 38.536H174.044V39.424H171.596V38.536ZM179.636 51.232H178.532V45.184H174.068V44.272H179.612V42.256H176.588V41.32H178.796V39.424H176.588V38.536H179.18V36.52H176.588V34.696H174.044V36.52H171.596V34.696H169.1V36.52H166.508V38.536H169.1V39.424H167.06V41.32H169.1V42.256H166.1V44.272H171.596V45.184H167.276V51.232H165.98V53.224H167.276V57.112H169.772V53.224H175.94V54.472C175.94 54.736 175.844 54.832 175.532 54.832C175.244 54.832 174.212 54.832 173.276 54.808C173.588 55.432 173.924 56.416 174.02 57.088C175.58 57.088 176.708 57.064 177.5 56.68C178.292 56.296 178.532 55.696 178.532 54.496V53.224H179.636V51.232ZM199.292 39.448H196.268V37.792H199.292V39.448ZM193.892 39.448H190.988V37.792H193.892V39.448ZM188.612 39.448H185.732V37.792H188.612V39.448ZM202.052 35.656H183.092V41.56H202.052V35.656ZM187.268 50.08H197.78V51.28H187.268V50.08ZM187.268 47.2H197.78V48.4H187.268V47.2ZM187.268 44.344H197.78V45.52H187.268V44.344ZM200.78 53.08V42.544H184.388V53.08H188.084C186.38 53.896 183.764 54.664 181.412 55.096C182.012 55.576 183.044 56.608 183.524 57.184C186.02 56.488 189.164 55.336 191.18 54.016L189.092 53.08H195.788L193.844 54.328C196.46 55.216 199.1 56.32 200.588 57.112L203.684 55.696C202.004 54.952 199.244 53.896 196.7 53.08H200.78ZM226.892 36.04H215.228V38.752H226.892V36.04ZM210.62 34.672C209.468 36.352 207.188 38.512 205.196 39.784C205.7 40.336 206.42 41.488 206.78 42.112C209.06 40.528 211.652 38.056 213.38 35.8L210.62 34.672ZM211.532 39.856C209.996 42.568 207.38 45.352 204.932 47.032C205.508 47.632 206.468 48.928 206.876 49.504C207.524 48.976 208.172 48.376 208.844 47.728V57.112H211.7V44.584C212.66 43.384 213.548 42.136 214.268 40.912L211.532 39.856ZM227.492 42.64H214.22V45.352H221.3V53.704C221.3 54.064 221.132 54.16 220.7 54.16C220.268 54.184 218.684 54.184 217.316 54.112C217.7 54.952 218.06 56.176 218.18 57.016C220.316 57.016 221.852 56.968 222.86 56.536C223.916 56.104 224.204 55.312 224.204 53.776V45.352H227.492V42.64ZM236.756 52.12H241.1V50.104H236.756V49.168H241.004V41.752H236.756V40.816H241.364V42.688H243.548C243.38 46.984 242.804 50.416 240.932 53.008C239.54 53.128 238.124 53.248 236.756 53.344V52.12ZM232.292 47.392V46.312H234.164V47.392H232.292ZM238.628 46.312V47.392H236.756V46.312H238.628ZM236.756 44.608V43.552H238.628V44.608H236.756ZM232.292 43.552H234.164V44.608H232.292V43.552ZM246.332 40.072C246.38 38.488 246.38 36.808 246.38 35.056H243.644C243.644 36.832 243.644 38.488 243.62 40.072H241.364V38.752H236.756V37.576C238.316 37.408 239.804 37.192 241.076 36.928L239.828 34.792C237.188 35.368 233.036 35.776 229.484 35.968C229.748 36.52 230.012 37.408 230.108 37.984C231.404 37.96 232.772 37.888 234.164 37.792V38.752H229.436V40.816H234.164V41.752H230.036V49.168H234.164V50.104H229.94V52.12H234.164V53.56C232.316 53.68 230.636 53.8 229.292 53.896L229.628 56.296C232.22 56.08 235.676 55.72 239.132 55.36C239.756 55.888 240.452 56.68 240.812 57.256C244.844 54.064 245.948 49.12 246.26 42.688H248.42C248.276 50.44 248.036 53.368 247.532 54.016C247.316 54.328 247.076 54.424 246.716 54.424C246.26 54.424 245.348 54.4 244.292 54.304C244.772 55.096 245.084 56.248 245.132 57.04C246.284 57.064 247.388 57.088 248.108 56.944C248.9 56.776 249.452 56.536 250.004 55.744C250.772 54.64 250.964 51.16 251.18 41.344C251.18 41.008 251.204 40.072 251.204 40.072H246.332ZM263.252 38.224V41.296C266.276 41.584 270.62 41.56 273.572 41.296V38.2C270.98 38.512 266.204 38.632 263.252 38.224ZM265.172 48.472L262.412 48.208C262.148 49.432 262.004 50.392 262.004 51.328C262.004 53.8 263.996 55.264 268.124 55.264C270.836 55.264 272.756 55.096 274.316 54.808L274.268 51.568C272.156 52 270.38 52.192 268.244 52.192C265.796 52.192 264.884 51.544 264.884 50.488C264.884 49.84 264.98 49.264 265.172 48.472ZM259.556 36.616L256.196 36.328C256.172 37.096 256.028 38.008 255.956 38.68C255.692 40.528 254.948 44.584 254.948 48.184C254.948 51.448 255.404 54.376 255.884 56.032L258.668 55.84C258.644 55.504 258.62 55.12 258.62 54.856C258.62 54.616 258.668 54.088 258.74 53.728C259.004 52.456 259.796 49.84 260.468 47.848L258.98 46.672C258.644 47.464 258.26 48.304 257.9 49.12C257.828 48.64 257.804 48.016 257.804 47.56C257.804 45.16 258.644 40.36 258.956 38.752C259.052 38.32 259.364 37.12 259.556 36.616ZM299.084 39.328H289.94V37.888H297.044V35.68H280.148V37.888H287.012V39.328H278.012V41.536H299.084V39.328ZM283.34 50.104H293.588V51.28H283.34V50.104ZM283.34 47.224H293.588V48.4H283.34V47.224ZM283.34 44.392H293.588V45.52H283.34V44.392ZM296.612 53.104V42.544H280.46V53.104H283.892C282.212 53.92 279.788 54.664 277.58 55.072C278.18 55.576 279.188 56.584 279.668 57.16C282.116 56.464 285.188 55.24 287.18 53.896L285.38 53.104H291.668L289.844 54.184C292.316 55.144 294.812 56.32 296.228 57.136L299.396 55.816C297.836 55.072 295.292 53.968 292.94 53.104H296.612ZM323.804 39.4C323.516 38.272 322.724 36.664 321.932 35.416L319.7 36.256C320.468 37.528 321.212 39.232 321.428 40.312L323.804 39.4ZM310.556 52.168V50.176H308.804V48.76H310.604V46.72H309.524C309.836 46 310.244 44.944 310.676 43.912L308.876 43.504C308.708 44.32 308.348 45.544 308.06 46.384L309.428 46.72H306.116L307.292 46.336C307.196 45.616 306.788 44.44 306.404 43.624L304.916 44.056C305.3 44.896 305.636 45.976 305.732 46.72H304.844V48.76H306.644V50.176H304.868V52.168H306.644V55.984H308.804V52.168H310.556ZM323.396 43.864V41.248H319.532V34.672H316.748V41.248H313.82V43.864H316.7C316.532 47.056 315.908 50.824 313.508 53.8V41.056H309.044V39.064H313.844V36.664H309.044V34.696H306.356V36.664H301.724V39.064H306.356V41.056H301.988V57.016H304.34V43.312H311.108V54.352C311.108 54.592 311.036 54.664 310.82 54.664C310.58 54.688 309.908 54.688 309.284 54.664C309.572 55.264 309.86 56.272 309.908 56.92C311.156 56.92 312.02 56.872 312.692 56.488C312.956 56.344 313.148 56.152 313.268 55.912C313.724 56.32 314.156 56.752 314.42 57.088C316.532 54.928 317.78 52.336 318.524 49.696C319.268 52.744 320.348 55.312 322.052 57.112C322.484 56.344 323.396 55.264 324.044 54.76C321.692 52.552 320.492 48.424 319.868 43.864H323.396ZM333.404 35.968L329.54 35.92C329.756 36.88 329.852 38.032 329.852 39.16C329.852 41.224 329.612 47.536 329.612 50.752C329.612 54.856 332.156 56.584 336.092 56.584C341.564 56.584 344.972 53.368 346.508 51.064L344.324 48.424C342.596 51.04 340.076 53.32 336.116 53.32C334.244 53.32 332.804 52.528 332.804 50.104C332.804 47.128 332.996 41.752 333.092 39.16C333.14 38.2 333.26 36.976 333.404 35.968ZM362.588 49.144L359.732 48.856C359.54 49.816 359.3 50.968 359.3 52.072C359.3 54.496 361.484 55.888 365.516 55.888C367.436 55.888 369.068 55.72 370.412 55.552L370.532 52.48C368.804 52.792 367.148 52.984 365.54 52.984C362.972 52.984 362.252 52.192 362.252 51.136C362.252 50.608 362.396 49.816 362.588 49.144ZM359.876 35.848L356.204 35.56C356.276 36.112 356.228 37.096 356.132 37.984C356.084 38.368 356.012 38.824 355.916 39.352C355.172 39.4 354.452 39.424 353.756 39.424C352.772 39.424 351.956 39.376 350.732 39.232L350.804 42.232C351.644 42.28 352.556 42.328 353.708 42.328C354.212 42.328 354.74 42.304 355.292 42.28C355.148 42.976 354.956 43.648 354.788 44.296C353.9 47.656 352.076 52.696 350.636 55.096L353.972 56.224C355.316 53.368 356.924 48.472 357.788 45.112C358.052 44.128 358.292 43.072 358.508 42.04C360.116 41.848 361.748 41.584 363.188 41.248V38.248C361.868 38.56 360.524 38.824 359.18 39.016C359.252 38.68 359.324 38.368 359.372 38.104C359.468 37.576 359.684 36.496 359.876 35.848ZM361.292 43.096V45.904C362.804 45.736 364.292 45.664 365.924 45.664C367.388 45.664 368.852 45.808 370.052 45.952L370.124 43.072C368.708 42.928 367.268 42.856 365.9 42.856C364.364 42.856 362.636 42.976 361.292 43.096ZM381.812 49.912H387.668C387.092 50.8 386.372 51.544 385.484 52.144C384.02 51.76 382.508 51.4 381.02 51.088L381.812 49.912ZM377.78 41.608H380.3V43.84H377.78V41.608ZM382.988 37.984H385.7V39.352H382.988V37.984ZM391.268 41.608V43.84H388.388V41.608H391.268ZM382.988 43.84V41.608H385.7V43.84H382.988ZM395.468 49.912V47.608H383.348C383.684 47.08 383.996 46.576 384.308 46.072H394.124V39.352H388.388V37.984H394.892V35.512H373.988V37.984H380.3V39.352H375.092V46.072H381.044C380.732 46.576 380.42 47.08 380.084 47.608H373.556V49.912H378.548C377.828 50.944 377.132 51.88 376.532 52.648L379.292 53.512L379.556 53.152C380.348 53.32 381.116 53.512 381.884 53.704C379.748 54.256 377.156 54.544 373.988 54.664C374.42 55.288 374.876 56.296 375.068 57.112C379.724 56.752 383.276 56.128 385.964 54.808C388.676 55.6 391.1 56.44 392.924 57.184L394.676 54.856C393.044 54.28 390.956 53.632 388.628 52.984C389.516 52.144 390.26 51.136 390.86 49.912H395.468ZM402.908 51.88C401.66 53.032 399.476 54.136 397.436 54.832C398.036 55.288 399.092 56.248 399.572 56.776C401.564 55.912 404.012 54.4 405.548 52.888L402.908 51.88ZM410.972 44.08C409.676 45.184 407.948 46.432 406.196 47.56C405.812 47.272 405.356 46.984 404.876 46.696C405.956 46 407.228 45.04 408.404 44.08H410.972ZM419.708 50.824C418.532 49.48 416.084 47.68 414.188 46.504L412.196 47.944C412.796 48.328 413.42 48.784 414.044 49.24L407.444 49.36C409.556 48.136 411.812 46.672 413.66 45.304L411.476 44.08H419.156V41.896H409.868V40.984H416.828V38.944H409.868V38.032H418.1V35.968H409.868V34.648H407.012V35.968H399.212V38.032H407.012V38.944H400.436V40.984H407.012V41.896H397.892V44.08H404.708C404.132 44.608 403.532 45.136 402.956 45.568C402.524 45.328 402.092 45.112 401.708 44.92L399.86 46.504C401.132 47.176 402.668 48.136 403.844 49C403.58 49.144 403.316 49.264 403.076 49.408C401.18 49.432 399.428 49.456 397.964 49.456L398.108 51.712C400.532 51.664 403.652 51.616 407.036 51.544V57.016H409.844V51.496C412.052 51.448 414.332 51.4 416.54 51.328C416.948 51.712 417.308 52.096 417.572 52.408L419.708 50.824ZM411.356 53.272C413.18 54.208 415.58 55.672 416.732 56.608L418.988 55.024C417.692 54.016 415.22 52.672 413.468 51.808L411.356 53.272ZM442.748 46.552C442.748 41.32 439.004 37.192 433.052 37.192C426.836 37.192 422.036 41.92 422.036 47.464C422.036 51.52 424.244 54.448 426.908 54.448C429.524 54.448 431.588 51.472 433.028 46.624C433.724 44.368 434.132 42.16 434.468 40.12C437.708 40.672 439.508 43.144 439.508 46.456C439.508 49.96 437.108 52.168 434.036 52.888C433.388 53.032 432.716 53.176 431.804 53.272L433.604 56.128C439.652 55.192 442.748 51.616 442.748 46.552ZM425.108 47.152C425.108 44.512 427.244 41.008 431.204 40.192C430.94 42.184 430.484 44.224 429.932 46C428.948 49.24 428.012 50.752 427.004 50.752C426.068 50.752 425.108 49.576 425.108 47.152ZM454.196 51.832V53.872H449.42V51.832H454.196ZM446.852 57.064H449.42V56.008H454.196V56.848H456.908V49.696H446.852V57.064ZM455.54 40.744H453.092V39.448H450.476V40.744H448.028V38.968H455.54V40.744ZM453.14 34.816H450.404V36.832H445.508V40.936H446.684V42.76H450.476V43.768H446.924V45.664H450.476V46.696H445.58V48.88H457.916V46.696H453.092V45.664H456.596V43.768H453.092V42.76H456.932V40.936H458.18V36.832H453.14V34.816ZM461.9 37.216H459.188V50.632H461.9V37.216ZM464.156 35.104V53.584C464.156 53.968 463.988 54.112 463.58 54.112C463.1 54.112 461.732 54.136 460.34 54.064C460.748 54.88 461.156 56.2 461.276 57.016C463.244 57.016 464.732 56.92 465.668 56.44C466.628 56.008 466.916 55.192 466.916 53.608V35.104H464.156ZM485.276 49.792V53.704H475.796V49.792H485.276ZM472.988 57.112H475.796V56.224H485.276V57.112H488.204V47.272H472.988V57.112ZM475.652 42.376C477.62 40.816 479.3 39.112 480.428 37.504C481.58 39.088 483.356 40.816 485.348 42.376H475.652ZM478.82 34.696C477.02 37.624 473.18 41.248 469.052 43.24C469.676 43.84 470.468 44.872 470.852 45.568C472.124 44.872 473.396 44.08 474.572 43.216V44.896H486.524V43.24C487.724 44.104 488.972 44.896 490.196 45.52C490.7 44.632 491.348 43.696 492.044 42.952C488.228 41.416 484.34 38.368 481.772 34.696H478.82Z" fill="black"/>
<path d="M122 83H531" stroke="#FCED68" stroke-width="4.62211"/>
</svg>
