<svg width="150" height="150" viewBox="0 0 150 150" fill="none" xmlns="http://www.w3.org/2000/svg">
<path fill-rule="evenodd" clip-rule="evenodd" d="M75 147.835C115.226 147.835 147.835 115.226 147.835 75C147.835 34.7741 115.226 2.16463 75 2.16463C34.7741 2.16463 2.16463 34.7741 2.16463 75C2.16463 115.226 34.7741 147.835 75 147.835ZM75 150C116.421 150 150 116.421 150 75C150 33.5786 116.421 0 75 0C33.5786 0 0 33.5786 0 75C0 116.421 33.5786 150 75 150Z" fill="white"/>
<path d="M68.3107 48.504C68.5347 52.844 71.1107 55.364 75.1987 55.364C79.5387 55.364 82.1987 52.62 82.1987 48.98C82.1987 47.72 81.9188 45.256 78.9508 43.8C80.7428 43.072 81.6667 41.476 81.6667 39.572C81.6667 36.94 79.5667 34.196 75.4507 34.196C71.6147 34.196 68.9268 36.464 68.7588 40.58H72.1467C72.1747 39.796 72.3147 37.08 75.4507 37.08C77.3267 37.08 78.2787 38.256 78.2787 39.852C78.2787 41.924 76.5987 43.044 74.6387 43.044H73.4907V45.48H74.6387C75.8147 45.48 78.7548 45.788 78.7548 48.952C78.7548 51.304 77.2147 52.452 75.3107 52.452C72.0347 52.452 71.8387 49.624 71.7547 48.504H68.3107Z" fill="white"/>
<path d="M29.69 83.81H27.582V81.498H29.69V83.81ZM26.256 79.407H30.914V78.03H26.256V79.407ZM37.85 77.537H39.856V75.837H34.28V73.831C35.164 73.78 36.473 73.61 37.85 73.355C38.36 73.253 39.176 73.117 39.227 73.117C39.295 73.117 39.618 73.185 39.652 73.185C39.737 73.185 39.805 73.134 39.805 73.049C39.805 72.964 39.703 72.743 39.584 72.573L38.768 71.4C37.68 71.757 35.64 72.131 34.331 72.284L32.427 72.182C32.512 73.304 32.529 74.987 32.529 76.296C32.529 79.985 32.393 81.855 31.254 84.49V80.172H26.018V85.799H27.582V85.085H29.69V85.612H31.254V85.238L32.478 85.901C33.855 83.572 34.28 80.444 34.28 77.537H36.15V79.424C35.657 79.067 35.657 79.067 35.215 78.778L34.195 80.087C34.756 80.427 35.589 81.022 36.15 81.464V85.986H37.85V82.909C37.986 83.028 38.547 83.504 38.683 83.64L39.822 82.348C39.159 81.804 38.139 80.954 37.85 80.648V77.537ZM26.256 72.862H30.863V71.434H26.256V72.862ZM26.256 77.265H30.914V75.871H26.256V77.265ZM25.542 75.106H31.73V73.61H25.542V75.106Z" fill="white"/>
<path d="M54.357 75.99C53.592 77.214 52.623 78.268 51.977 78.863C51.45 77.945 50.94 76.908 50.634 75.327H56.788V73.593H54.153L54.867 72.896C54.272 72.233 53.711 71.74 52.81 71.179L51.756 72.42C52.266 72.811 52.623 73.1 53.184 73.593H50.583V72.267C50.583 72.182 50.617 72.148 50.94 71.927C50.991 71.893 51.059 71.808 51.059 71.706C51.059 71.485 50.804 71.451 50.413 71.434L48.781 71.349V73.593H42.678V75.327H48.781V83.436C48.781 83.895 48.611 83.997 48.322 83.997H46.554L47.387 85.935C49.92 85.867 50.583 85.476 50.583 84.252V79.764C51.399 81.192 52.81 83.368 55.428 84.847L57.128 83.504C56.448 83.215 54.816 82.569 52.963 80.291C53.813 79.509 54.595 78.659 55.36 77.792C55.462 77.673 55.496 77.673 55.768 77.673C55.955 77.673 56.057 77.639 56.057 77.52C56.057 77.401 56.04 77.367 55.904 77.248L54.357 75.99ZM43.749 76.993C44.378 77.741 45.143 78.88 45.568 79.9L47.132 78.795C46.826 78.132 46.384 77.265 45.211 75.888L43.749 76.993ZM47.863 79.577C46.554 80.58 43.987 81.974 42.593 82.552L43.46 84.354C43.613 84.66 43.664 84.677 43.732 84.677C43.817 84.677 43.851 84.609 43.851 84.541C43.868 84.405 43.885 84.337 44.242 84.099C45.636 83.181 47.132 82.178 48.373 81.226L47.863 79.577Z" fill="white"/>
<path d="M63.316 79.288C65.985 81.294 66.954 82.722 67.957 84.235L69.555 83.028C68.943 82.161 68.535 81.651 67.94 80.971C69.912 78.914 70.898 77.707 71.289 77.231C72.513 75.701 72.615 75.633 73.38 75.106L71.816 73.593C71.119 74.205 70.847 74.205 70.643 74.205H60.171V75.956H69.844C68.586 77.571 67.753 78.472 66.614 79.645C65.713 78.829 65.118 78.387 64.523 77.962L63.316 79.288Z" fill="white"/>
<path d="M81.438 78.693C80.843 77.078 80.316 76.364 80.078 76.058L78.718 76.619C79.262 77.418 79.687 78.166 80.044 79.203L81.438 78.693ZM84.566 78.013C84.243 76.993 83.886 76.126 83.291 75.242L81.999 75.786C82.509 76.602 82.9 77.384 83.172 78.472L84.566 78.013ZM82.033 85.255C86.895 82.943 87.864 79.118 88.544 76.585C88.578 76.432 88.612 76.381 88.748 76.296C88.85 76.228 88.952 76.16 88.952 76.058C88.952 75.956 88.833 75.905 88.442 75.786L87.15 75.395C86.266 79.866 84.77 82.433 80.741 84.065L82.033 85.255Z" fill="white"/>
<path d="M107.006 73.627C107.992 73.627 108.672 72.828 108.672 71.961C108.672 71.043 107.941 70.295 107.04 70.295C106.122 70.295 105.391 71.043 105.391 71.961C105.391 72.93 106.19 73.627 107.006 73.627ZM107.023 72.845C106.564 72.845 106.156 72.454 106.156 71.961C106.156 71.485 106.53 71.06 107.04 71.06C107.533 71.06 107.907 71.485 107.907 71.961C107.907 72.403 107.567 72.845 107.023 72.845ZM104.031 75.021C103.011 78.795 101.209 81.787 96.228 83.963L97.792 85.476C103.334 82.722 104.796 78.829 105.459 76.908C106.19 74.817 106.19 74.817 106.666 74.477L105.085 72.913C104.762 73.253 104.473 73.253 104.252 73.253H94.868V75.021H104.031Z" fill="white"/>
<path d="M123.802 72.012C119.722 73.083 115.523 73.525 111.324 73.814L111.664 75.701C112.956 75.514 113.993 75.378 115.2 75.191C115.676 75.123 118.039 74.749 118.583 74.698C117.189 75.871 114.979 77.724 114.979 80.767C114.979 82.246 115.829 83.759 117.563 84.711C118.277 85.102 119.144 85.408 120.878 85.663L121.507 83.657C119.722 83.606 116.934 83.3 116.934 80.393C116.934 77.945 119.178 76.143 120.113 75.48C121.626 74.426 122.799 74.154 123.887 73.933L123.802 72.012ZM123.751 78.234C122.986 77.486 122.204 77.01 121.847 76.789L121.184 77.656C121.949 78.149 122.442 78.574 122.986 79.118L123.751 78.234ZM125.026 76.619C124.346 75.956 123.802 75.565 123.241 75.225L122.561 75.99C123.173 76.398 123.802 76.857 124.312 77.435L125.026 76.619Z" fill="white"/>
<path d="M24.0855 102.435C24.2045 104.73 24.6125 106.056 24.8335 106.787C24.4255 107.263 23.8645 107.892 23.1165 108.521V107.212H19.7675V106.209H22.6235V100.31H21.6375C21.7395 100.089 22.1305 99.188 22.5385 98.168C22.6235 97.964 22.8105 97.522 22.8955 97.488C23.2695 97.318 23.2865 97.318 23.2865 97.25C23.2865 97.097 22.9805 96.995 22.8785 96.961L21.3995 96.502C20.9745 98.423 20.4135 99.562 20.0565 100.31H15.4835V106.209H18.3055V107.212H14.8545V108.674H18.3055V110.884H19.7675V108.674H22.9295C22.4535 109.082 22.0965 109.269 21.7565 109.456L22.9465 110.646C23.8305 109.983 24.5615 109.371 25.4795 108.334C26.1765 109.592 27.2815 110.986 28.0465 110.986C28.6585 110.986 29.3555 109.847 29.6955 108.453L28.5055 107.535C28.2675 108.028 28.0635 108.47 27.8595 108.47C27.6725 108.47 26.9075 107.484 26.6185 106.906C27.3325 105.92 27.4175 105.784 27.9445 104.713C28.0295 104.526 28.4715 103.591 28.5225 103.523C28.5565 103.455 28.9305 103.251 28.9305 103.166C28.9305 103.064 28.8795 103.064 28.4545 102.894L27.2135 102.418C26.8395 103.608 26.4995 104.237 26.0405 105.07C25.8875 104.152 25.7515 103.438 25.6325 102.163L29.4915 101.483L29.3215 99.987L25.5305 100.616C25.5305 100.174 25.5305 97.08 25.6835 96.876C25.7175 96.825 26.0235 96.638 26.0235 96.57C26.0235 96.4 25.8365 96.383 25.4625 96.349L23.8815 96.213C23.8815 98.372 23.8985 99.664 23.9835 100.871L22.6745 101.092L22.8615 102.639L24.0855 102.435ZM18.3055 102.639H16.9965V101.585H18.3055V102.639ZM21.1105 102.639H19.7675V101.585H21.1105V102.639ZM21.1105 104.934H19.7675V103.812H21.1105V104.934ZM18.3055 104.934H16.9965V103.812H18.3055V104.934ZM26.3295 97.42C27.2135 98.899 27.3325 99.188 27.5535 99.698L28.9135 99.12C28.7265 98.61 28.5225 98.117 27.5705 96.638L26.3295 97.42ZM14.9225 97.522C15.2455 97.93 15.7215 98.593 16.2315 99.851L17.5915 99.154C17.2515 98.304 16.8265 97.42 16.2655 96.706L14.9225 97.522ZM17.5915 96.961C17.8975 97.624 18.2885 98.729 18.4755 99.664L19.9715 99.222C19.6655 97.896 19.5805 97.59 19.1385 96.485L17.5915 96.961Z" fill="white"/>
<path d="M41.1195 97.556C41.2215 97.233 41.2895 97.063 41.4765 96.978C41.6805 96.876 41.8675 96.808 41.8675 96.689C41.8675 96.519 41.6975 96.451 41.4595 96.4L39.8955 96.077C39.3855 98.1 38.5355 99.698 37.6685 100.769V97.403H32.0075V109.881H33.4185V108.402H36.2575V109.184H37.6685V104.866L38.4335 105.733C38.5525 105.665 38.7905 105.529 38.8925 105.444V110.884H40.5075V110.119H43.1765V110.884H44.8425V105.342C45.0975 105.495 45.2165 105.546 45.5395 105.716L46.6105 103.999C46.1345 103.829 44.3325 103.234 42.9385 102.027C43.6865 101.194 44.6045 99.953 45.3015 98.338L44.4175 97.556H41.1195ZM35.3225 102.095V98.933H36.2575V102.095H35.3225ZM34.2515 102.095H33.4185V98.933H34.2515V102.095ZM34.2515 106.872H33.4185V103.574H34.2515V106.872ZM35.3225 106.872V103.574H36.2575V106.872H35.3225ZM39.7425 104.9C39.9805 104.73 40.7625 104.203 41.8165 103.2C42.6325 103.999 43.5675 104.611 44.0435 104.9H39.7425ZM43.1765 108.572H40.5075V106.396H43.1765V108.572ZM43.0575 98.967C42.9215 99.256 42.6325 99.885 41.8165 100.871C41.4085 100.344 41.0515 99.851 40.5755 98.967H43.0575ZM37.6685 101.075L38.7225 101.959C39.0455 101.551 39.2835 101.245 39.7255 100.514C39.9465 100.854 40.2185 101.33 40.7455 102.01C39.5725 103.081 38.6715 103.642 37.6685 104.101V101.075Z" fill="white"/>
<path d="M57.7625 98.95C57.8475 98.678 58.0685 97.454 58.1535 97.182C58.1705 97.097 58.4935 96.774 58.4935 96.689C58.4935 96.536 58.4255 96.536 57.8475 96.451L56.4535 96.264C56.4025 96.774 56.1305 99.953 54.5835 102.112V98.848H52.2715C52.3905 98.389 52.8495 96.893 52.8665 96.842C52.8835 96.791 53.1385 96.587 53.1385 96.519C53.1385 96.366 53.0875 96.349 52.5605 96.281L51.0985 96.077C51.0645 96.349 50.8605 97.59 50.5205 98.848H48.6675V110.629H50.3675V109.388H52.9175V110.238H54.5835V102.282L56.1305 103.251C56.7255 102.265 57.2865 100.531 57.3035 100.497H60.9415C60.8735 102.724 60.8055 105.308 60.3635 107.535C60.1085 108.759 59.4625 108.878 58.7825 108.878C58.5445 108.878 58.2725 108.861 57.7965 108.844L58.2215 110.714C59.9555 110.68 61.0945 110.646 61.7235 109.048C62.5565 106.923 62.6245 101.534 62.6415 98.95H57.7625ZM52.9175 103.319H50.3675V100.361H52.9175V103.319ZM52.9175 107.875H50.3675V104.832H52.9175V107.875ZM56.5385 103.183C57.0825 103.931 57.6435 105.053 58.0175 106.209L59.5645 105.41C59.1565 104.22 58.6975 103.404 57.9835 102.367L56.5385 103.183Z" fill="white"/>
<path d="M67.9285 109.626C68.0305 108.623 68.2855 107.28 69.0335 106.039L67.9115 105.189C67.5545 105.852 67.4015 106.09 67.2485 106.311C67.1465 105.699 67.1125 105.07 67.1125 104.628C67.1125 102.01 68.0815 98.219 68.4215 98.083C68.4725 98.066 68.6255 98.015 68.6765 97.981C68.7105 97.964 68.7105 97.913 68.7105 97.879C68.7105 97.743 68.6085 97.692 68.2685 97.556L66.5855 96.876C65.6335 101.568 65.4125 102.622 65.4125 104.509C65.4125 106.362 65.7355 108.504 66.6535 110.085L67.9285 109.626ZM77.4655 97.998C76.1735 98.389 74.8815 98.576 73.5215 98.576C72.3485 98.576 71.7535 98.44 70.9205 98.236L70.9375 100.021C71.5495 100.242 72.7565 100.242 73.1305 100.242C74.9665 100.242 76.4115 99.97 77.4315 99.783L77.4655 97.998ZM77.9755 107.025C75.8335 107.518 74.3885 107.535 73.9805 107.535C72.5185 107.535 71.9575 107.042 71.9575 106.158C71.9575 105.869 71.9915 105.512 72.0765 105.223L70.3425 105.376C70.1725 108.606 70.9545 109.354 74.5245 109.354C75.8505 109.354 76.8025 109.303 77.9245 109.133L77.9755 107.025Z" fill="white"/>
<path d="M83.8915 96.009V97.913H80.6955V99.511H88.7365V97.913H85.7275V96.774C85.7275 96.689 86.1525 96.349 86.1525 96.247C86.1525 96.128 86.0335 96.094 85.6085 96.077L83.8915 96.009ZM88.4815 99.783V101.517H90.3855C89.8415 106.464 88.3625 108.436 85.8465 110.051L87.3935 111.258C89.6885 109.354 91.3715 107.586 92.0515 101.517H93.4455C93.4285 103.489 93.3265 105.325 93.0375 107.263C92.8335 108.623 92.7485 109.269 91.3205 109.269C90.9975 109.269 90.5045 109.218 90.2665 109.184L91.0315 111.071C92.8505 110.952 94.1255 110.85 94.5335 108.81C94.9415 106.736 95.1285 102.095 95.1455 99.783H92.1195V97.148C92.1195 96.927 92.1535 96.91 92.3575 96.757C92.4935 96.655 92.5105 96.638 92.5105 96.553C92.5105 96.383 92.1705 96.349 92.0175 96.349L90.4365 96.298V99.783H88.4815ZM85.3365 100.837C86.0675 101.5 86.9855 102.384 87.8185 103.608L89.0595 102.605C88.3795 101.602 87.5975 100.786 86.5775 99.885L85.3365 100.837ZM83.1945 99.834C82.3105 100.888 81.4945 101.602 80.2875 102.367L81.6645 103.472C82.5995 102.724 83.0925 102.231 83.8575 101.33C84.0105 101.143 84.1805 100.956 84.3165 100.939C84.6565 100.888 84.6905 100.888 84.6905 100.786C84.6905 100.667 84.4525 100.48 84.1805 100.344L83.1945 99.834ZM82.0385 103.897C82.6165 104.492 83.5345 105.665 83.8065 106.005C82.8375 107.365 81.9025 108.487 80.1855 109.813L81.5625 110.918C83.0925 109.643 83.8575 108.81 84.8605 107.467C85.1495 107.875 85.4895 108.385 85.9655 109.235L87.3425 108.096C87.0705 107.637 86.4585 106.753 85.8635 105.903C86.1865 105.291 86.3565 104.968 86.6625 104.152C86.6965 104.067 86.7815 103.863 86.9175 103.846C87.2065 103.778 87.2745 103.761 87.2745 103.642C87.2745 103.506 87.0705 103.353 86.9515 103.302L85.5065 102.656C85.2345 103.387 85.0135 103.863 84.7245 104.441C84.0785 103.659 83.7725 103.302 83.3305 102.894L82.0385 103.897Z" fill="white"/>
<path d="M102.727 105.444C101.503 106.668 99.8035 108.13 97.2025 109.133L98.5285 110.544C101.027 109.133 101.945 108.521 103.628 106.872V110.935H105.277V106.872C106.688 108.487 107.436 109.082 110.02 110.595L111.261 109.116C109 108.096 107.606 107.246 105.94 105.444H111.737V103.897H105.277V102.826H109.799V96.536H99.1235V102.826H103.628V103.897H97.1515V105.444H102.727ZM103.628 99.001H100.823V97.896H103.628V99.001ZM105.277 99.001V97.896H108.116V99.001H105.277ZM105.277 100.276H108.116V101.449H105.277V100.276ZM103.628 100.276V101.449H100.823V100.276H103.628Z" fill="white"/>
<path d="M124.147 97.59H122.005V105.342C122.005 107.246 121.155 108.538 119.081 108.538C116.14 108.538 116.14 105.988 116.14 105.342V97.59H114.015V105.308C114.015 109.728 117.092 110.408 119.115 110.408C120.645 110.408 124.147 110 124.147 105.308V97.59Z" fill="white"/>
<path d="M126.575 97.59V110H128.7V105.563H131.845C133.902 105.563 136.095 104.322 136.095 101.5C136.095 99.205 134.769 97.59 131.998 97.59H126.575ZM128.7 99.375H131.658C133.273 99.375 133.834 100.463 133.834 101.568C133.834 102.673 133.222 103.778 131.658 103.778H128.7V99.375Z" fill="white"/>
</svg>
