<svg width="332" height="156" viewBox="0 0 332 156" fill="none" xmlns="http://www.w3.org/2000/svg">
<path d="M52.1203 2.05001C52.1203 1.738 51.6003 1.712 51.4703 1.712L48.1423 1.53C48.2723 3.61002 48.3243 7.22404 48.3243 7.84804C48.3243 15.7001 46.0883 18.1701 40.7583 20.2761L43.0203 22.7981C45.7243 21.4201 49.1043 19.4961 50.6383 14.8941C51.4703 12.3721 51.5223 10.3181 51.5223 5.24803C51.5223 4.98802 51.4703 3.81802 51.4963 3.58402C51.4963 2.85601 51.4963 2.77801 51.8343 2.44001C52.0943 2.23201 52.1203 2.12801 52.1203 2.05001ZM41.3043 2.25801C41.3043 2.02401 40.8363 1.99801 40.6283 1.97201L37.5342 1.712V13.9841H40.6283V3.01201C40.6283 2.93401 40.6543 2.90801 41.0443 2.62201C41.1483 2.51801 41.3043 2.38801 41.3043 2.25801Z" fill="white"/>
<path d="M80.6425 12.5541V9.82405H71.7244V5.11802H78.9265V2.38801H63.9504V5.11802H68.7344V9.82405H61.4804V12.5541H68.7344V17.8061C68.7344 21.5241 71.6724 21.6541 74.1425 21.6541C75.6245 21.6541 78.9005 21.6021 79.5765 21.5761V18.4821C78.5365 18.6121 77.1065 18.7681 75.1045 18.7681C72.6865 18.7681 71.7244 18.4041 71.7244 17.0261V12.5541H80.6425Z" fill="white"/>
<path d="M106.747 13.6201V10.3181H88.2606V13.6201H106.747Z" fill="white"/>
<path d="M133.735 13.6721C132.695 12.7621 131.733 11.9041 129.679 10.5521C127.443 9.09605 126.585 8.75805 125.259 8.18604L124.037 10.1101V3.27201C124.037 3.14201 124.713 2.72601 124.713 2.57001C124.713 2.25801 124.167 2.18001 124.089 2.15401L120.969 1.608V22.2001H124.037V10.9681C127.157 12.2681 129.757 14.3741 131.681 16.1681L133.735 13.6721Z" fill="white"/>
<path d="M161.009 9.33005C160.463 8.70605 159.943 8.16004 158.851 7.35404L157.759 8.60205C158.617 9.22605 159.241 9.79805 159.917 10.5781L161.009 9.33005ZM158.903 11.6961C158.253 10.8901 157.603 10.3441 156.745 9.69405L155.679 10.9421C156.693 11.7221 157.239 12.2421 157.811 12.9441L158.903 11.6961ZM159.761 4.91002V1.89401C154.847 3.40201 146.787 4.02602 141.171 3.97402L141.613 6.88604C144.213 6.52203 148.035 6.21003 151.519 5.92403C150.609 6.75604 149.309 7.97804 148.087 9.87606C146.969 11.5661 146.319 13.3081 146.319 15.0501C146.319 16.8181 146.995 18.5081 148.243 19.7301C150.349 21.8361 153.261 22.3821 154.639 22.6161L155.653 19.4441C154.587 19.3921 152.767 19.3141 151.077 18.1181C150.349 17.5981 149.205 16.5321 149.205 14.7381C149.205 12.7621 150.453 10.4221 152.377 8.49805C155.679 5.17003 158.539 4.98802 159.761 4.91002Z" fill="white"/>
<path d="M187.711 11.9301C187.711 6.13203 183.447 2.46601 178.039 2.46601C171.331 2.46601 166.573 7.71804 166.573 13.4901C166.573 18.1441 170.837 20.4841 171.773 20.4841C173.125 20.4841 174.321 18.3001 175.101 16.6881C175.959 14.9461 177.493 11.3061 178.325 5.11802C179.287 5.19603 181.107 5.30003 182.745 6.86004C184.201 8.23804 184.617 9.98006 184.617 11.4101C184.617 12.5541 184.331 14.7121 182.745 16.5841C181.159 18.4821 179.235 19.0281 178.065 19.3661L179.989 22.0441C181.393 21.4721 184.097 20.3541 186.047 17.4681C187.009 16.0381 187.711 14.2181 187.711 11.9301ZM175.231 5.58603C174.711 9.64205 172.475 16.4281 171.123 16.4281C170.655 16.4281 169.459 15.3361 169.459 13.2301C169.459 11.6441 170.213 9.22605 172.059 7.45804C173.307 6.23603 174.477 5.84603 175.231 5.58603Z" fill="white"/>
<path d="M214.595 1.296C214.595 1.062 214.179 0.984 214.023 0.984L211.397 0.775998V19.7561C211.397 20.5621 210.747 20.5621 210.461 20.5621C210.305 20.5621 209.473 20.5361 208.407 20.4841L209.863 23.2661C212.827 23.1881 214.101 23.0841 214.101 20.4841V2.05001C214.101 1.92001 214.153 1.86801 214.335 1.686C214.491 1.53 214.595 1.4 214.595 1.296ZM209.941 4.05202C209.941 3.76602 209.369 3.74002 209.187 3.74002L206.873 3.66202V18.0141H209.473V4.62402C209.759 4.36402 209.941 4.23402 209.941 4.05202ZM206.041 10.3701V7.84804H200.711V6.05403H205.131V3.53202H200.711V1.686C200.945 1.478 201.179 1.322 201.179 1.114C201.179 0.905999 200.737 0.828 200.581 0.828L197.981 0.723999V3.53202H196.447L196.681 2.90801C196.967 2.80401 197.253 2.80401 197.253 2.54401C197.253 2.31001 196.863 2.23201 196.785 2.20601L194.341 1.712C193.587 4.15602 192.651 5.71603 192.079 6.57403L194.809 7.35404C195.173 6.65203 195.277 6.41803 195.433 6.05403H197.981V7.84804H192.495V10.3701H197.981V11.9821H193.431V21.8881H196.161V14.4781H197.981V23.1881H200.711V14.4781H202.557V18.4821C202.557 19.2361 202.011 19.2101 200.893 19.2101L202.063 21.6541C203.935 21.3421 205.313 21.1341 205.313 19.4961V11.9821H200.711V10.3701H206.041Z" fill="white"/>
<path d="M241.271 7.27604V4.49402H231.547C231.651 4.23402 232.249 2.67401 232.301 2.62201C232.353 2.57001 232.717 2.41401 232.795 2.36201C232.925 2.28401 232.951 2.18001 232.951 2.10201C232.951 1.99801 232.847 1.89401 232.717 1.84201L229.597 0.905999C228.375 5.09203 227.231 7.22404 224.605 9.95405L227.361 11.4101C228.349 10.2401 229.181 9.14805 230.195 7.27604H231.079V22.9801H234.095V18.0401H240.855V15.1541H234.095V12.5541H240.023V9.90205H234.095V7.27604H241.271ZM226.919 2.12801C226.919 2.05001 226.841 1.92001 226.659 1.86801L223.253 1.062C221.901 5.40403 220.731 7.51004 217.949 10.5261L220.549 12.1381C220.861 11.8001 221.121 11.5141 221.407 11.1501V23.0061H224.371V7.58804C224.371 7.38004 224.657 7.17204 224.761 7.12004C224.865 7.01604 225.047 6.91204 225.047 6.70404C225.047 6.60004 224.969 6.47003 224.917 6.44403L224.553 6.26203C225.385 4.70202 225.645 4.10402 226.087 3.06401C226.243 2.70001 226.295 2.67401 226.711 2.44001C226.815 2.36201 226.919 2.25801 226.919 2.12801Z" fill="white"/>
<path d="M265.608 18.7941C263.97 17.7541 262.852 17.1041 261.136 16.4281C260.85 14.5041 260.798 13.3601 260.798 12.8141C260.798 12.0601 260.954 11.4101 261.786 10.7341L259.082 9.27805C258.562 9.90206 257.964 10.6821 257.964 11.9301C257.964 12.4761 258.276 15.1281 258.328 15.7261C257.808 15.6481 257.158 15.5701 256.3 15.5701C252.712 15.5701 251.698 17.8581 251.698 19.2621C251.698 20.3541 252.244 21.1081 252.66 21.4721C253.752 22.4341 255.234 22.6941 256.898 22.6941C260.304 22.6941 261.084 21.6021 261.318 19.5221C262.332 20.0681 263.008 20.5101 263.892 21.2381L265.608 18.7941ZM258.458 18.3261C258.458 19.2621 258.484 20.3541 256.378 20.3541C254.948 20.3541 254.22 19.7561 254.22 19.1841C254.22 18.6641 254.844 17.9361 256.196 17.9361C257.08 17.9361 257.99 18.1961 258.458 18.3261ZM266.336 7.92604C264.412 6.47003 262.462 5.87203 260.538 5.53403L259.368 7.77004C261.942 8.42005 263.346 9.09605 265.062 10.1361L266.336 7.92604ZM258.588 6.57403V3.66202C257.912 3.89602 257.132 4.15602 255.598 4.54602C255.702 4.20802 256.196 2.54401 256.222 2.51801C256.378 2.36201 256.82 2.20601 256.82 1.94601C256.82 1.66001 256.326 1.53 256.196 1.504L253.362 0.879999C253.18 2.46601 252.868 3.61002 252.426 5.17003C250.814 5.37803 249.722 5.48203 248.006 5.50803L248.396 8.21204C249.618 8.13404 250.346 8.05604 251.542 7.90004C250.476 10.8381 249.176 14.1921 247.096 17.3641L249.878 18.5601C251.23 16.0901 252.582 13.4901 254.688 7.40604C256.898 7.01604 257.704 6.80803 258.588 6.57403Z" fill="white"/>
<path d="M286.486 3.68802C284.484 2.49201 282.014 1.556 280.272 1.01L279.154 3.58402C282.248 4.67602 283.496 5.35203 285.16 6.41803L286.486 3.68802ZM291.27 15.2841C291.27 11.5141 288.228 9.59005 285.498 9.59005C284.172 9.59005 281.442 10.0841 279.102 12.2161C279.44 10.2661 279.986 8.34205 280.662 6.49603L277.672 5.32603C277.1 7.30204 275.852 11.7221 275.644 15.2581L277.906 16.4541C280.584 13.3341 283.21 12.2941 285.004 12.2941C286.954 12.2941 288.28 13.3601 288.28 15.0241C288.28 17.4161 286.07 19.9381 281.234 19.9381C280.038 19.9381 278.816 19.7561 277.984 19.6521L279.362 22.8501C282.586 22.7721 291.27 22.6161 291.27 15.2841Z" fill="white"/>
<path d="M46.5078 58.3623L39.2278 39.3822H35.2498L27.9697 58.3623H31.8438L33.2478 54.2803H41.2298L42.6338 58.3623H46.5078ZM40.2158 51.3423H34.2878L36.8098 44.0363L37.2518 42.3723L37.6678 44.0363L40.2158 51.3423Z" fill="white"/>
<path d="M52.7424 58.3623V39.3822H49.2324V58.3623H52.7424Z" fill="white"/>
<path d="M72.263 58.3623C71.743 57.9983 71.041 57.5043 71.041 55.6063V53.6823C71.041 50.1203 69.247 49.5743 67.401 49.3143C69.013 48.9503 69.637 48.6123 70.365 47.7803C71.119 46.9223 71.535 45.7783 71.535 44.5303C71.535 41.5662 69.221 39.3822 65.685 39.3822H56.7409V58.3623H60.251V50.9263H65.113C67.141 50.9263 67.557 52.6943 67.557 54.0463V56.3343C67.557 57.7123 67.791 57.9983 68.181 58.3623H72.263ZM67.791 44.9983C67.791 46.9483 66.595 47.9623 64.645 47.9623H60.251V42.3462H65.217C66.777 42.3462 67.791 43.2823 67.791 44.9983Z" fill="white"/>
<path d="M101.034 48.5603C101.034 43.4903 98.1742 39.3822 92.9482 39.3822H84.4721V58.3623H92.9482C98.2262 58.3623 101.034 53.7863 101.034 48.5603ZM97.2382 48.4303C97.2382 50.8223 96.4322 55.3983 92.8442 55.3983H87.9562V42.3462H92.8442C94.8722 42.3462 97.2382 44.0103 97.2382 48.4303Z" fill="white"/>
<path d="M116.395 52.3823C116.317 50.4063 116.187 48.5083 114.991 46.6883C113.951 45.1023 112.157 44.0363 109.843 44.0363C106.385 44.0363 103.291 46.4023 103.291 51.3943C103.291 56.1783 106.151 58.7003 109.947 58.7003C114.497 58.7003 115.693 55.3983 116.135 54.2283H112.677C112.105 55.7623 110.753 55.9183 110.129 55.9183C107.373 55.9183 106.853 53.0843 106.723 52.3823H116.395ZM112.677 50.1463H106.723C106.879 49.2623 107.321 46.8443 109.869 46.8443C111.585 46.8443 112.599 47.9623 112.677 50.1463Z" fill="white"/>
<path d="M129.802 54.3583C129.802 53.1363 129.23 52.0703 128.242 51.3683C127.436 50.8223 127.306 50.7443 123.822 49.4183C122.73 49.0023 122.08 48.7683 122.08 48.0663C122.08 47.5463 122.626 46.7663 124.004 46.7663C125.486 46.7663 125.928 47.6503 126.006 48.6643H129.438C129.282 47.0783 129.022 46.3503 128.164 45.4923C126.916 44.2703 125.252 44.0363 124.082 44.0363C120.884 44.0363 118.648 45.9343 118.648 48.2743C118.648 50.8223 120.572 51.4983 123.432 52.5383C125.642 53.3183 126.344 53.6303 126.344 54.5923C126.344 55.9703 124.628 55.9703 124.342 55.9703C122.21 55.9703 121.924 54.4623 121.82 53.7863H118.388C118.544 55.5543 118.856 56.2563 119.662 57.0623C121.118 58.5184 123.198 58.7003 124.186 58.7003C127.228 58.7003 129.802 57.0883 129.802 54.3583Z" fill="white"/>
<path d="M136.198 42.7623V39.3822H132.766V42.7623H136.198ZM136.198 58.3623V44.3743H132.766V58.3623H136.198Z" fill="white"/>
<path d="M152.521 46.5583V44.0363C151.117 44.0363 150.701 44.2443 149.661 45.4143C149.141 44.9463 148.049 44.0363 145.527 44.0363C142.329 44.0363 139.599 45.5703 139.599 48.5343C139.599 50.6403 140.873 51.4983 141.523 51.9143C140.743 52.4083 139.469 53.2143 139.469 54.5403C139.469 55.8143 140.639 56.2303 141.315 56.4643C140.717 56.5683 139.053 56.8543 139.053 58.8564C139.053 61.1444 141.731 61.8464 145.007 61.8464C149.375 61.8464 152.105 60.5204 152.105 58.0244C152.105 57.1143 151.767 56.3083 151.221 55.7623C150.181 54.7223 148.621 54.5663 145.033 54.3063C144.097 54.2283 142.953 54.0983 142.953 53.4483C142.953 53.0843 143.213 52.9023 143.863 52.7203C144.227 52.7723 144.591 52.8243 145.345 52.8243C149.375 52.8243 151.013 50.6403 151.013 48.4043C151.013 47.9103 150.935 47.6243 150.857 47.3643C151.585 46.5583 151.897 46.5583 152.521 46.5583ZM147.919 48.4563C147.919 50.1723 145.839 50.2763 145.241 50.2763C144.617 50.2763 142.693 50.2243 142.693 48.5863C142.693 47.5463 143.551 46.6363 145.397 46.6363C146.723 46.6363 147.919 47.1303 147.919 48.4563ZM148.387 58.2064C148.387 58.7784 148.179 59.2984 145.605 59.2984C142.719 59.2984 142.693 58.6224 142.693 58.1803C142.693 57.4523 143.135 57.2443 144.071 56.9063C144.409 56.9323 145.995 56.9583 146.307 56.9843C147.269 57.0883 148.387 57.3483 148.387 58.2064Z" fill="white"/>
<path d="M166.682 58.3623V48.9763C166.682 45.8043 164.966 44.0363 162.002 44.0363C159.272 44.0363 158.232 45.7783 157.686 46.7403L157.816 45.5443V44.3743H154.384V58.3623H157.816V50.1983C157.816 47.6243 159.48 46.9223 160.884 46.9223C162.6 46.9223 163.25 47.9623 163.25 49.5223V58.3623H166.682Z" fill="white"/>
<path d="M189.814 42.8143V39.7982C188.826 40.1362 186.694 40.8642 183.652 40.8642C182.248 40.8642 181.078 40.6822 180.324 40.5782V43.4383C181.702 43.5683 182.898 43.5683 183.106 43.5683C185.992 43.5683 188.618 43.0483 189.814 42.8143ZM191.062 56.4643V53.2403C190.126 53.5003 188.098 54.0463 185.134 54.0463C182.508 54.0463 182.248 53.3443 182.222 50.8743L179.388 51.2643C179.466 55.6583 180.454 56.9323 185.186 56.9323C187.942 56.9323 189.684 56.6723 191.062 56.4643ZM177.464 51.8363L175.93 51.0043C175.358 52.0183 175.202 52.2783 174.89 52.8243C174.526 51.7063 174.526 49.7043 174.526 49.2623C174.526 45.3363 175.644 40.6302 176.034 40.3962C176.086 40.3702 176.424 40.2402 176.476 40.2142C176.58 40.1362 176.606 40.0322 176.606 39.9802C176.606 39.7722 176.112 39.5902 175.93 39.5122L173.278 38.5502C172.914 40.0842 172.549 41.6702 172.185 44.4783C172.003 46.0123 171.795 47.9363 171.795 49.6003C171.795 51.6023 172.082 54.0203 172.862 56.4383C173.174 57.4003 173.408 57.8163 173.824 58.4923L175.878 57.6863C176.138 56.0223 176.528 53.9683 177.464 51.8363Z" fill="white"/>
<path d="M198.81 55.6063C199.174 55.2163 199.226 55.1903 199.59 54.8523C201.956 57.3483 202.606 58.0504 203.724 59.2464L206.48 58.1543C206.506 54.9823 206.506 54.5143 206.532 50.3803C207.442 50.0423 208.95 49.4703 210.484 49.4703C212.85 49.4703 214.098 51.1863 214.098 52.9283C214.098 54.7483 213.032 55.6843 212.096 55.6843C211.29 55.6843 211.082 55.0083 210.77 53.9423L208.352 54.9043C208.716 56.8023 209.08 58.5964 211.94 58.5964C214.722 58.5964 216.802 56.0743 216.802 52.8763C216.802 49.6263 214.566 46.9483 210.536 46.9483C208.69 46.9483 207.286 47.3383 206.532 47.5463L206.558 44.9723C207.754 44.7383 208.976 44.4783 210.614 43.8543V40.8902C209.158 41.5662 208.274 41.8783 206.61 42.2423C206.636 41.7482 206.714 39.2002 206.818 39.0442C206.87 38.9662 207.26 38.6542 207.26 38.5502C207.26 38.4202 207.26 38.2382 206.532 38.1342L203.646 37.7442C203.672 39.4342 203.672 39.6682 203.698 42.6063C202.944 42.6583 202.554 42.6843 201.904 42.6843C200.708 42.6843 200.084 42.6323 199.356 42.5543L199.746 45.4923C201.202 45.5443 202.138 45.5183 203.698 45.3623L203.724 48.7163C201.982 49.6523 201.488 49.9383 197.224 52.6943L198.81 55.6063ZM203.724 55.8143C203.256 55.3983 202.19 54.4103 201.358 53.3703C202.45 52.5643 202.996 52.2263 203.724 51.7843V55.8143ZM218.778 44.8163C217.504 43.8283 215.788 42.6583 213.656 41.8782L211.966 44.1663C214.566 45.1283 215.918 46.1163 217.088 47.1303L218.778 44.8163Z" fill="white"/>
<path d="M245.454 49.4963V46.6623H239.344V41.2542C240.8 40.9682 242.126 40.6302 242.334 40.5782C242.594 40.5262 243.66 40.1622 243.894 40.1622C244.05 40.1622 244.622 40.3442 244.752 40.3442C245.064 40.3442 245.09 40.0582 245.09 40.0582C245.09 39.8242 244.882 39.5902 244.778 39.4862L242.802 37.4062C238.252 38.9402 234.222 39.3822 230.582 39.4862L231.752 42.1123C233.832 41.9822 235.028 41.8523 236.354 41.7222V46.6623H230.062V49.4963H236.354V55.9443H230.66V58.7524H244.7V55.9443H239.344V49.4963H245.454ZM230.894 38.4982C230.894 38.2122 230.452 38.0822 230.322 38.0302L227.566 37.1462C226.656 40.6562 224.732 44.4523 222.106 47.1563L224.706 48.6383C225.096 48.2483 225.408 47.9103 225.798 47.4423V59.4804H228.658V43.8283C228.658 43.7503 228.892 43.4383 228.918 43.3863C229.022 43.2563 229.074 43.1263 229.074 43.0223C229.074 42.7103 228.788 42.5543 228.658 42.4503C229.256 41.4102 229.594 40.6042 230.166 39.2522C230.27 38.9922 230.348 38.9662 230.66 38.8102C230.816 38.7322 230.894 38.6282 230.894 38.4982Z" fill="white"/>
<path d="M271.116 45.8823L271.09 43.0223C268.698 43.4123 267.866 43.5163 266.41 43.7243L266.54 39.8502C266.566 39.7462 266.566 39.6682 266.774 39.5382C267.008 39.3822 267.06 39.3302 267.06 39.2002C267.06 39.0442 267.06 38.8882 266.202 38.7842L263.55 38.4722C263.836 40.9422 263.81 42.8403 263.784 44.0623C260.794 44.4783 259.832 44.5823 258.272 44.7643C258.272 41.7742 258.298 41.6182 258.324 41.2022C258.324 41.1502 258.35 40.9942 258.584 40.8122C258.974 40.5522 259.026 40.5262 259.026 40.3962C259.026 40.0582 258.688 40.0322 258.142 39.9542L255.204 39.5642C255.334 41.3842 255.36 44.0623 255.36 45.1283C253.41 45.3363 252.63 45.4143 250.576 45.5963L250.68 48.4563C253.02 48.0923 253.28 48.0663 255.36 47.7543L255.386 51.3163C255.412 56.1523 256.114 57.9723 261.964 57.9723C265.448 57.9723 267.788 57.7123 268.932 57.5823L269.166 54.4623C267.97 54.8003 265.968 55.3723 262.484 55.3723C258.636 55.3723 258.168 54.6183 258.168 51.6543C258.168 51.4983 258.168 49.9383 258.22 47.3383C260.56 47.0263 261.002 46.9483 263.758 46.6103C263.758 49.4443 263.68 49.9123 262.094 49.9123C261.314 49.9123 260.95 49.8083 260.56 49.7303L261.21 52.4603C261.47 52.5123 262.042 52.5643 262.718 52.5643C264.668 52.5643 265.5 51.9923 265.89 50.9003C266.15 50.1723 266.202 49.3923 266.332 46.3243C268.776 46.0383 269.972 45.9343 271.116 45.8823Z" fill="white"/>
<path d="M285.624 54.8523V58.3623H289.108V54.8523H285.624ZM285.624 39.3822V44.6603L286.508 53.2403H288.224L289.108 44.6603V39.3822H285.624Z" fill="white"/>
<path d="M12.144 103.863L7.664 92.1826H5.21599L0.735962 103.863H3.11998L3.98398 101.351H8.89601L9.76002 103.863H12.144ZM8.27201 99.5427H4.62399L6.176 95.0466L6.448 94.0226L6.704 95.0466L8.27201 99.5427Z" fill="white"/>
<path d="M15.6607 103.863V92.1826H13.5007V103.863H15.6607Z" fill="white"/>
<path d="M27.3534 103.863C27.0334 103.639 26.6014 103.335 26.6014 102.167V100.983C26.6014 98.7907 25.4974 98.4547 24.3614 98.2947C25.3534 98.0707 25.7374 97.8627 26.1854 97.3507C26.6494 96.8227 26.9054 96.1186 26.9054 95.3506C26.9054 93.5266 25.4814 92.1826 23.3053 92.1826H17.8013V103.863H19.9613V99.2867H22.9533C24.2014 99.2867 24.4574 100.375 24.4574 101.207V102.615C24.4574 103.463 24.6014 103.639 24.8414 103.863H27.3534ZM24.6014 95.6386C24.6014 96.8387 23.8654 97.4627 22.6653 97.4627H19.9613V94.0066H23.0173C23.9774 94.0066 24.6014 94.5826 24.6014 95.6386Z" fill="white"/>
<path d="M45.182 97.8307C45.182 94.7106 43.4219 92.1826 40.2059 92.1826H34.9899V103.863H40.2059C43.4539 103.863 45.182 101.047 45.182 97.8307ZM42.8459 97.7507C42.8459 99.2227 42.3499 102.039 40.1419 102.039H37.1339V94.0066H40.1419C41.3899 94.0066 42.8459 95.0306 42.8459 97.7507Z" fill="white"/>
<path d="M54.3146 100.183C54.2666 98.9667 54.1866 97.7987 53.4506 96.6787C52.8106 95.7026 51.7066 95.0466 50.2826 95.0466C48.1546 95.0466 46.2506 96.5027 46.2506 99.5747C46.2506 102.519 48.0106 104.071 50.3466 104.071C53.1466 104.071 53.8826 102.039 54.1546 101.319H52.0266C51.6746 102.263 50.8426 102.359 50.4586 102.359C48.7626 102.359 48.4426 100.615 48.3626 100.183H54.3146ZM52.0266 98.8067H48.3626C48.4586 98.2627 48.7306 96.7747 50.2986 96.7747C51.3546 96.7747 51.9786 97.4627 52.0266 98.8067Z" fill="white"/>
<path d="M62.2453 101.399C62.2453 100.647 61.8933 99.9907 61.2853 99.5587C60.7893 99.2227 60.7093 99.1747 58.5653 98.3587C57.8933 98.1027 57.4933 97.9587 57.4933 97.5267C57.4933 97.2067 57.8293 96.7267 58.6773 96.7267C59.5893 96.7267 59.8613 97.2707 59.9093 97.8947H62.0213C61.9253 96.9187 61.7653 96.4707 61.2373 95.9426C60.4693 95.1906 59.4453 95.0466 58.7253 95.0466C56.7573 95.0466 55.3813 96.2146 55.3813 97.6547C55.3813 99.2227 56.5653 99.6387 58.3253 100.279C59.6853 100.759 60.1173 100.951 60.1173 101.543C60.1173 102.391 59.0613 102.391 58.8853 102.391C57.5733 102.391 57.3973 101.463 57.3333 101.047H55.2213C55.3173 102.135 55.5093 102.567 56.0053 103.063C56.9013 103.959 58.1813 104.071 58.7893 104.071C60.6613 104.071 62.2453 103.079 62.2453 101.399Z" fill="white"/>
<path d="M65.8613 94.2626V92.1826H63.7493V94.2626H65.8613ZM65.8613 103.863V95.2546H63.7493V103.863H65.8613Z" fill="white"/>
<path d="M75.586 96.5987V95.0466C74.722 95.0466 74.466 95.1746 73.826 95.8946C73.506 95.6066 72.834 95.0466 71.282 95.0466C69.314 95.0466 67.634 95.9906 67.634 97.8147C67.634 99.1107 68.418 99.6387 68.818 99.8947C68.338 100.199 67.554 100.695 67.554 101.511C67.554 102.295 68.274 102.551 68.69 102.695C68.322 102.759 67.298 102.935 67.298 104.167C67.298 105.575 68.946 106.007 70.962 106.007C73.65 106.007 75.33 105.191 75.33 103.655C75.33 103.095 75.122 102.599 74.786 102.263C74.146 101.623 73.186 101.527 70.978 101.367C70.402 101.319 69.698 101.239 69.698 100.839C69.698 100.615 69.858 100.503 70.258 100.391C70.482 100.423 70.706 100.455 71.17 100.455C73.65 100.455 74.658 99.1107 74.658 97.7347C74.658 97.4307 74.61 97.2547 74.562 97.0947C75.01 96.5987 75.202 96.5987 75.586 96.5987ZM72.754 97.7667C72.754 98.8227 71.474 98.8867 71.106 98.8867C70.722 98.8867 69.538 98.8547 69.538 97.8467C69.538 97.2067 70.066 96.6467 71.202 96.6467C72.018 96.6467 72.754 96.9507 72.754 97.7667ZM73.042 103.767C73.042 104.119 72.914 104.439 71.33 104.439C69.554 104.439 69.538 104.023 69.538 103.751C69.538 103.303 69.81 103.175 70.386 102.967C70.594 102.983 71.57 102.999 71.762 103.015C72.354 103.079 73.042 103.239 73.042 103.767Z" fill="white"/>
<path d="M83.9807 103.863V98.0867C83.9807 96.1346 82.9247 95.0466 81.1007 95.0466C79.4207 95.0466 78.7807 96.1186 78.4447 96.7107L78.5247 95.9746V95.2546H76.4126V103.863H78.5247V98.8387C78.5247 97.2547 79.5487 96.8227 80.4127 96.8227C81.4687 96.8227 81.8687 97.4627 81.8687 98.4227V103.863H83.9807Z" fill="white"/>
<path d="M99.0474 96.1506C98.7114 95.7666 98.3914 95.4306 97.7194 94.9346L97.0474 95.7026C97.5754 96.0866 97.9594 96.4387 98.3754 96.9187L99.0474 96.1506ZM97.7514 97.6067C97.3514 97.1107 96.9514 96.7747 96.4234 96.3746L95.7674 97.1427C96.3914 97.6227 96.7274 97.9427 97.0794 98.3747L97.7514 97.6067ZM98.2794 93.4306V91.5746C95.2554 92.5026 90.2954 92.8866 86.8393 92.8546L87.1113 94.6466C88.7113 94.4226 91.0634 94.2306 93.2074 94.0546C92.6474 94.5666 91.8474 95.3186 91.0954 96.4867C90.4073 97.5267 90.0073 98.5987 90.0073 99.6707C90.0073 100.759 90.4234 101.799 91.1914 102.551C92.4874 103.847 94.2794 104.183 95.1274 104.327L95.7514 102.375C95.0954 102.343 93.9754 102.295 92.9354 101.559C92.4874 101.239 91.7834 100.583 91.7834 99.4787C91.7834 98.2627 92.5514 96.8227 93.7354 95.6386C95.7674 93.5906 97.5274 93.4786 98.2794 93.4306Z" fill="white"/>
<path d="M116.131 101.543C114.691 100.567 114.003 100.295 113.379 100.039C113.203 98.2467 113.171 97.4787 113.155 95.7506C113.667 95.6546 114.499 95.5266 115.155 95.3026V93.5746C114.547 93.9426 113.619 94.1346 113.171 94.2306C113.251 93.3506 113.299 92.6466 113.395 92.2466C113.555 92.1506 113.699 92.0706 113.699 91.9906C113.699 91.8946 113.651 91.8146 113.315 91.7666L111.523 91.4786C111.491 93.0626 111.491 93.2386 111.459 94.4386C111.011 94.4866 110.579 94.5346 109.971 94.5346C109.219 94.5346 108.819 94.4866 108.531 94.4386L108.547 96.0866C109.539 96.1346 110.403 96.0706 111.443 95.9586C111.475 97.0467 111.523 97.7187 111.651 99.6227C111.331 99.5907 110.995 99.5587 110.675 99.5587C109.123 99.5587 107.859 100.183 107.859 101.623C107.859 103.927 110.547 103.927 111.011 103.927C113.187 103.927 113.507 103.095 113.539 101.863C114.211 102.263 114.643 102.583 115.219 103.127L116.131 101.543ZM106.995 100.135L105.987 99.4467L105.331 100.407C105.251 99.7507 105.251 98.9027 105.251 98.7267C105.251 97.4947 105.699 94.4866 105.843 93.7666C105.891 93.5746 106.083 92.7586 106.195 92.6786C106.243 92.6626 106.451 92.5826 106.499 92.5506C106.547 92.5186 106.563 92.4706 106.563 92.4386C106.563 92.2786 106.227 92.1346 106.179 92.1186L104.627 91.5106C104.003 93.9586 103.651 96.4707 103.651 98.9987C103.651 100.679 103.779 102.359 104.259 103.959L105.731 103.719C105.907 102.439 106.643 100.887 106.995 100.135ZM111.747 101.143C111.779 101.975 111.811 102.343 110.755 102.343C109.811 102.343 109.347 102.007 109.347 101.639C109.347 101.271 109.859 100.999 110.611 100.999C111.091 100.999 111.507 101.095 111.747 101.143Z" fill="white"/>
<path d="M126.702 103.863V102.183H121.294C121.79 101.207 122.19 100.759 123.758 99.6707C125.278 98.6147 126.606 97.5587 126.606 95.6866C126.606 93.6386 125.054 91.9746 122.654 91.9746C119.038 91.9746 118.91 95.2546 118.878 96.2946H120.91C120.926 95.4306 120.974 93.7506 122.59 93.7506C123.646 93.7506 124.414 94.5826 124.414 95.6866C124.414 96.7107 123.902 97.3507 122.19 98.5987C119.55 100.535 118.83 101.783 118.542 103.863H126.702Z" fill="white"/>
<path d="M135.577 98.0227C135.577 96.5187 135.385 94.9666 134.585 93.6866C133.961 92.6946 132.985 91.9746 131.513 91.9746C127.785 91.9746 127.449 96.3107 127.449 98.2307C127.449 99.7347 127.801 104.087 131.513 104.087C135.337 104.087 135.577 99.4947 135.577 98.0227ZM133.369 98.0227C133.369 101.463 132.681 102.359 131.513 102.359C130.473 102.359 129.625 101.719 129.641 98.0227C129.641 94.4866 130.409 93.7026 131.481 93.7026C132.537 93.7026 133.369 94.3266 133.369 98.0227Z" fill="white"/>
<path d="M141.747 103.863V92.1826H140.019C139.667 93.7026 138.323 94.2146 137.475 94.2146H136.547V95.7346H139.715V103.863H141.747Z" fill="white"/>
<path d="M153.294 97.4947C153.294 95.0786 152.414 91.9746 149.182 91.9746C146.638 91.9746 145.294 94.2466 145.294 96.1506C145.294 98.3107 146.862 99.9427 148.83 99.9427C149.454 99.9427 150.59 99.7347 151.214 98.6787C151.022 100.247 150.766 102.311 149.038 102.311C148.158 102.311 147.63 101.655 147.582 100.919H145.47C145.662 101.991 145.87 102.503 146.51 103.111C147.182 103.735 148.046 104.087 148.99 104.087C153.166 104.087 153.294 98.7107 153.294 97.4947ZM151.118 95.9586C151.118 97.0467 150.462 98.1667 149.182 98.1667C148.142 98.1667 147.47 97.2227 147.47 95.9906C147.47 94.6146 148.286 93.8786 149.278 93.8786C150.366 93.8786 151.118 94.7426 151.118 95.9586Z" fill="white"/>
<path d="M168.585 101.527V99.8307H163.689V97.6707H166.473V96.0226H163.689V94.1026H167.817V92.4866H158.953C158.985 92.4226 159.273 91.8786 159.305 91.8786C159.337 91.8306 159.593 91.7666 159.641 91.7506C159.689 91.7186 159.721 91.6546 159.721 91.6066C159.721 91.5586 159.689 91.4946 159.609 91.4626L157.641 90.7266C157.065 92.3426 156.025 94.0866 154.537 95.5906L156.265 96.5027C156.649 96.0866 157.145 95.5586 158.057 94.1026H161.737V96.0226H157.225V99.8307H154.921V101.527H161.737V104.679H163.753V101.527H168.585ZM161.737 99.8307H159.161V97.6707H161.737V99.8307Z" fill="white"/>
<path d="M185.012 97.9427C185.012 97.3667 184.612 95.4786 182.516 93.2386L181.188 94.1986C182.068 95.2066 182.964 96.8067 182.964 97.3027C182.964 97.6867 182.596 97.7187 181.908 97.7827L182.996 99.4307C184.02 99.2387 185.012 98.8547 185.012 97.9427ZM181.22 97.2387C181.22 96.2626 181.044 94.4866 178.868 94.4866C178.436 94.4866 177.956 94.5506 177.604 94.6146C177.716 94.0066 177.828 93.4466 177.908 92.8706C177.924 92.7106 177.956 92.6946 178.244 92.5186C178.42 92.4066 178.452 92.3586 178.452 92.2946C178.452 92.1506 178.132 92.0546 178.004 92.0386L176.052 91.7666C176.036 93.0946 175.892 93.9426 175.7 94.9666C174.996 95.0786 173.524 95.3506 172.356 95.4466L172.996 97.3827C173.828 97.0787 174.484 96.8867 175.268 96.6947C174.324 99.7347 173.508 101.159 172.1 102.951L173.924 103.767C175.556 101.111 176.404 99.2387 177.236 96.3107C177.54 96.2626 177.86 96.2306 178.148 96.2306C179.3 96.2306 179.476 96.7427 179.476 97.5907C179.476 99.2067 178.804 101.143 178.5 101.575C178.276 101.895 178.02 101.975 177.54 101.975C176.916 101.975 176.452 101.831 176.1 101.719L176.324 103.655C176.772 103.719 177.268 103.751 177.7 103.751C178.388 103.751 179.412 103.687 180.1 102.519C180.948 101.047 181.22 98.5667 181.22 97.2387Z" fill="white"/>
<path d="M197.279 92.6786C196.047 91.9426 194.527 91.3666 193.455 91.0306L192.767 92.6146C194.671 93.2866 195.439 93.7026 196.463 94.3586L197.279 92.6786ZM200.223 99.8147C200.223 97.4947 198.351 96.3107 196.671 96.3107C195.855 96.3107 194.175 96.6147 192.735 97.9267C192.943 96.7267 193.279 95.5426 193.695 94.4066L191.855 93.6866C191.503 94.9026 190.735 97.6227 190.607 99.7987L191.999 100.535C193.647 98.6147 195.263 97.9747 196.367 97.9747C197.567 97.9747 198.383 98.6307 198.383 99.6547C198.383 101.127 197.023 102.679 194.047 102.679C193.311 102.679 192.559 102.567 192.047 102.503L192.895 104.471C194.879 104.423 200.223 104.327 200.223 99.8147Z" fill="white"/>
<path d="M218.715 99.7827C218.283 96.0866 216.859 94.0706 216.091 92.9826L214.443 93.7826C215.275 95.0626 216.331 96.9507 216.795 100.279L218.715 99.7827ZM211.659 99.5427L210.331 98.3587C210.027 99.1267 209.371 100.823 208.795 100.823C208.475 100.823 207.707 100.247 207.707 97.1267C207.707 95.3666 207.835 94.4386 208.011 93.5586C208.283 93.4626 208.475 93.3986 208.475 93.2226C208.475 93.0306 208.219 92.9506 208.107 92.9186L206.347 92.4386C206.091 93.5106 205.867 94.5506 205.867 96.5987C205.867 99.6387 206.379 101.511 207.499 102.599C207.771 102.855 208.171 103.127 208.683 103.127C209.979 103.127 210.779 101.431 211.659 99.5427Z" fill="white"/>
<path d="M234.102 100.215C234.102 98.2627 232.518 96.9827 230.55 96.9827C229.894 96.9827 228.774 97.1587 227.158 98.2147C227.478 97.1587 227.814 95.8946 227.942 95.3986C229.942 95.1106 230.982 94.8546 232.39 94.3266V92.5826C231.174 93.1746 230.23 93.4786 228.342 93.8306C228.422 93.4946 228.806 91.9266 228.886 91.6226C229.078 91.5106 229.286 91.5106 229.286 91.3346C229.286 91.2226 229.062 91.1586 228.95 91.1266L227.126 90.7106C227.014 91.9586 226.726 93.2866 226.55 94.0386C226.294 94.0546 226.022 94.0706 225.718 94.0706C225.622 94.0706 224.582 94.0706 223.478 93.8146L223.702 95.5106C224.342 95.5746 225.062 95.5746 225.206 95.5746C225.51 95.5746 225.862 95.5746 226.198 95.5426C225.942 96.5827 225.494 98.3587 224.95 99.7507L226.294 100.807C227.51 99.6707 228.822 98.4867 230.294 98.4867C231.398 98.4867 232.374 99.2227 232.374 100.311C232.374 101.639 230.918 102.935 227.75 102.935C227.558 102.935 226.646 102.935 225.67 102.807L226.198 104.631C228.038 104.599 230.454 104.519 231.862 103.799C233.27 103.079 234.102 101.751 234.102 100.215Z" fill="white"/>
<path d="M252.481 101.239V99.5267H246.577V98.1507H251.025V91.1426H240.113V98.1507H244.529V99.5267H238.625V101.239H244.529V104.695H246.577V101.239H252.481ZM249.089 93.8146H242.049V92.7426H249.089V93.8146ZM249.089 96.5187H242.049V95.3506H249.089V96.5187Z" fill="white"/>
<path d="M265.789 92.1986C265.789 92.0386 265.485 91.7986 265.453 91.7666L263.981 90.6306C262.445 92.5186 261.133 93.7826 258.861 95.8466C258.333 96.3426 257.757 96.9347 257.757 97.6387C257.757 97.9267 257.869 98.4707 258.557 99.0467C260.621 100.823 262.189 102.231 264.077 105.047L265.725 103.511C263.933 101.255 262.381 99.8627 260.317 98.1667C260.141 98.0227 260.045 97.8467 260.045 97.6067C260.045 97.3027 260.125 97.2227 261.181 96.2306C262.829 94.6946 264.381 93.2066 264.717 92.8546C265.133 92.4386 265.181 92.3906 265.373 92.3746C265.741 92.3266 265.789 92.3266 265.789 92.1986Z" fill="white"/>
<path d="M283.752 91.6706C283.752 91.4786 283.432 91.4626 283.352 91.4626L281.304 91.3506C281.384 92.6306 281.416 94.8546 281.416 95.2386C281.416 100.071 280.04 101.591 276.76 102.887L278.152 104.439C279.816 103.591 281.896 102.407 282.84 99.5747C283.352 98.0227 283.384 96.7587 283.384 93.6386C283.384 93.4786 283.352 92.7586 283.368 92.6146C283.368 92.1666 283.368 92.1186 283.576 91.9106C283.736 91.7826 283.752 91.7186 283.752 91.6706ZM277.096 91.7986C277.096 91.6546 276.808 91.6386 276.68 91.6226L274.776 91.4626V99.0147H276.68V92.2626C276.68 92.2146 276.696 92.1986 276.936 92.0226C277 91.9586 277.096 91.8786 277.096 91.7986Z" fill="white"/>
<path d="M301.747 98.1347V96.4547H296.259V93.5586H300.691V91.8786H291.475V93.5586H294.419V96.4547H289.955V98.1347H294.419V101.367C294.419 103.655 296.227 103.735 297.747 103.735C298.659 103.735 300.675 103.703 301.091 103.687V101.783C300.451 101.863 299.571 101.959 298.339 101.959C296.851 101.959 296.259 101.735 296.259 100.887V98.1347H301.747Z" fill="white"/>
<path d="M318.255 98.7907V96.7587H306.879V98.7907H318.255Z" fill="white"/>
<path d="M331.306 98.8227C330.666 98.2627 330.074 97.7347 328.81 96.9027C327.434 96.0066 326.906 95.7986 326.09 95.4466L325.338 96.6307V92.4226C325.338 92.3426 325.754 92.0866 325.754 91.9906C325.754 91.7986 325.418 91.7506 325.37 91.7346L323.45 91.3986V104.071H325.338V97.1587C327.258 97.9587 328.858 99.2547 330.042 100.359L331.306 98.8227Z" fill="white"/>
<path d="M14.112 118.787L13.056 117.683H2.75197V123.091H4.76799V119.571H11.776C11.744 120.403 11.68 122.179 10.416 124.275C8.81601 126.915 6.656 127.987 5.58399 128.515L7.568 129.859C8.72001 129.091 10.864 127.683 12.384 124.931C13.712 122.515 13.968 120.131 14.112 118.787Z" fill="white"/>
<path d="M30.0661 124.291V122.259H18.6901V124.291H30.0661Z" fill="white"/>
<path d="M45.9882 119.891L44.6922 118.371C44.4362 118.531 44.1802 118.675 43.9882 118.675H40.4042C40.5642 118.371 40.7562 118.051 40.8522 117.811C41.0762 117.747 41.2522 117.715 41.2522 117.587C41.2522 117.427 40.9322 117.283 40.8362 117.251L39.1882 116.627C38.5482 118.547 37.0602 120.931 34.7722 122.771L36.3562 123.859C37.9722 122.307 38.8522 121.075 39.3962 120.291H43.4922C43.2362 121.155 42.7562 122.643 41.3802 124.499C39.4762 127.059 37.3642 128.147 36.3722 128.675L38.1162 129.875C39.1402 129.235 40.8362 128.163 42.4522 126.083C44.0202 124.067 44.7242 122.211 45.3002 120.659C45.4282 120.323 45.6682 120.115 45.9882 119.891Z" fill="white"/>
<path d="M62.1023 123.139L61.5583 121.315C60.8063 121.651 60.5983 121.747 58.7263 122.627C58.3583 121.571 57.6543 121.011 56.5503 121.011C55.8623 121.011 55.3823 121.251 55.1743 121.347C55.4463 120.931 55.5743 120.707 56.0863 119.763C57.1583 119.635 58.4703 119.491 59.9103 119.155L60.0223 117.363C59.0783 117.731 58.3583 117.939 56.8863 118.179C56.9663 118.003 57.3663 117.107 57.3823 117.091C57.3983 117.091 57.7183 116.947 57.7503 116.931C57.8463 116.899 57.9103 116.851 57.9103 116.755C57.9103 116.643 57.6383 116.611 57.5903 116.595L55.5903 116.243C55.3983 116.947 55.1903 117.507 54.7903 118.371C53.3983 118.419 52.6943 118.387 51.7343 118.307L51.9263 119.971C52.5983 119.971 53.0943 119.955 54.0063 119.907C52.9183 121.811 52.1183 122.947 50.8543 124.307L52.4223 125.283C53.3023 123.843 54.2623 122.387 55.8303 122.387C56.7583 122.387 56.9503 122.963 57.0463 123.443C54.6463 124.675 53.1743 125.427 53.1743 127.411C53.1743 127.635 53.1743 128.339 53.7823 128.979C54.7903 130.051 56.6463 130.051 57.5423 130.051C58.0543 130.051 59.8303 130.051 61.3503 129.811V128.003C60.0063 128.307 58.6463 128.515 57.2703 128.515C56.1023 128.515 54.8703 128.307 54.8703 127.267C54.8703 126.147 56.5343 125.315 57.1423 125.011C57.1263 125.715 57.1103 126.499 57.0623 127.411H58.9183C58.9183 126.867 58.8863 124.883 58.8863 124.259C60.0703 123.811 60.8383 123.539 62.1023 123.139Z" fill="white"/>
<path d="M79.4004 118.691V117.587H76.7924C76.9844 117.331 77.1444 117.059 77.2244 116.931C77.4484 116.867 77.6564 116.819 77.6564 116.691C77.6564 116.627 77.6564 116.531 77.1124 116.451L75.8484 116.259C75.6884 116.851 75.4964 117.251 75.2724 117.587H73.3364C73.0484 117.027 72.7604 116.659 72.4244 116.259L70.9524 116.611C71.1604 116.835 71.3044 117.043 71.5604 117.587H69.2724V118.691H73.0164L72.7444 119.219H70.1844V123.459H78.6484V119.219H74.5204L74.8564 118.691H79.4004ZM76.9524 121.539H71.8804V121.139H76.9524V121.539ZM76.9524 120.451H71.8804V120.051H76.9524V120.451ZM76.9524 122.627H71.8804V122.211H76.9524V122.627ZM68.9044 117.843C68.0564 117.043 67.6404 116.691 67.0804 116.259L66.0084 117.459C66.7284 118.019 67.2244 118.483 67.7524 119.027L68.9044 117.843ZM79.7044 123.923C78.3604 124.035 76.1524 124.211 72.8884 124.211C71.9284 124.211 70.3124 124.147 69.5444 123.667C69.0964 123.379 69.0644 122.915 69.0644 122.643V120.003H65.8324V121.443H67.4004V123.171C66.4084 123.619 66.0563 123.795 65.5603 123.971L65.9924 125.091C66.0724 125.283 66.1524 125.507 66.2804 125.507C66.4724 125.507 66.5204 125.283 66.5524 125.107C67.1444 124.723 67.2724 124.627 68.4724 123.827C69.0804 124.627 69.6084 125.331 72.3604 125.331H75.0644V125.827H65.6724V127.267H69.7684L68.8084 128.179C69.5284 128.723 69.9444 129.155 70.5204 129.875L71.8644 128.643C71.6084 128.387 71.1124 127.827 70.4244 127.267H75.0644V128.243C75.0644 128.579 74.9844 128.691 74.5844 128.691C74.2004 128.691 74.0084 128.675 73.1764 128.563L73.8804 130.275C74.6324 130.259 76.8084 130.243 76.8084 129.107V127.267H79.4324V125.827H76.8084V125.331H79.0324L79.7044 123.923Z" fill="white"/>
<path d="M95.8985 128.643C95.0345 128.163 93.1785 127.091 91.7225 124.387C90.5385 122.179 90.2505 120.003 90.2505 118.307C90.2505 117.795 90.2665 117.187 90.3145 116.691H85.1785V118.595H88.4105C88.4265 119.235 88.4425 119.539 88.4905 120.019L87.0825 119.667C86.9545 120.739 86.6985 122.835 85.2425 125.155C83.8505 127.347 82.2185 128.419 81.3544 128.979L83.0665 130.195C85.8345 128.275 87.5465 125.539 88.7625 121.779C88.9865 122.723 89.3865 124.435 90.6665 126.451C91.9785 128.499 93.3545 129.555 94.0745 130.115L95.8985 128.643Z" fill="white"/>
<path d="M110.429 125.459L108.861 124.163C107.293 127.235 105.149 127.795 104.253 127.795C103.229 127.795 102.877 127.171 102.845 127.123C102.541 126.579 102.541 125.027 102.541 124.291C102.541 122.531 102.861 118.307 102.989 117.891C103.245 117.683 103.437 117.555 103.437 117.427C103.437 117.331 103.293 117.219 102.909 117.171L100.781 116.867C100.829 117.939 100.701 122.691 100.701 123.667C100.701 127.507 100.957 128.323 101.709 128.979C102.221 129.427 103.037 129.795 104.045 129.795C104.717 129.795 105.885 129.651 107.229 128.771C108.813 127.747 109.773 126.371 110.429 125.459Z" fill="white"/>
<path d="M126.431 118.883V116.963C123.311 117.875 118.527 118.419 114.767 118.451L115.087 120.339C116.991 119.987 119.151 119.811 121.183 119.651C120.431 120.355 118.079 122.563 118.079 125.299C118.079 128.867 122.079 129.699 123.375 129.971L123.935 127.955C123.263 127.939 122.159 127.907 121.151 127.187C120.159 126.483 119.967 125.491 119.967 124.947C119.967 123.347 121.295 121.571 122.703 120.435C124.447 119.027 125.743 118.947 126.431 118.883Z" fill="white"/>
<path d="M143.457 125.283C143.025 121.587 141.601 119.571 140.833 118.483L139.185 119.283C140.017 120.563 141.073 122.451 141.537 125.779L143.457 125.283ZM136.401 125.043L135.073 123.859C134.769 124.627 134.113 126.323 133.537 126.323C133.217 126.323 132.449 125.747 132.449 122.627C132.449 120.867 132.577 119.939 132.753 119.059C133.025 118.963 133.217 118.899 133.217 118.723C133.217 118.531 132.961 118.451 132.849 118.419L131.089 117.939C130.833 119.011 130.609 120.051 130.609 122.099C130.609 125.139 131.121 127.011 132.241 128.099C132.513 128.355 132.913 128.627 133.425 128.627C134.721 128.627 135.521 126.931 136.401 125.043Z" fill="white"/>
<path d="M157.875 127.491C156.211 126.435 155.155 126.051 153.827 125.683C153.779 124.739 153.779 124.579 153.747 123.779C155.635 123.635 156.483 123.491 157.171 123.379V121.635C155.699 121.907 155.107 122.003 153.715 122.179V120.291C154.515 120.275 156.003 120.243 157.779 120.243L157.843 118.547C156.339 118.659 155.795 118.691 153.747 118.787C153.763 117.955 153.779 117.651 153.779 117.635C153.811 117.491 153.923 117.395 153.987 117.347C154.163 117.203 154.195 117.187 154.195 117.123C154.195 117.011 154.099 116.963 153.795 116.931L151.843 116.739L151.891 118.867C150.467 118.899 149.603 118.931 147.779 118.931L147.811 120.659C149.187 120.499 150.099 120.435 151.939 120.355L151.971 122.355C151.603 122.387 151.395 122.387 150.867 122.387C150.595 122.387 150.259 122.387 150.259 122.163C150.259 121.955 150.499 121.779 150.787 121.571L149.875 120.787C149.251 121.235 148.163 121.987 148.163 122.771C148.163 123.395 148.899 123.923 150.371 123.923C150.835 123.923 151.715 123.891 152.003 123.875L152.035 125.411L151.587 125.395C147.987 125.267 147.827 127.123 147.827 127.587C147.827 128.883 149.203 129.667 151.411 129.667C153.459 129.667 153.843 129.027 153.907 127.395C155.091 127.859 155.795 128.243 156.835 128.979L157.875 127.491ZM152.051 126.931C152.067 127.827 152.003 128.115 150.963 128.115C150.771 128.115 149.747 128.115 149.747 127.571C149.747 127.155 150.259 126.883 151.299 126.883C151.667 126.883 151.875 126.899 152.051 126.931Z" fill="white"/>
<path d="M174.885 120.099V118.371C173.253 118.499 172.757 118.547 170.533 118.675V117.027C170.533 116.963 170.549 116.931 170.661 116.835C170.773 116.739 170.805 116.691 170.805 116.595C170.805 116.435 170.709 116.387 170.341 116.371L168.565 116.259C168.661 117.427 168.661 118.275 168.677 118.771C165.317 118.931 163.941 118.931 162.853 118.931V120.787C164.885 120.531 167.301 120.387 168.725 120.307L168.757 121.507C168.533 121.427 168.309 121.379 168.005 121.379C166.373 121.379 165.493 122.595 165.493 124.355C165.493 125.139 165.669 126.003 166.325 126.579C166.725 126.931 167.221 127.075 167.637 127.075C167.909 127.075 168.149 127.011 168.501 126.915C168.149 128.083 167.173 128.915 166.213 129.539L168.005 130.467C168.581 129.875 169.445 128.979 170.181 127.491C170.901 126.051 170.997 124.867 170.997 124.403C170.997 123.395 170.709 122.835 170.533 122.451V120.211C172.613 120.131 173.669 120.099 174.885 120.099ZM169.061 124.147C169.061 125.283 168.293 125.635 167.957 125.635C167.589 125.635 167.077 125.267 167.077 124.307C167.077 123.459 167.525 122.899 168.165 122.899C168.373 122.899 168.597 122.963 168.757 123.123C169.013 123.395 169.061 123.811 169.061 124.147Z" fill="white"/>
<path d="M180.391 125.347C179.031 125.347 177.911 126.435 177.911 127.811C177.911 129.171 179.031 130.291 180.391 130.291C181.751 130.275 182.855 129.171 182.855 127.811C182.855 126.435 181.735 125.347 180.391 125.347ZM180.391 126.115C181.319 126.115 182.087 126.867 182.087 127.811C182.087 128.755 181.335 129.507 180.391 129.507C179.447 129.523 178.679 128.755 178.679 127.811C178.679 126.867 179.463 126.115 180.391 126.115Z" fill="white"/>
<path d="M205.641 117.171C205.641 116.979 205.321 116.963 205.241 116.963L203.193 116.851C203.273 118.131 203.305 120.355 203.305 120.739C203.305 125.571 201.929 127.091 198.649 128.387L200.041 129.939C201.705 129.091 203.785 127.907 204.729 125.075C205.241 123.523 205.273 122.259 205.273 119.139C205.273 118.979 205.241 118.259 205.257 118.115C205.257 117.667 205.257 117.619 205.465 117.411C205.625 117.283 205.641 117.219 205.641 117.171ZM198.985 117.299C198.985 117.155 198.697 117.139 198.569 117.123L196.665 116.963V124.515H198.569V117.763C198.569 117.715 198.585 117.699 198.825 117.523C198.889 117.459 198.985 117.379 198.985 117.299Z" fill="white"/>
<path d="M222.923 123.635V121.955H217.435V119.059H221.867V117.379H212.651V119.059H215.595V121.955H211.131V123.635H215.595V126.867C215.595 129.155 217.403 129.235 218.923 129.235C219.835 129.235 221.851 129.203 222.267 129.187V127.283C221.627 127.363 220.747 127.459 219.515 127.459C218.027 127.459 217.435 127.235 217.435 126.387V123.635H222.923Z" fill="white"/>
<path d="M238.717 124.291V122.259H227.341V124.291H238.717Z" fill="white"/>
<path d="M251.055 124.323C250.415 123.763 249.823 123.235 248.559 122.403C247.183 121.507 246.655 121.299 245.839 120.947L245.087 122.131V117.923C245.087 117.843 245.503 117.587 245.503 117.491C245.503 117.299 245.167 117.251 245.119 117.235L243.199 116.899V129.571H245.087V122.659C247.007 123.459 248.607 124.755 249.791 125.859L251.055 124.323Z" fill="white"/>
<path d="M267.57 121.651C267.234 121.267 266.914 120.931 266.242 120.435L265.57 121.203C266.098 121.587 266.482 121.939 266.898 122.419L267.57 121.651ZM266.274 123.107C265.874 122.611 265.474 122.275 264.946 121.875L264.29 122.643C264.914 123.123 265.25 123.443 265.602 123.875L266.274 123.107ZM266.802 118.931V117.075C263.778 118.003 258.818 118.387 255.362 118.355L255.634 120.147C257.234 119.923 259.586 119.731 261.73 119.555C261.17 120.067 260.37 120.819 259.618 121.987C258.93 123.027 258.53 124.099 258.53 125.171C258.53 126.259 258.946 127.299 259.714 128.051C261.01 129.347 262.802 129.683 263.65 129.827L264.274 127.875C263.618 127.843 262.498 127.795 261.458 127.059C261.01 126.739 260.306 126.083 260.306 124.979C260.306 123.763 261.074 122.323 262.258 121.139C264.29 119.091 266.05 118.979 266.802 118.931Z" fill="white"/>
<path d="M283.732 123.251C283.732 119.683 281.108 117.427 277.78 117.427C273.652 117.427 270.724 120.659 270.724 124.211C270.724 127.075 273.348 128.515 273.924 128.515C274.756 128.515 275.492 127.171 275.972 126.179C276.5 125.107 277.444 122.867 277.956 119.059C278.548 119.107 279.668 119.171 280.676 120.131C281.572 120.979 281.828 122.051 281.828 122.931C281.828 123.635 281.652 124.963 280.676 126.115C279.7 127.283 278.516 127.619 277.796 127.827L278.98 129.475C279.844 129.123 281.508 128.435 282.708 126.659C283.3 125.779 283.732 124.659 283.732 123.251ZM276.052 119.347C275.732 121.843 274.356 126.019 273.524 126.019C273.236 126.019 272.5 125.347 272.5 124.051C272.5 123.075 272.964 121.587 274.1 120.499C274.868 119.747 275.588 119.507 276.052 119.347Z" fill="white"/>
<path d="M300.006 116.707C300.006 116.563 299.75 116.515 299.654 116.515L298.038 116.387V128.067C298.038 128.563 297.638 128.563 297.462 128.563C297.366 128.563 296.854 128.547 296.198 128.515L297.094 130.227C298.918 130.179 299.702 130.115 299.702 128.515V117.171C299.702 117.091 299.734 117.059 299.846 116.947C299.942 116.851 300.006 116.771 300.006 116.707ZM297.142 118.403C297.142 118.227 296.79 118.211 296.678 118.211L295.254 118.163V126.995H296.854V118.755C297.03 118.595 297.142 118.515 297.142 118.403ZM294.742 122.291V120.739H291.462V119.635H294.182V118.083H291.462V116.947C291.606 116.819 291.75 116.723 291.75 116.595C291.75 116.467 291.478 116.419 291.382 116.419L289.782 116.355V118.083H288.838L288.982 117.699C289.158 117.635 289.334 117.635 289.334 117.475C289.334 117.331 289.094 117.283 289.046 117.267L287.542 116.963C287.078 118.467 286.502 119.427 286.15 119.955L287.83 120.435C288.054 120.003 288.118 119.859 288.214 119.635H289.782V120.739H286.406V122.291H289.782V123.283H286.982V129.379H288.662V124.819H289.782V130.179H291.462V124.819H292.598V127.283C292.598 127.747 292.262 127.731 291.574 127.731L292.294 129.235C293.446 129.043 294.294 128.915 294.294 127.907V123.283H291.462V122.291H294.742Z" fill="white"/>
<path d="M316.152 120.387V118.675H310.168C310.232 118.515 310.6 117.555 310.632 117.523C310.664 117.491 310.888 117.395 310.936 117.363C311.016 117.315 311.032 117.251 311.032 117.203C311.032 117.139 310.968 117.075 310.888 117.043L308.968 116.467C308.216 119.043 307.512 120.355 305.896 122.035L307.592 122.931C308.2 122.211 308.712 121.539 309.336 120.387H309.88V130.051H311.736V127.011H315.896V125.235H311.736V123.635H315.384V122.003H311.736V120.387H316.152ZM307.32 117.219C307.32 117.171 307.272 117.091 307.16 117.059L305.064 116.563C304.232 119.235 303.512 120.531 301.8 122.387L303.4 123.379C303.592 123.171 303.752 122.995 303.928 122.771V130.067H305.752V120.579C305.752 120.451 305.928 120.323 305.992 120.291C306.056 120.227 306.168 120.163 306.168 120.035C306.168 119.971 306.12 119.891 306.088 119.875L305.864 119.763C306.376 118.803 306.536 118.435 306.808 117.795C306.904 117.571 306.936 117.555 307.192 117.411C307.256 117.363 307.32 117.299 307.32 117.219Z" fill="white"/>
<path d="M330.618 119.795V117.939C330.01 118.147 328.698 118.595 326.826 118.595C325.962 118.595 325.242 118.483 324.778 118.419V120.179C325.626 120.259 326.362 120.259 326.49 120.259C328.266 120.259 329.882 119.939 330.618 119.795ZM331.386 128.195V126.211C330.81 126.371 329.562 126.707 327.738 126.707C326.122 126.707 325.962 126.275 325.946 124.755L324.202 124.995C324.25 127.699 324.858 128.483 327.77 128.483C329.466 128.483 330.538 128.323 331.386 128.195ZM323.018 125.347L322.074 124.835C321.722 125.459 321.626 125.619 321.434 125.955C321.21 125.267 321.21 124.035 321.21 123.763C321.21 121.347 321.898 118.451 322.138 118.307C322.17 118.291 322.378 118.211 322.41 118.195C322.474 118.147 322.49 118.083 322.49 118.051C322.49 117.923 322.186 117.811 322.074 117.763L320.442 117.171C320.218 118.115 319.994 119.091 319.77 120.819C319.658 121.763 319.53 122.947 319.53 123.971C319.53 125.203 319.706 126.691 320.186 128.179C320.378 128.771 320.522 129.027 320.778 129.443L322.042 128.947C322.202 127.923 322.442 126.659 323.018 125.347Z" fill="white"/>
<path d="M15.2801 144.943V143.823H14.72L14.864 142.095H7.2L7.056 143.823H6.352V144.943H6.96L6.864 146.127C6.656 145.743 6.288 145.135 5.66399 144.415L4.87999 144.975V142.751C4.87999 142.655 4.95999 142.607 5.18399 142.447C5.26399 142.399 5.35999 142.319 5.35999 142.191C5.35999 142.031 5.21599 141.999 4.73599 141.967L3.02398 141.855V144.639C2.94398 144.607 2.89598 144.591 2.84797 144.591L1.43997 144.383C1.42397 146.607 1.16796 147.631 0.975963 148.335L2.46397 148.527C2.71997 147.407 2.78397 146.255 2.83197 145.103C2.92798 145.071 2.95998 145.055 3.02398 145.023V155.615H4.87999V146.015C5.31199 146.607 5.55199 146.975 5.93599 147.663L7.04 146.783H14.48L14.624 144.943H15.2801ZM13.232 143.199L13.168 143.823H11.52L11.568 143.199H13.232ZM13.088 144.943L13.024 145.647H11.376L11.44 144.943H13.088ZM10.096 143.199L10.048 143.823H8.57601L8.62401 143.199H10.096ZM9.95202 144.943L9.90402 145.647H8.43201L8.48001 144.943H9.95202ZM15.152 154.351C13.712 154.095 13.024 153.599 12.736 153.391H14.64V147.279H6.928V153.391H7.98401C7.648 153.647 7.04 154.127 5.56799 154.495L6.928 155.823C8.17601 155.295 8.96001 154.767 9.63202 154.223L10.032 154.143C10.112 154.127 10.256 154.095 10.256 153.967C10.256 153.807 10.016 153.615 9.71202 153.391H11.44L10.848 154.063C11.904 154.975 12.944 155.471 14.192 155.759L15.152 154.351ZM12.928 150.543H8.59201V149.999H12.928V150.543ZM12.928 148.975H8.59201V148.447H12.928V148.975ZM12.928 152.191H8.59201V151.599H12.928V152.191Z" fill="white"/>
<path d="M30.7841 153.087L30.2881 151.295C29.6321 152.223 29.0241 152.511 28.5761 152.511C28.1441 152.511 27.9841 152.335 27.9841 151.455C27.9841 151.135 28.0001 150.607 28.1441 149.199C28.3521 147.055 28.3681 146.879 28.3681 146.591C28.3681 145.327 27.4081 144.671 26.6081 144.671C25.5361 144.671 24.0161 146.095 23.3921 146.671L23.7441 145.967L22.7201 144.991C22.7681 143.775 22.8001 143.007 22.8801 142.879C22.9281 142.831 23.1681 142.623 23.1681 142.575C23.1681 142.431 23.0241 142.415 22.7681 142.383L21.1841 142.207L21.1201 145.647C20.5441 145.871 19.5521 146.223 18.2401 146.415L19.0241 148.143C19.8241 147.887 20.2561 147.727 21.1041 147.423L21.0721 148.831C19.9521 150.511 19.1201 151.519 18.0321 152.511L19.6961 153.631C20.2561 152.751 20.5281 152.367 21.0241 151.679L20.9761 155.375L22.7681 155.279C22.6721 153.407 22.6721 151.743 22.6561 149.519C23.7761 148.143 25.0081 146.607 25.9201 146.607C26.4641 146.607 26.5441 147.263 26.5441 147.679C26.5441 148.351 26.2561 151.327 26.2561 151.935C26.2561 152.335 26.2561 154.559 28.1121 154.559C29.1681 154.559 30.0481 153.871 30.7841 153.087Z" fill="white"/>
<path d="M46.0802 144.383V142.463C42.9602 143.375 38.1762 143.919 34.4162 143.951L34.7362 145.839C36.6402 145.487 38.8002 145.311 40.8322 145.151C40.0802 145.855 37.7282 148.063 37.7282 150.799C37.7282 154.367 41.7282 155.199 43.0242 155.471L43.5842 153.455C42.9122 153.439 41.8082 153.407 40.8002 152.687C39.8082 151.983 39.6162 150.991 39.6162 150.447C39.6162 148.847 40.9442 147.071 42.3522 145.935C44.0962 144.527 45.3922 144.447 46.0802 144.383Z" fill="white"/>
<path d="M63.0563 150.783C62.6243 147.087 61.2003 145.071 60.4323 143.983L58.7843 144.783C59.6163 146.063 60.6723 147.951 61.1363 151.279L63.0563 150.783ZM56.0003 150.543L54.6723 149.359C54.3683 150.127 53.7123 151.823 53.1363 151.823C52.8163 151.823 52.0483 151.247 52.0483 148.127C52.0483 146.367 52.1763 145.439 52.3523 144.559C52.6243 144.463 52.8163 144.399 52.8163 144.223C52.8163 144.031 52.5603 143.951 52.4483 143.919L50.6883 143.439C50.4323 144.511 50.2083 145.551 50.2083 147.599C50.2083 150.639 50.7203 152.511 51.8403 153.599C52.1123 153.855 52.5123 154.127 53.0243 154.127C54.3203 154.127 55.1203 152.431 56.0003 150.543Z" fill="white"/>
<path d="M77.5524 150.639C77.5524 148.879 76.1764 147.103 74.0004 147.103C73.7604 147.103 72.9764 147.119 72.4484 147.199C74.7684 144.831 75.0404 144.575 76.0004 143.775L75.1684 142.479C73.6484 143.071 70.9284 143.279 70.3204 143.279C69.8244 143.279 68.9124 143.215 68.5284 143.183L68.8964 144.975C70.8004 144.959 71.6804 144.799 72.6404 144.575C70.0804 147.679 68.3844 149.103 66.7204 150.351L68.0644 151.759C68.9604 150.847 70.3684 149.423 71.3604 148.895C71.7444 148.687 72.4964 148.495 73.1844 148.495C74.2244 148.495 75.7764 149.007 75.7764 150.591C75.7764 151.727 75.0724 152.399 74.7204 152.719C74.2724 152.159 73.2324 150.847 71.5684 150.847C70.0004 150.847 69.2164 152.063 69.2164 152.975C69.2164 154.159 70.2404 155.167 72.2404 155.167C75.0564 155.167 77.5524 153.295 77.5524 150.639ZM73.2324 153.503C73.0084 153.551 72.6564 153.647 72.1444 153.647C71.5684 153.647 70.8324 153.487 70.8324 152.927C70.8324 152.719 70.9764 152.255 71.6324 152.255C72.5444 152.255 73.0244 153.135 73.2324 153.503Z" fill="white"/>
<path d="M94.8805 148.943C94.8805 148.367 94.4805 146.479 92.3845 144.239L91.0565 145.199C91.9365 146.207 92.8325 147.807 92.8325 148.303C92.8325 148.687 92.4645 148.719 91.7765 148.783L92.8645 150.431C93.8885 150.239 94.8805 149.855 94.8805 148.943ZM91.0885 148.239C91.0885 147.263 90.9125 145.487 88.7365 145.487C88.3045 145.487 87.8245 145.551 87.4725 145.615C87.5845 145.007 87.6965 144.447 87.7765 143.871C87.7925 143.711 87.8245 143.695 88.1125 143.519C88.2885 143.407 88.3205 143.359 88.3205 143.295C88.3205 143.151 88.0005 143.055 87.8725 143.039L85.9205 142.767C85.9045 144.095 85.7605 144.943 85.5685 145.967C84.8645 146.079 83.3925 146.351 82.2245 146.447L82.8645 148.383C83.6965 148.079 84.3525 147.887 85.1365 147.695C84.1925 150.735 83.3765 152.159 81.9685 153.951L83.7925 154.767C85.4245 152.111 86.2725 150.239 87.1045 147.311C87.4085 147.263 87.7285 147.231 88.0165 147.231C89.1685 147.231 89.3445 147.743 89.3445 148.591C89.3445 150.207 88.6725 152.143 88.3685 152.575C88.1445 152.895 87.8885 152.975 87.4085 152.975C86.7845 152.975 86.3205 152.831 85.9685 152.719L86.1925 154.655C86.6405 154.719 87.1365 154.751 87.5685 154.751C88.2565 154.751 89.2805 154.687 89.9685 153.519C90.8165 152.047 91.0885 149.567 91.0885 148.239Z" fill="white"/>
<path d="M106.385 143.679C105.153 142.943 103.633 142.367 102.561 142.031L101.873 143.615C103.777 144.287 104.545 144.703 105.569 145.359L106.385 143.679ZM109.329 150.815C109.329 148.495 107.457 147.311 105.777 147.311C104.961 147.311 103.281 147.615 101.841 148.927C102.049 147.727 102.385 146.543 102.801 145.407L100.961 144.687C100.609 145.903 99.8406 148.623 99.7126 150.799L101.105 151.535C102.753 149.615 104.369 148.975 105.473 148.975C106.673 148.975 107.489 149.631 107.489 150.655C107.489 152.127 106.129 153.679 103.153 153.679C102.417 153.679 101.665 153.567 101.153 153.503L102.001 155.471C103.985 155.423 109.329 155.327 109.329 150.815Z" fill="white"/>
<path d="M126.449 152.943C125.137 151.519 123.761 150.159 122.209 148.991C123.217 147.423 123.521 146.687 124.065 145.407C124.257 144.943 124.609 144.671 124.929 144.447L123.697 143.087C123.409 143.279 123.169 143.439 122.865 143.439H115.969V145.295H122.065C121.697 146.207 121.073 147.823 119.345 149.663C117.313 151.823 115.281 152.671 114.241 153.119L115.649 154.575C118.657 153.103 119.841 151.887 121.121 150.463C122.433 151.519 123.569 152.671 125.025 154.463L126.449 152.943Z" fill="white"/>
<path d="M141.761 153.503C140.913 151.503 139.889 149.727 138.321 147.871L136.625 148.719C137.521 149.679 138.065 150.543 138.465 151.199C136.705 151.503 135.025 151.727 132.753 151.983C133.457 150.255 134.801 146.783 135.649 144.303C135.793 143.871 135.825 143.823 135.985 143.743C136.257 143.583 136.289 143.567 136.289 143.487C136.289 143.327 135.985 143.215 135.841 143.183L133.953 142.719C133.249 145.503 132.049 149.007 130.801 152.175C129.873 152.255 129.409 152.287 129.025 152.303L129.409 154.159C129.473 154.447 129.521 154.591 129.649 154.591C129.713 154.591 129.745 154.559 129.777 154.527C129.793 154.511 129.985 154.319 130.017 154.303C130.129 154.223 137.745 152.959 139.281 152.703C139.601 153.439 139.761 153.807 139.953 154.495L141.761 153.503Z" fill="white"/>
<path d="M156.097 149.791V147.759H144.721V149.791H156.097Z" fill="white"/>
<path d="M172.833 142.175C172.465 141.615 172.081 141.215 171.617 140.831L170.849 141.471C171.473 142.015 171.841 142.511 172.065 142.815L172.833 142.175ZM171.825 144.063C171.473 143.503 171.105 143.055 170.641 142.575L169.857 143.199C170.321 143.663 170.657 144.095 171.041 144.687L171.825 144.063ZM171.185 152.895C169.873 151.455 168.497 150.095 166.929 148.943C167.953 147.311 168.305 146.495 168.769 145.391C169.009 144.831 169.297 144.607 169.649 144.383L168.321 142.991C168.161 143.151 167.873 143.439 167.569 143.439H160.673V145.295H166.753C164.625 150.431 161.025 152.239 158.929 153.103L160.353 154.575C163.521 153.007 164.705 151.743 165.857 150.447C167.185 151.551 168.321 152.623 169.729 154.447L171.185 152.895Z" fill="white"/>
<path d="M186.657 152.975C185.649 152.335 184.961 151.935 183.905 151.519C183.729 150.335 183.697 149.631 183.697 149.295C183.697 148.831 183.793 148.431 184.305 148.015L182.641 147.119C182.321 147.503 181.953 147.983 181.953 148.751C181.953 149.087 182.145 150.719 182.177 151.087C181.857 151.039 181.457 150.991 180.929 150.991C178.721 150.991 178.097 152.399 178.097 153.263C178.097 153.935 178.433 154.399 178.689 154.623C179.361 155.215 180.273 155.375 181.297 155.375C183.393 155.375 183.873 154.703 184.017 153.423C184.641 153.759 185.057 154.031 185.601 154.479L186.657 152.975ZM182.257 152.687C182.257 153.263 182.273 153.935 180.977 153.935C180.097 153.935 179.649 153.567 179.649 153.215C179.649 152.895 180.033 152.447 180.865 152.447C181.409 152.447 181.969 152.607 182.257 152.687ZM187.105 146.287C185.921 145.391 184.721 145.023 183.537 144.815L182.817 146.191C184.401 146.591 185.265 147.007 186.321 147.647L187.105 146.287ZM182.337 145.455V143.663C181.921 143.807 181.441 143.967 180.497 144.207C180.561 143.999 180.865 142.975 180.881 142.959C180.977 142.863 181.249 142.767 181.249 142.607C181.249 142.431 180.945 142.351 180.865 142.335L179.121 141.951C179.009 142.927 178.817 143.631 178.545 144.591C177.553 144.719 176.881 144.783 175.825 144.799L176.065 146.463C176.817 146.415 177.265 146.367 178.001 146.271C177.345 148.079 176.545 150.143 175.265 152.095L176.977 152.831C177.809 151.311 178.641 149.711 179.937 145.967C181.297 145.727 181.793 145.599 182.337 145.455Z" fill="white"/>
<path d="M204.561 142.959C204.113 142.399 203.665 141.999 203.201 141.647L202.513 142.367C203.169 142.895 203.489 143.279 203.825 143.727L204.561 142.959ZM203.665 144.783C203.169 144.095 202.801 143.743 202.337 143.359L201.649 144.079C202.209 144.527 202.561 144.927 202.977 145.503L203.665 144.783ZM201.201 144.607L200.481 143.311C199.265 143.487 198.049 143.567 196.833 143.567C195.489 143.567 194.129 143.471 192.801 143.279L193.281 145.039C194.033 145.087 194.497 145.103 195.457 145.103C196.673 145.103 197.233 145.071 197.921 145.023C197.313 145.583 196.673 146.159 196.305 146.479L197.409 147.631C198.721 146.511 199.953 145.471 201.201 144.607ZM201.953 154.111L201.841 152.191C200.721 152.415 199.313 152.703 196.897 152.703C194.177 152.703 194.065 152.255 194.065 151.807C194.065 151.231 194.705 150.671 194.961 150.463L193.569 149.327C193.089 149.759 192.017 150.719 192.017 152.159C192.017 153.775 193.553 154.447 197.169 154.447C199.121 154.447 200.721 154.255 201.953 154.111Z" fill="white"/>
<path d="M220.017 147.759V146.127H218.641V142.703C218.641 142.607 218.673 142.575 218.897 142.383C218.993 142.303 219.041 142.239 219.041 142.143C219.041 141.951 218.801 141.903 218.673 141.903L216.881 141.807V146.127H213.297V147.759H216.881V153.359C216.881 153.919 216.753 154.031 215.105 153.935L215.969 155.663C218.129 155.631 218.641 155.439 218.641 153.743V147.759H220.017ZM215.905 151.231C215.601 150.159 215.121 149.359 214.529 148.607L212.977 149.471C213.665 150.415 214.001 151.199 214.257 152.015L215.905 151.231ZM214.001 145.775V144.143H211.089V142.575C211.265 142.399 211.409 142.367 211.409 142.207C211.409 142.079 211.281 142.031 211.201 142.031L209.185 141.903V144.143H206.305V145.775H210.897C210.529 147.615 210.465 147.903 210.065 148.943C209.121 147.679 208.625 147.199 208.033 146.687L206.609 147.727C207.697 148.687 208.321 149.455 209.185 150.703C208.097 152.591 206.849 153.647 205.681 154.607L207.345 155.695C208.929 154.351 209.665 153.295 210.241 152.415C210.673 153.231 210.961 153.839 211.345 154.767L213.025 153.743C212.289 152.287 211.745 151.407 211.249 150.607C211.681 149.647 212.225 148.415 212.721 145.775H214.001Z" fill="white"/>
<path d="M233.265 148.031C232.465 146.975 231.233 145.903 230.449 145.279L229.089 146.623C229.793 147.135 230.881 148.015 231.729 149.247L233.265 148.031ZM236.417 153.967C235.681 151.551 234.785 149.919 234.337 149.119L232.577 150.047C233.105 150.975 233.889 152.511 234.513 154.687L236.417 153.967ZM236.033 145.263V143.631H230.145V142.591C230.145 142.511 230.225 142.479 230.353 142.399C230.529 142.303 230.545 142.223 230.545 142.175C230.545 142.047 230.497 141.983 230.049 141.951L228.017 141.823V143.631H222.705C222.945 145.951 222.961 148.431 222.961 148.687C222.961 152.271 222.337 153.839 221.617 155.279L223.473 155.855C224.161 154.351 224.753 152.607 224.753 147.503C224.753 147.007 224.753 146.191 224.657 145.263H236.033ZM233.233 152.751L231.473 152.079C231.473 152.223 231.473 153.247 231.457 153.295C231.425 153.551 231.281 153.871 230.865 153.871H230.193C229.793 153.871 229.697 153.663 229.697 153.103V148.511C229.697 148.399 229.761 148.351 229.793 148.319C229.985 148.159 230.033 148.127 230.033 148.031C230.033 147.871 229.777 147.823 229.457 147.807L227.649 147.727V154.287C227.649 154.959 227.953 155.711 228.833 155.711H231.633C232.977 155.711 233.121 154.335 233.233 152.751ZM227.473 149.759C227.473 149.599 227.233 149.551 227.089 149.519L225.473 149.183C225.457 149.983 225.185 152.319 224.481 153.855L226.241 154.527C226.785 153.215 226.881 152.479 227.233 150.159C227.249 150.079 227.281 150.047 227.409 149.887C227.441 149.855 227.473 149.823 227.473 149.759Z" fill="white"/>
<path d="M253.138 143.791C252.738 143.247 252.321 142.799 251.889 142.447L251.057 143.055C251.489 143.455 251.873 143.903 252.193 144.431L253.138 143.791ZM251.393 144.687C251.041 144.223 250.609 143.727 250.161 143.327L249.297 143.967C249.793 144.399 250.161 144.799 250.561 145.375L251.393 144.687ZM251.137 149.007C251.137 147.311 248.961 144.735 248.225 143.855L246.929 144.751C248.625 146.719 249.233 148.031 249.233 148.431C249.233 148.815 248.897 148.895 248.321 148.975L249.169 150.495C249.761 150.415 251.137 150.223 251.137 149.007ZM247.505 149.023C247.505 147.599 247.313 145.695 245.153 145.695C244.689 145.695 244.241 145.759 243.985 145.807C244.113 145.087 244.145 144.799 244.225 144.159C244.257 143.951 244.257 143.951 244.449 143.823C244.609 143.727 244.625 143.711 244.625 143.647C244.625 143.519 244.449 143.439 244.241 143.407L242.321 143.135C242.337 144.479 242.289 145.151 242.161 146.175C240.849 146.463 240.305 146.575 239.089 146.767L239.681 148.687C240.481 148.303 240.993 148.095 241.857 147.823C241.217 150.335 240.465 151.919 238.961 154.063L240.625 154.815C242.081 152.607 242.849 150.687 243.665 147.407C243.857 147.375 244.177 147.327 244.529 147.327C245.521 147.327 245.825 147.711 245.825 148.943C245.825 149.711 245.697 151.727 244.977 152.623C244.689 152.975 244.369 153.071 243.873 153.071C243.409 153.071 243.073 153.007 242.785 152.943L243.169 154.671C243.457 154.703 243.889 154.735 244.369 154.735C245.329 154.735 245.857 154.447 246.193 154.111C246.945 153.391 247.505 151.327 247.505 149.023Z" fill="white"/>
<path d="M267.858 144.015V142.335H254.482V144.015H264.29V153.263C264.29 153.759 264.146 153.999 263.602 153.999C263.298 153.999 262.85 153.935 262.37 153.871L263.09 155.711H264.594C265.698 155.711 266.194 154.975 266.194 153.951V144.015H267.858ZM262.05 152.143V146.031H256.098V153.391H257.89V152.143H262.05ZM260.194 150.479H257.89V147.695H260.194V150.479Z" fill="white"/>
<path d="M276.402 154.351V146.847H270.866V155.535H272.562V152.511H274.722V153.583C274.722 153.871 274.578 154.031 274.386 154.047C274.226 154.079 273.506 154.047 273.346 154.047L273.938 155.535H275.074C275.858 155.535 276.402 155.119 276.402 154.351ZM274.722 149.119H272.562V148.207H274.722V149.119ZM274.722 151.295H272.562V150.351H274.722V151.295ZM284.13 145.855L282.546 145.103C282.242 146.559 282.05 146.575 281.778 146.575H279.714C279.442 146.575 279.25 146.479 279.25 146.175V145.679C281.154 144.847 282.226 144.207 282.29 144.159C282.642 143.951 282.69 143.935 282.818 143.935C282.866 143.935 283.09 143.951 283.138 143.951C283.202 143.951 283.266 143.951 283.266 143.855C283.266 143.743 283.106 143.567 283.058 143.519L281.938 142.383C281.026 143.263 279.906 143.775 279.25 144.015V142.767C279.25 142.703 279.282 142.655 279.394 142.591C279.458 142.559 279.538 142.495 279.538 142.415C279.538 142.287 279.442 142.239 279.186 142.207L277.474 142.031V146.927C277.474 147.823 278.098 148.095 279.346 148.095H282.386C283.106 148.095 283.442 147.631 283.618 147.279C283.858 146.831 284.018 146.351 284.13 145.855ZM284.13 152.959L282.674 152.239C282.578 152.719 282.53 152.927 282.354 153.231C282.194 153.535 282.13 153.615 281.778 153.615H279.714C279.442 153.615 279.25 153.519 279.25 153.215V152.559C280.562 151.935 282.194 150.815 282.898 150.271C282.962 150.239 283.01 150.207 283.202 150.207C283.41 150.207 283.474 150.207 283.474 150.079C283.474 149.967 283.346 149.839 283.25 149.759L282.018 148.767C281.234 149.551 280.034 150.415 279.25 150.831V149.343C279.25 149.295 279.282 149.247 279.394 149.167C279.458 149.135 279.538 149.071 279.538 149.007C279.538 148.847 279.362 148.799 279.186 148.783L277.57 148.607V154.031C277.57 154.943 278.13 155.199 279.346 155.199H282.386C283.154 155.199 283.746 154.671 284.13 152.959ZM277.202 145.839C276.802 144.767 276.098 143.647 275.634 143.007L274.306 143.615C274.498 143.983 274.562 144.079 274.642 144.223C274.306 144.287 274.114 144.319 273.138 144.415C273.41 143.935 273.778 143.183 273.986 142.687C274.002 142.655 274.034 142.623 274.194 142.591C274.258 142.575 274.402 142.543 274.402 142.447C274.402 142.335 274.242 142.287 274.018 142.239L272.322 141.855C272.082 142.815 271.714 143.967 271.458 144.559C271.058 144.591 270.754 144.623 269.986 144.639L270.418 146.143C270.434 146.207 270.498 146.415 270.658 146.415C270.706 146.415 270.882 146.239 270.93 146.223C271.058 146.175 271.762 146.095 271.954 146.079C272.274 146.047 274.418 145.743 275.314 145.599C275.442 145.871 275.65 146.319 275.73 146.575L277.202 145.839Z" fill="white"/>
<path d="M299.57 147.151C299.234 146.767 298.914 146.431 298.242 145.935L297.57 146.703C298.098 147.087 298.482 147.439 298.898 147.919L299.57 147.151ZM298.274 148.607C297.874 148.111 297.474 147.775 296.946 147.375L296.29 148.143C296.914 148.623 297.25 148.943 297.602 149.375L298.274 148.607ZM298.802 144.431V142.575C295.778 143.503 290.818 143.887 287.362 143.855L287.634 145.647C289.234 145.423 291.586 145.231 293.73 145.055C293.17 145.567 292.37 146.319 291.618 147.487C290.93 148.527 290.53 149.599 290.53 150.671C290.53 151.759 290.946 152.799 291.714 153.551C293.01 154.847 294.802 155.183 295.65 155.327L296.274 153.375C295.618 153.343 294.498 153.295 293.458 152.559C293.01 152.239 292.306 151.583 292.306 150.479C292.306 149.263 293.074 147.823 294.258 146.639C296.29 144.591 298.05 144.479 298.802 144.431Z" fill="white"/>
<path d="M315.186 145.599V143.871C313.554 143.999 313.058 144.047 310.834 144.175V142.527C310.834 142.463 310.85 142.431 310.962 142.335C311.074 142.239 311.106 142.191 311.106 142.095C311.106 141.935 311.01 141.887 310.642 141.871L308.866 141.759C308.962 142.927 308.962 143.775 308.978 144.271C305.618 144.431 304.242 144.431 303.154 144.431V146.287C305.186 146.031 307.602 145.887 309.026 145.807L309.058 147.007C308.834 146.927 308.61 146.879 308.306 146.879C306.674 146.879 305.794 148.095 305.794 149.855C305.794 150.639 305.97 151.503 306.626 152.079C307.026 152.431 307.522 152.575 307.938 152.575C308.21 152.575 308.45 152.511 308.802 152.415C308.45 153.583 307.474 154.415 306.514 155.039L308.306 155.967C308.882 155.375 309.746 154.479 310.482 152.991C311.202 151.551 311.298 150.367 311.298 149.903C311.298 148.895 311.01 148.335 310.834 147.951V145.711C312.914 145.631 313.97 145.599 315.186 145.599ZM309.362 149.647C309.362 150.783 308.594 151.135 308.258 151.135C307.89 151.135 307.378 150.767 307.378 149.807C307.378 148.959 307.826 148.399 308.466 148.399C308.674 148.399 308.898 148.463 309.058 148.623C309.314 148.895 309.362 149.311 309.362 149.647Z" fill="white"/>
<path d="M320.642 150.847C319.282 150.847 318.162 151.935 318.162 153.311C318.162 154.671 319.282 155.791 320.642 155.791C322.002 155.775 323.106 154.671 323.106 153.311C323.106 151.935 321.986 150.847 320.642 150.847ZM320.642 151.615C321.57 151.615 322.338 152.367 322.338 153.311C322.338 154.255 321.586 155.007 320.642 155.007C319.698 155.023 318.93 154.255 318.93 153.311C318.93 152.367 319.714 151.615 320.642 151.615Z" fill="white"/>
</svg>
