<svg width="150" height="150" viewBox="0 0 150 150" fill="none" xmlns="http://www.w3.org/2000/svg">
<path fill-rule="evenodd" clip-rule="evenodd" d="M75 147.835C115.226 147.835 147.835 115.226 147.835 75C147.835 34.7741 115.226 2.16463 75 2.16463C34.7741 2.16463 2.16463 34.7741 2.16463 75C2.16463 115.226 34.7741 147.835 75 147.835ZM75 150C116.421 150 150 116.421 150 75C150 33.5786 116.421 0 75 0C33.5786 0 0 33.5786 0 75C0 116.421 33.5786 150 75 150Z" fill="white"/>
<path d="M77.0767 34.5601H74.1646C73.1567 37.1641 72.3726 38.2561 68.4246 38.2841V40.6641H73.6606V55.0001H77.0767V34.5601Z" fill="white"/>
<path d="M21.1664 80.8861C20.7414 82.8581 19.2624 83.5381 17.9194 83.5381C15.3694 83.5381 14.2304 81.2941 14.2304 78.7951C14.2304 76.2621 15.4204 74.0691 18.1064 74.0691C19.4324 74.0691 20.7244 74.6471 21.1154 76.3471H23.3424C23.1044 75.3611 22.3224 72.1821 18.0894 72.1821C14.2984 72.1821 11.9524 74.7491 11.9524 78.8291C11.9524 82.9091 14.2474 85.4081 17.9024 85.4081C22.4074 85.4081 23.1894 81.8041 23.3934 80.8861H21.1664Z" fill="white"/>
<path d="M25.5148 72.5901V85.0001H27.6398V80.0531H30.7508C31.9748 80.0531 32.4678 81.0731 32.4678 82.2121V84.2011C32.4678 84.5411 32.5698 84.8131 32.8248 85.0001H35.2728C34.6608 84.4391 34.6608 84.0821 34.6098 81.7361C34.5588 79.5941 33.5388 79.3391 31.8048 79.1011C32.8078 78.9991 35.0348 78.7781 35.0348 75.9561C35.0348 73.6271 33.2158 72.5901 30.9548 72.5901H25.5148ZM27.6398 74.3751H30.8018C32.0938 74.3751 32.7228 75.1741 32.7228 76.2791C32.7228 77.4521 31.9408 78.2681 30.8018 78.2681H27.6398V74.3751Z" fill="white"/>
<path d="M40.8925 78.9311C39.5835 79.4241 38.6145 79.7641 37.8325 80.0191L38.1725 81.5661C38.2065 81.7191 38.2745 82.0761 38.4445 82.0761C38.5295 82.0761 38.5975 82.0251 38.6315 81.9571C38.7505 81.6851 38.7675 81.6341 38.9715 81.5321C39.2265 81.3961 40.5865 80.8691 40.8925 80.7331V85.8841H42.5755V80.0021C43.4765 79.5941 43.7825 79.4411 44.0715 79.3051L43.9695 77.6561C43.3405 77.9281 42.9155 78.1151 42.5755 78.2511V75.5141H44.0715V74.0521H42.5755V72.1651C42.5755 72.0291 42.6775 71.9271 42.7965 71.8421C43.0685 71.6381 43.1025 71.6041 43.1025 71.5361C43.1025 71.3661 42.7115 71.3321 42.5415 71.3321L40.8925 71.2981V74.0521H40.1615C40.1785 73.9331 40.2295 73.3041 40.2805 73.1681C40.2975 73.1171 40.4845 72.9641 40.4845 72.9131C40.4845 72.7601 40.1275 72.7091 39.9745 72.6921L38.5975 72.5391C38.5125 74.3751 38.3085 75.6331 37.6965 77.2991L39.3455 77.6221C39.6175 76.8571 39.7705 76.3641 39.9235 75.5141H40.8925V78.9311ZM47.2675 74.5111V75.9731H44.0885V77.4351H49.0015V79.1691H44.2755V80.6821H49.0015V83.5041C49.0015 83.8441 49.0015 84.1841 48.0835 84.1841C47.8965 84.1841 47.6925 84.1671 47.3525 84.1331L47.8965 85.8331C49.7835 85.7821 50.7185 85.7651 50.7185 84.2521V80.6821H52.5715V79.1691H50.7185V77.4351H52.7075V75.9731H48.9845V74.5111H52.1805V73.0151H48.9845V71.8761C48.9845 71.8081 49.0015 71.7231 49.0695 71.6721C49.2395 71.4851 49.2735 71.4681 49.2735 71.4001C49.2735 71.2641 49.2055 71.2641 48.6275 71.2471L47.2675 71.1961V73.0151H44.5645V74.5111H47.2675ZM44.2415 82.0081C44.9895 82.8241 45.5165 83.7931 45.6865 84.0991L47.1655 83.1811C46.9275 82.7561 46.4515 81.9401 45.6695 81.0391L44.2415 82.0081Z" fill="white"/>
<path d="M57.5865 71.4001C56.9575 72.5901 56.1925 73.7291 54.8495 74.8851L56.3115 75.8881C57.2805 74.9871 58.1305 73.7631 58.7595 72.6751C58.9465 72.5221 59.1845 72.3691 59.1845 72.3011C59.1845 72.2331 59.0315 72.1311 58.7765 71.9951L57.5865 71.4001ZM61.2075 82.7051C61.1055 82.7221 59.6265 82.9771 59.2355 83.0281L59.3715 84.4731C59.3885 84.6941 59.4225 84.9151 59.5415 84.9151C59.5925 84.9151 59.6435 84.8811 59.6945 84.8471C59.9155 84.6261 59.9835 84.5751 60.2045 84.4731C60.3405 84.4221 64.0465 83.4021 64.7265 83.2151L64.6755 81.9911C64.4035 82.0761 63.0265 82.3651 62.7205 82.4331V81.3451H64.2505V79.8831H62.7205V78.6761H64.4375V77.8431L64.9305 78.0641C65.1345 79.6961 65.4235 80.8011 65.9505 82.2461C65.3215 83.3341 64.7435 84.0821 63.6725 84.8131L65.1345 85.7821C65.7635 85.1531 66.1885 84.6941 66.7155 83.8951C67.1235 84.5921 67.5315 85.2381 68.1605 85.8161L69.4865 84.8131C68.7045 84.0141 68.2285 83.4191 67.5825 82.2971C68.3475 80.4781 68.8235 78.6251 69.0275 75.8031H69.5545V74.3411H66.7155C66.9705 73.7121 67.2255 72.7601 67.3105 72.4031C67.3275 72.3181 67.3615 72.1991 67.4635 72.1651C67.6505 72.0971 67.7355 72.0631 67.7355 71.9441C67.7355 71.8591 67.7355 71.7911 67.1915 71.6721L65.6955 71.3491C65.5425 72.7601 65.2705 73.9331 64.5905 75.7351V72.9811C64.5905 72.8961 64.6075 72.8281 64.6415 72.7941C64.6585 72.7771 64.8625 72.5391 64.8625 72.5051C64.8625 72.3861 64.7435 72.3691 64.4205 72.3351L63.3665 72.2501V74.8171H62.7035V72.1311C62.7035 72.0291 62.7035 71.9951 62.8735 71.8591C62.9755 71.7911 63.0265 71.7231 63.0265 71.6381C63.0265 71.5191 62.8565 71.5021 62.7205 71.4851L61.3435 71.3491V74.8171H60.7145V72.8791C60.7145 72.8111 60.7315 72.7771 60.7995 72.7601C60.8675 72.7431 61.0035 72.6581 61.0035 72.5731C61.0035 72.4711 60.8845 72.4541 60.7485 72.4371L59.4395 72.3011V75.7351C59.3715 75.6841 59.3035 75.6331 59.2185 75.5821L58.0965 74.8851C57.3485 76.6531 56.2265 77.9451 54.8325 79.1351L56.0735 80.2401C56.1755 80.1211 56.4985 79.7981 56.7875 79.4581V85.7821H58.4535V78.2341C58.4535 78.1491 58.4535 78.0981 58.5555 78.0301C58.6745 77.9451 58.7595 77.8771 58.7595 77.8261C58.7595 77.7071 58.5895 77.6561 58.3515 77.5881C58.5725 77.2651 58.8275 76.9081 59.0655 76.5001C59.1335 76.3981 59.2185 76.2281 59.2525 76.1431C59.3715 76.1091 59.5585 76.0751 59.6095 76.0411H64.4715C63.9785 77.0101 63.8085 77.2311 63.6725 77.4011H59.3035V78.6761H61.2075V79.8831H59.5925V81.3451H61.2075V82.7051ZM66.2225 75.8031H67.5655C67.4805 77.5711 67.2255 78.7611 66.7665 80.2571C66.4945 79.3221 66.3585 78.5571 66.1715 75.9221L66.2225 75.8031Z" fill="white"/>
<path d="M84.7015 76.3981C83.5625 77.2141 82.1515 77.8091 81.7265 77.9791C81.4715 77.0101 81.0125 76.0751 79.4315 76.0751C78.7005 76.0751 78.2245 76.2621 77.9525 76.3641C78.2585 75.9391 78.5135 75.5311 78.8365 74.8851C79.6355 74.8001 81.6245 74.5621 82.9335 74.2391L83.1375 72.4201C82.2365 72.8281 80.5365 73.1681 79.6355 73.2701C79.7035 73.1171 80.1455 72.1481 80.2135 72.1141C80.5535 71.8761 80.5875 71.8421 80.5875 71.7571C80.5875 71.6721 80.5875 71.6041 79.9755 71.5021L78.3265 71.2131C78.1735 71.9781 77.8845 72.7771 77.6295 73.4741C76.9325 73.4911 76.8815 73.4911 76.4565 73.4911C75.7085 73.4911 74.9945 73.4741 74.2465 73.3891L74.4845 75.1571C75.2835 75.1911 76.6605 75.1061 76.8815 75.0891C76.4395 75.9901 75.4535 77.7071 73.4985 79.6621L75.0625 80.6821C75.8445 79.4581 77.2385 77.4861 78.8025 77.4861C79.8055 77.4861 80.0265 78.2851 80.1455 78.6931C78.5815 79.4921 76.0825 80.7331 76.0825 83.1471C76.0825 85.5271 78.8705 85.7481 80.8085 85.7481C82.4065 85.7481 83.6305 85.5611 84.6505 85.3911V83.5551C82.3555 84.0821 80.8765 84.1501 80.2645 84.1501C79.2615 84.1501 77.8505 84.0311 77.8505 82.8071C77.8505 81.4641 79.6185 80.5971 80.2305 80.2911C80.2305 80.7161 80.2305 80.7671 80.1455 82.9771H82.0665C82.0495 81.8721 81.9645 80.6821 81.8965 79.5601C82.3895 79.3731 84.8035 78.4211 85.3475 78.2171L84.7015 76.3981Z" fill="white"/>
<path d="M98.5395 85.8841H99.4575C101.616 85.8841 101.616 84.6941 101.616 84.0651V73.4741H103.368V71.7741H89.1045V73.4741H99.6955V83.4871C99.6955 83.7251 99.6955 84.0991 99.1345 84.0991H97.8595L98.5395 85.8841ZM97.2985 82.1611V75.6841H91.0595V83.6401H92.8105V82.1611H97.2985ZM95.5475 80.6141H92.8105V77.2481H95.5475V80.6141Z" fill="white"/>
<path d="M114.638 80.1891H116.372V84.1501C116.372 85.0001 116.678 85.5441 117.528 85.5441H119.398C120.231 85.5441 120.588 85.1871 120.741 84.5581C120.775 84.3881 120.928 83.5041 120.979 83.3001L119.517 82.5691C119.398 83.7761 119.262 83.9801 118.871 83.9801H118.48C118.191 83.9801 117.97 83.8951 117.97 83.5211V80.1891H119.636V71.6211H112.683V80.1891H114.043C113.414 83.1981 112.496 83.9801 110.558 84.6771L111.85 86.0541C112.36 85.7821 114.196 84.8301 115.063 82.5691C115.165 82.3311 115.522 81.0901 115.539 81.0391C115.743 80.8861 115.845 80.8011 115.845 80.7331C115.845 80.6311 115.659 80.5631 115.438 80.4781L114.638 80.1891ZM118.09 76.4661H114.247V75.2931H118.09V76.4661ZM118.09 74.1201H114.247V72.9301H118.09V74.1201ZM118.09 77.6561V78.8801H114.247V77.6561H118.09ZM111.884 73.7631H109.861V72.2331C109.861 71.9951 109.861 71.8931 109.98 71.7741C110.031 71.7231 110.286 71.4851 110.286 71.4341C110.286 71.3151 110.235 71.2981 109.793 71.2811L108.246 71.1961V73.7631H105.917V75.2761H110.184C109.079 77.4011 107.328 79.1011 105.356 80.4611L106.682 81.6171C107.226 81.2091 107.668 80.8521 108.297 80.2571V85.8671H109.895V79.5091C110.558 80.2571 110.898 80.5291 111.408 80.9031L112.411 79.6621C111.425 78.9311 110.898 78.4381 110.422 77.8941C110.847 77.2991 111.714 76.0921 112.479 74.3071L111.884 73.7631Z" fill="white"/>
<path d="M124.107 79.6281C124.43 79.2711 124.736 78.9481 125.552 77.9281V85.6971H127.303V75.9731C127.303 75.8541 127.303 75.7691 127.439 75.7011C127.745 75.5311 127.779 75.5311 127.779 75.4461C127.779 75.2931 127.541 75.1061 127.405 75.0041C127.762 74.3751 128.136 73.6611 128.493 72.8451C128.578 72.6751 128.629 72.6411 128.731 72.6241C128.952 72.5731 129.071 72.5561 129.071 72.4201C129.071 72.3011 128.867 72.1991 128.731 72.1311L127.082 71.3151C126.385 73.3551 125.399 75.7351 122.696 78.4211L124.107 79.6281ZM130.142 71.2981V83.7081C130.142 84.6261 130.346 85.4081 131.927 85.4081H135.463C136.823 85.4081 137.724 85.3401 137.877 82.8411L135.99 81.9911C135.871 83.6741 135.752 83.7081 134.783 83.7081H132.675C132.012 83.7081 131.876 83.5211 131.876 82.9261V79.5431C133.984 77.9111 135.293 76.7721 136.993 74.7321C137.113 74.5791 137.18 74.5281 137.265 74.5281C137.622 74.4941 137.724 74.4941 137.724 74.3241C137.724 74.1711 137.486 74.0521 137.368 73.9841L135.684 73.0831C134.936 74.3071 133.729 76.0581 131.876 77.5201V72.2671C131.876 72.1821 131.876 72.0801 131.995 71.9951C132.284 71.8251 132.301 71.8081 132.301 71.6891C132.301 71.5191 132.097 71.5021 131.876 71.4851L130.142 71.2981Z" fill="white"/>
<path d="M28.0289 108.929L28.9809 109.592C34.9479 107.62 37.6509 105.172 39.3679 103.251L38.3479 101.415C37.2769 102.622 34.7099 105.563 29.9839 106.94V98.1851C29.9839 98.0661 30.0009 98.0321 30.2389 97.8791C30.3239 97.8111 30.3919 97.7601 30.3919 97.6751C30.3919 97.4881 30.1199 97.4541 29.7119 97.4201L28.0289 97.2501V108.929Z" fill="white"/>
<path d="M55.0079 99.1711C55.9259 99.1711 56.6739 98.4231 56.6739 97.4881C56.6739 96.5531 55.9089 95.8051 55.0079 95.8051C54.1069 95.8051 53.3589 96.5701 53.3589 97.4881C53.3589 98.4061 54.0899 99.1711 55.0079 99.1711ZM55.0079 98.4061C54.5149 98.4061 54.1239 97.9811 54.1239 97.4881C54.1239 96.9781 54.5319 96.5871 55.0079 96.5871C55.5179 96.5871 55.9089 96.9951 55.9089 97.4881C55.9089 97.9641 55.5349 98.4061 55.0079 98.4061ZM43.9919 108.368C45.0969 107.348 46.1169 106.26 47.0179 104.934C47.1199 104.798 47.1199 104.764 47.2559 104.764C47.4089 104.747 47.5789 104.747 47.5789 104.56C47.5789 104.441 47.5449 104.424 47.1709 104.169L45.8619 103.319C44.8419 104.985 43.6349 106.192 42.3259 107.178L43.9919 108.368ZM56.1979 106.906C55.3479 105.342 54.3449 104.186 53.2229 103.166L51.7779 104.254C52.2539 104.747 53.6819 106.209 54.5659 108.079L56.1979 106.906ZM47.0859 110.272C49.8739 110.238 50.4689 110.221 50.4689 108.079V101.772H55.4669V100.089H50.4689V97.8791C50.4689 97.7601 50.4689 97.7091 50.6049 97.6071C50.8089 97.4541 50.8259 97.4371 50.8259 97.3691C50.8259 97.2331 50.6729 97.1311 50.3159 97.0801L48.5819 96.7911V100.089H43.4649V101.772H48.5819V107.416C48.5819 108.334 48.5819 108.385 47.8339 108.385C47.4429 108.385 46.8649 108.351 46.3379 108.266L47.0859 110.272Z" fill="white"/>
<path d="M60.3969 102.605V104.492H72.6029V102.605H60.3969Z" fill="white"/>
<path d="M82.7859 102.316V97.7601C82.7859 97.6581 82.7859 97.6411 82.9899 97.4711C83.0579 97.4201 83.1429 97.3351 83.1429 97.2501C83.1429 97.1141 82.9559 97.0461 82.4459 96.9611L80.9159 96.7061V110.459H82.7859V103.081C84.1119 103.676 85.6759 104.356 87.6989 106.668L88.9399 104.951C87.2739 103.285 85.5229 102.112 83.3979 101.211L82.7859 102.316Z" fill="white"/>
<path d="M96.5389 96.3491C95.9099 98.2871 94.6859 100.65 93.0709 102.503L94.4139 103.761C94.9409 103.132 95.1619 102.775 95.3659 102.469V110.833H97.0999V100.65C97.0999 100.565 97.0999 100.514 97.2359 100.412C97.5249 100.174 97.5589 100.14 97.5589 100.055C97.5589 99.9191 97.3039 99.7831 97.0319 99.6641C97.4909 98.7801 97.9159 97.9641 98.0859 97.5561C98.1539 97.4371 98.1879 97.3691 98.2899 97.3181C98.6299 97.1481 98.6809 97.1141 98.6809 96.9951C98.6809 96.9271 98.6809 96.8421 98.3239 96.7571L96.5389 96.3491ZM100.228 96.2981C99.7009 98.6271 98.5619 100.684 97.1339 102.316L98.6469 103.319C99.0209 102.86 99.565 102.197 100.534 100.276H101.248V110.833H102.965V107.399H107.555V105.699H102.965V103.829H107.028V102.129H102.965V100.276H107.793V98.7291H101.299C101.435 98.4061 101.928 97.2671 102.115 97.1821C102.268 97.1141 102.404 97.0461 102.404 96.9781C102.404 96.8761 102.251 96.7741 102.047 96.7231L100.228 96.2981Z" fill="white"/>
<path d="M118.843 98.8821C118.843 98.4911 118.843 97.3011 118.979 96.9781C119.013 96.9101 119.336 96.6381 119.336 96.5531C119.336 96.3661 119.047 96.3661 118.639 96.3491L117.194 96.2981C117.194 97.7261 117.211 97.9301 117.245 98.8821H111.142C111.261 99.8511 111.329 100.633 111.329 102.197C111.329 106.294 110.921 107.977 109.867 110L111.465 110.697C112.213 109.065 112.366 108.453 112.621 107.382L113.318 108.98C116.429 108.878 116.65 107.841 116.701 102.452H113.08V100.582H117.347C117.585 103.523 117.925 104.934 118.69 106.685C117.636 107.909 116.667 108.708 115.171 109.558L116.31 110.884C117.908 109.932 118.673 109.201 119.557 108.249C120.849 109.932 121.665 110.986 122.753 110.986C123.314 110.986 123.875 110.748 124.385 107.977L123.008 107.11C122.906 107.62 122.719 108.521 122.413 108.521C122.056 108.521 121.257 107.739 120.713 106.821C121.087 106.26 121.954 104.968 122.719 102.775C122.821 102.452 122.838 102.418 122.889 102.384C123.127 102.248 123.212 102.214 123.212 102.129C123.212 102.027 123.161 102.01 122.685 101.84L121.257 101.33C120.815 103.234 120.22 104.322 119.829 105.036C119.387 103.642 119.217 103.03 118.928 100.582H124.436V98.8821H122.073L123.127 98.1171C122.6 97.5051 122.345 97.2161 121.546 96.4001L120.237 97.2331C120.662 97.6241 121.087 98.0661 121.58 98.8821H118.843ZM115.052 104.067C115.001 106.804 114.508 107.331 113.777 107.331C113.607 107.331 113.386 107.314 112.638 107.178C112.842 106.073 112.961 105.393 113.029 104.067H115.052Z" fill="white"/>
</svg>
