<svg fill="none" height="29" viewBox="0 0 99 29" width="99" xmlns="http://www.w3.org/2000/svg"><g fill="#00beff"><path d="m5.28612 12.7502c-.94501 0-1.86086-.1342-2.74754-.4025-.87501-.2683-1.569185-.6242-2.082525-1.0675l.787515-1.76754c.50167.39667 1.11418.72334 1.83752.98004.73501.245 1.47002.3675 2.20503.3675.91002 0 1.58669-.1459 2.03003-.4375.45501-.2917.68251-.6767.68251-1.15504 0-.35001-.12833-.63585-.385-.85752-.24501-.23333-.56001-.41417-.94502-.5425-.385-.12834-.91001-.27417-1.57502-.43751-.93335-.22167-1.69169-.44334-2.27503-.66501-.57168-.22167-1.06752-.56584-1.48752-1.03251-.408342-.47834-.612512-1.12002-.612512-1.92503 0-.67668.180836-1.28919.542512-1.83753.37334-.56001.92751-1.003347 1.66252-1.330019.74668-.326671 1.65669-.490007 2.73004-.490007.74668 0 1.48169.093335 2.20503.280005.72335.186669 1.34752.455006 1.87253.805011l-.71751 1.76753c-.53668-.31501-1.09668-.55418-1.68003-.71751-.58334-.16334-1.14918-.24501-1.69752-.24501-.89835 0-1.56919.15167-2.01253.45501-.43167.30334-.64751.70584-.64751 1.20752 0 .35.1225.63584.36751.85751.25667.22167.57751.39667.96251.52501.38501.12833.91001.27417 1.57502.4375.91002.21001 1.65669.43168 2.24004.66501.58334.22167 1.07918.56584 1.48752 1.03252.42001.46667.63001 1.09668.63001 1.89003 0 .67667-.1867 1.28914-.56001 1.83754-.36167.5483-.91585.9858-1.66253 1.3125-.74667.3267-1.65669.49-2.73004.49z"/><path d="m19.0922 12.7502c-1.2484 0-2.3742-.2683-3.3776-.805-1.0033-.5483-1.7908-1.3009-2.3625-2.25754-.5717-.96834-.8575-2.04753-.8575-3.23754 0-1.19002.2858-2.26337.8575-3.22005.5717-.96835 1.3592-1.72086 2.3625-2.257534 1.0034-.548341 2.1292-.822512 3.3776-.822512 1.2483 0 2.3742.274171 3.3775.822512 1.0034.536674 1.7909 1.283354 2.3626 2.240034.5716.95668.8575 2.03586.8575 3.23755 0 1.20168-.2859 2.28086-.8575 3.23754-.5717.95664-1.3592 1.70924-2.3626 2.25754-1.0033.5367-2.1292.805-3.3775.805zm0-1.995c.8167 0 1.5517-.1809 2.205-.5425.6534-.37337 1.1667-.88671 1.54-1.54005.3734-.66501.56-1.40585.56-2.22253s-.1866-1.55169-.56-2.20504c-.3733-.66501-.8866-1.17835-1.54-1.54002-.6533-.37334-1.3883-.56001-2.205-.56001s-1.5517.18667-2.205.56001c-.6534.36167-1.1667.87501-1.5401 1.54002-.3733.65335-.56 1.38836-.56 2.20504s.1867 1.55752.56 2.22253c.3734.65334.8867 1.16668 1.5401 1.54005.6533.3616 1.3883.5425 2.205.5425z"/><path d="m28.9763.325027h2.275v10.325173h6.4051v1.925h-8.6801z"/><path d="m45.4242 12.7502c-1.6917 0-3.0101-.4725-3.9551-1.4175-.945-.9567-1.4175-2.32171-1.4175-4.09507v-6.912603h2.275v6.825103c0 2.40337 1.0384 3.60507 3.1151 3.60507 2.065 0 3.0975-1.2017 3.0975-3.60507v-6.825103h2.2401v6.912603c0 1.77336-.4725 3.13837-1.4176 4.09507-.9333.945-2.2458 1.4175-3.9375 1.4175z"/><path d="m57.1033 2.25005h-4.0601v-1.925023h10.3952v1.925023h-4.0601v10.32515h-2.275z"/><path d="m66.0207.325027h2.2751v12.250173h-2.2751z"/><path d="m78.2068 12.7502c-1.2483 0-2.3742-.2683-3.3775-.805-1.0034-.5483-1.7909-1.3009-2.3626-2.25754-.5717-.96834-.8575-2.04753-.8575-3.23754 0-1.19002.2858-2.26337.8575-3.22005.5717-.96835 1.3592-1.72086 2.3626-2.257534 1.0033-.548341 2.1292-.822512 3.3775-.822512 1.2484 0 2.3742.274171 3.3776.822512 1.0033.536674 1.7908 1.283354 2.3625 2.240034s.8575 2.03586.8575 3.23755c0 1.20168-.2858 2.28086-.8575 3.23754-.5717.95664-1.3592 1.70924-2.3625 2.25754-1.0034.5367-2.1292.805-3.3776.805zm0-1.995c.8167 0 1.5517-.1809 2.205-.5425.6534-.37337 1.1667-.88671 1.5401-1.54005.3733-.66501.56-1.40585.56-2.22253s-.1867-1.55169-.56-2.20504c-.3734-.66501-.8867-1.17835-1.5401-1.54002-.6533-.37334-1.3883-.56001-2.205-.56001s-1.5517.18667-2.205.56001c-.6534.36167-1.1667.87501-1.5401 1.54002-.3733.65335-.56 1.38836-.56 2.20504s.1867 1.55752.56 2.22253c.3734.65334.8867 1.16668 1.5401 1.54005.6533.3616 1.3883.5425 2.205.5425z"/><path d="m98.976.325027v12.250173h-1.8725l-6.7551-8.29512v8.29512h-2.2575v-12.250173h1.8725l6.7551 8.295123v-8.295123z"/><path d="m26.2285 26.0754h47.5007v2.50004h-47.5007z"/></g></svg>