<svg fill="none" height="55" viewBox="0 0 261 55" width="261" xmlns="http://www.w3.org/2000/svg"><g fill="#000"><path d="m18.4522 20.9832-6.86-17.88491h-3.74847l-6.859965 17.88491h3.650485l1.32299-3.8465h7.52146l1.323 3.8465zm-5.929-6.615h-5.58596l2.37649-6.88443.4165-1.568.39197 1.568z"/><path d="m25.307 20.9832v-17.88491h-3.3075v17.88491z"/><path d="m44.3707 11.5842c-.4095-.468-.7995-.8774-1.6185-1.4819l-.819.936c.6435.4679 1.1115.8969 1.6185 1.4819zm-1.5795 1.7745c-.4875-.6045-.975-1.014-1.6185-1.5015l-.7995.936c.7605.585 1.17.975 1.599 1.5015zm.6435-5.08944v-2.26199c-3.6854 1.131-9.7304 1.599-13.9424 1.56l.3315 2.18399c1.95-.273 4.8165-.507 7.4295-.7215-.6825.624-1.6575 1.54054-2.574 2.96394-.8385 1.2675-1.326 2.574-1.326 3.8805 0 1.326.507 2.5935 1.443 3.51 1.5795 1.5795 3.7635 1.989 4.797 2.1645l.7604-2.379c-.7994-.039-2.1644-.0975-3.4319-.9945-.546-.39-1.404-1.1895-1.404-2.535 0-1.482.936-3.237 2.379-4.6799 2.4764-2.49604 4.6214-2.63254 5.5379-2.69104z"/><path d="m69.1546 6.16077v-2.71948h-8.5749v-1.225c0-.098.098-.1715.2695-.245.1225-.0735.3185-.1715.3185-.3675 0-.29399-.49-.39199-.833-.41649l-3.1115-.1715v2.42549h-7.742c.049.71049.196 2.15599.196 4.53247 0 6.85994-1.029 10.36344-2.793 13.40144l2.842 1.029c1.96-3.185 2.695-8.2075 2.695-12.73994v-3.50349zm.5145 15.18993c-1.1025-3.9935-3.773-8.526-5.635-10.6574l-2.4499 1.5434c.833 1.1515 1.8374 2.6215 3.2829 5.3655-1.078.196-3.0379.539-7.3254 1.0535.8575-2.7195 2.205-7.0805 3.0625-9.79994.049-.1225.098-.147.441-.343.196-.1225.3185-.294.3185-.441 0-.22049-.1715-.34299-.7595-.48999l-2.9155-.7105c-.5635 3.08699-1.666 8.18293-3.185 12.07843-1.6415.147-1.8375.147-2.352.1715l.539 2.891c.049.245.1225.8085.5145.8085.147 0 .1715-.049.392-.441.196-.3185.343-.343.735-.392 3.8955-.539 7.7664-1.2005 11.5884-2.0825.441 1.1515.6125 1.715.833 2.695z"/><path d="m93.6545 11.8202v-2.59694h-9.1384v-2.79299h6.8844v-2.44999h-6.8844v-1.59249c0-.245.196-.392.3674-.4655.196-.1225.343-.196.343-.3675 0-.17149-.2205-.2205-.3675-.24499l-3.2339-.318503v2.988983h-3.136c.0735-.1715.4165-1.07799.49-1.17599.0245-.0245.3675-.245.3675-.2695.0735-.049.147-.147.147-.2205 0-.147-.0735-.245-.196-.2695l-2.793-.784c-.882 2.40099-1.7885 4.18949-3.234 6.07598l2.695 1.17599c.539-.75949.8575-1.27399 1.274-2.08249h4.3855v2.79299h-9.114v2.59694zm-2.9155 10.3145v-8.7465h-15.2879v8.7465h2.9155v-.5635h9.3834v.5635zm-2.989-3.0625h-9.3834v-3.087h9.3834z"/><path d="m117.787 6.18527h-3.969c.024-.56349.098-3.01348.122-3.50348.025-.2695.074-.294.466-.6615.073-.0735.147-.147.147-.294 0-.31849-.392-.34299-.588-.34299l-2.646-.12251c0 2.22949 0 2.25399-.025 4.92448h-1.837v2.42549h1.715c-.098 1.274-.343 3.47894-1.127 6.00244-.613 2.009-1.25 3.038-1.642 3.6505v-.7105c-1.347.1225-1.715.147-3.993.343v-1.127h3.944v-1.8375h-3.944v-1.0045h3.822v-6.46793h-3.822v-1.0535h4.826v-1.86199h-4.826v-1.24949c.539-.0735 1.592-.196 1.617-.196.171-.0245.906-.1715 1.053-.1715s.711.196.809.196c.22 0 .294-.098.294-.196 0-.1225-.098-.245-.172-.3675l-1.225-1.592493c-2.842.783993-5.806.832993-8.746.734993l.8575 1.9355c1.6905 0 2.4985-.04901 3.0135-.098v1.00449h-4.802v1.86199h4.802v1.0535h-3.7975v6.46793h3.7975v1.0045h-3.969v1.8375h3.969v1.2985c-.858.0735-3.1605.245-4.6795.294l.343 2.2295c.049.343.1715.4655.3675.4655.2205 0 .294-.098.49-.3675.147-.2205.2205-.196.7595-.2695 1.3225-.147 7.1295-.8085 8.3055-.9555-.662.7595-.907 1.0045-1.25 1.323l2.499 1.2495c3.528-4.4345 4.533-8.575 4.925-13.42594h1.543c-.073 4.36094-.612 8.57494-.955 9.94694-.196.7595-.613 1.2985-1.715 1.2985-.441 0-.882-.0735-1.152-.1225l1.176 2.548c2.695-.049 3.626-.6615 4.214-3.724.833-4.2385.956-10.28994 1.005-12.37243zm-11.809 3.74849h-1.568v-1.029h1.568zm0 2.54794h-1.568v-1.078h1.568zm-4.067-2.54794h-1.544v-1.029h1.544zm0 2.54794h-1.544v-1.078h1.544z"/><path d="m142.507 4.24978v-2.35199h-20.751v2.35199h9.138v1.95999h-4.924v11.00043h12.176v-11.00043h-4.851v-1.95999zm-6.762 6.39452h-2.45v-2.30304h2.45zm0 4.4099h-2.45v-2.352h2.45zm-4.851-4.4099h-2.499v-2.30304h2.499zm0 4.4099h-2.499v-2.352h2.499zm11.711-8.67293c0-.1715-.098-.2695-.49-.3185l-2.523-.3185v13.13193h-15.141v-11.61293c0-.245.098-.3185.343-.539.073-.0735.122-.147.122-.245 0-.196-.171-.245-.49-.2695l-2.474-.196v15.97393h2.499v-.8085h15.141v.882h2.45v-14.94493c0-.196.122-.2695.392-.441.122-.0735.171-.196.171-.294z"/><path d="m160.876 13.3977-.663-2.223c-.917.4095-1.17.5265-3.452 1.599-.448-1.287-1.306-1.9694-2.652-1.9694-.838 0-1.423.2924-1.677.4094.332-.5069.488-.7799 1.112-1.93044 1.306-.156 2.905-.3315 4.66-.741l.137-2.18399c-1.151.4485-2.028.702-3.822.9945.097-.2145.585-1.3065.604-1.326.02 0 .41-.17549.449-.19499.117-.03901.195-.09751.195-.2145 0-.1365-.332-.1755-.39-.195l-2.438-.429c-.234.85799-.487 1.54049-.975 2.59349-1.696.0585-2.554.0195-3.724-.078l.234 2.02799c.819 0 1.423-.0195 2.535-.078-1.326 2.32044-2.301 3.70494-3.842 5.36244l1.911 1.1895c1.073-1.755 2.243-3.5295 4.154-3.5295 1.131 0 1.365.702 1.482 1.287-2.925 1.5015-4.719 2.418-4.719 4.836 0 .273 0 1.131.741 1.911 1.228 1.3065 3.49 1.3065 4.582 1.3065.624 0 2.789 0 4.641-.2925v-2.2035c-1.638.3705-3.295.624-4.972.624-1.424 0-2.925-.2535-2.925-1.521 0-1.365 2.028-2.379 2.769-2.7495-.02.858-.039 1.8135-.098 2.925h2.262c0-.663-.039-3.081-.039-3.8415 1.443-.546 2.379-.8775 3.92-1.365z"/><path d="m180.848 19.6602v-4.802h-9.457v5.7085h2.474v-.9065zm4.753.882v-8.722h-19.184v10.388h2.744v-8.428h13.671v5.5125c0 .7595-.171.8085-.931.8085-.294 0-1.053-.049-1.249-.049l1.102 2.4745h1.323c1.568 0 2.524-.8575 2.524-1.9845zm-7.252-2.7195h-4.484v-1.323h4.484zm3.577-6.9824v-4.87553h-11.834v4.87553zm-2.72-1.73954h-6.37v-1.37199h6.37zm7.203-4.11598v-2.18049h-8.795v-.686c0-.098.073-.1715.245-.294.147-.0735.269-.1715.269-.294 0-.22049-.49-.24499-.588-.24499l-2.964-.245v1.76399h-8.918v2.18049z"/><path d="m211.619 16.4017c-2.474-1.1025-3.871-2.107-5.071-3.3075h2.866v-6.61493h-4.85v-1.20049h6.59v-2.20499h-6.59v-.784c0-.098.048-.1225.318-.392.196-.1715.245-.245.245-.343 0-.17149-.098-.294-.735-.34299l-2.352-.220503v2.082493h-5.88v2.20499h5.88v1.20049h-4.557v6.61493h2.916c-1.372 1.666-2.818 2.8665-4.386 3.675l2.205 1.8865c1.642-1.176 2.695-2.254 3.822-3.6015v4.116h2.524v-4.4345c1.469 1.5435 3.037 2.8175 4.948 3.7975zm-4.777-5.4879h-2.278v-2.25404h2.278zm-4.802 0h-1.96v-2.25404h1.96zm-5.904-5.95352c-1.054-1.176-2.303-2.30299-3.651-3.18499l-1.935 2.00899c1.053.784 2.229 1.7885 3.405 3.16049zm16.047 13.91592c-2.009.3185-3.234.539-6.909.735-2.401.147-4.091.147-4.434.147-4.435 0-5.072-1.1025-5.072-2.744v-7.03144h-5.512v2.69494h2.817v4.9c-1.102.6615-2.572 1.4455-3.552 1.911l1.029 2.7685c.024.049.196.539.514.539.123 0 .147-.049.392-.588.098-.196.098-.2205.343-.4165.956-.784 2.475-1.96 2.475-1.96.882 1.323 1.886 2.303 6.247 2.303h10.388z"/><path d="m235.482 21.6202v-2.4255h-8.844v-4.655h5.439v-2.548h-5.439v-3.94443h7.766v-2.47449h-7.766v-3.01349c0-.1715.073-.294.367-.4655.196-.1225.27-.2205.27-.343 0-.245-.196-.34299-.588-.36749l-2.965-.147v4.33648h-4.067c.392-.9555.588-1.568.735-2.058.098-.19599.147-.31849.515-.48999.22-.098.294-.196.294-.3185 0-.147-.123-.245-.637-.392l-2.573-.7105c-.392 1.4945-.808 3.11149-2.082 5.48798-.809 1.49449-1.397 2.20499-2.303 3.28303l2.621 1.3964c1.029-1.4699 1.642-2.57244 2.254-3.72393h5.243v3.94443h-5.586v2.548h5.586v4.655h-9.163v2.4255z"/><path d="m260.154 18.0922-2.279-1.323c-.196.882-.416 2.009-.906 2.009-.858 0-2.058-1.862-2.401-2.3765 1.641-2.303 2.205-3.577 2.989-5.4634.122-.2695.122-.2695.588-.539.098-.049.245-.1225.245-.3185 0-.12254-.074-.22054-.221-.29404l-2.621-1.372c-.588 1.96004-1.201 3.33194-2.328 5.14494-.563-1.6905-.857-3.0379-1.127-6.02693h7.816v-2.44999h-3.626l1.372-1.2495c-.956-1.29849-1.593-1.88649-2.23-2.49899l-1.788 1.519c.416.343 1.102.93099 2.107 2.22949h-3.798c-.024-.784-.024-1.54349-.024-2.30299 0-.3675 0-.4655.294-.7595.098-.098.22-.2205.22-.3675 0-.1225-.171-.26949-.367-.294l-3.063-.31849c.025 1.32299.025 2.18049.123 4.04248h-8.551c.098 1.49449.172 2.69498.172 4.33648 0 6.59044-1.201 9.55494-2.181 11.61294l2.597.784c.76-1.5925 1.103-2.744 1.47-4.508l1.225 2.1805h1.054c2.499 0 2.915-1.4945 3.111-2.205.466-1.764.613-4.5325.662-7.2519h-5.366c.025-.66154.049-1.17604.049-2.49903h5.954c.49 4.58143 1.102 6.51693 1.984 8.62393-1.788 2.009-3.087 2.989-4.924 4.0425l2.009 1.9355c1.764-1.1515 2.891-2.058 4.312-3.5035.637.833 2.695 3.5035 4.704 3.5035.465 0 1.004-.1225 1.617-1.176.661-1.1515 1.004-2.352 1.127-2.8665zm-14.259-5.488c-.025 2.548-.27 3.6505-.368 3.8955-.147.343-.441.441-.906.441-.784 0-1.372-.0735-1.887-.147.196-1.127.343-2.009.49-4.1895z"/><path d="m28.2938 37.3276-2.254-2.2785c-.147.1715-.539.539-.8575.539h-16.48843v2.646h15.33693c-1.2985 2.2295-2.94 3.8955-4.459 5.292l2.2785 1.9355c2.6705-2.6215 5.243-6.37 6.4435-8.134zm-8.477 1.9355c0-.196-.0735-.196-.588-.2205l-2.8665-.147c.196 5.096-.9555 8.9915-6.1249 12.5685l2.6215 1.5435c1.2984-.9555 5.4389-4.018 6.2719-11.025.049-.3185.147-2.0335.196-2.0825.0245-.098.3185-.343.3675-.4165.0735-.098.1225-.147.1225-.2205z"/><path d="m47.1097 36.5926c-.6615-.8575-1.3965-1.5925-2.2785-2.205l-1.274 1.078c.8575.588 1.617 1.3475 2.2785 2.205zm-2.793 1.5925c-.686-.9065-1.421-1.5925-2.205-2.156l-1.3475 1.078c.784.5635 1.519 1.2495 2.205 2.156zm-.1225 7.0315c-2.0825-1.8375-4.606-3.675-7.889-5.096l-1.127 1.715v-6.3455c0-.1225.6125-.5145.6125-.6615 0-.294-.539-.392-.588-.392l-3.0379-.539v19.404h3.0134v-10.4615c2.646 1.1025 4.9735 2.8665 7.0805 4.8265z"/><path d="m70.1886 33.6036c0-.2205-.392-.294-.539-.294l-2.4745-.196v17.885c0 .7595-.6125.7595-.882.7595-.147 0-.931-.0245-1.9355-.0735l1.372 2.6215c2.793-.0735 3.9935-.1715 3.9935-2.6215v-17.3705c0-.1225.049-.1715.2205-.343.147-.147.245-.2695.245-.3675zm-4.3855 2.597c0-.2695-.539-.294-.7105-.294l-2.1805-.0735v13.524h2.45v-12.6175c.2695-.245.441-.3675.441-.539zm-3.675 5.9535v-2.3765h-5.0225v-1.6905h4.165v-2.3765h-4.165v-1.7395c.2205-.196.441-.343.441-.539s-.4165-.2694-.5635-.2694l-2.4499-.098v2.6459h-1.4455l.2205-.588c.2695-.098.539-.098.539-.343 0-.2205-.3675-.294-.441-.3185l-2.303-.4655c-.7105 2.303-1.5925 3.773-2.1315 4.5815l2.5725.735c.343-.6615.441-.882.588-1.225h2.401v1.6905h-5.1695v2.3765h5.1695v1.519h-4.2875v9.3345h2.5725v-6.9825h1.715v8.2075h2.5724v-8.2075h1.7395v3.773c0 .7105-.5145.686-1.568.686l1.1025 2.303c1.764-.294 3.0625-.49 3.0625-2.0335v-7.0805h-4.3365v-1.519z"/><path d="m94.8355 39.2386v-2.6215h-9.163c.098-.245.6615-1.715.7105-1.764s.392-.196.4655-.245c.1225-.0735.147-.1715.147-.245 0-.098-.098-.196-.2205-.245l-2.94-.882c-1.1515 3.9445-2.2295 5.9535-4.7039 8.526l2.5969 1.372c.931-1.1025 1.715-2.1315 2.6705-3.8955h.833v14.798h2.842v-4.655h6.37v-2.7195h-6.37v-2.45h5.586v-2.499h-5.586v-2.4745zm-13.524-4.851c0-.0735-.0735-.196-.245-.245l-3.2094-.7594c-1.274 4.0914-2.3765 6.0759-4.998 8.9179l2.45 1.519c.294-.3185.539-.588.8085-.931v11.172h2.7929v-14.5285c0-.196.2695-.392.3675-.441.098-.098.2695-.196.2695-.392 0-.098-.0735-.2205-.1225-.245l-.343-.1715c.784-1.47 1.029-2.0335 1.4455-3.0135.147-.343.196-.3675.588-.588.098-.0735.196-.1715.196-.294z"/><path d="m116.248 36.0781c0-.147-.196-.2695-.661-.392l-2.867-.686c-.073 1.47-.269 5.488-2.572 9.2365-2.622 4.263-6.321 5.88-7.718 6.468l2.622 2.0825c3.038-1.715 8.991-5.5615 10.461-15.0675.172-1.0535.196-1.176.392-1.2985.294-.196.343-.2205.343-.343zm-12.299 4.7285c-.563-1.225-1.494-3.0135-2.646-4.3855l-2.523 1.4455c1.1269 1.3475 2.058 3.1115 2.646 4.41z"/><path d="m134.403 34.3141c0-.294-.49-.3185-.613-.3185l-3.136-.1715c.123 1.96.172 5.3655.172 5.9535 0 7.399-2.107 9.7265-7.13 11.711l2.132 2.3765c2.548-1.2985 5.733-3.1115 7.178-7.448.784-2.3765.833-4.312.833-9.0895 0-.245-.049-1.3475-.024-1.568 0-.686 0-.7595.318-1.078.245-.196.27-.294.27-.3675zm-10.192.196c0-.2205-.441-.245-.637-.2695l-2.916-.245v11.564h2.916v-10.339c0-.0735.024-.098.392-.3675.098-.098.245-.2205.245-.343z"/><path d="m152.949 51.8071v-2.1805h-4.655l1.519-9.3835h-9.849v2.254h6.983l-1.152 7.1295h-8.967v2.1805z"/><path d="m173.137 45.2166v-3.1115h-17.419v3.1115z"/><path d="m186.122 35.7841c-1.347-1.0045-2.891-1.813-4.753-2.3765l-1.396 2.45c1.739.539 3.307 1.2985 4.753 2.3765zm9.163 6.0025-1.935-2.352c-4.116 5.978-8.453 9.1875-14.627 11.7355l1.299 2.352c.098.196.367.6615.612.6615.098 0 .147-.098.245-.441.049-.147.098-.2205.196-.2695 2.23-1.078 5.047-2.4745 8.404-5.292 3.234-2.7195 4.875-5.047 5.806-6.3945zm-11.686-.2695c-1.47-1.1515-3.038-1.96-4.876-2.5235l-1.396 2.45c2.082.637 3.601 1.5925 4.753 2.3765z"/><path d="m211.626 53.3261v-13.671h-12.445v2.107h10.093v3.234h-9.897v2.1315h9.897v3.234h-10.241v2.107h10.241v.8575z"/><path d="m222.774 37.6461c-1.544-1.274-3.528-2.3275-5.145-3.038l-1.495 2.303c1.96.882 3.626 1.9355 5.023 3.087zm11.662 2.548-1.691-2.45c-1.078 1.47-3.43 4.704-7.178 7.497-3.92 2.94-7.13 3.773-9.09 4.2385l1.715 2.94c.172.3185.392.4655.539.4655.196 0 .245-.4165.368-.7595 3.038-1.2985 5.365-2.3275 9.236-5.4635 3.234-2.6215 5.145-5.194 6.101-6.468z"/></g></svg>