<svg fill="none" height="150" viewBox="0 0 150 150" width="150" xmlns="http://www.w3.org/2000/svg"><g fill="#fff"><path clip-rule="evenodd" d="m75 147.835c40.226 0 72.835-32.609 72.835-72.835 0-40.2259-32.609-72.83537-72.835-72.83537-40.2259 0-72.83537 32.60947-72.83537 72.83537 0 40.226 32.60947 72.835 72.83537 72.835zm0 2.165c41.421 0 75-33.579 75-75 0-41.4214-33.579-75-75-75-41.4214 0-75 33.5786-75 75 0 41.421 33.5786 75 75 75z" fill-rule="evenodd"/><path d="m79.6247 34.5601h-3.948l-8.036 13.02v2.912h8.596v4.508h3.388v-4.508h2.744v-2.912h-2.744zm-9.044 13.02 5.656-9.184v9.184z"/><path d="m20.09 71.0091v1.904h-3.196v1.598h8.041v-1.598h-3.009v-1.139c0-.085.425-.425.425-.527 0-.119-.119-.153-.544-.17zm4.59 3.774v1.734h1.904c-.544 4.947-2.023 6.919-4.539 8.534l1.547 1.207c2.295-1.904 3.978-3.672 4.658-9.741h1.394c-.017 1.972-.119 3.808-.408 5.746-.204 1.36-.289 2.006-1.717 2.006-.323 0-.816-.051-1.054-.085l.765 1.887c1.819-.119 3.094-.221 3.502-2.261.408-2.074.595-6.715.612-9.027h-3.026v-2.635c0-.221.034-.238.238-.391.136-.102.153-.119.153-.204 0-.17-.34-.204-.493-.204l-1.581-.051v3.485zm-3.145 1.054c.731.663 1.649 1.547 2.482 2.771l1.241-1.003c-.68-1.003-1.462-1.819-2.482-2.72zm-2.142-1.003c-.884 1.054-1.7 1.768-2.907 2.533l1.377 1.105c.935-.748 1.428-1.241 2.193-2.142.153-.187.323-.374.459-.391.34-.051.374-.051.374-.153 0-.119-.238-.306-.51-.442zm-1.156 4.063c.578.595 1.496 1.768 1.768 2.108-.969 1.36-1.904 2.482-3.621 3.808l1.377 1.105c1.53-1.275 2.295-2.108 3.298-3.451.289.408.629.918 1.105 1.768l1.377-1.139c-.272-.459-.884-1.343-1.479-2.193.323-.612.493-.935.799-1.751.034-.085.119-.289.255-.306.289-.068.357-.085.357-.204 0-.136-.204-.289-.323-.34l-1.445-.646c-.272.731-.493 1.207-.782 1.785-.646-.782-.952-1.139-1.394-1.547z"/><path d="m39.266 80.4441c-1.224 1.224-2.924 2.686-5.525 3.689l1.326 1.411c2.499-1.411 3.417-2.023 5.1-3.672v4.063h1.649v-4.063c1.411 1.615 2.159 2.21 4.743 3.723l1.241-1.479c-2.261-1.02-3.655-1.87-5.321-3.672h5.797v-1.547h-6.46v-1.071h4.522v-6.29h-10.676v6.29h4.505v1.071h-6.477v1.547zm.901-6.443h-2.805v-1.105h2.805zm1.649 0v-1.105h2.839v1.105zm0 1.275h2.839v1.173h-2.839zm-1.649 0v1.173h-2.805v-1.173z"/><path d="m60.261 73.9501c.085-.272.306-1.496.391-1.768.017-.085.34-.408.34-.493 0-.153-.068-.153-.646-.238l-1.394-.187c-.051.51-.323 3.689-1.87 5.848v-3.264h-2.312c.119-.459.578-1.955.595-2.006s.272-.255.272-.323c0-.153-.051-.17-.578-.238l-1.462-.204c-.034.272-.238 1.513-.578 2.771h-1.853v11.781h1.7v-1.241h2.55v.85h1.666v-7.956l1.547.969c.595-.986 1.156-2.72 1.173-2.754h3.638c-.068 2.227-.136 4.811-.578 7.038-.255 1.224-.901 1.343-1.581 1.343-.238 0-.51-.017-.986-.034l.425 1.87c1.734-.034 2.873-.068 3.502-1.666.833-2.125.901-7.514.918-10.098zm-4.845 4.369h-2.55v-2.958h2.55zm0 4.556h-2.55v-3.043h2.55zm3.621-4.692c.544.748 1.105 1.87 1.479 3.026l1.547-.799c-.408-1.19-.867-2.006-1.581-3.043z"/><path d="m80.627 83.7591c-.731-.629-1.547-1.224-2.771-1.836 0-.357-.068-2.142-.068-2.55 0-.476 0-.748.799-1.411l-1.683-1.02c-.51.442-.85.867-.85 2.006 0 .34.051 1.972.068 2.346-.323-.085-.85-.204-1.581-.204-1.683 0-2.873 1.071-2.873 2.397 0 1.53 1.513 2.482 3.4 2.482 2.363 0 2.686-1.292 2.822-2.006.578.391 1.054.765 1.615 1.326zm-4.488-.697c-.034.476-.085 1.309-1.309 1.309-.476 0-1.496-.17-1.496-.901 0-.187.102-.816 1.088-.816.527 0 .969.136 1.717.408zm-2.584-12.019c-.221 1.071-.544 2.108-.867 3.111-.476.034-.918.068-1.394.068-.646 0-1.241-.068-1.615-.102l.085 1.802c.697-.017 1.615-.051 2.312-.085-.867 2.227-1.921 4.369-3.502 6.137l1.887.884c.102-.17 2.329-3.91 3.536-7.157 1.207-.136 1.989-.289 2.686-.476l.119-1.921c-.408.204-.901.357-2.193.612.102-.306.544-1.615.697-1.717.085-.051.374-.238.374-.289 0-.153-.357-.272-.544-.34zm8.126 5.406c-.799-.646-2.023-1.479-3.825-1.938l-.918 1.343c1.122.374 2.72 1.071 3.723 2.057z"/><path d="m89.671 73.1001c.442-.034 1.02-.119 1.547-.221.136-.034.374-.085.476-.102.119.034.459.187.544.187.119 0 .187-.068.187-.153 0-.102-.085-.221-.204-.408l-.765-1.139c-.646.238-1.989.748-4.947.748-.544 0-.918-.017-1.275-.034l.765 1.309c.884 0 1.377-.017 2.176-.068v.646h-3.349v1.224h3.349v.697h-2.737v4.522h2.737v.748h-2.873v1.19h2.873v1.003c-1.054.102-1.496.136-3.298.272l.204 1.462c.017.17.051.374.187.374.085 0 .323-.374.408-.408.272-.085 5.627-.731 6.681-.884-.357.442-.578.646-1.054 1.003l1.581 1.088c2.227-2.618 2.958-5.066 3.332-9.554h1.207c-.017 1.479-.085 6.375-.799 7.361-.17.221-.323.221-1.666.221l.782 1.7c1.122-.017 2.363-.051 2.805-2.244.187-.901.561-3.264.578-8.619h-2.805c0-.357-.017-2.176-.017-2.584 0-.221.017-.34.17-.442.289-.204.357-.272.357-.357 0-.17-.238-.187-.595-.204l-1.717-.085c.068.748.136 1.768.102 3.672h-1.394v1.581h1.309c-.221 3.961-1.292 5.95-1.887 7.072v-.85c-.425.034-2.499.238-2.975.289v-.867h2.958v-1.19h-2.958v-.748h2.822v-4.522h-2.822v-.697h3.264v-1.224h-3.264zm-1.496 4.488h-1.224v-.816h1.224zm2.856 0h-1.36v-.816h1.36zm-2.856.935v.85h-1.224v-.85zm2.856 0v.85h-1.36v-.85z"/><path d="m113.148 82.3481v-7.616h-3.383v-1.411h6.426v-1.547h-14.45v1.547h6.375v1.411h-3.298v7.616zm-5.032-4.556h-1.7v-1.598h1.7zm1.649 0v-1.598h1.734v1.598zm-1.649 1.411v1.683h-1.7v-1.683zm1.649 0h1.734v1.683h-1.734zm4.488 4.454h-10.523v-8.143c0-.102.034-.221.119-.272.238-.187.272-.204.272-.289 0-.187-.374-.221-.459-.221l-1.683-.136v11.186h1.751v-.663h10.523v.663h1.751v-10.472c0-.187.017-.238.153-.34.153-.119.17-.136.17-.204 0-.136-.17-.153-.493-.187l-1.581-.187z"/><path d="m131.423 76.3981c-1.139.816-2.55 1.411-2.975 1.581-.255-.969-.714-1.904-2.295-1.904-.731 0-1.207.187-1.479.289.306-.425.561-.833.884-1.479.799-.085 2.788-.323 4.097-.646l.204-1.819c-.901.408-2.601.748-3.502.85.068-.153.51-1.122.578-1.156.34-.238.374-.272.374-.357s0-.153-.612-.255l-1.649-.289c-.153.765-.442 1.564-.697 2.261-.697.017-.748.017-1.173.017-.748 0-1.462-.017-2.21-.102l.238 1.768c.799.034 2.176-.051 2.397-.068-.442.901-1.428 2.618-3.383 4.573l1.564 1.02c.782-1.224 2.176-3.196 3.74-3.196 1.003 0 1.224.799 1.343 1.207-1.564.799-4.063 2.04-4.063 4.454 0 2.38 2.788 2.601 4.726 2.601 1.598 0 2.822-.187 3.842-.357v-1.836c-2.295.527-3.774.595-4.386.595-1.003 0-2.414-.119-2.414-1.343 0-1.343 1.768-2.21 2.38-2.516 0 .425 0 .476-.085 2.686h1.921c-.017-1.105-.102-2.295-.17-3.417.493-.187 2.907-1.139 3.451-1.343z"/><path d="m46.355 109.796h1.615v-.816h4.692v-3.179h-6.307zm4.675-1.938h-3.06v-.969h3.06zm-5.525-5.015h8.041v-3.3149h-8.041zm6.29-2.159v1.003h-4.573v-1.003zm-1.309-3.4679v-.272c0-.102 0-.153.204-.306.204-.17.272-.255.272-.34 0-.119-.051-.119-.493-.153l-1.955-.119v1.19h-6.171v1.496h14.314v-1.496zm2.822 13.9229c2.006-.17 2.584-.221 2.584-1.751v-5.729h-12.733v7.327h1.785v-5.984h9.146v3.757c0 .289-.017.629-.629.629-.102 0-.544-.017-.935-.051z"/><path d="m72.246 104.492v-4.318h-3.315v-1.0369h4.505v-1.36h-4.505v-.544c0-.085 0-.17.136-.306.204-.187.272-.238.272-.323 0-.204-.204-.204-.765-.221l-1.224-.051v1.445h-4.131v1.36h4.131v1.0369h-3.247v4.318h2.142c-1.003 1.496-2.499 2.414-3.077 2.754l1.275 1.054c1.734-1.309 2.499-2.329 2.907-2.89v3.332h1.581v-3.23c1.207 1.445 2.567 2.261 3.383 2.703l1.19-1.156c-1.819-.901-2.89-1.717-3.706-2.567zm-4.896-3.009v1.649h-1.649v-1.649zm1.581 0h1.717v1.649h-1.717zm-9.486-3.3659c.765.561 1.411 1.105 2.193 2.0909l1.139-1.2239c-.714-.901-1.326-1.479-2.193-2.108zm14.45 10.7779c-2.21.221-5.134.357-7.616.357-1.241 0-3.485 0-3.485-1.768v-4.93h-3.621v1.547h1.972v3.774c-.867.714-1.972 1.326-2.431 1.581l.884 1.292c.119.17.289.34.408.34.034 0 .068-.017.102-.051.034-.051.068-.238.085-.323.051-.085 1.258-1.054 1.921-1.564.969 1.547 2.686 1.547 4.998 1.547h6.001z"/><path d="m85.336 101.262.425-.459c-.136-.085-.221-.136-.493-.289 1.326-.8669 2.414-1.5979 4.012-2.7539l-.833-.986h-10.506v1.547h7.701c-.493.391-1.037.782-2.023 1.428-.357-.187-1.411-.697-2.414-1.054l-.799 1.3259c1.275.493 1.904.782 2.635 1.241h-6.579v1.649h6.256v5.627c0 .34-.306.51-.629.51-.153 0-.68-.017-1.649-.221l.595 1.972h1.632c1.496 0 1.853-.612 1.853-2.006v-5.882h3.536c-.901 1.343-1.513 2.159-2.312 3.094l1.428 1.003c1.054-1.275 2.193-2.72 3.553-4.896l-1.037-.85z"/><path d="m97.474 97.9131v8.8739h4.998v-10.1149h-4.998v1.19c-.884-.799-1.921-1.292-2.397-1.513l-1.02 1.53c.765.323 1.768.901 2.482 1.479zm3.451 3.0599v1.53h-1.887v-1.53zm0-2.8389v1.53h-1.887v-1.53zm0 5.6779v1.564h-1.887v-1.564zm-4.573-2.244c-.782-.493-1.938-1.02-2.856-1.207l-.782 1.479c1.309.374 2.261.935 2.771 1.258zm-.646 2.482c-.527 1.632-1.632 3.842-2.839 5.44l1.53 1.224c.119.085.238.085.255.085.051 0 .153-.051.153-.204 0-.051-.068-.289-.068-.34s.17-.374.204-.425c.782-1.598 1.53-3.196 2.125-4.862zm4.743 3.757c.425.731 1.377 2.074 1.972 2.72l1.428-1.037c-.714-.663-1.598-1.853-2.023-2.567zm2.907-10.3529v9.1799h1.598v-8.1769c0-.153.102-.289.17-.374.034-.051.221-.238.221-.289 0-.136-.204-.17-.255-.17zm-4.709 9.5029c-.884 1.462-1.683 2.21-2.533 2.822l1.292 1.003c.816-.68 1.292-1.156 1.717-1.717.085-.136.51-.765.646-.901.051-.051.459-.221.459-.306 0-.068-.17-.17-.238-.204zm6.222 3.927c1.275-.017 2.771-.085 2.771-1.445v-11.9849c0-.136.068-.289.136-.374.119-.153.238-.289.238-.34 0-.119-.204-.136-.289-.153l-1.751-.187v12.0869c0 .629-.51.714-.986.714-.187 0-.527-.017-.85-.051z"/></g></svg>