<svg fill="none" height="48" viewBox="0 0 288 48" width="288" xmlns="http://www.w3.org/2000/svg"><g fill="#fff"><path clip-rule="evenodd" d="m133.082 40.5297h-125.29294v-.9179h125.53894l12.02 6.9505 12.029-6.9505h125.539v.9179h-125.293l-12.275 7.0927z" fill-rule="evenodd"/><path d="m.578125 13.8742h7.917055v4.8721h2.24702v-4.8721h7.9381v-2.016h-7.9381v-1.764h5.628v-8.98806h-13.71306v8.98806h5.83804v1.764h-7.917055zm13.608075-9.24003h-9.34505v-1.55401h9.34505zm0 3.46502h-9.34505v-1.70101h9.34505z"/><path d="m35.0184 17.3813c-1.638-2.1631-3.5911-4.4941-7.0561-7.0141-.903-.651-1.008-.714-1.008-.966 0-.357.84-1.07101 1.407-1.53301 1.953-1.65901 4.0741-3.44402 5.6491-5.22904.168-.189.189-.189.483-.231.21-.042.294-.126.294-.21 0-.147-.042-.189-.504-.588l-1.7221-1.470013c-1.323 2.184013-4.557 5.229033-5.166 5.796043-.336.315-1.911 1.65901-2.205 1.97401-.504.504-.672 1.00801-.672 1.51201 0 1.029.399 1.365 2.667 3.255 3.234 2.709 5.166 5.4391 5.8591 6.4051z"/><path d="m41.4444 15.5332c1.449 1.029 2.352 1.7011 3.36 3.3601l1.596-1.596c-.63-.819-1.848-2.1211-4.137-2.9611z"/><path d="m60.4915.62314c0 1.05001-.126 1.91101-.672 4.24203-.399.042-1.029.105-1.827.105-.945 0-1.533-.084-2.037-.168l.105 2.37302c1.344-.021 2.016-.063 3.213-.16801-.504 1.80602-1.785 6.21602-4.326 10.01712l2.394.903c1.113-2.3101 2.604-5.4181 4.305-11.23512 1.6171-.315 2.8351-.609 4.0951-1.17601l-.084-2.33101c-.525.315-1.218.735-3.3811 1.26001.0841-.31501.5671-2.35202.6301-2.43602.042-.063.336-.231.399-.294s.063-.168.063-.21c0-.147-.483-.29401-.651-.33601zm10.0591 6.82505c-.357-.084-.903-.231-2.814-.231-.483 0-2.919.084-3.465.105v2.28901c1.218-.294 2.583-.315 2.877-.315 1.092 0 2.352.21 3.402.42zm.105 7.66501c-.63.189-1.785.504-3.885.504-2.331 0-2.772-.504-2.772-1.302 0-.357.105-.588.189-.777l-2.1631-.525c-.147.609-.231 1.302-.231 1.932 0 2.2681 1.6591 2.8981 5.5651 2.8981.693 0 2.331 0 3.402-.231z"/><path d="m88.3587 17.3813c-1.638-2.1631-3.591-4.4941-7.056-7.0141-.903-.651-1.008-.714-1.008-.966 0-.357.84-1.07101 1.407-1.53301 1.953-1.65901 4.074-3.44402 5.649-5.22904.168-.189.189-.189.483-.231.21-.042.294-.126.294-.21 0-.147-.042-.189-.504-.588l-1.722-1.470013c-1.323 2.184013-4.557 5.229033-5.166 5.796043-.336.315-1.911 1.65901-2.205 1.97401-.504.504-.672 1.00801-.672 1.51201 0 1.029.399 1.365 2.667 3.255 3.234 2.709 5.166 5.4391 5.859 6.4051z"/><path d="m102.24 1.08514c.483 1.23901 1.302 3.29703 1.449 3.67503-2.562.63-4.1162.693-4.8722.693-.588 0-1.113-.042-1.491-.063l1.113 2.33102c2.8352-.147 4.3682-.54601 6.0902-1.00801.756 1.53301 1.197 2.31002 2.121 3.44402-1.386-.399-1.806-.525-2.835-.525-2.667 0-5.0822 1.512-5.0822 4.368 0 3.3391 2.8562 4.4101 7.2242 4.4101.987 0 1.848-.063 2.373-.105l-.315-2.3311c-1.491.168-1.764.21-2.646.21-2.226 0-4.326-.252-4.326-2.247 0-1.974 2.205-2.205 3.129-2.205 2.289 0 3.99 1.218 4.83 1.827l1.596-2.121c-1.806-1.638-2.73-2.89801-4.011-5.37602 1.638-.58801 2.667-1.02901 3.675-1.55401l-1.281-2.03702c-1.071.77701-2.016 1.15501-3.234 1.63801-.672-1.89001-.756-2.68801-.756-2.70901 0-.08401.21-.483009.21-.56701 0-.126-.126-.168-.21-.168-.063 0-.588.105-.714.126z"/><path d="m118.746 17.4653c.609-1.8691 1.449-3.8011 2.562-5.1661 1.029-1.281 2.52-1.911 3.339-1.911.441 0 .945.168.945 1.239 0 .588-.504 3.171-.504 3.696 0 .567.315 2.4571 2.73 2.4571 2.457 0 4.095-1.8061 5.565-3.5281l-1.281-1.974c-.651.882-2.268 3.024-3.906 3.024-.693 0-.798-.546-.798-.903 0-.63.546-3.36.546-3.927 0-.504-.126-2.33101-2.31-2.33101-1.26 0-2.352.54601-2.961.88201 1.071-1.89002 3.255-5.73304 3.654-5.96404.063-.042.42-.147.483-.168.105-.042.126-.12601.126-.16801 0-.168-.357-.378-.588-.525l-2.079-1.218007c-1.176 2.877017-2.541 5.397037-4.704 9.408057-1.176 2.163-2.457 4.557-3.36 6.5731z"/><path d="m135.945 15.5332c1.449 1.029 2.352 1.7011 3.36 3.3601l1.596-1.596c-.63-.819-1.848-2.1211-4.137-2.9611z"/><path d="m166.332 9.8212v-1.91101h-9.471c.168-.315.924-1.80601 1.071-1.97401.063-.084.651-.42001.651-.54601 0-.105-.042-.126-.399-.294l-1.848-.88201h7.308v2.41502h2.289v-4.26303h-7.266v-.651c0-.168 0-.252.147-.37801.147-.147.273-.294.273-.419999 0-.189002-.168-.189001-.525-.210001l-2.163-.126v1.78501h-7.329v4.26303h2.1v-2.41502h4.935c-.336 1.26001-1.197 2.83502-1.68 3.69603h-5.943v1.91101h4.872c-1.554 2.604-2.037 3.171-2.478 3.675l2.205.924c.147-.231.483-.735.651-1.071 1.365.42 2.142.714 2.877 1.05-2.667 1.575-4.767 2.0791-7.623 2.1631l1.134 2.1c3.78-.567 5.985-1.302 8.589-3.1921 1.617.903 2.772 1.6171 4.473 3.1291l1.827-1.659c-1.617-1.2391-2.814-1.9741-4.662-3.0031 1.134-1.302 1.26-1.554 2.499-4.116zm-5.964 0c-.504 1.365-1.008 2.121-2.058 3.213-1.113-.462-1.764-.735-3.675-1.134.462-.756.672-1.113 1.155-2.079z"/><path d="m182.859 17.3813c-1.638-2.1631-3.591-4.4941-7.056-7.0141-.903-.651-1.008-.714-1.008-.966 0-.357.84-1.07101 1.407-1.53301 1.953-1.65901 4.074-3.44402 5.649-5.22904.168-.189.189-.189.483-.231.21-.042.294-.126.294-.21 0-.147-.042-.189-.504-.588l-1.722-1.470013c-1.323 2.184013-4.557 5.229033-5.166 5.796043-.336.315-1.911 1.65901-2.205 1.97401-.504.504-.672 1.00801-.672 1.51201 0 1.029.399 1.365 2.667 3.255 3.234 2.709 5.166 5.4391 5.859 6.4051z"/><path d="m193.737.70714c-.777 2.39402-2.289 5.31304-4.284 7.60205l1.659 1.55401c.651-.777.924-1.218 1.176-1.59601v10.33211h2.142v-12.57912c0-.105 0-.168.168-.294.357-.29401.399-.33601.399-.44101 0-.168-.315-.336-.651-.483.567-1.09201 1.092-2.10002 1.302-2.60402.084-.147.126-.231.252-.294.42-.21.483-.252.483-.399 0-.084 0-.18901-.441-.29401zm4.557-.063c-.651 2.87702-2.058 5.41804-3.822 7.43405l1.869 1.23901c.462-.567 1.134-1.38601 2.331-3.75903h.882v13.04113h2.122v-4.2421h5.67v-2.1h-5.67v-2.30999h5.019v-2.10002h-5.019v-2.28902h5.964v-1.91101h-8.023c.168-.399.777-1.80601 1.008-1.91101.189-.084.358-.168.358-.252 0-.126-.189-.25201-.442-.31501z"/><path d="m217.384 4.67617c.084-.92401.189-2.31002.357-2.68802.021-.084.378-.357.378-.462 0-.147-.021-.23101-.714-.35701l-2.121-.399c.126.546.252 1.30201.252 2.47802 0 .63-.021 1.28101-.084 2.03701-1.575.65101-2.499.92401-4.074 1.09201l.924 2.39402c1.596-.56701 2.31-.84001 2.961-1.11301-.084 1.30201-.105 1.44901-.126 1.70101-1.386 2.52-2.898 4.137-3.885 5.145l2.205 1.428c.714-1.239 1.449-2.394 1.575-2.604-.021 1.302-.084 3.5281-.21 4.9981l2.436-.084c-.252-2.6041-.21-6.3841-.168-7.8751.882-1.071 3.339-3.86402 4.494-3.86402.315 0 .882.315.882 1.49101 0 .189-.588 5.39701-.588 6.42601 0 2.0791 1.05 2.9611 2.268 2.9611.945 0 2.415-.441 3.801-1.8901l-.714-2.394c-.987 1.134-1.701 1.743-2.331 1.743-.819 0-.819-1.155-.819-1.344 0-.672.063-1.449.294-3.234.357-2.66701.378-2.89801.378-3.46502 0-1.53301-.924-2.66702-2.31-2.66702-.819 0-1.449.29401-2.646 1.19701-.294.21-1.554 1.36501-1.869 1.61701.126-.252.777-1.407.924-1.65901l-.945-.924z"/><path d="m234.037 13.5592c2.415-2.646 3.948-4.347 6.846-4.347s3.381 1.743 3.381 2.94c0 1.617-.861 2.352-1.512 2.898-.294-.651-1.239-2.751-4.011-2.751-2.352 0-3.276 1.47-3.276 2.835 0 2.6881 2.898 3.0451 4.305 3.0451 3.801 0 6.741-2.3731 6.741-6.0061 0-1.764-.798-4.85101-4.977-4.85101-.798 0-1.365.126-1.743.231 2.184-2.49902 3.36-3.82203 4.641-4.76704l-.966-1.65901c-1.848.77701-5.565 1.09201-6.762 1.09201-.588 0-1.596-.063-2.184-.105l.357 2.41502c2.226-.147 2.877-.21001 4.998-.48301-2.1 2.98202-4.746 5.52304-7.623 7.77004zm6.783 2.457c-.252.084-.735.21-1.302.21-.903 0-2.016-.357-2.016-1.155 0-.525.546-.987 1.218-.987 1.533 0 1.911 1.302 2.1 1.932z"/><path d="m254.26 17.3603c2.205-2.7511 3.675-6.1951 4.599-9.93311 1.239-.21 1.806-.231 2.016-.231.609 0 1.155.189 1.155 1.63801 0 1.659-.294 3.108-.945 4.788-.525 1.407-1.008 1.617-1.596 1.617-.63 0-1.344-.252-1.932-.441v2.2681c.357.147.945.399 1.89.399 2.604 0 3.297-1.8061 3.612-2.6461.231-.588 1.134-3.087 1.134-6.21601 0-2.58301-1.05-3.48602-2.94-3.48602-.63 0-1.26.084-1.89.189.147-.714.546-2.64602.609-2.89802.063-.105.315-.294.399-.357.042-.042.042-.084.042-.147 0-.147-.126-.189-.756-.315l-2.142-.46201c0 1.51201-.105 2.83502-.42 4.53603-1.596.25201-3.003.46201-4.557.58801l.672 2.52002c1.092-.39901 1.848-.56701 3.36-.90301-.882 3.08701-2.31 6.00601-4.494 8.35801zm11.991-5.5231c1.806-.378 2.919-.777 2.919-2.058 0-.42-.168-2.81402-3.297-6.51004l-1.638 1.17601c2.289 2.96102 2.478 4.20003 2.478 4.49403 0 .525-.378.588-1.407.735z"/><path d="m284.122 3.22716c-1.911-1.30201-3.633-2.03702-5.376-2.56202l-.882 2.10001c1.869.60901 3.381 1.26001 5.082 2.58302zm-7.161 10.20604c.651-.798 1.239-1.512 2.352-2.226.945-.609 2.268-1.176 3.423-1.176.861 0 2.52.504 2.52 2.499 0 3.57-5.565 3.675-6.615 3.675-.693 0-1.323-.042-1.743-.063l.903 2.3311c2.709-.063 9.807-.273 9.807-5.8591 0-2.73-1.806-4.64101-4.725-4.64101-2.436 0-4.242 1.23901-5.187 1.86901.147-1.05.357-2.45701 1.407-4.80903l-2.121-.94501c-.966 2.16302-1.386 4.03203-1.911 8.16904z"/></g></svg>