<svg width="275" height="86" viewBox="0 0 275 86" fill="none" xmlns="http://www.w3.org/2000/svg">
<path d="M6.73458 2.58504L0.524536 19.0102H3.65206L4.86707 15.4776H11.9546L13.1921 19.0102H16.2972L10.0871 2.58504H6.73458ZM8.4221 5.24006L11.1446 13.1151H5.67707L8.4221 5.24006Z" fill="white"/>
<path d="M23.3575 2.58504V19.0102H26.1925V2.58504H23.3575Z" fill="white"/>
<path d="M39.3528 12.4176L44.5953 17.6601L46.2154 16.0401L40.9728 10.7976L46.2154 5.55506L44.5953 3.93505L39.3528 9.17759L34.1103 3.93505L32.4902 5.55506L37.7328 10.7976L32.4902 16.0401L34.1103 17.6601L39.3528 12.4176Z" fill="white"/>
<path d="M67.0955 5.42006C63.2255 7.42257 59.6479 8.16508 57.8254 8.48008V3.12504C57.8254 2.99004 57.8254 2.85504 58.0054 2.72004C58.2079 2.54004 58.3654 2.40504 58.3654 2.27004C58.3654 2.02253 58.0054 1.93253 57.5104 1.86503L55.3054 1.55003V14.9151C55.3054 17.7952 55.6654 19.0102 62.753 19.0102C65.633 19.0102 68.018 18.7402 69.2105 18.6052V15.8826C66.938 16.2651 65.2505 16.5351 62.8655 16.5351C61.943 16.5351 59.0629 16.4451 58.3879 16.0626C57.8254 15.7476 57.8254 15.0051 57.8254 14.3976V10.7526C61.3355 10.0776 64.553 9.26759 67.6355 7.94008C67.883 7.82758 68.1305 7.82758 68.6255 7.82758C68.7155 7.82758 68.8955 7.78258 68.8955 7.64758C68.8955 7.53507 68.8505 7.44508 68.3555 6.88257L67.0955 5.42006Z" fill="white"/>
<path d="M81.1581 8.84009V2.81004C81.1581 2.67504 81.1581 2.65254 81.4281 2.42754C81.5181 2.36004 81.6306 2.24754 81.6306 2.13503C81.6306 1.95503 81.3831 1.86503 80.7081 1.75253L78.6831 1.41503V19.6177H81.1581V9.85259C82.9131 10.6401 84.9831 11.5401 87.6607 14.6001L89.3032 12.3276C87.0982 10.1226 84.7806 8.57008 81.9681 7.37757L81.1581 8.84009Z" fill="white"/>
<path d="M106.898 19.3027C108.586 18.6727 113.648 16.7826 113.648 10.4826C113.648 5.75756 110.363 2.40504 105.166 2.40504C99.4508 2.40504 95.4682 6.77007 95.4682 11.7201C95.4682 16.2201 98.7082 18.2002 100.103 18.2002C101.431 18.2002 102.511 15.7476 102.736 15.2301C104.626 10.9776 105.166 7.19757 105.526 4.54255C106.853 4.74506 111.128 5.37506 111.128 10.4601C111.128 15.5901 106.628 16.8276 105.211 17.2326L106.898 19.3027ZM102.983 4.79006C102.758 7.80508 102.016 10.7976 100.823 13.5876C100.531 14.2626 100.126 15.1851 99.6308 15.1851C98.8433 15.1851 97.6957 13.7226 97.6957 11.7201C97.6957 10.1676 98.2582 6.41007 102.983 4.79006Z" fill="white"/>
<path d="M125.641 6.95007V3.41754H123.998C124.043 2.90004 124.133 1.70753 125.573 1.41503V0.0200195C124.943 0.13252 122.603 0.537524 122.603 3.64255V6.95007H125.641ZM129.803 6.95007V3.41754H128.161C128.206 2.90004 128.296 1.70753 129.736 1.41503V0.0200195C129.106 0.13252 126.766 0.537524 126.766 3.64255V6.95007H129.803Z" fill="white"/>
<path d="M141.459 19.6852H144.069V7.78258C145.351 6.74757 146.589 5.69006 147.669 4.54255C148.479 3.66505 148.569 3.55255 148.771 3.55255C149.401 3.55255 149.469 3.55255 149.469 3.35004C149.469 3.14754 149.379 3.10254 148.749 2.54004L147.061 1.07753C145.104 3.50755 140.761 8.27758 133.696 10.8876L135.654 13.0026C137.476 12.1926 139.164 11.2476 141.459 9.69509V19.6852Z" fill="white"/>
<path d="M163.959 19.6852H166.569V7.78258C167.851 6.74757 169.089 5.69006 170.169 4.54255C170.979 3.66505 171.069 3.55255 171.271 3.55255C171.901 3.55255 171.969 3.55255 171.969 3.35004C171.969 3.14754 171.879 3.10254 171.249 2.54004L169.561 1.07753C167.604 3.50755 163.261 8.27758 156.196 10.8876L158.154 13.0026C159.976 12.1926 161.664 11.2476 163.959 9.69509V19.6852Z" fill="white"/>
<path d="M186.459 8.84009V2.81004C186.459 2.67504 186.459 2.65254 186.729 2.42754C186.819 2.36004 186.931 2.24754 186.931 2.13503C186.931 1.95503 186.684 1.86503 186.009 1.75253L183.984 1.41503V19.6177H186.459V9.85259C188.214 10.6401 190.284 11.5401 192.961 14.6001L194.604 12.3276C192.399 10.1226 190.081 8.57008 187.269 7.37757L186.459 8.84009Z" fill="white"/>
<path d="M216.992 4.02505H202.389V6.50007H214.337V14.5326H202.389V17.0076H214.337V17.9077H216.992V4.02505Z" fill="white"/>
<path d="M239.582 5.37506C239.087 4.74506 238.434 4.02505 237.197 3.32754L236.139 4.36255C237.062 5.01506 237.804 5.64506 238.434 6.43257L239.582 5.37506ZM242.327 3.84505C241.269 2.51754 240.414 1.93253 239.874 1.61753L238.884 2.67504C239.897 3.44005 240.572 4.11505 241.179 4.83505L242.327 3.84505ZM231.279 8.84009V2.81004C231.279 2.67504 231.279 2.65254 231.549 2.42754C231.639 2.36004 231.752 2.24754 231.752 2.13503C231.752 1.95503 231.504 1.86503 230.829 1.75253L228.804 1.41503V19.6177H231.279V9.85259C233.034 10.6401 235.104 11.5401 237.782 14.6001L239.424 12.3276C237.219 10.1226 234.902 8.57008 232.089 7.37757L231.279 8.84009Z" fill="white"/>
<path d="M248.897 12.5301H251.462V2.90004C251.462 2.76504 251.912 2.33754 251.912 2.22504C251.912 2.02253 251.642 1.97753 250.922 1.93253L248.897 1.82003V12.5301ZM257.987 8.25508C257.987 14.8701 254.724 16.8051 251.574 17.9077L253.374 20.1127C255.377 19.0777 259.652 16.8501 260.304 11.2926C260.484 9.67259 260.619 4.76755 260.619 2.94504C260.619 2.54004 260.619 2.51754 260.777 2.36004C260.979 2.18004 261.114 2.06753 261.114 1.97753C261.114 1.66253 260.822 1.66253 260.237 1.64003L257.987 1.52753V8.25508Z" fill="white"/>
<path d="M271.667 0.290022V3.82255H273.31C273.265 4.36255 273.175 5.55506 271.735 5.82506V7.22007C272.365 7.10757 274.705 6.72507 274.705 3.59755V0.290022H271.667ZM267.505 0.290022V3.82255H269.147C269.102 4.36255 269.012 5.55506 267.572 5.82506V7.22007C268.202 7.10757 270.542 6.72507 270.542 3.59755V0.290022H267.505Z" fill="white"/>
<path d="M85.2004 33.4653C85.1779 35.0403 84.9304 36.1653 84.5029 38.0553C83.6479 38.1678 82.9729 38.2128 82.0954 38.2128C81.5554 38.2128 80.9029 38.1903 80.3179 38.0778L80.3404 40.6203C81.2404 40.5978 82.8829 40.4853 83.8954 40.4403C83.4904 41.9703 81.9604 47.4379 79.2604 51.1729L81.8479 52.0729C83.9629 48.0229 85.3579 43.8153 86.3929 40.0578C87.9454 39.7878 89.6104 39.3603 90.7129 38.8203V36.2778C89.6554 36.9753 87.9904 37.4253 87.0454 37.6278C87.1579 37.2228 87.6529 35.1303 87.6979 35.0403C87.7879 34.9503 88.0354 34.7928 88.1254 34.7028C88.1929 34.6353 88.2154 34.5678 88.2154 34.5003C88.2154 34.3203 87.7879 34.1628 87.5404 34.0953L85.2004 33.4653ZM95.9555 40.8678C95.3255 40.7328 94.6055 40.5528 92.9405 40.5528C92.4005 40.5528 89.8129 40.7103 89.2279 40.7328V43.1853C89.7679 43.0728 90.8254 42.8478 92.243 42.8478C93.8855 42.8478 95.258 43.1403 95.9555 43.2978V40.8678ZM94.7855 36.5478C94.313 35.8953 93.6605 35.0628 92.603 34.3203L91.523 35.2653C92.3105 35.9178 92.963 36.5703 93.6605 37.5153L94.7855 36.5478ZM96.1355 49.0579C94.7405 49.4629 93.6155 49.5979 92.198 49.5979C89.4304 49.5979 88.9579 49.1929 88.9579 48.2704C88.9579 47.8654 89.0704 47.5954 89.1379 47.4379L86.9104 46.8754C86.8204 47.3479 86.6629 48.1579 86.6629 49.0129C86.6629 51.0154 87.7204 51.9829 92.558 51.9829C94.718 51.9829 95.7305 51.8254 96.248 51.7354L96.1355 49.0579ZM97.373 35.3553C96.833 34.3428 95.843 33.5328 95.393 33.1953L94.268 34.1178C94.808 34.5678 95.438 35.1528 96.158 36.2328L97.373 35.3553Z" fill="white"/>
<path d="M103.966 51.2854C106.328 48.3379 107.903 44.6479 108.893 40.6428C110.221 40.4178 110.828 40.3953 111.053 40.3953C111.706 40.3953 112.291 40.5978 112.291 42.1503C112.291 43.9278 111.976 45.4804 111.278 47.2804C110.716 48.7879 110.198 49.0129 109.568 49.0129C108.893 49.0129 108.128 48.7429 107.498 48.5404V50.9704C107.881 51.1279 108.511 51.3979 109.523 51.3979C112.313 51.3979 113.056 49.4629 113.393 48.5629C113.641 47.9329 114.608 45.2554 114.608 41.9028C114.608 39.1353 113.483 38.1678 111.458 38.1678C110.783 38.1678 110.108 38.2578 109.433 38.3703C109.591 37.6053 110.018 35.5353 110.086 35.2653C110.153 35.1528 110.423 34.9503 110.513 34.8828C110.558 34.8378 110.558 34.7928 110.558 34.7253C110.558 34.5678 110.423 34.5228 109.748 34.3878L107.453 33.8928C107.453 35.5128 107.341 36.9303 107.003 38.7528C105.293 39.0228 103.786 39.2478 102.121 39.3828L102.841 42.0828C104.011 41.6553 104.821 41.4753 106.441 41.1153C105.496 44.4228 103.966 47.5504 101.626 50.0704L103.966 51.2854ZM116.813 45.3679C118.748 44.9629 119.941 44.5354 119.941 43.1628C119.941 42.7128 119.761 40.1478 116.408 36.1878L114.653 37.4478C117.106 40.6203 117.308 41.9478 117.308 42.2628C117.308 42.8253 116.903 42.8928 115.801 43.0503L116.813 45.3679Z" fill="white"/>
<path d="M136.411 36.1428C134.363 34.7478 132.518 33.9603 130.651 33.3978L129.706 35.6478C131.708 36.3003 133.328 36.9978 135.151 38.4153L136.411 36.1428ZM128.738 47.0779C129.436 46.2229 130.066 45.4579 131.258 44.6929C132.271 44.0403 133.688 43.4328 134.926 43.4328C135.848 43.4328 137.626 43.9728 137.626 46.1104C137.626 49.9354 131.663 50.0479 130.538 50.0479C129.796 50.0479 129.121 50.0029 128.671 49.9804L129.638 52.4779C132.541 52.4104 140.146 52.1854 140.146 46.2004C140.146 43.2753 138.211 41.2278 135.083 41.2278C132.473 41.2278 130.538 42.5553 129.526 43.2303C129.683 42.1053 129.908 40.5978 131.033 38.0778L128.761 37.0653C127.726 39.3828 127.276 41.3853 126.713 45.8179L128.738 47.0779Z" fill="white"/>
<path d="M163.523 34.3203C158.123 35.7378 152.566 36.3228 147.008 36.7053L147.458 39.2028C149.168 38.9553 150.541 38.7753 152.138 38.5278C152.768 38.4378 155.896 37.9428 156.616 37.8753C154.771 39.4278 151.846 41.8803 151.846 45.9079C151.846 47.8654 152.971 49.8679 155.266 51.1279C156.211 51.6454 157.358 52.0504 159.653 52.3879L160.486 49.7329C158.123 49.6654 154.433 49.2604 154.433 45.4129C154.433 42.1728 157.403 39.7878 158.641 38.9103C160.643 37.5153 162.196 37.1553 163.636 36.8628L163.523 34.3203ZM163.456 42.5553C162.443 41.5653 161.408 40.9353 160.936 40.6428L160.058 41.7903C161.071 42.4428 161.723 43.0053 162.443 43.7253L163.456 42.5553ZM165.144 40.4178C164.244 39.5403 163.523 39.0228 162.781 38.5728L161.881 39.5853C162.691 40.1253 163.523 40.7328 164.198 41.4978L165.144 40.4178Z" fill="white"/>
<path d="M182.829 34.2978C181.411 35.3328 180.264 35.7603 178.801 36.2553C178.689 35.9403 178.261 34.5903 178.261 34.3653C178.261 34.2753 178.531 33.8928 178.531 33.8028C178.531 33.5553 178.441 33.5553 177.699 33.5553H175.246C175.584 34.1853 176.214 35.8728 176.551 36.7953C175.696 36.9528 174.279 37.2003 172.749 37.2003C171.871 37.2003 171.354 37.1328 170.949 37.0878L171.669 39.3828C173.649 39.3828 174.999 39.2703 177.316 38.7528C177.721 39.7878 177.834 40.0353 178.104 40.6653C177.249 40.8678 174.796 41.4978 172.636 41.4978C171.826 41.4978 171.174 41.4078 170.701 41.3628L171.511 43.5903C174.886 43.5453 176.686 43.1403 179.026 42.5778C179.656 43.7928 180.039 44.3553 180.556 45.0304C179.679 44.7829 178.531 44.4454 176.979 44.4454C174.211 44.4454 171.871 45.6379 171.871 48.4954C171.871 51.4429 174.504 52.4554 178.666 52.4554C180.376 52.4554 181.569 52.2754 182.379 52.1404V49.6879C180.759 50.0029 179.566 50.2504 177.991 50.2504C176.169 50.2504 174.234 49.9129 174.234 48.3829C174.234 47.0554 175.809 46.3354 177.226 46.3354C177.721 46.3354 180.039 46.3354 182.761 48.2029L184.404 46.3354C182.851 44.6704 182.334 43.9053 181.254 41.9028C183.009 41.2953 183.909 40.8903 185.214 40.2153L184.651 37.8303C183.369 38.7753 182.086 39.3378 180.309 39.9903C179.859 39.0003 179.724 38.6628 179.521 38.1678C181.209 37.6053 181.794 37.3578 183.459 36.6378L182.829 34.2978Z" fill="white"/>
<path d="M194.349 47.2129C196.936 44.3778 198.579 42.5553 201.684 42.5553C204.789 42.5553 205.306 44.4228 205.306 45.7054C205.306 47.4379 204.384 48.2254 203.686 48.8104C203.371 48.1129 202.359 45.8629 199.389 45.8629C196.869 45.8629 195.879 47.4379 195.879 48.9004C195.879 51.7804 198.984 52.1629 200.491 52.1629C204.564 52.1629 207.714 49.6204 207.714 45.7279C207.714 43.8378 206.859 40.5303 202.381 40.5303C201.526 40.5303 200.919 40.6653 200.514 40.7778C202.854 38.1003 204.114 36.6828 205.486 35.6703L204.451 33.8928C202.471 34.7253 198.489 35.0628 197.206 35.0628C196.576 35.0628 195.496 34.9953 194.866 34.9503L195.249 37.5378C197.634 37.3803 198.331 37.3128 200.604 37.0203C198.354 40.2153 195.519 42.9378 192.436 45.3454L194.349 47.2129ZM201.616 49.8454C201.346 49.9354 200.829 50.0704 200.221 50.0704C199.254 50.0704 198.061 49.6879 198.061 48.8329C198.061 48.2704 198.646 47.7754 199.366 47.7754C201.009 47.7754 201.414 49.1704 201.616 49.8454Z" fill="white"/>
<path d="M86.6667 67.5855H83.4942L77.0366 78.0481V80.3881H83.9442V84.0106H86.6667V80.3881H88.8717V78.0481H86.6667V67.5855ZM79.3991 78.0481L83.9442 70.668V78.0481H79.3991Z" fill="white"/>
<path d="M100.677 83.2906C104.164 82.4356 105.604 81.9631 107.382 80.7706C109.182 79.5331 110.464 77.4406 110.464 74.9206C110.464 71.748 108.282 69.0255 104.592 69.0255C102.792 69.0255 102.184 69.2505 97.0092 71.028C94.6242 71.8606 92.9592 72.1531 91.9917 72.3331L93.2292 74.9206C94.2642 74.6056 95.0067 74.3806 96.9642 73.6381C101.959 71.703 102.837 71.3655 104.299 71.3655C106.437 71.3655 107.967 72.8281 107.967 74.8756C107.967 78.5656 104.187 80.2081 99.2367 80.6356L100.677 83.2906Z" fill="white"/>
<path d="M126.372 84.3031C128.059 83.6731 133.122 81.7831 133.122 75.4831C133.122 70.758 129.837 67.4055 124.639 67.4055C118.924 67.4055 114.942 71.7705 114.942 76.7206C114.942 81.2206 118.182 83.2006 119.577 83.2006C120.904 83.2006 121.984 80.7481 122.209 80.2306C124.099 75.9781 124.639 72.1981 124.999 69.543C126.327 69.7455 130.602 70.3755 130.602 75.4606C130.602 80.5906 126.102 81.8281 124.684 82.2331L126.372 84.3031ZM122.457 69.7905C122.232 72.8056 121.489 75.7981 120.297 78.5881C120.004 79.2631 119.599 80.1856 119.104 80.1856C118.317 80.1856 117.169 78.7231 117.169 76.7206C117.169 75.1681 117.732 71.4105 122.457 69.7905Z" fill="white"/>
<path d="M149.255 67.473C148.445 70.488 147.32 72.333 146.555 73.5931C145.295 72.423 144.417 71.7256 143.067 70.8255L141.47 72.8281C142.977 73.8631 144.08 74.8531 144.98 75.7081C141.65 79.6456 138.297 80.9056 137.262 81.2881L139.4 83.4481C140.907 82.6606 143.945 80.9956 146.825 77.6431C147.207 78.0706 148.4 79.4656 149.142 80.9281L151.122 78.9931C150.267 77.7556 149.48 76.7881 148.422 75.5506C149.862 73.3456 150.087 72.8281 151.28 69.8355C151.37 69.633 151.392 69.6105 151.865 69.4755C152.112 69.408 152.202 69.3405 152.202 69.228C152.202 69.003 151.977 68.8905 151.437 68.598L149.255 67.473Z" fill="white"/>
<path d="M159.695 77.5306H162.26V67.9005C162.26 67.7655 162.71 67.338 162.71 67.2255C162.71 67.023 162.44 66.978 161.72 66.933L159.695 66.8205V77.5306ZM168.785 73.2556C168.785 79.8706 165.522 81.8056 162.372 82.9081L164.172 85.1131C166.175 84.0781 170.45 81.8506 171.102 76.2931C171.282 74.6731 171.417 69.768 171.417 67.9455C171.417 67.5405 171.417 67.518 171.575 67.3605C171.777 67.1805 171.912 67.068 171.912 66.978C171.912 66.663 171.62 66.663 171.035 66.6405L168.785 66.528V73.2556Z" fill="white"/>
<path d="M180.642 75.6631C179.855 73.5256 179.157 72.5806 178.842 72.1756L177.042 72.9181C177.762 73.9756 178.325 74.9656 178.797 76.3381L180.642 75.6631ZM184.782 74.7631C184.355 73.4131 183.882 72.2656 183.095 71.0955L181.385 71.8155C182.06 72.8956 182.577 73.9306 182.937 75.3706L184.782 74.7631ZM181.43 84.3481C187.865 81.2881 189.147 76.2256 190.047 72.8731C190.092 72.6706 190.137 72.603 190.317 72.4905C190.452 72.4005 190.587 72.3106 190.587 72.1756C190.587 72.0406 190.43 71.9731 189.912 71.8155L188.202 71.298C187.032 77.2156 185.052 80.6131 179.72 82.7731L181.43 84.3481Z" fill="white"/>
<path d="M199.632 73.8406V67.8105C199.632 67.6755 199.632 67.653 199.902 67.428C199.992 67.3605 200.105 67.248 200.105 67.1355C200.105 66.9555 199.857 66.8655 199.182 66.753L197.157 66.4155V84.6181H199.632V74.8531C201.388 75.6406 203.458 76.5406 206.135 79.6006L207.778 77.3281C205.573 75.1231 203.255 73.5706 200.442 72.3781L199.632 73.8406Z" fill="white"/>
</svg>
