<svg width="150" height="150" viewBox="0 0 150 150" fill="none" xmlns="http://www.w3.org/2000/svg">
<path fill-rule="evenodd" clip-rule="evenodd" d="M75 147.835C115.226 147.835 147.835 115.226 147.835 75C147.835 34.7741 115.226 2.16463 75 2.16463C34.7741 2.16463 2.16463 34.7741 2.16463 75C2.16463 115.226 34.7741 147.835 75 147.835ZM75 150C116.421 150 150 116.421 150 75C150 33.5786 116.421 0 75 0C33.5786 0 0 33.5786 0 75C0 116.421 33.5786 150 75 150Z" fill="white"/>
<path d="M71.4246 52.088C72.0126 50.632 72.5446 49.764 75.7646 47.608C78.7886 45.592 81.1406 43.716 81.1406 40.356C81.1406 37.976 79.7406 34.196 74.6446 34.196C68.1766 34.196 67.9246 39.656 67.8686 41.504H71.2846C71.3406 39.684 71.6206 37.164 74.6166 37.164C77.0526 37.164 77.6686 39.068 77.6686 40.44C77.6686 42.036 76.8846 43.268 73.8326 45.284C69.1286 48.364 67.7846 50.772 67.2246 55H81.1966V52.088H71.4246Z" fill="white"/>
<path d="M38.6979 80.019C38.6129 81.328 38.5109 81.719 37.7289 81.719H35.9269C35.5529 81.719 35.3829 81.532 35.3829 81.192V77.724H39.4459V72.352H33.6319V73.95H37.6439V76.228H33.6829V82.28C33.6829 82.892 34.0059 83.368 34.7879 83.368H37.7969C39.7349 83.368 39.9389 82.501 40.2959 80.784L38.6979 80.019ZM47.9119 84.371C46.8409 83.912 45.5999 83.198 44.4949 81.787C46.0249 79.39 46.4329 76.704 46.5689 75.293H47.8439V73.78H42.8289C42.8799 73.61 42.9309 73.423 42.9989 73.032C43.1179 72.42 43.1349 72.352 43.2199 72.267C43.2709 72.199 43.6619 71.927 43.6619 71.842C43.6619 71.706 43.4579 71.604 43.2199 71.553L41.4179 71.213C41.0269 74.681 39.9559 77.299 39.0039 78.523L40.4149 79.339C40.6699 78.982 40.8739 78.693 41.2649 78.047C41.4859 79.339 41.8599 80.478 42.4719 81.634C40.9079 83.317 38.8849 84.235 38.2389 84.507L39.5819 85.935C41.2989 85.085 42.1999 84.337 43.4409 83.164C44.2739 84.252 45.2259 85.085 46.5859 85.799L47.9119 84.371ZM44.9539 75.293C44.8349 76.772 44.4949 78.506 43.4749 80.223C43.0159 79.254 42.4719 77.877 42.2339 75.684C42.2509 75.633 42.3359 75.361 42.3699 75.293H44.9539Z" fill="white"/>
<path d="M64.6739 77.962V76.738H58.3669V75.905H62.7189V74.698H58.3669V73.899H64.2489V72.692H60.4919C61.0019 71.927 61.0699 71.876 61.2739 71.791C61.4949 71.706 61.5799 71.655 61.5799 71.57C61.5799 71.468 61.4439 71.417 61.3079 71.4L59.4889 71.162C59.2509 71.791 59.0469 72.216 58.8089 72.692H55.0859L56.2079 72.437C56.0379 72.08 55.7999 71.621 55.3579 70.958L53.8449 71.383C54.1339 71.808 54.3379 72.233 54.5589 72.692H50.8019V73.899H56.6669V74.698H52.3829V75.905H56.6669V76.738H50.3769V77.962H54.3039L53.0799 78.302C53.3009 78.608 53.4879 78.982 53.6239 79.322H50.2239V80.58H64.8269V79.322H61.3589C61.6649 78.812 61.6989 78.744 61.7499 78.727C62.0049 78.659 62.0899 78.608 62.0899 78.489C62.0899 78.387 62.0219 78.336 61.8009 78.268L60.7809 77.962H64.6739ZM56.6669 79.322H55.3579C55.0859 78.71 54.8819 78.353 54.6269 77.962H56.6669V79.322ZM58.3669 77.962H60.2879C60.1349 78.421 59.9989 78.727 59.6759 79.322H58.3669V77.962ZM53.8449 85.85V85.374H61.0189V85.85H62.7189V81.515H52.1449V85.85H53.8449ZM53.8449 82.739H61.0189V84.048H53.8449V82.739Z" fill="white"/>
<path d="M76.2339 85.221C77.5089 84.745 81.3339 83.317 81.3339 78.557C81.3339 74.987 78.8519 72.454 74.9249 72.454C70.6069 72.454 67.5979 75.752 67.5979 79.492C67.5979 82.892 70.0459 84.388 71.0999 84.388C72.1029 84.388 72.9189 82.535 73.0889 82.144C74.5169 78.931 74.9249 76.075 75.1969 74.069C76.1999 74.222 79.4299 74.698 79.4299 78.54C79.4299 82.416 76.0299 83.351 74.9589 83.657L76.2339 85.221ZM73.2759 74.256C73.1059 76.534 72.5449 78.795 71.6439 80.903C71.4229 81.413 71.1169 82.11 70.7429 82.11C70.1479 82.11 69.2809 81.005 69.2809 79.492C69.2809 78.319 69.7059 75.48 73.2759 74.256Z" fill="white"/>
<path d="M90.5819 72.403H85.2439C85.3799 74.154 85.3799 75.973 85.3799 76.5C85.3799 79.203 85.1249 82.246 83.8839 85.391L85.6179 85.833C86.6889 82.756 87.0629 80.308 87.0799 76.296H89.3579V78.778H95.3079V76.296H98.2999V74.885H95.3079V73.814H98.7759V72.403H92.4689V71.927C92.4689 71.842 92.5029 71.757 92.5709 71.706C92.7919 71.536 92.8089 71.519 92.8089 71.468C92.8089 71.315 92.4859 71.264 92.3159 71.264L90.5819 71.196V72.403ZM90.9559 74.885V73.814H93.7099V74.885H90.9559ZM90.9559 76.296H93.7099V77.503H90.9559V76.296ZM89.3579 74.885H87.0799V73.814H89.3579V74.885ZM98.4189 84.422C97.2459 84.286 95.9879 84.116 93.8119 83.317C94.5599 82.722 95.7159 81.753 96.8719 80.359L95.9539 79.509H87.6579V80.869H89.9189L88.7289 81.651C89.2219 82.161 89.6809 82.603 90.7349 83.385C89.6979 83.895 88.4229 84.337 86.8759 84.524L87.8279 86.088C89.4259 85.646 90.8199 85.17 92.3669 84.354C93.5399 84.966 94.6279 85.408 97.6369 86.071L98.4189 84.422ZM94.2539 80.869C93.5059 81.566 93.0469 81.94 92.1629 82.518C91.8739 82.382 91.2619 82.059 90.1739 80.869H94.2539Z" fill="white"/>
<path d="M104.777 84.626C104.879 83.623 105.134 82.28 105.882 81.039L104.76 80.189C104.403 80.852 104.25 81.09 104.097 81.311C103.995 80.699 103.961 80.07 103.961 79.628C103.961 77.01 104.93 73.219 105.27 73.083C105.321 73.066 105.474 73.015 105.525 72.981C105.559 72.964 105.559 72.913 105.559 72.879C105.559 72.743 105.457 72.692 105.117 72.556L103.434 71.876C102.482 76.568 102.261 77.622 102.261 79.509C102.261 81.362 102.584 83.504 103.502 85.085L104.777 84.626ZM114.314 72.998C113.022 73.389 111.73 73.576 110.37 73.576C109.197 73.576 108.602 73.44 107.769 73.236L107.786 75.021C108.398 75.242 109.605 75.242 109.979 75.242C111.815 75.242 113.26 74.97 114.28 74.783L114.314 72.998ZM114.824 82.025C112.682 82.518 111.237 82.535 110.829 82.535C109.367 82.535 108.806 82.042 108.806 81.158C108.806 80.869 108.84 80.512 108.925 80.223L107.191 80.376C107.021 83.606 107.803 84.354 111.373 84.354C112.699 84.354 113.651 84.303 114.773 84.133L114.824 82.025Z" fill="white"/>
<path d="M38.2559 98.627C39.2419 98.627 39.9219 97.828 39.9219 96.961C39.9219 96.043 39.1909 95.295 38.2899 95.295C37.3719 95.295 36.6409 96.043 36.6409 96.961C36.6409 97.93 37.4399 98.627 38.2559 98.627ZM38.2729 97.845C37.8139 97.845 37.4059 97.454 37.4059 96.961C37.4059 96.485 37.7799 96.06 38.2899 96.06C38.7829 96.06 39.1569 96.485 39.1569 96.961C39.1569 97.403 38.8169 97.845 38.2729 97.845ZM35.2809 100.021C34.2609 103.795 32.4589 106.787 27.4779 108.963L29.0419 110.476C34.5839 107.722 36.0459 103.829 36.7089 101.908C37.4399 99.817 37.4399 99.817 37.9159 99.477L36.3349 97.913C36.0119 98.253 35.7229 98.253 35.5019 98.253H26.1179V100.021H35.2809Z" fill="white"/>
<path d="M44.7329 97.199V98.916H52.8419V97.199H44.7329ZM52.1619 102.622C51.0569 106.158 49.1699 108.028 44.9369 109.49L46.5689 110.901C50.0369 109.541 52.3659 107.484 53.9639 103.438C54.2189 102.775 54.3719 102.503 55.1369 101.993L53.4369 100.378C52.8929 100.905 52.6719 100.905 52.4169 100.905H43.1179V102.622H52.1619Z" fill="white"/>
<path d="M64.6399 99.851C63.9429 99.086 62.8039 97.981 61.5289 97.029L60.2199 98.542C61.6819 99.596 62.7869 100.939 63.2119 101.466L64.6399 99.851ZM72.0689 100.395C70.1139 102.707 67.3259 106.022 60.3389 107.858L61.1889 109.677C61.4099 110.153 61.4439 110.221 61.5799 110.221C61.7159 110.221 61.7669 110.102 61.8349 109.932C61.9369 109.711 62.0219 109.66 62.8549 109.286C67.0369 107.399 69.2979 106.379 73.0209 102.146L72.0689 100.395Z" fill="white"/>
<path d="M87.7089 100.582V98.712H78.4439V100.582H87.7089ZM89.3919 108.47V106.6H76.6249V108.47H89.3919Z" fill="white"/>
<path d="M98.6399 99.851C97.9429 99.086 96.8039 97.981 95.5289 97.029L94.2199 98.542C95.6819 99.596 96.7869 100.939 97.2119 101.466L98.6399 99.851ZM106.069 100.395C104.114 102.707 101.326 106.022 94.3389 107.858L95.1889 109.677C95.4099 110.153 95.4439 110.221 95.5799 110.221C95.7159 110.221 95.7669 110.102 95.8349 109.932C95.9369 109.711 96.0219 109.66 96.8549 109.286C101.037 107.399 103.298 106.379 107.021 102.146L106.069 100.395Z" fill="white"/>
<path d="M116.745 98.797C116.83 98.627 117.255 97.777 117.323 97.743C117.544 97.641 117.663 97.573 117.663 97.471C117.663 97.369 117.255 97.199 117.068 97.131L115.521 96.536C114.416 99.664 112.563 101.925 110.642 103.234L112.359 104.305C113.821 103.149 114.892 101.602 115.674 100.48H120.23C118.768 104.9 116.575 107.739 112.648 109.728L114.433 110.952C118.87 108.215 120.604 105.138 122.032 101.194C122.236 100.633 122.321 100.582 123.018 100.14L121.471 98.474C121.08 98.797 120.91 98.797 120.655 98.797H116.745ZM121.845 97.318C121.318 96.621 120.808 96.179 120.247 95.771L119.346 96.417C119.924 96.876 120.434 97.369 120.91 97.981L121.845 97.318ZM124.497 97.301C124.004 96.621 123.528 96.128 122.916 95.652L122.032 96.264C122.287 96.502 122.882 97.063 123.528 98.032L124.497 97.301Z" fill="white"/>
</svg>
