<svg fill="none" height="72" viewBox="0 0 224 72" width="224" xmlns="http://www.w3.org/2000/svg"><g fill="#152d87"><path d="m9.42095 1.45914-9.107962 24.08986h4.586982l1.78199-5.1809h10.39494l1.815 5.1809h4.554l-9.108-24.08986zm2.47495 3.89398 3.993 11.54998h-8.01894z"/><path d="m27.2009 1.45914v24.08986h4.158v-24.08986z"/><path d="m36.8665 1.45914v24.08986h4.125v-9.6029h6.039c2.376 0 3.333 1.98 3.333 4.191v3.8609c0 .66.198 1.188.693 1.551h4.7519c-1.188-1.089-1.188-1.782-1.287-6.3359-.099-4.158-2.0789-4.653-5.4449-5.115 1.947-.198 6.2699-.627 6.2699-6.10499 0-4.52098-3.5309-6.53397-7.9199-6.53397zm4.125 3.46498h6.138c2.508 0 3.729 1.551 3.729 3.69599 0 2.27699-1.518 3.86099-3.729 3.86099h-6.138z"/><path d="m70.4464 1.45914v24.08986h9.768c7.524 0 11.154-4.4549 11.154-11.9789 0-4.15799-.924-12.11096-11.154-12.11096zm10.296 3.46498c5.379 0 6.237 5.31298 6.237 8.64598 0 5.049-1.914 8.547-6.237 8.547h-6.171v-17.19298z"/><path d="m109.841 17.7941c0-7.062-3.366-10.42799-7.788-10.42799-3.6956 0-8.0186 3.00299-8.0186 9.33899 0 5.643 3.465 9.2729 8.1836 9.2729 4.818 0 6.633-3.7949 7.425-5.4119h-4.158c-.396.726-1.089 2.0459-3.036 2.0459-2.7716 0-3.8936-2.4419-4.2236-4.8179zm-11.6156-2.475c.132-1.155.561-4.587 3.6626-4.587 3.069 0 3.498 3.432 3.663 4.587z"/><path d="m125.736 13.0751c-.132-3.63-2.706-5.70899-6.567-5.70899-3.894 0-6.402 2.07899-6.402 5.34599 0 3.069 1.782 4.125 6.402 5.577 2.277.726 3.168 1.023 3.168 2.442 0 2.0459-2.112 2.1449-2.64 2.1449-2.838 0-3.135-2.1779-3.201-2.7719h-4.125c.429 4.0259 3.366 5.8739 7.326 5.8739 2.145 0 6.666-.792 6.666-5.6759 0-2.706-1.32-3.828-6.105-5.412-2.706-.891-3.399-1.221-3.399-2.409 0-1.914 2.046-2.013 2.376-2.013 2.343 0 2.376 1.716 2.409 2.607z"/><path d="m129.267 7.79511v17.75389h4.059v-17.75389zm0-6.33597v4.05898h4.059v-4.05898z"/><path d="m153.181 7.49811c-.165-.066-.396-.165-.693-.165-.561 0-1.914.627-2.838 1.749-1.517-1.419-3.695-1.716-5.345-1.716-4.521 0-7.062 2.24399-7.062 5.60999 0 2.805 1.782 3.894 2.376 4.257-2.64.957-2.64 2.739-2.64 3.003 0 1.683 1.683 2.0459 2.541 2.2439-3.531.891-3.531 3.366-3.531 3.795 0 2.772 2.376 4.653 7.854 4.653 4.884 0 8.381-1.353 8.381-5.511 0-3.7619-2.376-4.7519-7.556-5.3789-3.663-.429-3.663-.627-3.663-.99 0-.495.66-.759 1.188-.99.363.066.924.132 1.815.132 4.091 0 6.995-1.98 6.995-5.61 0-.561-.066-.891-.099-1.155.429-.528 1.287-1.155 1.815-1.155.264 0 .363.099.462.198zm-8.975 2.80499c2.541 0 3.069 1.155 3.069 2.343 0 .957-.231 2.607-3.234 2.607-2.046 0-3.069-.759-3.069-2.343 0-.858.165-2.607 3.234-2.607zm-1.98 12.6059c.627.033 3.399.165 3.96.264.429.099 1.782.429 1.782 2.013 0 2.508-2.805 2.508-3.663 2.508-3.069 0-3.993-.825-3.993-2.277 0-1.617 1.188-2.178 1.914-2.508z"/><path d="m154.853 7.79511v17.75389h4.026v-10.3289c0-2.541 1.518-4.356 3.861-4.356 2.607 0 3.234 2.211 3.234 3.861v10.8239h4.059v-12.0119c0-4.125-2.541-6.17099-5.346-6.17099-3.399 0-4.851 2.27699-5.808 3.79499v-3.36599z"/><path d="m197.367 23.286c-1.333-1.147-2.821-2.2319-5.053-3.3479 0-.651-.124-3.906-.124-4.65 0-.868 0-1.364 1.457-2.573l-3.069-1.86c-.93.806-1.55 1.581-1.55 3.658 0 .62.093 3.596.124 4.278-.589-.155-1.55-.372-2.883-.372-3.069 0-5.239 1.953-5.239 4.3709 0 2.79 2.759 4.526 6.2 4.526 4.309 0 4.898-2.356 5.146-3.658 1.054.713 1.922 1.395 2.945 2.418zm-8.184-1.2709c-.062.8679-.155 2.3869-2.387 2.3869-.868 0-2.728-.31-2.728-1.643 0-.341.186-1.4879 1.984-1.4879.961 0 1.767.248 3.131.744zm-4.712-21.9169555c-.403 1.9529955-.992 3.8439855-1.581 5.6729755-.868.062-1.674.124-2.542.124-1.178 0-2.263-.124-2.945-.186l.155 3.28599c1.271-.031 2.945-.093 4.216-.155-1.581 4.06099-3.503 7.96699-6.386 11.19099l3.441 1.612c.186-.31 4.247-7.13 6.448-13.05099 2.201-.248 3.627-.527 4.898-.868l.217-3.50298c-.744.37199-1.643.65099-3.999 1.11599.186-.55799.992-2.94499 1.271-3.13098.155-.093.682-.434.682-.527 0-.279-.651-.496-.992-.62zm14.818 9.8579555c-1.457-1.17799-3.689-2.69699-6.975-3.53398l-1.674 2.44899c2.046.68199 4.96 1.95299 6.789 3.75099z"/><path d="m218.137 4.37613c-2.821-1.922-5.363-3.00699-7.936-3.781988l-1.302 3.099988c2.759.89899 4.991 1.85999 7.502 3.81298zm-10.571 15.06597c.961-1.178 1.829-2.232 3.472-3.286 1.395-.899 3.348-1.736 5.053-1.736 1.271 0 3.72.744 3.72 3.689 0 5.2699-8.215 5.4249-9.765 5.4249-1.023 0-1.953-.062-2.573-.093l1.333 3.441c3.999-.093 14.477-.403 14.477-8.6489 0-4.03-2.666-6.851-6.975-6.851-3.596 0-6.262 1.829-7.657 2.759.217-1.55.527-3.627 2.077-7.09898l-3.131-1.395c-1.426 3.19299-2.046 5.95198-2.821 12.05898z"/><path d="m31.2933 65.9489c-2.6349-1.891-5.2079-2.976-7.9669-3.782-.186-1.364-.31-2.418-.403-4.123.558-.031 4.743-.31 7.2229-.93l.0931-3.286c-1.829.527-4.03.992-7.378 1.364.031-1.55.062-3.162.093-4.092 1.023-.031 1.953-.062 3.782-.062 2.945 0 3.906.124 4.619.217l.1549-3.41c-1.9219.155-3.3169.217-8.4319.434.124-2.046.124-2.294.217-2.604.031-.124.713-.5889.713-.7439 0-.31-.093-.31-1.116-.434l-3.286-.403c0 .589.093 3.5649.093 4.2469-1.488.062-7.688.279-8.463.279l.186 3.317c2.077-.403 7.099-.651 8.339-.713 0 .558 0 .899.031 4.154-2.015.031-2.232.062-2.852 0-.372-.031-1.147-.124-1.147-.558 0-.341.682-.682 1.488-1.085l-1.581-1.457c-1.24.527-3.689 1.798-3.689 3.813 0 2.325 3.937 2.232 7.843 2.108.062.961.124 1.643.31 3.317-.496-.062-1.302-.155-2.201-.155-3.658 0-6.51 1.674-6.51 4.278 0 3.5649 4.619 4.3399 7.285 4.3399 2.387 0 5.146-.6819 5.146-3.3479 0-.31-.031-.62-.062-1.178 2.449.961 4.092 2.015 5.549 3.348zm-10.7879-1.457c.062.682.062.868.062 1.209 0 .62 0 1.302-2.387 1.302-1.674 0-3.503-.558-3.503-1.519 0-.868 1.364-1.333 2.914-1.333.837 0 1.891.155 2.914.341z"/><path d="m61.2702 65.5459c-2.356.465-5.952 1.178-9.5169 1.178-2.511 0-5.921-.186-5.921-3.131 0-4.712 9.1759-7.688 15.6239-9.579l-.992-3.72c-1.302.589-7.1919 3.1-8.3699 3.627-1.426-.589-1.767-1.364-1.767-4.836 0-1.829.031-3.348.093-4.9289l-3.999.527c.186 1.9839.682 7.5639 1.116 8.8969.372 1.178.992 1.643 1.457 1.953-4.743 2.79-6.417 4.991-6.417 8.06 0 6.2929 6.634 6.2929 9.083 6.2929 3.1929 0 6.4169-.217 9.6099-.4339z"/><path d="m85.3881 70.3508c1.054-.2789 3.007-.8369 4.743-1.8289 2.883-1.643 5.053-5.239 5.053-9.3 0-7.161-5.673-9.052-8.928-9.424.093-.589.217-1.364.31-2.17.031-.279.155-1.364.217-1.798.031-.124.713-.589.713-.775 0-.3099-.124-.3099-1.209-.3719l-3.379-.217c.062.62.155 1.3639.155 2.6969 0 1.085-.062 1.922-.124 2.728-2.356.465-3.937 1.085-5.425 1.953-.4029-1.488-.806-3.038-1.1469-5.177l-3.224 1.488c.837 2.666 1.488 4.619 1.829 5.611-1.364 1.395-3.875 4.03-3.875 8.959 0 1.612.31 5.828 3.844 5.828 2.201 0 3.7819-1.705 5.3319-3.41.558.775.837 1.147 1.271 1.643l2.48-2.883c-.372-.31-.775-.651-1.612-1.674 1.488-2.542 2.604-6.262 3.286-9.486 3.069.31 6.045 2.015 6.045 6.2 0 2.821-1.395 5.642-3.875 7.037-1.829 1.023-3.658 1.271-4.712 1.395zm-2.914-17.4839c-.465 2.294-.992 4.309-1.953 6.448-.713-1.302-1.271-2.511-2.046-4.526 1.55-1.178 2.697-1.643 3.999-1.922zm-3.751 9.734c-.527.713-1.7979 2.542-3.1309 2.542-1.364 0-1.364-1.891-1.364-2.387 0-3.131 1.209-4.867 1.891-5.859.5889 1.457 1.3019 3.224 2.6039 5.704z"/><path d="m125.409 45.3649c-9.207 2.294-20.243 2.666-22.723 2.728l.527 3.441c1.798-.186 10.54-1.178 12.524-1.395-2.852 2.294-6.696 5.394-6.696 10.726 0 7.378 8.494 8.9279 10.602 9.2999l1.147-3.6579c-2.325-.186-8.215-.682-8.215-5.828 0-4.743 5.115-10.571 12.989-11.811z"/><path d="m139.886 71.0948c2.449-.093 4.526-.372 4.526-2.6349v-8.215l2.046 1.705c.589-.713.868-1.054 1.55-2.077h2.604v2.728h-4.774v2.759h4.774v5.8279h2.914v-5.8279h4.898v-2.759h-4.898v-2.728h4.278v-2.666h-4.278v-1.116c0-.186.031-.279.217-.496.062-.093.31-.341.31-.434 0-.186-.217-.217-.434-.279 4.464-.992 4.65-1.798 4.712-10.1369h-12.865v2.6659h3.162c-.434 2.635-1.55 4.309-3.937 5.704l2.263 2.108c-.465 2.728-1.953 4.123-2.542 4.681v-8.525h-3.472l2.666-4.154-.837-.899h-4.991c.372-.8369.434-.93.62-.961.341-.031.682-.1239.682-.3719s-.248-.31-.62-.403l-2.976-.775c-.899 3.3479-2.046 5.3009-4.247 7.9979l2.232 1.395c.062.682.155 2.108.155 4.402 0 6.789-.93 9.362-2.325 12.183l2.604 1.0849c1.333-2.6349 1.798-4.7739 2.139-7.0989h5.859v3.472c0 1.178-1.023 1.302-1.457 1.302-.217 0-1.24-.093-1.488-.093zm-1.798-14.6009h-1.798v-2.79h1.798zm1.953 0v-2.79h1.86v2.79zm0 2.046h1.86v2.945h-1.86zm-1.953 0v2.945h-1.86c.062-.589.062-.992.062-2.201v-.744zm1.426-9.889-1.55 2.728h-2.945c.31-.434.713-1.023 1.643-2.728zm11.098 8.556h-1.612c0-.031.217-.651.31-.775.093-.062.527-.279.527-.403 0-.155-.124-.217-.651-.403l-1.891-.62c2.666-2.077 3.844-3.41 4.588-7.595h3.534v1.302c0 1.209 0 3.348-2.635 3.348-.341 0-.651-.031-.93-.062l.868 2.697-2.108-.248z"/><path d="m190.199 59.1909v-2.821h-2.418l.372-7.657h-7.409v-3.286c0-.372.093-.4959.372-.8059.124-.155.341-.403.341-.527 0-.31-.682-.31-1.426-.341l-2.573-.093v5.0529h-5.58v2.728h5.58c0 1.457 0 3.255-.062 4.929h-6.851v2.821h6.386c-.558 2.325-1.581 6.603-8.587 8.742l2.17 2.8519c4.619-1.7049 7.347-4.9289 8.928-8.4319 1.054 1.767 1.953 3.038 3.348 4.402 1.581 1.488 3.41 2.945 4.929 3.7509l2.356-2.8829c-6.262-3.224-7.564-5.239-9.052-8.432zm-9.579-2.821c.124-1.178.124-3.72.124-4.929h4.092l-.248 4.929zm-16.368-10.633c1.333.868 2.821 1.86 4.247 3.224l2.077-2.387c-1.333-1.209-2.914-2.3249-4.464-3.3169zm-2.449 8.215c1.147.744 2.883 1.891 4.247 2.976l1.922-2.511c-.713-.558-1.984-1.519-4.34-2.914zm4.836 6.045c-.837 3.007-2.542 6.975-3.906 8.99l2.573 1.4259c.465.248.651.341.868.341.31 0 .341-.279.341-.403 0-.093-.093-.6509-.093-.7749 0-.279.093-.496.372-1.209 1.302-3.224 1.612-4.061 2.48-7.316z"/><path d="m205.203 52.5879 1.054 10.509h1.829l1.054-10.509v-6.169h-3.937zm3.937 16.461v-3.937h-3.937v3.937z"/></g></svg>