<svg width="340" height="50" viewBox="0 0 340 50" fill="none" xmlns="http://www.w3.org/2000/svg">
<path d="M1.74011 45.6198C2.03411 45.3048 2.07611 45.2838 2.37011 45.0108C4.28112 47.0268 4.80612 47.5938 5.70912 48.5598L7.93513 47.6778C7.95613 45.1158 7.95613 44.7378 7.97713 41.3988C8.71214 41.1258 9.93014 40.6638 11.1691 40.6638C13.0802 40.6638 14.0882 42.0498 14.0882 43.4568C14.0882 44.9268 13.2272 45.6828 12.4711 45.6828C11.8201 45.6828 11.6521 45.1368 11.4001 44.2758L9.44714 45.0528C9.74114 46.5858 10.0351 48.0348 12.3451 48.0348C14.5922 48.0348 16.2722 45.9978 16.2722 43.4148C16.2722 40.7898 14.4662 38.6268 11.2111 38.6268C9.72014 38.6268 8.58613 38.9418 7.97713 39.1098L7.99813 37.0307C8.96414 36.8417 9.95114 36.6317 11.2741 36.1277V33.7337C10.0981 34.2797 9.38414 34.5317 8.04013 34.8257C8.06113 34.4267 8.12413 32.3687 8.20813 32.2427C8.25013 32.1797 8.56514 31.9277 8.56514 31.8437C8.56514 31.7387 8.56514 31.5917 7.97713 31.5077L5.64612 31.1927C5.66713 32.5577 5.66712 32.7467 5.68812 35.1197C5.07912 35.1617 4.76412 35.1827 4.23912 35.1827C3.27312 35.1827 2.76911 35.1407 2.18111 35.0777L2.49611 37.4507C3.67212 37.4927 4.42812 37.4717 5.68812 37.3457L5.70912 40.0548C4.30212 40.8108 3.90312 41.0418 0.459106 43.2678L1.74011 45.6198ZM5.70912 45.7878C5.33112 45.4518 4.47012 44.6538 3.79812 43.8138C4.68012 43.1628 5.12112 42.8898 5.70912 42.5328V45.7878ZM17.8682 36.9047C16.8392 36.1067 15.4532 35.1617 13.7312 34.5317L12.3661 36.3797C14.4662 37.1567 15.5582 37.9547 16.5032 38.7738L17.8682 36.9047Z" fill="black"/>
<path d="M39.3932 40.0758C39.3932 39.3198 38.8682 36.8417 36.1172 33.9017L34.3742 35.1617C35.5292 36.4847 36.7052 38.5848 36.7052 39.2358C36.7052 39.7398 36.2222 39.7818 35.3192 39.8658L36.7472 42.0288C38.0912 41.7768 39.3932 41.2728 39.3932 40.0758ZM34.4162 39.1518C34.4162 37.8707 34.1852 35.5397 31.3292 35.5397C30.7622 35.5397 30.1322 35.6237 29.6702 35.7077C29.8172 34.9097 29.9642 34.1747 30.0692 33.4187C30.0902 33.2087 30.1322 33.1877 30.5102 32.9567C30.7412 32.8097 30.7832 32.7467 30.7832 32.6627C30.7832 32.4737 30.3632 32.3477 30.1952 32.3267L27.6332 31.9697C27.6122 33.7127 27.4232 34.8257 27.1712 36.1697C26.2472 36.3167 24.3152 36.6737 22.7822 36.7997L23.6222 39.3408C24.7142 38.9418 25.5752 38.6898 26.6042 38.4378C25.3652 42.4278 24.2942 44.2968 22.4462 46.6488L24.8402 47.7198C26.9822 44.2338 28.0952 41.7768 29.1872 37.9337C29.5862 37.8707 30.0062 37.8287 30.3842 37.8287C31.8962 37.8287 32.1272 38.5008 32.1272 39.6138C32.1272 41.7348 31.2452 44.2758 30.8462 44.8428C30.5522 45.2628 30.2162 45.3678 29.5862 45.3678C28.7672 45.3678 28.1582 45.1788 27.6962 45.0318L27.9902 47.5728C28.5782 47.6568 29.2292 47.6988 29.7962 47.6988C30.6992 47.6988 32.0432 47.6148 32.9462 46.0818C34.0592 44.1498 34.4162 40.8948 34.4162 39.1518Z" fill="black"/>
<path d="M62.7873 31.3397C62.5143 30.8147 62.0523 30.0377 61.4853 29.3867L60.4353 30.1007C60.8973 30.6047 61.3803 31.3817 61.7583 32.0537L62.7873 31.3397ZM60.4563 31.7597C60.0573 31.0037 59.6373 30.4157 59.1753 29.8907L58.1253 30.6257C58.6293 31.1717 59.0283 31.8017 59.4063 32.4737L60.4563 31.7597ZM60.6243 36.9677L60.5403 34.5737C59.6583 35.0357 59.0913 35.2667 57.7053 35.5607C57.6843 35.0987 57.4743 32.7047 57.4743 32.6207C57.4743 32.4947 57.5793 32.3477 57.6843 32.2427C57.7473 32.1797 57.8523 32.0327 57.8523 31.9487C57.8523 31.6967 57.5163 31.6757 57.3063 31.6757L54.9123 31.6127C55.2693 33.0617 55.3743 34.0907 55.4793 36.0437C54.8493 36.1277 53.9883 36.2537 52.3503 36.2537C51.9093 36.2537 51.5943 36.2537 50.8803 36.2117L51.3633 38.6268C53.1273 38.6058 54.0513 38.5428 55.6263 38.3328V39.2358C55.6263 41.5878 55.3323 44.2968 52.7703 47.4258L55.0803 48.6438C55.8783 47.4258 57.4113 45.0738 57.7893 40.9158C57.8733 39.9288 57.9153 38.6898 57.8733 37.8497C58.6293 37.6607 59.4063 37.4507 60.6243 36.9677ZM50.1663 42.4698L48.6963 41.4408C48.4233 42.1758 48.1713 42.7428 47.7933 43.3938C47.4783 42.1968 47.4363 40.9578 47.4363 39.6978C47.4363 36.4427 48.0243 33.0617 48.4443 32.7257C48.7383 32.4947 48.7803 32.4737 48.7803 32.3897C48.7803 32.2007 48.3813 32.0747 48.1713 32.0117L46.0503 31.4027C45.4833 34.5107 45.2103 36.3377 45.2103 38.7738C45.2103 43.9608 46.3233 46.4598 46.8693 47.6778L48.7593 47.3208C49.0533 45.5148 49.4733 44.0448 50.1663 42.4698Z" fill="black"/>
<path d="M80.8894 41.6088C79.2514 39.9708 78.2434 38.6268 76.8364 36.0227C78.7474 35.2877 79.4194 34.8887 80.1124 34.4897L79.0624 32.4947C78.1804 33.1457 77.5084 33.5447 75.9754 34.1747C75.3034 32.5787 75.0934 31.7387 75.0934 31.6757C75.0934 31.5497 75.3664 31.1297 75.3664 31.0247C75.3664 30.7517 74.7784 30.8777 74.6314 30.8987L72.5104 31.2137C72.9304 32.6417 73.3294 33.6287 73.8754 34.8887C71.3133 35.5817 69.8013 35.7497 69.4863 35.7707C69.0663 35.8127 68.6253 35.8127 67.8273 35.7707L68.8983 37.9757C70.5993 37.8497 72.0693 37.5767 74.7784 36.7367C75.5134 38.1438 75.9754 38.9208 76.7524 39.9918C76.0804 39.8448 74.9674 39.6348 74.1904 39.6348C71.8803 39.6348 69.2343 40.9158 69.2343 43.9608C69.2343 45.3468 69.8433 46.1448 70.0533 46.4178C71.5233 48.3078 74.3794 48.4128 75.5974 48.4128C76.7104 48.4128 77.8234 48.3918 78.9154 48.1818L78.7474 45.8088C78.1384 45.9348 76.9414 46.1658 75.5134 46.1658C73.0563 46.1658 71.6493 45.5148 71.6493 43.8978C71.6493 42.4698 73.0563 41.6298 74.7364 41.6298C77.0254 41.6298 78.5794 42.7218 79.5454 43.3938L80.8894 41.6088Z" fill="black"/>
<path d="M103.002 45.3888C100.818 44.0028 99.4324 43.4988 97.6894 43.0158C97.6264 41.7768 97.6264 41.5668 97.5844 40.5168C100.062 40.3278 101.175 40.1388 102.078 39.9918V37.7027C100.146 38.0597 99.3694 38.1858 97.5424 38.4168V35.9387C98.5924 35.9177 100.545 35.8757 102.876 35.8757L102.96 33.6497C100.986 33.7967 100.272 33.8387 97.5844 33.9647C97.6054 32.8727 97.6264 32.4737 97.6264 32.4527C97.6684 32.2637 97.8154 32.1377 97.8994 32.0747C98.1304 31.8857 98.1724 31.8647 98.1724 31.7807C98.1724 31.6337 98.0464 31.5707 97.6474 31.5287L95.0854 31.2767L95.1484 34.0697C93.2794 34.1117 92.1454 34.1537 89.7514 34.1537L89.7934 36.4217C91.5994 36.2117 92.7964 36.1277 95.2114 36.0227L95.2534 38.6478C94.7704 38.6898 94.4974 38.6898 93.8044 38.6898C93.4474 38.6898 93.0064 38.6898 93.0064 38.3958C93.0064 38.1227 93.3214 37.8917 93.6994 37.6187L92.5024 36.5897C91.6834 37.1777 90.2554 38.1648 90.2554 39.1938C90.2554 40.0128 91.2214 40.7058 93.1534 40.7058C93.7624 40.7058 94.9174 40.6638 95.2954 40.6428L95.3374 42.6588L94.7494 42.6378C90.0244 42.4698 89.8144 44.9058 89.8144 45.5148C89.8144 47.2158 91.6204 48.2448 94.5184 48.2448C97.2064 48.2448 97.7104 47.4048 97.7944 45.2628C99.3484 45.8718 100.272 46.3758 101.637 47.3418L103.002 45.3888ZM95.3584 44.6538C95.3794 45.8298 95.2954 46.2078 93.9304 46.2078C93.6784 46.2078 92.3344 46.2078 92.3344 45.4938C92.3344 44.9478 93.0064 44.5908 94.3714 44.5908C94.8544 44.5908 95.1274 44.6118 95.3584 44.6538Z" fill="black"/>
<path d="M126.607 37.7237C126.166 37.2197 125.746 36.7787 124.864 36.1277L123.982 37.1357C124.675 37.6397 125.179 38.1018 125.725 38.7318L126.607 37.7237ZM124.906 39.6348C124.381 38.9838 123.856 38.5428 123.163 38.0178L122.302 39.0258C123.121 39.6558 123.562 40.0758 124.024 40.6428L124.906 39.6348ZM125.599 34.1537V31.7177C121.63 32.9357 115.119 33.4397 110.583 33.3977L110.94 35.7497C113.04 35.4557 116.128 35.2037 118.942 34.9727C118.207 35.6447 117.157 36.6317 116.169 38.1647C115.266 39.5298 114.741 40.9368 114.741 42.3438C114.741 43.7718 115.287 45.1368 116.295 46.1238C117.997 47.8248 120.349 48.2658 121.462 48.4548L122.281 45.8928C121.42 45.8508 119.95 45.7878 118.585 44.8218C117.997 44.4018 117.073 43.5408 117.073 42.0918C117.073 40.4958 118.081 38.6058 119.635 37.0517C122.302 34.3637 124.612 34.2167 125.599 34.1537Z" fill="black"/>
<path d="M149.014 33.8387V32.3897H145.591C145.843 32.0537 146.053 31.6967 146.158 31.5287C146.452 31.4447 146.725 31.3817 146.725 31.2137C146.725 31.1297 146.725 31.0037 146.011 30.8987L144.352 30.6467C144.142 31.4237 143.89 31.9487 143.596 32.3897H141.055C140.677 31.6547 140.299 31.1717 139.858 30.6467L137.926 31.1087C138.199 31.4027 138.388 31.6757 138.724 32.3897H135.721V33.8387H140.635L140.278 34.5317H136.918V40.0968H148.027V34.5317H142.609L143.05 33.8387H149.014ZM145.801 37.5767H139.144V37.0517H145.801V37.5767ZM145.801 36.1487H139.144V35.6237H145.801V36.1487ZM145.801 39.0048H139.144V38.4588H145.801V39.0048ZM135.238 32.7257C134.125 31.6757 133.579 31.2137 132.844 30.6467L131.437 32.2217C132.382 32.9567 133.033 33.5657 133.726 34.2797L135.238 32.7257ZM149.413 40.7058C147.649 40.8528 144.751 41.0838 140.467 41.0838C139.207 41.0838 137.086 40.9998 136.078 40.3698C135.49 39.9918 135.448 39.3828 135.448 39.0258V35.5607H131.206V37.4507H133.264V39.7188C131.962 40.3068 131.5 40.5378 130.849 40.7688L131.416 42.2388C131.521 42.4908 131.626 42.7848 131.794 42.7848C132.046 42.7848 132.109 42.4908 132.151 42.2598C132.928 41.7558 133.096 41.6298 134.671 40.5798C135.469 41.6298 136.162 42.5538 139.774 42.5538H143.323V43.2048H130.996V45.0948H136.372L135.112 46.2918C136.057 47.0058 136.603 47.5728 137.359 48.5178L139.123 46.9008C138.787 46.5648 138.136 45.8298 137.233 45.0948H143.323V46.3758C143.323 46.8168 143.218 46.9638 142.693 46.9638C142.189 46.9638 141.937 46.9428 140.845 46.7958L141.769 49.0428C142.756 49.0218 145.612 49.0008 145.612 47.5098V45.0948H149.056V43.2048H145.612V42.5538H148.531L149.413 40.7058Z" fill="black"/>
<path d="M171.442 46.9008C170.308 46.2708 167.872 44.8638 165.961 41.3148C164.407 38.4168 164.029 35.5607 164.029 33.3347C164.029 32.6627 164.05 31.8647 164.113 31.2137H157.372V33.7127H161.614C161.635 34.5527 161.656 34.9517 161.719 35.5817L159.871 35.1197C159.703 36.5267 159.367 39.2778 157.456 42.3228C155.629 45.1998 153.487 46.6068 152.353 47.3418L154.6 48.9378C158.233 46.4178 160.48 42.8268 162.076 37.8917C162.37 39.1308 162.895 41.3778 164.575 44.0238C166.297 46.7118 168.103 48.0978 169.048 48.8328L171.442 46.9008Z" fill="black"/>
<path d="M192.652 48.4338V46.1658H188.284V39.1518H192.127V36.8837H188.284V31.8857C188.284 31.8017 188.41 31.6967 188.578 31.5287C188.641 31.4657 188.683 31.3817 188.683 31.3187C188.683 31.2137 188.557 31.1297 188.452 31.1297L185.869 30.8777V36.8837H182.698V39.1518H185.869V46.1658H180.913V48.4338H192.652ZM183.202 41.9238C182.194 41.2728 181.48 40.7058 180.493 39.5718C182.026 37.4927 182.488 36.4007 182.803 35.6027L181.858 34.6577H179.59V32.0117C179.59 31.9277 179.632 31.8857 179.926 31.5917C179.989 31.5497 180.073 31.4657 180.073 31.3817C180.073 31.2767 179.968 31.2137 179.842 31.1927L177.406 30.9197V34.6577H174.886V36.9257H179.59C178.267 39.3198 176.335 41.3148 174.025 42.7428L175.6 44.3598C176.293 43.9188 176.734 43.5618 177.448 42.9318V48.8118H179.653V41.6718C180.535 42.6378 181.312 43.2258 181.942 43.6878L183.202 41.9238Z" fill="black"/>
<path d="M214.849 47.0058C214.072 46.5018 212.686 45.6198 211.657 44.0868C212.77 41.9238 213.211 40.3278 213.61 36.3587H214.576V34.2377H209.452C209.683 33.1457 209.746 32.6627 209.809 32.0747C209.851 31.8857 209.893 31.7387 210.145 31.5287C210.271 31.4237 210.271 31.3817 210.271 31.3187C210.271 31.1507 210.103 31.1507 209.872 31.1297L207.625 31.0037C207.541 32.2637 207.436 33.7967 206.848 35.9177C206.26 38.0177 205.714 38.9208 205.126 39.8868L206.995 40.7898C207.289 40.2648 207.499 39.8448 207.625 39.5928C207.982 41.4408 208.465 42.6168 209.116 43.9188C207.961 45.4518 206.974 46.3128 205.231 47.3418L207.037 48.9798C208.465 47.9718 209.305 47.2368 210.397 45.9768C211.657 47.6358 212.497 48.1398 213.337 48.5598L214.849 47.0058ZM211.447 36.3587C211.363 38.2908 211.153 39.7608 210.334 41.7768C209.515 39.8658 209.2 38.4168 208.99 36.3587H211.447ZM206.617 42.6588V40.8108H202.144C202.207 40.6428 202.27 40.5168 202.354 40.3908C202.501 40.3068 202.669 40.2648 202.669 40.1178C202.669 40.0128 202.564 39.9288 202.48 39.8868L201.283 39.2778H202.501V37.5767C202.837 38.1648 203.299 38.8578 204.286 39.5298L205.588 37.9547C204.58 37.3457 204.034 36.6527 203.656 36.0857H206.197V34.2797H204.895C205.21 33.6707 205.609 32.9567 205.903 32.3477C205.966 32.2427 205.987 32.2427 206.239 32.1377C206.281 32.1167 206.344 32.0957 206.344 32.0117C206.344 31.8857 206.134 31.8017 206.05 31.7597L204.391 31.1087C203.887 32.2427 203.656 32.6417 203.068 33.5447L204.664 34.2797H202.501V31.9067C202.501 31.8227 202.564 31.7177 202.69 31.5917C202.816 31.4447 202.837 31.3817 202.837 31.3187C202.837 31.1297 202.648 31.0457 202.354 31.0247L200.317 30.8777V34.2797H198.259L199.687 33.4397C199.309 32.4527 198.91 31.8017 198.217 30.9827L196.516 32.0327C197.167 32.6837 197.692 33.4607 198.049 34.2797H196.621V36.0857H199.141C198.322 37.2197 197.671 37.8497 196.516 38.6268L198.175 39.8448C199.372 38.8578 199.96 38.1647 200.317 37.7237V39.2778H200.443C200.086 40.0338 199.981 40.2858 199.729 40.8108H196.621V42.6588H198.805C198.028 44.0658 197.587 44.6538 197.293 45.0738L199.225 45.7668C199.393 45.4938 199.435 45.4518 199.687 45.0948C200.065 45.2628 200.275 45.3678 200.737 45.6618C199.603 46.5018 198.742 46.9218 197.524 47.3208L198.805 48.8118C200.275 48.2658 201.136 47.8038 202.291 46.9218C202.606 47.2368 202.921 47.5518 203.698 48.4548L205.042 46.7118C204.622 46.2498 204.307 45.9768 203.74 45.4938C204.496 44.5278 204.895 43.8138 205.294 42.6588H206.617ZM203.173 42.6588C202.837 43.4148 202.522 43.8558 202.165 44.2968C201.346 43.7718 201.01 43.6038 200.737 43.4778C200.905 43.2258 201.052 42.9318 201.22 42.6588H203.173Z" fill="black"/>
<path d="M224.509 47.8458V32.5157H222.241C221.779 34.5107 220.015 35.1827 218.902 35.1827H217.684V37.1777H221.842V47.8458H224.509Z" fill="black"/>
<path d="M240.588 40.1808C240.588 38.2068 240.336 36.1697 239.286 34.4897C238.467 33.1877 237.186 32.2427 235.254 32.2427C230.361 32.2427 229.92 37.9337 229.92 40.4538C229.92 42.4278 230.382 48.1398 235.254 48.1398C240.273 48.1398 240.588 42.1128 240.588 40.1808ZM237.69 40.1808C237.69 44.6958 236.787 45.8718 235.254 45.8718C233.889 45.8718 232.776 45.0318 232.797 40.1808C232.797 35.5397 233.805 34.5107 235.212 34.5107C236.598 34.5107 237.69 35.3297 237.69 40.1808Z" fill="black"/>
<path d="M253.097 40.1808C253.097 38.2068 252.845 36.1697 251.795 34.4897C250.976 33.1877 249.695 32.2427 247.763 32.2427C242.87 32.2427 242.429 37.9337 242.429 40.4538C242.429 42.4278 242.891 48.1398 247.763 48.1398C252.782 48.1398 253.097 42.1128 253.097 40.1808ZM250.199 40.1808C250.199 44.6958 249.296 45.8718 247.763 45.8718C246.398 45.8718 245.285 45.0318 245.306 40.1808C245.306 35.5397 246.314 34.5107 247.721 34.5107C249.107 34.5107 250.199 35.3297 250.199 40.1808Z" fill="black"/>
<path d="M273.859 48.4338V46.1658H269.491V39.1518H273.334V36.8837H269.491V31.8857C269.491 31.8017 269.617 31.6967 269.785 31.5287C269.848 31.4657 269.89 31.3817 269.89 31.3187C269.89 31.2137 269.764 31.1297 269.659 31.1297L267.076 30.8777V36.8837H263.905V39.1518H267.076V46.1658H262.12V48.4338H273.859ZM264.409 41.9238C263.401 41.2728 262.687 40.7058 261.7 39.5718C263.233 37.4927 263.695 36.4007 264.01 35.6027L263.065 34.6577H260.797V32.0117C260.797 31.9277 260.839 31.8857 261.133 31.5917C261.196 31.5497 261.28 31.4657 261.28 31.3817C261.28 31.2767 261.175 31.2137 261.049 31.1927L258.613 30.9197V34.6577H256.093V36.9257H260.797C259.474 39.3198 257.542 41.3148 255.232 42.7428L256.807 44.3598C257.5 43.9188 257.941 43.5618 258.655 42.9318V48.8118H260.86V41.6718C261.742 42.6378 262.519 43.2258 263.149 43.6878L264.409 41.9238Z" fill="black"/>
<path d="M294.103 39.6768L293.389 37.2827C292.402 37.7237 292.129 37.8497 289.672 39.0048C289.189 37.6187 288.265 36.8837 286.816 36.8837C285.913 36.8837 285.283 37.1987 285.01 37.3247C285.367 36.7787 285.535 36.4847 286.207 35.2457C287.614 35.0777 289.336 34.8887 291.226 34.4477L291.373 32.0957C290.134 32.5787 289.189 32.8517 287.257 33.1667C287.362 32.9357 287.887 31.7597 287.908 31.7387C287.929 31.7387 288.349 31.5497 288.391 31.5287C288.517 31.4867 288.601 31.4237 288.601 31.2977C288.601 31.1507 288.244 31.1087 288.181 31.0877L285.556 30.6257C285.304 31.5497 285.031 32.2847 284.506 33.4187C282.679 33.4817 281.755 33.4397 280.495 33.3347L280.747 35.5187C281.629 35.5187 282.28 35.4977 283.477 35.4347C282.049 37.9337 280.999 39.4248 279.34 41.2098L281.398 42.4908C282.553 40.6008 283.813 38.6898 285.871 38.6898C287.089 38.6898 287.341 39.4458 287.467 40.0758C284.317 41.6928 282.385 42.6798 282.385 45.2838C282.385 45.5778 282.385 46.5018 283.183 47.3418C284.506 48.7488 286.942 48.7488 288.118 48.7488C288.79 48.7488 291.121 48.7488 293.116 48.4338V46.0608C291.352 46.4598 289.567 46.7328 287.761 46.7328C286.228 46.7328 284.611 46.4598 284.611 45.0948C284.611 43.6248 286.795 42.5328 287.593 42.1338C287.572 43.0578 287.551 44.0868 287.488 45.2838H289.924C289.924 44.5698 289.882 41.9658 289.882 41.1468C291.436 40.5588 292.444 40.2018 294.103 39.6768Z" fill="black"/>
<path d="M317.875 46.9218C316.615 46.7748 312.856 46.3758 310.798 43.0368H317.581V40.8738H309.496C309.601 40.2018 309.622 39.8448 309.643 39.5718C309.979 39.6558 310.315 39.6558 310.441 39.6558H313.045C314.431 39.6558 315.04 39.1728 315.418 37.2827H317.371V32.6627H310.021V31.5917C310.021 31.5287 310.126 31.4447 310.294 31.3397C310.399 31.2557 310.525 31.1717 310.525 31.0247C310.525 30.7517 310.21 30.7307 310 30.7097L307.207 30.5627V32.6627H299.857V37.4507H302.188V34.7627H305.275C304.708 36.7367 303.574 37.9337 301.285 38.5638L302.86 40.5168C304.603 39.6978 305.842 38.6478 306.808 37.0307C306.892 36.9047 307.27 36.1907 307.291 36.1697C307.354 36.1277 307.69 36.0857 307.753 36.0647C307.858 36.0227 307.921 35.9177 307.921 35.8337C307.921 35.6657 307.711 35.5187 307.606 35.4767L306.115 34.7627H308.719V38.3118C308.719 38.4798 308.719 38.7318 308.782 38.8788L306.829 38.7948C306.85 39.4248 306.871 39.9918 306.766 40.8738H299.605V43.0368H306.22C305.002 45.5988 302.587 46.3758 298.849 46.7538L300.592 49.0428C305.338 48.0768 307.375 46.3548 308.656 43.8768C309.013 44.5068 309.748 45.7878 311.365 47.0268C313.192 48.4338 314.956 48.8958 315.901 49.1478L317.875 46.9218ZM314.998 36.5687L313.444 36.0017C313.297 37.3457 312.961 37.3877 312.625 37.3877H311.596C311.197 37.3877 311.05 37.1147 311.05 36.9047V34.7627H314.998V36.5687Z" fill="black"/>
<path d="M339.799 34.2377L338.938 33.3557H335.725V31.9697C335.725 31.8857 335.956 31.6757 336.145 31.5077C336.25 31.4237 336.334 31.3397 336.334 31.2137C336.334 30.9197 335.977 30.8777 335.767 30.8567L333.394 30.7307V33.3557H329.719C329.782 34.1747 329.866 35.6027 329.866 37.4717C329.866 42.3648 329.404 43.6458 328.9 45.0318V37.7027H325.477C326.065 36.4637 326.569 35.2037 326.863 33.8597H329.572V31.8647H321.655V33.8597H324.343C323.713 37.0097 322.117 39.3618 320.332 41.0838L322.18 42.4278C322.642 41.9448 322.789 41.7768 323.146 41.3148V48.4968H325.183V45.9348H328.438C327.913 46.8378 327.451 47.4468 326.674 48.2028L328.774 49.2318C331.126 46.6278 331.483 44.5488 331.819 40.8528C331.903 41.0628 332.197 42.0078 332.26 42.1968C332.596 43.0788 333.016 44.0658 333.688 45.1578C332.47 46.2498 331.399 46.8168 330.349 47.2998L331.672 49.0638C332.848 48.4758 333.793 47.8668 334.969 46.7748C336.145 47.9718 337.09 48.6228 338.434 49.2948L339.778 47.2998C338.581 46.9638 337.594 46.4808 336.355 45.2838C337.447 43.8558 338.455 42.1338 339.085 39.7608L338.308 38.8788H335.725V35.2877H337.279C336.985 36.4637 336.733 37.1357 336.439 37.7867L338.434 38.0388C339.106 36.3587 339.484 35.3087 339.799 34.2377ZM333.394 38.8788H331.903C331.945 37.5137 331.945 36.8627 331.945 35.2877H333.394V38.8788ZM336.376 40.8318C335.851 42.5958 335.389 43.1838 335.074 43.6038C334.633 42.8058 334.234 42.0078 333.919 40.8318H336.376ZM326.884 43.8768H325.183V39.8028H326.884V43.8768Z" fill="black"/>
<path d="M93.422 13.8455L89.222 2.89544H86.9269L82.7269 13.8455H84.9619L85.7719 11.4905H90.377L91.187 13.8455H93.422ZM89.792 9.79546H86.3719L87.8269 5.58045L88.0819 4.62044L88.3219 5.58045L89.792 9.79546Z" fill="#222222"/>
<path d="M97.3188 13.8455V2.89544H95.2938V13.8455H97.3188Z" fill="#222222"/>
<path d="M108.881 13.8455C108.581 13.6355 108.176 13.3505 108.176 12.2555V11.1455C108.176 9.09046 107.141 8.77546 106.076 8.62546C107.006 8.41546 107.366 8.22046 107.786 7.74045C108.221 7.24545 108.461 6.58545 108.461 5.86545C108.461 4.15544 107.126 2.89544 105.086 2.89544H99.9257V13.8455H101.951V9.55546H104.756C105.926 9.55546 106.166 10.5755 106.166 11.3555V12.6755C106.166 13.4705 106.301 13.6355 106.526 13.8455H108.881ZM106.301 6.13545C106.301 7.26045 105.611 7.84546 104.486 7.84546H101.951V4.60544H104.816C105.716 4.60544 106.301 5.14545 106.301 6.13545Z" fill="#222222"/>
<path d="M126.079 8.19046C126.079 5.26545 124.429 2.89544 121.414 2.89544H116.524V13.8455H121.414C124.459 13.8455 126.079 11.2055 126.079 8.19046ZM123.889 8.11546C123.889 9.49546 123.424 12.1355 121.354 12.1355H118.534V4.60544H121.354C122.524 4.60544 123.889 5.56545 123.889 8.11546Z" fill="#222222"/>
<path d="M135.241 10.3955C135.196 9.25546 135.121 8.16046 134.431 7.11045C133.831 6.19545 132.796 5.58045 131.461 5.58045C129.466 5.58045 127.681 6.94545 127.681 9.82546C127.681 12.5855 129.331 14.0405 131.521 14.0405C134.146 14.0405 134.836 12.1355 135.091 11.4605H133.096C132.766 12.3455 131.986 12.4355 131.626 12.4355C130.036 12.4355 129.736 10.8005 129.661 10.3955H135.241ZM133.096 9.10546H129.661C129.751 8.59546 130.006 7.20045 131.476 7.20045C132.466 7.20045 133.051 7.84546 133.096 9.10546Z" fill="#222222"/>
<path d="M143.276 11.5355C143.276 10.8305 142.946 10.2155 142.376 9.81046C141.911 9.49546 141.836 9.45046 139.826 8.68546C139.196 8.44546 138.821 8.31046 138.821 7.90545C138.821 7.60545 139.136 7.15545 139.931 7.15545C140.786 7.15545 141.041 7.66545 141.086 8.25046H143.066C142.976 7.33545 142.826 6.91545 142.331 6.42045C141.611 5.71545 140.651 5.58045 139.976 5.58045C138.131 5.58045 136.841 6.67545 136.841 8.02546C136.841 9.49546 137.951 9.88546 139.601 10.4855C140.876 10.9355 141.281 11.1155 141.281 11.6705C141.281 12.4655 140.291 12.4655 140.126 12.4655C138.896 12.4655 138.731 11.5955 138.671 11.2055H136.691C136.781 12.2255 136.961 12.6305 137.426 13.0955C138.266 13.9355 139.466 14.0405 140.036 14.0405C141.791 14.0405 143.276 13.1105 143.276 11.5355Z" fill="#222222"/>
<path d="M147.266 4.84544V2.89544H145.286V4.84544H147.266ZM147.266 13.8455V5.77545H145.286V13.8455H147.266Z" fill="#222222"/>
<path d="M156.983 7.03545V5.58045C156.173 5.58045 155.933 5.70045 155.333 6.37545C155.033 6.10545 154.403 5.58045 152.948 5.58045C151.103 5.58045 149.528 6.46545 149.528 8.17546C149.528 9.39046 150.263 9.88546 150.638 10.1255C150.188 10.4105 149.453 10.8755 149.453 11.6405C149.453 12.3755 150.128 12.6155 150.518 12.7505C150.173 12.8105 149.213 12.9755 149.213 14.1305C149.213 15.4505 150.758 15.8555 152.648 15.8555C155.168 15.8555 156.743 15.0905 156.743 13.6505C156.743 13.1255 156.548 12.6605 156.233 12.3455C155.633 11.7455 154.733 11.6555 152.663 11.5055C152.123 11.4605 151.463 11.3855 151.463 11.0105C151.463 10.8005 151.613 10.6955 151.988 10.5905C152.198 10.6205 152.408 10.6505 152.843 10.6505C155.168 10.6505 156.113 9.39046 156.113 8.10046C156.113 7.81546 156.068 7.65045 156.023 7.50045C156.443 7.03545 156.623 7.03545 156.983 7.03545ZM154.328 8.13046C154.328 9.12046 153.128 9.18046 152.783 9.18046C152.423 9.18046 151.313 9.15046 151.313 8.20546C151.313 7.60545 151.808 7.08045 152.873 7.08045C153.638 7.08045 154.328 7.36545 154.328 8.13046ZM154.598 13.7555C154.598 14.0855 154.478 14.3855 152.993 14.3855C151.328 14.3855 151.313 13.9955 151.313 13.7405C151.313 13.3205 151.568 13.2005 152.108 13.0055C152.303 13.0205 153.218 13.0355 153.398 13.0505C153.953 13.1105 154.598 13.2605 154.598 13.7555Z" fill="#222222"/>
<path d="M165.453 13.8455V8.43046C165.453 6.60045 164.463 5.58045 162.753 5.58045C161.178 5.58045 160.578 6.58545 160.263 7.14045L160.338 6.45045V5.77545H158.358V13.8455H160.338V9.13546C160.338 7.65045 161.298 7.24545 162.108 7.24545C163.098 7.24545 163.473 7.84545 163.473 8.74546V13.8455H165.453Z" fill="#222222"/>
<path d="M174.223 3.31544C173.398 2.70044 172.453 2.20544 171.313 1.86043L170.458 3.36044C171.523 3.69044 172.483 4.15544 173.368 4.81544L174.223 3.31544ZM179.833 6.99045L178.648 5.55045C176.128 9.21046 173.473 11.1755 169.693 12.7355L170.488 14.1755C170.548 14.2955 170.713 14.5805 170.863 14.5805C170.923 14.5805 170.953 14.5205 171.013 14.3105C171.043 14.2205 171.073 14.1755 171.133 14.1455C172.498 13.4855 174.223 12.6305 176.278 10.9055C178.258 9.24046 179.263 7.81545 179.833 6.99045ZM172.678 6.82545C171.778 6.12045 170.818 5.62545 169.693 5.28045L168.838 6.78045C170.113 7.17045 171.043 7.75545 171.748 8.23546L172.678 6.82545Z" fill="#222222"/>
<path d="M194.158 2.41544C194.158 2.23543 193.858 2.22043 193.783 2.22043L191.863 2.11543C191.938 3.31544 191.968 5.40045 191.968 5.76045C191.968 10.2905 190.678 11.7155 187.603 12.9305L188.908 14.3855C190.468 13.5905 192.418 12.4805 193.303 9.82546C193.783 8.37046 193.813 7.18545 193.813 4.26044C193.813 4.11044 193.783 3.43544 193.798 3.30044C193.798 2.88044 193.798 2.83544 193.993 2.64044C194.143 2.52044 194.158 2.46044 194.158 2.41544ZM187.918 2.53544C187.918 2.40044 187.648 2.38543 187.528 2.37044L185.743 2.22043V9.30046H187.528V2.97044C187.528 2.92544 187.543 2.91044 187.768 2.74544C187.828 2.68544 187.918 2.61044 187.918 2.53544Z" fill="#222222"/>
<path d="M210.673 9.09046V7.18545H200.008V9.09046H210.673Z" fill="#222222"/>
<path d="M228.163 1.95043C227.818 1.42543 227.458 1.05043 227.023 0.69043L226.303 1.29043C226.888 1.80043 227.233 2.26544 227.443 2.55044L228.163 1.95043ZM227.218 3.72044C226.888 3.19544 226.543 2.77544 226.108 2.32544L225.373 2.91044C225.808 3.34544 226.123 3.75044 226.483 4.30544L227.218 3.72044ZM226.618 12.0005C225.388 10.6505 224.098 9.37546 222.628 8.29546C223.588 6.76545 223.918 6.00045 224.353 4.96545C224.578 4.44044 224.848 4.23044 225.178 4.02044L223.933 2.71544C223.783 2.86544 223.513 3.13544 223.228 3.13544H216.763V4.87544H222.463C220.468 9.69046 217.093 11.3855 215.128 12.1955L216.463 13.5755C219.433 12.1055 220.543 10.9205 221.623 9.70546C222.868 10.7405 223.933 11.7455 225.253 13.4555L226.618 12.0005Z" fill="#222222"/>
<path d="M242.878 11.6705C241.528 10.7555 240.883 10.5005 240.298 10.2605C240.133 8.58046 240.103 7.86045 240.088 6.24045C240.568 6.15045 241.348 6.03045 241.963 5.82045V4.20044C241.393 4.54544 240.523 4.72544 240.103 4.81544C240.178 3.99044 240.223 3.33044 240.313 2.95544C240.463 2.86544 240.598 2.79044 240.598 2.71544C240.598 2.62544 240.553 2.55044 240.238 2.50544L238.558 2.23543C238.528 3.72044 238.528 3.88544 238.498 5.01044C238.078 5.05544 237.673 5.10045 237.103 5.10045C236.398 5.10045 236.023 5.05544 235.753 5.01044L235.768 6.55545C236.698 6.60045 237.508 6.54045 238.483 6.43545C238.513 7.45545 238.558 8.08546 238.678 9.87046C238.378 9.84046 238.063 9.81046 237.763 9.81046C236.308 9.81046 235.123 10.3955 235.123 11.7455C235.123 13.9055 237.643 13.9055 238.078 13.9055C240.118 13.9055 240.418 13.1255 240.448 11.9705C241.078 12.3455 241.483 12.6455 242.023 13.1555L242.878 11.6705ZM234.313 10.3505L233.368 9.70546L232.753 10.6055C232.678 9.99046 232.678 9.19546 232.678 9.03046C232.678 7.87545 233.098 5.05544 233.233 4.38044C233.278 4.20044 233.458 3.43544 233.563 3.36044C233.608 3.34544 233.803 3.27044 233.848 3.24044C233.893 3.21044 233.908 3.16544 233.908 3.13544C233.908 2.98544 233.593 2.85044 233.548 2.83544L232.093 2.26544C231.508 4.56044 231.178 6.91545 231.178 9.28546C231.178 10.8605 231.298 12.4355 231.748 13.9355L233.128 13.7105C233.293 12.5105 233.983 11.0555 234.313 10.3505ZM238.768 11.2955C238.798 12.0755 238.828 12.4205 237.838 12.4205C236.953 12.4205 236.518 12.1055 236.518 11.7605C236.518 11.4155 236.998 11.1605 237.703 11.1605C238.153 11.1605 238.543 11.2505 238.768 11.2955Z" fill="#222222"/>
</svg>
