<svg width="228" height="23" viewBox="0 0 228 23" fill="none" xmlns="http://www.w3.org/2000/svg">
<path d="M16.3122 1.88002C14.0082 2.31202 11.6801 2.40802 9.32811 2.40802C8.84811 2.40802 4.64807 2.40802 2.48805 1.97602L2.68005 5.33605C3.28006 5.38405 4.02407 5.45605 5.80008 5.45605C7.9361 5.45605 9.71212 5.36005 10.9841 5.26405C10.4801 5.74405 8.63211 7.16007 8.4401 7.28007C8.70411 7.56807 10.0001 9.03208 10.2881 9.36809C12.4721 7.40007 15.4962 5.43205 17.9682 4.42404L16.3122 1.88002ZM4.31207 11.2401C1.07204 14.0001 0.712036 15.6801 0.712036 16.7602C0.712036 20.3122 4.31207 21.3202 9.71212 21.3202C11.3681 21.3202 16.2882 21.1762 19.5762 20.3602C19.1922 19.0882 19.0002 17.7442 18.9042 16.9762C17.6562 17.3362 14.8002 18.1762 9.76012 18.1762C8.3921 18.1762 5.82408 18.0802 4.64807 17.4802C4.48007 17.3842 4.04807 17.0962 4.04807 16.4001C4.04807 15.2001 6.18408 13.3521 6.54409 13.0401L4.31207 11.2401Z" fill="white"/>
<path d="M32.2003 0.104004C32.0083 0.560008 31.1443 2.86403 30.9283 3.36803C28.2163 9.89609 24.2322 17.4802 22.6962 20.0482L26.0563 21.4642C26.7043 19.3042 28.4803 15.8721 29.4403 14.4561C29.9923 13.6401 31.0003 12.2961 32.4883 12.2961C33.4003 12.2961 33.6403 12.8961 33.6403 13.5681C33.6403 14.2401 33.2323 17.5522 33.2323 18.2962C33.2323 20.7922 34.9363 21.9202 36.8324 21.9202C40.9604 21.9202 44.2964 18.0802 45.2564 16.9762C44.5364 16.2801 43.6004 15.1281 43.0964 14.3841C41.6324 16.4721 38.9444 18.5602 37.6244 18.5602C36.4484 18.5602 36.4484 17.6722 36.4484 17.0962C36.4484 16.1361 36.5924 15.3681 36.7844 14.5041C36.8564 14.1441 37.0004 13.3041 37.0004 12.5121C37.0004 10.1121 35.2723 9.44009 33.7363 9.44009C32.8963 9.44009 31.9363 9.56009 31.2163 9.99209C31.8883 8.48008 34.2163 3.77604 35.0323 2.26402C35.4403 2.28802 35.7523 2.31202 35.7523 2.02402C35.7523 1.80802 35.5603 1.71202 35.3923 1.64002L32.2003 0.104004Z" fill="white"/>
<path d="M60.9046 9.17608C60.4246 9.51209 59.2246 10.8801 59.2246 12.7041C59.2246 13.0641 59.2486 13.6641 59.3926 14.7921C58.9606 14.7201 58.1925 14.6001 57.3525 14.6001C53.8245 14.6001 52.7445 16.6882 52.7445 18.2242C52.7445 20.5042 54.7605 22.0162 58.1205 22.0162C59.3206 22.0162 62.4166 21.9682 62.7766 18.8722C63.5446 19.2802 63.9526 19.5682 65.9926 21.1522C66.1606 20.8882 67.0726 19.5682 67.8646 18.7042C66.4246 17.5282 64.1446 16.2801 62.6806 15.6321C62.5846 15.1281 62.4166 14.0721 62.4166 13.0881C62.4166 12.2001 62.6326 11.5761 63.4006 10.6641L60.9046 9.17608ZM59.8246 17.6002C59.7766 18.4642 59.6326 19.4722 57.8085 19.4722C57.1845 19.4722 55.6965 19.3282 55.6965 18.2482C55.6965 17.3842 56.7765 17.0242 57.5445 17.0242C57.6885 17.0242 58.7206 17.0242 59.8246 17.6002ZM48.4485 7.56807C49.6725 7.52007 51.5445 7.49607 52.3845 7.42407C51.9285 8.79208 50.4405 13.0401 47.3684 17.2882C48.7605 17.7202 49.7445 18.2002 50.3925 18.5362C52.8885 15.0321 55.1925 8.88808 55.8405 6.99207C58.0005 6.65606 59.2726 6.29606 59.8726 6.12806C59.7766 5.24005 59.7526 3.89604 59.8006 3.05603C59.0326 3.32003 58.3125 3.58404 56.8005 3.92004C56.8725 3.63204 57.2805 2.24002 57.3765 1.92802C57.5205 1.92802 57.8565 1.90402 57.8565 1.64002C57.8565 1.47202 57.7365 1.37602 57.4245 1.28001L54.2085 0.272006C54.0165 1.28001 53.8245 2.48003 53.2965 4.44804C51.9285 4.56804 51.2805 4.59204 50.6565 4.59204C49.4565 4.59204 48.7605 4.49604 48.0645 4.40004L48.4485 7.56807ZM60.4966 7.28007C62.4406 7.85607 64.8406 8.86408 66.5926 10.3761C67.1926 9.39209 67.9366 8.38408 68.4166 7.73607C67.2406 6.80006 65.8726 5.86405 62.1526 4.64004L60.4966 7.28007Z" fill="white"/>
<path d="M83.4408 3.89604V1.30401C83.6568 1.20801 83.9208 1.08801 83.9208 0.872011C83.9208 0.608009 83.5848 0.560008 83.4408 0.560008L80.2487 0.368007V3.89604H70.8887V6.75206H79.1447C79.0967 9.12808 78.9527 17.1922 70.2646 20.1922C71.2247 20.5282 72.2327 21.6082 72.7367 22.4002C79.0007 19.3042 80.8247 14.2641 81.4487 12.0801H86.8008C86.8008 19.4962 85.0488 19.4962 83.9208 19.4962C83.1048 19.4962 81.9768 19.2802 81.5447 19.2082C82.0248 19.7602 82.7448 20.6242 82.9848 22.4002C87.7608 22.4242 89.7768 21.3922 89.7768 9.32009H82.0007C82.1687 7.88007 82.1928 7.16007 82.1928 6.75206H92.8489V3.89604H83.4408Z" fill="white"/>
<path d="M97.6009 0.920012C96.8089 4.52004 96.0889 7.78407 96.0889 12.2001C96.0889 16.7842 96.9289 19.4002 97.6969 21.5122L100.577 20.6962C100.457 18.3442 101.897 15.2961 102.209 14.6721C101.513 14.1921 101.009 13.6401 100.577 12.9681C100.193 13.6401 99.4729 15.2721 99.4009 15.4641C99.2809 14.6961 99.1849 14.2161 99.1849 12.8241C99.1849 7.59207 100.361 4.11204 100.769 2.86403C101.129 2.81603 101.369 2.76803 101.369 2.52803C101.369 2.31202 101.177 2.26402 100.817 2.12002L97.6009 0.920012ZM104.513 6.53606C105.233 6.58406 106.097 6.63206 107.417 6.63206C109.937 6.63206 112.481 6.44006 114.953 5.93606C114.881 5.50405 114.785 5.02405 114.641 2.81603C112.121 3.46403 109.601 3.58404 107.369 3.58404C106.025 3.58404 105.185 3.51203 104.513 3.46403V6.53606ZM104.441 12.8241C103.625 14.6001 103.577 15.8961 103.577 16.4001C103.577 18.7762 105.593 19.8562 110.393 19.8562C111.905 19.8562 114.497 19.7362 115.961 19.5202C115.937 19.0642 115.913 17.6962 116.249 16.1841C114.065 16.7362 111.905 16.8322 110.201 16.8322C107.609 16.8322 106.505 16.5922 106.505 15.3921C106.505 15.0321 106.649 14.3601 107.105 13.3281L104.441 12.8241Z" fill="white"/>
<path d="M129.329 8.60008C127.601 11.4561 124.073 14.9121 119.417 16.8322C120.641 17.7682 121.433 19.1602 121.601 19.4482C124.001 18.2242 127.505 16.1601 130.865 11.6721V17.0002C130.865 18.2962 130.865 18.8002 129.617 18.8002C128.825 18.8002 127.865 18.6082 127.553 18.5362C128.321 19.9762 128.417 20.3122 128.753 21.9922C133.025 22.0402 134.249 21.2002 134.249 18.8242V8.60008H139.481V5.52805H134.249V1.59202C134.465 1.49602 134.729 1.37602 134.729 1.16001C134.729 0.992012 134.537 0.920012 134.249 0.896011L130.865 0.680009V5.52805H119.873V8.60008H129.329Z" fill="white"/>
<path d="M156.377 5.26405C155.345 8.00007 154.433 10.2561 151.841 13.0161C148.289 16.8322 144.785 18.1282 143.345 18.6322C144.473 19.5922 144.881 20.1442 145.625 21.4402C149.681 19.7122 153.569 16.0401 155.225 13.9521C158.753 16.6882 160.745 19.3042 162.041 21.1042C162.329 20.7682 163.673 19.2802 164.513 18.3682C162.617 16.0641 158.849 12.8001 157.025 11.4321C158.561 8.93608 159.113 7.66407 160.121 5.31205C160.289 4.95205 160.553 4.40004 161.033 3.77604L159.401 2.02402C159.017 2.16802 158.129 2.21602 157.745 2.21602H145.553V5.26405H156.377Z" fill="white"/>
<path d="M180.378 5.26405C179.346 8.00007 178.434 10.2561 175.842 13.0161C172.29 16.8322 168.786 18.1282 167.346 18.6322C168.474 19.5922 168.882 20.1442 169.626 21.4402C173.682 19.7122 177.57 16.0401 179.226 13.9521C182.754 16.6882 184.746 19.3042 186.042 21.1042C186.33 20.7682 187.674 19.2802 188.514 18.3682C186.618 16.0641 182.85 12.8001 181.026 11.4321C182.562 8.93608 183.114 7.66407 184.122 5.31205C184.29 4.95205 184.554 4.40004 185.034 3.77604L183.402 2.02402C183.018 2.16802 182.13 2.21602 181.746 2.21602H169.554V5.26405H180.378Z" fill="white"/>
<path d="M205.794 1.73602C204.834 5.19205 203.37 7.88007 202.746 8.93608C201.162 7.61607 199.482 6.41606 197.922 5.33605L196.002 7.92807C197.73 8.98408 199.338 10.2081 200.826 11.5521C197.922 15.4161 194.754 17.3122 191.802 18.7042C193.29 19.7602 193.89 20.5282 194.346 21.1522C199.482 18.6082 202.554 14.7441 203.25 13.8801C204.186 14.8641 205.554 16.3521 206.586 17.9362C207.522 16.8802 208.074 16.2321 209.034 15.3441C208.146 14.0241 206.25 12.0801 205.218 11.1201C206.658 8.88808 207.546 6.92006 208.794 4.01604C209.25 3.96804 209.514 3.80004 209.514 3.58404C209.514 3.44003 209.346 3.32003 209.178 3.24803L205.794 1.73602Z" fill="white"/>
<path d="M224.154 1.64002V7.49607L224.898 14.5761H226.842L227.562 7.49607V1.64002H224.154ZM224.034 16.7842V20.5522H227.682V16.7842H224.034Z" fill="white"/>
</svg>
