<svg width="317" height="199" viewBox="0 0 317 199" fill="none" xmlns="http://www.w3.org/2000/svg">
<path d="M37.1845 46.7335C35.9125 46.7335 34.7605 46.4575 33.7285 45.9055C32.7085 45.3415 31.9045 44.5675 31.3165 43.5835C30.7405 42.5995 30.4525 41.4895 30.4525 40.2535C30.4525 39.0175 30.7465 37.9075 31.3345 36.9235C31.9225 35.9394 32.7265 35.1714 33.7465 34.6194C34.7785 34.0554 35.9305 33.7734 37.2025 33.7734C38.2345 33.7734 39.1766 33.9534 40.0286 34.3134C40.8806 34.6734 41.6006 35.1954 42.1886 35.8794L40.6766 37.3015C39.7646 36.3174 38.6426 35.8254 37.3105 35.8254C36.4465 35.8254 35.6725 36.0174 34.9885 36.4014C34.3045 36.7735 33.7705 37.2955 33.3865 37.9675C33.0025 38.6395 32.8105 39.4015 32.8105 40.2535C32.8105 41.1055 33.0025 41.8675 33.3865 42.5395C33.7705 43.2115 34.3045 43.7395 34.9885 44.1235C35.6725 44.4955 36.4465 44.6815 37.3105 44.6815C38.6426 44.6815 39.7646 44.1835 40.6766 43.1875L42.1886 44.6275C41.6006 45.3115 40.8746 45.8335 40.0106 46.1935C39.1586 46.5535 38.2165 46.7335 37.1845 46.7335Z" fill="url(#paint0_linear)"/>
<path d="M48.2467 35.9334H44.0707V33.9534H54.7627V35.9334H50.5867V46.5535H48.2467V35.9334Z" fill="url(#paint1_linear)"/>
<path d="M65.3029 46.5535L62.7289 42.8635C62.6209 42.8755 62.4589 42.8815 62.2429 42.8815H59.3989V46.5535H57.0589V33.9534H62.2429C63.3349 33.9534 64.2829 34.1334 65.0869 34.4934C65.9029 34.8534 66.5269 35.3694 66.9589 36.0414C67.3909 36.7135 67.6069 37.5115 67.6069 38.4355C67.6069 39.3835 67.3729 40.1995 66.9049 40.8835C66.4489 41.5675 65.7889 42.0775 64.9249 42.4135L67.8229 46.5535H65.3029ZM65.2489 38.4355C65.2489 37.6315 64.9849 37.0135 64.4569 36.5815C63.9289 36.1494 63.1549 35.9334 62.1349 35.9334H59.3989V40.9555H62.1349C63.1549 40.9555 63.9289 40.7395 64.4569 40.3075C64.9849 39.8635 65.2489 39.2395 65.2489 38.4355Z" fill="url(#paint2_linear)"/>
<path d="M47.8187 67.4776C46.9547 67.0276 45.1367 66.0916 43.9127 64.5976C44.9747 62.9236 45.6767 61.3936 46.1267 58.0095H47.3507V56.1015H42.0767C42.2567 55.5435 42.3107 55.3635 42.4547 54.6615C42.4907 54.5535 42.5087 54.4815 42.7247 54.3735C42.8687 54.3015 42.9227 54.2475 42.9227 54.1575C42.9227 54.0495 42.8147 53.9595 42.6167 53.9235L40.5647 53.4735C40.4567 54.3375 40.3307 55.2735 39.9167 56.6595C39.4127 58.3335 38.9627 59.1255 38.5127 59.8996V54.6615H32.2847V56.5155H36.5327V58.7295H32.2847V64.3276C32.2847 65.6776 33.1667 66.4156 34.1207 66.4156H36.7307C38.3147 66.4156 38.8367 65.5876 39.3047 63.4456L37.7027 62.7256C37.6127 63.3376 37.5407 63.5716 37.3967 64.0216C37.2527 64.4356 37.1087 64.5256 36.6767 64.5256H34.8947C34.3907 64.5256 34.2287 64.3096 34.2287 63.6976V60.4396H38.1527C37.9907 60.6736 37.8647 60.8356 37.6307 61.0876L39.4847 61.8616C39.5747 61.7536 39.8987 61.3036 40.1147 60.9976C40.4387 62.3116 40.7627 63.2296 41.5007 64.5256C39.9527 66.1096 38.6927 66.8296 36.8207 67.4776L38.4767 69.0076C40.2407 68.1796 41.3207 67.4956 42.6707 66.1456C43.8227 67.4056 44.7587 68.1076 46.3607 68.9536L47.8187 67.4776ZM44.2727 58.0095C44.1467 59.7015 43.7507 61.3036 42.7607 62.9236C41.9147 61.4296 41.6267 59.7195 41.5007 58.0095H44.2727Z" fill="url(#paint3_linear)"/>
<path d="M66.2688 63.3196V61.8256H63.0288L63.2268 61.4476C63.5508 61.3936 63.6408 61.2676 63.6408 61.1596C63.6408 61.0156 63.4788 60.8896 62.9208 60.7636L62.3808 60.6376H66.1788V59.3055H59.5368V58.4415H64.0368V57.0375H59.5368V56.3355H65.7468V54.9315H61.9668C62.2008 54.5175 62.3448 54.2475 62.4888 54.1755C62.7048 54.1035 62.8668 54.0315 62.8668 53.9415C62.8668 53.7795 62.7048 53.7255 62.2548 53.6355L60.5628 53.3115C60.3108 54.0315 60.1668 54.3735 59.8248 54.9315H57.0528C56.4948 54.0855 56.0988 53.5995 55.8648 53.3115L54.0108 53.8695C54.4428 54.3555 54.5868 54.5535 54.8568 54.9315H51.1847V56.3355H57.3768V57.0375H52.8767V58.4415H57.3768V59.3055H50.6987V60.6376H54.5328L53.4167 60.9436C53.5427 61.1776 53.6867 61.4836 53.8127 61.8256H50.6267V63.3196H66.2688ZM61.4088 60.6376C61.3188 60.9076 60.9408 61.6096 60.8148 61.8256H59.5368V60.6376H61.4088ZM57.3768 61.8256H55.9548C55.7208 61.2496 55.5948 61.0156 55.3968 60.6376H57.3768V61.8256ZM64.1448 69.0256V64.1296H52.7327V69.0256H54.8748V68.6116H62.0568V69.0256H64.1448ZM62.0568 67.0636H54.8748V65.6416H62.0568V67.0636Z" fill="url(#paint4_linear)"/>
<path d="M81.1659 87.1746C102.048 69.9623 105.024 39.0803 87.8112 18.1979L88.5822 17.5624C106.145 38.8707 103.11 70.3823 81.8014 87.9456C60.4932 105.509 28.9816 102.473 11.4183 81.1648C-6.14503 59.8566 -3.10918 28.345 18.199 10.7817L18.8345 11.5526C-2.04796 28.765 -5.02315 59.6469 12.1892 80.5293C29.4016 101.412 60.2835 104.387 81.1659 87.1746Z" fill="#95D1E6"/>
<path d="M61.7608 92.9657C85.8421 86.4704 100.098 61.6832 93.6031 37.6019L94.5677 37.3417C101.207 61.9558 86.635 87.2914 62.0209 93.9303C37.4069 100.569 12.0713 85.9976 5.43233 61.3835C-1.20664 36.7695 13.3651 11.4339 37.9791 4.79492L38.2393 5.75952C14.158 12.2548 -0.0983524 37.042 6.39693 61.1234C12.8922 85.2047 37.6795 99.461 61.7608 92.9657Z" fill="#95D1E6"/>
<path d="M90.8036 57.8289C86.116 80.3448 64.0631 94.7975 41.5472 90.1098C19.0313 85.4221 4.57869 63.3692 9.26638 40.8534C13.9541 18.3375 36.0069 3.88483 58.5228 8.57251L58.7264 7.59442C35.6704 2.79427 13.0884 17.5936 8.28828 40.6497C3.48814 63.7058 18.2875 86.2877 41.3436 91.0879C64.3997 95.888 86.9816 81.0887 91.7817 58.0326L90.8036 57.8289Z" fill="#95D1E6"/>
<path d="M141.144 36.4994C141.342 36.1034 141.558 35.6534 141.756 35.1494H143.574V36.4994H141.144ZM145.608 35.1494H148.83V33.2054H145.608V30.9374H143.574V33.2054H142.422C142.584 32.6654 142.728 32.1254 142.836 31.5674L140.874 31.1534C140.55 32.8634 139.956 34.6814 139.218 35.8154C139.632 35.9594 140.37 36.2654 140.838 36.4994H139.488V38.4254H143.574V39.7394H140.19V46.2014H142.098V41.6474H143.574V47.6234H145.608V41.6474H147.192V44.2754C147.192 44.4554 147.138 44.4914 146.976 44.4914C146.814 44.5094 146.364 44.5094 145.86 44.4734C146.094 44.9954 146.328 45.7514 146.382 46.2914C147.282 46.3094 147.966 46.2734 148.47 45.9674C148.992 45.6614 149.118 45.1574 149.118 44.3294V39.7394H145.608V38.4254H149.55V36.4994H145.608V35.1494ZM152.358 32.3054H150.36V42.4394H152.358V32.3054ZM153.582 31.1354V45.0854C153.582 45.3914 153.474 45.4634 153.186 45.4814C152.88 45.4814 151.944 45.4814 151.026 45.4454C151.296 46.0754 151.584 47.0114 151.656 47.6054C153.042 47.6054 154.086 47.5334 154.752 47.1914C155.4 46.8314 155.634 46.2554 155.634 45.1034V31.1354H153.582Z" fill="url(#paint5_linear)"/>
<path d="M162.042 30.9014C161.142 33.4574 159.576 36.0134 157.938 37.6334C158.316 38.1734 158.928 39.3974 159.126 39.9194C159.486 39.5234 159.864 39.0734 160.242 38.6234V47.6234H162.402V35.2934C163.068 34.0874 163.662 32.8094 164.13 31.5494L162.042 30.9014ZM174.948 35.7974V33.7634H167.964C168.306 33.0254 168.594 32.2874 168.846 31.5314L166.776 31.0094C165.966 33.5834 164.544 36.1754 162.96 37.7954C163.41 38.1374 164.256 38.8934 164.598 39.2894C165.408 38.3534 166.236 37.1294 166.956 35.7974H167.64V47.6414H169.836V43.6454H174.732V41.6654H169.836V39.6314H174.498V37.6874H169.836V35.7974H174.948Z" fill="url(#paint6_linear)"/>
<path d="M143.7 66.7835C143.34 66.7835 143.286 66.6575 143.286 65.9015V56.0735H138.012C138.066 54.8675 138.066 53.6255 138.084 52.3835H135.78C135.78 53.6435 135.78 54.8675 135.744 56.0735H130.902V58.1975H135.618C135.528 59.0795 135.402 59.9435 135.204 60.7715C134.448 60.2855 133.692 59.8355 133.008 59.4395L131.55 60.9335C132.468 61.4915 133.494 62.1755 134.484 62.8775C133.638 64.7135 132.234 66.2795 129.876 67.4315C130.434 67.8455 131.118 68.6015 131.442 69.1595C133.836 67.9175 135.366 66.2255 136.338 64.2815C137.148 64.9115 137.832 65.5415 138.318 66.0635L139.938 64.3175C139.272 63.6515 138.282 62.8595 137.184 62.0855C137.544 60.8615 137.76 59.5475 137.886 58.1975H141.072V65.9015C141.072 68.2235 141.612 68.8715 143.304 68.8715H144.87C146.526 68.8715 147.03 67.7555 147.21 64.5155C146.616 64.3535 145.698 63.9395 145.194 63.5435C145.14 66.2075 145.068 66.7835 144.672 66.7835H143.7Z" fill="url(#paint7_linear)"/>
<path d="M154.95 61.9415L154.734 60.0875L153.24 60.4475V57.6395H155.022V55.6595H153.24V52.3475H151.134V55.6595H148.866V57.6395H151.134V60.9695C150.162 61.2035 149.298 61.4015 148.596 61.5275L149.172 63.7595C149.784 63.5795 150.45 63.3815 151.134 63.1655V66.8375C151.134 67.0895 151.044 67.1615 150.81 67.1795C150.576 67.1795 149.82 67.1795 149.136 67.1435C149.388 67.7015 149.658 68.5655 149.73 69.1055C150.99 69.1055 151.854 69.0515 152.466 68.7275C153.042 68.4035 153.24 67.8815 153.24 66.8195V62.4995L154.95 61.9415ZM161.736 61.9235C161.268 62.8775 160.638 63.7055 159.864 64.4075C159.09 63.6875 158.46 62.8595 157.992 61.9235H161.736ZM163.158 59.9255L162.762 59.9975H155.976C158.01 58.7015 158.514 56.6675 158.532 54.9755H160.836V56.9195C160.836 58.6835 161.286 59.2055 162.762 59.2055H163.896C165.138 59.2055 165.588 58.5935 165.768 56.3795C165.228 56.2535 164.418 55.9295 164.022 55.6235C163.986 57.1895 163.932 57.4415 163.662 57.4415H163.158C162.942 57.4415 162.888 57.3875 162.888 56.9015V52.9955H156.516V54.8315C156.516 56.0195 156.3 57.4235 154.518 58.4495C154.914 58.7555 155.67 59.5655 155.922 59.9975H155.562V61.9235H157.524L156.012 62.3915C156.606 63.6335 157.308 64.7315 158.172 65.6495C156.948 66.3875 155.508 66.8915 153.942 67.1975C154.338 67.6835 154.824 68.5835 155.04 69.1595C156.84 68.7095 158.46 68.0435 159.864 67.1255C161.124 68.0255 162.636 68.7095 164.4 69.1235C164.724 68.5475 165.318 67.6475 165.804 67.1795C164.22 66.8735 162.816 66.3695 161.628 65.6855C162.96 64.3715 163.95 62.6615 164.562 60.4835L163.158 59.9255Z" fill="url(#paint8_linear)"/>
<path d="M180.366 53.6255H177.774C177.846 53.9135 177.936 54.4355 177.972 54.8675C178.008 55.3535 178.044 56.3075 178.062 57.2975C177.432 57.3155 176.802 57.3335 176.208 57.3335C175.236 57.3335 174.354 57.2795 173.472 57.1535V59.4215C174.372 59.4755 175.47 59.5295 176.262 59.5295C176.856 59.5295 177.486 59.5295 178.098 59.5115C178.098 59.7455 178.098 59.9615 178.098 60.1415C178.098 63.1835 177.792 64.7855 176.424 66.2255C175.92 66.7835 175.02 67.3595 174.318 67.6655L176.406 69.3035C179.988 67.0175 180.312 64.4075 180.312 60.1595C180.312 59.9795 180.312 59.7095 180.312 59.4215C181.392 59.3495 182.382 59.2775 183.156 59.1875L183.174 56.8475C182.382 56.9915 181.374 57.0995 180.294 57.1895C180.294 56.1815 180.294 55.2455 180.312 54.8675C180.312 54.4535 180.33 54.0215 180.366 53.6255ZM171.618 53.9315L168.954 53.6795C168.936 54.1295 168.918 54.7415 168.846 55.2275C168.612 56.7035 168.252 59.4755 168.252 62.4275C168.252 64.6595 168.882 67.1795 169.278 68.2595L171.294 68.0615C171.276 67.8095 171.258 67.5035 171.24 67.3055C171.24 67.1075 171.294 66.7115 171.348 66.4235C171.582 65.4155 172.05 63.5975 172.59 62.0495L171.456 61.3295C171.168 61.9775 170.826 62.8595 170.592 63.4175C170.106 61.1855 170.754 57.4055 171.204 55.4075C171.276 55.0295 171.474 54.3815 171.618 53.9315ZM181.788 52.9955L180.564 53.3735C180.924 54.1115 181.248 55.1555 181.5 55.9295L182.742 55.5155C182.544 54.8315 182.13 53.7155 181.788 52.9955ZM183.642 52.4195L182.418 52.8155C182.778 53.5355 183.138 54.5615 183.408 55.3355L184.632 54.9395C184.416 54.2555 183.984 53.1395 183.642 52.4195Z" fill="url(#paint9_linear)"/>
<path d="M158.069 98.9967C185.13 99.2343 207.26 77.4897 207.497 50.429L208.496 50.4377C208.254 78.0503 185.673 100.238 158.06 99.9957C130.448 99.7533 108.26 77.1725 108.502 49.56C108.745 21.9474 131.326 -0.240425 158.938 0.00196725L158.929 1.001C131.869 0.763449 109.739 22.508 109.501 49.5687C109.264 76.6295 131.008 98.7592 158.069 98.9967Z" fill="#95D1E6"/>
<path d="M139.482 90.9596C162.104 101.463 188.958 91.6387 199.461 69.0162L200.368 69.437C189.632 92.5599 162.184 102.602 139.061 91.8657C115.938 81.1298 105.896 53.6819 116.632 30.559C127.368 7.43607 154.816 -2.60562 177.939 8.13024L177.518 9.0364C154.896 -1.4671 128.042 8.35725 117.538 30.9797C107.035 53.6021 116.859 80.456 139.482 90.9596Z" fill="#95D1E6"/>
<path d="M184.315 82.7116C166.251 96.9466 140.068 93.8427 125.833 75.7787C111.598 57.7148 114.702 31.5314 132.766 17.2964C150.83 3.06142 177.013 6.16537 191.248 24.2293L192.033 23.6109C177.456 5.11361 150.645 1.93521 132.147 16.5117C113.65 31.0882 110.472 57.8998 125.048 76.3971C139.625 94.8944 166.436 98.0728 184.934 83.4963L184.315 82.7116Z" fill="#95D1E6"/>
<path d="M257.588 33.6928V35.1868H254.636V33.6928H257.588ZM254.636 38.5348V37.0588H257.588V38.5348H254.636ZM255.788 41.7028C256.13 42.2068 256.472 42.7648 256.796 43.3228L254.636 43.8628V40.5148H259.568V31.7128H252.584V44.3308C252.152 44.4388 251.738 44.5288 251.378 44.6008L251.99 46.7968C253.628 46.3468 255.734 45.7708 257.768 45.1948C258.038 45.7708 258.254 46.3108 258.38 46.7788L260.27 45.8248C259.82 44.4388 258.632 42.4048 257.516 40.8928L255.788 41.7028ZM267.524 31.6768H260.576V47.6248H262.754V33.8368H265.31V42.4768C265.31 42.7108 265.238 42.8008 265.004 42.8008C264.752 42.8008 264.014 42.8188 263.312 42.7648C263.636 43.3588 263.978 44.4568 264.05 45.1048C265.202 45.1048 266.048 45.0508 266.714 44.6548C267.362 44.2588 267.524 43.5568 267.524 42.5488V31.6768Z" fill="url(#paint10_linear)"/>
<path d="M274.508 44.0968V40.0648H282.5V44.0968H274.508ZM282.5 34.0708V37.9408H274.508V34.0708H282.5ZM272.294 31.9108V47.4268H274.508V46.2568H282.5V47.3908H284.804V31.9108H272.294Z" fill="url(#paint11_linear)"/>
<path d="M256.76 57.4429C256.562 58.7569 256.274 59.9629 255.896 61.0789C255.104 60.1249 254.294 59.2069 253.52 58.3789L251.99 59.5849C252.98 60.6829 254.042 61.9609 254.996 63.2389C254.078 64.9669 252.836 66.3529 251.162 67.3249C251.612 67.7209 252.35 68.5669 252.602 68.9989C254.114 67.9909 255.338 66.6949 256.292 65.1109C256.814 65.9209 257.228 66.6769 257.516 67.3249L259.226 65.8669C258.812 65.0029 258.164 63.9949 257.372 62.9509C258.02 61.4029 258.506 59.6569 258.848 57.7129L256.76 57.4429ZM259.406 60.6289C260.216 61.8529 260.99 63.4909 261.26 64.5529L263.114 63.5989C262.826 62.5369 261.962 60.9889 261.116 59.8009L259.406 60.6289ZM268.136 56.3269H266.21V52.3308H264.104V56.3269H260.18V55.1029H256.85V52.3488H254.798V55.1029H251.666V57.0829H259.586V58.3789H264.104V66.4789C264.104 66.7669 263.996 66.8569 263.672 66.8569C263.366 66.8569 262.394 66.8749 261.386 66.8209C261.692 67.4689 261.998 68.4949 262.07 69.1249C263.564 69.1249 264.626 69.0349 265.31 68.6569C265.994 68.3149 266.21 67.6849 266.21 66.4789V58.3789H268.136V56.3269Z" fill="url(#paint12_linear)"/>
<path d="M273.68 56.4529H286.676V54.4189H280.178V52.3488H277.946V54.4189H271.538V58.9549C271.538 61.5469 271.412 65.3269 269.936 67.9009C270.44 68.1349 271.394 68.7469 271.79 69.1069C273.41 66.2989 273.68 61.8529 273.68 58.9549V56.4529ZM283.13 59.1169C282.158 58.2709 280.214 57.1909 278.774 56.5069L277.352 57.9109C278.828 58.6669 280.718 59.8729 281.582 60.7189L283.13 59.1169ZM275.264 67.5769C276.074 66.1369 276.398 63.7609 276.596 61.6909L274.67 61.2769C274.49 63.2749 274.112 65.3629 273.356 66.7309L275.264 67.5769ZM279.926 66.8929C279.422 66.8929 279.35 66.8029 279.35 66.1549V59.8909H277.226V66.1729C277.226 68.1709 277.676 68.8009 279.584 68.8009H281.582C283.256 68.8009 283.796 67.9369 283.994 64.8589C283.436 64.7149 282.554 64.3729 282.104 63.9949C282.032 66.4789 281.924 66.8929 281.384 66.8929H279.926ZM282.824 61.5469C283.85 63.4549 284.786 65.9569 285.02 67.5589L287.126 66.6949C286.838 65.0569 285.794 62.6809 284.732 60.8089L282.824 61.5469Z" fill="url(#paint13_linear)"/>
<path d="M222.863 67.3636C231.895 92.8736 259.897 106.232 285.407 97.1995L285.741 98.1413C259.711 107.358 231.138 93.7272 221.921 67.697C212.705 41.6668 226.336 13.094 252.366 3.8777C278.396 -5.33857 306.969 8.29179 316.185 34.322L315.243 34.6554C306.211 9.14538 278.209 -4.21264 252.699 4.81947C227.189 13.8516 213.831 41.8535 222.863 67.3636Z" fill="#95D1E6"/>
<path d="M224.058 47.148C221.926 71.9986 240.342 93.8729 265.193 96.0056L265.107 97.001C239.707 94.8211 220.883 72.4629 223.063 47.0626C225.243 21.6623 247.601 2.83843 273.001 5.01834C298.402 7.19826 317.225 29.5564 315.046 54.9568L314.05 54.8713C316.183 30.0208 297.766 8.14648 272.916 6.01375C248.065 3.88102 226.191 22.2975 224.058 47.148Z" fill="#95D1E6"/>
<path d="M247.143 86.4569C227.588 74.351 221.55 48.685 233.655 29.1303C245.761 9.57553 271.427 3.53703 290.982 15.6429C310.537 27.7488 316.575 53.4148 304.469 72.9695L305.319 73.4954C317.715 53.4715 311.532 27.1897 291.508 14.7934C271.484 2.39714 245.202 8.5805 232.806 28.6044C220.41 48.6283 226.593 74.91 246.617 87.3063L247.143 86.4569Z" fill="#95D1E6"/>
<path d="M80.1879 131.297V133.799C80.6919 133.763 81.6639 133.727 82.4199 133.727H90.5019V141.179H82.2039C81.3939 141.179 80.5839 141.125 79.9539 141.071V143.645C80.5479 143.591 81.5739 143.537 82.2759 143.537H90.4839C90.4839 143.879 90.4839 144.185 90.4659 144.473H93.0759C93.0399 143.933 93.0039 142.979 93.0039 142.349V133.025C93.0039 132.503 93.0399 131.783 93.0579 131.369C92.7519 131.387 91.9959 131.405 91.4739 131.405H82.4019C81.7899 131.405 80.8539 131.369 80.1879 131.297Z" fill="url(#paint14_linear)"/>
<path d="M110.374 131.873L108.898 130.775C108.538 130.901 107.818 131.009 107.044 131.009H100.69C100.15 131.009 99.0519 130.955 98.5659 130.883V133.439C98.9439 133.421 99.9339 133.313 100.69 133.313H106.792C106.396 134.591 105.298 136.373 104.11 137.723C102.418 139.613 99.6279 141.809 96.7299 142.889L98.5839 144.833C101.05 143.663 103.444 141.791 105.352 139.775C107.044 141.413 108.718 143.249 109.888 144.869L111.94 143.087C110.878 141.791 108.7 139.487 106.918 137.939C108.124 136.319 109.132 134.393 109.744 132.989C109.906 132.629 110.23 132.071 110.374 131.873Z" fill="url(#paint15_linear)"/>
<path d="M117.034 142.349C117.034 143.069 116.962 144.149 116.854 144.869H119.662C119.59 144.131 119.5 142.871 119.5 142.349V137.255C121.444 137.921 124.144 138.965 125.998 139.937L127.024 137.453C125.368 136.643 121.912 135.365 119.5 134.663V131.999C119.5 131.261 119.59 130.469 119.662 129.839H116.854C116.98 130.469 117.034 131.369 117.034 131.999V142.349Z" fill="url(#paint16_linear)"/>
<path d="M88.6839 154.381C88.4859 153.463 87.9819 152.077 87.4599 151.015L85.7139 151.627C86.1819 152.689 86.6679 154.165 86.8299 155.083L88.6839 154.381ZM88.4499 161.329V160.159H92.1399V161.329H88.4499ZM92.1399 157.243V158.359H88.4499V157.243H92.1399ZM94.2099 155.245H91.3299V150.331H89.2059V155.245H86.3979V166.927H88.4499V163.129H92.1399V164.605C92.1399 164.839 92.0499 164.911 91.8159 164.929C91.5639 164.929 90.7899 164.929 90.0879 164.893C90.3399 165.433 90.5919 166.315 90.6639 166.891C91.9239 166.891 92.7699 166.855 93.3819 166.531C94.0299 166.189 94.2099 165.631 94.2099 164.641V155.245ZM93.5979 154.975C94.0479 154.057 94.6059 152.653 95.0739 151.339L92.9499 150.871C92.7159 151.987 92.2479 153.517 91.8159 154.525L93.5979 154.975ZM97.6659 152.509H95.5959V162.553H97.6659V152.509ZM99.5559 150.673V164.497C99.5559 164.839 99.4119 164.947 99.0699 164.965C98.6919 164.965 97.5399 164.965 96.3699 164.911C96.6939 165.523 97.0179 166.513 97.1079 167.125C98.7459 167.143 99.9519 167.071 100.69 166.711C101.428 166.351 101.68 165.775 101.68 164.515V150.673H99.5559Z" fill="url(#paint17_linear)"/>
<path d="M109.312 152.149C108.664 151.573 107.332 150.853 106.324 150.421L105.118 152.005C106.162 152.473 107.44 153.283 108.034 153.877L109.312 152.149ZM108.43 156.901C107.782 156.325 106.486 155.659 105.46 155.263L104.29 156.847C105.298 157.297 106.576 158.053 107.17 158.629L108.43 156.901ZM106.72 159.727C106.036 161.905 105.064 164.263 104.38 165.703L106.324 166.765C107.062 164.965 107.836 162.823 108.448 160.843L106.72 159.727ZM114.1 159.979V161.905H112.858V159.979H114.1ZM115.522 163.471V158.431H111.454V164.443H112.858V163.471H115.522ZM115.378 155.857H111.544V157.423H115.378V155.857ZM118.996 156.019C118.744 157.243 118.42 158.377 118.006 159.421C117.844 158.071 117.718 156.523 117.628 154.849H120.886V152.959H120.148L121.03 152.095C120.562 151.537 119.536 150.817 118.726 150.367L117.574 151.447C118.276 151.861 119.05 152.455 119.572 152.959H117.538C117.502 152.167 117.484 151.357 117.484 150.529H115.522C115.54 151.357 115.558 152.167 115.594 152.959H109.078V157.981C109.078 160.411 108.952 163.723 107.584 166.045C108.034 166.243 108.844 166.783 109.186 167.125C110.698 164.605 110.95 160.681 110.95 157.981V154.849H115.684C115.828 157.801 116.08 160.357 116.476 162.355C115.558 163.705 114.424 164.803 113.038 165.649C113.452 165.973 114.154 166.657 114.442 167.017C115.414 166.333 116.296 165.523 117.07 164.587C117.628 166.189 118.384 167.071 119.374 167.089C120.112 167.089 120.994 166.387 121.444 163.111C121.102 162.949 120.274 162.427 119.932 162.013C119.842 163.669 119.662 164.587 119.41 164.569C119.086 164.551 118.78 163.813 118.492 162.535C119.518 160.771 120.292 158.701 120.832 156.361L118.996 156.019Z" fill="url(#paint18_linear)"/>
<path d="M77.8814 107.322C54.3273 120.647 46.0347 150.543 59.3594 174.097L58.4898 174.589C44.8935 150.554 53.3551 120.049 77.3895 106.452C101.424 92.8561 131.929 101.318 145.526 125.352C159.122 149.386 150.661 179.892 126.626 193.488L126.134 192.619C149.688 179.294 157.981 149.398 144.656 125.844C131.332 102.29 101.435 93.9973 77.8814 107.322Z" fill="#95D1E6"/>
<path d="M97.9973 104.989C73.154 107.203 54.81 129.139 57.0249 153.982L56.0298 154.071C53.7659 128.678 72.5157 106.257 97.9086 103.993C123.302 101.73 145.722 120.479 147.986 145.872C150.25 171.265 131.5 193.686 106.107 195.949L106.018 194.954C130.862 192.739 149.206 170.804 146.991 145.961C144.776 121.118 122.841 102.774 97.9973 104.989Z" fill="#95D1E6"/>
<path d="M63.2943 134.548C71.8206 113.188 96.0481 102.785 117.408 111.311C138.768 119.837 149.171 144.065 140.645 165.425C132.119 186.785 107.891 197.188 86.5314 188.662L86.161 189.59C108.033 198.321 132.842 187.667 141.573 165.795C150.304 143.923 139.651 119.114 117.778 110.383C95.906 101.652 71.0973 112.306 62.3664 134.178L63.2943 134.548Z" fill="#95D1E6"/>
<path d="M196.051 130.109H193.333C193.405 130.613 193.441 131.189 193.441 131.909V135.329C193.441 138.137 193.207 139.487 191.965 140.837C190.885 142.007 189.427 142.691 187.645 143.105L189.517 145.085C190.831 144.671 192.703 143.789 193.891 142.493C195.223 141.017 195.979 139.343 195.979 135.473V131.909C195.979 131.189 196.015 130.613 196.051 130.109ZM187.699 130.253H185.107C185.161 130.667 185.179 131.297 185.179 131.639V137.705C185.179 138.245 185.107 138.947 185.089 139.289H187.699C187.663 138.875 187.645 138.173 187.645 137.723V131.639C187.645 131.063 187.663 130.667 187.699 130.253Z" fill="url(#paint19_linear)"/>
<path d="M200.533 130.847V133.097C201.055 133.061 201.631 133.043 202.279 133.043H204.241V136.103H201.307C200.749 136.103 199.849 136.049 199.345 136.013V138.371C199.885 138.335 200.785 138.281 201.307 138.281H204.241V141.755C204.241 143.573 205.051 144.707 208.345 144.707C210.037 144.707 212.071 144.635 213.241 144.563L213.403 142.133C211.963 142.277 210.379 142.385 208.759 142.385C207.319 142.385 206.707 142.025 206.707 141.035V138.281H212.197C212.593 138.281 213.403 138.281 213.907 138.335L213.889 136.031C213.421 136.067 212.521 136.103 212.143 136.103H206.707V133.043H210.937C211.585 133.043 212.089 133.079 212.557 133.097V130.847C212.143 130.901 211.549 130.937 210.937 130.937H202.279C201.631 130.937 201.055 130.883 200.533 130.847Z" fill="url(#paint20_linear)"/>
<path d="M217.273 135.743V138.569C217.939 138.515 219.145 138.479 220.171 138.479H229.837C230.593 138.479 231.511 138.551 231.943 138.569V135.743C231.475 135.779 230.683 135.851 229.837 135.851H220.171C219.235 135.851 217.921 135.797 217.273 135.743Z" fill="url(#paint21_linear)"/>
<path d="M235.129 142.349C235.129 143.069 235.057 144.149 234.949 144.869H237.757C237.685 144.131 237.595 142.871 237.595 142.349V137.255C239.539 137.921 242.239 138.965 244.093 139.937L245.119 137.453C243.463 136.643 240.007 135.365 237.595 134.663V131.999C237.595 131.261 237.685 130.469 237.757 129.839H234.949C235.075 130.469 235.129 131.369 235.129 131.999V142.349Z" fill="url(#paint22_linear)"/>
<path d="M202.153 155.443C201.955 156.757 201.667 157.963 201.289 159.079C200.497 158.125 199.687 157.207 198.913 156.379L197.383 157.585C198.373 158.683 199.435 159.961 200.389 161.239C199.471 162.967 198.229 164.353 196.555 165.325C197.005 165.721 197.743 166.567 197.995 166.999C199.507 165.991 200.731 164.695 201.685 163.111C202.207 163.921 202.621 164.677 202.909 165.325L204.619 163.867C204.205 163.003 203.557 161.995 202.765 160.951C203.413 159.403 203.899 157.657 204.241 155.713L202.153 155.443ZM204.799 158.629C205.609 159.853 206.383 161.491 206.653 162.553L208.507 161.599C208.219 160.537 207.355 158.989 206.509 157.801L204.799 158.629ZM213.529 154.327H211.603V150.331H209.497V154.327H205.573V153.103H202.243V150.349H200.191V153.103H197.059V155.083H204.979V156.379H209.497V164.479C209.497 164.767 209.389 164.857 209.065 164.857C208.759 164.857 207.787 164.875 206.779 164.821C207.085 165.469 207.391 166.495 207.463 167.125C208.957 167.125 210.019 167.035 210.703 166.657C211.387 166.315 211.603 165.685 211.603 164.479V156.379H213.529V154.327Z" fill="url(#paint23_linear)"/>
<path d="M219.073 154.453H232.069V152.419H225.571V150.349H223.339V152.419H216.931V156.955C216.931 159.547 216.805 163.327 215.329 165.901C215.833 166.135 216.787 166.747 217.183 167.107C218.803 164.299 219.073 159.853 219.073 156.955V154.453ZM228.523 157.117C227.551 156.271 225.607 155.191 224.167 154.507L222.745 155.911C224.221 156.667 226.111 157.873 226.975 158.719L228.523 157.117ZM220.657 165.577C221.467 164.137 221.791 161.761 221.989 159.691L220.063 159.277C219.883 161.275 219.505 163.363 218.749 164.731L220.657 165.577ZM225.319 164.893C224.815 164.893 224.743 164.803 224.743 164.155V157.891H222.619V164.173C222.619 166.171 223.069 166.801 224.977 166.801H226.975C228.649 166.801 229.189 165.937 229.387 162.859C228.829 162.715 227.947 162.373 227.497 161.995C227.425 164.479 227.317 164.893 226.777 164.893H225.319ZM228.217 159.547C229.243 161.455 230.179 163.957 230.413 165.559L232.519 164.695C232.231 163.057 231.187 160.681 230.125 158.809L228.217 159.547Z" fill="url(#paint24_linear)"/>
<path d="M238.845 105.788C215.529 92.0523 185.492 99.8188 171.755 123.135L170.895 122.628C184.911 98.8363 215.56 90.9114 239.352 104.928C263.144 118.944 271.069 149.593 257.053 173.385C243.037 197.177 212.387 205.102 188.595 191.086L189.102 190.225C212.419 203.961 242.456 196.195 256.192 172.878C269.928 149.562 262.162 119.525 238.845 105.788Z" fill="#95D1E6"/>
<path d="M250.924 122.043C236.584 101.635 208.416 96.7163 188.008 111.056L187.434 110.239C208.293 95.5816 237.084 100.609 251.741 121.468C266.399 142.327 261.371 171.119 240.512 185.776C219.653 200.433 190.861 195.405 176.204 174.546L177.022 173.972C191.362 194.379 219.53 199.298 239.938 184.958C260.345 170.618 265.264 142.45 250.924 122.043Z" fill="#95D1E6"/>
<path d="M207.973 106.769C230.734 103.473 251.858 119.253 255.154 142.014C258.45 164.775 242.67 185.899 219.909 189.195C197.147 192.491 176.024 176.711 172.728 153.95L171.739 154.093C175.114 177.4 196.744 193.558 220.052 190.183C243.359 186.808 259.517 165.178 256.143 141.871C252.768 118.563 231.137 102.405 207.83 105.78L207.973 106.769Z" fill="#95D1E6"/>
<defs>
<linearGradient id="paint0_linear" x1="49.0967" y1="32.5538" x2="49.0967" y2="67.5212" gradientUnits="userSpaceOnUse">
<stop stop-color="#37A4BD"/>
<stop offset="1" stop-color="#4D74B9"/>
</linearGradient>
<linearGradient id="paint1_linear" x1="49.0967" y1="32.5538" x2="49.0967" y2="67.5212" gradientUnits="userSpaceOnUse">
<stop stop-color="#37A4BD"/>
<stop offset="1" stop-color="#4D74B9"/>
</linearGradient>
<linearGradient id="paint2_linear" x1="49.0967" y1="32.5538" x2="49.0967" y2="67.5212" gradientUnits="userSpaceOnUse">
<stop stop-color="#37A4BD"/>
<stop offset="1" stop-color="#4D74B9"/>
</linearGradient>
<linearGradient id="paint3_linear" x1="49.0967" y1="32.5538" x2="49.0967" y2="67.5212" gradientUnits="userSpaceOnUse">
<stop stop-color="#37A4BD"/>
<stop offset="1" stop-color="#4D74B9"/>
</linearGradient>
<linearGradient id="paint4_linear" x1="49.0967" y1="32.5538" x2="49.0967" y2="67.5212" gradientUnits="userSpaceOnUse">
<stop stop-color="#37A4BD"/>
<stop offset="1" stop-color="#4D74B9"/>
</linearGradient>
<linearGradient id="paint5_linear" x1="157.146" y1="29.0796" x2="157.146" y2="67.5797" gradientUnits="userSpaceOnUse">
<stop stop-color="#37A4BD"/>
<stop offset="1" stop-color="#4D74B9"/>
</linearGradient>
<linearGradient id="paint6_linear" x1="157.146" y1="29.0796" x2="157.146" y2="67.5797" gradientUnits="userSpaceOnUse">
<stop stop-color="#37A4BD"/>
<stop offset="1" stop-color="#4D74B9"/>
</linearGradient>
<linearGradient id="paint7_linear" x1="157.146" y1="29.0796" x2="157.146" y2="67.5797" gradientUnits="userSpaceOnUse">
<stop stop-color="#37A4BD"/>
<stop offset="1" stop-color="#4D74B9"/>
</linearGradient>
<linearGradient id="paint8_linear" x1="157.146" y1="29.0796" x2="157.146" y2="67.5797" gradientUnits="userSpaceOnUse">
<stop stop-color="#37A4BD"/>
<stop offset="1" stop-color="#4D74B9"/>
</linearGradient>
<linearGradient id="paint9_linear" x1="157.146" y1="29.0796" x2="157.146" y2="67.5797" gradientUnits="userSpaceOnUse">
<stop stop-color="#37A4BD"/>
<stop offset="1" stop-color="#4D74B9"/>
</linearGradient>
<linearGradient id="paint10_linear" x1="269.144" y1="31.5806" x2="269.144" y2="69.5807" gradientUnits="userSpaceOnUse">
<stop stop-color="#37A4BD"/>
<stop offset="1" stop-color="#4D74B9"/>
</linearGradient>
<linearGradient id="paint11_linear" x1="269.144" y1="31.5806" x2="269.144" y2="69.5807" gradientUnits="userSpaceOnUse">
<stop stop-color="#37A4BD"/>
<stop offset="1" stop-color="#4D74B9"/>
</linearGradient>
<linearGradient id="paint12_linear" x1="269.144" y1="31.5806" x2="269.144" y2="69.5807" gradientUnits="userSpaceOnUse">
<stop stop-color="#37A4BD"/>
<stop offset="1" stop-color="#4D74B9"/>
</linearGradient>
<linearGradient id="paint13_linear" x1="269.144" y1="31.5806" x2="269.144" y2="69.5807" gradientUnits="userSpaceOnUse">
<stop stop-color="#37A4BD"/>
<stop offset="1" stop-color="#4D74B9"/>
</linearGradient>
<linearGradient id="paint14_linear" x1="103.372" y1="130.831" x2="103.372" y2="168.581" gradientUnits="userSpaceOnUse">
<stop stop-color="#37A4BD"/>
<stop offset="1" stop-color="#4D74B9"/>
</linearGradient>
<linearGradient id="paint15_linear" x1="103.372" y1="130.831" x2="103.372" y2="168.581" gradientUnits="userSpaceOnUse">
<stop stop-color="#37A4BD"/>
<stop offset="1" stop-color="#4D74B9"/>
</linearGradient>
<linearGradient id="paint16_linear" x1="103.372" y1="130.831" x2="103.372" y2="168.581" gradientUnits="userSpaceOnUse">
<stop stop-color="#37A4BD"/>
<stop offset="1" stop-color="#4D74B9"/>
</linearGradient>
<linearGradient id="paint17_linear" x1="103.372" y1="130.831" x2="103.372" y2="168.581" gradientUnits="userSpaceOnUse">
<stop stop-color="#37A4BD"/>
<stop offset="1" stop-color="#4D74B9"/>
</linearGradient>
<linearGradient id="paint18_linear" x1="103.372" y1="130.831" x2="103.372" y2="168.581" gradientUnits="userSpaceOnUse">
<stop stop-color="#37A4BD"/>
<stop offset="1" stop-color="#4D74B9"/>
</linearGradient>
<linearGradient id="paint19_linear" x1="214.537" y1="130.081" x2="214.537" y2="166.831" gradientUnits="userSpaceOnUse">
<stop stop-color="#37A4BD"/>
<stop offset="1" stop-color="#4D74B9"/>
</linearGradient>
<linearGradient id="paint20_linear" x1="214.537" y1="130.081" x2="214.537" y2="166.831" gradientUnits="userSpaceOnUse">
<stop stop-color="#37A4BD"/>
<stop offset="1" stop-color="#4D74B9"/>
</linearGradient>
<linearGradient id="paint21_linear" x1="214.537" y1="130.081" x2="214.537" y2="166.831" gradientUnits="userSpaceOnUse">
<stop stop-color="#37A4BD"/>
<stop offset="1" stop-color="#4D74B9"/>
</linearGradient>
<linearGradient id="paint22_linear" x1="214.537" y1="130.081" x2="214.537" y2="166.831" gradientUnits="userSpaceOnUse">
<stop stop-color="#37A4BD"/>
<stop offset="1" stop-color="#4D74B9"/>
</linearGradient>
<linearGradient id="paint23_linear" x1="214.537" y1="130.081" x2="214.537" y2="166.831" gradientUnits="userSpaceOnUse">
<stop stop-color="#37A4BD"/>
<stop offset="1" stop-color="#4D74B9"/>
</linearGradient>
<linearGradient id="paint24_linear" x1="214.537" y1="130.081" x2="214.537" y2="166.831" gradientUnits="userSpaceOnUse">
<stop stop-color="#37A4BD"/>
<stop offset="1" stop-color="#4D74B9"/>
</linearGradient>
</defs>
</svg>
