<svg width="283" height="20" viewBox="0 0 283 20" fill="none" xmlns="http://www.w3.org/2000/svg">
<path d="M15.1499 17.6957L9.26991 2.36561H6.0569L0.17688 17.6957H3.30589L4.43989 14.3986H10.8869L12.0209 17.6957H15.1499ZM10.0679 12.0256H5.27989L7.3169 6.12462L7.6739 4.78062L8.0099 6.12462L10.0679 12.0256Z" fill="black"/>
<path d="M20.6055 17.6957V2.36561H17.7705V17.6957H20.6055Z" fill="black"/>
<path d="M39.9001 10.0516V8.05662C39.5011 8.01462 39.0811 7.97262 37.9471 7.97262C36.9391 7.97262 36.2881 7.99362 34.4611 8.18263V10.1986C36.5611 9.92563 38.4511 9.90463 39.9001 10.0516ZM35.5321 6.20862V3.91961C34.5451 4.48661 33.5581 4.90662 32.4241 5.15862C32.5711 4.54961 32.7811 3.54161 32.8021 3.43661C32.8651 2.99561 32.8651 2.93261 33.0121 2.84861C33.3481 2.59661 33.3901 2.57561 33.3901 2.49161C33.3901 2.34461 33.2641 2.26061 32.9281 2.17661L30.5551 1.58861C30.5341 3.22661 30.1981 4.75961 29.9881 5.72562C28.8331 5.91462 28.2451 5.97762 26.4811 5.97762L26.6281 7.95162C27.0691 7.93062 27.4471 7.90962 27.8881 7.82562C28.0561 7.80462 29.5051 7.59462 29.5051 7.59462C28.9801 9.71563 28.1191 12.9916 25.6621 17.1707L27.9931 17.8427C29.6941 14.4616 30.9121 10.8706 31.9411 7.21662C33.0121 7.00662 33.9781 6.79662 35.5321 6.20862ZM40.9501 3.18461C40.6351 2.80661 40.0471 2.11361 39.3541 1.54661L38.4511 2.44961C39.1231 2.99561 39.6901 3.66761 40.0261 4.06661L40.9501 3.18461ZM38.7451 4.27661C38.3671 3.83561 37.7581 3.14261 37.0861 2.57561L36.2041 3.41561C36.8971 3.98261 37.4851 4.67562 37.8631 5.11662L38.7451 4.27661ZM40.2991 17.5067L40.0471 15.2806C39.3961 15.4486 38.3881 15.7006 36.6451 15.7006C36.2671 15.7006 34.7761 15.7006 34.2511 15.2386C33.9991 15.0286 33.9781 14.7976 33.9781 14.6716C33.9781 14.2936 34.0411 14.0416 34.0621 13.8736L32.1091 13.5796C31.9831 14.1046 31.9831 14.6926 31.9831 14.8186C31.9831 17.6747 34.6501 17.8007 36.6871 17.8007C38.6611 17.8007 39.7321 17.6117 40.2991 17.5067Z" fill="black"/>
<path d="M63.6302 9.92563C63.6302 9.16963 63.1052 6.69162 60.3542 3.75161L58.6112 5.01162C59.7662 6.33462 60.9422 8.43463 60.9422 9.08563C60.9422 9.58963 60.4592 9.63163 59.5562 9.71563L60.9842 11.8786C62.3282 11.6266 63.6302 11.1226 63.6302 9.92563ZM58.6532 9.00163C58.6532 7.72062 58.4222 5.38962 55.5662 5.38962C54.9992 5.38962 54.3692 5.47362 53.9072 5.55762C54.0542 4.75961 54.2012 4.02461 54.3062 3.26861C54.3272 3.05861 54.3692 3.03761 54.7472 2.80661C54.9782 2.65961 55.0202 2.59661 55.0202 2.51261C55.0202 2.32361 54.6002 2.19761 54.4322 2.17661L51.8702 1.81961C51.8492 3.56261 51.6602 4.67562 51.4082 6.01962C50.4842 6.16662 48.5522 6.52362 47.0192 6.64962L47.8592 9.19063C48.9512 8.79163 49.8122 8.53963 50.8412 8.28763C49.6022 12.2776 48.5312 14.1466 46.6832 16.4986L49.0772 17.5697C51.2192 14.0836 52.3322 11.6266 53.4242 7.78362C53.8232 7.72062 54.2432 7.67862 54.6212 7.67862C56.1332 7.67862 56.3642 8.35063 56.3642 9.46363C56.3642 11.5846 55.4822 14.1256 55.0832 14.6926C54.7892 15.1126 54.4532 15.2176 53.8232 15.2176C53.0042 15.2176 52.3952 15.0286 51.9332 14.8816L52.2272 17.4227C52.8152 17.5067 53.4662 17.5487 54.0332 17.5487C54.9362 17.5487 56.2802 17.4647 57.1832 15.9316C58.2962 13.9996 58.6532 10.7446 58.6532 9.00163Z" fill="black"/>
<path d="M79.5693 3.01661C77.9522 2.05061 75.9572 1.29461 74.5502 0.853603L73.6472 2.93261C76.1462 3.81461 77.1542 4.36061 78.4982 5.22162L79.5693 3.01661ZM83.4333 12.3826C83.4333 9.33763 80.9763 7.78362 78.7712 7.78362C77.7002 7.78362 75.4952 8.18263 73.6052 9.90463C73.8782 8.32963 74.3192 6.77562 74.8652 5.28462L72.4502 4.33961C71.9882 5.93562 70.9802 9.50563 70.8122 12.3616L72.6392 13.3276C74.8022 10.8076 76.9232 9.96763 78.3722 9.96763C79.9472 9.96763 81.0183 10.8286 81.0183 12.1726C81.0183 14.1046 79.2332 16.1416 75.3272 16.1416C74.3612 16.1416 73.3742 15.9946 72.7022 15.9106L73.8152 18.4937C76.4192 18.4307 83.4333 18.3047 83.4333 12.3826Z" fill="black"/>
<path d="M107.163 7.57362C106.722 7.06962 106.302 6.62862 105.42 5.97762L104.538 6.98562C105.231 7.48962 105.735 7.95162 106.281 8.58163L107.163 7.57362ZM105.462 9.48463C104.937 8.83363 104.412 8.39263 103.719 7.86763L102.858 8.87563C103.677 9.50563 104.118 9.92563 104.58 10.4926L105.462 9.48463ZM106.155 4.00361V1.56761C102.186 2.78561 95.6763 3.28961 91.1403 3.24761L91.4973 5.59962C93.5973 5.30562 96.6843 5.05362 99.4983 4.82262C98.7633 5.49462 97.7133 6.48162 96.7263 8.01462C95.8233 9.37963 95.2983 10.7866 95.2983 12.1936C95.2983 13.6216 95.8443 14.9866 96.8523 15.9736C98.5533 17.6747 100.905 18.1157 102.018 18.3047L102.837 15.7426C101.976 15.7006 100.506 15.6376 99.1413 14.6716C98.5533 14.2516 97.6293 13.3906 97.6293 11.9416C97.6293 10.3456 98.6373 8.45563 100.191 6.90162C102.858 4.21361 105.168 4.06661 106.155 4.00361Z" fill="black"/>
<path d="M127.071 6.90162L126.693 4.80162C125.265 5.64162 124.404 6.08262 122.871 6.69162C122.535 5.95662 122.451 5.74662 122.178 5.09562C123.144 4.78062 124.299 4.42361 125.496 3.66761L125.034 1.63061C123.669 2.38661 122.871 2.74361 121.443 3.24761C121.17 2.49161 120.813 1.4626 120.813 1.31561C120.813 1.2526 120.834 1.1896 121.002 1.0216C121.107 0.916604 121.17 0.853603 121.17 0.748603C121.17 0.496602 120.645 0.559602 120.477 0.580602L118.083 0.853603C118.419 1.84061 118.65 2.51261 119.133 3.81461C117.327 4.12961 116.256 4.21361 114.24 4.23461L114.891 6.25062C116.592 6.22962 117.768 6.10362 119.889 5.68362C120.099 6.16662 120.33 6.69162 120.645 7.40562C118.377 7.88863 117.012 8.01463 114.03 8.03563L114.765 10.1566C117.495 10.1146 119.301 9.77863 121.506 9.23263C121.905 10.0096 122.094 10.3876 122.598 11.2906C121.569 11.1016 120.645 10.9546 119.595 10.9546C117.222 10.9546 114.954 11.7316 114.954 14.6086C114.954 17.3807 117.558 18.5777 121.338 18.5777C122.997 18.5777 124.068 18.4097 124.656 18.3257L124.866 15.8476C123.858 16.0996 122.661 16.4147 120.666 16.4147C119.952 16.4147 117.222 16.4147 117.222 14.6296C117.222 13.4956 118.377 12.9076 119.763 12.9076C122.178 12.9076 124.257 13.9576 125.265 14.5036L126.546 12.9076C125.748 11.9206 125.076 11.0176 123.774 8.53963C125.076 8.03563 125.916 7.65762 127.071 6.90162Z" fill="black"/>
<path d="M149.247 12.1516C149.247 9.84163 147.441 7.51062 144.585 7.51062C144.27 7.51062 143.241 7.53162 142.548 7.63662C145.593 4.52861 145.95 4.19261 147.21 3.14261L146.118 1.4416C144.123 2.21861 140.553 2.49161 139.755 2.49161C139.104 2.49161 137.907 2.40761 137.403 2.36561L137.886 4.71762C140.385 4.69662 141.54 4.48661 142.8 4.19261C139.44 8.26663 137.214 10.1356 135.03 11.7736L136.794 13.6216C137.97 12.4246 139.818 10.5556 141.12 9.86263C141.624 9.58963 142.611 9.33763 143.514 9.33763C144.879 9.33763 146.916 10.0096 146.916 12.0886C146.916 13.5796 145.992 14.4616 145.53 14.8816C144.942 14.1466 143.577 12.4246 141.393 12.4246C139.335 12.4246 138.306 14.0206 138.306 15.2176C138.306 16.7717 139.65 18.0947 142.275 18.0947C145.971 18.0947 149.247 15.6376 149.247 12.1516ZM143.577 15.9106C143.283 15.9736 142.821 16.0996 142.149 16.0996C141.393 16.0996 140.427 15.8896 140.427 15.1546C140.427 14.8816 140.616 14.2726 141.477 14.2726C142.674 14.2726 143.304 15.4276 143.577 15.9106Z" fill="black"/>
<path d="M173.188 18.5777V16.3097H167.496V10.7236H172.159V8.49763H167.496V5.11662C167.496 4.96962 167.517 4.94862 167.811 4.73862C167.895 4.67562 167.938 4.63361 167.938 4.54961C167.938 4.31861 167.727 4.23461 167.328 4.21361L164.871 4.02461V8.49763H160.524V10.7236H164.871V16.3097H158.949V18.5777H173.188ZM173.188 3.33161V1.0846H156.639C156.786 3.22661 156.954 6.90162 156.954 8.18263C156.954 10.5976 156.576 12.8656 156.03 14.7346C155.61 16.1206 155.274 16.7507 154.728 17.6747L157.227 18.5777C157.752 17.5277 158.277 16.4777 158.781 13.8316C159.012 12.6346 159.306 10.6606 159.306 7.76262C159.306 7.57362 159.306 4.80162 159.243 3.33161H173.188Z" fill="black"/>
<path d="M195.301 1.0006C195.301 0.790603 194.671 0.748603 194.356 0.727603L192.613 0.601603V15.7846C192.613 16.0786 192.466 16.5406 191.815 16.5406C191.311 16.5406 190.702 16.4986 190.366 16.4776L191.164 18.9347C194.209 18.7457 194.776 18.0947 194.776 16.7087V1.63061C194.776 1.48361 194.881 1.42061 195.091 1.29461C195.217 1.2106 195.301 1.1266 195.301 1.0006ZM192.151 3.62561C192.151 3.43661 191.878 3.39461 191.773 3.39461L189.442 3.22661V7.34262C188.938 6.16662 188.455 5.28462 187.699 4.12961L185.725 5.07462C185.872 5.32662 185.977 5.51562 186.271 6.04062C186.103 6.04062 185.326 6.10362 185.095 6.12462C185.83 4.38161 185.956 4.02461 186.25 3.22661H189.106V1.1056H182.323V1.39961C182.197 1.29461 182.113 1.2106 181.756 1.0846L179.782 0.391602C178.795 4.73861 177.661 6.62862 175.96 8.53963L178.018 9.84163C178.27 9.50563 178.564 9.10663 178.669 8.95963V18.8087H180.958V6.22962C180.958 6.10362 181.042 6.04062 181.273 5.80962C181.483 5.62062 181.567 5.51562 181.567 5.38962C181.567 5.15862 181.315 5.03262 180.874 4.82262C181.084 4.23461 181.294 3.64661 181.819 2.09261C181.966 2.09261 182.155 2.07161 182.323 2.02961V3.22661H183.919C183.583 4.52861 183.31 5.24262 182.932 6.20862C182.05 6.22962 181.924 6.22962 181.462 6.22962L181.714 8.03563C181.777 8.47663 181.861 8.66563 182.092 8.66563C182.218 8.66563 182.239 8.62363 182.491 8.30863C182.596 8.18263 182.701 8.16163 182.806 8.14063C182.953 8.14063 186.019 7.93062 187.069 7.69962C187.237 8.09863 187.426 8.53963 187.594 8.95963L189.442 8.05662V13.5166H191.605V4.15061C191.878 3.94061 192.151 3.83561 192.151 3.62561ZM189.274 16.0996V14.0626C188.056 14.3356 187.468 14.4616 186.607 14.6086V12.1726H188.623V10.0516H186.607V9.12763C186.817 8.98063 187.048 8.83363 187.048 8.66563C187.048 8.45563 186.586 8.41363 186.46 8.41363L184.255 8.32963V10.0516H182.113V12.1726H184.255V14.9236C182.932 15.1126 182.113 15.1756 181.42 15.2176L181.63 17.3177C181.651 17.5277 181.693 17.9267 182.008 17.9267C182.134 17.9267 182.134 17.9057 182.365 17.6327C182.512 17.4017 182.596 17.4017 183.247 17.2757C186.04 16.7717 187.888 16.3936 189.274 16.0996Z" fill="black"/>
<path d="M216.658 6.81762V4.08761H210.799C211.051 3.07961 211.072 3.01661 211.198 2.21861C211.24 2.07161 211.303 2.02961 211.513 1.86161C211.639 1.75661 211.66 1.67261 211.66 1.63061C211.66 1.50461 211.513 1.39961 211.387 1.37861L209.14 1.0216C208.468 4.99062 207.523 6.67062 206.683 8.05662V4.02461H203.785C204.016 3.28961 204.1 2.91161 204.289 2.07161C204.352 1.81961 204.394 1.77761 204.73 1.58861C204.898 1.50461 204.898 1.37861 204.898 1.3366C204.898 1.2106 204.772 1.1476 204.667 1.1266L202.315 0.769603C202.147 1.88261 201.895 2.97461 201.517 4.02461H199.228V18.3047H201.517V17.1287H204.394V17.8637H206.683V8.16163L208.594 9.21163C209.119 8.39263 209.518 7.69962 210.064 6.29262H214.474V7.95162C214.474 11.4166 213.907 14.6296 213.445 15.5956C213.13 16.2466 212.689 16.4566 211.87 16.4566C211.576 16.4566 211.009 16.4357 210.295 16.3097L211.387 18.5987H212.479C213.928 18.5987 214.684 17.9897 215.167 17.0447C216.28 14.9446 216.658 9.50563 216.658 6.81762ZM204.394 9.35863H201.517V6.25062H204.394V9.35863ZM204.394 15.0286H201.517V11.4586H204.394V15.0286ZM212.71 12.5716C212.374 11.2486 211.849 9.86263 211.324 8.53963L209.329 9.21163C209.938 10.4926 210.358 11.8366 210.631 13.2436L212.71 12.5716Z" fill="black"/>
<path d="M238.729 18.2417V16.1626H231.148V12.1726H235.81V9.98863H231.148V6.60762H237.805V4.48661H231.148V1.90361C231.148 1.75661 231.211 1.65161 231.463 1.50461C231.631 1.39961 231.694 1.3156 231.694 1.2106C231.694 1.0006 231.526 0.916604 231.19 0.895604L228.649 0.769603V4.48661H225.163C225.499 3.66761 225.667 3.14261 225.793 2.72261C225.877 2.55461 225.919 2.44961 226.234 2.30261C226.423 2.21861 226.486 2.13461 226.486 2.02961C226.486 1.90361 226.381 1.81961 225.94 1.69361L223.735 1.0846C223.399 2.36561 223.042 3.75161 221.95 5.78862C221.257 7.06962 220.753 7.67862 219.976 8.60263L222.223 9.79963C223.105 8.53963 223.63 7.59462 224.155 6.60762H228.649V9.98863H223.861V12.1726H228.649V16.1626H220.795V18.2417H238.729Z" fill="black"/>
<path d="M260.233 18.5357V16.6457H253.954V15.0286H257.692V13.2016H253.954V11.7316H258.994V9.90463H253.954V9.33763C253.954 9.23263 254.101 9.12763 254.143 9.10663C254.206 9.06463 254.311 9.00163 254.311 8.91763C254.311 8.74963 254.038 8.70763 253.828 8.66563L251.686 8.32963V9.90463H249.838C250.069 9.42163 250.111 9.35863 250.174 9.33763C250.237 9.31663 250.552 9.27463 250.594 9.21163C250.615 9.21163 250.615 9.16963 250.615 9.12763C250.615 9.04363 250.531 8.95963 250.258 8.81263L248.599 7.99362H260.065V6.12462H255.865C256.222 5.55762 256.495 5.03262 256.789 4.25561H259.771V2.40761H252.967V1.67261C252.967 1.50461 253.156 1.3576 253.219 1.31561C253.282 1.2736 253.408 1.18961 253.408 1.0846C253.408 0.853603 253.009 0.811604 252.904 0.811604L250.342 0.622603V2.40761H243.559V4.25561H246.814C247.192 4.84362 247.465 5.36862 247.78 6.12462H243.58C243.769 8.47663 243.769 10.0726 243.769 10.4296C243.769 14.8816 242.467 17.0237 241.711 18.2417L243.916 19.1657C244.84 17.4017 245.659 15.5746 245.932 12.1936L247.969 13.1596C248.326 12.6346 248.599 12.1726 248.851 11.7316H251.686V13.2016H248.263V15.0286H251.686V16.6457H245.596V18.5357H260.233ZM254.164 4.25561C253.765 5.30562 253.429 5.85162 253.261 6.12462H250.468C250.174 5.38962 249.859 4.84362 249.481 4.25561H254.164ZM248.263 7.99362C247.906 9.27463 247.045 10.9126 245.932 11.8576C245.953 10.9966 245.974 10.1566 245.995 7.99362H248.263Z" fill="black"/>
<path d="M282.577 18.0947V15.9106H277.537V12.0886H281.254V9.92563H277.537V6.75462H282.304V4.50761H277.537V1.75661C277.537 1.65161 277.705 1.50461 277.852 1.37861C277.999 1.2526 278.125 1.1266 278.125 0.937604C278.125 0.748603 277.957 0.685602 277.369 0.664603L275.08 0.580602V4.50761H273.988C274.051 4.33961 274.219 3.52061 274.324 3.33161C274.408 3.24761 274.492 3.18461 274.618 3.10061C274.765 3.01661 274.849 2.91161 274.849 2.80661C274.849 2.57561 274.681 2.53361 274.282 2.42861L272.077 1.88261C271.825 3.47861 271.657 4.23461 271.321 5.24262C271.006 4.75961 270.523 4.19261 270.124 3.79361L269.368 4.25561V1.81961C269.368 1.69361 269.473 1.60961 269.662 1.48361C269.809 1.39961 269.956 1.29461 269.956 1.1056C269.956 0.895604 269.662 0.832604 269.179 0.811604L266.932 0.706604V4.92762C266.848 4.86462 266.827 4.84362 266.554 4.80162L264.58 4.50761C264.58 7.34262 264.181 8.87563 263.992 9.61063L266.197 9.94663C266.638 7.99362 266.701 6.60762 266.743 5.38962C266.869 5.32662 266.89 5.30562 266.932 5.26362V18.6617H269.368V6.22962C269.872 6.60762 270.25 7.23762 270.355 7.42662C270.145 7.84663 269.851 8.43463 269.515 8.79163L271.909 9.58963C272.56 8.68663 273.022 7.44762 273.274 6.75462H275.08V9.92563H271.741V12.0886H275.08V15.9106H270.481V18.0947H282.577Z" fill="black"/>
</svg>
