<svg fill="none" height="29" viewBox="0 0 87 29" width="87" xmlns="http://www.w3.org/2000/svg"><g fill="#00beff"><path d="m2.31795 2.40749v3.72748h5.91498v1.92499h-5.91498v4.68994h-2.2749812v-12.2499h8.9424412v1.90749z"/><path d="m21.2479 10.8424v1.9075h-9.1874v-12.2499h8.9424v1.90749h-6.6674v3.18498h5.9149v1.8725h-5.9149v3.37743z"/><path d="m32.604 9.91495h-6.125l-1.2074 2.83495h-2.345l5.5124-12.2499h2.24l5.53 12.2499h-2.38zm-.7525-1.78499-2.31-5.35497-2.2925 5.35497z"/><path d="m40.5116 2.42499h-4.0599v-1.92499h10.3949v1.92499h-4.06v10.32491h-2.275z"/><path d="m54.4743 12.9249c-1.6917 0-3.01-.4725-3.955-1.4175-.945-.9566-1.4175-2.32161-1.4175-4.09494v-6.91246h2.275v6.82497c0 2.40332 1.0383 3.60493 3.115 3.60493 2.0649 0 3.0974-1.20161 3.0974-3.60493v-6.82497h2.24v6.91246c0 1.77333-.4725 3.13834-1.4175 4.09494-.9333.945-2.2458 1.4175-3.9374 1.4175z"/><path d="m71.9053 12.7499-2.5025-3.58744c-.105.01166-.2625.0175-.4725.0175h-2.765v3.56994h-2.275v-12.2499h5.04c1.0616 0 1.9833.174999 2.7649.525.7934.35 1.4.85166 1.82 1.50499s.63 1.42916.63 2.32749c0 .92166-.2275 1.71499-.6825 2.37999-.4433.66499-1.085 1.16082-1.925 1.48749l2.8175 4.02494zm-.0526-7.89242c0-.78166-.2566-1.38249-.77-1.80249-.5133-.42-1.2658-.63-2.2574-.63h-2.66v4.88248h2.66c.9916 0 1.7441-.21 2.2574-.63.5134-.43167.77-1.03833.77-1.81999z"/><path d="m86.753 10.8424v1.9075h-9.1875v-12.2499h8.9425v1.90749h-6.6675v3.18498h5.915v1.8725h-5.915v3.37743z"/><path d="m19.0215 26.25h47.4997v2.5h-47.4997z"/></g></svg>