<svg fill="none" height="29" viewBox="0 0 48 29" width="48" xmlns="http://www.w3.org/2000/svg"><g fill="#fff"><path d="m7.65391 2.23289v3.7275h5.91499v1.925h-5.91499v4.69001h-2.275v-12.25001h8.94249v1.9075z"/><path d="m24.8117 9.74039h-6.125l-1.2075 2.83501h-2.345l5.5125-12.25001h2.24l5.53 12.25001h-2.38zm-.7525-1.785-2.31-5.355-2.2925 5.355z"/><path d="m43.6112 13.8004c-.4083.4783-.8867.84-1.435 1.085-.5367.245-1.1258.3675-1.7675.3675-.84 0-1.61-.1925-2.31-.5775-.7-.3733-1.4992-1.0267-2.3975-1.96-1.1317-.0933-2.1467-.42-3.045-.98-.8983-.5717-1.5983-1.3125-2.1-2.22251-.5017-.92166-.7525-1.9425-.7525-3.0625 0-1.19.2858-2.26333.8575-3.22.5717-.96833 1.3592-1.72083 2.3625-2.2575 1.0033-.548333 2.1292-.822499 3.3775-.822499s2.3742.274166 3.3775.822499c1.0033.53667 1.7908 1.28333 2.3625 2.24s.8575 2.03583.8575 3.2375c0 .96833-.1925 1.86667-.5775 2.695-.385.81667-.9217 1.51671-1.61 2.10001-.6883.5717-1.4875.9858-2.3975 1.2425.3383.3617.6708.6242.9975.7875s.6767.245 1.05.245c.805 0 1.505-.3267 2.1-.98zm-11.515-7.35001c0 .81667.1867 1.5575.56 2.2225.3733.65333.8867 1.16667 1.54 1.54001.6533.3617 1.3883.5425 2.205.5425s1.5517-.1808 2.205-.5425c.6533-.37334 1.1667-.88668 1.54-1.54001.3733-.665.56-1.40583.56-2.2225s-.1867-1.55167-.56-2.205c-.3733-.665-.8867-1.17833-1.54-1.54-.6533-.37333-1.3883-.56-2.205-.56s-1.5517.18667-2.205.56c-.6533.36167-1.1667.875-1.54 1.54-.3733.65333-.56 1.38833-.56 2.205z"/><path d="m0 26.0752h47.5v2.5h-47.5z"/></g></svg>