<svg width="90" height="21" viewBox="0 0 90 21" fill="none" xmlns="http://www.w3.org/2000/svg">
<path d="M20.1106 1.68486C20.1106 1.48236 19.7505 1.41486 19.6155 1.41486L17.343 1.23485V17.6603C17.343 18.3578 16.7805 18.3578 16.5329 18.3578C16.3979 18.3578 15.6779 18.3353 14.7554 18.2903L16.0154 20.6979C18.5805 20.6304 19.683 20.5404 19.683 18.2903V2.33738C19.683 2.22488 19.728 2.17988 19.8855 2.02237C20.0205 1.88737 20.1106 1.77487 20.1106 1.68486ZM16.0829 4.06993C16.0829 3.82242 15.5879 3.79992 15.4304 3.79992L13.4279 3.73242V16.1528H15.6779V4.56494C15.9254 4.33994 16.0829 4.22744 16.0829 4.06993ZM12.7078 9.53758V7.35502H8.09521V5.80248H11.9203V3.61992H8.09521V2.02237C8.29772 1.84237 8.50022 1.70736 8.50022 1.52736C8.50022 1.34735 8.11771 1.27985 7.98271 1.27985L5.73264 1.18985V3.61992H4.40511L4.60761 3.0799C4.85512 2.9899 5.10263 2.9899 5.10263 2.76489C5.10263 2.56239 4.76512 2.49489 4.69761 2.47239L2.58256 2.04487C1.93004 4.15993 1.12001 5.50997 0.625 6.25249L2.98757 6.92751C3.30258 6.31999 3.39258 6.11749 3.52758 5.80248H5.73264V7.35502H0.98501V9.53758H5.73264V10.9326H1.79503V19.5054H4.1576V13.0927H5.73264V20.6304H8.09521V13.0927H9.69276V16.5578C9.69276 17.2103 9.22024 17.1878 8.25272 17.1878L9.26524 19.3029C10.8853 19.0329 12.0778 18.8528 12.0778 17.4353V10.9326H8.09521V9.53758H12.7078Z" fill="#222222"/>
<path d="M43.1962 6.86001V4.45244H34.781C34.871 4.22743 35.3885 2.8774 35.4335 2.8324C35.4785 2.78739 35.7935 2.65239 35.861 2.60739C35.9735 2.53989 35.996 2.44989 35.996 2.38238C35.996 2.29238 35.906 2.20238 35.7935 2.15738L33.0934 1.34735C32.0359 4.96996 31.0459 6.81501 28.7733 9.17757L31.1584 10.4376C32.0134 9.42508 32.7334 8.48006 33.6109 6.86001H34.376V20.4504H36.986V16.1753H42.8362V13.6777H36.986V11.4276H42.1162V9.13257H36.986V6.86001H43.1962ZM30.7758 2.40488C30.7758 2.33738 30.7083 2.22488 30.5508 2.17988L27.6033 1.48236C26.4332 5.23996 25.4207 7.06251 23.0131 9.67259L25.2632 11.0676C25.5332 10.7751 25.7582 10.5276 26.0057 10.2126V20.4729H28.5708V7.13002C28.5708 6.95001 28.8183 6.77001 28.9083 6.72501C28.9983 6.635 29.1558 6.545 29.1558 6.365C29.1558 6.27499 29.0883 6.16249 29.0433 6.13999L28.7283 5.98248C29.4483 4.63245 29.6733 4.11493 30.0558 3.21491C30.1908 2.8999 30.2358 2.8774 30.5958 2.67489C30.6858 2.60739 30.7758 2.51739 30.7758 2.40488Z" fill="#222222"/>
<path d="M66.0118 14.5327V12.7777H64.7518V10.1676H57.7766V9.31258H63.2893V5.17246H57.7766V4.38494H65.9218V2.44989H57.7766V2.02237C57.7766 1.90987 57.8666 1.84237 57.9116 1.81987C58.1141 1.66236 58.1591 1.63986 58.1591 1.50486C58.1591 1.36985 58.0016 1.32485 57.8891 1.30235L55.234 0.964844V2.44989H47.0663V4.38494H55.234V5.17246H49.6989V9.31258H55.234V10.1676H48.3713V11.9227H55.234V12.7777H47.0663V14.5327H55.234V15.5003H48.3713V17.2553H55.234V17.9303C55.234 18.3353 54.8965 18.4478 54.5365 18.4478C54.154 18.4478 53.524 18.3803 52.939 18.3353L54.064 20.7879C57.2141 20.7654 57.7766 20.1804 57.7766 18.8753V17.2553H62.3892V17.8628H64.7518V14.5327H66.0118ZM60.9717 7.78254H57.7766V6.70251H60.9717V7.78254ZM55.234 7.78254H51.9939V6.70251H55.234V7.78254ZM62.3892 12.7777H57.7766V11.9227H62.3892V12.7777ZM62.3892 15.5003H57.7766V14.5327H62.3892V15.5003Z" fill="#222222"/>
<path d="M85.6099 4.49744C85.6099 4.24994 85.2949 4.18243 84.7099 4.15993L83.0448 4.06993V2.15738H75.6421V4.49744H76.7896C76.3846 8.36755 75.3946 10.5726 74.0221 12.3727L76.2946 13.6777C76.5646 13.2502 76.6996 13.0477 76.9472 12.5977C77.4872 12.9802 77.9597 13.3627 78.4997 13.8802C77.1947 16.5578 75.7546 17.8628 74.4271 18.8528L76.5646 20.5629C81.7173 16.0178 82.2123 10.5276 82.2798 6.72501H78.9947C79.0622 6.31999 79.1297 6.04999 79.2647 4.49744H82.7523V16.1978H85.0024V5.30747C85.0024 5.05996 85.0924 4.99246 85.4299 4.74495C85.5199 4.67745 85.6099 4.60995 85.6099 4.49744ZM79.8272 9.24508C79.6697 10.2801 79.6247 10.5726 79.3997 11.4276C78.9497 11.1576 78.6347 10.9776 77.8922 10.6176C78.1172 10.0101 78.1622 9.9201 78.3872 9.24508H79.8272ZM89.435 1.68486C89.435 1.50486 89.435 1.41486 88.3775 1.34735L86.3749 1.23485V17.3228C86.3749 18.0203 86.2174 18.2903 85.2949 18.2903C84.9124 18.2903 84.3949 18.2453 83.8773 18.2003L84.7324 20.7429C86.8024 20.7429 88.8725 20.4504 88.8725 18.8753V2.44989C88.8725 2.31488 88.9175 2.26988 89.255 1.97737C89.3225 1.90987 89.435 1.79737 89.435 1.68486ZM75.4846 2.26988C75.4846 2.11238 75.4171 1.99987 74.7646 1.79737L72.3795 1.07735C71.952 2.71989 71.142 5.28496 68.2844 9.11007L70.6245 10.5051C70.9395 10.1226 71.1195 9.85259 71.3895 9.42508V20.7204H73.9096V6.4325C73.9096 6.20749 74.0671 6.09499 74.2696 5.93748C74.5171 5.73498 74.5171 5.66748 74.5171 5.59997C74.5171 5.37497 74.0896 5.21746 73.8871 5.12746C74.0896 4.63245 74.4046 3.88993 74.5846 3.30491C74.7871 2.69739 74.8096 2.69739 75.2146 2.58489C75.3946 2.51739 75.4846 2.42738 75.4846 2.26988Z" fill="#222222"/>
</svg>
