<svg fill="none" height="100" viewBox="0 0 224 100" width="224" xmlns="http://www.w3.org/2000/svg"><g fill="#fff"><path d="m22.3099 14.7136c-1.89-1.281-2.793-1.638-3.6121-1.974-.231-2.352-.273-3.35998-.294-5.62799.672-.126 1.7641-.294 2.6251-.588v-2.26801c-.798.483-2.0161.735-2.6041.861.105-1.15501.168-2.07901.294-2.60401.21-.126.399-.231.399-.336 0-.126-.063-.23101-.504-.29401l-2.352-.378c-.042 2.07901-.042 2.31001-.084 3.88502-.588.063-1.155.126-1.953.126-.987 0-1.512-.063-1.89-.126l.021 2.16301c1.302.063 2.436-.021 3.801-.168.042 1.42801.105 2.31001.273 4.80899-.42-.042-.861-.084-1.281-.084-2.037 0-3.696.819-3.696 2.709 0 3.0241 3.528 3.0241 4.137 3.0241 2.856 0 3.276-1.092 3.318-2.7091.8821.525 1.4491.9451 2.2051 1.6591zm-11.9911-1.848-1.323-.903-.861 1.26c-.105-.861-.105-1.974-.105-2.205 0-1.61698.588-5.565.777-6.51.063-.252.315-1.32301.46201-1.42801.063-.021.336-.126.399-.168s.084-.105.084-.147c0-.21-.44101-.399-.50401-.42l-2.03701-.79801c-.819 3.21302-1.281 6.51003-1.281 9.82802 0 2.205.168 4.41.798 6.5101l1.93201-.315c.231-1.6801 1.19701-3.7171 1.659-4.7041zm6.237 1.323c.042 1.092.084 1.575-1.302 1.575-1.239 0-1.848-.441-1.848-.924s.672-.84 1.659-.84c.63 0 1.176.126 1.491.189z"/><path d="m42.575 3.83559c-.6511-.735-1.1761-1.197-1.9531-1.806l-.882.987c.924.735 1.407 1.21801 1.932 1.80601zm-1.9111 1.84801c-.609-.693-1.071-1.113-1.953-1.80601l-.882.98701c.756.588 1.323 1.113 1.932 1.80601zm1.617 6.846-1.995-1.659c-1.701 3.591-4.242 4.83-5.922 4.83-.462 0-1.197-.105-1.701-.756-.294-.357-.504-.924-.504-3.948 0-2.62499.273-7.98001.504-8.23201.126-.126.483-.378.483-.567 0-.231-.588-.29401-.651-.29401l-2.688-.315c.021 1.30201 0 7.11904 0 8.31604 0 5.10298.441 6.42608 1.323 7.24508.588.525 1.617 1.071 3.087 1.071 4.032 0 6.531-3.4231 8.064-5.6911z"/><path d="m64.646 11.0386c0-1.46998-.5039-3.35999-2.121-4.74599-1.386-1.17601-2.877-1.40701-3.801-1.55401.21-.94501.231-1.09201.483-2.56201 0-.084.105-.16801.168-.21.21-.14701.294-.18901.294-.29401 0-.252-.483-.294-.672-.315l-2.436-.231c0 1.13401-.042 1.99501-.294 3.63302-1.386.231-2.226.504-3.444 1.134-.378-1.323-.567-2.16301-.693-3.42301l-2.457.987c.273 1.11301.588 2.16301 1.176 3.86402-.798.798-2.814 2.79299-2.814 6.08999 0 2.268 1.176 3.5911 2.646 3.5911 1.386 0 2.856-1.4701 3.465-2.0791.315.546.525.861.84 1.281l1.743-1.911c-.357-.462-.567-.777-.966-1.428 1.218-2.121 1.806-3.90598 2.436-6.02699 2.541.294 3.906 2.14201 3.906 3.96899 0 1.239-.462 2.709-1.701 3.906-1.428 1.344-3.045 1.6801-3.99 1.8691l1.449 2.016c.966-.273 2.646-.735 4.368-2.3941.924-.882 2.415-2.667 2.415-5.166zm-8.841-4.01099c-.378 1.344-.672 2.22601-1.239 3.50699-.42-.90298-.735-1.65898-1.029-2.45699 1.05-.672 1.512-.861 2.268-1.05zm-2.688 5.92199c-.294.378-1.155 1.449-2.037 1.449-.567 0-.819-.567-.819-1.176 0-.504.084-1.869 1.407-3.65398.672 1.70098 1.008 2.43598 1.449 3.38098z"/><path d="m85.2471 4.00359v-2.52001c-4.095 1.19701-10.374 1.91101-15.309 1.95301l.42 2.47801c2.499-.462 5.334-.693 8.001-.903-.987.924-4.074 3.82202-4.074 7.413 0 4.6831 5.25 5.7751 6.951 6.1321l.735-2.6461c-.882-.021-2.331-.063-3.654-1.008-1.302-.924-1.554-2.226-1.554-2.94 0-2.09998 1.743-4.43099 3.591-5.922 2.289-1.848 3.99-1.95301 4.893-2.03701z"/><path d="m107.717 9.73662c0-4.68302-3.444-7.64403-7.8118-7.64403-5.418 0-9.261 4.24201-9.261 8.90401 0 3.759 3.444 5.6491 4.2 5.6491 1.092 0 2.058-1.7641 2.688-3.0661.693-1.407 1.932-4.34698 2.6038-9.34501.777.06301 2.247.14701 3.57 1.40701 1.176 1.11301 1.512 2.52001 1.512 3.67502 0 .92398-.231 2.66698-1.512 4.17898-1.281 1.533-2.835 1.974-3.7798 2.247l1.5538 2.1631c1.134-.462 3.318-1.365 4.893-3.6961.777-1.155 1.344-2.625 1.344-4.47298zm-10.0798-5.12402c-.42 3.27601-2.226 8.757-3.318 8.757-.378 0-1.344-.882-1.344-2.583 0-1.28098.609-3.23399 2.1-4.662 1.008-.987 1.953-1.302 2.562-1.512z"/><path d="m113.324 15.5326c.294-.315.336-.336.63-.609 1.911 2.0161 2.436 2.5831 3.339 3.5491l2.226-.882c.021-2.5621.021-2.9401.042-6.2791.735-.273 1.953-.735 3.192-.735 1.911 0 2.919 1.386 2.919 2.793 0 1.47-.861 2.226-1.617 2.226-.651 0-.819-.546-1.071-1.407l-1.953.777c.294 1.5331.588 2.9821 2.898 2.9821 2.247 0 3.927-2.0371 3.927-4.6201 0-2.625-1.806-4.78798-5.061-4.78798-1.491 0-2.625.315-3.234.483l.021-2.07901c.966-.189 1.953-.399 3.276-.90301v-2.39401c-1.176.546-1.89.79801-3.234 1.09201.021-.39901.084-2.45701.168-2.58301.042-.063.357-.31501.357-.39901 0-.105 0-.252-.588-.336l-2.331-.315c.021 1.36501.021 1.55401.042 3.92702-.609.042-.924.063-1.449.063-.966 0-1.47-.042-2.058-.105l.315 2.37301c1.176.042 1.932.021 3.192-.105l.021 2.70901c-1.407.75598-1.806.98698-5.25 3.21298zm3.969.168c-.378-.336-1.239-1.134-1.911-1.974.882-.651 1.323-.924 1.911-1.281zm12.159-8.88299c-1.029-.79801-2.415-1.74301-4.137-2.37301l-1.365 1.84801c2.1.777 3.192 1.575 4.137 2.39401z"/><path d="m151.334 11.4796c-3.864-.378-5.838-1.197-7.224-1.78498 1.533-1.155 2.331-1.91101 3.633-3.38101l-1.239-1.17601h-5.67c.147-.189.189-.252.336-.462.084-.042.504-.168.588-.21.063-.042.147-.084.147-.168 0-.189-.147-.23101-.336-.29401h6.678v2.41502h2.373v-4.24202h-7.287v-.67201c0-.105.063-.147.21-.252.084-.063.189-.147.189-.293999 0-.126001-.063-.294001-.819-.294001l-2.247-.021002v1.533012h-7.182v4.45202h2.331v-2.62502h2.856c-.462.77701-.903 1.53301-2.1 2.60402-1.512 1.386-2.73 1.97401-3.864 2.52001l2.142 1.49098c1.701-1.04998 2.52-1.76398 3.171-2.35199.756.65101 1.197 1.02901 1.995 1.59601-3.087 1.55398-5.334 1.80598-7.665 1.93198l1.428 2.1c.546-.105.819-.168 2.058-.462v5.4601h2.331v-.525h7.56v.525h2.331v-5.6281c.63.147 1.47.315 1.764.378zm-5.607 4.9981h-7.56v-2.0161h7.56zm-1.869-9.53409c-.84.987-1.365 1.365-1.848 1.68001-1.323-.75601-1.89-1.34401-2.226-1.68001zm1.785 5.64899h-6.867c1.176-.42 1.995-.798 3.276-1.512 1.386.693 2.415 1.113 3.591 1.512z"/><path d="m172.398 11.3536c0-.147-.231-.294-.294-.336l-1.512-1.008c-.378.798-1.008 1.827-1.68 2.373l1.554 1.155c.756-.756 1.197-1.47 1.47-1.911.042-.042.063-.063.252-.084.063 0 .21-.021.21-.189zm.588 4.641c-3.948-1.953-5.46-5.061-5.46-5.67v-.52498h4.956v-1.59601h-4.956v-1.071h3.528v-1.59601h-3.528v-1.008h4.515v-1.59601h-2.625c.105-.189.588-1.17601.609-1.19701.042-.063.084-.063.273-.126.252-.063.294-.147.294-.252 0-.231-.462-.336-.609-.377999l-1.722-.399002c-.252.861001-.483 1.512011-.883 2.352011h-1.785c-.21-.441-.735-1.57501-1.302-2.415012l-1.659.630002c.378.609.735 1.30201.924 1.78501h-2.268v1.59601h4.011v1.008h-3.15v1.59601h3.15v1.071h-4.284v1.59601h4.284v2.93998c-1.554.882-3.633 1.722-5.25 2.205l.693 1.6171c.084.189.273.609.441.609.084 0 .147-.21.231-.441.063-.168.105-.168.441-.315.399-.168 2.541-1.3441 3.444-1.8901v1.8061c0 .441-.441.546-1.848.441l.966 2.079c2.499-.042 3.109-.462 3.109-2.352v-2.3941c1.113 1.533 2.373 2.6671 3.969 3.6331zm-8.905-3.549c-.294-.525-.84-1.407-1.554-2.163l-1.491 1.176c.714.672 1.26 1.596 1.554 2.1zm-2.814-1.743c-.672-.63-1.869-2.01598-2.205-3.02399v-1.44901h1.638v-1.932h-1.638v-2.60402c0-.063.21-.231.315-.336.042-.042.105-.084.105-.168 0-.189-.357-.230999-.714-.252l-1.806-.105001v3.465021h-2.583v1.932h2.352c-.231 2.24701-1.365 5.145-2.856 7.224l1.785 1.071c.462-.693.987-1.533 1.302-2.457v6.6571h2.1v-7.6231c.21.294.315.42.924 1.071z"/><path d="m194.742 16.8347c-2.163-1.1131-3.171-1.9321-4.263-3.0871.378-.231 1.155-.777 2.121-1.701.147-.147.189-.147.63-.21.105 0 .273-.042.273-.231 0-.147-.168-.294-.273-.378l-1.554-1.197h1.428v-8.90402h-9.66v14.84702c-1.176.2731-1.848.4201-2.583.5461l.588 2.1c.042.147.126.294.294.294.126 0 .168-.063.315-.252.084-.105.126-.105.525-.231 1.932-.567 3.864-1.218 5.775-1.911v-1.9111c1.323 1.8061 2.436 2.7931 4.368 3.8851zm-3.822-8.82009h-5.271v-1.554h5.271zm0-3.46501h-5.271v-1.47001h5.271zm-2.667 9.933c-.588.273-1.155.483-2.604.924v-5.376h.63c.504 1.806.987 2.94 1.974 4.452zm-5.124-12.39001-1.176-1.05001h-5.964v17.76612h2.163v-15.66611h2.184c-.462 1.34401-1.113 2.94001-1.701 4.20002.567.693 1.953 2.35201 1.953 4.17899 0 1.491-.525 1.47-2.352 1.386l.966 2.31c.525-.021 1.428-.042 2.268-.567 1.365-.861 1.449-2.562 1.449-3.066 0-1.113-.357-2.60398-1.932-4.47299.756-1.68001 1.449-3.33902 2.142-5.01902zm8.295 7.93801c-.546.882-1.26 1.617-2.058 2.205-.441-.651-.672-1.302-.924-2.205z"/><path d="m214.923 6.90161v-4.20002h-7.371v-.94501c.21-.168.483-.294.483-.42 0-.21-.231-.273-.315-.273l-2.772-.231001v1.869011h-7.329v4.26302h2.079v-2.18401h13.167v2.12101zm.357 9.23999c-2.121.1891-4.515.3361-7.707.3571v-3.7591h5.292v-2.1h-5.292v-2.20499h5.124v-2.016h-12.831v2.016h5.292v7.58099c-1.029-.567-2.226-1.386-2.856-3.78.147-.588.294-1.365.378-1.659.21-.189.42-.273.42-.399s-.189-.18898-.273-.20998l-2.415-.378c-.168 1.19698-.357 2.62498-1.218 4.61998-.84 1.9741-1.491 2.6671-2.247 3.4441l2.163 1.029c.798-.945 1.386-1.764 2.205-3.5701.42.714 1.071 1.8481 2.457 2.6041.966.546 2.373.861 3.528.861h7.287z"/><path d="m10.5708 51.1438c-.83999-.735-1.617-1.428-3.276-2.52-1.80601-1.176-2.49901-1.449-3.57002-1.911l-.987 1.554v-5.523c0-.105.546-.441.546-.567 0-.252-.441-.315-.504-.336l-2.520014-.441v16.632h2.478014v-9.072c2.52001 1.05 4.62002 2.751 6.17403 4.2z"/><path d="m29.1769 44.1298v-2.373h-9.975v2.373zm2.562 3.738-1.701-1.806c-.252.147-.693.399-1.029.399h-11.9071v2.31h10.8991c-.294.84-.903 2.541-2.667 4.452-2.268 2.436-4.62 3.276-5.88 3.717l1.953 1.806c1.386-.588 3.696-1.554 5.838-3.864 1.89-2.037 2.667-3.948 3.465-5.838.063-.126.294-.588 1.029-1.176z"/><path d="m52.193 43.0798c0-.168-.273-.441-.357-.504l-1.827-1.512c-3.171 3.759-7.791 7.203-12.1801 8.925l1.827 1.869c2.4571-1.155 3.8641-2.037 5.2921-2.982v9.24h2.625v-11.193c1.239-.987 2.415-2.079 3.465-3.276.294-.315.336-.357.651-.378.42-.021.504-.042.504-.189z"/><path d="m75.6711 44.3398-1.932-1.953c-.126.147-.462.462-.735.462h-14.1331v2.268h13.1461c-1.113 1.911-2.52 3.339-3.822 4.536l1.953 1.659c2.289-2.247 4.494-5.46 5.523-6.972zm-7.266 1.659c0-.168-.063-.168-.504-.189l-2.457-.126c.168 4.368-.819 7.707-5.2501 10.773l2.247 1.323c1.113-.819 4.6621-3.444 5.3761-9.45.042-.273.126-1.743.168-1.785.021-.084.273-.294.315-.357.063-.084.105-.126.105-.189z"/><path d="m97.8472 49.6108-1.428-2.121c-1.344 2.037-3.738 4.389-5.544 5.376v-9.177c0-.021.252-.231.252-.252.189-.168.231-.231.231-.315 0-.21-.399-.252-.588-.273l-2.436-.294v12.747l1.785 1.386c2.52-1.407 5.67-4.305 7.728-7.077zm-11.3191-6.321c0-.231-.231-.294-.609-.315l-2.541-.168c.084.63.231 2.016.231 3.969 0 5.229-2.478 7.014-4.494 8.19l2.331 1.701c1.533-1.218 4.032-3.276 4.536-7.623.105-.924.105-1.239.105-5.166 0-.105 0-.147.147-.273.252-.21.294-.231.294-.315z"/><path d="m119.834 43.5838c0-1.092-.861-2.016-1.995-2.016-1.092 0-1.974.903-1.974 2.016 0 1.134.903 2.037 1.974 2.037 1.092 0 1.995-.924 1.995-2.037zm-.819 0c0 .672-.546 1.197-1.176 1.197s-1.155-.546-1.155-1.197c0-.609.483-1.176 1.155-1.176s1.176.546 1.176 1.176zm.084 10.773c-1.176-3.927-3.465-8.358-5.334-10.794l-2.184 1.239c2.1 2.604 4.158 7.35 4.893 10.752zm-10.353-9.702c0-.21-.441-.315-.504-.336l-2.541-.567c-.672 3.885-2.436 8.274-5.334 11.403l2.667 1.05c.966-1.302 3.045-4.095 4.578-9.261.084-.273.42-1.701.504-1.785.063-.084.441-.273.504-.336.063-.042.126-.084.126-.168z"/><path d="m132.203 49.1278c-.231-.861-.651-2.163-1.428-3.402l-1.869.714c.651 1.071 1.134 2.142 1.491 3.402zm5.523-2.247c0-.147-.147-.294-.42-.378l-2.058-.63c-.798 5.943-3.654 8.82-7.728 10.836l1.68 1.491c2.016-1.176 6.258-3.633 7.833-10.08.21-.819.231-.903.42-1.008.231-.084.273-.105.273-.231zm-9.24 3.255c-.357-1.176-.903-2.268-1.617-3.381l-1.932.735c.693 1.071 1.239 2.184 1.596 3.381z"/><path d="m161.309 47.3428v-2.373h-10.794c.714-1.407.966-1.995 1.302-2.814.105-.273.126-.294.336-.399.21-.063.273-.105.273-.252 0-.231-.399-.378-.525-.42l-2.394-.861c-1.302 4.305-3.066 7.161-6.174 10.038l2.457 1.365c.966-1.008 1.806-1.932 3.318-4.284h4.41c-.021 1.134-.084 3.003-1.218 5.271-1.512 3.003-3.843 4.431-4.914 5.082l2.562 1.575c1.155-.924 3.381-2.667 4.872-5.88 1.239-2.646 1.26-4.725 1.302-6.048z"/><path d="m181.554 51.1018v-2.667h-14.932v2.667z"/><path d="m203.856 41.5678c-.756-.777-1.848-1.386-2.226-1.596l-.882 1.155c.651.378 1.554.945 2.184 1.596zm-2.121 1.701c-.693-.714-1.491-1.218-2.121-1.575l-.882 1.155c.777.441 1.428.924 2.058 1.575zm-6.111-.336c-1.323-1.008-3.087-1.554-4.242-1.869l-1.113 2.016c.819.231 2.73.84 4.116 1.89zm7.896 5.04-1.68-2.079c-2.583 4.011-6.594 7.791-12.39 10.269l1.113 2.058c.063.126.294.567.483.567.105 0 .147-.105.21-.378.042-.168.084-.168.357-.315 2.52-1.26 4.914-2.793 7.056-4.641 2.856-2.436 4.179-4.452 4.851-5.481zm-9.996-.063c-1.323-.987-2.709-1.68-4.305-2.184l-1.155 2.121c1.554.483 2.856 1.155 4.179 2.037z"/><path d="m223.68 53.4538c0-2.163-.861-3.633-1.386-4.557l-1.953 1.029c.273.462.945 1.701.945 3.129 0 2.541-2.121 3.276-3.843 3.276-.546 0-1.365-.063-1.974-.63-.546-.525-.672-1.26-.672-1.848 0-.651.168-1.407.252-1.932.567.042 1.071.105 1.869.105 1.029 0 1.68-.063 1.995-.084l.546-2.31c-.882.147-1.533.168-2.478.168-.756 0-.945 0-1.386-.063.378-1.344.63-2.1.882-2.814 1.722.189 2.373.189 3.087.168l.483-2.268c-1.218.021-1.701.021-2.751-.021.294-.714.735-1.827 1.113-2.457.336-.105.63-.042.63-.294 0-.231-.315-.336-.483-.399l-2.415-.903c-.294 1.071-.609 1.953-1.239 3.78-1.554-.294-2.394-.567-3.57-1.05l-.189 2.436c1.197.315 1.743.42 3.045.672-.462 1.365-.651 2.058-.861 2.793-.924-.168-1.575-.336-2.835-.798l-.357 2.31c.987.357 1.869.546 2.646.693-.105.63-.252 1.491-.252 2.373 0 3.864 3.045 4.578 5.082 4.578 2.646 0 6.069-1.449 6.069-5.082z"/><path d="m30.6051 82.135c-.588-.7351-1.176-1.2601-1.785-1.7221l-.903.945c.861.693 1.281 1.197 1.722 1.7851zm-1.176 2.394c-.651-.903-1.134-1.365-1.743-1.8691l-.9031.9451c.7351.588 1.1971 1.113 1.7431 1.869zm-3.2341-.231-.945-1.7011c-1.596.231-3.192.336-4.788.336-1.764 0-3.549-.1259-5.292-.3779l.63 2.31c.987.063 1.596.084 2.856.084 1.596 0 2.331-.042 3.234-.105-.798.735-1.638 1.491-2.121 1.911l1.449 1.512c1.722-1.47 3.339-2.835 4.977-3.969zm.987 12.474-.147-2.52c-1.47.294-3.318.672-6.489.672-3.57 0-3.717-.588-3.717-1.176 0-.756.84-1.491 1.176-1.764l-1.827-1.491c-.63.567-2.037 1.827-2.037 3.717 0 2.121 2.016 3.003 6.762 3.003 2.562 0 4.662-.252 6.279-.441z"/><path d="m49.8831 96.772v-15.6241h-14.931c.189 2.2051.273 4.4101.273 6.6151 0 5.25-.294 7.665-1.68 10.038l2.184.777c1.134-2.352 1.512-3.843 1.722-6.951h3.885v5.985h2.373v-5.985h3.78v4.158c0 .588-.273.756-1.134.756-.294 0-.651-.021-.966-.084l1.155 2.289c3.318-.231 3.339-.861 3.339-1.974zm-2.394-11.55h-3.78v-2.037h3.78zm0 4.431h-3.78v-2.457h3.78zm-6.153-4.431h-3.78c0-.777 0-1.281-.021-2.037h3.801zm0 4.431h-3.801c0-.42.021-.63.042-2.457h3.759z"/><path d="m70.0012 93.811v-6.216h-12.432v6.216h6.09l-.735.63c.651.651 1.008 1.071 1.491 1.722l1.617-.924c-.231-.315-.483-.672-1.302-1.428zm-2.373-3.906h-7.749v-.966h7.749zm0 2.352h-7.749v-.987h7.749zm5.229-5.523v-1.827h-4.872c.294-.504.399-.7771.588-1.2391h2.982v-1.722h-6.573v-.378c0-.063.021-.1049.147-.1889.084-.042.21-.1261.21-.2101s-.126-.189-.42-.21l-2.499-.147v1.134h-6.573v1.722h2.982c.147.273.336.6301.546 1.2391h-4.725v1.827zm-6.93-3.0661c-.168.4831-.294.7561-.525 1.2391h-3.36c-.126-.294-.336-.735-.651-1.2391zm6.741 13.5451c-.777-1.155-1.407-1.932-2.289-2.856l-1.659.945c.735.777 1.365 1.533 2.394 3.066zm-3.969-1.008-1.89-.861c0 .903-.21 1.554-.777 1.554h-3.654c-.399 0-.525-.294-.525-.483v-1.407c0-.063.084-.147.189-.252.063-.063.126-.126.126-.21s-.126-.189-.441-.21l-1.806-.084v3.087c0 .966.462 1.428 2.037 1.428h4.725c1.743 0 1.953-2.058 2.016-2.562zm-9.618-.672c0-.147-.21-.294-.336-.357l-1.533-.903c-.567 1.05-1.533 2.373-2.331 3.255l1.701 1.071c.693-.861 1.323-1.785 1.911-2.73.063-.105.084-.105.315-.147.063 0 .273-.021.273-.189z"/><path d="m92.7233 92.635-2.058-1.701c-2.058 4.032-4.872 4.767-6.048 4.767-1.344 0-1.806-.819-1.848-.882-.399-.714-.399-2.751-.399-3.717 0-2.31.42-7.854.588-8.4.336-.273.588-.4411.588-.6091 0-.126-.189-.273-.693-.336l-2.793-.399c.063 1.407-.105 7.6441-.105 8.9251 0 5.04.336 6.111 1.323 6.972.672.588 1.743 1.071 3.066 1.071.882 0 2.415-.189 4.179-1.344 2.079-1.344 3.339-3.15 4.2-4.347z"/><path d="m114.08 84.004v-2.5201c-4.095 1.1971-10.374 1.9111-15.3086 1.9531l.42 2.478c2.4986-.462 5.3336-.693 8.0006-.903-.987.924-4.074 3.822-4.074 7.413 0 4.683 5.25 5.775 6.951 6.132l.735-2.646c-.882-.021-2.331-.063-3.654-1.008-1.302-.924-1.554-2.226-1.554-2.94 0-2.1 1.743-4.431 3.591-5.922 2.289-1.848 3.99-1.953 4.893-2.037z"/><path d="m120.737 95.533c.294-.315.336-.336.63-.609 1.911 2.016 2.436 2.583 3.339 3.549l2.226-.882c.021-2.562.021-2.94.042-6.279.736-.273 1.953-.735 3.192-.735 1.912 0 2.92 1.386 2.92 2.793 0 1.47-.861 2.226-1.617 2.226-.651 0-.819-.546-1.071-1.407l-1.954.777c.294 1.533.589 2.982 2.899 2.982 2.247 0 3.927-2.037 3.927-4.62 0-2.625-1.806-4.788-5.061-4.788-1.492 0-2.626.315-3.235.483l.021-2.079c.966-.189 1.954-.399 3.277-.903v-2.394c-1.176.546-1.891.798-3.235 1.092.021-.399.084-2.4571.168-2.5831.042-.063.357-.315.357-.399 0-.105 0-.252-.588-.336l-2.331-.315c.021 1.365.021 1.554.042 3.9271-.609.042-.924.063-1.449.063-.966 0-1.47-.042-2.058-.105l.315 2.373c1.176.042 1.932.021 3.192-.105l.021 2.709c-1.407.756-1.806.987-5.25 3.213zm3.969.168c-.378-.336-1.239-1.134-1.911-1.974.882-.651 1.323-.924 1.911-1.281zm12.16-8.883c-1.029-.798-2.415-1.743-4.137-2.373l-1.365 1.848c2.1.777 3.192 1.575 4.137 2.394z"/><path d="m155.304 87.973c0-1.386-.126-2.94-.252-4.41-.021-.21-.126-1.092-.126-1.281s.378-.3151.378-.5041c0-.273-.378-.273-.441-.273h-2.541c.462 3.0661.525 6.3001.525 6.5311 0 1.932-.42 3.885-1.281 5.628-1.029 2.058-2.226 2.982-2.982 3.549l2.499 1.323c.756-.798 1.953-2.058 2.94-4.305 1.155-2.625 1.281-4.998 1.281-6.258zm-6.741-.651-1.47-.966c-.525 1.176-.945 2.268-1.218 2.982-.105-.462-.147-.693-.147-1.302 0-1.26.336-5.2711.777-5.6281.084-.084.294-.168.294-.315 0-.21-.315-.252-.441-.252l-2.289-.1259c-.189 1.197-.588 3.633-.588 6.216 0 1.932.273 3.885.945 5.712h1.785c.609-2.163 1.449-4.263 2.352-6.321z"/><path d="m177.48 95.302c-2.184-1.386-3.57-1.89-5.313-2.373-.063-1.239-.063-1.449-.105-2.499 2.478-.189 3.591-.378 4.494-.525v-2.289c-1.932.357-2.709.483-4.536.714v-2.478c1.05-.021 3.003-.063 5.334-.063l.084-2.226c-1.974.147-2.688.189-5.376.315.021-1.092.042-1.491.042-1.512.042-.189.189-.3151.273-.3781.231-.189.273-.21.273-.294 0-.147-.126-.21-.525-.252l-2.562-.252.063 2.7931c-1.869.042-3.003.084-5.397.084l.042 2.268c1.806-.21 3.003-.294 5.418-.399l.042 2.625c-.483.042-.756.042-1.449.042-.357 0-.798 0-.798-.294 0-.273.315-.504.693-.777l-1.197-1.029c-.819.588-2.247 1.575-2.247 2.604 0 .819.966 1.512 2.898 1.512.609 0 1.764-.042 2.142-.063l.042 2.016-.588-.021c-4.725-.168-4.935 2.268-4.935 2.877 0 1.701 1.806 2.73 4.704 2.73 2.688 0 3.192-.84 3.276-2.982 1.554.609 2.478 1.113 3.843 2.079zm-7.644-.735c.021 1.176-.063 1.554-1.428 1.554-.252 0-1.596 0-1.596-.714 0-.546.672-.903 2.037-.903.483 0 .756.021.987.063z"/><path d="m200.16 85.6v-2.2681c-2.142.168-2.793.2311-5.712.3991v-2.1631c0-.084.021-.126.168-.252s.189-.189.189-.315c0-.21-.126-.273-.609-.294l-2.331-.147c.126 1.533.126 2.6461.147 3.2971-4.41.21-6.216.21-7.644.21v2.436c2.667-.336 5.838-.525 7.707-.63l.042 1.575c-.294-.105-.588-.168-.987-.168-2.142 0-3.297 1.596-3.297 3.906 0 1.029.231 2.163 1.092 2.919.525.462 1.176.651 1.722.651.357 0 .672-.084 1.134-.21-.462 1.533-1.743 2.625-3.003 3.444l2.352 1.218c.756-.777 1.89-1.953 2.856-3.906.945-1.89 1.071-3.444 1.071-4.053 0-1.323-.378-2.058-.609-2.562v-2.94c2.73-.105 4.116-.147 5.712-.147zm-7.644 5.313c0 1.491-1.008 1.953-1.449 1.953-.483 0-1.155-.483-1.155-1.743 0-1.113.588-1.848 1.428-1.848.273 0 .567.084.777.294.336.357.399.903.399 1.344z"/><path d="m207.741 92.488c-1.785 0-3.255 1.428-3.255 3.234 0 1.785 1.47 3.255 3.255 3.255 1.785-.021 3.234-1.47 3.234-3.255 0-1.806-1.47-3.234-3.234-3.234zm0 1.008c1.218 0 2.226.987 2.226 2.226s-.987 2.226-2.226 2.226c-1.239.021-2.247-.987-2.247-2.226s1.029-2.226 2.247-2.226z"/></g></svg>