<svg fill="none" height="10" viewBox="0 0 42 10" width="42" xmlns="http://www.w3.org/2000/svg"><g fill="#000"><path d="m4.17027 1.17023h4.8v.73h.69v-1.299995h-6.15v1.299995h.66zm.51 4.42v-.66999h1.51v.66999zm0-1.81h1.51v.65h-1.51zm3.78 0v.65h-1.54v-.65zm0 1.81h-1.54v-.66999h1.54zm-2.27 2.64h.73v-.95h2.92v-.56999h-2.92v-.61001h2.21v-2.83h-2.21v-.6h2.5v-.56h-2.5v-.69h-.73v.69h-2.47v.56h2.47v.6h-2.16v2.83h2.16v.61001h-2.85v.56999h2.85zm-3.03-6.1c-.31-.49-1-1.169995-1.61-1.629995l-.569997.42c.609997.479995 1.279997 1.169995 1.579997 1.669995zm-.3 2.04h-1.969997v.7h1.269997v2.56001c-.45.42-.96.83999-1.379997 1.14999l.389997.71001c.49-.43.95-.85 1.39-1.28.62.78 1.52 1.13 2.83 1.18 1.12.05 3.23.02999 4.35-.02001.03-.22.15-.55999.24-.72999-1.2.08-3.5.10999-4.6.05999-1.17-.04-2.05-.37999-2.52-1.11999z"/><path d="m18.5303 8.35023h-5.31v-1.36h5.31zm-4.62-4.54h3.85v1.15h-3.85zm4.57 1.73v-2.31h-5.27v2.31h2.04c-.06.26-.15.55001-.22.80001h-2.51v3.05h.7v-.38001h5.31v.37001h.73v-3.04h-3.52c.11-.25.22-.52001.32-.80001zm-.09-3.71c.32-.36.67-.81.97-1.229995l-.77-.260001c-.23.440001-.66 1.059996-1.02 1.489996h-1.82l.49-.19c-.13-.38-.48-.979996-.78-1.399996l-.65.220001c.28.42.6.979995.74 1.369995h-1.95l.3-.14c-.17-.36-.57-.909995-.93-1.299995l-.63.28c.29.349995.62.809995.81 1.159995h-1.41v1.95h.69v-1.31h6.82v1.31h.71v-1.95z"/><path d="m22.1103 5.93023h2.63c-.27.73001-.7 1.64-1.08 2.33-.54.02-1.04.03001-1.47.04001l.1.73c1.71-.06 4.3-.17001 6.75-.29001.19.24.34.47.46.67l.67-.41c-.46-.74-1.43-1.82-2.35-2.61l-.63.34c.44.39.91.88 1.32 1.35001-1.4.06-2.81.10999-4.05.14999.4-.7.83-1.55999 1.18-2.3h4.69v-.69h-8.22zm1.7-2.58999v.68h4.73v-.68zm1.92-3.070005c-.77 1.269995-2.43 2.709995-4.14 3.529995.16.15.35.42.43.59 1.7-.84 3.32-2.21 4.13-3.409996.93 1.289996 2.68 2.619996 4.22 3.369996.13-.22.31-.48.48-.66-1.57-.65-3.31-1.95-4.36-3.419995z"/><path d="m36.2003 5.91023c-.25-.21999-1.13-.99-1.59-1.36.52-.67.98-1.41 1.29-2.18l-.42-.28-.13.03h-.87v-1.859995h-.73v1.859995h-1.57v.68h2.78c-.69 1.33-1.94 2.59-3.13 3.28001.12.13999.31.47999.39.67.51-.33 1.03-.75001 1.53-1.24001v3.87001h.73v-4.14001c.45.42001 1 .98001 1.26 1.27001zm2.72 2.46001v-4.15001h2.13v-.72h-2.13v-3.169995h-.74v3.169995h-2.14v.72h2.14v4.15001h-2.53v.72999h5.6v-.72999z"/></g></svg>