<svg fill="none" height="9" viewBox="0 0 102 9" width="102" xmlns="http://www.w3.org/2000/svg"><g fill="#000"><path d="m8.00963 1.98954c-.37 0-.66-.3-.66-.66 0-.360005.29-.670007.66-.670007.36 0 .66001.310002.66001.670007 0 .36-.30001.66-.66001.66zm-6.41002-.33c-.33 0-.73-.03-1.000001-.06v.88c.250001-.01.600001-.03.990001-.03h5.12002c-.14.96-.6 2.35001-1.31001 3.26001-.84 1.07-1.96 1.92-3.90001 2.40001l.68.75c1.83001-.57 3.02001-1.50001 3.94002-2.67001.79-1.03 1.27-2.64001 1.49-3.69001l.02-.11c.12.04.25.06.38.06.62 0 1.12001-.5 1.12001-1.12 0-.620006-.50001-1.130008-1.12001-1.130008s-1.12.510002-1.12 1.130008c0 .11.02.22.05.32-.12.01-.23.01-.33.01z"/><path d="m17.9097 3.33954c-.11.06-.32.08-.55.08h-5.2701c-.27 0-.61-.02-.97-.06v.84c.35-.02.73-.03.97-.03h5.3101c-.18.72001-.58 1.57001-1.19 2.21001-.85.89-2.1 1.54001-3.5201 1.83001l.62.71c1.2701-.35 2.5301-.94 3.5801-2.09001.74-.81 1.19-1.85 1.46-2.84001.02-.07.08-.2.13-.29zm-5.9001-1.45c.27-.02.59-.03.9-.03h3.9201c.34 0 .68.01.92.03v-.83001c-.24.04-.59.05-.91.05h-3.9301c-.32 0-.64-.01-.9-.05z"/><path d="m28.0497.699533c-.56.710007-1.61 1.580007-2.63 2.210007-1.1.69-2.8 1.45-4.47 1.84001l.46.78c1.31-.39 2.69-.97 3.76-1.56001v3.78002c0 .38-.03.88-.06 1.07h.98c-.04-.2-.06-.69-.06-1.07v-4.28002c1.03-.65 1.99-1.47 2.68-2.17z"/><path d="m37.9544.719533-.53.220001c.27.380006.61.980006.81 1.390006l.54-.24c-.2-.41-.57-1.02001-.82-1.370007zm1.1-.400001-.53.220001c.29.380001.61.940007.83 1.380007l.54-.24c-.19-.37-.57-1.000007-.84-1.360008zm-6.57 5.180018c-.35.84-.91 1.89-1.54 2.72001l.85.36c.56-.80001 1.1-1.83001 1.47-2.75001.42-1.02.77-2.50001.91-3.12001.04-.22.12-.51.18-.73l-.89-.18c-.13 1.15-.55 2.67001-.98 3.70001zm4.92-.38c.42 1.07.88 2.42001 1.13 3.44001l.89-.29c-.26-.90001-.79-2.43001-1.2-3.42001-.42-1.06001-1.06-2.44001-1.46-3.16001l-.81.27c.44.74 1.05 2.13 1.45 3.16001z"/><path d="m43.7144.829534-.45.670006c.59.34 1.67 1.06 2.15 1.42l.47-.68c-.43-.32-1.58-1.08001-2.17-1.410006zm-1.5 7.140026.46.82c.93-.19 2.31-.66 3.32-1.24001 1.59-.94 2.97-2.23 3.84-3.58001l-.48-.82c-.81 1.41001-2.13 2.71001-3.79 3.66001-1.01.58-2.25.97001-3.35 1.16001zm-.01-4.89002-.44.68c.6.31 1.69 1.01001 2.18 1.37001l.46-.70001c-.44-.32-1.6-1.03-2.2-1.35z"/><path d="m52.1245 5.15955c.31-.03.84-.05 1.39-.05h5.49c.45 0 .87.04 1.07.05v-.98001c-.22.02-.58.05-1.08.05h-5.48c-.56 0-1.09-.03-1.39-.05z"/><path d="m69.6845.479533c.36 0 .64.29.64.639997 0 .36001-.28.64001-.64.64001-.35 0-.63-.28-.63-.64001 0-.349997.28-.639997.63-.639997zm0 1.730007c.61 0 1.1-.48 1.1-1.09001 0-.599997-.49-1.0999988-1.1-1.0999988-.6 0-1.09.5000018-1.09 1.0999988 0 .61001.49 1.09001 1.09 1.09001zm-5.66 2.29001c-.39.81-1.25 2-1.91 2.62l.69.47c.56-.62 1.5-1.89 1.92-2.75zm5.49-1.20001c.24 0 .54 0 .81.02v-.83c-.25.04-.58.05-.82.05h-2.64v-1.02c0-.22.03-.580006.06-.720006h-.94c.04.15.07.489996.07.710006v1.03h-2.78c-.32 0-.57-.02-.85-.05v.84c.27-.02.55-.03.85-.03h2.78v4.51002c0 .26-.12.38-.39.38-.26 0-.72-.04-1.16-.12l.08.8c.4.04 1 .07 1.42.07.6 0 .86-.27.86-.8v-4.84002zm-1.29 1.57001c.53.63 1.28 1.88 1.67 2.66l.74-.41c-.4-.72-1.2-1.97-1.73-2.61z"/><path d="m74.1145.999534c.02.189996.04.540006.04.720006v3.33001c0 .3-.03.62-.04.77h.92c-.02-.18-.03-.51-.03-.76v-3.34001c0-.24.01-.53001.03-.720006zm4.63-.07c.02.239996.05.530006.05.860006v1.58c0 1.89001-.12 2.70001-.84 3.53001-.62.7-1.48 1.10001-2.4 1.33001l.65.69c.73-.25 1.73-.68 2.38-1.46001.72-.86 1.04-1.65 1.04-4.05001v-1.62c0-.33.02-.62001.04-.860006z"/><path d="m85.3146.829534-.4501.670006c.5901.34 1.6701 1.06 2.1501 1.42l.47-.68c-.43-.32-1.58-1.08001-2.17-1.410006zm-1.5 7.140026.46.82c.93-.19 2.31-.66 3.32-1.24001 1.59-.94 2.97-2.23 3.84-3.58001l-.48-.82c-.81 1.41001-2.13 2.71001-3.79 3.66001-1.01.58-2.25.97001-3.35 1.16001zm-.0101-4.89002-.44.68c.6.31 1.6901 1.01001 2.1801 1.37001l.46-.70001c-.44-.32-1.6-1.03-2.2001-1.35z"/><path d="m93.7246 5.15955c.31-.03.84-.05 1.39-.05h5.4904c.45 0 .87.04 1.07.05v-.98001c-.22.02-.58.05-1.08.05h-5.4804c-.56 0-1.09-.03-1.39-.05z"/></g></svg>