<svg fill="none" height="22" viewBox="0 0 155 22" width="155" xmlns="http://www.w3.org/2000/svg"><g fill="#222"><path d="m15.6421 16.6924c-2.1599-1.4625-3.6674-2.1825-6.25487-2.9925-.18-2.8574-.18-3.5774-.1575-5.48986.45.045 1.05747.06749 1.50747.06749 1.0125 0 2.475-.13499 4.0949-.53999v-2.60995c-.6974.26999-1.9349.76498-4.5674.76498-.49497 0-.62997 0-.94497-.045 0-.78748.0675-2.42996.1125-2.72245.0225-.18.135-.2475.27-.3375.26999-.17999.29249-.20249.29249-.29249 0-.2025-.42749-.27-.53999-.2925l-2.69996-.38249v1.59747c0 3.93744-.02249 4.52243.135 9.74239-.35999-.045-.89998-.1125-1.64247-.1125-3.28495 0-5.24241719 1.5524-5.24241719 3.5099 0 1.53 1.23747719 3.1724 5.33241719 3.1724 3.66744 0 4.36493-1.3049 4.22993-3.5099 2.00247.8325 3.12747 1.575 4.65747 2.745zm-8.70733-1.26c0 .99.0225 2.115-1.77747 2.115-.74249 0-2.40746-.2025-2.40746-1.1475 0-.6525.78749-1.17 2.20496-1.17.83249 0 1.57498.135 1.97997.2025z"/><path d="m35.7343 2.99012c0-.225-.4275-.56249-.4725-.60749l-2.07-1.597474c-2.1599 2.654954-4.0049 4.432424-7.1998 7.334884-.7425.69749-1.5525 1.52997-1.5525 2.51996 0 .405.1575 1.17 1.125 1.98 2.9024 2.4974 5.1074 4.4774 7.7623 8.4373l2.3175-2.1599c-2.52-3.1725-4.7024-5.13-7.6049-7.5149-.2475-.2025-.3825-.45-.3825-.7875 0-.4275.1125-.54 1.5975-1.93497 2.3175-2.15997 4.4999-4.25243 4.9724-4.74742.585-.585.6525-.65249.9225-.67499.5175-.0675.585-.0675.585-.2475z"/><path d="m61.9914 13.9474c0-2.6549-1.53-4.31989-4.05-5.17487l.36-1.03499-2.5874-.56249c-.09.4275-.1575.71999-.27 1.16998-.99-.0225-1.485 0-2.4525.18.1125-.89998.135-1.01248.27-1.84497 2.3625-.26999 3.78-.56249 5.9399-1.19248v-2.40746c-1.3049.53999-2.5649 1.01248-5.5124 1.50747.27-.98998.45-1.64247.6975-2.20496.2475-.0675.5175-.135.5175-.33749 0-.0675 0-.18-.5625-.3375l-2.34-.62999c-.36 1.37248-.5624 2.20497-.8324 3.80244-1.6425.0675-3.465-.0675-4.275-.1575l.7425 2.22747c1.215 0 1.8 0 3.2175-.0675-.1125 1.05748-.18 1.61997-.225 2.49746-4.0725 2.24998-4.905 5.39988-4.905 6.92988 0 1.8225 1.0575 2.925 2.475 2.925 1.3725 0 2.61-.7425 3.2175-1.125.1349.4275.1575.495.3149.8325l2.16-1.17c-.225-.72-.27-.81-.4275-1.35 1.6875-1.845 2.5425-3.3074 3.6675-5.6699.63.27 2.2499.945 2.2499 3.1049 0 1.2375-.495 2.34-1.305 3.105-1.3049 1.2375-2.9249 1.485-3.8474 1.5975l1.6425 2.0699c1.5525-.45 6.1199-1.7324 6.1199-6.6824zm-7.2224-3.6674c-.5175 1.26-.9675 2.16-1.845 3.4874-.0675-.7199-.1575-1.5524-.1125-3.2399.7425-.225 1.17-.27 1.9575-.2475zm-3.8474 5.6474c-.495.3825-1.215.9675-2.0925.9675-.3825 0-.8325-.135-.8325-1.0575s.5625-2.34 2.5875-4.0274c.045 1.575.1125 2.5199.3375 4.1174z"/><path d="m84.041 13.4525c0-2.475-1.9349-4.97247-4.9949-4.97247-.3375 0-1.44.0225-2.1825.135 3.2625-3.32995 3.645-3.68994 4.995-4.81492l-1.17-1.82247c-2.1375.83248-5.9624 1.12498-6.8174 1.12498-.6975 0-1.98-.09-2.52-.135l.5175 2.51996c2.6775-.0225 3.915-.2475 5.2649-.56249-3.5999 4.36493-5.9849 6.36741-8.3248 8.12241l1.8899 1.9799c1.26-1.2825 3.24-3.2849 4.635-4.0274.54-.2925 1.5974-.5625 2.5649-.5625 1.4625 0 3.645.72 3.645 2.9475 0 1.5974-.99 2.5424-1.485 2.9924-.63-.7875-2.0925-2.6325-4.4324-2.6325-2.205 0-3.3075 1.71-3.3075 2.9925 0 1.665 1.44 3.0824 4.2524 3.0824 3.96 0 7.4699-2.6324 7.4699-6.3673zm-6.0749 4.0274c-.315.0675-.81.2025-1.53.2025-.8099 0-1.8449-.225-1.8449-1.0125 0-.2925.2025-.945 1.125-.945 1.2824 0 1.9574 1.2375 2.2499 1.755z"/><path d="m110.096 2.65263c-.63-.78749-1.26-1.34998-1.913-1.844975l-.967 1.012485c.922.74249 1.372 1.28248 1.845 1.91247zm-1.26 2.56495c-.698-.96748-1.215-1.46247-1.868-2.00246l-.967 1.01248c.787.62999 1.282 1.19248 1.867 2.00247zm-3.465-.24749-1.013-1.82247c-1.71.24749-3.42.35999-5.1297.35999-1.89 0-3.8025-.135-5.6699-.40499l.675 2.47496c1.0574.0675 1.7099.09 3.0599.09 1.71 0 2.4975-.045 3.4647-.1125-.8547.78749-1.7547 1.59747-2.2722 2.04747l1.5522 1.61997c1.845-1.57497 3.578-3.03745 5.333-4.25243zm1.057 13.36481-.157-2.7c-1.575.315-3.555.72-6.9527.72-3.825 0-3.9825-.63-3.9825-1.26 0-.81.9-1.5975 1.26-1.8899l-1.9574-1.5975c-.675.6075-2.1825 1.9574-2.1825 3.9824 0 2.2725 2.16 3.2175 7.2449 3.2175 2.7452 0 4.9952-.27 6.7272-.4725z"/><path d="m131.988 6.25257v-1.88997h-6.728c.023-.2475.045-.44999.045-.69749 1.373-.0225 2.745-.135 3.713-.225.315-.0225.81-.09 1.17-.1125.135.0225.472.09.54.09.09 0 .202 0 .202-.17999 0-.1575-.067-.27-.157-.405l-1.238-1.77747c-.697.2025-1.44.42749-2.835.62999-1.26.18-1.89.18-2.835.18l-1.012-.1575c.135.60749.202 1.28248.202 1.88997 0 2.20496-.832 3.12745-1.732 4.07243l1.687 1.19248h-7.064v8.39238h1.979c-1.237.6975-2.632 1.035-4.027 1.26l1.485 2.0024c1.305-.2925 2.97-.765 5.355-2.0249.315.09.427.1125.54.1125.18 0 .337-.045.337-.2025 0-.18-.112-.2925-.18-.36l-.787-.7875h3.757l-.607.765c1.237.855 3.33 1.9349 6.052 2.4524l1.463-2.1149c-1.643-.315-2.678-.5625-3.893-1.1025h1.958v-8.39238h-6.03c.585-.58499 1.147-1.28247 1.575-2.60995h1.485v2.11496h2.362v-2.11496zm-5.063 7.17743h-8.527v-.7875h8.527zm0-2.205h-8.527v-.765h8.527zm0 4.4324h-8.527v-.8325h8.527zm-4.702-9.29233v-1.86747h-5.67c.023-.45.022-.58499.022-.83249 1.98-.0225 3.69-.18 3.915-.2025.135 0 .585-.045.72-.0675.113.0225.495.1125.563.1125.112 0 .18-.0675.18-.18 0-.06749-.023-.22499-.158-.42749l-1.012-1.70997c-2.003.44999-4.005.65249-6.052.62999l-.63-.0675c.067.44999.18 1.28248.18 2.31746 0 1.23748-.158 2.24997-.518 3.12745-.315.71999-.63 1.07999-1.012 1.48498l2.07 1.14748c.607-.67499 1.192-1.46248 1.552-3.46494h1.507v2.00246h2.34v-2.00246z"/><path d="m154.735 18.2674v-16.62726h-8.145v7.64988h5.715v7.89738c0 .6525-.225.8775-.743.8775-.36 0-.675-.0225-1.35-.09l1.17 2.6099h1.125c1.8 0 2.228-.6975 2.228-2.3174zm-2.43-13.67981h-3.263v-1.19248h3.263zm0 2.94746h-3.263v-1.23748h3.263zm-7.56 1.75497v-7.64988h-8.257v18.87716h2.497v-11.22728zm-2.43-4.70243h-3.33v-1.19248h3.33zm0 2.94746h-3.33v-1.23748h3.33zm7.492 9.58485v-6.4349h-8.504v7.4924h2.497v-1.0575zm-2.497-2.0025h-3.51v-2.4299h3.51z"/></g></svg>