<svg fill="none" height="54" viewBox="0 0 311 54" width="311" xmlns="http://www.w3.org/2000/svg"><g fill="#fff"><path d="m17.6325 17.6125c-1.845-2.0025-3.78-3.915-5.9625-5.5575 1.4175-2.205 1.845-3.24 2.61-5.04.27-.6525.765-1.035 1.215-1.35l-1.7325-1.9125c-.405.27-.7425.495-1.17.495h-9.69753v2.61h8.57253c-.5175 1.2825-1.395 3.555-3.82503 6.1425-2.8575 3.0375-5.715 4.23-7.177504 4.86l1.980004 2.0475c4.23-2.07 5.895-3.78 7.69503-5.7825 1.845 1.485 3.4425 3.105 5.49 5.625z"/><path d="m37.1175 7.1275-1.665-1.7325c-.3375.225-.7425.54-1.0125.54h-5.175c.45-.765.8775-1.6425 1.1475-2.1825.315-.135.5175-.225.5175-.36 0-.1575-.315-.2925-.45-.3375l-2.475-.72c-.9675 2.8125-3.1275 6.66-6.3 8.82l2.0925 1.5525c1.485-1.17 2.5875-2.4975 4.0725-4.5675h5.76c-.315 1.125-.675 2.16-2.025 4.1625-1.5525-1.0575-2.475-1.5525-3.825-2.1375l-1.3725 1.6875c1.71.9225 2.7675 1.665 3.7125 2.3625-1.6875 1.7775-3.6 3.69-7.245 4.95l2.025 2.115c3.78-1.98 5.4-3.555 7.1325-5.49.945.8325 1.3725 1.2825 1.755 1.6425l1.665-1.935c-.7875-.765-1.3275-1.2375-1.89-1.71 1.5075-2.3625 1.9575-3.645 2.5875-5.4.18-.5175.5625-.9225.9675-1.26z"/><path d="m57.525 13.18v-2.8575h-15.9975v2.8575z"/><path d="m74.805 13.225c-.9-.7875-1.7325-1.53-3.51-2.7-1.935-1.26-2.6775-1.5525-3.825-2.0475l-1.0575 1.665v-5.9175c0-.1125.585-.4725.585-.6075 0-.27-.4725-.3375-.54-.36l-2.7-.4725v17.82h2.655v-9.72c2.7 1.125 4.95 2.9475 6.615 4.5z"/><path d="m95.955 5.935-2.07-2.0925c-.135.1575-.495.495-.7875.495h-15.1425v2.43h14.085c-1.1925 2.0475-2.7 3.5775-4.095 4.86l2.0925 1.7775c2.4525-2.4075 4.815-5.85 5.9175-7.47zm-7.785 1.7775c0-.18-.0675-.18-.54-.2025l-2.6325-.135c.18 4.68-.8775 8.2575-5.625 11.5425l2.4075 1.4175c1.1925-.8775 4.995-3.69 5.76-10.125.045-.2925.135-1.8675.18-1.9125.0225-.09.2925-.315.3375-.3825.0675-.09.1125-.135.1125-.2025z"/><path d="m106.8 11.065c-.248-.9225-.698-2.3175-1.53-3.645l-2.003.765c.698 1.1475 1.215 2.295 1.598 3.645zm5.917-2.4075c0-.1575-.157-.315-.45-.405l-2.205-.675c-.855 6.3675-3.915 9.45-8.28 11.61l1.8 1.5975c2.16-1.26 6.705-3.8925 8.393-10.8.225-.8775.247-.9675.45-1.08.247-.09.292-.1125.292-.2475zm-9.9 3.4875c-.382-1.26-.967-2.43-1.732-3.6225l-2.07.7875c.7425 1.1475 1.327 2.34 1.71 3.6225z"/><path d="m135.24 2.7625c0-1.17-.923-2.1375-2.115-2.1375-1.17 0-2.093.9675-2.093 2.1375 0 1.1925.945 2.16 2.093 2.16 1.17 0 2.115-.945 2.115-2.16zm-2.7 3.4875-2.228-2.025c-.225.18-.472.36-.742.36h-12.735v2.61h11.992c-.405 1.17-1.102 3.2175-2.812 5.5125-2.745 3.7125-5.94 5.1975-7.47 5.895l2.452 1.98c1.553-.855 4.253-2.3625 6.66-5.49 2.138-2.7675 3.105-5.3325 3.96-7.605.225-.585.563-.9225.923-1.2375zm1.822-3.4875c0 .765-.585 1.2825-1.237 1.2825-.63 0-1.238-.54-1.238-1.2825 0-.72.585-1.26 1.238-1.26.675 0 1.237.54 1.237 1.26z"/><path d="m153.217 6.9025h-7.065c.135-1.575.158-2.115.158-3.06 0-.315 0-.3375.202-.54.225-.2025.248-.225.248-.3375 0-.135-.023-.2475-.63-.2925l-2.655-.225c.067 2.2725-.045 3.51-.113 4.455h-6.525v2.475h6.165c-.202 1.035-.607 2.88-1.822 4.905-1.755 2.9025-3.96 4.1625-5.198 4.86l2.273 1.8c1.237-.7875 3.487-2.205 5.377-5.535 1.395-2.475 1.913-4.8825 2.16-6.03h4.613c-.09 3.33-.675 6.93-1.553 8.1-.315.45-.63.63-1.417.63-.36 0-.833-.045-2.295-.2475l1.282 2.9025c2.543-.0225 3.69-.315 4.568-1.485.877-1.1925 2.092-5.1975 2.227-12.375z"/><path d="m163.185 6.2275c-1.418-1.17-3.24-2.1375-4.725-2.79l-1.373 2.115c1.8.81 3.33 1.7775 4.613 2.835zm10.71 2.34-1.553-2.25c-.99 1.35-3.15 4.32-6.592 6.885-3.6 2.7-6.548 3.465-8.348 3.8925l1.575 2.7c.158.2925.36.4275.495.4275.18 0 .225-.3825.338-.6975 2.79-1.1925 4.927-2.1375 8.482-5.0175 2.97-2.4075 4.725-4.77 5.603-5.94z"/><path d="m193.245 6.0025-2.228-2.025c-.225.18-.472.36-.742.36h-12.713v2.6325h11.97c-2.317 6.795-6.322 9.6975-10.215 11.52l2.453 1.98c1.35-.7425 3.847-2.0925 6.165-4.9275 2.43-2.9475 3.51-5.7825 4.522-8.415.18-.4725.383-.7425.788-1.125z"/><path d="m211.29 9.13c-.293-.18-1.058-.945-1.755-1.7325-.36.315-.743.45-1.215.45h-11.588v2.0925h11.475c-.675 1.26-1.867 2.745-3.375 3.9375l1.643 1.4175c2.047-1.7325 3.825-4.14 4.815-6.165zm-6.255 1.575c0-.135-.203-.225-.428-.2475l-2.182-.135c0 4.95-.99 7.0425-4.478 9.5175l2.093 1.17c3.217-2.6775 4.14-4.77 4.657-9.9.158-.1125.338-.225.338-.405z"/><path d="m230.932 11.4925-1.372-2.475c-.968 1.0125-2.723 2.8575-5.378 4.635-2.812 1.8675-4.635 2.3175-5.535 2.5425v-11.295c0-.09.023-.1125.36-.3825.203-.18.225-.225.225-.315 0-.225-.45-.2925-.607-.315l-2.678-.3375v14.8725l1.53 1.5525c4.748-1.53 10.058-4.7025 13.455-8.4825z"/><path d="m240.81 6.2275c-1.418-1.17-3.24-2.1375-4.725-2.79l-1.373 2.115c1.8.81 3.33 1.7775 4.613 2.835zm10.71 2.34-1.553-2.25c-.99 1.35-3.15 4.32-6.592 6.885-3.6 2.7-6.548 3.465-8.348 3.8925l1.575 2.7c.158.2925.36.4275.495.4275.18 0 .225-.3825.338-.6975 2.79-1.1925 4.927-2.1375 8.482-5.0175 2.97-2.4075 4.725-4.77 5.603-5.94z"/><path d="m271.432 17.6125c-1.845-2.0025-3.779-3.915-5.962-5.5575 1.418-2.205 1.845-3.24 2.61-5.04.27-.6525.765-1.035 1.215-1.35l-1.732-1.9125c-.405.27-.743.495-1.171.495h-9.697v2.61h8.572c-.517 1.2825-1.394 3.555-3.824 6.1425-2.858 3.0375-5.716 4.23-7.178 4.86l1.98 2.0475c4.23-2.07 5.895-3.78 7.695-5.7825 1.845 1.485 3.442 3.105 5.49 5.625z"/><path d="m292.132 9.4675c-.472-.54-.922-1.0125-1.867-1.71l-.945 1.08c.742.54 1.282 1.035 1.867 1.71zm-1.822 2.0475c-.563-.6975-1.125-1.17-1.868-1.7325l-.922 1.08c.877.675 1.35 1.125 1.845 1.7325zm.742-5.8725v-2.61c-4.252 1.305-11.227 1.845-16.087 1.8l.382 2.52c2.25-.315 5.558-.585 8.573-.8325-.788.72-1.913 1.7775-2.97 3.42-.968 1.4625-1.53 2.97-1.53 4.4775 0 1.53.585 2.9925 1.665 4.05 1.822 1.8225 4.342 2.295 5.535 2.4975l.877-2.745c-.922-.045-2.497-.1125-3.96-1.1475-.63-.45-1.62-1.3725-1.62-2.925 0-1.71 1.08-3.735 2.745-5.4 2.858-2.88 5.333-3.0375 6.39-3.105z"/><path d="m310.56 15.7c0-2.3175-.923-3.8925-1.485-4.8825l-2.093 1.1025c.293.495 1.013 1.8225 1.013 3.3525 0 2.7225-2.273 3.51-4.118 3.51-.585 0-1.462-.0675-2.115-.675-.585-.5625-.72-1.35-.72-1.98 0-.6975.18-1.5075.27-2.07.608.045 1.148.1125 2.003.1125 1.102 0 1.8-.0675 2.137-.09l.585-2.475c-.945.1575-1.642.18-2.655.18-.81 0-1.012 0-1.485-.0675.405-1.44.675-2.25.945-3.015 1.845.2025 2.543.2025 3.308.18l.517-2.43c-1.305.0225-1.822.0225-2.947-.0225.315-.765.787-1.9575 1.192-2.6325.36-.1125.675-.045.675-.315 0-.2475-.337-.36-.517-.4275l-2.588-.9675c-.315 1.1475-.652 2.0925-1.327 4.05-1.665-.315-2.565-.6075-3.825-1.125l-.203 2.61c1.283.3375 1.868.45 3.263.72-.495 1.4625-.698 2.205-.923 2.9925-.99-.18-1.687-.36-3.037-.855l-.383 2.475c1.058.3825 2.003.585 2.835.7425-.112.675-.27 1.5975-.27 2.5425 0 4.14 3.263 4.905 5.445 4.905 2.835 0 6.503-1.5525 6.503-5.445z"/><path d="m76.8075 34.1275h-10.44v2.2275h2.9475c-.045.495-.1125.8775-.27 1.575-1.035-.4275-1.44-.54-1.71-.63l-1.125 1.9575c.7875.315 1.2375.5175 1.8675.81-.495.7425-.9 1.215-2.4075 2.295l1.8 1.5975c1.2825-.99 1.9575-1.7325 2.6775-2.8575.45.225.8325.45 1.3725.7875l.36-.585.5625 2.0475c-.72-.585-1.0575-.7875-1.305-.945l-1.4625 1.6425c.3825.27.81.5625 1.71 1.3275l-.09-.0225-2.34-.09v5.76c0 1.0575.7875 1.755 1.935 1.755h2.745c.945 0 1.4175-.495 2.1825-2.925l-2.3175-1.4175c-.09.5175-.27 1.215-.45 1.6425-.09.2475-.2475.4725-.54.4725h-.5625c-.405 0-.54-.1575-.54-.585v-3.7125c0-.1125.36-.4275.3825-.5175.3375.2925.3825.315.81.6975l1.3275-1.755c-.36-.405-.9225-.8775-1.215-1.125 1.125.045 2.3175 0 2.9475-.99 1.305-2.025 1.17-8.28 1.1475-8.4375zm-2.5425 2.2275c-.0675 1.395-.2475 2.97-.4275 3.915-.18.8775-.45.9225-.9.9225-.315 0-.63 0-.9675-.0675l.8325-1.35c-.315-.18-.6075-.3825-1.62-.9.27-.8775.3825-1.485.45-2.52zm-5.355 10.6875c0-.1575-.1125-.225-.2475-.27l-1.98-.6075c-.36 1.8-1.2375 3.8925-1.35 4.1625v-4.6575h-6.7725v7.0875h2.1375v-.9225h2.475v.6525h2.16v-1.44l1.8675.4725c.8775-1.71 1.35-4.05 1.3725-4.185.1125-.045.3375-.1125.3375-.2925zm-5.76 2.7225h-2.4525v-2.0475h2.4525zm14.9625-.6525c-.54-1.305-1.5075-2.88-2.295-3.825l-1.8 1.0575c.5625.81 1.53 2.4075 2.205 4.0725zm-13.455-13.275v-1.9125h-5.7825v1.9125zm1.0125 3.015v-1.9575h-7.6275v1.9575zm-.8775 2.79v-1.845h-5.9175v1.845zm.045 2.925v-1.8675h-5.9625v1.8675z"/><path d="m99.4425 44.6125c0-1.575-.54-3.6-2.2725-5.085-1.485-1.26-3.0825-1.5075-4.0725-1.665.225-1.0125.2475-1.17.5175-2.745 0-.09.1125-.18.18-.225.225-.1575.315-.2025.315-.315 0-.27-.5175-.315-.72-.3375l-2.61-.2475c0 1.215-.045 2.1375-.315 3.8925-1.485.2475-2.385.54-3.69 1.215-.405-1.4175-.6075-2.3175-.7425-3.6675l-2.6325 1.0575c.2925 1.1925.63 2.3175 1.26 4.14-.855.855-3.015 2.9925-3.015 6.525 0 2.43 1.26 3.8475 2.835 3.8475 1.485 0 3.06-1.575 3.7125-2.2275.3375.585.5625.9225.9 1.3725l1.8675-2.0475c-.3825-.495-.6075-.8325-1.035-1.53 1.305-2.2725 1.935-4.185 2.61-6.4575 2.7225.315 4.185 2.295 4.185 4.2525 0 1.3275-.495 2.9025-1.8225 4.185-1.53 1.44-3.2625 1.8-4.275 2.0025l1.5525 2.16c1.035-.2925 2.835-.7875 4.68-2.565.99-.945 2.5875-2.8575 2.5875-5.535zm-9.4725-4.2975c-.405 1.44-.72 2.385-1.3275 3.7575-.45-.9675-.7875-1.7775-1.1025-2.6325 1.125-.72 1.62-.9225 2.43-1.125zm-2.88 6.345c-.315.405-1.2375 1.5525-2.1825 1.5525-.6075 0-.8775-.6075-.8775-1.26 0-.54.09-2.0025 1.5075-3.915.72 1.8225 1.08 2.61 1.5525 3.6225z"/><path d="m114.067 36.085c-1.732-1.035-3.87-1.845-5.377-2.3175l-.968 2.2275c2.678.945 3.758 1.53 5.198 2.4525zm4.14 10.035c0-3.2625-2.632-4.9275-4.995-4.9275-1.147 0-3.51.4275-5.535 2.2725.293-1.6875.765-3.3525 1.35-4.95l-2.587-1.0125c-.495 1.71-1.575 5.535-1.755 8.595l1.957 1.035c2.318-2.7 4.59-3.6 6.143-3.6 1.687 0 2.835.9225 2.835 2.3625 0 2.07-1.913 4.2525-6.098 4.2525-1.035 0-2.092-.1575-2.812-.2475l1.192 2.7675c2.79-.0675 10.305-.2025 10.305-6.5475z"/><path d="m140.955 49.315-.698-2.52c-.922 1.305-1.777 1.71-2.407 1.71-.608 0-.833-.2475-.833-1.485 0-.45.023-1.1925.225-3.1725.293-3.015.315-3.2625.315-3.6675 0-1.7775-1.35-2.7-2.475-2.7-1.507 0-3.645 2.0025-4.522 2.8125l.495-.99-1.44-1.3725c.067-1.71.112-2.79.225-2.97.067-.0675.405-.36.405-.4275 0-.2025-.203-.225-.563-.27l-2.227-.2475-.09 4.8375c-.81.315-2.205.81-4.05 1.08l1.102 2.43c1.125-.36 1.733-.585 2.925-1.0125l-.045 1.98c-1.575 2.3625-2.745 3.78-4.275 5.175l2.34 1.575c.788-1.2375 1.17-1.7775 1.868-2.745l-.068 5.1975 2.52-.135c-.135-2.6325-.135-4.9725-.157-8.1 1.575-1.935 3.307-4.095 4.59-4.095.765 0 .877.9225.877 1.5075 0 .945-.405 5.13-.405 5.985 0 .5625 0 3.69 2.61 3.69 1.485 0 2.723-.9675 3.758-2.07z"/><path d="m161.182 43.6225v-2.385c-.675-.0675-1.395-.135-2.97-.135-1.192 0-2.317.0675-3.487.1575v2.3625c.54-.0675 1.935-.2475 3.375-.2475.337 0 1.395.0225 3.082.2475zm-5.085-4.5225v-2.4975c-.9.4275-2.25 1.035-3.577 1.3275.157-.63.337-1.44.54-2.4525.045-.225.09-.2475.382-.3825.203-.09.27-.1575.27-.315 0-.2475-.517-.36-.562-.36l-2.768-.6525c-.045 1.5075-.427 3.24-.765 4.77-.495.1125-1.912.135-2.227.135-1.103 0-1.575-.09-1.823-.135l.18 2.34c.788-.0225 1.553-.045 3.353-.27-1.778 6.0975-3.218 8.5275-4.568 10.71l2.745.8325c2.363-4.6125 3.533-8.235 4.635-11.97 2.475-.4725 3.42-.8325 4.185-1.08zm5.445 12.87-.225-2.61c-.652.1575-1.867.495-3.96.495-.517 0-2.227-.0225-2.857-.6075-.225-.2025-.27-.3825-.27-.675 0-.045 0-.405.09-.8325l-2.228-.4725c-.27.7875-.27 1.5075-.27 1.62 0 2.295 1.733 3.42 5.783 3.42 1.575 0 2.79-.135 3.937-.3375z"/><path d="m180.42 50.5975v-4.41h-8.685v5.2425h2.272v-.8325zm4.365.81v-8.01h-17.618v9.54h2.52v-7.74h12.555v5.0625c0 .6975-.157.7425-.855.7425-.27 0-.967-.045-1.147-.045l1.012 2.2725h1.215c1.44 0 2.318-.7875 2.318-1.8225zm-6.66-2.4975h-4.118v-1.215h4.118zm3.285-6.4125v-4.4775h-10.868v4.4775zm-2.498-1.5975h-5.85v-1.26h5.85zm6.615-3.78v-2.0025h-8.077v-.63c0-.09.067-.1575.225-.27.135-.0675.247-.1575.247-.27 0-.2025-.45-.225-.54-.225l-2.722-.225v1.62h-8.19v2.0025z"/><path d="m208.387 46.075c-.607-5.1975-2.61-8.0325-3.69-9.5625l-2.317 1.125c1.17 1.8 2.655 4.455 3.307 9.135zm-9.922-.3375-1.868-1.665c-.427 1.08-1.35 3.465-2.16 3.465-.45 0-1.53-.81-1.53-5.1975 0-2.475.18-3.78.428-5.0175.382-.135.652-.225.652-.4725 0-.27-.36-.3825-.517-.4275l-2.475-.675c-.36 1.5075-.675 2.97-.675 5.85 0 4.275.72 6.9075 2.295 8.4375.382.36.945.7425 1.665.7425 1.822 0 2.947-2.385 4.185-5.04z"/><path d="m231.225 40.2475v-4.7475h-7.875v-.765c0-.135.18-.27.225-.2925.135-.1125.202-.18.202-.27 0-.1575-.135-.2025-.517-.225l-2.7-.225v1.7775h-7.853v4.86h2.318v-2.8575h5.445c.045.81.045.855.045 1.71h-4.478v1.845h4.5v1.125h-5.94v1.935h5.873c-.023.315-.068.63-.203 1.17h-7.56v1.935h6.75c-1.192 1.6425-2.61 2.97-6.997 3.5325l1.44 2.025c1.372-.27 3.015-.585 4.77-1.575 1.8-1.0125 2.497-2.0925 3.105-3.0375.742.945 1.507 1.935 3.33 3.015 2.025 1.215 3.442 1.4625 4.747 1.6875l1.17-2.1825c-1.372-.27-3.24-.63-5.017-1.5975-1.283-.72-1.643-1.215-2.093-1.8675h7.223v-1.935h-8.28c.09-.5175.135-.72.202-1.17h6.12v-1.935h-6.007v-1.125h4.545v-1.845h-4.545v-1.71h5.715v2.745z"/><path d="m255.007 51.0025c-1.8-.405-2.475-.6525-3.69-1.4625h2.228v-7.605h-9.855v7.605h2.407c-1.147.855-1.98 1.2375-3.735 1.5975l1.215 1.98c.878-.27 2.07-.63 4.095-1.8225.135.0675.338.135.473.135.067 0 .247 0 .247-.2475 0-.1575-.09-.27-.157-.36l-1.035-1.2825h2.79l-.81 1.395c1.755 1.0575 2.812 1.4625 4.657 1.98zm-3.825-4.95h-5.152v-.765h5.152zm0-1.98h-5.152v-.72h5.152zm0 3.9825h-5.152v-.7875h5.152zm3.42-6.84v-1.6875h-4.927v-.81h3.487v-1.6425h-3.487v-.72h4.522v-1.6875h-4.522c0-.36 0-.405.18-.54.067-.0675.157-.1575.157-.315s-.135-.2475-.697-.27l-2.25-.0675v1.1925h-4.613v1.6875h4.613v.72h-3.443v1.6425h3.443v.81h-4.815v1.5075c-.225-.4725-.36-.675-.428-.7875l-1.822.72c.202.4275.315.675.517 1.17-.315.0225-1.125.045-1.665.045 1.035-1.485 1.215-1.8 2.97-4.545.113-.18.158-.18.63-.225.09-.0225.27-.045.27-.27 0-.2025-.36-.405-.495-.4725l-1.8-.9225c-.405 1.035-1.035 2.0925-1.462 2.7675-.36-.3375-.383-.36-.653-.63.585-.855.99-1.5525 1.508-2.4075.202-.36.247-.405.63-.45.09-.0225.247-.045.247-.2475s-.36-.36-.517-.4275l-1.778-.8325c-.63 1.4625-1.08 2.25-1.62 3.105-.112-.09-.562-.45-.652-.5175l-1.35 1.7775c1.192.9 1.845 1.5525 2.925 2.5875-.225.315-.653.945-1.103 1.6425-.472 0-.675 0-1.53-.0225l.135 1.98c.023.3825.023.7425.36.7425.203 0 .293-.09.54-.3375.09-.09.45-.09.72-.1125.158-.0225.608-.045 1.148-.09v8.6175h2.272v-8.8425c.248-.0225.743-.09.945-.1125.113.315.18.5625.293.9675l2.07-.81c-.473-1.3275-.72-1.8225-1.215-2.88zm-11.407 7.9875c-.473-1.5525-.63-2.52-.765-3.915l-1.913.4275c.09 1.0125.248 2.385.743 4.095zm-5.49-3.51c0-.225-.158-.2925-.608-.3375l-1.62-.1575c-.09 1.755-.337 3.51-.877 5.1975l2.047.3375c.473-1.9125.54-2.9025.63-4.41.023-.2025.045-.225.315-.45.045-.045.113-.09.113-.18z"/></g></svg>