<svg fill="none" height="11" viewBox="0 0 114 11" width="114" xmlns="http://www.w3.org/2000/svg"><g fill="#000"><path d="m4.65042 8.4997c-.53333 0-1.02332-.09-1.46998-.26999-.44666-.18-.83666-.43333-1.16998-.75999-.32667-.33333-.58-.72333-.75999-1.16999-.18-.44666-.270001-.93665-.270001-1.46998 0-.53332.090001-1.02332.270001-1.46998.17999-.44666.43332-.83332.75999-1.15998.33332-.33333.72332-.59 1.16998-.76999.44666-.18.93665-.27 1.46998-.27.50666 0 .97999.09 1.41998.27.44666.17999.83666.43666 1.16999.76999.33999.32666.60332.71332.78999 1.15998.19333.44666.28999.93666.28999 1.46998 0 .53333-.09 1.02332-.26999 1.46998-.18.44666-.43667.83666-.76999 1.16999-.32667.32666-.71333.57999-1.15999.75999-.44666.17999-.93665.26999-1.46998.26999zm0-.52999c.42666 0 .82666-.07666 1.19998-.23.37333-.15333.70333-.36999.98999-.64999.28666-.28666.51-.61999.66999-.99999.16-.37999.24-.79998.24-1.25998 0-.43333-.07667-.83999-.23-1.21998-.15333-.38-.36999-.71333-.64999-.99999-.27333-.28666-.59999-.50999-.97999-.66999-.37332-.16666-.78665-.25-1.23998-.25-.59999 0-1.13665.13667-1.60998.41-.46666.26666-.83332.63666-1.09998 1.10998-.26667.46666-.4 1.00666-.4 1.61998 0 .43333.07667.83999.23 1.21999.15333.37999.36666.71332.63999.99998.28.28667.60999.51333.98999.67999.37999.16.79665.24 1.24998.24zm.15-.89999c-.65999 0-1.15332-.20333-1.47998-.60999-.32666-.41333-.49-.95665-.49-1.62998 0-.43333.07667-.81665.23-1.14998.15333-.34.38-.60333.67999-.78999.3-.19333.66666-.29 1.09999-.29s.84332.1 1.22998.3l-.28999.60999c-.33333-.17333-.64333-.26-.92999-.26-.39333 0-.69999.14-.91999.42-.21333.27999-.32.66665-.32 1.15998 0 .50666.09334.89999.28 1.17999.19333.27333.50999.40999.94999.40999.15333 0 .32333-.02.50999-.06.19333-.04666.37333-.10333.53999-.17v.64c-.15999.06666-.32332.12333-.48999.16999-.16666.04667-.36666.07-.59999.07z"/><path d="m14.4106 8.3997h-4.71993v-.72999l1.86993-1.88997c.36-.36.6634-.67999.91-.95999.2467-.27999.4334-.55332.56-.81999.1267-.27333.19-.56999.19-.88999 0-.39332-.1166-.68999-.35-.88998-.2333-.20667-.5366-.31-.91-.31-.3466 0-.6533.06-.92.18-.2599.12-.5266.28666-.7999.49999l-.47003-.58999c.28003-.23333.60003-.43.96003-.58999.3666-.16667.7766-.25 1.2299-.25.6667 0 1.1934.17 1.58.50999.3867.33333.58.79666.58 1.38999 0 .37332-.0767.72332-.23 1.04998s-.3667.64999-.64.96999c-.2733.31333-.5933.64999-.96 1.00998l-1.4899 1.46999v.04h3.6099z"/><path d="m20.5632 4.81975c0 .76666-.08 1.42665-.24 1.97998-.16.54666-.4133.96665-.76 1.25998s-.8067.43999-1.38.43999c-.8066 0-1.4033-.32333-1.79-.96998-.38-.65333-.57-1.55665-.57-2.70997 0-.77332.0767-1.43331.23-1.97997.16-.54666.4134-.96332.76-1.24999.3467-.29333.8034-.43999 1.37-.43999.8 0 1.3967.32333 1.79.96999.3933.63999.59 1.53998.59 2.69996zm-3.86 0c0 .97999.11 1.71331.33 2.19997.2267.48666.61.72999 1.15.72999.5333 0 .9133-.23999 1.14-.71999.2333-.48666.35-1.22331.35-2.20997 0-.97332-.1167-1.70331-.35-2.18997-.2267-.48666-.6067-.72999-1.14-.72999-.54 0-.9233.24333-1.15.72999-.22.48666-.33 1.21665-.33 2.18997z"/><path d="m26.6558 8.3997h-4.72v-.72999l1.87-1.88997c.36-.36.6633-.67999.91-.95999.2466-.27999.4333-.55332.56-.81999.1266-.27333.19-.56999.19-.88999 0-.39332-.1167-.68999-.35-.88998-.2334-.20667-.5367-.31-.91-.31-.3467 0-.6533.06-.92.18-.26.12-.5267.28666-.8.49999l-.47-.58999c.28-.23333.6-.43.96-.58999.3667-.16667.7767-.25 1.23-.25.6666 0 1.1933.17 1.58.50999.3866.33333.58.79666.58 1.38999 0 .37332-.0767.72332-.23 1.04998-.1534.32666-.3667.64999-.64.96999-.2734.31333-.5934.64999-.96 1.00998l-1.49 1.46999v.04h3.61z"/><path d="m32.8083 4.81975c0 .76666-.08 1.42665-.24 1.97998-.16.54666-.4133.96665-.76 1.25998-.3466.29333-.8066.43999-1.3799.43999-.8067 0-1.4034-.32333-1.79-.96998-.38-.65333-.57-1.55665-.57-2.70997 0-.77332.0767-1.43331.23-1.97997.16-.54666.4133-.96332.76-1.24999.3466-.29333.8033-.43999 1.37-.43999.8 0 1.3966.32333 1.7899.96999.3934.63999.59 1.53998.59 2.69996zm-3.8599 0c0 .97999.11 1.71331.33 2.19997.2266.48666.61.72999 1.15.72999.5333 0 .9133-.23999 1.1399-.71999.2334-.48666.35-1.22331.35-2.20997 0-.97332-.1166-1.70331-.35-2.18997-.2266-.48666-.6066-.72999-1.1399-.72999-.54 0-.9234.24333-1.15.72999-.22.48666-.33 1.21665-.33 2.18997z"/><path d="m40.7685 4.62975h2.47v3.49996c-.3867.12666-.7767.22-1.17.28-.3933.05999-.84.08999-1.34.08999-.74 0-1.3633-.14666-1.8699-.43999-.5067-.3-.8934-.72332-1.16-1.26998-.26-.55333-.39-1.20665-.39-1.95998 0-.74665.1466-1.39331.44-1.93997.2933-.54666.7133-.96999 1.26-1.26999.5533-.30666 1.2199-.45999 1.9999-.45999.4 0 .7767.03667 1.13.11.36.07333.6933.17666 1 .30999l-.34.77999c-.2533-.11333-.54-.20999-.86-.28999-.3133-.08-.64-.12-.98-.12-.8533 0-1.5199.25666-1.9999.76999-.4734.51333-.71 1.21665-.71 2.10997 0 .56666.09 1.06999.27 1.50998.1866.43333.4766.77333.87 1.01999.3933.24.9099.35999 1.5499.35999.3134 0 .58-.01666.8-.05.22-.03333.42-.07333.6-.11999v-2.11998h-1.57z"/><path d="m47.2538 2.94978c.6534 0 1.1367.14333 1.45.42999.3134.28666.47.74332.47 1.36998v3.64995h-.64l-.17-.75999h-.04c-.2333.29333-.48.51-.74.65-.2533.13999-.6066.20999-1.0599.20999-.4867 0-.89-.12666-1.21-.37999-.32-.26-.48-.66333-.48-1.20999 0-.53332.21-.94332.63-1.22998.42-.29333 1.0666-.45333 1.9399-.47999l.91-.03v-.32c0-.44666-.0966-.75666-.29-.92999-.1933-.17333-.4666-.25999-.82-.25999-.28 0-.5466.04333-.7999.13-.2534.07999-.49.17333-.71.27999l-.27-.65999c.2333-.12666.51-.23333.83-.32.32-.09333.6533-.13999.9999-.13999zm1.05 2.82996-.79.03c-.6666.02667-1.1299.13333-1.3899.31999-.2534.18667-.38.45-.38.78999 0 .3.09.52.27.66.1866.13999.4233.20999.7099.20999.4534 0 .83-.12333 1.13-.36999.3-.25333.45-.63999.45-1.15999z"/><path d="m52.1092 8.3997h-.8799v-7.599895h.8799z"/><path d="m56.2373 2.94978c.6533 0 1.1367.14333 1.45.42999s.47.74332.47 1.36998v3.64995h-.64l-.17-.75999h-.04c-.2333.29333-.48.51-.74.65-.2533.13999-.6066.20999-1.06.20999-.4866 0-.89-.12666-1.21-.37999-.32-.26-.48-.66333-.48-1.20999 0-.53332.21-.94332.63-1.22998.42-.29333 1.0667-.45333 1.94-.47999l.91-.03v-.32c0-.44666-.0967-.75666-.29-.92999s-.4667-.25999-.82-.25999c-.28 0-.5466.04333-.8.13-.2533.07999-.49.17333-.71.27999l-.27-.65999c.2334-.12666.51-.23333.83-.32.32-.09333.6534-.13999 1-.13999zm1.05 2.82996-.79.03c-.6666.02667-1.13.13333-1.39.31999-.2533.18667-.38.45-.38.78999 0 .3.09.52.27.66.1867.13999.4234.20999.71.20999.4533 0 .83-.12333 1.13-.36999.3-.25333.45-.63999.45-1.15999z"/><path d="m62.7627 2.93978c.66 0 1.19.22999 1.59.68999.4066.45999.61 1.15332.61 2.07997 0 .91332-.2034 1.60665-.61 2.07997-.4.47333-.9333.70999-1.6.70999-.4133 0-.7567-.07666-1.03-.22999-.2666-.16-.4766-.34333-.63-.55h-.06c.0134.11334.0267.25667.04.43.0134.17333.02.32333.02.44999v2.2h-.88v-7.75992h.72l.12.72999h.04c.16-.23333.37-.43.63-.59.26-.15999.6067-.23999 1.04-.23999zm-.16.73999c-.5467 0-.9333.15333-1.16.45999-.22.30666-.3366.77332-.35 1.39998v.17c0 .65999.1067 1.16999.32 1.52998.22.35333.6233.52999 1.21.52999.3267 0 .5933-.09.8-.26999.2133-.18.37-.42333.47-.72999.1066-.31333.16-.67.16-1.06999 0-.61333-.12-1.10332-.36-1.46998-.2333-.36666-.5967-.54999-1.09-.54999z"/><path d="m68.795 2.94978c.6533 0 1.1366.14333 1.45.42999.3133.28666.4699.74332.4699 1.36998v3.64995h-.6399l-.17-.75999h-.04c-.2334.29333-.48.51-.74.65-.2534.13999-.6067.20999-1.06.20999-.4867 0-.89-.12666-1.21-.37999-.32-.26-.48-.66333-.48-1.20999 0-.53332.21-.94332.63-1.22998.42-.29333 1.0666-.45333 1.94-.47999l.91-.03v-.32c0-.44666-.0967-.75666-.29-.92999-.1934-.17333-.4667-.25999-.82-.25999-.28 0-.5467.04333-.8.13-.2534.07999-.49.17333-.71.27999l-.27-.65999c.2333-.12666.51-.23333.83-.32.32-.09333.6533-.13999 1-.13999zm1.05 2.82996-.79.03c-.6667.02667-1.13.13333-1.39.31999-.2533.18667-.38.45-.38.78999 0 .3.09.52.27.66.1866.13999.4233.20999.71.20999.4533 0 .83-.12333 1.13-.36999.3-.25333.45-.63999.45-1.15999z"/><path d="m74.6704 2.93978c.3533 0 .67.06666.9499.19999.2867.13334.53.33667.73.61h.05l.12-.70999h.7v5.44992c0 .76666-.1966 1.34332-.59 1.73-.3866.3866-.9899.58-1.8099.58-.7867 0-1.43-.1134-1.93-.34v-.81001c.5266.27999 1.1866.42001 1.98.42001.46 0 .8199-.13668 1.0799-.41001.2667-.26666.4-.63333.4-1.09999v-.20999c0-.08.0034-.19334.01-.34.0067-.15333.0134-.26.02-.32h-.04c-.36.54-.9133.80999-1.6599.80999-.6934 0-1.2367-.24333-1.63-.72999-.3867-.48666-.58-1.16665-.58-2.03997 0-.85332.1933-1.52998.58-2.02997.3933-.50666.9333-.75999 1.62-.75999zm.12.73999c-.4467 0-.7934.17999-1.04.53999-.2467.35333-.37.85999-.37 1.51998s.12 1.16665.36 1.51998c.2466.34666.6033.51999 1.07.51999.54 0 .9333-.14333 1.1799-.42999.2467-.29333.37-.76332.37-1.40998v-.21c0-.73332-.1266-1.25665-.38-1.56998-.2533-.32-.6499-.47999-1.1899-.47999z"/><path d="m83.9826 5.70974c0 .88666-.2267 1.57331-.68 2.05997-.4467.48666-1.0533.72999-1.82.72999-.4733 0-.8966-.10666-1.27-.31999-.3666-.22-.6566-.53666-.87-.94999-.2133-.41999-.32-.92665-.32-1.51998 0-.88665.2234-1.56998.67-2.04997.4467-.48 1.0534-.71999 1.82-.71999.4867 0 .9133.11 1.28.32999.3733.21333.6633.52666.87.93999.2133.40666.32.90665.32 1.49998zm-4.05 0c0 .63333.1234 1.13665.37 1.50998.2534.36666.6533.54999 1.2.54999.54 0 .9367-.18333 1.19-.54999.2533-.37333.38-.87665.38-1.50998 0-.63332-.1267-1.12999-.38-1.48998-.2533-.36-.6533-.53999-1.2-.53999s-.9433.17999-1.19.53999c-.2466.35999-.37.85666-.37 1.48998z"/><path d="m89.2672 6.91972c0 .52-.1933.91333-.58 1.17999s-.9067.39999-1.56.39999c-.3733 0-.6966-.03-.97-.08999-.2666-.06-.5033-.14334-.71-.25v-.79999c.2134.10666.47.20666.77.29999.3067.08667.6167.13.93.13.4467 0 .77-.07.97-.20999.2-.14667.3-.34.3-.58 0-.13333-.0367-.25333-.11-.35999-.0733-.10667-.2067-.21333-.4-.32-.1866-.10666-.4566-.22666-.81-.35999-.3466-.13333-.6433-.26667-.89-.4-.2466-.13333-.4366-.29333-.57-.47999-.1333-.18667-.2-.42666-.2-.71999 0-.45333.1834-.80332.55-1.04999.3734-.24666.86-.36999 1.46-.36999.3267 0 .63.03333.91.1.2867.05999.5533.14666.8.25999l-.3.69999c-.2267-.09333-.4633-.17333-.71-.23999-.2467-.06667-.5-.1-.76-.1-.36 0-.6366.06-.83.17999-.1866.11334-.28.27-.28.47 0 .14666.0434.27333.13.37999.0867.1.23.2.43.3.2067.09333.48.20666.82.34.34.12666.63.25666.87.38999s.4233.29666.55.48999c.1267.18667.19.42333.19.70999z"/><path d="m91.9623 7.23972.07.11c-.0866.35333-.2133.73999-.38 1.15998-.16.42666-.32.81999-.48 1.17999h-.65c.0934-.38.1867-.79666.28-1.24999.1-.45332.1734-.85332.22-1.19998z"/><path d="m99.1657 8.3997h-2.58v-.51999l.84-.19v-5.70992l-.84-.2v-.51999h2.58v.51999l-.84.2v5.70992l.84.19z"/><path d="m103.404 2.93978c.64 0 1.124.15666 1.45.46999.327.30666.49.80666.49 1.49998v3.48995h-.87v-3.42995c0-.85999-.4-1.28998-1.2-1.28998-.593 0-1.003.16666-1.23.49999-.226.33333-.34.81332-.34 1.43998v2.77996h-.88v-5.35992h.71l.13.72999h.05c.174-.28.414-.48666.72-.62.307-.13999.63-.20999.97-.20999z"/><path d="m109.556 8.4997c-.473 0-.897-.09666-1.27-.28999-.367-.19333-.657-.49333-.87-.89999-.207-.40666-.31-.92666-.31-1.55998 0-.65999.11-1.19665.33-1.60998s.517-.71666.89-.90999c.38-.19333.81-.28999 1.29-.28999.273 0 .536.03.79.09.253.05333.46.11999.62.19999l-.27.72999c-.16-.06-.347-.11666-.56-.16999-.214-.05334-.413-.08-.6-.08-1.053 0-1.58.67665-1.58 2.02997 0 .64666.127 1.14332.38 1.48998.26.34.643.50999 1.15.50999.293 0 .55-.03.77-.09.226-.05999.433-.13333.62-.21999v.77999c-.18.09333-.38.16333-.6.21-.214.05333-.474.07999-.78.07999z"/><path d="m112.48 7.85971c0-.24666.06-.41999.18-.51999s.264-.15.43-.15c.174 0 .32.05.44.15.127.1.19.27333.19.51999 0 .24-.063.41333-.19.51999-.12.10667-.266.16-.44.16-.166 0-.31-.05333-.43-.16-.12-.10666-.18-.27999-.18-.51999z"/></g></svg>