<svg width="301" height="83" viewBox="0 0 301 83" fill="none" xmlns="http://www.w3.org/2000/svg">
<path d="M44.2279 5.41541H39.9559V4.93541H44.2279V5.41541ZM44.2279 6.71141H39.9559V6.21541H44.2279V6.71141ZM44.2279 8.02341H39.9559V7.51141H44.2279V8.02341ZM38.1959 4.10341V8.87141H46.0679V4.10341H42.5959L42.8039 3.59141H47.3639V2.31141H45.0119C45.2359 2.00741 45.4759 1.63941 45.7159 1.23941L43.9399 0.967407C43.7799 1.35141 43.5079 1.87941 43.2519 2.31141H41.0599C40.8999 1.89541 40.5959 1.36741 40.3239 0.983407L38.7719 1.27141C38.9639 1.57541 39.1719 1.95941 39.3159 2.31141H36.9319V3.59141H41.0599C41.0279 3.76741 40.9799 3.94341 40.9479 4.10341H38.1959ZM36.7239 3.14341C36.2759 2.53541 35.2999 1.71941 34.4999 1.17541L33.2679 2.21541C34.0679 2.80741 35.0119 3.68741 35.4279 4.27941L36.7239 3.14341ZM43.9559 10.7434C45.1559 10.7274 46.3079 10.6954 47.1559 10.6634C47.2359 10.2474 47.4599 9.55941 47.6199 9.20741C45.4119 9.36741 41.2359 9.41541 39.2999 9.33541C37.9399 9.2874 36.9799 8.93541 36.4519 8.05541V4.95141H32.8839V6.39141H34.7239V8.32741C34.0519 8.71141 33.3479 9.0634 32.7559 9.3514L33.3959 10.8554C34.2919 10.3114 35.0759 9.81541 35.8439 9.28741C36.6119 10.2954 37.6999 10.6474 39.3159 10.7114C40.0519 10.7274 41.0439 10.7434 42.1159 10.7434V11.4154H32.8359V12.8554H36.3719L35.5239 13.5594C36.2759 14.0874 37.2359 14.9034 37.6519 15.4314L39.0279 14.2634C38.6599 13.8474 38.0039 13.3034 37.3639 12.8554H42.1159V14.0874C42.1159 14.2634 42.0359 14.3274 41.7799 14.3274C41.5399 14.3434 40.6599 14.3434 39.8759 14.2954C40.1159 14.7754 40.3879 15.4314 40.4679 15.9434C41.6519 15.9434 42.4999 15.9274 43.1399 15.6874C43.7799 15.4314 43.9559 14.9834 43.9559 14.1354V12.8554H47.3799V11.4154H43.9559V10.7434Z" fill="#2F2F2F"/>
<path d="M53.3959 1.89541V3.83141H57.0439C57.0919 4.37541 57.1559 4.95141 57.2679 5.55941L56.2919 5.38341C55.4119 9.59141 53.5079 12.6794 50.1799 14.3594C50.6759 14.7274 51.5719 15.5114 51.9239 15.9114C54.7079 14.2474 56.6279 11.5914 57.8279 8.00741C58.7079 10.8714 60.4039 13.8954 63.7158 15.8954C64.0518 15.3994 64.8359 14.5674 65.2519 14.2314C59.3639 10.7594 58.9319 4.91941 58.9319 1.89541H53.3959Z" fill="#2F2F2F"/>
<path d="M70.3558 5.33541V4.07141H80.1478V5.33541H76.1638V4.42341H74.2598V5.33541H70.3558ZM82.3398 12.0234V10.3754H76.0198C76.0998 10.0394 76.1318 9.7034 76.1478 9.36741H80.5158V7.83141H76.1638V6.87141H80.8358V5.81541H82.1158V2.40741H76.2598V1.01541H74.3078V2.40741H68.4678V5.81541H69.8918V6.87141H74.2598V7.83141H70.1478V9.36741H74.2438C74.2118 9.7034 74.1638 10.0394 74.0838 10.3754H68.3398V12.0234H73.1558C72.2758 12.9674 70.7398 13.7994 68.0519 14.4074C68.4679 14.8074 69.0118 15.5274 69.2358 15.9434C72.4998 15.0634 74.2758 13.7994 75.2198 12.3754C76.4838 14.3594 78.3878 15.4954 81.4278 15.9754C81.6678 15.4634 82.1638 14.7114 82.5478 14.3114C80.0198 14.0394 78.2278 13.3034 77.0918 12.0234H82.3398Z" fill="#2F2F2F"/>
<path d="M94.7398 3.43141H91.9078V4.53541H94.7398V5.07941H91.1238V6.26341H100.276V5.07941H96.6438V4.53541H99.5878V3.43141H96.6438V2.88741H99.9718V1.73541H96.6438V1.01541H94.7398V1.73541H91.5238V2.88741H94.7398V3.43141ZM85.9718 10.3594C85.8438 11.7034 85.6198 13.1274 85.1558 14.0714C85.5398 14.2154 86.2278 14.5194 86.5478 14.7434C86.9958 13.7194 87.3478 12.1354 87.4918 10.6154L85.9718 10.3594ZM90.2278 9.25541C90.3238 9.57541 90.4038 9.86341 90.4518 10.1194L91.8758 9.4794C91.6998 8.5834 91.0918 7.19141 90.4998 6.11941L89.1398 6.66341C89.3158 6.99941 89.4918 7.35141 89.6518 7.71941L88.1638 7.81541C89.1718 6.53541 90.2598 4.95141 91.1398 3.60741L89.5878 2.88741C89.2198 3.67141 88.7078 4.58341 88.1478 5.47941C88.0038 5.28741 87.8278 5.06341 87.6358 4.85541C88.2278 3.95941 88.8838 2.69541 89.4438 1.59141L87.7958 1.01541C87.5398 1.83141 87.0918 2.90341 86.6438 3.78341C86.5158 3.67141 86.3878 3.55941 86.2758 3.44741L85.3478 4.72741C85.9878 5.38341 86.7238 6.24741 87.1718 6.96741C86.9318 7.30341 86.6918 7.6234 86.4518 7.9114L85.2998 7.97541L85.4278 9.6234L87.7158 9.4634V15.9434H89.3478V9.33541L90.2278 9.25541ZM89.5238 10.6314C89.8758 11.5434 90.1958 12.7274 90.2598 13.5114L91.6678 13.0474C91.5718 12.2794 91.2358 11.1274 90.8518 10.2314L89.5238 10.6314ZM93.8118 11.5114H97.6998V12.1834H93.8118V11.5114ZM93.8118 9.7354H97.6998V10.4234H93.8118V9.7354ZM93.8118 7.97541H97.6998V8.6474H93.8118V7.97541ZM99.5078 13.3674V6.80741H92.1158V13.3674H93.5078C92.7078 13.9114 91.4438 14.5034 90.3558 14.8234C90.7078 15.1594 91.2358 15.6714 91.5238 16.0074C92.8038 15.5914 94.3878 14.8234 95.3638 14.0714L94.2918 13.3674H97.2038L96.2118 14.0874C97.1558 14.6794 98.2598 15.4634 98.8518 15.9594L100.516 15.0634C99.8758 14.6154 98.7718 13.9434 97.7958 13.3674H99.5078Z" fill="#2F2F2F"/>
<path fill-rule="evenodd" clip-rule="evenodd" d="M135.001 8.9635H110.001V6.9635H135.001V8.9635Z" fill="#2F2F2F"/>
<path fill-rule="evenodd" clip-rule="evenodd" d="M25 8.9635L1.74845e-07 8.9635L0 6.9635L25 6.9635L25 8.9635Z" fill="#2F2F2F"/>
<path d="M12.2478 32.8763V31.2523C12.2478 30.6923 12.3038 30.2443 12.3318 30.0343H10.7498C10.7778 30.2303 10.8198 30.6923 10.8198 31.2523V32.8763H7.12383V31.2663C7.12383 30.7483 7.17983 30.3283 7.20783 30.1463H5.63984C5.65384 30.3283 5.70984 30.7763 5.70984 31.2663V32.8763H4.33784C3.69384 32.8763 3.06384 32.8063 2.88184 32.7783V34.2763C3.10584 34.2623 3.67984 34.2343 4.33784 34.2343H5.70984V36.3343C5.70984 36.9083 5.65384 37.4963 5.63984 37.6923H7.17983C7.16583 37.4963 7.12383 36.9083 7.12383 36.3343V34.2343H10.8198V34.7943C10.8198 38.5043 9.58783 39.7083 6.96983 40.6743L8.15983 41.7943C11.4358 40.3243 12.2478 38.3223 12.2478 34.7103V34.2343H13.5778C14.2358 34.2343 14.7398 34.2483 14.9638 34.2763V32.7923C14.6838 32.8483 14.2358 32.8763 13.5638 32.8763H12.2478Z" fill="#2F2F2F"/>
<path d="M17.6518 36.5163C18.1138 36.4883 18.9398 36.4603 19.7238 36.4603H27.3398C27.9558 36.4603 28.5858 36.5023 28.8938 36.5163V34.7943C28.5578 34.8223 28.0118 34.8783 27.3258 34.8783H19.7238C18.9678 34.8783 18.0998 34.8363 17.6518 34.7943V36.5163Z" fill="#2F2F2F"/>
<path d="M41.9418 31.8263C41.6618 31.2803 41.1578 30.4123 40.8078 29.9083L39.9118 30.2863C40.2898 30.8183 40.7378 31.6583 41.0318 32.2183L41.9418 31.8263ZM34.5498 36.0963C36.3138 35.6343 38.6658 34.9203 40.1638 34.3183C40.6118 34.1643 41.1718 33.9123 41.6338 33.7303L41.0178 32.3163C40.5558 32.6103 40.1218 32.8203 39.6598 33.0023C38.3018 33.5763 36.2018 34.2343 34.5498 34.6403V31.7003C34.5498 31.3083 34.5778 30.8043 34.6338 30.4403H32.9958C33.0658 30.8043 33.0938 31.3783 33.0938 31.7003V39.3723C33.0938 40.5483 33.7378 41.1083 34.8718 41.3183C35.4598 41.4163 36.2998 41.4583 37.1678 41.4583C38.7078 41.4583 40.8078 41.3603 42.0678 41.1783V39.5683C40.9198 39.8763 38.7218 40.0303 37.2518 40.0303C36.5798 40.0303 35.9218 40.0023 35.5018 39.9323C34.8438 39.7923 34.5498 39.6243 34.5498 38.9523V36.0963ZM41.5078 29.6983C41.8998 30.2163 42.3478 31.0143 42.6418 31.6163L43.5518 31.2243C43.2998 30.7203 42.7678 29.8383 42.4038 29.3203L41.5078 29.6983Z" fill="#2F2F2F"/>
<path d="M55.3398 30.9443C55.1018 31.0283 54.6398 31.0843 54.1218 31.0843H48.9278C48.4938 31.0843 47.6818 31.0283 47.4018 30.9863V32.5683C47.6258 32.5543 48.3818 32.4843 48.9278 32.4843H54.0658C53.7298 33.5763 52.7918 35.1163 51.8398 36.1803C50.4538 37.7343 48.3538 39.4143 46.0858 40.2823L47.2198 41.4583C49.2358 40.5343 51.1118 39.0363 52.6098 37.4403C53.9958 38.7283 55.3958 40.2683 56.3058 41.5283L57.5518 40.4363C56.6838 39.3723 54.9898 37.5663 53.5478 36.3343C54.5278 35.0743 55.3538 33.4923 55.8438 32.3443C55.9418 32.1063 56.1518 31.7563 56.2498 31.6163L55.3398 30.9443Z" fill="#2F2F2F"/>
<path d="M64.3418 30.8183V31.7563H61.6538V30.8183H64.3418ZM61.6538 33.6743V32.6523H64.3418V33.6743H61.6538ZM65.5598 34.6263V29.8523H60.3658V42.1443H61.6538V34.6263H65.5598ZM65.2238 37.8043V36.4743H66.8898V37.8043H65.2238ZM69.7878 38.8823V37.8043H68.0518V36.4743H69.5078V35.4383H62.7178V36.4743H64.1038V37.8043H62.4658V38.8823H64.0618C63.9498 39.6523 63.5578 40.7023 62.5218 41.3323C62.7878 41.5143 63.1798 41.8643 63.3618 42.1023C64.6358 41.2483 65.0838 39.8203 65.1958 38.8823H66.8898V41.8923H68.0518V38.8823H69.7878ZM67.8838 33.7023V32.6523H70.6558V33.7023H67.8838ZM70.6558 30.8183V31.7563H67.8838V30.8183H70.6558ZM71.9438 29.8523H66.6378V34.6543H70.6558V40.5343C70.6558 40.7443 70.5858 40.8143 70.3758 40.8283C70.1518 40.8283 69.4378 40.8283 68.7238 40.8143C68.9198 41.1643 69.1018 41.7523 69.1438 42.1023C70.1938 42.1163 70.8938 42.0743 71.3418 41.8643C71.8038 41.6403 71.9438 41.2623 71.9438 40.5483V29.8523Z" fill="#2F2F2F"/>
<path d="M79.4618 35.2563C81.0998 35.1303 83.3538 34.9903 85.5378 34.8223C85.6918 35.1723 85.8318 35.5083 85.9158 35.7883L87.0498 35.1723C86.6998 34.1363 85.7478 32.5963 84.8518 31.4483L83.8158 31.9663C84.2078 32.4843 84.5998 33.0863 84.9358 33.6743L81.7438 33.8563C82.2898 32.5963 82.8778 30.9583 83.3398 29.5723L81.9118 29.2783C81.6038 30.6783 81.0018 32.5823 80.4558 33.9403L79.3358 33.9963L79.4618 35.2563ZM78.0058 33.3243C77.8378 34.9623 77.5158 36.3763 77.0538 37.5523C76.5918 37.2163 76.1018 36.9083 75.6538 36.6283C75.9058 35.6063 76.1858 34.4723 76.4518 33.3243H78.0058ZM78.5518 32.0783L78.3138 32.1203H76.7178C76.9278 31.1823 77.1238 30.2583 77.2918 29.4183L76.0458 29.2783C75.8918 30.1463 75.6958 31.1263 75.4858 32.1203H74.0578V33.3243H75.2338C74.8558 35.0043 74.4498 36.6283 74.1138 37.8043L75.1918 38.3783L75.3458 37.8183C75.7378 38.0843 76.1298 38.3643 76.5218 38.6723C75.8918 39.7923 75.0798 40.6323 74.0998 41.1503C74.3798 41.3883 74.7158 41.8643 74.9118 42.1863C75.9758 41.5423 76.8438 40.6603 77.5298 39.4843C78.0758 39.9743 78.5518 40.4503 78.8738 40.8563L79.6578 39.8063C79.2938 39.3443 78.7338 38.8403 78.1038 38.3223C78.7478 36.7543 79.1538 34.7523 79.3218 32.2323L78.5518 32.0783ZM84.9638 37.6363V40.3803H81.4778V37.6363H84.9638ZM80.2458 42.1443H81.4778V41.5563H84.9638V42.0883H86.2518V36.4463H80.2458V42.1443Z" fill="#2F2F2F"/>
<path d="M92.3278 29.9363C92.3418 30.8323 92.2018 31.8823 92.0058 32.9043C91.2218 32.9743 90.4798 33.0303 90.0318 33.0443C89.5698 33.0583 89.1638 33.0723 88.7018 33.0443L88.8278 34.5563C89.2198 34.4863 89.8498 34.4023 90.2138 34.3603C90.5218 34.3183 91.0818 34.2623 91.7118 34.1923C91.2218 36.0683 90.2278 39.0503 88.8558 40.8983L90.2978 41.4723C91.6558 39.2603 92.6358 36.0823 93.1538 34.0383C93.6718 33.9963 94.1338 33.9683 94.4138 33.9683C95.2958 33.9683 95.8278 34.1643 95.8278 35.3543C95.8278 36.7963 95.6318 38.5323 95.2118 39.4003C94.9598 39.9323 94.5678 40.0583 94.0778 40.0583C93.6998 40.0583 92.9298 39.9323 92.3698 39.7643L92.6078 41.2203C93.0558 41.3323 93.7278 41.4303 94.2458 41.4303C95.2258 41.4303 95.9398 41.1643 96.3878 40.2263C96.9758 39.0363 97.1858 36.8383 97.1858 35.2003C97.1858 33.2683 96.1638 32.7083 94.8198 32.7083C94.4978 32.7083 94.0078 32.7363 93.4338 32.7783C93.5598 32.1483 93.6858 31.4763 93.7698 31.0563C93.8258 30.7483 93.8958 30.3983 93.9658 30.1043L92.3278 29.9363ZM97.4378 32.0503C98.4178 33.2403 99.4678 35.7183 99.8598 37.1883L101.232 36.5303C100.784 35.2283 99.5938 32.6523 98.7398 31.4903L97.4378 32.0503Z" fill="#2F2F2F"/>
<path d="M106.314 31.3083C107.378 31.5883 110.43 32.2183 111.788 32.4003L112.11 31.0423C110.892 30.9163 107.91 30.3703 106.664 29.9783L106.314 31.3083ZM106.538 32.6103L105.054 32.4143C104.97 33.9823 104.62 36.8103 104.354 38.1123L105.642 38.4203C105.754 38.1823 105.88 37.9443 106.104 37.6783C107.042 36.5723 108.47 35.9423 110.192 35.9423C111.522 35.9423 112.474 36.6563 112.474 37.6783C112.474 39.5123 110.304 40.6603 106.02 40.1143L106.454 41.5563C111.858 42.0043 113.986 40.2123 113.986 37.7063C113.986 36.0683 112.558 34.6823 110.304 34.6823C108.75 34.6823 107.294 35.1583 106.006 36.1943C106.118 35.3403 106.356 33.4783 106.538 32.6103Z" fill="#2F2F2F"/>
<path d="M69.5999 76.5421C69.2639 76.2221 68.0319 75.1181 67.2639 74.4941C68.0319 73.4381 68.6719 72.2861 69.1519 71.0701L68.0799 70.3821L67.7439 70.4621H67.0239V67.5181H65.1359V70.4621H62.8639V72.1741H66.7359C65.6799 74.0301 63.9999 75.7101 62.2559 76.6541C62.5439 77.0221 62.9919 77.9501 63.1519 78.4621C63.8239 78.0461 64.4959 77.5181 65.1359 76.9261V82.4461H67.0239V76.4141C67.5679 77.0061 68.1119 77.6461 68.4479 78.0941L69.5999 76.5421ZM74.2079 80.1261V74.2701H77.2319V72.4301H74.2079V67.6461H72.2559V72.4301H69.2159V74.2701H72.2559V80.1261H68.5599V81.9821H77.6159V80.1261H74.2079Z" fill="#2F2F2F"/>
<path d="M88.2078 73.2301C87.7278 72.1261 86.7198 70.5581 85.6798 69.3901L83.9518 70.2541C84.9118 71.4381 85.9359 73.1181 86.3359 74.2221L88.2078 73.2301ZM85.2798 76.0621C84.4798 76.3821 83.6638 76.7181 82.8639 77.0541L82.5759 68.3981L80.5919 68.4781L80.9119 77.8221C80.1119 78.1421 79.3919 78.3981 78.7839 78.6061L79.4239 80.6381C81.2319 79.8861 83.5998 78.8781 85.7118 77.9341L85.2798 76.0621ZM93.9678 80.8461C93.2318 79.7261 91.7438 78.1101 90.4158 76.7341C91.4558 74.5581 92.0318 71.8861 92.3678 68.6061L90.2718 68.4141C89.6798 74.9901 88.0318 78.8621 82.9599 80.7821C83.4239 81.1821 84.2078 82.0461 84.4798 82.4621C86.5918 81.5181 88.1758 80.2381 89.3438 78.5741C90.5278 79.9181 91.7438 81.3901 92.3358 82.4301L93.9678 80.8461Z" fill="#2F2F2F"/>
<path d="M103.152 79.7421V74.2061H108.8V72.2701H103.152V67.6941H101.104V79.7421H95.3758V81.6621H109.92V79.7421H103.152Z" fill="#2F2F2F"/>
<path d="M8.38428 68.6298H10.189C11.5151 68.6298 12.6089 69.0331 13.4702 69.8398C14.3452 70.6738 14.7964 71.8495 14.8237 73.3671C14.7964 74.8574 14.3452 76.0058 13.4702 76.8124C12.6089 77.6738 11.5493 78.1044 10.2915 78.1044C9.11572 78.1044 8.17236 77.7831 7.46142 77.1406C6.76416 76.5253 6.22412 75.7187 5.84131 74.7206H1.55518C2.02002 77.2089 3.03857 79.1093 4.61084 80.4218C6.1831 81.7343 7.98779 82.3906 10.0249 82.3906C12.6636 82.3632 14.8237 81.5224 16.5054 79.8681C18.2144 78.2548 19.0825 76.0468 19.1099 73.2441C19.1099 71.9863 18.8433 70.7831 18.3101 69.6347C17.7495 68.4863 16.8403 67.5019 15.5825 66.6816C16.813 65.8476 17.6675 64.8974 18.146 63.831C18.5561 62.7646 18.7612 61.6572 18.7612 60.5087C18.7339 58.2392 17.9546 56.2704 16.4233 54.6025C14.8237 52.8935 12.6636 52.0253 9.94287 51.998C7.79639 52.0253 5.95068 52.791 4.40576 54.2949C2.8335 55.8124 1.93799 57.6786 1.71924 59.8935H6.00537C6.27881 58.663 6.81201 57.7538 7.60498 57.166C8.35693 56.5781 9.19092 56.2841 10.1069 56.2841C11.3784 56.3115 12.4175 56.7148 13.2241 57.4941C14.0308 58.3007 14.4477 59.3329 14.4751 60.5908C14.4751 61.8349 14.0718 62.8466 13.2651 63.6259C12.4585 64.4326 11.3237 64.8359 9.86084 64.8359H8.38428V68.6298Z" fill="#2F2F2F"/>
<path d="M34.6146 73.5312C34.5326 76.5527 33.1312 78.0771 30.4105 78.1044C27.6761 78.0771 26.2816 76.5527 26.2269 73.5312V60.8574C26.2816 57.8632 27.6761 56.3388 30.4105 56.2841C33.1312 56.3388 34.5326 57.8632 34.6146 60.8574V73.5312ZM21.9408 73.7773C21.9681 76.5253 22.8499 78.6445 24.5863 80.1347C26.2132 81.6113 28.1546 82.3632 30.4105 82.3906C32.7347 82.3632 34.7103 81.6113 36.3372 80.1347C37.9915 78.6445 38.846 76.5253 38.9007 73.7773V60.5908C38.846 57.829 37.9915 55.7031 36.3372 54.2128C34.7103 52.7363 32.7347 51.998 30.4105 51.998C28.1546 51.998 26.2132 52.7363 24.5863 54.2128C22.8499 55.7031 21.9681 57.829 21.9408 60.5908V73.7773Z" fill="#2F2F2F"/>
<path d="M53.9543 73.5312C53.8722 76.5527 52.4709 78.0771 49.7502 78.1044C47.0158 78.0771 45.6213 76.5527 45.5666 73.5312V60.8574C45.6213 57.8632 47.0158 56.3388 49.7502 56.2841C52.4709 56.3388 53.8722 57.8632 53.9543 60.8574V73.5312ZM41.2804 73.7773C41.3078 76.5253 42.1896 78.6445 43.9259 80.1347C45.5529 81.6113 47.4943 82.3632 49.7502 82.3906C52.0744 82.3632 54.05 81.6113 55.6769 80.1347C57.3312 78.6445 58.1857 76.5253 58.2404 73.7773V60.5908C58.1857 57.829 57.3312 55.7031 55.6769 54.2128C54.05 52.7363 52.0744 51.998 49.7502 51.998C47.4943 51.998 45.5529 52.7363 43.9259 54.2128C42.1896 55.7031 41.3078 57.829 41.2804 60.5908V73.7773Z" fill="#2F2F2F"/>
<path fill-rule="evenodd" clip-rule="evenodd" d="M299 19.9639H166V79.9639H299V19.9639ZM164 17.9639V81.9639H301V17.9639H164Z" fill="#131313"/>
<path d="M259.974 37.8116H252.27L252.078 36.5156L249.87 37.1396V33.4676H251.454V35.6516H259.974V37.8116ZM265.422 35.6516V33.0116H259.974V30.9716H264.39V28.3796H259.974V26.2436H257.142V28.3796H252.894V30.9716H257.142V33.0116H251.862V30.7556H249.87V26.2676H247.254V30.7556H246.126C246.27 29.7956 246.39 28.8356 246.486 27.8756L244.11 27.4916C243.894 30.3236 243.51 33.2996 242.742 35.2196C243.294 35.5076 244.326 36.1556 244.758 36.5156C245.094 35.6516 245.406 34.6196 245.646 33.4676H247.254V37.8836C245.646 38.3156 244.158 38.6996 242.982 38.9636L243.654 41.6996C244.734 41.3876 245.958 41.0276 247.254 40.6436V48.6596H249.87V39.8516C250.566 39.6356 251.286 39.3956 251.982 39.1796V40.4516H254.886L252.822 41.7236C253.854 42.8756 255.078 44.4596 255.558 45.4916L257.838 44.0276C257.262 42.9716 256.014 41.5076 254.958 40.4516H259.974V45.4196C259.974 45.7316 259.878 45.8036 259.47 45.8276C259.086 45.8276 257.79 45.8276 256.59 45.7796C256.974 46.5716 257.358 47.7956 257.454 48.6116C259.254 48.6116 260.598 48.5636 261.582 48.1316C262.542 47.6756 262.782 46.9076 262.782 45.4676V40.4516H265.206V37.8116H262.782V35.6516H265.422Z" fill="#131313"/>
<path d="M276.438 26.9876H268.83V29.1476H276.438V26.9876ZM273.822 42.3956V45.1556H271.086V42.3956H273.822ZM276.318 40.1396H268.614V48.3236H271.086V47.3876H276.318V40.1396ZM268.686 38.9636H276.39V36.8276H268.686V38.9636ZM289.95 36.9716H285.006V32.1716H289.446V29.5556H281.646C281.958 28.6436 282.222 27.6836 282.438 26.7236L279.582 26.1716C279.126 28.3796 278.358 30.6116 277.35 32.3876V30.2036H267.534V32.4596H277.302C277.014 32.9636 276.726 33.4436 276.39 33.8756V33.5396H268.686V35.7236H276.39V34.4756C277.11 34.8596 278.094 35.5076 278.574 35.8676C279.318 34.8596 280.038 33.5876 280.662 32.1716H282.126V36.9716H277.11V39.6836H282.126V48.6356H285.006V39.6836H289.95V36.9716Z" fill="#131313"/>
<path d="M253.878 56.3578H254.718V58.2298H261.798C261.39 60.9178 260.67 63.3178 259.734 65.3818C258.726 63.2698 258.006 60.8458 257.526 58.2778L254.79 58.8298C255.534 62.4538 256.566 65.6698 258.03 68.3338C256.854 69.9658 255.462 71.2618 253.878 72.1498V56.3578ZM247.71 66.1498H251.118V68.3098C249.966 68.4538 248.814 68.6218 247.71 68.7658V66.1498ZM247.71 61.2058H251.118V63.6058H247.71V61.2058ZM251.118 56.3578V58.6378H247.71V56.3578H251.118ZM263.07 55.3498L262.59 55.4218H255.414V53.7178H243.366V56.3578H244.998V69.1018C244.182 69.1978 243.438 69.2698 242.79 69.3418L243.342 72.1978C245.55 71.8618 248.358 71.4298 251.118 70.9498V74.7898H253.878V72.5338C254.454 73.1098 255.102 73.9978 255.462 74.6218C257.094 73.6378 258.51 72.4378 259.734 70.9498C260.886 72.4138 262.23 73.6378 263.862 74.6218C264.294 73.8778 265.182 72.7978 265.83 72.2698C264.102 71.3338 262.662 69.9898 261.486 68.3818C263.286 65.1658 264.438 61.0378 264.942 55.8058L263.07 55.3498Z" fill="#131313"/>
<path d="M285.462 56.2618H279.222V55.0618H285.462V56.2618ZM285.462 59.3818H279.222V58.1338H285.462V59.3818ZM288.342 53.0698H276.462V61.3738H288.342V53.0698ZM272.334 52.3978C271.326 54.0058 269.214 55.9498 267.342 57.1018C267.774 57.7018 268.47 58.8778 268.758 59.5258C271.014 58.0618 273.462 55.7098 275.046 53.5018L272.334 52.3978ZM272.958 57.6298C271.566 59.9818 269.214 62.3098 267.078 63.7978C267.51 64.4938 268.23 66.1258 268.446 66.7498C269.166 66.1978 269.886 65.5258 270.606 64.8058V74.7658H273.366V61.7338C274.158 60.7258 274.878 59.7178 275.454 58.7098L272.958 57.6298ZM289.614 66.1258H286.35V64.7578H289.134V62.4298H275.238V64.7578H283.446V66.1258H274.662V68.5498H278.022L276.246 69.7258C277.254 70.7338 278.478 72.1498 279.006 73.0618L281.142 71.5498C280.542 70.7098 279.366 69.4618 278.406 68.5498H283.446V71.8858C283.446 72.1498 283.35 72.2458 283.014 72.2698C282.702 72.2698 281.574 72.2698 280.566 72.2218C280.926 72.9418 281.334 73.9978 281.454 74.7658C283.086 74.7658 284.286 74.7658 285.174 74.3578C286.11 73.9498 286.35 73.2778 286.35 71.9578V68.5498H289.638L289.614 66.1258Z" fill="#131313"/>
<path d="M178.382 38.0239H181.125C183.959 38.0239 185.779 36.4119 185.779 33.1749C185.779 29.9249 183.959 28.4039 181.021 28.4039H178.382V38.0239ZM180.306 36.4769V29.9379H180.904C182.698 29.9379 183.816 30.8219 183.816 33.1749C183.816 35.5149 182.698 36.4769 180.904 36.4769H180.306Z" fill="#131313"/>
<path d="M190.925 38.2059C191.835 38.2059 192.758 37.8939 193.473 37.3999L192.823 36.2299C192.303 36.5549 191.783 36.7369 191.185 36.7369C190.106 36.7369 189.326 36.1129 189.17 34.9169H193.655C193.707 34.7479 193.746 34.3969 193.746 34.0459C193.746 32.0309 192.706 30.5619 190.704 30.5619C188.962 30.5619 187.311 32.0309 187.311 34.3969C187.311 36.7889 188.897 38.2059 190.925 38.2059ZM189.144 33.6559C189.287 32.5899 189.963 32.0439 190.73 32.0439C191.666 32.0439 192.108 32.6679 192.108 33.6559H189.144Z" fill="#131313"/>
<path d="M197.66 38.2059C199.558 38.2059 200.559 37.1789 200.559 35.9049C200.559 34.5529 199.493 34.0719 198.531 33.7079C197.764 33.4219 197.049 33.2269 197.049 32.6939C197.049 32.2779 197.361 31.9919 198.011 31.9919C198.557 31.9919 199.064 32.2519 199.584 32.6159L200.442 31.4589C199.831 31.0039 199.025 30.5619 197.959 30.5619C196.321 30.5619 195.255 31.4849 195.255 32.7979C195.255 34.0069 196.321 34.5659 197.244 34.9169C198.011 35.2159 198.765 35.4629 198.765 36.0089C198.765 36.4639 198.44 36.7759 197.712 36.7759C197.036 36.7759 196.412 36.4899 195.762 35.9829L194.891 37.1789C195.606 37.7769 196.685 38.2059 197.66 38.2059Z" fill="#131313"/>
<path d="M202.276 38.0239H204.174V30.7439H202.276V38.0239ZM203.238 29.5739C203.888 29.5739 204.369 29.1319 204.369 28.5339C204.369 27.9099 203.888 27.4939 203.238 27.4939C202.575 27.4939 202.094 27.9099 202.094 28.5339C202.094 29.1319 202.575 29.5739 203.238 29.5739Z" fill="#131313"/>
<path d="M209.046 41.1829C211.477 41.1829 212.998 40.0649 212.998 38.5959C212.998 37.3219 212.049 36.7759 210.294 36.7759H209.059C208.201 36.7759 207.915 36.5679 207.915 36.1779C207.915 35.8919 208.019 35.7229 208.227 35.5539C208.539 35.6579 208.877 35.7229 209.163 35.7229C210.723 35.7229 211.971 34.8909 211.971 33.2529C211.971 32.7979 211.828 32.3949 211.633 32.1479H212.881V30.7439H210.255C209.956 30.6399 209.566 30.5619 209.163 30.5619C207.616 30.5619 206.225 31.4849 206.225 33.2009C206.225 34.0459 206.693 34.7349 207.187 35.0989V35.1509C206.758 35.4629 206.381 35.9699 206.381 36.5159C206.381 37.1139 206.667 37.4909 207.044 37.7379V37.8029C206.381 38.1799 206.004 38.6999 206.004 39.3109C206.004 40.5979 207.33 41.1829 209.046 41.1829ZM209.163 34.5399C208.526 34.5399 208.019 34.0589 208.019 33.2009C208.019 32.3429 208.513 31.8619 209.163 31.8619C209.813 31.8619 210.294 32.3429 210.294 33.2009C210.294 34.0589 209.8 34.5399 209.163 34.5399ZM209.332 39.9739C208.266 39.9739 207.59 39.6229 207.59 39.0119C207.59 38.7129 207.746 38.4269 208.071 38.1669C208.331 38.2319 208.643 38.2709 209.085 38.2709H209.969C210.749 38.2709 211.178 38.4009 211.178 38.9209C211.178 39.4929 210.424 39.9739 209.332 39.9739Z" fill="#131313"/>
<path d="M214.501 38.0239H216.399V33.0189C216.945 32.4859 217.322 32.1999 217.92 32.1999C218.635 32.1999 218.947 32.6029 218.947 33.7209V38.0239H220.858V33.4869C220.858 31.6539 220.182 30.5619 218.609 30.5619C217.621 30.5619 216.88 31.0819 216.243 31.7059H216.191L216.061 30.7439H214.501V38.0239Z" fill="#131313"/>
<path d="M188.728 61.1493L189.52 58.2333C190.312 55.4613 191.104 52.4373 191.788 49.5213H191.932C192.724 52.4013 193.444 55.4613 194.272 58.2333L195.064 61.1493H188.728ZM198.088 72.1293H203.668L195.1 45.4893H188.836L180.304 72.1293H185.704L187.576 65.2893H196.216L198.088 72.1293Z" fill="#131313"/>
<path d="M208.946 72.1293H214.274V45.4893H208.946V72.1293Z" fill="#131313"/>
<path fill-rule="evenodd" clip-rule="evenodd" d="M233 72.9637H232V26.9637H233V72.9637Z" fill="black"/>
</svg>
