<svg fill="none" height="123" viewBox="0 0 132 123" width="132" xmlns="http://www.w3.org/2000/svg"><g fill="#d7b94f"><path d="m30.6193 9.44566s-1.9442-4.99559 4.4147-9.44566c-.0108 0 1.246 5.91555-4.4147 9.44566zm.0536-.06418s.9131-1.52966 2.3525-4.88861c0-.01069-1.3858 2.27847-2.3525 4.88861z"/><path d="m41.1243 8.43985c-6.262 4.57745-10.3972 1.15508-10.3972 1.15508 5.1664-4.22455 10.3972-1.15508 10.3972-1.15508zm-4.9086.45994c-3.6627.29947-5.4135.66309-5.4135.66309 2.8034-.08556 5.4135-.66309 5.4135-.66309z"/><path d="m22.8633 15.0083s-1.9441-5.01702 4.4253-9.47777c0-.0107 1.2675 5.92627-4.4253 9.47777zm.0645-.0749s.913-1.5404 2.363-4.91c0 0-1.3963 2.2892-2.363 4.91z"/><path d="m33.4003 13.9938c-6.2836 4.5882-10.4296 1.1551-10.4296 1.1551 5.188-4.2353 10.4296-1.1551 10.4296-1.1551zm-4.9088.4599c-3.6734.2995-5.4242.6737-5.4242.6737 2.7927-.0962 5.4242-.6737 5.4242-.6737z"/><path d="m16.7845 23.2347s-3.7378-3.9152.4726-10.5047c.0107.0107 3.4586 5.0491-.4726 10.5047zm.0321-.0856s.2579-1.7757.3116-5.4663c0 0-.4082 2.6636-.3116 5.4663z"/><path d="m26.2037 18.2938c-4.0816 6.6644-9.2589 5.0492-9.2589 5.0492 3.2008-5.9263 9.2589-5.0492 9.2589-5.0492zm-4.4039 2.2892c-3.3082 1.6688-4.7905 2.6851-4.7905 2.6851 2.5779-1.1339 4.7905-2.6851 4.7905-2.6851z"/><path d="m11.7146 31.343s-3.79149-3.9794.4834-10.6438c0 0 3.5014 5.1026-.4834 10.6438zm.0215-.0856s.2685-1.7971.3115-5.5411c.0107 0-.4082 2.6957-.3115 5.5411z"/><path d="m21.2632 26.3264c-4.1353 6.7606-9.3877 5.1239-9.3877 5.1239 3.2331-6.0011 9.3877-5.1239 9.3877-5.1239zm-4.4682 2.332c-3.3512 1.7008-4.855 2.7277-4.855 2.7277 2.6101-1.166 4.855-2.7277 4.855-2.7277z"/><path d="m6.63486 39.4522s-3.84531-4.0329.48343-10.8043c.01075.0107 3.55531 5.1883-.48343 10.8043zm.03225-.0856s.26859-1.8292.32229-5.6268c0 0-.4297 2.7386-.32229 5.6268z"/><path d="m16.3114 34.3604c-4.189 6.8569-9.51648 5.1881-9.51648 5.1881 3.28678-6.076 9.51648-5.1881 9.51648-5.1881zm-4.5219 2.364c-3.39415 1.7222-4.93007 2.7599-4.93007 2.7599 2.65302-1.166 4.93007-2.7599 4.93007-2.7599z"/><path d="m6.48321 50.2874s-5.45637-1.7865-4.85487-10.0127c0 0 5.75712 2.9632 4.85487 10.0127zm-.02137-.0963s-.65525-1.7864-2.45976-5.2524c0 .0107.94526 2.6957 2.45976 5.2524z"/><path d="m12.7465 40.9717c-.4404 8.2476-6.06875 9.328-6.06875 9.328-.01074-7.103 6.06875-9.328 6.06875-9.328zm-2.9323 4.3431c-2.23415 3.2092-3.1042 4.8994-3.1042 4.8994 1.81525-2.3534 3.1042-4.8994 3.1042-4.8994z"/><path d="m5.86125 59.9377s-5.64999-1.8507-5.016252-10.3657c0-.0106 5.950752 3.0595 5.016252 10.3657zm-.0215-.107s-.6767-1.8506-2.5457-5.4342c0 0 .9882 2.7813 2.5457 5.4342z"/><path d="m12.3592 50.2878c-.4511 8.5365-6.29426 9.6597-6.29426 9.6597 0-7.3598 6.29426-9.6597 6.29426-9.6597zm-3.05056 4.4928c-2.30933 3.3162-3.21157 5.0706-3.21157 5.0706 1.87969-2.439 3.21157-5.0706 3.21157-5.0706z"/><path d="m5.2378 69.5749s-5.832542-1.9149-5.1880711-10.7187c.0107412 0 6.1655211 3.1664 5.1880711 10.7187zm-.01075-.107s-.69825-1.9148-2.63167-5.616c0 0 1.0205 2.8775 2.63167 5.616z"/><path d="m11.9623 59.6055c-.4726 8.8252-6.49842 9.9912-6.49842 9.9912-.01074-7.6164 6.49842-9.9912 6.49842-9.9912zm-3.14718 4.6426c-2.38454 3.4338-3.31898 5.2416-3.31898 5.2416 1.94414-2.5245 3.31898-5.2416 3.31898-5.2416z"/><path d="m10.8653 79.0533s-6.16548 1.519-10.451238-6.5574c0 0 7.142908-.5883 10.451238 6.5574zm-.0753-.0855s-1.66479-1.2944-5.40274-3.4873c0 .0107 2.48113 1.9683 5.40274 3.4873z"/><path d="m11.2518 66.6445c4.4468 7.9909-.2042 12.302-.2042 12.302-4.18905-6.6645.2042-12.302.2042-12.302zm-.1934 5.7873c-.2041 4.311-.0215 6.4077-.0215 6.4077.3115-3.2627.0215-6.4077.0215-6.4077z"/><path d="m15.4842 87.5559s-6.36941 1.5617-10.79475-6.7715c0-.0107 7.36835-.6097 10.79475 6.7715zm-.0859-.0856s-1.7185-1.3372-5.57456-3.5943c0 0 2.55636 2.0218 5.57456 3.5943z"/><path d="m15.8819 74.7417c4.5971 8.2476-.204 12.7083-.204 12.7083-4.3394-6.889.204-12.7083.204-12.7083zm-.204 5.9797c-.2041 4.4608-.0215 6.6216-.0215 6.6216.3222-3.3803.0215-6.6216.0215-6.6216z"/><path d="m20.0717 96.0088s-6.4984 1.5939-11.02043-6.9105c0-.0107 7.52953-.6204 11.02043 6.9105zm-.0859-.0856s-1.7508-1.3586-5.6928-3.6692c0-.0107 2.6101 2.0646 5.6928 3.6692z"/><path d="m20.48 82.9263c4.6831 8.4187-.2147 12.965-.2147 12.965-4.4146-7.0174.2147-12.965.2147-12.965zm-.204 6.0974c-.2148 4.5463-.0215 6.7607-.0215 6.7607.3223-3.4445.0215-6.7607.0215-6.7607z"/><path d="m29.2765 101.55s-5.1343 4.321-13.0075-1.337c0 0 6.4984-3.8931 13.0075 1.337zm-.1076-.043s-2.1911-.449-6.7667-.781c0 0 3.2759.695 6.7667.781z"/><path d="m23.7981 89.5898c7.9915 5.4985 5.6178 11.7672 5.6178 11.7672-7.1322-4.3646-5.6178-11.7672-5.6178-11.7672zm2.5351 5.584c1.8475 4.1934 2.9967 6.0972 2.9967 6.0972-1.2352-3.2517-2.9967-6.0972-2.9967-6.0972z"/><path d="m37.085 107.037s-5.1556 4.342-13.0718-1.348c0 0 6.5305-3.904 13.0718 1.348zm-.1074-.043s-2.2018-.449-6.799-.781c0 0 3.2867.706 6.799.781z"/><path d="m31.5749 95.0242c8.0236 5.5308 5.6391 11.8208 5.6391 11.8208-7.1536-4.375-5.6391-11.8208-5.6391-11.8208zm2.5563 5.6158c1.8582 4.215 3.0075 6.119 3.0075 6.119-1.2459-3.263-3.0075-6.119-3.0075-6.119z"/><path d="m44.9157 112.545s-5.2095 4.385-13.1901-1.347c-.0107-.011 6.5843-3.957 13.1901 1.347zm-.1074-.042s-2.2234-.449-6.8636-.792c-.0107 0 3.319.717 6.8636.792z"/><path d="m39.3519 100.416c8.0987 5.573 5.6926 11.927 5.6926 11.927-7.2179-4.407-5.6926-11.927-5.6926-11.927zm2.5777 5.669c1.869 4.247 3.0398 6.183 3.0398 6.183-1.2567-3.305-3.0398-6.183-3.0398-6.183z"/><path d="m55.2159 114.953s-3.7701 5.989-13.523 2.812c.0107-.01 5.2953-6 13.523-2.812zm-.1181-.011s-2.3415.246-7.0569 1.38c0 0 3.5231-.343 7.0569-1.38z"/><path d="m45.8599 104.673c9.8066 2.984 9.4307 10.044 9.4307 10.044-8.5714-2.118-9.4307-10.044-9.4307-10.044zm4.3502 4.803c3.2008 3.626 4.9731 5.166 4.9731 5.166-2.2878-2.866-4.9731-5.166-4.9731-5.166z"/><path d="m65.7531 118.3s-4.7368 7.51-16.9601 3.52c0 .01 6.638-7.51 16.9601-3.52zm-.1504-.01s-2.943.31-8.8506 1.733c-.0107 0 4.4146-.428 8.8506-1.733z"/><path d="m54.0137 105.411c12.2985 3.744 11.8367 12.601 11.8367 12.601-10.7519-2.653-11.8367-12.601-11.8367-12.601zm5.4565 6.033c4.0172 4.546 6.2405 6.493 6.2405 6.493-2.8679-3.615-6.2405-6.493-6.2405-6.493z"/><path d="m96.9777 0c6.3483 4.45007 4.4043 9.44566 4.4043 9.44566-5.6609-3.53011-4.4043-9.44566-4.4043-9.44566zm1.9979 4.48217c1.4504 3.35894 2.3524 4.88866 2.3524 4.88866-.967-2.59944-2.3524-4.88866-2.3524-4.88866z"/><path d="m101.274 9.59493s-4.1355 3.42237-10.3975-1.15508c.0107 0 5.2308-3.06947 10.3975 1.15508zm-.086-.03205s-1.751-.37432-5.4029-.66309c0 0 2.6101.57753 5.4029.66309z"/><path d="m104.711 5.51929c6.369 4.47147 4.425 9.47781 4.425 9.47781-5.693-3.5408-4.425-9.47781-4.425-9.47781zm1.997 4.50361c1.45 3.3696 2.363 4.91 2.363 4.91-.966-2.6208-2.363-4.91-2.363-4.91z"/><path d="m109.029 15.1571s-4.146 3.4331-10.4299-1.1551c-.0107-.0107 5.2419-3.0909 10.4299 1.1551zm-.086-.0428s-1.751-.3743-5.424-.6738c0 .0107 2.62.5882 5.424.6738z"/><path d="m114.733 12.7407c4.21 6.5789.473 10.5048.473 10.5048-3.921-5.4663-.473-10.5048-.473-10.5048zm.14 4.9422c.053 3.6906.311 5.4663.311 5.4663.097-2.8027-.311-5.4663-.311-5.4663z"/><path d="m115.055 23.3418s-5.178 1.6153-9.259-5.0492c0 0 6.058-.8772 9.259 5.0492zm-.065-.0642s-1.482-1.0162-4.79-2.685c0-.0107 2.212 1.5404 4.79 2.685z"/><path d="m119.803 20.6995c4.275 6.6751.484 10.6438.484 10.6438-3.985-5.5412-.484-10.6438-.484-10.6438zm.14 5.017c.054 3.744.322 5.5412.322 5.5412.097-2.8455-.322-5.5412-.322-5.5412z"/><path d="m120.125 31.4498s-5.252 1.6367-9.388-5.1239c0 0 6.155-.8772 9.388 5.1239zm-.064-.0642s-1.504-1.0269-4.855-2.7277c0 0 2.244 1.5617 4.855 2.7277z"/><path d="m124.872 28.657c4.329 6.7713.483 10.8042.483 10.8042-4.028-5.6268-.483-10.8042-.483-10.8042zm.14 5.0812c.053 3.7975.322 5.6267.322 5.6267.107-2.8882-.322-5.6267-.322-5.6267z"/><path d="m125.205 39.5579s-5.328 1.6581-9.517-5.1882c0-.0107 6.23-.8986 9.517 5.1882zm-.075-.0642s-1.525-1.0484-4.93-2.76c.01-.0107 2.288 1.5833 4.93 2.76z"/><path d="m130.371 40.2749c.602 8.2369-4.855 10.0127-4.855 10.0127-.902-7.0495 4.855-10.0127 4.855-10.0127zm-2.363 4.6747c-1.815 3.4659-2.459 5.2524-2.459 5.2524 1.503-2.5673 2.459-5.2524 2.459-5.2524z"/><path d="m125.323 50.2995s-5.629-1.0804-6.069-9.3281c0 0 6.079 2.225 6.069 9.3281zm-.032-.0856s-.871-1.6902-3.105-4.8994c.011 0 1.289 2.546 3.105 4.8994z"/><path d="m131.156 49.5603c.623 8.5257-5.016 10.3656-5.016 10.3656-.935-7.2955 5.016-10.3656 5.016-10.3656zm-2.449 4.8352c-1.88 3.5836-2.546 5.4342-2.546 5.4342 1.558-2.6529 2.546-5.4342 2.546-5.4342z"/><path d="m125.936 59.947s-5.833-1.1232-6.294-9.6596c0 0 6.305 2.2998 6.294 9.6596zm-.032-.0962s-.903-1.7437-3.212-5.0706c0 0 1.332 2.6316 3.212 5.0706z"/><path d="m131.95 58.8562c.645 8.8145-5.188 10.7187-5.188 10.7187-.977-7.5523 5.188-10.7187 5.188-10.7187zm-2.546 4.9957c-1.933 3.7012-2.631 5.616-2.631 5.616 1.611-2.7385 2.631-5.616 2.631-5.616z"/><path d="m126.548 69.585s-6.037-1.166-6.499-9.9912c-.01.0106 6.499 2.3855 6.499 9.9912zm-.033-.0963s-.934-1.8078-3.319-5.2416c-.01 0 1.364 2.717 3.319 5.2416z"/><path d="m131.585 72.4959c-4.286 8.0764-10.451 6.5574-10.451 6.5574 3.308-7.1457 10.451-6.5574 10.451-6.5574zm-4.973 2.9953c-3.738 2.1929-5.403 3.4872-5.403 3.4872 2.922-1.5297 5.403-3.4872 5.403-3.4872z"/><path d="m120.952 78.9465s-4.651-4.3111-.204-12.302c0 0 4.393 5.6375.204 12.302zm.021-.107s.183-2.0967-.021-6.4077c0 0-.301 3.145.021 6.4077z"/><path d="m127.31 80.7761c-4.425 8.3439-10.794 6.7713-10.794 6.7713 3.426-7.3704 10.794-6.7713 10.794-6.7713zm-5.134 3.1022c-3.856 2.2678-5.574 3.5942-5.574 3.5942 3.018-1.5725 5.574-3.5942 5.574-3.5942z"/><path d="m116.322 87.45s-4.802-4.45-.204-12.7083c0 0 4.543 5.8193.204 12.7083zm.032-.107s.182-2.1608-.032-6.6216c0 0-.301 3.2413.032 6.6216z"/><path d="m122.95 89.0871c-4.512 8.515-11.01 6.9105-11.01 6.9105 3.48-7.5203 11.01-6.9105 11.01-6.9105zm-5.242 3.1557c-3.942 2.3106-5.693 3.6692-5.693 3.6692 3.083-1.5939 5.693-3.6692 5.693-3.6692z"/><path d="m111.725 95.8911s-4.898-4.5463-.215-12.9651c.011 0 4.64 5.9477.215 12.9651zm.032-.107s.183-2.2036-.021-6.7606c0 0-.312 3.3161.021 6.7606z"/><path d="m115.731 100.213c-7.873 5.658-13.007 1.337-13.007 1.337 6.509-5.2299 13.007-1.337 13.007-1.337zm-6.133.513c-4.587.332-6.767.781-6.767.781 3.491-.085 6.767-.781 6.767-.781z"/><path d="m102.595 101.357s-2.374-6.2685 5.617-11.7669c-.01 0 1.504 7.4025-5.617 11.7669zm.075-.085s1.149-1.9046 2.997-6.0979c0 0-1.762 2.8454-2.997 6.0979z"/><path d="m107.987 105.689c-7.916 5.69-13.0715 1.348-13.0715 1.348 6.5415-5.252 13.0715-1.348 13.0715-1.348zm-6.165.524c-4.5972.332-6.7991.781-6.7991.781 3.5124-.075 6.7991-.781 6.7991-.781z"/><path d="m94.785 106.845s-2.3846-6.29 5.639-11.8206c0 0 1.515 7.4456-5.639 11.8206zm.0751-.086s1.1602-1.914 3.0077-6.118c0 0-1.7617 2.856-3.0077 6.118z"/><path d="m100.286 111.186c-7.9911 5.743-13.1898 1.348-13.1898 1.348 6.595-5.294 13.1898-1.348 13.1898-1.348zm-6.2188.524c-4.6402.332-6.8636.792-6.8636.792 3.5338-.075 6.8636-.792 6.8636-.792z"/><path d="m86.9558 112.353s-2.4059-6.354 5.6927-11.928c0-.01 1.5251 7.51-5.6927 11.928zm.0751-.086s1.1709-1.936 3.0398-6.183c0 0-1.7831 2.878-3.0398 6.183z"/><path d="m90.296 117.755c-9.7422 3.176-13.5231-2.813-13.5231-2.813 8.2385-3.176 13.5231 2.813 13.5231 2.813zm-6.3373-1.433c-4.7154-1.134-7.0569-1.38-7.0569-1.38 3.5339 1.038 7.0569 1.38 7.0569 1.38z"/><path d="m76.708 114.717s-.3759-7.06 9.4307-10.044c0 0-.8593 7.926-9.4307 10.044zm.1075-.064s1.7723-1.551 4.9731-5.167c0-.01-2.6853 2.29-4.9731 5.167z"/><path d="m83.2073 121.832c-12.2234 3.99-16.9602-3.52-16.9602-3.52 10.3222-4 16.9602 3.52 16.9602 3.52zm-7.9592-1.808c-5.9183-1.412-8.8506-1.733-8.8506-1.733 4.436 1.305 8.8506 1.733 8.8506 1.733z"/><path d="m66.1502 118.012s-.4618-8.858 11.8367-12.602c0 0-1.0849 9.949-11.8367 12.602zm.1289-.086s2.2235-1.936 6.2406-6.493c.0108.011-3.362 2.888-6.2406 6.493z"/></g></svg>