<svg width="10" height="16" viewBox="0 0 10 16" fill="none" xmlns="http://www.w3.org/2000/svg">
<path d="M0.418126 13.5481L5.97365 7.99254L0.418126 2.43701C0.285564 2.30445 0.18041 2.14708 0.108668 1.97388C0.0369262 1.80068 1.39677e-09 1.61504 0 1.42757C-1.39676e-09 1.2401 0.0369262 1.05446 0.108668 0.881263C0.18041 0.708062 0.285564 0.550688 0.418126 0.418126C0.550688 0.285564 0.708062 0.18041 0.881263 0.108668C1.05446 0.0369255 1.2401 -1.39677e-09 1.42757 0C1.61504 1.39677e-09 1.80068 0.0369255 1.97388 0.108668C2.14708 0.18041 2.30445 0.285564 2.43701 0.418126L9.00914 6.99025C9.56756 7.54867 9.56756 8.45073 9.00914 9.00914L2.43701 15.5813C2.30455 15.714 2.14721 15.8193 1.97399 15.8912C1.80078 15.963 1.6151 16 1.42757 16C1.24004 16 1.05436 15.963 0.881147 15.8912C0.707933 15.8193 0.55059 15.714 0.418126 15.5813C-0.125972 15.0229 -0.14029 14.1065 0.418126 13.5481Z" fill="white"/>
</svg>
