<svg width="209" height="41" viewBox="0 0 209 41" fill="none" xmlns="http://www.w3.org/2000/svg">
<path d="M66.4136 26.2664L69.1243 32.6246H72.5649L62.3474 8.65088H58.9069L48.6894 32.6246H52.13L54.8407 26.2664H66.4136V26.2664ZM56.3004 23.0351L60.6793 12.716L65.0582 23.0351H56.3004Z" fill="#00BEFF"/>
<path d="M75.797 8.65088V32.6246H78.9248V8.65088H75.797Z" fill="#00BEFF"/>
<path d="M91.6445 25.4325L97.1703 32.6246H101.236L95.3979 25.224C97.1703 24.7029 98.6299 23.7648 99.7768 22.3055C100.924 20.742 101.549 19.0743 101.549 17.0938C101.549 14.8007 100.715 12.8202 99.1512 11.1525C97.5873 9.48475 95.6064 8.65088 93.3127 8.65088H83.9293V32.6246H87.0571V25.4325H91.6445ZM96.9618 13.3414C98.0044 14.3837 98.4214 15.5303 98.4214 16.9896C98.4214 18.4488 98.0044 19.6997 96.9618 20.742C96.0234 21.7843 94.7723 22.3055 93.3127 22.3055H87.0571V11.8821H93.3127C94.7723 11.8821 96.0234 12.4033 96.9618 13.3414Z" fill="#00BEFF"/>
<path d="M129.491 29.1852C131.785 26.892 132.931 23.9735 132.931 20.7423C132.931 17.511 131.785 14.5925 129.491 12.2993C127.197 10.0062 124.382 8.75537 121.15 8.75537H112.601V32.7291H121.254C124.486 32.6249 127.197 31.4783 129.491 29.1852ZM121.254 29.4979H115.729V11.8824H121.254C123.652 11.8824 125.633 12.7163 127.406 14.4882C129.074 16.2602 129.908 18.2406 129.908 20.7423C129.908 23.2439 129.074 25.2243 127.406 26.9963C125.633 28.5598 123.652 29.4979 121.254 29.4979Z" fill="#0076A9"/>
<path d="M143.253 29.4982C142.002 29.4982 140.855 28.9771 139.917 28.1432C139.396 27.622 139.083 26.9966 138.77 26.3712H150.968C151.49 23.5569 150.76 21.1596 148.779 19.0749C147.215 17.5114 145.443 16.7817 143.253 16.7817C141.064 16.7817 139.291 17.5114 137.727 19.0749C136.164 20.6384 135.434 22.5146 135.434 24.7035C135.434 26.8924 136.164 28.7686 137.727 30.3321C139.291 31.8956 141.064 32.6253 143.253 32.6253C145.443 32.6253 147.215 31.8956 148.779 30.3321L146.59 28.039C145.651 28.9771 144.504 29.4982 143.253 29.4982ZM143.253 19.9087C144.504 19.9087 145.651 20.4299 146.59 21.2638C147.111 21.785 147.528 22.4104 147.736 23.0358H138.874C139.083 22.4104 139.5 21.785 140.021 21.2638C140.751 20.3257 141.898 19.9087 143.253 19.9087Z" fill="#0076A9"/>
<path d="M156.598 25.3297L159.205 26.7889C159.622 26.9974 159.831 27.3101 159.935 27.727C160.039 28.144 159.935 28.5609 159.726 28.9778C159.518 29.499 159.101 29.7075 158.475 29.8117C157.85 29.8117 157.433 29.6032 157.12 29.1863L154.513 30.9583C155.556 32.3133 156.911 33.043 158.684 32.9387C160.456 32.8345 161.707 32.1048 162.541 30.5413C163.167 29.3948 163.375 28.144 162.958 26.8932C162.646 25.6424 161.811 24.7043 160.665 24.0788L158.058 22.6196C157.641 22.4111 157.433 22.0984 157.328 21.6815C157.224 21.2645 157.328 20.8476 157.537 20.4307C157.745 19.9095 158.162 19.701 158.788 19.5968C159.413 19.5968 159.831 19.8053 160.143 20.2222L162.75 18.4502C161.707 17.0952 160.352 16.3656 158.579 16.4698C156.807 16.574 155.556 17.3037 154.722 18.8672C154.096 20.0137 153.888 21.2645 154.305 22.5153C154.722 23.7661 155.452 24.7042 156.598 25.3297Z" fill="#0076A9"/>
<path d="M167.024 16.6769V32.6246H170.152V16.6769H167.024ZM167.233 9.27628C166.816 9.69322 166.712 10.1102 166.712 10.6313C166.712 11.1525 166.92 11.6737 167.233 11.9864C167.546 12.4033 168.067 12.6118 168.588 12.6118C169.11 12.6118 169.527 12.4033 169.944 11.9864C170.361 11.6737 170.465 11.1525 170.465 10.6313C170.465 10.1102 170.257 9.58898 169.944 9.27628C169.631 8.85935 169.11 8.65088 168.588 8.65088C168.067 8.65088 167.65 8.85935 167.233 9.27628Z" fill="#0076A9"/>
<path d="M186.313 32.6255C186.313 33.9805 185.791 35.1271 184.957 36.0652C184.123 37.0033 182.872 37.4202 181.621 37.4202C180.37 37.4202 179.223 36.8991 178.285 36.0652L176.095 38.3583C177.659 39.9219 179.431 40.6515 181.621 40.6515C183.81 40.6515 185.583 39.9219 187.147 38.3583C188.711 36.7948 189.44 34.9186 189.44 32.7297V16.6777H187.876L186.313 18.2412C184.957 17.1989 183.393 16.6777 181.621 16.6777C179.431 16.6777 177.659 17.4074 176.095 18.9709C174.531 20.5344 173.801 22.4106 173.801 24.5995C173.801 26.7884 174.531 28.6646 176.095 30.2281C177.659 31.7916 179.431 32.5213 181.621 32.5213C183.393 32.5213 184.957 32.0001 186.313 30.9578V32.6255V32.6255ZM178.285 28.0392C177.346 27.1011 176.929 25.9545 176.929 24.5995C176.929 23.2445 177.45 22.0979 178.285 21.1598C179.223 20.2217 180.37 19.8047 181.621 19.8047C182.872 19.8047 184.019 20.3259 184.957 21.1598C185.896 21.9937 186.313 23.2445 186.313 24.5995C186.313 25.9545 185.791 27.1011 184.957 28.0392C184.123 28.9773 182.872 29.3943 181.621 29.3943C180.37 29.4985 179.223 28.9773 178.285 28.0392Z" fill="#0076A9"/>
<path d="M197.468 21.2638C198.407 20.3257 199.449 19.9087 200.701 19.9087C201.952 19.9087 203.098 20.4299 204.037 21.2638C204.975 22.0977 205.392 23.3485 205.392 24.7035V32.7295H208.52V24.7035C208.52 22.5146 207.79 20.6384 206.226 19.0749C204.662 17.5114 202.89 16.7817 200.701 16.7817C198.928 16.7817 197.364 17.3029 196.009 18.3452L194.445 16.7817H192.881V32.7295H196.009V24.495C196.009 23.2442 196.53 22.0977 197.468 21.2638Z" fill="#0076A9"/>
<path d="M50.8789 0.104234C50.2533 0.208467 49.9405 0.208467 49.5235 0.312701C48.0638 0.625402 45.5616 1.35504 43.7892 2.08467C35.6569 5.10745 29.9226 11.7784 24.3968 18.2409C18.037 25.7457 10.9473 30.332 1.25112 32.6252C1.0426 32.6252 0 32.8336 0 32.8336C0 32.8336 1.0426 33.0421 3.23206 33.0421C14.4921 33.0421 26.3778 31.687 35.2399 21.7848C40.2443 16.3647 42.2253 8.6514 47.2298 3.54395C48.5851 2.18891 49.6277 1.35504 50.8789 0.416935C51.2959 0.208467 51.6087 0 51.6087 0C51.6087 0 51.5044 0 50.8789 0.104234Z" fill="url(#paint0_linear)"/>
<defs>
<linearGradient id="paint0_linear" x1="1.70986" y1="36.2209" x2="111.061" y2="-33.1037" gradientUnits="userSpaceOnUse">
<stop stop-color="#00BEFF"/>
<stop offset="0.0727487" stop-color="#0FC2FF" stop-opacity="0.9054"/>
<stop offset="0.213" stop-color="#37CCFF" stop-opacity="0.723"/>
<stop offset="0.4067" stop-color="#77DCFF" stop-opacity="0.4712"/>
<stop offset="0.6437" stop-color="#CEF3FF" stop-opacity="0.1631"/>
<stop offset="0.7691" stop-color="white" stop-opacity="0"/>
</linearGradient>
</defs>
</svg>
