<svg width="140" height="27" viewBox="0 0 140 27" fill="none" xmlns="http://www.w3.org/2000/svg">
<path d="M44.589 17.1661L46.4026 21.3507H48.6956L41.8582 5.66883H39.5652L32.7278 21.3507H35.0208L36.8552 17.1661H44.589V17.1661ZM37.7933 15.0738L40.7325 8.29973L43.6718 15.0738H37.7933Z" fill="#333333"/>
<path d="M50.926 5.66884V21.3507H53.0314V5.66884H50.926Z" fill="#333333"/>
<path d="M61.5157 16.6482L65.268 21.3507H67.9779L64.0798 16.4825C65.2888 16.1717 66.2686 15.5502 67.0398 14.5559C67.832 13.5615 68.2489 12.4222 68.2489 11.1585C68.2489 9.62554 67.7069 8.36188 66.6229 7.28466C65.5598 6.22816 64.2465 5.66884 62.7039 5.66884H56.3877V21.3507H58.4931V16.6482H61.5157ZM65.1429 8.73477C65.8099 9.39767 66.1435 10.2056 66.1435 11.1378C66.1435 12.07 65.8099 12.8779 65.1429 13.5408C64.4967 14.2037 63.6628 14.5352 62.7248 14.5352H58.514V7.76113H62.7248C63.6628 7.76113 64.4758 8.09258 65.1429 8.73477Z" fill="#333333"/>
<path d="M86.9682 19.0513C88.5108 17.5183 89.2821 15.6539 89.2821 13.5202C89.2821 11.3864 88.5108 9.50131 86.9682 7.98906C85.4256 6.45609 83.5495 5.68961 81.4024 5.68961H75.6282V21.3714H81.4024C83.5704 21.3507 85.4256 20.5635 86.9682 19.0513ZM81.4024 19.2584H77.7127V7.76118H81.4024C83.0075 7.76118 84.3625 8.32051 85.509 9.43916C86.6139 10.5578 87.1975 11.9251 87.1975 13.5202C87.1975 15.1153 86.6347 16.4618 85.509 17.5804C84.3625 18.6784 82.9867 19.2584 81.4024 19.2584Z" fill="#333333"/>
<path d="M96.1403 19.2583C95.2856 19.2583 94.5143 18.9476 93.9098 18.3469C93.5762 18.0154 93.3261 17.6218 93.1593 17.1661H101.31C101.664 15.3431 101.185 13.7687 99.8508 12.4222C98.8294 11.4071 97.5786 10.8892 96.1194 10.8892C94.6602 10.8892 93.4303 11.3864 92.388 12.4222C91.3666 13.4579 90.8455 14.6802 90.8455 16.1303C90.8455 17.5804 91.3458 18.8026 92.388 19.8384C93.4095 20.8535 94.6602 21.3714 96.1194 21.3714C97.5786 21.3714 98.8085 20.8742 99.8508 19.8384L98.3499 18.3469C97.7662 18.9476 97.0158 19.2583 96.1403 19.2583ZM96.1403 12.9815C96.9949 12.9815 97.7662 13.2922 98.3708 13.893C98.7251 14.2451 98.9753 14.618 99.1212 15.0738H93.1385C93.3053 14.6387 93.5554 14.2659 93.8889 13.893C94.5352 13.2922 95.2856 12.9815 96.1403 12.9815Z" fill="#333333"/>
<path d="M105.167 16.5654L106.918 17.4976C107.189 17.6219 107.355 17.829 107.418 18.0984C107.48 18.3677 107.439 18.637 107.293 18.9063C107.126 19.217 106.855 19.4034 106.459 19.4242C106.063 19.4449 105.771 19.2999 105.563 19.0306L103.812 20.1699C104.52 21.0814 105.458 21.5372 106.584 21.475C107.731 21.4336 108.606 20.9157 109.148 19.9006C109.586 19.1341 109.669 18.3262 109.44 17.4976C109.211 16.6897 108.71 16.0475 107.918 15.6332L106.167 14.701C105.896 14.5767 105.729 14.3695 105.667 14.1002C105.604 13.8309 105.646 13.5616 105.792 13.2923C105.959 12.9816 106.23 12.7951 106.626 12.7744C107.022 12.7537 107.314 12.8987 107.522 13.168L109.273 12.0286C108.564 11.1171 107.626 10.6614 106.501 10.7443C105.354 10.7857 104.479 11.3036 103.937 12.3187C103.499 13.0851 103.416 13.8931 103.645 14.7217C103.895 15.5089 104.395 16.1304 105.167 16.5654Z" fill="#333333"/>
<path d="M112.15 10.8892V21.3507H114.255V10.8892H112.15ZM112.317 6.04172C112.066 6.29031 111.941 6.58033 111.941 6.9325C111.941 7.28466 112.066 7.57469 112.317 7.80256C112.546 8.05115 112.838 8.17544 113.192 8.17544C113.547 8.17544 113.838 8.05115 114.089 7.80256C114.339 7.57469 114.464 7.28466 114.464 6.9325C114.464 6.58033 114.339 6.26959 114.089 6.04172C113.859 5.79313 113.547 5.66884 113.192 5.66884C112.838 5.66884 112.546 5.79313 112.317 6.04172Z" fill="#333333"/>
<path d="M125.116 21.3506C125.116 22.2 124.803 22.9665 124.198 23.5672C123.594 24.168 122.823 24.4787 121.968 24.4787C121.113 24.4787 120.342 24.168 119.737 23.5672L118.236 25.0588C119.279 26.0738 120.509 26.5917 121.968 26.5917C123.427 26.5917 124.657 26.0945 125.699 25.0588C126.721 24.023 127.242 22.78 127.242 21.3506V10.8892H126.2L125.157 11.925C124.24 11.2414 123.177 10.8892 122.01 10.8892C120.55 10.8892 119.32 11.3864 118.278 12.4222C117.257 13.4579 116.736 14.6802 116.736 16.1303C116.736 17.5804 117.236 18.8026 118.278 19.8384C119.32 20.8535 120.55 21.3714 122.01 21.3714C123.156 21.3714 124.219 21.0192 125.157 20.3356V21.3506H125.116ZM119.737 18.3261C119.133 17.7254 118.82 16.9589 118.82 16.1096C118.82 15.2602 119.133 14.4937 119.737 13.893C120.342 13.2922 121.113 12.9815 121.968 12.9815C122.823 12.9815 123.594 13.2922 124.198 13.893C124.803 14.4937 125.116 15.2602 125.116 16.1096C125.116 16.9589 124.803 17.7254 124.198 18.3261C123.594 18.9269 122.823 19.2376 121.968 19.2376C121.113 19.2376 120.342 18.9476 119.737 18.3261Z" fill="#333333"/>
<path d="M132.558 13.8517C133.162 13.2717 133.892 12.9817 134.747 12.9817C135.601 12.9817 136.373 13.2924 136.977 13.8932C137.582 14.4939 137.894 15.2604 137.894 16.1098V21.3301H140V16.1098C140 14.6596 139.5 13.4374 138.457 12.4016C137.415 11.3866 136.185 10.8687 134.726 10.8687C133.579 10.8687 132.516 11.2208 131.578 11.9045L130.536 10.8687H129.494V21.3301H131.599V15.9855C131.62 15.1568 131.953 14.4525 132.558 13.8517Z" fill="#333333"/>
<path d="M34.1661 0.0342444C33.7283 0.0963917 33.5616 0.117107 33.2489 0.19997C32.2691 0.407128 30.5806 0.925022 29.4341 1.31862C23.9725 3.28662 20.1161 7.65764 16.4056 11.8837C12.0905 16.7726 7.33768 19.7971 0.896365 21.3093C0.708754 21.3508 0 21.4958 0 21.4958C0 21.4958 0.667062 21.5993 2.1888 21.5993C9.73494 21.5993 17.698 20.7086 23.7016 14.2452C27.0577 10.6821 28.371 5.68964 31.7897 2.29226C32.6652 1.4222 33.3948 0.862874 34.2495 0.282833C34.4371 0.158539 34.6455 0.0135287 34.6455 0.0135287C34.6455 0.0135287 34.5622 -0.0279028 34.1661 0.0342444Z" fill="#333333"/>
</svg>
