<svg width="252" height="136" viewBox="0 0 252 136" fill="none" xmlns="http://www.w3.org/2000/svg">
<path d="M177.75 128.35C177.75 127.94 177.41 127.6 177 127.6C176.59 127.6 176.25 127.94 176.25 128.35C176.25 128.76 176.59 129.1 177 129.1C177.41 129.1 177.75 128.76 177.75 128.35ZM173.7 127.61L173.41 127.9L176.71 131.2L173.4 134.51L173.69 134.8L177 131.49L180.3 134.79L180.59 134.5L177.29 131.2L180.59 127.9L180.3 127.61L177 130.91L173.7 127.61ZM174.15 130.45C173.74 130.45 173.4 130.79 173.4 131.2C173.4 131.61 173.74 131.95 174.15 131.95C174.56 131.95 174.9 131.61 174.9 131.2C174.9 130.79 174.56 130.45 174.15 130.45ZM179.85 131.95C180.26 131.95 180.6 131.61 180.6 131.2C180.6 130.79 180.26 130.45 179.85 130.45C179.44 130.45 179.1 130.79 179.1 131.2C179.1 131.61 179.44 131.95 179.85 131.95ZM176.25 134.05C176.25 134.46 176.59 134.8 177 134.8C177.41 134.8 177.75 134.46 177.75 134.05C177.75 133.64 177.41 133.3 177 133.3C176.59 133.3 176.25 133.64 176.25 134.05Z" fill="#747474"/>
<path d="M188.747 126.78C188.597 127.13 188.317 127.66 188.117 127.99L188.597 128.17C188.817 127.87 189.087 127.42 189.297 126.99L188.747 126.78ZM186.437 127.97C186.337 127.65 186.067 127.18 185.817 126.84L185.307 127.03C185.547 127.39 185.807 127.88 185.897 128.19L186.437 127.97ZM191.327 131.98H190.597V132.78H187.897V131.99H187.177V132.78H184.777V133.44H187.117C186.967 134.07 186.487 134.71 185.017 135.17C185.177 135.31 185.387 135.58 185.477 135.75C187.237 135.17 187.737 134.3 187.857 133.44H190.597V135.75H191.327V133.44H193.697V132.78H191.327V131.98ZM186.337 129.29C186.247 129.82 186.097 130.37 185.867 130.79C185.987 130.83 186.187 130.93 186.267 130.99C186.487 130.57 186.667 129.96 186.777 129.39L186.337 129.29ZM188.547 130.48C188.487 130.17 188.317 129.66 188.147 129.29L187.757 129.39C187.927 129.78 188.097 130.29 188.157 130.61L188.547 130.48ZM190.717 128.31H192.547C192.347 128.96 192.047 129.5 191.637 129.95C191.217 129.5 190.897 128.97 190.687 128.38L190.717 128.31ZM193.747 128.31V127.7H190.987C191.117 127.41 191.217 127.1 191.317 126.8L190.707 126.63C190.417 127.61 189.947 128.58 189.387 129.24V128.28H187.577V126.63H186.947V128.28H185.157V131.81H185.727V128.82H186.997V131.65H187.527V128.82H188.797V131.05C188.797 131.14 188.777 131.17 188.687 131.17C188.587 131.18 188.327 131.18 187.997 131.17C188.067 131.33 188.157 131.56 188.167 131.72C188.617 131.72 188.937 131.72 189.137 131.62C189.347 131.52 189.387 131.36 189.387 131.06V129.31C189.517 129.46 189.707 129.71 189.787 129.82C189.977 129.58 190.157 129.32 190.337 129.03C190.577 129.52 190.867 129.98 191.207 130.37C190.757 130.74 190.207 131.03 189.577 131.26C189.687 131.39 189.867 131.68 189.927 131.82C190.597 131.55 191.177 131.23 191.657 130.82C192.167 131.26 192.757 131.6 193.447 131.83C193.537 131.66 193.717 131.42 193.857 131.29C193.187 131.1 192.597 130.79 192.107 130.39C192.607 129.84 192.987 129.15 193.227 128.31H193.747Z" fill="#747474"/>
<path d="M198.847 132.29C198.597 132.07 197.717 131.3 197.257 130.93C197.777 130.26 198.237 129.52 198.547 128.75L198.127 128.47L197.997 128.5H197.127V126.64H196.397V128.5H194.827V129.18H197.607C196.917 130.51 195.667 131.77 194.477 132.46C194.597 132.6 194.787 132.94 194.867 133.13C195.377 132.8 195.897 132.38 196.397 131.89V135.76H197.127V131.62C197.577 132.04 198.127 132.6 198.387 132.89L198.847 132.29ZM201.567 134.75V130.6H203.697V129.88H201.567V126.71H200.827V129.88H198.687V130.6H200.827V134.75H198.297V135.48H203.897V134.75H201.567Z" fill="#747474"/>
<path d="M206.947 133.6C206.517 133.6 205.937 133.05 205.937 131.8C205.937 130.47 207.097 128.84 208.997 128.6C208.887 129.51 208.697 130.45 208.447 131.27C207.937 132.94 207.387 133.6 206.947 133.6ZM209.557 135.26C211.917 134.95 213.287 133.56 213.287 131.48C213.287 129.48 211.807 127.84 209.487 127.84C207.067 127.84 205.147 129.72 205.147 131.87C205.147 133.5 206.037 134.52 206.917 134.52C207.837 134.52 208.627 133.47 209.237 131.44C209.507 130.51 209.697 129.51 209.827 128.59C211.507 128.73 212.457 129.96 212.457 131.46C212.457 133.17 211.217 134.11 209.947 134.39C209.707 134.44 209.407 134.49 209.097 134.51L209.557 135.26Z" fill="#747474"/>
<path d="M223.637 133.17V132.51H219.397C219.487 132.2 219.537 131.88 219.557 131.57H222.527V130.95H219.577V130.06H222.667V129.53H223.417V127.61H219.597V126.64H218.857V127.61H215.047V129.53H215.767V128.28H222.667V129.43H219.577V128.6H218.837V129.43H215.887V130.06H218.837V130.95H216.047V131.57H218.817C218.797 131.88 218.747 132.2 218.627 132.51H214.897V133.17H218.287C217.767 133.92 216.747 134.62 214.797 135.16C214.957 135.32 215.167 135.6 215.247 135.76C217.527 135.08 218.617 134.16 219.137 133.17H219.227C219.987 134.6 221.347 135.44 223.297 135.78C223.397 135.59 223.587 135.29 223.747 135.14C222.007 134.89 220.727 134.24 220.017 133.17H223.637Z" fill="#747474"/>
<path d="M233.797 129.23H231.277V128.69H233.297V128.21H231.277V127.69H233.547V127.19H231.277V126.64H230.537V127.19H228.377V127.69H230.537V128.21H228.637V128.69H230.537V129.23H228.107V129.74H233.797V129.23ZM229.457 133H232.527V133.67H229.457V133ZM229.457 131.87H232.527V132.52H229.457V131.87ZM229.457 130.75H232.527V131.38H229.457V130.75ZM233.227 134.17V130.25H228.777V134.17H233.227ZM225.157 132.3C225.047 133.17 224.857 134.07 224.547 134.68C224.687 134.73 224.987 134.86 225.097 134.95C225.417 134.31 225.647 133.35 225.787 132.41L225.157 132.3ZM227.687 131.5C227.777 131.72 227.847 131.94 227.887 132.12L228.477 131.85C228.327 131.3 227.927 130.45 227.517 129.8L226.977 130.02C227.127 130.28 227.287 130.58 227.427 130.88L225.957 130.95C226.637 130.1 227.387 128.97 227.957 128.06L227.337 127.77C227.057 128.31 226.677 128.96 226.267 129.58C226.117 129.38 225.937 129.16 225.727 128.94C226.107 128.38 226.537 127.57 226.877 126.88L226.227 126.64C226.017 127.19 225.667 127.95 225.337 128.52C225.237 128.42 225.137 128.33 225.037 128.24L224.637 128.71C225.087 129.14 225.587 129.71 225.877 130.16C225.667 130.46 225.457 130.74 225.257 130.99L224.567 131.02L224.607 131.69C225.077 131.66 225.627 131.63 226.207 131.59V135.76H226.867V131.55L227.687 131.5ZM228.307 134.06C228.237 133.57 228.017 132.83 227.767 132.26L227.227 132.42C227.467 133 227.667 133.75 227.727 134.23L228.307 134.06ZM229.897 134.22C229.427 134.63 228.487 135.08 227.667 135.32C227.817 135.44 228.037 135.66 228.147 135.8C228.967 135.55 229.927 135.07 230.517 134.59L229.897 134.22ZM231.467 134.62C232.107 135 232.827 135.47 233.227 135.77L233.877 135.41C233.407 135.09 232.637 134.63 231.967 134.25L231.467 134.62Z" fill="#747474"/>
<path d="M238.907 133.64C238.907 134.32 238.557 134.66 237.827 134.66C236.877 134.66 236.327 134.36 236.327 133.81C236.327 133.27 236.907 132.92 237.927 132.92C238.257 132.92 238.577 132.95 238.897 133.02C238.897 133.27 238.907 133.48 238.907 133.64ZM239.577 129.9C240.387 129.88 241.657 129.82 242.537 129.74L242.507 128.98C241.617 129.1 240.367 129.15 239.577 129.17C239.577 128.78 239.567 128.43 239.577 128.16C239.587 127.86 239.617 127.39 239.657 127.18H238.697C238.737 127.37 238.767 127.8 238.777 128.16C238.787 128.58 238.787 129.4 238.787 129.97C238.787 130.56 238.827 131.47 238.867 132.27C238.587 132.23 238.307 132.21 238.027 132.21C236.317 132.21 235.537 132.95 235.537 133.84C235.537 134.97 236.547 135.41 237.907 135.41C239.227 135.41 239.727 134.71 239.727 133.9C239.727 133.72 239.717 133.5 239.707 133.24C240.737 133.6 241.647 134.23 242.277 134.87L242.757 134.13C242.037 133.48 240.947 132.79 239.677 132.44C239.627 131.58 239.577 130.62 239.577 129.97V129.9Z" fill="#747474"/>
<path d="M246.571 127.11C246.561 127.35 246.531 127.65 246.491 127.96C246.371 128.76 246.191 130.22 246.191 131.16C246.191 131.8 246.241 132.36 246.291 132.73L247.071 132.67C247.001 132.18 247.001 131.84 247.051 131.46C247.171 130.16 248.311 128.37 249.541 128.37C250.591 128.37 251.111 129.49 251.111 131.05C251.111 133.54 249.431 134.4 247.281 134.73L247.751 135.45C250.211 135 251.941 133.79 251.941 131.04C251.941 128.96 250.991 127.64 249.671 127.64C248.421 127.64 247.381 128.87 246.991 129.89C247.051 129.2 247.241 127.87 247.451 127.14L246.571 127.11Z" fill="#747474"/>
<path d="M209.237 64.3231C209.237 63.6991 208.72 63.1816 208.096 63.1816C207.472 63.1816 206.955 63.6991 206.955 64.3231C206.955 64.947 207.472 65.4645 208.096 65.4645C208.72 65.4645 209.237 64.947 209.237 64.3231ZM203.074 63.1969L202.632 63.6382L207.655 68.6605L202.617 73.6979L203.059 74.1393L208.096 69.1018L213.118 74.1241L213.56 73.6827L208.537 68.6605L213.56 63.6382L213.118 63.1969L208.096 68.2191L203.074 63.1969ZM203.759 67.519C203.135 67.519 202.617 68.0365 202.617 68.6605C202.617 69.2844 203.135 69.8019 203.759 69.8019C204.383 69.8019 204.9 69.2844 204.9 68.6605C204.9 68.0365 204.383 67.519 203.759 67.519ZM212.433 69.8019C213.057 69.8019 213.575 69.2844 213.575 68.6605C213.575 68.0365 213.057 67.519 212.433 67.519C211.809 67.519 211.292 68.0365 211.292 68.6605C211.292 69.2844 211.809 69.8019 212.433 69.8019ZM206.955 72.9979C206.955 73.6218 207.472 74.1393 208.096 74.1393C208.72 74.1393 209.237 73.6218 209.237 72.9979C209.237 72.3739 208.72 71.8564 208.096 71.8564C207.472 71.8564 206.955 72.3739 206.955 72.9979Z" fill="#747474"/>
<path d="M10.1906 109.609C11.05 108.75 12.5233 107.368 13.7817 104.453C15.3471 106.509 17.4956 108.842 22.2838 108.842H29.374L30.2334 104.238H22.3759V99.1426H28.7601V94.9683H22.3759V91.1623H29.8344V86.8039H25.8749C26.7344 85.2385 27.7779 83.2741 28.5146 81.1563L23.8799 80.1434C23.2967 82.4454 21.6393 85.8524 21.1175 86.8039H14.457L18.3858 85.4534C17.6798 83.5197 16.4214 81.4632 15.4392 80.1434L11.2956 81.4632C12.0322 82.4761 13.3827 84.6553 14.0887 86.8039H10.1292V88.8603L6.5688 86.9574C6.1084 87.8168 3.56084 92.3594 0.245957 94.4772L1.53508 100.186C2.11825 99.7565 2.48657 99.4496 3.10044 98.9278V109.517H7.64307V106.816L10.1906 109.609ZM11.6332 93.0653C11.4184 99.3575 10.4055 102.304 7.64307 105.496V93.7713C8.04208 93.1574 8.9015 91.8683 10.1292 89.5356V91.1623H17.7719V103.071C16.36 102.151 15.4699 100.677 15.1016 100.063C15.7154 97.0248 15.8075 94.8149 15.8689 93.403L11.6332 93.0653ZM1.96479 90.1495C5.58661 87.6633 8.25693 84.0415 9.45398 81.3712L5.21829 80.082C3.37668 82.9979 2.05687 84.2256 0.18457 85.5148L1.96479 90.1495Z" fill="#383838"/>
<path d="M35.6968 88.093C36.4949 89.6584 36.9553 91.4693 37.477 93.4644H32.1671V97.8228H41.4365C38.0602 101.383 34.5919 103.102 31.6453 104.268L34.2849 108.811C37.1087 107.43 40.3008 105.404 44.291 100.923V109.517H48.8643V100.708C51.0128 103.378 54.1129 106.509 59.0238 108.811L61.6021 104.361C57.5812 102.672 54.8802 100.923 51.7802 97.8228H61.1417V93.4644H55.801C56.8753 91.193 57.6119 88.4613 57.7347 88.0009L54.4505 87.3257H60.006V83.0286H48.8643V80.4504H44.291V83.0286H33.3334V87.3257H38.8276L35.6968 88.093ZM42.0811 92.7277C41.682 90.6713 40.7919 88.3386 40.3008 87.3257H44.291V93.4644H38.7048L42.0811 92.7277ZM55.1257 93.4644H48.8643V87.3257H53.0386C52.8544 88.0009 51.995 90.9168 51.2584 92.5129L55.1257 93.4644Z" fill="#383838"/>
<path d="M78.2993 108.351C79.926 108.166 84.5914 107.675 87.5994 105.036C90.7608 102.212 91.7737 98.5901 91.7737 95.0911C91.7737 86.3435 85.8498 82.4761 78.7904 82.4761C68.6615 82.4761 63.9041 89.996 63.9041 96.7792C63.9041 101.598 66.4823 105.803 70.6259 105.803C78.8517 105.803 80.0181 89.7505 80.1716 87.0801C83.6706 87.3564 86.6479 89.5356 86.6479 94.6614C86.6479 102.918 79.8032 103.47 76.4884 103.716L78.2993 108.351ZM75.5062 87.295C74.923 94.6307 73.1735 100.647 70.8408 100.647C69.0913 100.647 68.7536 97.8842 68.7536 96.7179C68.7536 95.9505 68.7536 89.2594 75.5062 87.295Z" fill="#383838"/>
<path d="M213.259 81.8316C212.952 84.5326 212.184 91.101 212.184 97.9763C212.184 103.747 212.737 106.847 213.013 108.32L218.108 107.952C217.402 104.33 217.187 100.555 217.187 96.8713C217.187 89.2901 218.108 84.0415 218.415 82.1692L213.259 81.8316ZM221.423 83.8266V88.6455H237.199V83.8266H221.423ZM222.497 94.2931C220.502 97.301 220.502 99.6337 220.502 100.432C220.502 106.632 227.163 106.877 232.196 106.877C235.204 106.877 236.893 106.693 237.783 106.601L237.691 101.629C235.542 101.905 232.657 101.997 230.478 101.997C227.5 101.997 225.168 101.629 225.168 99.5416C225.168 98.6515 225.444 97.4852 226.58 96.0733L222.497 94.2931Z" fill="#383838"/>
<path d="M127.715 79.1449V63.389H119.632V79.1449H101.165V86.4602H119.632V91.8827H99.5283V99.3002H119.632V111.987H127.715V99.3002H147.819V91.8827H127.715V86.4602H146.182V79.1449H138.509C139.43 77.866 142.653 73.3132 145.057 67.4303L137.332 64.2075C136.053 67.4303 133.496 72.3924 131.296 75.5129L137.332 79.1449H127.715ZM103.007 67.6349C106.179 71.9831 108.071 76.5871 108.941 78.6334L116.359 75.4617C114.517 70.0392 111.499 65.9979 110.271 64.3609L103.007 67.6349Z" fill="#FE0000"/>
<path d="M159.278 87.8925H167.054C166.389 95.3613 162.603 100.63 151.4 104.825L155.902 112.089C167.258 107.178 173.653 100.119 174.983 87.8925H184.447C184.293 91.4734 183.935 100.375 182.81 102.779C182.298 103.853 181.429 104.262 180.15 104.262H172.732L174.267 111.987H183.424C187.465 111.987 188.897 110.299 189.972 107.894C191.864 103.495 192.427 88.7622 192.427 84.772C194.064 86.2555 194.934 86.9206 195.906 87.5856L201.021 80.9354C193.348 75.7175 189.358 68.9649 186.8 63.082L179.178 64.9236C181.429 70.5508 184.447 75.8709 188.335 80.475H163.422C169.356 73.8759 171.709 67.2256 172.63 64.6679L165.008 63.1332C162.91 68.9649 159.329 74.9501 150.633 80.6796L155.646 87.6879C157.334 86.3579 158.204 85.6417 159.278 84.6186V87.8925Z" fill="#FE0000"/>
<path d="M1.75488 13.724V35H17.9549V30.95H6.20988V13.724H1.75488Z" fill="#383838"/>
<path d="M21.9123 13.724V35H26.3403V27.953H34.5483C39.9213 27.953 41.3253 25.604 41.3253 20.798C41.3253 15.587 39.4083 13.724 34.7373 13.724H21.9123ZM33.9543 17.774C35.7093 17.774 36.8703 17.936 36.8703 20.825C36.8703 23.471 35.8983 23.903 33.9543 23.903H26.3403V17.774H33.9543Z" fill="#383838"/>
<path d="M44.4959 19.529V23.174H50.5709V24.632H45.3599V36.134H48.9509V28.223H50.5709V37.538H54.1079V28.223H55.9169V31.22C55.9169 31.814 55.7009 31.868 55.4579 31.868H54.4859L55.4579 35.864H57.4019C58.9679 35.864 59.1299 34.622 59.1299 33.569V24.632H54.3509V23.174H59.9129V19.529H54.3509V17.909H59.3189V14.291H54.3509V12.023H50.5709V14.291H49.1669C49.2749 13.67 49.3289 13.238 49.4369 12.455L45.8729 12.158C45.6029 15.371 44.7929 17.288 44.4149 18.152L47.6549 19.529H44.4959ZM47.8169 19.529C48.0059 19.124 48.1409 18.881 48.4379 17.909H50.5709V19.529H47.8169ZM60.5609 31.085H64.0439V13.373H60.5609V31.085ZM65.2589 32.489C65.2589 33.218 65.0699 33.38 64.4219 33.38H61.2359L62.0459 37.538H66.8519C67.5269 37.538 69.1199 36.917 69.1199 34.784V12.023H65.2589V32.489Z" fill="#383838"/>
<path d="M75.6269 37.565H79.8389V18.989C81.1079 16.1 81.6749 13.643 81.9719 12.32L77.9219 11.942C76.4099 18.53 73.8179 20.933 72.5759 22.094L73.8179 27.035C74.4119 26.522 74.8709 26.144 75.6269 25.361V37.565ZM84.8609 11.915C84.1589 15.533 82.3229 18.827 80.1629 20.906L82.0529 25.064C82.9169 24.281 84.5639 22.796 86.3729 19.394V37.565H90.5849V32.3H98.0099V28.331H90.5849V25.712H98.0099V21.824H90.5849V19.259H98.5769V15.263H88.1279C88.5329 14.021 88.7489 13.022 88.9109 12.266L84.8609 11.915Z" fill="#383838"/>
<path d="M116.559 37.565C118.017 35.648 119.151 32.489 119.475 29.357H122.58V32.678C122.58 33.137 122.58 33.65 121.797 33.65H119.502L120.177 37.457H123.822C125.037 37.457 126.414 37.349 126.414 35V12.536H116.208V23.093C116.208 23.498 116.208 25.388 115.965 27.305H114.318V17.261H115.776V13.778H114.318V11.996H110.565V13.778H107.082V11.996H103.302V13.778H101.952V17.261H103.302V27.305H101.628V30.761H104.895C104.328 31.652 102.897 33.785 101.331 34.946L104.031 37.592C105.894 36.188 107.622 33.407 108.054 32.3L105.219 30.761H111.429L108.918 32.462C109.863 33.515 111.105 35.216 111.78 36.377L113.562 34.892L116.559 37.565ZM110.565 21.527V22.958H107.082V21.527H110.565ZM110.565 17.261V18.584H107.082V17.261H110.565ZM110.565 25.712V27.305H107.082V25.712H110.565ZM122.58 16.478V19.421H119.745V16.478H122.58ZM122.58 22.904V25.766H119.664L119.745 22.904H122.58ZM115.29 30.761C115.101 31.382 114.858 32.219 114.102 33.542C113.697 32.948 112.617 31.571 111.753 30.761H115.29Z" fill="#383838"/>
<path d="M149.121 24.47H136.998V35.054H147.096L147.528 37.538H152.712C152.874 37.538 155.115 37.511 155.115 34.649V12.806H143.802V23.255H151.254V32.759C151.254 33.245 151.254 33.65 150.444 33.65H149.121V24.47ZM151.254 15.587V16.829H147.528V15.587H151.254ZM151.254 19.178V20.447H147.528V19.178H151.254ZM145.449 27.251V28.52H140.643V27.251H145.449ZM145.449 30.734V32.084H140.643V30.734H145.449ZM131.085 37.538H134.892V23.255H142.155V12.806H131.085V37.538ZM138.429 15.587V16.829H134.892V15.587H138.429ZM138.429 19.178V20.447H134.892V19.178H138.429Z" fill="#383838"/>
<path d="M164.862 12.455C164.781 13.724 164.646 15.317 164.403 17.288H159.948V21.392L163.809 21.338C162.081 29.762 160.65 32.408 159.462 34.217L163.458 36.35C165.834 31.652 167.13 26.495 168.048 21.311L170.208 21.284C172.773 21.257 172.827 22.607 172.827 24.767C172.827 26.711 172.476 30.41 171.72 31.517C171.45 31.922 170.991 32.435 169.641 32.435C168.426 32.435 167.481 32.246 166.482 32.057L166.644 36.161C167.589 36.323 168.777 36.539 170.559 36.539C171.936 36.539 173.745 36.431 175.122 34.622C176.85 32.327 177.039 26.468 177.039 24.929C177.039 21.284 176.418 17.288 171.045 17.288H168.723C169.047 14.966 169.182 13.805 169.317 12.752L164.862 12.455ZM184.194 28.547C183.87 23.12 182.844 19.853 181.494 17.558L177.552 18.773C178.092 19.772 179.469 22.256 179.604 29.006L184.194 28.547ZM184.545 16.073C183.627 13.184 183.06 12.374 182.763 11.915L180.414 12.563C181.413 14.21 182.115 16.478 182.196 16.775L184.545 16.073ZM180.63 16.64C180.36 15.587 179.712 13.697 178.929 12.455L176.553 13.103C177.363 14.507 177.957 16.478 178.2 17.45L180.63 16.64Z" fill="#383838"/>
<path fill-rule="evenodd" clip-rule="evenodd" d="M244.267 1.73337H192.733V55.8051H244.267V1.73337ZM191 0V57.5385H246V0H191Z" fill="#383838"/>
<path d="M203.235 8.07995H208.516C208.474 8.35237 208.474 8.35237 208.348 8.79244H204.157V15.6868H216.5V8.79244H211.387C211.45 8.66671 211.617 8.16377 211.638 8.07995H217.275V6.13107H214.928C215.159 5.71196 215.222 5.58623 215.348 5.14616L212.12 4.97852C212.057 5.39763 211.995 5.60718 211.785 6.13107H209.019C208.872 5.64909 208.726 5.22998 208.579 4.97852L205.498 5.08329C205.645 5.35572 205.813 5.73292 206.001 6.13107H203.235V8.07995ZM213.503 11.8101V12.4806H207.07V11.8101H213.503ZM213.503 10.0917V10.7623H207.07V10.0917H213.503ZM213.503 13.5284V14.199H207.07V13.5284H213.503ZM197.745 7.82848C199.191 8.28951 200.427 8.8134 201.894 9.65162L203.068 6.7807C201.894 6.11012 200.72 5.58623 198.939 5.08329L197.745 7.82848ZM197.661 19.1236V21.3658H201.915L200.113 22.246C201.098 22.8956 201.496 23.3357 202.963 24.9073L205.876 23.4195C205.247 22.686 204.534 21.9526 203.822 21.3658H211.198V22.1202C211.198 22.3507 211.198 22.5603 210.8 22.5603H207.741L208.265 24.9283H212.414C214.006 24.9283 214.405 24.0062 214.405 23.3566V21.3658H217.275V19.1236H214.405V18.3482H217.213L217.716 16.3155H205.121C203.99 16.3155 203.109 16.106 202.69 15.4144V10.1755H197.661V12.9207H199.61V14.7229C198.394 15.4773 198.311 15.5192 197.2 16.0431L198.29 19.1236H197.661ZM198.499 19.1236C198.876 18.8931 199.819 18.1596 201.119 16.9651C201.538 17.4262 202.418 18.3482 204.681 18.3482H211.198V19.1236H198.499Z" fill="#383838"/>
<path d="M223.583 8.93913H229.032C228.843 13.9685 226.307 19.0607 220.272 21.9735L222.305 24.9702C225.197 23.3566 228.969 20.5486 230.519 15.121C230.959 16.8184 232.112 21.3449 238.65 24.9702L240.788 21.8478C233.181 18.2225 232.259 12.2711 232.301 5.75387H223.583V8.93913Z" fill="#383838"/>
<path d="M208.537 50.0331C210.821 47.5184 212.728 44.2283 212.875 36.9148H214.006C213.985 38.3398 213.86 44.8151 213.399 46.2191C213.231 46.7221 212.875 46.7221 212.644 46.7221H210.926L211.471 49.9492H213.944C216.144 49.9492 216.395 47.9375 216.626 44.6055C216.731 43.2644 216.773 41.9023 216.793 40.5611C216.793 40.142 216.877 35.867 216.919 33.7505H212.896V30.1042H209.962V33.7505H208.432V31.9064H204.744V30.1042H201.726V31.9064H197.577V34.8193H208.411V36.9148H209.962C209.836 42.5519 208.872 45.1504 205.959 47.7908L208.537 50.0331ZM204.283 38.8847C203.927 40.1001 203.675 40.6868 203.424 41.2107C202.271 40.2887 201.831 39.9953 201.391 39.7019L199.296 41.9023C199.861 42.3004 200.616 42.8453 201.726 43.8092C200.008 45.7581 198.038 46.6382 197.074 47.0574L198.709 50.0959C201.643 48.4404 203.109 46.9107 203.948 45.9258C204.513 46.5125 205.037 47.1202 205.477 47.7279L207.573 45.1713C207.175 44.6055 206.588 44.0607 205.771 43.2644C206.567 41.6927 206.84 40.8545 206.965 40.4354L209.166 38.8008C208.558 37.774 207.007 35.5946 206.19 34.9031L203.822 36.349C204.828 37.4387 205.373 38.1303 206.127 39.4086L204.283 38.8847ZM200.218 34.8821C199.631 36.0976 198.29 37.7321 197.095 38.5075L198.897 41.064C200.28 39.8486 201.831 38.0674 202.774 36.2862L200.218 34.8821Z" fill="#383838"/>
<path d="M240.683 46.6173C238.231 45.8838 236.492 45.2133 234.627 43.6416H240.41V40.7916H232.007V39.8696H238.965V30.6281H222.116V39.8696H228.969V40.7916H220.628V43.6416H226.307C225.867 43.9978 223.96 45.5066 220.335 46.5544L221.949 49.6978C223.206 49.111 226.286 47.7279 228.969 44.8151V49.9492H232.007V44.8361C234.291 47.5393 237.204 48.9434 238.965 49.7397L240.683 46.6173ZM228.969 33.1638V34.2535H225.113V33.1638H228.969ZM228.969 36.3071V37.4806H225.113V36.3071H228.969ZM235.947 33.1638V34.2535H232.007V33.1638H235.947ZM235.947 36.3071V37.4806H232.007V36.3071H235.947Z" fill="#383838"/>
<path fill-rule="evenodd" clip-rule="evenodd" d="M252 121L1.74846e-07 121L0 119L252 119L252 121Z" fill="black"/>
</svg>
