<svg width="301" height="83" viewBox="0 0 301 83" fill="none" xmlns="http://www.w3.org/2000/svg">
<path d="M44.2279 4.86399H39.9559V4.38399H44.2279V4.86399ZM44.2279 6.15999H39.9559V5.66399H44.2279V6.15999ZM44.2279 7.47199H39.9559V6.95998H44.2279V7.47199ZM38.1959 3.53598V8.31999H46.0679V3.53598H42.5959L42.8039 3.03998H47.3639V1.75998H45.0119C45.2359 1.45599 45.4759 1.08799 45.7159 0.687985L43.9399 0.415985C43.7799 0.799985 43.5079 1.32798 43.2519 1.75998H41.0599C40.8999 1.34399 40.5959 0.815985 40.3239 0.431985L38.7719 0.719985C38.9639 1.02398 39.1719 1.40798 39.3159 1.75998H36.9319V3.03998H41.0599C41.0279 3.21599 40.9799 3.37599 40.9479 3.53598H38.1959ZM36.7239 2.59198C36.2759 1.98398 35.2999 1.16798 34.4999 0.623985L33.2679 1.66399C34.0679 2.25599 35.0119 3.13599 35.4279 3.72799L36.7239 2.59198ZM43.9559 10.192C45.1559 10.176 46.3079 10.144 47.1559 10.112C47.2359 9.69599 47.4599 9.00799 47.6199 8.65599C45.4119 8.81599 41.2359 8.86399 39.2999 8.78399C37.9399 8.73599 36.9799 8.38399 36.4519 7.50399V4.39999H32.8839V5.83998H34.7239V7.77598C34.0519 8.15999 33.3479 8.51198 32.7559 8.79998L33.3959 10.304C34.2919 9.75999 35.0759 9.26399 35.8439 8.73599C36.6119 9.74399 37.6999 10.096 39.3159 10.16C40.0519 10.176 41.0439 10.192 42.1159 10.192V10.864H32.8359V12.304H36.3719L35.5239 13.008C36.2759 13.536 37.2359 14.352 37.6519 14.88L39.0279 13.712C38.6599 13.296 38.0039 12.752 37.3639 12.304H42.1159V13.536C42.1159 13.712 42.0359 13.776 41.7799 13.776C41.5399 13.792 40.6599 13.792 39.8759 13.744C40.1159 14.224 40.3879 14.88 40.4679 15.392C41.6519 15.392 42.4999 15.376 43.1399 15.136C43.7799 14.88 43.9559 14.432 43.9559 13.584V12.304H47.3799V10.864H43.9559V10.192Z" fill="#2F2F2F"/>
<path d="M53.3959 1.34399V3.27999H57.0439C57.0919 3.82399 57.1559 4.39999 57.2679 5.00799L56.2919 4.83199C55.4119 9.03999 53.5079 12.128 50.1799 13.808C50.6759 14.176 51.5719 14.96 51.9239 15.36C54.7079 13.696 56.6279 11.04 57.8279 7.45599C58.7079 10.32 60.4039 13.344 63.7159 15.344C64.0519 14.848 64.8359 14.016 65.2519 13.68C59.3639 10.208 58.9319 4.36798 58.9319 1.34399H53.3959Z" fill="#2F2F2F"/>
<path d="M70.3559 4.78399V3.51999H80.1479V4.78399H76.1639V3.87199H74.2599V4.78399H70.3559ZM82.3399 11.472V9.82399H76.0199C76.0999 9.48799 76.1319 9.15199 76.1479 8.81599H80.5159V7.27999H76.1639V6.31999H80.8359V5.26399H82.1159V1.85598H76.2599V0.463985H74.3079V1.85598H68.4679V5.26399H69.8919V6.31999H74.2599V7.27999H70.1479V8.81599H74.2439C74.2119 9.15199 74.1639 9.48799 74.0839 9.82399H68.3399V11.472H73.1559C72.2759 12.416 70.7399 13.248 68.0519 13.856C68.4679 14.256 69.0119 14.976 69.2359 15.392C72.4999 14.512 74.2759 13.248 75.2199 11.824C76.4839 13.808 78.3879 14.944 81.4279 15.424C81.6679 14.912 82.1639 14.16 82.5479 13.76C80.0199 13.488 78.2279 12.752 77.0919 11.472H82.3399Z" fill="#2F2F2F"/>
<path d="M94.7399 2.87998H91.9079V3.98398H94.7399V4.52799H91.1239V5.71199H100.276V4.52799H96.6439V3.98398H99.5879V2.87998H96.6439V2.33599H99.9719V1.18398H96.6439V0.463985H94.7399V1.18398H91.5239V2.33599H94.7399V2.87998ZM85.9719 9.80799C85.8439 11.152 85.6199 12.576 85.1559 13.52C85.5399 13.664 86.2279 13.968 86.5479 14.192C86.9959 13.168 87.3479 11.584 87.4919 10.064L85.9719 9.80799ZM90.2279 8.70399C90.3239 9.02399 90.4039 9.31199 90.4519 9.56799L91.8759 8.92799C91.6999 8.03198 91.0919 6.63999 90.4999 5.56799L89.1399 6.11199C89.3159 6.44799 89.4919 6.79998 89.6519 7.16798L88.1639 7.26399C89.1719 5.98399 90.2599 4.39999 91.1399 3.05599L89.5879 2.33599C89.2199 3.11999 88.7079 4.03199 88.1479 4.92799C88.0039 4.73598 87.8279 4.51198 87.6359 4.30399C88.2279 3.40798 88.8839 2.14398 89.4439 1.03998L87.7959 0.463985C87.5399 1.27999 87.0919 2.35198 86.6439 3.23199C86.5159 3.11999 86.3879 3.00799 86.2759 2.89599L85.3479 4.17599C85.9879 4.83199 86.7239 5.69598 87.1719 6.41599C86.9319 6.75199 86.6919 7.07199 86.4519 7.35999L85.2999 7.42399L85.4279 9.07199L87.7159 8.91199V15.392H89.3479V8.78399L90.2279 8.70399ZM89.5239 10.08C89.8919 10.992 90.1959 12.176 90.2599 12.96L91.6679 12.496C91.5719 11.728 91.2359 10.576 90.8519 9.67999L89.5239 10.08ZM93.8119 10.96H97.6999V11.632H93.8119V10.96ZM93.8119 9.18399H97.6999V9.87199H93.8119V9.18399ZM93.8119 7.42399H97.6999V8.09599H93.8119V7.42399ZM99.5079 12.816V6.25599H92.1159V12.816H93.5079C92.7079 13.36 91.4439 13.952 90.3559 14.272C90.7079 14.608 91.2359 15.12 91.5239 15.456C92.8039 15.04 94.3879 14.272 95.3639 13.52L94.2919 12.816H97.2039L96.2119 13.536C97.1559 14.128 98.2599 14.912 98.8519 15.408L100.516 14.512C99.8759 14.064 98.7719 13.392 97.7959 12.816H99.5079Z" fill="#2F2F2F"/>
<path fill-rule="evenodd" clip-rule="evenodd" d="M135 9H110V7H135V9Z" fill="#2F2F2F"/>
<path fill-rule="evenodd" clip-rule="evenodd" d="M25 9L1.74846e-07 9L0 7L25 7L25 9Z" fill="#2F2F2F"/>
<path d="M10.2478 31.838V30.214C10.2478 29.654 10.3038 29.206 10.3318 28.996H8.74984C8.77784 29.192 8.81984 29.654 8.81984 30.214V31.838H5.12384V30.228C5.12384 29.71 5.17984 29.29 5.20784 29.108H3.63984C3.65384 29.29 3.70984 29.738 3.70984 30.228V31.838H2.33784C1.69384 31.838 1.06384 31.768 0.881836 31.74V33.238C1.10584 33.224 1.67984 33.196 2.33784 33.196H3.70984V35.296C3.70984 35.87 3.65384 36.458 3.63984 36.654H5.17984C5.16584 36.458 5.12384 35.87 5.12384 35.296V33.196H8.81984V33.756C8.81984 37.466 7.58784 38.67 4.96984 39.636L6.15984 40.756C9.43584 39.286 10.2478 37.284 10.2478 33.672V33.196H11.5778C12.2358 33.196 12.7398 33.21 12.9638 33.238V31.754C12.6838 31.81 12.2358 31.838 11.5638 31.838H10.2478Z" fill="#2F2F2F"/>
<path d="M14.8118 35.478C15.2738 35.45 16.0998 35.422 16.8838 35.422H24.4998C25.1158 35.422 25.7458 35.464 26.0538 35.478V33.756C25.7178 33.784 25.1718 33.84 24.4858 33.84H16.8838C16.1278 33.84 15.2598 33.798 14.8118 33.756V35.478Z" fill="#2F2F2F"/>
<path d="M37.7018 30.788C37.4218 30.242 36.9178 29.374 36.5678 28.87L35.6718 29.248C36.0498 29.78 36.4978 30.62 36.7918 31.18L37.7018 30.788ZM30.3098 35.058C32.0738 34.596 34.4258 33.882 35.9238 33.28C36.3718 33.126 36.9318 32.874 37.3938 32.692L36.7778 31.278C36.3158 31.572 35.8818 31.782 35.4198 31.964C34.0618 32.538 31.9618 33.196 30.3098 33.602V30.662C30.3098 30.27 30.3378 29.766 30.3938 29.402H28.7558C28.8258 29.766 28.8538 30.34 28.8538 30.662V38.334C28.8538 39.51 29.4978 40.07 30.6318 40.28C31.2198 40.378 32.0598 40.42 32.9278 40.42C34.4678 40.42 36.5678 40.322 37.8278 40.14V38.53C36.6798 38.838 34.4818 38.992 33.0118 38.992C32.3398 38.992 31.6818 38.964 31.2618 38.894C30.6038 38.754 30.3098 38.586 30.3098 37.914V35.058ZM37.2678 28.66C37.6598 29.178 38.1078 29.976 38.4018 30.578L39.3118 30.186C39.0598 29.682 38.5278 28.8 38.1638 28.282L37.2678 28.66Z" fill="#2F2F2F"/>
<path d="M49.6998 29.906C49.4618 29.99 48.9998 30.046 48.4818 30.046H43.2878C42.8538 30.046 42.0418 29.99 41.7618 29.948V31.53C41.9858 31.516 42.7418 31.446 43.2878 31.446H48.4258C48.0898 32.538 47.1518 34.078 46.1998 35.142C44.8138 36.696 42.7138 38.376 40.4458 39.244L41.5798 40.42C43.5958 39.496 45.4718 37.998 46.9698 36.402C48.3558 37.69 49.7558 39.23 50.6658 40.49L51.9118 39.398C51.0438 38.334 49.3498 36.528 47.9078 35.296C48.8878 34.036 49.7138 32.454 50.2038 31.306C50.3018 31.068 50.5118 30.718 50.6098 30.578L49.6998 29.906Z" fill="#2F2F2F"/>
<path d="M57.8618 29.78V30.718H55.1738V29.78H57.8618ZM55.1738 32.636V31.614H57.8618V32.636H55.1738ZM59.0798 33.588V28.814H53.8858V41.106H55.1738V33.588H59.0798ZM58.7438 36.766V35.436H60.4098V36.766H58.7438ZM63.3078 37.844V36.766H61.5718V35.436H63.0278V34.4H56.2378V35.436H57.6238V36.766H55.9858V37.844H57.5818C57.4698 38.614 57.0778 39.664 56.0418 40.294C56.3078 40.476 56.6998 40.826 56.8818 41.064C58.1558 40.21 58.6038 38.782 58.7158 37.844H60.4098V40.854H61.5718V37.844H63.3078ZM61.4038 32.664V31.614H64.1758V32.664H61.4038ZM64.1758 29.78V30.718H61.4038V29.78H64.1758ZM65.4638 28.814H60.1578V33.616H64.1758V39.496C64.1758 39.706 64.1058 39.776 63.8958 39.79C63.6718 39.79 62.9578 39.79 62.2438 39.776C62.4398 40.126 62.6218 40.714 62.6638 41.064C63.7138 41.078 64.4138 41.036 64.8618 40.826C65.3238 40.602 65.4638 40.224 65.4638 39.51V28.814Z" fill="#2F2F2F"/>
<path d="M72.7018 34.218C74.3398 34.092 76.5938 33.952 78.7778 33.784C78.9318 34.134 79.0718 34.47 79.1558 34.75L80.2898 34.134C79.9398 33.098 78.9878 31.558 78.0918 30.41L77.0558 30.928C77.4478 31.446 77.8398 32.048 78.1758 32.636L74.9838 32.818C75.5298 31.558 76.1178 29.92 76.5798 28.534L75.1518 28.24C74.8438 29.64 74.2418 31.544 73.6958 32.902L72.5758 32.958L72.7018 34.218ZM71.2458 32.286C71.0778 33.924 70.7558 35.338 70.2938 36.514C69.8318 36.178 69.3418 35.87 68.8938 35.59C69.1458 34.568 69.4258 33.434 69.6918 32.286H71.2458ZM71.7918 31.04L71.5538 31.082H69.9578C70.1678 30.144 70.3638 29.22 70.5318 28.38L69.2858 28.24C69.1318 29.108 68.9358 30.088 68.7258 31.082H67.2978V32.286H68.4738C68.0958 33.966 67.6898 35.59 67.3538 36.766L68.4318 37.34L68.5858 36.78C68.9778 37.046 69.3698 37.326 69.7618 37.634C69.1318 38.754 68.3198 39.594 67.3398 40.112C67.6198 40.35 67.9558 40.826 68.1518 41.148C69.2158 40.504 70.0838 39.622 70.7698 38.446C71.3158 38.936 71.7918 39.412 72.1138 39.818L72.8978 38.768C72.5338 38.306 71.9738 37.802 71.3438 37.284C71.9878 35.716 72.3938 33.714 72.5618 31.194L71.7918 31.04ZM78.2038 36.598V39.342H74.7178V36.598H78.2038ZM73.4858 41.106H74.7178V40.518H78.2038V41.05H79.4918V35.408H73.4858V41.106Z" fill="#2F2F2F"/>
<path d="M85.2878 28.898C85.3018 29.794 85.1618 30.844 84.9658 31.866C84.1818 31.936 83.4398 31.992 82.9918 32.006C82.5298 32.02 82.1238 32.034 81.6618 32.006L81.7878 33.518C82.1798 33.448 82.8098 33.364 83.1738 33.322C83.4818 33.28 84.0418 33.224 84.6718 33.154C84.1818 35.03 83.1878 38.012 81.8158 39.86L83.2578 40.434C84.6158 38.222 85.5958 35.044 86.1138 33C86.6318 32.958 87.0938 32.93 87.3738 32.93C88.2558 32.93 88.7878 33.126 88.7878 34.316C88.7878 35.758 88.5918 37.494 88.1718 38.362C87.9198 38.894 87.5278 39.02 87.0378 39.02C86.6598 39.02 85.8898 38.894 85.3298 38.726L85.5678 40.182C86.0158 40.294 86.6878 40.392 87.2058 40.392C88.1858 40.392 88.8998 40.126 89.3478 39.188C89.9358 37.998 90.1458 35.8 90.1458 34.162C90.1458 32.23 89.1238 31.67 87.7798 31.67C87.4578 31.67 86.9678 31.698 86.3938 31.74C86.5198 31.11 86.6458 30.438 86.7298 30.018C86.7858 29.71 86.8558 29.36 86.9258 29.066L85.2878 28.898ZM90.3978 31.012C91.3778 32.202 92.4278 34.68 92.8198 36.15L94.1918 35.492C93.7438 34.19 92.5538 31.614 91.6998 30.452L90.3978 31.012Z" fill="#2F2F2F"/>
<path d="M98.2938 30.27C99.3578 30.55 102.41 31.18 103.768 31.362L104.09 30.004C102.872 29.878 99.8898 29.332 98.6438 28.94L98.2938 30.27ZM98.5178 31.572L97.0338 31.376C96.9498 32.944 96.5998 35.772 96.3338 37.074L97.6218 37.382C97.7338 37.144 97.8598 36.906 98.0838 36.64C99.0218 35.534 100.45 34.904 102.172 34.904C103.502 34.904 104.454 35.618 104.454 36.64C104.454 38.474 102.284 39.622 97.9998 39.076L98.4338 40.518C103.838 40.966 105.966 39.174 105.966 36.668C105.966 35.03 104.538 33.644 102.284 33.644C100.73 33.644 99.2738 34.12 97.9858 35.156C98.0978 34.302 98.3358 32.44 98.5178 31.572Z" fill="#2F2F2F"/>
<path d="M107.856 40H114.506V38.628H111.93C111.426 38.628 110.782 38.67 110.25 38.726C112.434 36.64 114.016 34.582 114.016 32.594C114.016 30.732 112.798 29.5 110.908 29.5C109.564 29.5 108.654 30.088 107.772 31.04L108.682 31.936C109.228 31.306 109.9 30.788 110.712 30.788C111.86 30.788 112.462 31.558 112.462 32.678C112.462 34.372 110.894 36.374 107.856 39.062V40Z" fill="#2F2F2F"/>
<path d="M119.466 36.752V34.274H122.28V36.752H119.466ZM128.538 36.752H123.624V34.274H127.53V33.056H123.624V31.124H127.852V29.864H119.746C119.928 29.444 120.124 28.982 120.292 28.548L118.976 28.198C118.332 30.06 117.212 31.838 115.924 32.944C116.246 33.14 116.806 33.56 117.058 33.784C117.772 33.084 118.472 32.16 119.074 31.124H122.28V33.056H118.164V36.752H115.91V38.012H122.28V41.106H123.624V38.012H128.538V36.752Z" fill="#2F2F2F"/>
<path d="M139.514 32.72L138.674 33.084C139.094 33.686 139.458 34.33 139.794 35.044L140.662 34.652C140.368 34.064 139.85 33.21 139.514 32.72ZM141.068 32.118L140.228 32.496C140.676 33.098 141.04 33.714 141.404 34.428L142.258 34.008C141.95 33.434 141.404 32.594 141.068 32.118ZM130.33 30.634L130.47 32.16C132.024 31.824 135.426 31.488 136.63 31.362C135.51 32.076 134.292 33.756 134.292 35.856C134.292 38.908 137.134 40.364 139.85 40.504L140.354 39.02C138.072 38.908 135.72 38.082 135.72 35.548C135.72 33.91 136.938 31.95 138.772 31.39C139.5 31.208 140.704 31.194 141.474 31.194L141.46 29.78C140.522 29.808 139.122 29.892 137.652 30.018C135.104 30.228 132.626 30.466 131.618 30.564C131.338 30.592 130.862 30.62 130.33 30.634Z" fill="#2F2F2F"/>
<path d="M69.5999 76.488C69.2639 76.168 68.0319 75.064 67.2639 74.44C68.0319 73.384 68.6719 72.232 69.1519 71.016L68.0799 70.328L67.7439 70.408H67.0239V67.464H65.1359V70.408H62.8639V72.12H66.7359C65.6799 73.976 63.9999 75.656 62.2559 76.6C62.5439 76.968 62.9919 77.896 63.1519 78.408C63.8239 77.992 64.4959 77.464 65.1359 76.872V82.392H67.0239V76.36C67.5679 76.952 68.1119 77.592 68.4479 78.04L69.5999 76.488ZM74.2079 80.072V74.216H77.2319V72.376H74.2079V67.592H72.2559V72.376H69.2159V74.216H72.2559V80.072H68.5599V81.928H77.6159V80.072H74.2079Z" fill="#2F2F2F"/>
<path d="M88.2079 73.176C87.7279 72.072 86.7199 70.504 85.6799 69.336L83.9519 70.2C84.9119 71.384 85.9359 73.064 86.3359 74.168L88.2079 73.176ZM85.2799 76.008C84.4799 76.328 83.6639 76.664 82.8639 77L82.5759 68.344L80.5919 68.424L80.9119 77.768C80.1119 78.088 79.3919 78.344 78.7839 78.552L79.4239 80.584C81.2319 79.832 83.5999 78.824 85.7119 77.88L85.2799 76.008ZM93.9679 80.792C93.2319 79.672 91.7439 78.056 90.4159 76.68C91.4559 74.504 92.0319 71.832 92.3679 68.552L90.2719 68.36C89.6799 74.936 88.0319 78.808 82.9599 80.728C83.4239 81.128 84.2079 81.992 84.4799 82.408C86.5919 81.464 88.1759 80.184 89.3439 78.52C90.5279 79.864 91.7439 81.336 92.3359 82.376L93.9679 80.792Z" fill="#2F2F2F"/>
<path d="M103.152 79.688V74.152H108.8V72.216H103.152V67.64H101.104V79.688H95.3759V81.608H109.92V79.688H103.152Z" fill="#2F2F2F"/>
<path d="M8.38281 68.4854H10.1875C11.5137 68.4854 12.6074 68.8887 13.4688 69.6953C14.3438 70.5293 14.7949 71.7051 14.8223 73.2227C14.7949 74.7129 14.3438 75.8613 13.4688 76.668C12.6074 77.5293 11.5479 77.96 10.29 77.96C9.11426 77.96 8.1709 77.6387 7.45996 76.9961C6.7627 76.3809 6.22266 75.5742 5.83984 74.5762H1.55371C2.01855 77.0645 3.03711 78.9648 4.60938 80.2773C6.18164 81.5898 7.98633 82.2461 10.0234 82.2461C12.6621 82.2188 14.8223 81.3779 16.5039 79.7236C18.2129 78.1104 19.0811 75.9023 19.1084 73.0996C19.1084 71.8418 18.8418 70.6387 18.3086 69.4902C17.748 68.3418 16.8389 67.3574 15.5811 66.5371C16.8115 65.7031 17.666 64.7529 18.1445 63.6865C18.5547 62.6201 18.7598 61.5127 18.7598 60.3643C18.7324 58.0947 17.9531 56.126 16.4219 54.458C14.8223 52.749 12.6621 51.8809 9.94141 51.8535C7.79492 51.8809 5.94922 52.6465 4.4043 54.1504C2.83203 55.668 1.93652 57.5342 1.71777 59.749H6.00391C6.27734 58.5186 6.81055 57.6094 7.60352 57.0215C8.35547 56.4336 9.18945 56.1396 10.1055 56.1396C11.377 56.167 12.416 56.5703 13.2227 57.3496C14.0293 58.1562 14.4463 59.1885 14.4736 60.4463C14.4736 61.6904 14.0703 62.7021 13.2637 63.4814C12.457 64.2881 11.3223 64.6914 9.85938 64.6914H8.38281V68.4854Z" fill="#2F2F2F"/>
<path d="M34.6131 73.3867C34.5311 76.4082 33.1297 77.9326 30.409 77.96C27.6746 77.9326 26.2801 76.4082 26.2254 73.3867V60.7129C26.2801 57.7188 27.6746 56.1943 30.409 56.1396C33.1297 56.1943 34.5311 57.7188 34.6131 60.7129V73.3867ZM21.9393 73.6328C21.9666 76.3809 22.8485 78.5 24.5848 79.9902C26.2118 81.4668 28.1532 82.2188 30.409 82.2461C32.7332 82.2188 34.7088 81.4668 36.3358 79.9902C37.9901 78.5 38.8446 76.3809 38.8993 73.6328V60.4463C38.8446 57.6846 37.9901 55.5586 36.3358 54.0684C34.7088 52.5918 32.7332 51.8535 30.409 51.8535C28.1532 51.8535 26.2118 52.5918 24.5848 54.0684C22.8485 55.5586 21.9666 57.6846 21.9393 60.4463V73.6328Z" fill="#2F2F2F"/>
<path d="M53.9528 73.3867C53.8708 76.4082 52.4694 77.9326 49.7487 77.96C47.0143 77.9326 45.6198 76.4082 45.5651 73.3867V60.7129C45.6198 57.7188 47.0143 56.1943 49.7487 56.1396C52.4694 56.1943 53.8708 57.7188 53.9528 60.7129V73.3867ZM41.279 73.6328C41.3063 76.3809 42.1882 78.5 43.9245 79.9902C45.5514 81.4668 47.4929 82.2188 49.7487 82.2461C52.0729 82.2188 54.0485 81.4668 55.6755 79.9902C57.3298 78.5 58.1843 76.3809 58.2389 73.6328V60.4463C58.1843 57.6846 57.3298 55.5586 55.6755 54.0684C54.0485 52.5918 52.0729 51.8535 49.7487 51.8535C47.4929 51.8535 45.5514 52.5918 43.9245 54.0684C42.1882 55.5586 41.3063 57.6846 41.279 60.4463V73.6328Z" fill="#2F2F2F"/>
<path fill-rule="evenodd" clip-rule="evenodd" d="M299 20H166V80H299V20ZM164 18V82H301V18H164Z" fill="#131313"/>
<path d="M259.972 38.24H252.268L252.076 36.944L249.868 37.568V33.896H251.452V36.08H259.972V38.24ZM265.42 36.08V33.44H259.972V31.4H264.388V28.808H259.972V26.672H257.14V28.808H252.892V31.4H257.14V33.44H251.86V31.184H249.868V26.696H247.252V31.184H246.124C246.268 30.224 246.388 29.264 246.484 28.304L244.108 27.92C243.892 30.752 243.508 33.728 242.74 35.648C243.292 35.936 244.324 36.584 244.756 36.944C245.092 36.08 245.404 35.048 245.644 33.896H247.252V38.312C245.644 38.744 244.156 39.128 242.98 39.392L243.652 42.128C244.732 41.816 245.956 41.456 247.252 41.072V49.088H249.868V40.28C250.564 40.064 251.284 39.824 251.98 39.608V40.88H254.884L252.82 42.152C253.852 43.304 255.076 44.888 255.556 45.92L257.836 44.456C257.26 43.4 256.012 41.936 254.956 40.88H259.972V45.848C259.972 46.16 259.876 46.232 259.468 46.256C259.084 46.256 257.788 46.256 256.588 46.208C256.972 47 257.356 48.224 257.452 49.04C259.252 49.04 260.596 48.992 261.58 48.56C262.54 48.104 262.78 47.336 262.78 45.896V40.88H265.204V38.24H262.78V36.08H265.42Z" fill="#131313"/>
<path d="M276.436 27.416H268.828V29.576H276.436V27.416ZM273.82 42.824V45.584H271.084V42.824H273.82ZM276.316 40.568H268.612V48.752H271.084V47.816H276.316V40.568ZM268.684 39.392H276.388V37.256H268.684V39.392ZM289.948 37.4H285.004V32.6H289.444V29.984H281.644C281.956 29.072 282.22 28.112 282.436 27.152L279.58 26.6C279.124 28.808 278.356 31.04 277.348 32.816V30.632H267.532V32.888H277.3C277.012 33.392 276.724 33.872 276.388 34.304V33.968H268.684V36.152H276.388V34.904C277.108 35.288 278.092 35.936 278.572 36.296C279.316 35.288 280.036 34.016 280.66 32.6H282.124V37.4H277.108V40.112H282.124V49.064H285.004V40.112H289.948V37.4Z" fill="#131313"/>
<path d="M253.876 56.656H254.716V58.528H261.796C261.388 61.216 260.668 63.616 259.732 65.68C258.724 63.568 258.004 61.144 257.524 58.576L254.788 59.128C255.532 62.752 256.564 65.968 258.028 68.632C256.852 70.264 255.46 71.56 253.876 72.448V56.656ZM247.708 66.448H251.116V68.608C249.964 68.752 248.812 68.92 247.708 69.064V66.448ZM247.708 61.504H251.116V63.904H247.708V61.504ZM251.116 56.656V58.936H247.708V56.656H251.116ZM263.068 55.648L262.588 55.72H255.412V54.016H243.364V56.656H244.996V69.4C244.18 69.496 243.436 69.568 242.788 69.64L243.34 72.496C245.548 72.16 248.356 71.728 251.116 71.248V75.088H253.876V72.832C254.452 73.408 255.1 74.296 255.46 74.92C257.092 73.936 258.508 72.736 259.732 71.248C260.884 72.712 262.228 73.936 263.86 74.92C264.292 74.176 265.18 73.096 265.828 72.568C264.1 71.632 262.66 70.288 261.484 68.68C263.284 65.464 264.436 61.336 264.94 56.104L263.068 55.648Z" fill="#131313"/>
<path d="M285.46 56.56H279.22V55.36H285.46V56.56ZM285.46 59.68H279.22V58.432H285.46V59.68ZM288.34 53.368H276.46V61.672H288.34V53.368ZM272.332 52.696C271.324 54.304 269.212 56.248 267.34 57.4C267.772 58 268.468 59.176 268.756 59.824C271.012 58.36 273.46 56.008 275.044 53.8L272.332 52.696ZM272.956 57.928C271.564 60.28 269.212 62.608 267.076 64.096C267.508 64.792 268.228 66.424 268.444 67.048C269.164 66.496 269.884 65.824 270.604 65.104V75.064H273.364V62.032C274.156 61.024 274.876 60.016 275.452 59.008L272.956 57.928ZM289.612 66.424H286.348V65.056H289.132V62.728H275.236V65.056H283.444V66.424H274.66V68.848H278.02L276.244 70.024C277.252 71.032 278.476 72.448 279.004 73.36L281.14 71.848C280.54 71.008 279.364 69.76 278.404 68.848H283.444V72.184C283.444 72.448 283.348 72.544 283.012 72.568C282.7 72.568 281.572 72.568 280.564 72.52C280.924 73.24 281.332 74.296 281.452 75.064C283.084 75.064 284.284 75.064 285.172 74.656C286.108 74.248 286.348 73.576 286.348 72.256V68.848H289.636L289.612 66.424Z" fill="#131313"/>
<path d="M178.381 38H181.124C183.958 38 185.778 36.388 185.778 33.151C185.778 29.901 183.958 28.38 181.02 28.38H178.381V38ZM180.305 36.453V29.914H180.903C182.697 29.914 183.815 30.798 183.815 33.151C183.815 35.491 182.697 36.453 180.903 36.453H180.305Z" fill="#131313"/>
<path d="M190.925 38.182C191.835 38.182 192.758 37.87 193.473 37.376L192.823 36.206C192.303 36.531 191.783 36.713 191.185 36.713C190.106 36.713 189.326 36.089 189.17 34.893H193.655C193.707 34.724 193.746 34.373 193.746 34.022C193.746 32.007 192.706 30.538 190.704 30.538C188.962 30.538 187.311 32.007 187.311 34.373C187.311 36.765 188.897 38.182 190.925 38.182ZM189.144 33.632C189.287 32.566 189.963 32.02 190.73 32.02C191.666 32.02 192.108 32.644 192.108 33.632H189.144Z" fill="#131313"/>
<path d="M197.659 38.182C199.557 38.182 200.558 37.155 200.558 35.881C200.558 34.529 199.492 34.048 198.53 33.684C197.763 33.398 197.048 33.203 197.048 32.67C197.048 32.254 197.36 31.968 198.01 31.968C198.556 31.968 199.063 32.228 199.583 32.592L200.441 31.435C199.83 30.98 199.024 30.538 197.958 30.538C196.32 30.538 195.254 31.461 195.254 32.774C195.254 33.983 196.32 34.542 197.243 34.893C198.01 35.192 198.764 35.439 198.764 35.985C198.764 36.44 198.439 36.752 197.711 36.752C197.035 36.752 196.411 36.466 195.761 35.959L194.89 37.155C195.605 37.753 196.684 38.182 197.659 38.182Z" fill="#131313"/>
<path d="M202.276 38H204.174V30.72H202.276V38ZM203.238 29.55C203.888 29.55 204.369 29.108 204.369 28.51C204.369 27.886 203.888 27.47 203.238 27.47C202.575 27.47 202.094 27.886 202.094 28.51C202.094 29.108 202.575 29.55 203.238 29.55Z" fill="#131313"/>
<path d="M209.045 41.159C211.476 41.159 212.997 40.041 212.997 38.572C212.997 37.298 212.048 36.752 210.293 36.752H209.058C208.2 36.752 207.914 36.544 207.914 36.154C207.914 35.868 208.018 35.699 208.226 35.53C208.538 35.634 208.876 35.699 209.162 35.699C210.722 35.699 211.97 34.867 211.97 33.229C211.97 32.774 211.827 32.371 211.632 32.124H212.88V30.72H210.254C209.955 30.616 209.565 30.538 209.162 30.538C207.615 30.538 206.224 31.461 206.224 33.177C206.224 34.022 206.692 34.711 207.186 35.075V35.127C206.757 35.439 206.38 35.946 206.38 36.492C206.38 37.09 206.666 37.467 207.043 37.714V37.779C206.38 38.156 206.003 38.676 206.003 39.287C206.003 40.574 207.329 41.159 209.045 41.159ZM209.162 34.516C208.525 34.516 208.018 34.035 208.018 33.177C208.018 32.319 208.512 31.838 209.162 31.838C209.812 31.838 210.293 32.319 210.293 33.177C210.293 34.035 209.799 34.516 209.162 34.516ZM209.331 39.95C208.265 39.95 207.589 39.599 207.589 38.988C207.589 38.689 207.745 38.403 208.07 38.143C208.33 38.208 208.642 38.247 209.084 38.247H209.968C210.748 38.247 211.177 38.377 211.177 38.897C211.177 39.469 210.423 39.95 209.331 39.95Z" fill="#131313"/>
<path d="M214.501 38H216.399V32.995C216.945 32.462 217.322 32.176 217.92 32.176C218.635 32.176 218.947 32.579 218.947 33.697V38H220.858V33.463C220.858 31.63 220.182 30.538 218.609 30.538C217.621 30.538 216.88 31.058 216.243 31.682H216.191L216.061 30.72H214.501V38Z" fill="#131313"/>
<path d="M188.727 61.02L189.519 58.104C190.311 55.332 191.103 52.308 191.787 49.392H191.931C192.723 52.272 193.443 55.332 194.271 58.104L195.063 61.02H188.727ZM198.087 72H203.667L195.099 45.36H188.835L180.303 72H185.703L187.575 65.16H196.215L198.087 72Z" fill="#131313"/>
<path d="M208.946 72H214.274V45.36H208.946V72Z" fill="#131313"/>
<path fill-rule="evenodd" clip-rule="evenodd" d="M233 73H232V27H233V73Z" fill="black"/>
</svg>
