<svg width="385" height="127" viewBox="0 0 385 127" fill="none" xmlns="http://www.w3.org/2000/svg">
<path d="M296.75 119.35C296.75 118.94 296.41 118.6 296 118.6C295.59 118.6 295.25 118.94 295.25 119.35C295.25 119.76 295.59 120.1 296 120.1C296.41 120.1 296.75 119.76 296.75 119.35ZM292.7 118.61L292.41 118.9L295.71 122.2L292.4 125.51L292.69 125.8L296 122.49L299.3 125.79L299.59 125.5L296.29 122.2L299.59 118.9L299.3 118.61L296 121.91L292.7 118.61ZM293.15 121.45C292.74 121.45 292.4 121.79 292.4 122.2C292.4 122.61 292.74 122.95 293.15 122.95C293.56 122.95 293.9 122.61 293.9 122.2C293.9 121.79 293.56 121.45 293.15 121.45ZM298.85 122.95C299.26 122.95 299.6 122.61 299.6 122.2C299.6 121.79 299.26 121.45 298.85 121.45C298.44 121.45 298.1 121.79 298.1 122.2C298.1 122.61 298.44 122.95 298.85 122.95ZM295.25 125.05C295.25 125.46 295.59 125.8 296 125.8C296.41 125.8 296.75 125.46 296.75 125.05C296.75 124.64 296.41 124.3 296 124.3C295.59 124.3 295.25 124.64 295.25 125.05Z" fill="#747474"/>
<path d="M307.747 117.78C307.597 118.13 307.317 118.66 307.117 118.99L307.597 119.17C307.817 118.87 308.087 118.42 308.297 117.99L307.747 117.78ZM305.437 118.97C305.337 118.65 305.067 118.18 304.817 117.84L304.307 118.03C304.547 118.39 304.807 118.88 304.897 119.19L305.437 118.97ZM310.327 122.98H309.597V123.78H306.897V122.99H306.177V123.78H303.777V124.44H306.117C305.967 125.07 305.487 125.71 304.017 126.17C304.177 126.31 304.387 126.58 304.477 126.75C306.237 126.17 306.737 125.3 306.857 124.44H309.597V126.75H310.327V124.44H312.697V123.78H310.327V122.98ZM305.337 120.29C305.247 120.82 305.097 121.37 304.867 121.79C304.987 121.83 305.187 121.93 305.267 121.99C305.487 121.57 305.667 120.96 305.777 120.39L305.337 120.29ZM307.547 121.48C307.487 121.17 307.317 120.66 307.147 120.29L306.757 120.39C306.927 120.78 307.097 121.29 307.157 121.61L307.547 121.48ZM309.717 119.31H311.547C311.347 119.96 311.047 120.5 310.637 120.95C310.217 120.5 309.897 119.97 309.687 119.38L309.717 119.31ZM312.747 119.31V118.7H309.987C310.117 118.41 310.217 118.1 310.317 117.8L309.707 117.63C309.417 118.61 308.947 119.58 308.387 120.24V119.28H306.577V117.63H305.947V119.28H304.157V122.81H304.727V119.82H305.997V122.65H306.527V119.82H307.797V122.05C307.797 122.14 307.777 122.17 307.687 122.17C307.587 122.18 307.327 122.18 306.997 122.17C307.067 122.33 307.157 122.56 307.167 122.72C307.617 122.72 307.937 122.72 308.137 122.62C308.347 122.52 308.387 122.36 308.387 122.06V120.31C308.517 120.46 308.707 120.71 308.787 120.82C308.977 120.58 309.157 120.32 309.337 120.03C309.577 120.52 309.867 120.98 310.207 121.37C309.757 121.74 309.207 122.03 308.577 122.26C308.687 122.39 308.867 122.68 308.927 122.82C309.597 122.55 310.177 122.23 310.657 121.82C311.167 122.26 311.757 122.6 312.447 122.83C312.537 122.66 312.717 122.42 312.857 122.29C312.187 122.1 311.597 121.79 311.107 121.39C311.607 120.84 311.987 120.15 312.227 119.31H312.747Z" fill="#747474"/>
<path d="M317.847 123.29C317.597 123.07 316.717 122.3 316.257 121.93C316.777 121.26 317.237 120.52 317.547 119.75L317.127 119.47L316.997 119.5H316.127V117.64H315.397V119.5H313.827V120.18H316.607C315.917 121.51 314.667 122.77 313.477 123.46C313.597 123.6 313.787 123.94 313.867 124.13C314.377 123.8 314.897 123.38 315.397 122.89V126.76H316.127V122.62C316.577 123.04 317.127 123.6 317.387 123.89L317.847 123.29ZM320.567 125.75V121.6H322.697V120.88H320.567V117.71H319.827V120.88H317.687V121.6H319.827V125.75H317.297V126.48H322.897V125.75H320.567Z" fill="#747474"/>
<path d="M325.947 124.6C325.517 124.6 324.937 124.05 324.937 122.8C324.937 121.47 326.097 119.84 327.997 119.6C327.887 120.51 327.697 121.45 327.447 122.27C326.937 123.94 326.387 124.6 325.947 124.6ZM328.557 126.26C330.917 125.95 332.287 124.56 332.287 122.48C332.287 120.48 330.807 118.84 328.487 118.84C326.067 118.84 324.147 120.72 324.147 122.87C324.147 124.5 325.037 125.52 325.917 125.52C326.837 125.52 327.627 124.47 328.237 122.44C328.507 121.51 328.697 120.51 328.827 119.59C330.507 119.73 331.457 120.96 331.457 122.46C331.457 124.17 330.217 125.11 328.947 125.39C328.707 125.44 328.407 125.49 328.097 125.51L328.557 126.26Z" fill="#747474"/>
<path d="M342.637 124.17V123.51H338.397C338.487 123.2 338.537 122.88 338.557 122.57H341.527V121.95H338.577V121.06H341.667V120.53H342.417V118.61H338.597V117.64H337.857V118.61H334.047V120.53H334.767V119.28H341.667V120.43H338.577V119.6H337.837V120.43H334.887V121.06H337.837V121.95H335.047V122.57H337.817C337.797 122.88 337.747 123.2 337.627 123.51H333.897V124.17H337.287C336.767 124.92 335.747 125.62 333.797 126.16C333.957 126.32 334.167 126.6 334.247 126.76C336.527 126.08 337.617 125.16 338.137 124.17H338.227C338.987 125.6 340.347 126.44 342.297 126.78C342.397 126.59 342.587 126.29 342.747 126.14C341.007 125.89 339.727 125.24 339.017 124.17H342.637Z" fill="#747474"/>
<path d="M352.797 120.23H350.277V119.69H352.297V119.21H350.277V118.69H352.547V118.19H350.277V117.64H349.537V118.19H347.377V118.69H349.537V119.21H347.637V119.69H349.537V120.23H347.107V120.74H352.797V120.23ZM348.457 124H351.527V124.67H348.457V124ZM348.457 122.87H351.527V123.52H348.457V122.87ZM348.457 121.75H351.527V122.38H348.457V121.75ZM352.227 125.17V121.25H347.777V125.17H352.227ZM344.157 123.3C344.047 124.17 343.857 125.07 343.547 125.68C343.687 125.73 343.987 125.86 344.097 125.95C344.417 125.31 344.647 124.35 344.787 123.41L344.157 123.3ZM346.687 122.5C346.777 122.72 346.847 122.94 346.887 123.12L347.477 122.85C347.327 122.3 346.927 121.45 346.517 120.8L345.977 121.02C346.127 121.28 346.287 121.58 346.427 121.88L344.957 121.95C345.637 121.1 346.387 119.97 346.957 119.06L346.337 118.77C346.057 119.31 345.677 119.96 345.267 120.58C345.117 120.38 344.937 120.16 344.727 119.94C345.107 119.38 345.537 118.57 345.877 117.88L345.227 117.64C345.017 118.19 344.667 118.95 344.337 119.52C344.237 119.42 344.137 119.33 344.037 119.24L343.637 119.71C344.087 120.14 344.587 120.71 344.877 121.16C344.667 121.46 344.457 121.74 344.257 121.99L343.567 122.02L343.607 122.69C344.077 122.66 344.627 122.63 345.207 122.59V126.76H345.867V122.55L346.687 122.5ZM347.307 125.06C347.237 124.57 347.017 123.83 346.767 123.26L346.227 123.42C346.467 124 346.667 124.75 346.727 125.23L347.307 125.06ZM348.897 125.22C348.427 125.63 347.487 126.08 346.667 126.32C346.817 126.44 347.037 126.66 347.147 126.8C347.967 126.55 348.927 126.07 349.517 125.59L348.897 125.22ZM350.467 125.62C351.107 126 351.827 126.47 352.227 126.77L352.877 126.41C352.407 126.09 351.637 125.63 350.967 125.25L350.467 125.62Z" fill="#747474"/>
<path d="M357.907 124.64C357.907 125.32 357.557 125.66 356.827 125.66C355.877 125.66 355.327 125.36 355.327 124.81C355.327 124.27 355.907 123.92 356.927 123.92C357.257 123.92 357.577 123.95 357.897 124.02C357.897 124.27 357.907 124.48 357.907 124.64ZM358.577 120.9C359.387 120.88 360.657 120.82 361.537 120.74L361.507 119.98C360.617 120.1 359.367 120.15 358.577 120.17C358.577 119.78 358.567 119.43 358.577 119.16C358.587 118.86 358.617 118.39 358.657 118.18H357.697C357.737 118.37 357.767 118.8 357.777 119.16C357.787 119.58 357.787 120.4 357.787 120.97C357.787 121.56 357.827 122.47 357.867 123.27C357.587 123.23 357.307 123.21 357.027 123.21C355.317 123.21 354.537 123.95 354.537 124.84C354.537 125.97 355.547 126.41 356.907 126.41C358.227 126.41 358.727 125.71 358.727 124.9C358.727 124.72 358.717 124.5 358.707 124.24C359.737 124.6 360.647 125.23 361.277 125.87L361.757 125.13C361.037 124.48 359.947 123.79 358.677 123.44C358.627 122.58 358.577 121.62 358.577 120.97V120.9Z" fill="#747474"/>
<path d="M365.571 118.11C365.561 118.35 365.531 118.65 365.491 118.96C365.371 119.76 365.191 121.22 365.191 122.16C365.191 122.8 365.241 123.36 365.291 123.73L366.071 123.67C366.001 123.18 366.001 122.84 366.051 122.46C366.171 121.16 367.311 119.37 368.541 119.37C369.591 119.37 370.111 120.49 370.111 122.05C370.111 124.54 368.431 125.4 366.281 125.73L366.751 126.45C369.211 126 370.941 124.79 370.941 122.04C370.941 119.96 369.991 118.64 368.671 118.64C367.421 118.64 366.381 119.87 365.991 120.89C366.051 120.2 366.241 118.87 366.451 118.14L365.571 118.11Z" fill="#747474"/>
<path d="M20.5964 25.6556C22.1924 25.4596 23.9844 24.6196 24.9364 23.7236C26.3364 22.4076 26.4484 19.6916 26.4484 18.6836C26.4484 11.9916 21.6324 11.7116 16.5364 11.7116C7.52038 11.7116 6.93238 14.6516 6.87637 19.5516H11.4124C11.4684 16.4436 11.9164 15.9116 16.9844 15.9116C21.2404 15.9116 21.8844 16.8916 21.8844 18.9636C21.8844 20.8116 21.2404 21.4276 19.1684 21.6516L12.0004 22.4636C6.54037 23.0796 6.48438 27.7556 6.48438 30.0796V33.9996H26.3084V29.7996H11.0764V29.0996C11.0764 26.9996 12.1684 26.6916 13.7084 26.4956L20.5964 25.6556Z" fill="#383838"/>
<path d="M49.8404 22.9676C49.8404 13.1956 47.9644 11.7116 39.6764 11.7116C31.4724 11.7116 29.7364 13.4756 29.7364 22.9676C29.7364 32.7396 31.6404 34.2236 39.9004 34.2236C48.1324 34.2236 49.8404 32.4596 49.8404 22.9676ZM39.7884 15.9116C42.5324 15.9116 44.1844 16.0516 44.7444 17.5356C45.1364 18.5996 45.2204 22.0996 45.2204 23.4156C45.2204 29.5196 44.6604 30.0236 40.1244 30.0236C34.8324 30.0236 34.3564 29.8556 34.3564 23.0236C34.3564 16.1636 34.8324 15.9116 39.7884 15.9116Z" fill="#383838"/>
<path d="M52.9044 11.9356V16.1356H57.3844V33.9996H62.0044V11.9356H52.9044Z" fill="#383838"/>
<path d="M66.7205 27.5876C66.6925 33.3836 70.3325 34.2236 76.1005 34.2236C85.3125 34.2236 85.8445 31.0596 85.8445 21.2596C85.8445 12.4676 82.3445 11.7116 75.6245 11.7116C69.7165 11.7116 66.5805 12.8036 66.5805 19.2156C66.5805 23.4996 68.0925 26.1036 74.5885 26.1036C79.4325 26.1036 80.4125 25.1516 81.2805 24.2836C81.3085 29.6316 80.2165 30.1636 75.4565 30.1636C71.4805 30.1636 71.2285 29.0436 71.2845 27.5876H66.7205ZM75.6245 22.0716C71.8165 22.0716 70.9205 21.1476 70.9205 19.0756C70.9205 16.5556 71.3965 15.6876 75.5685 15.6876C79.9085 15.6876 81.2245 16.1076 81.2245 18.6836C81.2245 21.6236 79.9925 22.0716 75.6245 22.0716Z" fill="#383838"/>
<path d="M92.7445 26.6916H88.9085V30.7236H101.732V36.6316H106.044V30.7236H115.508V26.6916H106.044V22.9676H113.604V19.0476H106.044V16.3596H114.5V12.3276H97.9245C98.3165 11.3476 98.4285 10.9276 98.5685 10.3676L94.2285 9.80762C93.3325 13.0276 91.1485 16.0236 88.5165 18.0676L91.2605 21.7636C91.7645 21.3436 92.1005 21.0356 92.7445 20.3636V26.6916ZM93.9485 19.0476C94.9285 17.8156 95.0685 17.6476 95.8525 16.3596H101.732V19.0476H93.9485ZM101.732 22.9676V26.6916H96.9445V22.9676H101.732Z" fill="#383838"/>
<path d="M134.129 15.9676H126.905V11.1516H122.424V15.9676H118.225V20.1676H122.424V26.8596H126.905V20.1676H134.129V22.7716C134.129 25.8516 133.821 30.4156 123.293 31.5916L125.001 35.7356C135.417 34.0556 138.721 29.8836 138.721 22.7716V20.1676H143.089V15.9676H138.721V11.0676H134.129V15.9676Z" fill="#383838"/>
<path d="M146.98 21.0076V25.6836H171.677V21.0076H146.98Z" fill="#383838"/>
<path d="M176.577 11.8796V30.3036C176.577 33.0196 177.809 34.7836 182.177 34.7836H191.949C192.509 34.7836 195.085 34.7556 197.521 34.3916L197.269 29.7436C195.617 30.0236 192.761 30.3596 191.165 30.3596H183.073C181.505 30.3596 181.197 30.1356 181.197 28.8756V23.8076C186.433 22.6876 191.501 20.8396 196.345 18.5436L194.441 15.7716L193.405 16.1356C193.125 15.3236 193.097 15.2396 192.957 14.9036C189.065 16.8636 186.097 18.1796 181.197 19.3836V11.8796H176.577ZM196.345 14.5676C196.065 13.3636 195.337 11.4316 194.777 10.3676L192.397 10.9276C192.677 11.5436 193.097 12.4396 193.909 15.3516L196.345 14.5676ZM200.125 14.1476C200.013 13.6716 199.313 11.2076 198.529 9.86362L196.205 10.4516C197.157 12.4396 197.689 14.3996 197.801 14.8196L200.125 14.1476Z" fill="#383838"/>
<path d="M205.165 35.6236C207.097 34.8116 211.017 33.1036 216.057 27.6156C217.793 29.0716 221.657 32.8796 224.177 35.7916L227.957 32.0956C225.129 29.2396 222.049 26.6076 218.773 24.2276C222.721 18.6276 223.561 13.9796 223.84 12.2996H204.297V16.5276H217.877C214.881 24.2556 208.917 29.3516 202.617 31.8716L205.165 35.6236Z" fill="#383838"/>
<path d="M19.8964 67.8116H27.5124V79.0396C27.5124 79.5156 27.4564 79.6276 26.8404 79.6276H24.5444L25.4404 83.6316H28.9964C31.3764 83.6316 31.3764 81.3356 31.3764 80.8316V57.8996H19.8964V67.8116ZM11.3564 74.0276V77.4156H13.8484C13.3164 79.2916 12.0284 80.1596 11.2164 80.6916L14.1284 83.4356C14.9684 82.8196 17.0404 81.2796 17.7404 77.4156H20.3444V83.2396H24.0964V77.4156H26.5604V74.0276H24.0964V72.1516H26.1684V68.8476H11.8324V72.1516H14.1844V74.0276H11.3564ZM27.4844 60.6716V61.9596H23.7324V60.6716H27.4844ZM27.4844 64.0316V65.3196H23.7324V64.0316H27.4844ZM17.9644 74.0276V72.1516H20.3444V74.0276H17.9644ZM6.62437 83.6316H10.4324V67.8116H17.9924V57.8996H6.62437V83.6316ZM14.3244 60.6716V61.9596H10.4604V60.6716H14.3244ZM14.3244 64.0316V65.3196H10.4604V64.0316H14.3244Z" fill="#383838"/>
<path d="M49.8844 56.8916C49.2124 60.6996 47.8964 64.7316 47.5324 65.7956C46.2164 65.8516 46.0764 65.8516 45.6844 65.8796C45.8804 64.0316 45.9084 62.6876 45.9644 61.4556H41.5964C41.9324 58.5716 41.9604 58.2356 42.0724 57.1996L38.0684 57.0876C38.0404 57.9556 37.9844 58.9076 37.7884 61.4556H35.4084V65.4036H37.3124C36.6964 69.8556 35.8004 72.3476 35.3244 73.7196C36.2764 74.1956 37.2284 74.6996 39.1604 76.0156C37.5924 78.3676 35.9684 79.5436 34.9324 80.2716L37.7324 83.7436C38.6844 82.9316 40.4204 81.4476 42.1844 78.5356C43.2764 79.5996 43.7804 80.1316 44.1724 80.5796L46.7204 76.8276C46.2444 76.3796 45.8244 75.9876 44.0044 74.6156C44.9844 71.7316 45.4884 67.5316 45.6004 66.7196L45.9364 69.7716C49.6604 69.6596 56.6044 68.9036 58.0884 68.7076C58.2564 69.2396 58.3404 69.5196 58.5364 70.2196L62.3444 68.6516C61.1124 64.7036 59.1804 61.7356 58.2844 60.4196L54.7564 62.0436C55.2324 62.7996 55.9044 63.8916 56.6044 65.3476C54.2524 65.5156 53.7204 65.5436 51.5364 65.6276C52.7964 62.6876 53.7204 60.2236 54.4204 57.3116L49.8844 56.8916ZM42.4644 65.4036C42.3804 66.7196 42.2124 69.0716 40.9524 72.5436C40.2524 72.1236 40.0004 72.0116 39.5524 71.7596C40.2244 69.9676 40.6724 67.6156 41.0364 65.4036H42.4644ZM60.9444 70.9196H47.0284V83.6596H50.8924V82.5396H56.8564V83.6596H60.9444V70.9196ZM56.8564 74.4476V78.6756H50.8924V74.4476H56.8564Z" fill="#383838"/>
<path d="M90.0084 57.5916L85.4164 57.4796L85.2484 64.6756C85.1644 68.1196 84.9404 76.6596 74.2444 79.5996L76.7924 83.6876C78.1924 83.2116 81.7204 82.0636 85.0804 78.3116C87.3484 81.0556 88.3284 82.5676 88.9724 83.6036L92.1084 79.6836C90.5964 77.6676 88.1604 75.2876 87.5444 74.6716C89.6164 70.6396 89.7284 67.1676 89.7844 65.3476L90.0084 57.5916ZM65.6484 81.4476C68.3364 80.5236 75.2244 77.7516 78.6124 75.9316L77.8844 71.9276C76.8764 72.4316 75.0564 73.3276 71.8084 74.6156L71.5844 57.4516L67.0484 57.5356L67.2724 76.2116C66.5164 76.4636 65.9844 76.6316 64.8644 76.9396L65.6484 81.4476ZM73.4044 60.8396C77.3524 65.2356 77.5204 65.4036 79.2844 68.1476L82.9524 65.1796C80.9364 62.2676 78.5284 59.8036 76.7364 58.1516L73.4044 60.8396Z" fill="#383838"/>
<path d="M98.0444 64.0876C98.7724 65.5156 99.1924 67.1676 99.6684 68.9876H94.8244V72.9636H103.28C100.2 76.2116 97.0364 77.7796 94.3484 78.8436L96.7564 82.9876C99.3324 81.7276 102.244 79.8796 105.884 75.7916V83.6316H110.056V75.5956C112.016 78.0316 114.844 80.8876 119.324 82.9876L121.676 78.9276C118.008 77.3876 115.544 75.7916 112.716 72.9636H121.256V68.9876H116.384C117.364 66.9156 118.036 64.4236 118.148 64.0036L115.152 63.3876H120.22V59.4676H110.056V57.1156H105.884V59.4676H95.8884V63.3876H100.9L98.0444 64.0876ZM103.868 68.3156C103.504 66.4396 102.692 64.3116 102.244 63.3876H105.884V68.9876H100.788L103.868 68.3156ZM115.768 68.9876H110.056V63.3876H113.864C113.696 64.0036 112.912 66.6636 112.24 68.1196L115.768 68.9876Z" fill="#383838"/>
<path d="M380.698 82.0968C380.698 81.548 380.242 81.0928 379.694 81.0928C379.145 81.0928 378.689 81.548 378.689 82.0968C378.689 82.6457 379.145 83.1009 379.694 83.1009C380.242 83.1009 380.698 82.6457 380.698 82.0968ZM375.276 81.1062L374.887 81.4944L379.305 85.9123L374.874 90.3436L375.262 90.7319L379.694 86.3006L384.111 90.7185L384.5 90.3302L380.082 85.9123L384.5 81.4944L384.111 81.1062L379.694 85.5241L375.276 81.1062ZM375.878 84.9082C375.329 84.9082 374.874 85.3634 374.874 85.9123C374.874 86.4612 375.329 86.9164 375.878 86.9164C376.427 86.9164 376.882 86.4612 376.882 85.9123C376.882 85.3634 376.427 84.9082 375.878 84.9082ZM383.509 86.9164C384.058 86.9164 384.513 86.4612 384.513 85.9123C384.513 85.3634 384.058 84.9082 383.509 84.9082C382.96 84.9082 382.505 85.3634 382.505 85.9123C382.505 86.4612 382.96 86.9164 383.509 86.9164ZM378.689 89.7278C378.689 90.2767 379.145 90.7319 379.694 90.7319C380.242 90.7319 380.698 90.2767 380.698 89.7278C380.698 89.1789 380.242 88.7237 379.694 88.7237C379.145 88.7237 378.689 89.1789 378.689 89.7278Z" fill="#747474"/>
<path d="M349.541 63.8108C350.739 65.5086 351.638 66.3409 352.337 67.0068L354.834 62.2461C353.636 61.5802 352.104 60.6814 350.273 58.6839C351.905 56.3201 352.437 55.0883 352.937 53.8566V49.1957H349.541V44.6348H344.481V49.1957H340.286V53.8566H347.577C346.478 56.0205 343.415 59.616 339.687 61.8466L340.952 67.7392C341.917 67.0734 343.116 66.2411 344.481 65.0759V76.162H349.541V63.8108ZM359.428 52.8911H353.436V58.018H359.428V70.2028H351.805V75.2631H371.613V70.2028H364.622V58.018H371.114V52.8911H364.622V44.6348H359.428V52.8911Z" fill="#FE0000"/>
<path d="M354.449 79.2052L351.743 79.1392L351.644 83.3797C351.594 85.4092 351.462 90.4417 345.159 92.1742L346.661 94.5832C347.486 94.3027 349.565 93.6262 351.545 91.4152C352.881 93.0322 353.459 93.9232 353.838 94.5337L355.686 92.2237C354.795 91.0357 353.36 89.6332 352.997 89.2702C354.218 86.8942 354.284 84.8482 354.317 83.7757L354.449 79.2052ZM340.094 93.2632C341.678 92.7187 345.737 91.0852 347.733 90.0127L347.304 87.6532C346.71 87.9502 345.638 88.4782 343.724 89.2372L343.592 79.1227L340.919 79.1722L341.051 90.1777C340.605 90.3262 340.292 90.4252 339.632 90.6067L340.094 93.2632ZM344.664 81.1192C346.991 83.7097 347.09 83.8087 348.129 85.4257L350.291 83.6767C349.103 81.9607 347.684 80.5087 346.628 79.5352L344.664 81.1192Z" fill="black"/>
<path d="M362.699 78.9082V91.4482H356.594V94.0222H372.236V91.4482H365.355V85.7722H371.394V83.1817H365.355V78.9082H362.699Z" fill="black"/>
<path d="M243.248 86.5214L262.63 62.268C263.38 61.2915 263.891 60.3831 264.163 59.5429C264.345 58.7481 264.436 57.9987 264.436 57.2947C264.436 55.4325 263.857 53.8088 262.698 52.4236C261.495 51.0383 259.792 50.323 257.589 50.2775C255.636 50.2775 254.012 50.902 252.718 52.1511C251.378 53.4001 250.583 55.16 250.333 57.4309H243.248C243.43 53.2979 244.815 49.8801 247.404 47.1777C250.015 44.5435 253.229 43.2036 257.044 43.1582C261.313 43.2036 264.776 44.5662 267.433 47.2459C270.136 49.9028 271.51 53.2752 271.555 57.3628C271.555 60.6329 270.556 63.5397 268.557 66.0832L252.582 86.1127H271.555V93.232H243.248V86.5214Z" fill="#FE0000"/>
<path d="M282.763 57.3628C282.809 59.6564 283.547 61.4051 284.978 62.6086C286.386 63.8577 288.009 64.4822 289.849 64.4822C291.756 64.4822 293.414 63.8577 294.822 62.6086C296.207 61.4051 296.923 59.6564 296.968 57.3628C296.923 55.0011 296.207 53.2184 294.822 52.0148C293.414 50.8566 291.756 50.2775 289.849 50.2775C288.009 50.2775 286.386 50.8566 284.978 52.0148C283.547 53.2184 282.809 55.0011 282.763 57.3628ZM274.724 78.7208C274.77 73.9292 276.723 70.2049 280.583 67.5479C279.107 66.2535 277.949 64.766 277.109 63.0855C276.132 61.5186 275.644 59.6564 275.644 57.4991C275.69 53.366 277.086 49.9483 279.834 47.2459C282.423 44.5662 285.761 43.2036 289.849 43.1582C294.005 43.2036 297.4 44.5662 300.034 47.2459C302.691 49.9483 304.042 53.366 304.087 57.4991C304.087 59.6564 303.645 61.5186 302.759 63.0855C301.828 64.766 300.624 66.2535 299.148 67.5479C303.009 70.2049 304.962 73.9292 305.007 78.7208C304.962 83.1945 303.497 86.7712 300.613 89.4509C297.683 92.1988 294.095 93.5954 289.849 93.6408C285.625 93.5954 282.094 92.1988 279.255 89.4509C276.28 86.7712 274.77 83.1945 274.724 78.7208ZM281.844 78.6527C281.889 80.9236 282.707 82.7858 284.296 84.2392C285.818 85.7607 287.669 86.5214 289.849 86.5214C292.097 86.5214 293.982 85.7607 295.503 84.2392C297.048 82.7858 297.842 80.9236 297.888 78.6527C297.842 76.3364 297.048 74.4515 295.503 72.9981C293.982 71.5674 292.097 70.8294 289.849 70.784C287.669 70.8294 285.818 71.5674 284.296 72.9981C282.707 74.4515 281.889 76.3364 281.844 78.6527Z" fill="#FE0000"/>
<path d="M328.955 57.8738C328.819 52.9005 326.491 50.3684 321.972 50.2775C317.43 50.3684 315.114 52.9005 315.023 57.8738V78.9252C315.114 83.944 317.43 86.476 321.972 86.5214C326.491 86.476 328.819 83.944 328.955 78.9252V57.8738ZM307.904 57.4309C307.949 52.8437 309.414 49.3124 312.298 46.8371C315.001 44.3845 318.225 43.1582 321.972 43.1582C325.833 43.1582 329.114 44.3845 331.817 46.8371C334.565 49.3124 335.984 52.8437 336.075 57.4309V79.334C335.984 83.8985 334.565 87.4185 331.817 89.8938C329.114 92.3464 325.833 93.5954 321.972 93.6408C318.225 93.5954 315.001 92.3464 312.298 89.8938C309.414 87.4185 307.949 83.8985 307.904 79.334V57.4309Z" fill="#FE0000"/>
<path fill-rule="evenodd" clip-rule="evenodd" d="M368 2H242V34H368V2ZM240 0V36H370V0H240Z" fill="#383838"/>
<path d="M259.22 9.78456H265.314C265.265 10.0989 265.265 10.0989 265.12 10.6067H260.284V18.5616H274.526V10.6067H268.626C268.699 10.4616 268.892 9.88128 268.916 9.78456H275.42V7.5359H272.712C272.978 7.05232 273.051 6.90725 273.196 6.39949L269.472 6.20605C269.4 6.68964 269.327 6.93143 269.085 7.5359H265.894C265.725 6.97978 265.555 6.4962 265.386 6.20605L261.832 6.32695C262.001 6.64128 262.194 7.0765 262.412 7.5359H259.22V9.78456ZM271.068 14.0884V14.8622H263.645V14.0884H271.068ZM271.068 12.1058V12.8795H263.645V12.1058H271.068ZM271.068 16.0711V16.8449H263.645V16.0711H271.068ZM252.885 9.49441C254.554 10.0264 255.98 10.6308 257.673 11.598L259.027 8.28546C257.673 7.51173 256.319 6.90725 254.264 6.32695L252.885 9.49441ZM252.789 22.527V25.1141H257.697L255.618 26.1296C256.754 26.8792 257.214 27.387 258.906 29.2004L262.267 27.4837C261.542 26.6374 260.72 25.7911 259.897 25.1141H268.408V25.9846C268.408 26.2505 268.408 26.4923 267.949 26.4923H264.419L265.023 29.2246H269.811C271.648 29.2246 272.108 28.1607 272.108 27.4111V25.1141H275.42V22.527H272.108V21.6323H275.348L275.928 19.287H261.397C260.091 19.287 259.075 19.0452 258.592 18.2472V12.2025H252.789V15.3699H255.037V17.4493C253.635 18.3198 253.538 18.3681 252.257 18.9726L253.514 22.527H252.789ZM253.756 22.527C254.191 22.261 255.279 21.4147 256.778 20.0365C257.262 20.5684 258.277 21.6323 260.889 21.6323H268.408V22.527H253.756Z" fill="#383838"/>
<path d="M282.698 10.7759H288.985C288.767 16.5789 285.842 22.4544 278.878 25.8153L281.223 29.2729C284.56 27.4111 288.912 24.1711 290.702 17.9087C291.209 19.8672 292.539 25.0899 300.083 29.2729L302.549 25.6702C293.772 21.4872 292.708 14.6204 292.757 7.10068H282.698V10.7759Z" fill="#383838"/>
<path d="M315.34 16.0953H308.062V18.6825H315.171C315.074 19.2869 315.026 19.4562 314.977 19.7464H305.91V22.8896H313.672C311.907 25.0658 307.143 25.6461 305.693 25.8395L307.168 29.3696C310.528 28.7168 313.793 27.532 316.138 25.1141C316.622 24.6064 317.057 23.8326 317.274 23.4458C319.789 27.798 325.06 28.9102 327.405 29.3455L328.88 25.7428C323.126 25.1141 321.796 23.6875 321.095 22.8896H328.711V19.7464H318.459C318.604 19.0693 318.628 18.8759 318.653 18.6825H326.511V16.0953H318.846V15.0556H325.592V13.5807H328.155V7.87441H319.136V6.47202H315.437V7.87441H306.539V13.5807H308.933V15.0556H315.34V16.0953ZM315.34 12.275H310.045V10.921H315.34V12.275ZM318.846 10.921H324.577V12.275H318.846V10.921Z" fill="#383838"/>
<path d="M332.507 19.7464C333.184 19.6738 333.45 19.6496 335.699 19.4078V29.2729H338.504V19.0935C339.108 19.021 339.277 18.9726 339.568 18.9484C339.616 19.1902 339.64 19.2628 339.761 19.964L342.082 19.1902V25.5493H344.283C342.783 26.2747 341.526 26.5165 340.196 26.7583L341.768 29.418C342.977 29.0553 345.322 28.3058 347.257 26.9517L345.878 25.5493H350.279L348.901 26.9517C350.545 28.1365 352.503 28.8861 354.123 29.4422L355.743 26.7341C354.341 26.4681 352.914 26.1055 351.633 25.5493H354.414V16.0953H342.082V18.8275C341.454 16.6514 340.873 15.3458 340.341 14.0643L338.334 14.7413C338.528 15.2732 338.673 15.5875 338.866 16.2646C338.552 16.2887 337.125 16.3613 336.811 16.3855C337.899 15.104 340.027 12.1783 341.478 9.7362L338.745 8.76904C338.286 9.7362 337.585 10.8001 336.642 12.275C336.303 11.864 336.086 11.6464 335.892 11.4529C335.965 11.3562 337.488 9.18008 338.504 6.93143L335.433 6.30277C335.264 6.83471 335.07 7.46337 334.006 9.61531C333.885 9.51859 333.474 9.13173 333.378 9.05919L332 12.2508C332.943 12.9278 333.958 13.9675 334.804 14.9831C334.2 15.8293 333.934 16.1678 333.668 16.5064C332.773 16.5547 332.749 16.5547 332.217 16.5547L332.507 19.7464ZM350.98 20.3025V21.1487H345.491V20.3025H350.98ZM350.98 17.9329V18.7308H345.491V17.9329H350.98ZM350.98 22.6962V23.5425H345.491V22.6962H350.98ZM332.773 20.4959C332.701 22.938 332.435 24.558 332 26.4923L334.345 28.0398C334.925 25.1141 335.022 23.6634 335.119 20.8102L332.773 20.4959ZM339.084 20.7377C339.35 22.3335 339.398 25.4043 339.398 25.8637L341.454 25.5493C341.405 24.2195 341.212 21.7774 340.946 20.3992L339.084 20.7377ZM346.555 7.36665H341.671V9.78456H346.555V10.5099H342.155V12.3959H346.555V13.1455H341.115V15.3699H355.332V13.1455H349.989V12.3959H354.462V10.5099H349.989V9.78456H354.921V7.36665H349.989V6.37531H346.555V7.36665Z" fill="#383838"/>
<path fill-rule="evenodd" clip-rule="evenodd" d="M373.5 111H0.5V109H373.5V111Z" fill="black"/>
</svg>
