<svg width="313" height="151" viewBox="0 0 313 151" fill="none" xmlns="http://www.w3.org/2000/svg">
<path d="M223.75 128.35C223.75 127.94 223.41 127.6 223 127.6C222.59 127.6 222.25 127.94 222.25 128.35C222.25 128.76 222.59 129.1 223 129.1C223.41 129.1 223.75 128.76 223.75 128.35ZM219.7 127.61L219.41 127.9L222.71 131.2L219.4 134.51L219.69 134.8L223 131.49L226.3 134.79L226.59 134.5L223.29 131.2L226.59 127.9L226.3 127.61L223 130.91L219.7 127.61ZM220.15 130.45C219.74 130.45 219.4 130.79 219.4 131.2C219.4 131.61 219.74 131.95 220.15 131.95C220.56 131.95 220.9 131.61 220.9 131.2C220.9 130.79 220.56 130.45 220.15 130.45ZM225.85 131.95C226.26 131.95 226.6 131.61 226.6 131.2C226.6 130.79 226.26 130.45 225.85 130.45C225.44 130.45 225.1 130.79 225.1 131.2C225.1 131.61 225.44 131.95 225.85 131.95ZM222.25 134.05C222.25 134.46 222.59 134.8 223 134.8C223.41 134.8 223.75 134.46 223.75 134.05C223.75 133.64 223.41 133.3 223 133.3C222.59 133.3 222.25 133.64 222.25 134.05Z" fill="#747474"/>
<path d="M234.747 126.78C234.597 127.13 234.317 127.66 234.117 127.99L234.597 128.17C234.817 127.87 235.087 127.42 235.297 126.99L234.747 126.78ZM232.437 127.97C232.337 127.65 232.067 127.18 231.817 126.84L231.307 127.03C231.547 127.39 231.807 127.88 231.897 128.19L232.437 127.97ZM237.327 131.98H236.597V132.78H233.897V131.99H233.177V132.78H230.777V133.44H233.117C232.967 134.07 232.487 134.71 231.017 135.17C231.177 135.31 231.387 135.58 231.477 135.75C233.237 135.17 233.737 134.3 233.857 133.44H236.597V135.75H237.327V133.44H239.697V132.78H237.327V131.98ZM232.337 129.29C232.247 129.82 232.097 130.37 231.867 130.79C231.987 130.83 232.187 130.93 232.267 130.99C232.487 130.57 232.667 129.96 232.777 129.39L232.337 129.29ZM234.547 130.48C234.487 130.17 234.317 129.66 234.147 129.29L233.757 129.39C233.927 129.78 234.097 130.29 234.157 130.61L234.547 130.48ZM236.717 128.31H238.547C238.347 128.96 238.047 129.5 237.637 129.95C237.217 129.5 236.897 128.97 236.687 128.38L236.717 128.31ZM239.747 128.31V127.7H236.987C237.117 127.41 237.217 127.1 237.317 126.8L236.707 126.63C236.417 127.61 235.947 128.58 235.387 129.24V128.28H233.577V126.63H232.947V128.28H231.157V131.81H231.727V128.82H232.997V131.65H233.527V128.82H234.797V131.05C234.797 131.14 234.777 131.17 234.687 131.17C234.587 131.18 234.327 131.18 233.997 131.17C234.067 131.33 234.157 131.56 234.167 131.72C234.617 131.72 234.937 131.72 235.137 131.62C235.347 131.52 235.387 131.36 235.387 131.06V129.31C235.517 129.46 235.707 129.71 235.787 129.82C235.977 129.58 236.157 129.32 236.337 129.03C236.577 129.52 236.867 129.98 237.207 130.37C236.757 130.74 236.207 131.03 235.577 131.26C235.687 131.39 235.867 131.68 235.927 131.82C236.597 131.55 237.177 131.23 237.657 130.82C238.167 131.26 238.757 131.6 239.447 131.83C239.537 131.66 239.717 131.42 239.857 131.29C239.187 131.1 238.597 130.79 238.107 130.39C238.607 129.84 238.987 129.15 239.227 128.31H239.747Z" fill="#747474"/>
<path d="M244.847 132.29C244.597 132.07 243.717 131.3 243.257 130.93C243.777 130.26 244.237 129.52 244.547 128.75L244.127 128.47L243.997 128.5H243.127V126.64H242.397V128.5H240.827V129.18H243.607C242.917 130.51 241.667 131.77 240.477 132.46C240.597 132.6 240.787 132.94 240.867 133.13C241.377 132.8 241.897 132.38 242.397 131.89V135.76H243.127V131.62C243.577 132.04 244.127 132.6 244.387 132.89L244.847 132.29ZM247.567 134.75V130.6H249.697V129.88H247.567V126.71H246.827V129.88H244.687V130.6H246.827V134.75H244.297V135.48H249.897V134.75H247.567Z" fill="#747474"/>
<path d="M252.947 133.6C252.517 133.6 251.937 133.05 251.937 131.8C251.937 130.47 253.097 128.84 254.997 128.6C254.887 129.51 254.697 130.45 254.447 131.27C253.937 132.94 253.387 133.6 252.947 133.6ZM255.557 135.26C257.917 134.95 259.287 133.56 259.287 131.48C259.287 129.48 257.807 127.84 255.487 127.84C253.067 127.84 251.147 129.72 251.147 131.87C251.147 133.5 252.037 134.52 252.917 134.52C253.837 134.52 254.627 133.47 255.237 131.44C255.507 130.51 255.697 129.51 255.827 128.59C257.507 128.73 258.457 129.96 258.457 131.46C258.457 133.17 257.217 134.11 255.947 134.39C255.707 134.44 255.407 134.49 255.097 134.51L255.557 135.26Z" fill="#747474"/>
<path d="M269.637 133.17V132.51H265.397C265.487 132.2 265.537 131.88 265.557 131.57H268.527V130.95H265.577V130.06H268.667V129.53H269.417V127.61H265.597V126.64H264.857V127.61H261.047V129.53H261.767V128.28H268.667V129.43H265.577V128.6H264.837V129.43H261.887V130.06H264.837V130.95H262.047V131.57H264.817C264.797 131.88 264.747 132.2 264.627 132.51H260.897V133.17H264.287C263.767 133.92 262.747 134.62 260.797 135.16C260.957 135.32 261.167 135.6 261.247 135.76C263.527 135.08 264.617 134.16 265.137 133.17H265.227C265.987 134.6 267.347 135.44 269.297 135.78C269.397 135.59 269.587 135.29 269.747 135.14C268.007 134.89 266.727 134.24 266.017 133.17H269.637Z" fill="#747474"/>
<path d="M279.797 129.23H277.277V128.69H279.297V128.21H277.277V127.69H279.547V127.19H277.277V126.64H276.537V127.19H274.377V127.69H276.537V128.21H274.637V128.69H276.537V129.23H274.107V129.74H279.797V129.23ZM275.457 133H278.527V133.67H275.457V133ZM275.457 131.87H278.527V132.52H275.457V131.87ZM275.457 130.75H278.527V131.38H275.457V130.75ZM279.227 134.17V130.25H274.777V134.17H279.227ZM271.157 132.3C271.047 133.17 270.857 134.07 270.547 134.68C270.687 134.73 270.987 134.86 271.097 134.95C271.417 134.31 271.647 133.35 271.787 132.41L271.157 132.3ZM273.687 131.5C273.777 131.72 273.847 131.94 273.887 132.12L274.477 131.85C274.327 131.3 273.927 130.45 273.517 129.8L272.977 130.02C273.127 130.28 273.287 130.58 273.427 130.88L271.957 130.95C272.637 130.1 273.387 128.97 273.957 128.06L273.337 127.77C273.057 128.31 272.677 128.96 272.267 129.58C272.117 129.38 271.937 129.16 271.727 128.94C272.107 128.38 272.537 127.57 272.877 126.88L272.227 126.64C272.017 127.19 271.667 127.95 271.337 128.52C271.237 128.42 271.137 128.33 271.037 128.24L270.637 128.71C271.087 129.14 271.587 129.71 271.877 130.16C271.667 130.46 271.457 130.74 271.257 130.99L270.567 131.02L270.607 131.69C271.077 131.66 271.627 131.63 272.207 131.59V135.76H272.867V131.55L273.687 131.5ZM274.307 134.06C274.237 133.57 274.017 132.83 273.767 132.26L273.227 132.42C273.467 133 273.667 133.75 273.727 134.23L274.307 134.06ZM275.897 134.22C275.427 134.63 274.487 135.08 273.667 135.32C273.817 135.44 274.037 135.66 274.147 135.8C274.967 135.55 275.927 135.07 276.517 134.59L275.897 134.22ZM277.467 134.62C278.107 135 278.827 135.47 279.227 135.77L279.877 135.41C279.407 135.09 278.637 134.63 277.967 134.25L277.467 134.62Z" fill="#747474"/>
<path d="M284.907 133.64C284.907 134.32 284.557 134.66 283.827 134.66C282.877 134.66 282.327 134.36 282.327 133.81C282.327 133.27 282.907 132.92 283.927 132.92C284.257 132.92 284.577 132.95 284.897 133.02C284.897 133.27 284.907 133.48 284.907 133.64ZM285.577 129.9C286.387 129.88 287.657 129.82 288.537 129.74L288.507 128.98C287.617 129.1 286.367 129.15 285.577 129.17C285.577 128.78 285.567 128.43 285.577 128.16C285.587 127.86 285.617 127.39 285.657 127.18H284.697C284.737 127.37 284.767 127.8 284.777 128.16C284.787 128.58 284.787 129.4 284.787 129.97C284.787 130.56 284.827 131.47 284.867 132.27C284.587 132.23 284.307 132.21 284.027 132.21C282.317 132.21 281.537 132.95 281.537 133.84C281.537 134.97 282.547 135.41 283.907 135.41C285.227 135.41 285.727 134.71 285.727 133.9C285.727 133.72 285.717 133.5 285.707 133.24C286.737 133.6 287.647 134.23 288.277 134.87L288.757 134.13C288.037 133.48 286.947 132.79 285.677 132.44C285.627 131.58 285.577 130.62 285.577 129.97V129.9Z" fill="#747474"/>
<path d="M292.571 127.11C292.561 127.35 292.531 127.65 292.491 127.96C292.371 128.76 292.191 130.22 292.191 131.16C292.191 131.8 292.241 132.36 292.291 132.73L293.071 132.67C293.001 132.18 293.001 131.84 293.051 131.46C293.171 130.16 294.311 128.37 295.541 128.37C296.591 128.37 297.111 129.49 297.111 131.05C297.111 133.54 295.431 134.4 293.281 134.73L293.751 135.45C296.211 135 297.941 133.79 297.941 131.04C297.941 128.96 296.991 127.64 295.671 127.64C294.421 127.64 293.381 128.87 292.991 129.89C293.051 129.2 293.241 127.87 293.451 127.14L292.571 127.11Z" fill="#747474"/>
<path d="M308.699 79.0968C308.699 78.548 308.243 78.0928 307.695 78.0928C307.146 78.0928 306.69 78.548 306.69 79.0968C306.69 79.6457 307.146 80.1009 307.695 80.1009C308.243 80.1009 308.699 79.6457 308.699 79.0968ZM303.277 78.1062L302.888 78.4944L307.306 82.9123L302.875 87.3436L303.263 87.7319L307.695 83.3006L312.112 87.7185L312.501 87.3302L308.083 82.9123L312.501 78.4944L312.112 78.1062L307.695 82.5241L303.277 78.1062ZM303.879 81.9082C303.33 81.9082 302.875 82.3634 302.875 82.9123C302.875 83.4612 303.33 83.9164 303.879 83.9164C304.428 83.9164 304.883 83.4612 304.883 82.9123C304.883 82.3634 304.428 81.9082 303.879 81.9082ZM311.51 83.9164C312.059 83.9164 312.514 83.4612 312.514 82.9123C312.514 82.3634 312.059 81.9082 311.51 81.9082C310.961 81.9082 310.506 82.3634 310.506 82.9123C310.506 83.4612 310.961 83.9164 311.51 83.9164ZM306.69 86.7278C306.69 87.2767 307.146 87.7319 307.695 87.7319C308.243 87.7319 308.699 87.2767 308.699 86.7278C308.699 86.1789 308.243 85.7237 307.695 85.7237C307.146 85.7237 306.69 86.1789 306.69 86.7278Z" fill="#747474"/>
<path d="M105.313 92.8229H97.186V95.7119H105.124C105.016 96.3869 104.962 96.5759 104.908 96.8999H94.783V100.41H103.45C101.479 102.84 96.16 103.488 94.54 103.704L96.187 107.646C99.94 106.917 103.585 105.594 106.204 102.894C106.744 102.327 107.23 101.463 107.473 101.031C110.281 105.891 116.167 107.133 118.786 107.619L120.433 103.596C114.007 102.894 112.522 101.301 111.739 100.41H120.244V96.8999H108.796C108.958 96.1439 108.985 95.9279 109.012 95.7119H117.787V92.8229H109.228V91.6619H116.761V90.0149H119.623V83.6429H109.552V82.0769H105.421V83.6429H95.485V90.0149H98.158V91.6619H105.313V92.8229ZM105.313 88.5569H99.4V87.0449H105.313V88.5569ZM109.228 87.0449H115.627V88.5569H109.228V87.0449Z" fill="#383838"/>
<path d="M132.394 91.3379V88.7189H134.932V86.0459H127.426V85.2089C131.881 85.1009 133.744 84.8039 135.094 84.5609L133.609 81.6719C132.097 81.9959 129.424 82.4819 123.916 82.5359V85.9919C123.916 88.5029 122.809 89.5829 121.972 90.3929L124.51 93.0389V103.137H128.938C127.642 103.623 125.212 104.136 121.837 104.163L123.484 107.646C127.021 107.214 129.451 106.485 132.34 105.135L130.45 103.137H139.117L137.119 105.162C139.171 106.296 142.87 107.43 146.353 107.7L148 104.244C144.571 104.271 141.898 103.677 140.332 103.137H145.435V91.3379H144.598V88.7189H147.811V86.0459H139.36V85.2089C140.71 85.2359 145.138 85.0739 147.568 84.5609L146.083 81.6719C142.708 82.4279 139.252 82.5089 135.796 82.5359V85.8569C135.796 88.2599 134.797 89.2049 134.068 89.9069L135.742 91.3379H132.394ZM141.466 94.7939H128.506V93.7679H141.466V94.7939ZM141.466 97.7369H128.506V96.6839H141.466V97.7369ZM126.184 91.3379C126.832 90.1769 126.994 89.3669 127.129 88.7189H128.668V91.3379H126.184ZM137.875 91.3379C138.496 90.4469 138.739 89.6909 139.009 88.7189H140.845V91.3379H137.875ZM141.466 100.734H128.506V99.6539H141.466V100.734Z" fill="#383838"/>
<path d="M284.058 93.6148H286.71V81.9188C287.509 80.0998 287.866 78.5528 288.053 77.7198L285.503 77.4818C284.551 81.6298 282.919 83.1428 282.137 83.8738L282.919 86.9848C283.293 86.6618 283.582 86.4238 284.058 85.9308V93.6148ZM289.872 77.4648C289.43 79.7428 288.274 81.8168 286.914 83.1258L288.104 85.7438C288.648 85.2508 289.685 84.3158 290.824 82.1738V93.6148H293.476V90.2998H298.151V87.8008H293.476V86.1518H298.151V83.7038H293.476V82.0888H298.508V79.5728H291.929C292.184 78.7908 292.32 78.1618 292.422 77.6858L289.872 77.4648Z" fill="#383838"/>
<path d="M289.906 110.734C290.535 110.428 291.827 109.799 293.221 108.507C293.969 109.697 294.853 110.649 296.094 110.649C296.944 110.649 297.879 110.36 298.797 107.317L297.301 105.243C296.978 106.365 296.604 107.64 295.975 107.64C295.618 107.64 295.261 106.994 295.006 106.416C295.618 105.515 296.689 103.832 297.641 100.602L295.193 99.7348C295.04 100.398 294.768 101.69 294.037 103.271C293.782 101.894 293.629 100.602 293.544 99.2078H298.423V96.7598H297.063L297.964 96.2328C297.743 95.9778 296.604 94.6858 295.839 94.2438L293.901 95.2978C294.513 95.7568 295.023 96.2838 295.448 96.7598H293.425C293.391 95.2638 293.391 94.8898 293.391 94.4138H290.79C290.807 94.7538 290.875 96.3858 290.892 96.7598H283.463V103.611C283.463 104.767 283.276 106.756 282.103 108.66L284.313 110.717C285.962 107.878 285.996 104.206 285.996 103.815V102.846H287.849C287.832 103.696 287.798 105.294 287.662 105.906C287.526 106.45 287.339 106.45 287.084 106.45H285.928L286.37 109.085H287.985C288.223 109.085 288.325 109.068 288.495 109.034L289.906 110.734ZM285.996 100.551V99.2078H290.994C291.079 101.435 291.504 103.815 292.167 105.94C291.674 106.45 290.994 107.045 289.906 107.708C290.382 105.991 290.382 101.401 290.382 100.551H285.996Z" fill="#383838"/>
<path d="M47.9502 82.3594V105.999H65.9502V101.499H52.9002V82.3594H47.9502Z" fill="#383838"/>
<path d="M69.1473 82.3594V105.999H74.0673V98.1694H83.1873C89.1573 98.1694 90.7173 95.5594 90.7173 90.2194C90.7173 84.4294 88.5873 82.3594 83.3973 82.3594H69.1473ZM82.5273 86.8594C84.4773 86.8594 85.7673 87.0394 85.7673 90.2494C85.7673 93.1894 84.6873 93.6694 82.5273 93.6694H74.0673V86.8594H82.5273Z" fill="#383838"/>
<path d="M219.632 103.903H225.492V109.296H230.419V103.903H236.378V100.64C238.708 103.104 240.406 104.269 241.405 104.968L244.335 99.8411C239.774 97.1112 234.78 92.1174 232.616 87.157H243.802V82.3297H230.519V77.5357H225.492V82.3297H212.241V87.157H223.328C220.831 92.0509 217.635 96.0791 211.775 99.941L214.672 104.968C215.671 104.236 217.135 103.204 219.632 100.574V103.903ZM220.797 99.2419C223.694 95.8794 224.826 93.549 225.492 92.2506V99.2419H220.797ZM230.419 99.2419V92.2506C231.784 94.8141 232.949 96.6451 235.146 99.2419H230.419Z" fill="#FE0000"/>
<path d="M251.193 93.4824H256.253C255.82 98.343 253.357 101.772 246.066 104.502L248.995 109.229C256.386 106.033 260.548 101.439 261.413 93.4824H267.572C267.472 95.8128 267.239 101.606 266.507 103.17C266.174 103.869 265.608 104.136 264.776 104.136H259.948L260.947 109.163H266.906C269.536 109.163 270.469 108.064 271.168 106.499C272.4 103.636 272.766 94.0484 272.766 91.4516C273.831 92.4171 274.397 92.8499 275.03 93.2826L278.359 88.9547C273.365 85.559 270.768 81.1645 269.104 77.3359L264.143 78.5344C265.608 82.1965 267.572 85.6589 270.102 88.6551H253.889C257.751 84.3605 259.283 80.0326 259.882 78.368L254.921 77.3692C253.556 81.1645 251.226 85.0596 245.566 88.7883L248.829 93.3492C249.928 92.4836 250.494 92.0176 251.193 91.3517V93.4824Z" fill="#FE0000"/>
<path d="M160.524 66.8633V109H167.643V59.3352H160.524L153.473 64.4788V72.041L160.524 66.8633Z" fill="#FE0000"/>
<path d="M200.129 58.8242C200.152 58.8242 200.038 59.074 199.789 59.5736C199.561 60.0505 199.244 60.7091 198.835 61.5493C198.426 62.3896 197.949 63.3547 197.404 64.4447C196.859 65.5348 196.28 66.6816 195.667 67.8852C195.076 69.0888 194.463 70.3037 193.827 71.53C193.214 72.7563 192.612 73.9258 192.022 75.0386C191.454 76.1514 190.932 77.1619 190.455 78.0703C189.978 78.9786 189.581 79.7053 189.263 80.2504C189.921 79.8643 190.659 79.6372 191.477 79.5691C192.317 79.4783 193.282 79.4555 194.372 79.501C195.939 79.5464 197.302 79.8189 198.46 80.3185C199.641 80.8181 200.652 81.4426 201.492 82.192C202.332 82.9414 203.025 83.7816 203.57 84.7127C204.137 85.6211 204.58 86.5181 204.898 87.4038C205.216 88.2667 205.432 89.0842 205.545 89.8564C205.682 90.6058 205.75 91.1962 205.75 91.6277C205.75 91.7639 205.75 92.0137 205.75 92.3771C205.75 92.7404 205.75 93.1492 205.75 93.6034C205.75 94.0349 205.738 94.4777 205.716 94.9319C205.716 95.3861 205.704 95.7721 205.682 96.09C205.659 96.249 205.579 96.6691 205.443 97.3504C205.33 98.009 205.103 98.8038 204.762 99.7349C204.444 100.643 203.978 101.631 203.365 102.698C202.752 103.743 201.946 104.742 200.947 105.696C199.948 106.627 198.733 107.433 197.302 108.115C195.871 108.796 194.168 109.216 192.192 109.375C190.126 109.557 188.298 109.42 186.708 108.966C185.118 108.512 183.744 107.865 182.586 107.025C181.428 106.184 180.463 105.219 179.691 104.129C178.919 103.016 178.306 101.881 177.851 100.723C177.42 99.5646 177.125 98.4518 176.966 97.3845C176.83 96.3171 176.807 95.4088 176.898 94.6594C177.034 93.5466 177.182 92.5588 177.34 91.6958C177.499 90.8101 177.681 89.9699 177.886 89.1751C178.113 88.3803 178.362 87.5968 178.635 86.8247C178.907 86.0526 179.225 85.2123 179.589 84.304C179.68 84.0769 179.929 83.5432 180.338 82.703C180.747 81.84 181.246 80.784 181.837 79.535C182.45 78.286 183.131 76.9121 183.881 75.4133C184.63 73.9145 185.38 72.393 186.129 70.8487C187.9 67.2607 189.887 63.2525 192.09 58.8242H200.129ZM198.699 95.1703C198.699 94.3074 198.664 93.3536 198.596 92.309C198.528 91.2643 198.267 90.2765 197.813 89.3454C197.381 88.3916 196.666 87.5741 195.667 86.8928C194.668 86.2115 193.248 85.8028 191.409 85.6665C190.546 85.5984 189.762 85.6892 189.058 85.939C188.354 86.1888 187.73 86.5295 187.185 86.9609C186.64 87.3924 186.163 87.892 185.754 88.4597C185.368 89.0048 185.039 89.5498 184.766 90.0948C184.517 90.6398 184.335 91.1508 184.221 91.6277C184.108 92.0819 184.051 92.4339 184.051 92.6837C184.051 93.2514 184.062 93.8872 184.085 94.5912C184.108 95.2725 184.176 95.9651 184.29 96.6691C184.426 97.3504 184.642 98.0203 184.937 98.6789C185.232 99.3148 185.652 99.8825 186.197 100.382C186.742 100.882 187.435 101.29 188.275 101.608C189.138 101.926 190.205 102.085 191.477 102.085C192.499 102.108 193.385 101.983 194.134 101.711C194.906 101.415 195.553 101.052 196.076 100.621C196.621 100.166 197.063 99.6667 197.404 99.1217C197.745 98.5767 198.006 98.043 198.188 97.5207C198.392 96.9984 198.528 96.5329 198.596 96.1241C198.664 95.6926 198.699 95.3747 198.699 95.1703Z" fill="#FE0000"/>
<path d="M65.3862 47.4618C65.3862 47.9207 65.1432 48.2718 64.6302 48.2718H60.0672L60.7422 52.5378H67.0332C67.6272 52.5378 69.5982 52.1598 69.5982 49.9188V27.8867H50.1042V39.2268C50.1042 44.4648 48.5652 47.3538 46.7832 49.7568L50.5362 52.6998C52.9662 49.3248 53.7492 45.6797 54.0192 44.3027H65.3862V47.4618ZM54.3162 31.7748H65.3862V34.2048H54.3162V31.7748ZM54.3162 37.9038H65.3862V40.5498H54.3162V37.9038Z" fill="#383838"/>
<path d="M75.2412 45.4368C75.3492 45.4098 75.4032 45.4098 75.4572 45.3558V52.5378H79.1292V51.5928H86.2302V50.2428L87.7152 52.6728C89.1462 52.1058 91.3062 50.9178 92.9532 49.1628L90.8742 47.0028H95.6802L93.5202 49.1898C95.5722 51.3228 97.8672 52.3758 98.5152 52.6728L100.297 49.0818C98.5962 48.4878 97.5432 48.0828 96.1122 47.0028H99.0282V32.5848H94.6002C94.7892 32.1257 94.8162 32.0178 95.0862 31.3158H99.7572V27.6437H87.6342V31.3698H91.2792C91.1442 31.9098 90.9822 32.2608 90.8472 32.5848H87.7152V41.6838C85.9062 41.2248 84.2862 40.3068 83.7462 39.9828C85.2852 38.4168 86.0412 37.1748 86.4462 36.4727V33.9887H87.2022V28.5887H83.0442V26.9688H79.1022V28.5887H74.9172V33.9887H77.1312C75.6732 35.5817 74.6742 36.0138 73.9182 36.3378L75.7542 39.3888C76.2672 39.0648 76.6182 38.8218 77.2392 38.3358C77.6442 38.9298 77.9952 39.3618 78.4272 39.8748C76.2672 41.0898 74.7282 41.4408 73.8642 41.6298L75.2412 45.4368ZM82.6122 46.8138V48.6768H79.1292V46.8138H82.6122ZM86.2302 44.8158L87.7152 42.0887V47.0028H90.4422C89.0922 48.1368 87.9852 48.7578 86.2302 49.3248V44.8158ZM95.1402 42.7098V44.0597H91.4682V42.7098H95.1402ZM95.1402 39.0108V40.3608H91.4682V39.0108H95.1402ZM78.1572 44.0597C79.0752 43.5737 79.9392 43.0608 80.9652 42.3317C81.4512 42.7097 82.2612 43.3307 83.5302 44.0597H78.1572ZM95.1402 35.3387V36.6618H91.4682V35.3387H95.1402ZM81.2352 33.6378C81.4512 33.2327 81.5052 33.1248 81.7212 32.6658L78.5892 32.2608V31.7477H83.8542V33.6378H81.2352ZM82.5582 36.4188C82.2342 36.9048 81.9642 37.2558 81.0732 38.0388C80.1282 37.2018 79.7232 36.7428 79.4802 36.4188H82.5582Z" fill="#383838"/>
<path d="M230.762 39.9828C230.168 38.7138 229.25 37.1748 228.278 35.9598L225.929 37.1748C226.901 38.4708 227.9 40.3607 228.386 41.3868L230.762 39.9828ZM234.434 37.9848C233.813 36.6618 232.814 35.1768 231.977 34.2048L229.628 35.4198C230.789 36.8237 231.842 38.8218 232.112 39.3888L234.434 37.9848ZM234.002 28.6157C233.921 28.6428 233.543 28.6428 233.516 28.6428C226.415 28.8587 224.795 28.9398 210.188 29.6958L210.431 34.3127C211.997 34.1508 219.8 33.4488 221.555 33.2868C218.153 35.5818 215.426 38.9568 215.426 43.0338C215.426 46.1658 217.397 48.5958 219.881 49.7568C222.257 50.8638 224.876 51.4038 231.113 51.4038L231.626 46.7598C230.492 46.8138 229.547 46.8408 226.766 46.6788C224.714 46.5438 220.151 46.2198 220.151 42.3858C220.151 38.2548 224.822 34.9338 227.36 33.7728C228.98 33.0168 230.006 32.9628 231.545 32.9628C232.544 32.9628 233.489 33.0168 234.11 33.0438L234.002 28.6157Z" fill="#383838"/>
<path d="M197.591 35.1506C197.591 40.0111 196.992 43.9063 196.659 45.1048C196.426 45.8705 196.093 46.9025 194.395 46.9025H189.002L189.967 52.096H196.825C200.188 52.096 201.053 49.4327 201.32 48.6337C201.753 47.3353 202.951 41.6757 203.018 30.3233H188.469V29.7906V26.4281H205.714V21.501H174.287V26.4281H183.242V29.6241C183.242 38.2134 180.746 43.5401 173.621 47.5351L176.984 52.1959C184.308 47.4352 186.904 41.5759 187.937 35.1506H197.591Z" fill="#FE0000"/>
<path d="M116.263 30.5515H119.261C121.464 30.5515 123.28 31.2215 124.711 32.5613C126.164 33.9466 126.914 35.8996 126.959 38.4203C126.914 40.8956 126.164 42.8032 124.711 44.143C123.28 45.5737 121.52 46.289 119.431 46.289C117.478 46.289 115.911 45.7554 114.73 44.688C113.572 43.6661 112.675 42.3263 112.039 40.6685H104.92C105.692 44.8016 107.384 47.9582 109.995 50.1382C112.607 52.3183 115.605 53.4084 118.988 53.4084C123.371 53.363 126.959 51.9663 129.752 49.2185C132.591 46.5388 134.033 42.8713 134.079 38.2159C134.079 36.1267 133.636 34.1282 132.75 32.2207C131.819 30.3131 130.309 28.678 128.22 27.3155C130.263 25.9302 131.683 24.3519 132.478 22.5806C133.159 20.8093 133.499 18.9698 133.499 17.0623C133.454 13.2925 132.16 10.0224 129.616 7.25189C126.959 4.41323 123.371 2.9712 118.852 2.92578C115.287 2.9712 112.221 4.24291 109.655 6.74093C107.043 9.26165 105.556 12.3615 105.192 16.0404H112.312C112.766 13.9965 113.652 12.4864 114.969 11.5099C116.218 10.5334 117.603 10.0451 119.125 10.0451C121.236 10.0905 122.962 10.7605 124.302 12.0549C125.642 13.3947 126.335 15.1093 126.38 17.1985C126.38 19.2651 125.71 20.9455 124.37 22.24C123.031 23.5798 121.146 24.2497 118.716 24.2497H116.263V30.5515Z" fill="#FE0000"/>
<path d="M160.53 38.6928C160.394 43.7115 158.066 46.2436 153.547 46.289C149.005 46.2436 146.689 43.7115 146.598 38.6928V17.6414C146.689 12.668 149.005 10.136 153.547 10.0451C158.066 10.136 160.394 12.668 160.53 17.6414V38.6928ZM139.478 39.1016C139.524 43.6661 140.989 47.186 143.873 49.6613C146.575 52.1139 149.8 53.363 153.547 53.4084C157.407 53.363 160.689 52.1139 163.391 49.6613C166.139 47.186 167.558 43.6661 167.649 39.1016V17.1985C167.558 12.6113 166.139 9.07998 163.391 6.60467C160.689 4.15208 157.407 2.92578 153.547 2.92578C149.8 2.92578 146.575 4.15208 143.873 6.60467C140.989 9.07998 139.524 12.6113 139.478 17.1985V39.1016Z" fill="#FE0000"/>
<path fill-rule="evenodd" clip-rule="evenodd" d="M296.267 1.73337H244.733V55.8051H296.267V1.73337ZM243 0V57.5385H298V0H243Z" fill="#383838"/>
<path d="M255.235 8.45007H260.516C260.474 8.72249 260.474 8.72249 260.348 9.16256H256.157V16.057H268.5V9.16256H263.387C263.45 9.03682 263.617 8.53389 263.638 8.45007H269.275V6.50119H266.928C267.159 6.08208 267.222 5.95635 267.348 5.51628L264.12 5.34863C264.057 5.76775 263.995 5.9773 263.785 6.50119H261.019C260.872 6.01921 260.726 5.6001 260.579 5.34863L257.498 5.45341C257.645 5.72583 257.813 6.10303 258.001 6.50119H255.235V8.45007ZM265.503 12.1802V12.8507H259.07V12.1802H265.503ZM265.503 10.4618V11.1324H259.07V10.4618H265.503ZM265.503 13.8985V14.5691H259.07V13.8985H265.503ZM249.745 8.1986C251.191 8.65962 252.427 9.18351 253.894 10.0217L255.068 7.15082C253.894 6.48024 252.72 5.95635 250.939 5.45341L249.745 8.1986ZM249.661 19.4937V21.7359H253.915L252.113 22.6161C253.098 23.2657 253.496 23.7058 254.963 25.2774L257.876 23.7896C257.247 23.0561 256.534 22.3227 255.822 21.7359H263.198V22.4903C263.198 22.7209 263.198 22.9304 262.8 22.9304H259.741L260.265 25.2984H264.414C266.006 25.2984 266.405 24.3763 266.405 23.7267V21.7359H269.275V19.4937H266.405V18.7183H269.213L269.716 16.6856H257.121C255.99 16.6856 255.109 16.4761 254.69 15.7845V10.5456H249.661V13.2908H251.61V15.093C250.394 15.8474 250.311 15.8893 249.2 16.4132L250.29 19.4937H249.661ZM250.499 19.4937C250.876 19.2632 251.819 18.5297 253.119 17.3353C253.538 17.7963 254.418 18.7183 256.681 18.7183H263.198V19.4937H250.499Z" fill="#383838"/>
<path d="M275.583 9.30925H281.032C280.843 14.3386 278.307 19.4308 272.272 22.3437L274.305 25.3403C277.197 23.7267 280.969 20.9187 282.519 15.4912C282.959 17.1886 284.112 21.715 290.65 25.3403L292.788 22.2179C285.181 18.5926 284.259 12.6412 284.301 6.12399H275.583V9.30925Z" fill="#383838"/>
<path d="M260.537 50.4032C262.821 47.8885 264.728 44.5985 264.875 37.2849H266.006C265.985 38.7099 265.86 45.1852 265.399 46.5892C265.231 47.0922 264.875 47.0922 264.644 47.0922H262.926L263.471 50.3194H265.944C268.144 50.3194 268.395 48.3076 268.626 44.9757C268.731 43.6345 268.773 42.2724 268.793 40.9312C268.793 40.5121 268.877 36.2372 268.919 34.1206H264.896V30.4744H261.962V34.1206H260.432V32.2766H256.744V30.4744H253.726V32.2766H249.577V35.1894H260.411V37.2849H261.962C261.836 42.922 260.872 45.5205 257.959 48.1609L260.537 50.4032ZM256.283 39.2548C255.927 40.4702 255.675 41.057 255.424 41.5809C254.271 40.6588 253.831 40.3654 253.391 40.072L251.296 42.2724C251.861 42.6705 252.616 43.2154 253.726 44.1794C252.008 46.1282 250.038 47.0084 249.074 47.4275L250.709 50.466C253.643 48.8105 255.109 47.2808 255.948 46.2959C256.513 46.8826 257.037 47.4903 257.477 48.0981L259.573 45.5415C259.175 44.9757 258.588 44.4308 257.771 43.6345C258.567 42.0628 258.84 41.2246 258.965 40.8055L261.166 39.171C260.558 38.1441 259.007 35.9647 258.19 35.2732L255.822 36.7191C256.828 37.8088 257.373 38.5004 258.127 39.7787L256.283 39.2548ZM252.218 35.2523C251.631 36.4677 250.29 38.1022 249.095 38.8776L250.897 41.4342C252.28 40.2187 253.831 38.4375 254.774 36.6563L252.218 35.2523Z" fill="#383838"/>
<path d="M292.683 46.9874C290.231 46.254 288.492 45.5834 286.627 44.0117H292.41V41.1617H284.007V40.2397H290.965V30.9983H274.116V40.2397H280.969V41.1617H272.628V44.0117H278.307C277.867 44.3679 275.96 45.8768 272.335 46.9245L273.949 50.0679C275.206 49.4811 278.286 48.0981 280.969 45.1852V50.3194H284.007V45.2062C286.291 47.9095 289.204 49.3135 290.965 50.1098L292.683 46.9874ZM280.969 33.5339V34.6236H277.113V33.5339H280.969ZM280.969 36.6772V37.8507H277.113V36.6772H280.969ZM287.947 33.5339V34.6236H284.007V33.5339H287.947ZM287.947 36.6772V37.8507H284.007V36.6772H287.947Z" fill="#383838"/>
<path fill-rule="evenodd" clip-rule="evenodd" d="M298 121L46 121L46 119L298 119L298 121Z" fill="black"/>
<path d="M4.75039 143.35C4.75039 142.94 4.41039 142.6 4.00039 142.6C3.59039 142.6 3.25039 142.94 3.25039 143.35C3.25039 143.76 3.59039 144.1 4.00039 144.1C4.41039 144.1 4.75039 143.76 4.75039 143.35ZM0.700391 142.61L0.410391 142.9L3.71039 146.2L0.400391 149.51L0.690391 149.8L4.00039 146.49L7.30039 149.79L7.59039 149.5L4.29039 146.2L7.59039 142.9L7.30039 142.61L4.00039 145.91L0.700391 142.61ZM1.15039 145.45C0.740391 145.45 0.400391 145.79 0.400391 146.2C0.400391 146.61 0.740391 146.95 1.15039 146.95C1.56039 146.95 1.90039 146.61 1.90039 146.2C1.90039 145.79 1.56039 145.45 1.15039 145.45ZM6.85039 146.95C7.26039 146.95 7.60039 146.61 7.60039 146.2C7.60039 145.79 7.26039 145.45 6.85039 145.45C6.44039 145.45 6.10039 145.79 6.10039 146.2C6.10039 146.61 6.44039 146.95 6.85039 146.95ZM3.25039 149.05C3.25039 149.46 3.59039 149.8 4.00039 149.8C4.41039 149.8 4.75039 149.46 4.75039 149.05C4.75039 148.64 4.41039 148.3 4.00039 148.3C3.59039 148.3 3.25039 148.64 3.25039 149.05Z" fill="#747474"/>
<path d="M15.7467 141.78C15.5967 142.13 15.3167 142.66 15.1167 142.99L15.5967 143.17C15.8167 142.87 16.0867 142.42 16.2967 141.99L15.7467 141.78ZM13.4367 142.97C13.3367 142.65 13.0667 142.18 12.8167 141.84L12.3067 142.03C12.5467 142.39 12.8067 142.88 12.8967 143.19L13.4367 142.97ZM18.3267 146.98H17.5967V147.78H14.8967V146.99H14.1767V147.78H11.7767V148.44H14.1167C13.9667 149.07 13.4867 149.71 12.0167 150.17C12.1767 150.31 12.3867 150.58 12.4767 150.75C14.2367 150.17 14.7367 149.3 14.8567 148.44H17.5967V150.75H18.3267V148.44H20.6967V147.78H18.3267V146.98ZM13.3367 144.29C13.2467 144.82 13.0967 145.37 12.8667 145.79C12.9867 145.83 13.1867 145.93 13.2667 145.99C13.4867 145.57 13.6667 144.96 13.7767 144.39L13.3367 144.29ZM15.5467 145.48C15.4867 145.17 15.3167 144.66 15.1467 144.29L14.7567 144.39C14.9267 144.78 15.0967 145.29 15.1567 145.61L15.5467 145.48ZM17.7167 143.31H19.5467C19.3467 143.96 19.0467 144.5 18.6367 144.95C18.2167 144.5 17.8967 143.97 17.6867 143.38L17.7167 143.31ZM20.7467 143.31V142.7H17.9867C18.1167 142.41 18.2167 142.1 18.3167 141.8L17.7067 141.63C17.4167 142.61 16.9467 143.58 16.3867 144.24V143.28H14.5767V141.63H13.9467V143.28H12.1567V146.81H12.7267V143.82H13.9967V146.65H14.5267V143.82H15.7967V146.05C15.7967 146.14 15.7767 146.17 15.6867 146.17C15.5867 146.18 15.3267 146.18 14.9967 146.17C15.0667 146.33 15.1567 146.56 15.1667 146.72C15.6167 146.72 15.9367 146.72 16.1367 146.62C16.3467 146.52 16.3867 146.36 16.3867 146.06V144.31C16.5167 144.46 16.7067 144.71 16.7867 144.82C16.9767 144.58 17.1567 144.32 17.3367 144.03C17.5767 144.52 17.8667 144.98 18.2067 145.37C17.7567 145.74 17.2067 146.03 16.5767 146.26C16.6867 146.39 16.8667 146.68 16.9267 146.82C17.5967 146.55 18.1767 146.23 18.6567 145.82C19.1667 146.26 19.7567 146.6 20.4467 146.83C20.5367 146.66 20.7167 146.42 20.8567 146.29C20.1867 146.1 19.5967 145.79 19.1067 145.39C19.6067 144.84 19.9867 144.15 20.2267 143.31H20.7467Z" fill="#747474"/>
<path d="M25.8467 147.29C25.5967 147.07 24.7167 146.3 24.2567 145.93C24.7767 145.26 25.2367 144.52 25.5467 143.75L25.1267 143.47L24.9967 143.5H24.1267V141.64H23.3967V143.5H21.8267V144.18H24.6067C23.9167 145.51 22.6667 146.77 21.4767 147.46C21.5967 147.6 21.7867 147.94 21.8667 148.13C22.3767 147.8 22.8967 147.38 23.3967 146.89V150.76H24.1267V146.62C24.5767 147.04 25.1267 147.6 25.3867 147.89L25.8467 147.29ZM28.5667 149.75V145.6H30.6967V144.88H28.5667V141.71H27.8267V144.88H25.6867V145.6H27.8267V149.75H25.2967V150.48H30.8967V149.75H28.5667Z" fill="#747474"/>
<path d="M33.8767 150.13C35.1767 150.13 36.2267 149.35 36.2267 148.04C36.2267 147.04 35.5367 146.38 34.6667 146.18V146.14C35.4467 145.85 35.9767 145.26 35.9767 144.37C35.9767 143.19 35.0767 142.53 33.8467 142.53C32.9967 142.53 32.3467 142.9 31.7967 143.41L32.2867 143.99C32.6967 143.58 33.2167 143.28 33.8067 143.26C34.5667 143.28 35.0467 143.73 35.0467 144.44C35.0467 145.23 34.5267 145.84 33.0167 145.84V146.54C34.7067 146.54 35.2967 147.13 35.2967 148.01C35.2967 148.85 34.6767 149.37 33.8067 149.37C32.9767 149.37 32.4167 148.98 31.9867 148.53L31.5267 149.13C32.0067 149.65 32.7267 150.13 33.8767 150.13Z" fill="#747474"/>
<path d="M40.5336 145.47C40.6736 145.17 40.8036 144.84 40.8936 144.59C40.9436 144.42 41.0036 144.26 41.0836 144.07L40.1936 143.88C40.1736 144.07 40.1336 144.29 40.0836 144.47C39.9836 144.86 39.8036 145.32 39.5436 145.75C39.2136 146.28 38.6536 147.03 38.0336 147.49L38.7636 147.92C39.1936 147.56 39.7836 146.81 40.1636 146.18H42.3036C42.1636 148.17 41.3136 149.2 40.5236 149.83C40.3336 149.98 39.9636 150.2 39.7436 150.29L40.5336 150.81C42.0136 149.91 42.9136 148.49 43.0736 146.18H44.5436C44.7436 146.18 45.0636 146.19 45.3236 146.21V145.42C45.0836 145.46 44.7536 145.47 44.5436 145.47H40.5336Z" fill="#747474"/>
<path d="M49.5136 146.94C49.5936 146.35 49.6236 145.78 49.6236 145.26H54.1936V146.94H49.5136ZM54.1936 142.89V144.55H49.6236V142.89H54.1936ZM54.9636 142.16H48.8736V145.22C48.8736 146.81 48.7136 148.84 47.1236 150.24C47.2736 150.35 47.5736 150.62 47.6736 150.78C48.6436 149.93 49.1436 148.8 49.3936 147.67H54.1936V149.67C54.1936 149.89 54.1136 149.96 53.8836 149.97C53.6536 149.97 52.8536 149.98 52.0136 149.95C52.1436 150.16 52.2836 150.51 52.3336 150.72C53.4036 150.72 54.0636 150.71 54.4436 150.58C54.8136 150.46 54.9636 150.2 54.9636 149.68V142.16Z" fill="#747474"/>
<path d="M65.4936 143.48C65.1236 143.48 64.8336 143.18 64.8336 142.82C64.8336 142.46 65.1236 142.15 65.4936 142.15C65.8536 142.15 66.1536 142.46 66.1536 142.82C66.1536 143.18 65.8536 143.48 65.4936 143.48ZM59.0836 143.15C58.7536 143.15 58.3536 143.12 58.0836 143.09V143.97C58.3336 143.96 58.6836 143.94 59.0736 143.94H64.1936C64.0536 144.9 63.5936 146.29 62.8836 147.2C62.0436 148.27 60.9236 149.12 58.9836 149.6L59.6636 150.35C61.4936 149.78 62.6836 148.85 63.6036 147.68C64.3936 146.65 64.8736 145.04 65.0936 143.99L65.1136 143.88C65.2336 143.92 65.3636 143.94 65.4936 143.94C66.1136 143.94 66.6136 143.44 66.6136 142.82C66.6136 142.2 66.1136 141.69 65.4936 141.69C64.8736 141.69 64.3736 142.2 64.3736 142.82C64.3736 142.93 64.3936 143.04 64.4236 143.14C64.3036 143.15 64.1936 143.15 64.0936 143.15H59.0836Z" fill="#747474"/>
<path d="M74.9936 144.83C74.8836 144.89 74.6736 144.91 74.4436 144.91H69.1736C68.9036 144.91 68.5636 144.89 68.2036 144.85V145.69C68.5536 145.67 68.9336 145.66 69.1736 145.66H74.4836C74.3036 146.38 73.9036 147.23 73.2936 147.87C72.4436 148.76 71.1936 149.41 69.7736 149.7L70.3936 150.41C71.6636 150.06 72.9236 149.47 73.9736 148.32C74.7136 147.51 75.1636 146.47 75.4336 145.48C75.4536 145.41 75.5136 145.28 75.5636 145.19L74.9936 144.83ZM69.0936 143.38C69.3636 143.36 69.6836 143.35 69.9936 143.35H73.9136C74.2536 143.35 74.5936 143.36 74.8336 143.38V142.55C74.5936 142.59 74.2436 142.6 73.9236 142.6H69.9936C69.6736 142.6 69.3536 142.59 69.0936 142.55V143.38Z" fill="#747474"/>
<path d="M79.0536 142.67L78.4836 143.28C79.2236 143.78 80.4736 144.85 80.9736 145.37L81.6036 144.74C81.0436 144.18 79.7636 143.14 79.0536 142.67ZM78.1936 149.37L78.7236 150.19C80.3936 149.88 81.6536 149.27 82.6536 148.63C84.1636 147.69 85.3236 146.33 86.0136 145.08L85.5336 144.23C84.9536 145.46 83.7336 146.94 82.1936 147.91C81.2436 148.5 79.9436 149.11 78.1936 149.37Z" fill="#747474"/>
<path d="M89.4936 148.6C89.0636 148.6 88.4836 148.05 88.4836 146.8C88.4836 145.47 89.6436 143.84 91.5436 143.6C91.4336 144.51 91.2436 145.45 90.9936 146.27C90.4836 147.94 89.9336 148.6 89.4936 148.6ZM92.1036 150.26C94.4636 149.95 95.8336 148.56 95.8336 146.48C95.8336 144.48 94.3536 142.84 92.0336 142.84C89.6136 142.84 87.6936 144.72 87.6936 146.87C87.6936 148.5 88.5836 149.52 89.4636 149.52C90.3836 149.52 91.1736 148.47 91.7836 146.44C92.0536 145.51 92.2436 144.51 92.3736 143.59C94.0536 143.73 95.0036 144.96 95.0036 146.46C95.0036 148.17 93.7636 149.11 92.4936 149.39C92.2536 149.44 91.9536 149.49 91.6436 149.51L92.1036 150.26Z" fill="#747474"/>
<path d="M104.954 143.28H101.754V142.49H104.954V143.28ZM104.954 144.6H101.754V143.8H104.954V144.6ZM105.644 141.93H101.074V145.16H105.644V141.93ZM100.224 146.84L99.2036 147.3V144.49H100.284V143.79H99.2036V141.71H98.5136V143.79H97.3436V144.49H98.5136V147.62C98.0036 147.85 97.5336 148.05 97.1536 148.21L97.4436 148.94C98.2836 148.54 99.3736 148.01 100.384 147.5L100.224 146.84ZM106.354 146.35V145.72H100.094V146.35H101.494C101.024 147.17 100.304 147.88 99.5136 148.35C99.6636 148.45 99.9236 148.69 100.024 148.81C100.474 148.51 100.924 148.12 101.324 147.67H102.334C101.794 148.56 100.914 149.46 100.084 149.91C100.264 150.03 100.464 150.21 100.574 150.37C101.494 149.79 102.474 148.7 103.004 147.67H103.974C103.564 148.75 102.834 149.83 102.024 150.37C102.204 150.48 102.434 150.65 102.554 150.8C103.414 150.15 104.194 148.86 104.594 147.67H105.374C105.244 149.24 105.094 149.87 104.924 150.05C104.854 150.15 104.764 150.16 104.624 150.16C104.474 150.16 104.144 150.15 103.774 150.12C103.874 150.27 103.944 150.54 103.944 150.72C104.344 150.74 104.714 150.74 104.934 150.73C105.164 150.7 105.344 150.65 105.494 150.48C105.774 150.19 105.934 149.41 106.084 147.35C106.104 147.25 106.114 147.05 106.114 147.05H101.814C101.974 146.83 102.114 146.59 102.244 146.35H106.354Z" fill="#747474"/>
<path d="M114.084 147.46V149.69H109.494V147.46H114.084ZM108.764 150.77H109.494V150.36H114.084V150.77H114.844V146.79H108.764V150.77ZM109.284 144.88V145.54H114.294V144.88H109.284ZM111.344 141.66C110.564 142.94 108.894 144.46 107.154 145.34C107.324 145.5 107.524 145.76 107.614 145.93C109.324 145.02 110.944 143.6 111.764 142.38C112.694 143.66 114.444 145.06 115.994 145.87C116.124 145.66 116.304 145.4 116.484 145.23C114.914 144.52 113.154 143.13 112.094 141.66H111.344Z" fill="#747474"/>
<path d="M118.724 147.56C117.894 147.56 117.204 148.24 117.204 149.08C117.204 149.92 117.894 150.61 118.724 150.61C119.574 150.61 120.254 149.92 120.254 149.08C120.254 148.24 119.574 147.56 118.724 147.56ZM118.724 150.1C118.174 150.1 117.714 149.65 117.714 149.08C117.714 148.53 118.174 148.07 118.724 148.07C119.294 148.07 119.734 148.53 119.734 149.08C119.734 149.65 119.294 150.1 118.724 150.1Z" fill="#747474"/>
<path d="M134.784 142.96C134.594 143.01 134.404 143.01 134.254 143.01H129.234C128.904 143.01 128.514 142.98 128.234 142.95V143.83C128.494 143.82 128.834 143.8 129.234 143.8H134.344C134.214 144.76 133.744 146.15 133.034 147.06C132.194 148.13 131.074 148.98 129.134 149.47L129.814 150.22C131.654 149.64 132.844 148.71 133.754 147.54C134.544 146.51 135.024 144.9 135.244 143.85C135.284 143.66 135.324 143.49 135.394 143.35L134.784 142.96Z" fill="#747474"/>
<path d="M141.204 145.98C141.234 146.18 141.264 146.38 141.264 146.57C141.264 147.88 141.074 148.98 139.724 149.89C139.494 150.05 139.254 150.15 139.034 150.23L139.744 150.79C141.854 149.62 142.054 148.11 142.074 145.98H141.204ZM144.984 144.53C144.854 144.56 144.584 144.58 144.434 144.58H139.494C139.194 144.58 138.834 144.55 138.554 144.51V145.34C138.864 145.31 139.194 145.3 139.494 145.3L144.274 145.31C143.984 145.8 143.264 146.68 142.554 147.11L143.204 147.56C144.104 146.94 144.944 145.69 145.234 145.22C145.284 145.14 145.374 145.02 145.434 144.95L144.984 144.53Z" fill="#747474"/>
<path d="M147.804 146.65C148.114 146.62 148.644 146.6 149.194 146.6H154.684C155.134 146.6 155.554 146.64 155.754 146.65V145.67C155.534 145.69 155.174 145.72 154.674 145.72H149.194C148.634 145.72 148.104 145.69 147.804 145.67V146.65Z" fill="#747474"/>
<path d="M163.776 142.92C163.616 142.97 163.356 143.01 163.026 143.01H159.166C158.866 143.01 158.296 142.96 158.156 142.94V143.85C158.266 143.84 158.816 143.8 159.166 143.8H163.066C162.816 144.62 162.086 145.81 161.406 146.58C160.376 147.73 158.896 148.92 157.286 149.55L157.926 150.22C159.406 149.55 160.756 148.45 161.826 147.3C162.846 148.21 163.906 149.39 164.576 150.27L165.276 149.66C164.626 148.88 163.406 147.58 162.356 146.68C163.066 145.78 163.696 144.61 164.036 143.75C164.096 143.61 164.226 143.39 164.286 143.31L163.776 142.92Z" fill="#747474"/>
<path d="M174.756 146.58C173.696 146.05 171.806 145.33 170.486 144.93V143.3C170.486 143 170.526 142.57 170.556 142.26H169.576C169.636 142.57 169.656 143.02 169.656 143.3V149.12C169.656 149.49 169.636 149.98 169.596 150.3H170.556C170.516 149.97 170.496 149.44 170.496 149.12L170.486 145.82C171.596 146.17 173.326 146.84 174.416 147.43L174.756 146.58Z" fill="#747474"/>
<path d="M184.386 143.53C184.176 143.13 183.816 142.52 183.566 142.17L183.036 142.39C183.306 142.77 183.646 143.37 183.846 143.78L184.386 143.53ZM179.026 146.39C180.266 146.07 181.996 145.54 183.116 145.09C183.416 144.98 183.776 144.82 184.056 144.7L183.706 143.9C183.426 144.07 183.136 144.22 182.826 144.35C181.786 144.8 180.206 145.28 179.026 145.57V143.31C179.026 143.03 179.046 142.73 179.076 142.5H178.146C178.196 142.73 178.206 143.07 178.206 143.31V148.81C178.206 149.62 178.636 149.97 179.406 150.11C179.816 150.18 180.416 150.21 181.006 150.21C182.096 150.21 183.596 150.13 184.466 150V149.09C183.636 149.31 182.106 149.41 181.046 149.41C180.556 149.41 180.036 149.38 179.726 149.33C179.236 149.23 179.026 149.1 179.026 148.59V146.39ZM184.136 141.99C184.416 142.37 184.746 142.93 184.966 143.37L185.506 143.12C185.316 142.75 184.926 142.13 184.666 141.76L184.136 141.99Z" fill="#747474"/>
<path d="M193.076 149.13C193.216 148.21 193.506 146.23 193.586 145.55C193.596 145.47 193.626 145.34 193.656 145.24L193.046 144.95C192.956 144.99 192.706 145.02 192.546 145.02H189.506C189.256 145.02 188.956 144.99 188.716 144.96V145.8C188.966 145.79 189.226 145.77 189.516 145.77H192.696C192.666 146.34 192.376 148.29 192.226 149.13H188.606C188.296 149.13 188.016 149.11 187.776 149.09V149.92C188.066 149.9 188.296 149.89 188.606 149.89H194.086C194.296 149.89 194.666 149.9 194.846 149.91V149.1C194.636 149.12 194.276 149.13 194.056 149.13H193.076Z" fill="#747474"/>
<path d="M197.306 146.65C197.616 146.62 198.146 146.6 198.696 146.6H204.186C204.636 146.6 205.056 146.64 205.256 146.65V145.67C205.036 145.69 204.676 145.72 204.176 145.72H198.696C198.136 145.72 197.606 145.69 197.306 145.67V146.65Z" fill="#747474"/>
<path d="M213.826 142.92V143.62H211.816C211.886 143.41 211.976 143.17 212.056 142.92H213.826ZM215.706 143.62H214.506V142.38H212.226C212.296 142.15 212.366 141.93 212.426 141.72L211.706 141.63C211.646 141.86 211.566 142.12 211.496 142.38H209.836V142.92H211.316C211.236 143.17 211.156 143.41 211.076 143.62H209.186V144.16H215.706V143.62ZM211.096 148.21V147.47H212.696V148.21H211.096ZM210.666 145.13H213.996V145.89H210.666V145.13ZM212.696 149.58H213.396V148.74H215.696V148.21H213.396V147.47H215.436V146.92H213.396V146.38H214.716V144.65H209.986V146.38H212.696V146.92H209.486V147.47H210.416V148.21H209.186V148.74H212.696V149.58ZM208.936 143.46C208.646 142.99 208.006 142.34 207.446 141.9L206.876 142.3C207.426 142.77 208.056 143.43 208.326 143.9L208.936 143.46ZM208.756 145.55H206.786V146.25H208.056V148.81C207.606 149.23 207.096 149.65 206.676 149.96L207.066 150.67C207.556 150.24 208.016 149.82 208.456 149.39C209.076 150.17 209.976 150.52 211.286 150.57C212.406 150.62 214.516 150.6 215.636 150.55C215.666 150.33 215.786 149.99 215.876 149.82C214.676 149.9 212.376 149.93 211.276 149.88C210.106 149.84 209.226 149.5 208.756 148.76V145.55Z" fill="#747474"/>
<path d="M218.546 143.04L217.586 143.02C217.636 143.26 217.646 143.67 217.646 143.9C217.646 144.48 217.656 145.68 217.756 146.54C218.026 149.11 218.926 150.04 219.856 150.04C220.536 150.04 221.146 149.47 221.736 147.79L221.106 147.07C220.846 148.07 220.386 149.09 219.876 149.09C219.176 149.09 218.696 148 218.536 146.34C218.466 145.53 218.456 144.62 218.466 144C218.476 143.74 218.506 143.28 218.546 143.04ZM223.706 143.31L222.926 143.58C223.866 144.74 224.466 146.7 224.636 148.48L225.446 148.16C225.306 146.49 224.596 144.46 223.706 143.31Z" fill="#747474"/>
<path d="M233.056 145.93C233.786 146.54 234.146 147.28 234.146 147.95C234.146 148.98 233.186 149.62 231.686 149.62C230.556 149.62 230.016 149.02 230.016 148.08C230.016 147.84 230.036 147.49 230.076 147.1C230.196 147.1 230.316 147.1 230.436 147.1C231.106 147.1 231.716 147.08 232.376 147.01L232.396 146.25C231.706 146.34 231.006 146.37 230.336 146.37H230.146C230.216 145.8 230.286 145.18 230.366 144.6H230.436C231.226 144.6 231.816 144.56 232.446 144.5L232.466 143.75C231.886 143.83 231.216 143.87 230.466 143.87C230.516 143.46 230.566 143.11 230.596 142.86C230.626 142.64 230.656 142.44 230.726 142.17L229.826 142.12C229.846 142.36 229.836 142.58 229.816 142.81C229.796 143.08 229.756 143.44 229.706 143.84C228.966 143.8 228.166 143.68 227.546 143.48L227.506 144.22C228.126 144.38 228.906 144.5 229.616 144.56C229.546 145.14 229.466 145.76 229.396 146.34C228.696 146.29 227.956 146.17 227.306 145.94L227.266 146.7C227.866 146.89 228.586 147 229.326 147.06C229.276 147.53 229.246 147.93 229.246 148.2C229.246 149.82 230.336 150.41 231.686 150.41C233.636 150.41 234.966 149.51 234.966 148.04C234.966 147.19 234.626 146.5 233.946 145.75L233.056 145.93Z" fill="#747474"/>
<path d="M237.166 150H241.186V149.24H239.716V142.67H239.016C238.616 142.9 238.146 143.07 237.496 143.19V143.77H238.796V149.24H237.166V150Z" fill="#747474"/>
<path d="M251.172 144.47V143.73H247.212V141.64H246.442V143.73H242.512V144.47H245.982C245.142 146.18 243.692 147.8 242.172 148.59C242.342 148.73 242.592 149.01 242.702 149.19C244.172 148.34 245.522 146.83 246.442 145.1V148.16H244.492V148.9H246.442V150.76H247.212V148.9H249.112V148.16H247.212V145.1C248.112 146.83 249.452 148.35 250.962 149.18C251.072 148.97 251.332 148.68 251.512 148.53C249.942 147.77 248.502 146.18 247.672 144.47H251.172Z" fill="#747474"/>
<path d="M253.622 142.43C253.622 142.64 253.582 142.9 253.552 143.13C253.432 143.94 253.112 145.64 253.112 147.1C253.112 148.44 253.272 149.58 253.472 150.28L254.192 150.23L254.162 149.88C254.162 149.77 254.182 149.58 254.212 149.44C254.302 148.97 254.662 147.92 254.912 147.22L254.482 146.9C254.322 147.29 254.102 147.87 253.932 148.32C253.872 147.84 253.852 147.44 253.852 146.96C253.852 145.85 254.142 144.08 254.332 143.17C254.372 142.99 254.462 142.67 254.522 142.5L253.622 142.43ZM256.062 147.23C255.972 147.65 255.902 148.04 255.902 148.4C255.902 149.33 256.642 149.88 258.302 149.88C259.332 149.88 260.162 149.8 260.772 149.68L260.762 148.84C259.962 149.02 259.202 149.1 258.312 149.1C256.952 149.1 256.652 148.66 256.652 148.21C256.652 147.94 256.692 147.66 256.782 147.3L256.062 147.23ZM256.402 144.08C257.482 144.19 259.402 144.19 260.462 144.08V143.26C259.472 143.4 257.472 143.44 256.392 143.26L256.402 144.08Z" fill="#747474"/>
<path d="M269.822 143.93C269.652 143.96 269.452 143.98 269.182 143.98H266.802C266.822 143.65 266.842 143.31 266.852 142.95C266.862 142.71 266.882 142.36 266.912 142.13H265.972C266.012 142.37 266.042 142.74 266.042 142.96C266.042 143.32 266.022 143.66 266.002 143.98H264.242C263.862 143.98 263.452 143.96 263.102 143.92V144.77C263.452 144.73 263.852 144.73 264.252 144.73H265.932C265.662 146.79 264.942 148.04 263.952 148.94C263.652 149.23 263.242 149.51 262.932 149.68L263.652 150.27C265.322 149.12 266.362 147.6 266.722 144.73H269.522C269.522 145.8 269.392 148.26 269.012 149.02C268.902 149.27 268.722 149.35 268.432 149.35C268.012 149.35 267.482 149.31 266.942 149.24L267.042 150.07C267.562 150.1 268.142 150.13 268.652 150.13C269.202 150.13 269.522 149.95 269.722 149.53C270.172 148.57 270.292 145.66 270.332 144.7C270.332 144.57 270.352 144.38 270.382 144.21L269.822 143.93Z" fill="#747474"/>
<path d="M280.112 143.59C279.982 143.64 279.792 143.67 279.422 143.67H277.182V142.74C277.182 142.53 277.192 142.3 277.242 141.99H276.282C276.322 142.3 276.332 142.53 276.332 142.74V143.67H274.122C273.772 143.67 273.482 143.66 273.192 143.63C273.222 143.85 273.222 144.19 273.222 144.4V146.16C273.222 146.35 273.212 146.62 273.192 146.79H274.062C274.032 146.64 274.022 146.38 274.022 146.2V144.41H279.612C279.522 145.27 279.202 146.48 278.662 147.33C278.052 148.28 276.952 149.02 275.952 149.34C275.632 149.46 275.252 149.57 274.912 149.62L275.562 150.37C277.392 149.87 278.772 148.85 279.522 147.53C280.082 146.58 280.372 145.33 280.502 144.53C280.542 144.34 280.602 144.08 280.652 143.93L280.112 143.59Z" fill="#747474"/>
<path d="M284.102 142.67L283.532 143.28C284.272 143.78 285.522 144.85 286.022 145.37L286.652 144.74C286.092 144.18 284.812 143.14 284.102 142.67ZM283.242 149.37L283.772 150.19C285.442 149.88 286.702 149.27 287.702 148.63C289.212 147.69 290.372 146.33 291.062 145.08L290.582 144.23C290.002 145.46 288.782 146.94 287.242 147.91C286.292 148.5 284.992 149.11 283.242 149.37Z" fill="#747474"/>
<path d="M300.302 146.58C299.242 146.05 297.352 145.33 296.032 144.93V143.3C296.032 143 296.072 142.57 296.102 142.26H295.122C295.182 142.57 295.202 143.02 295.202 143.3V149.12C295.202 149.49 295.182 149.98 295.142 150.3H296.102C296.062 149.97 296.042 149.44 296.042 149.12L296.032 145.82C297.142 146.17 298.872 146.84 299.962 147.43L300.302 146.58Z" fill="#747474"/>
</svg>
