<svg fill="none" height="64" viewBox="0 0 227 64" width="227" xmlns="http://www.w3.org/2000/svg"><g fill="#131313"><path d="m91.2279 4.448h-4.272v-.48h4.272zm0 1.296h-4.272v-.496h4.272zm0 1.312h-4.272v-.512h4.272zm-6.032-3.92v4.768h7.872v-4.768h-3.472l.208-.512h4.56v-1.28h-2.352c.224-.304.464-.672.704-1.072l-1.776-.272c-.16.384-.432.912-.688 1.344h-2.192c-.16-.416-.464-.944-.736-1.3280002l-1.552.2880002c.192.304.4.688.544 1.04h-2.384v1.28h4.128c-.032.176-.08.352-.112.512zm-1.472-.96c-.448-.608-1.424-1.424-2.224-1.968l-1.232 1.04c.8.592 1.744 1.472 2.16 2.064zm7.232 7.6c1.2-.016 2.352-.048 3.2-.08.08-.416.304-1.104.464-1.456-2.208.16-6.384.208-8.32.128-1.36-.048-2.32-.4-2.848-1.28v-3.104h-3.568v1.44h1.84v1.936c-.672.384-1.376.736-1.968 1.024l.64 1.504c.896-.544 1.68-1.04 2.448-1.568.768 1.008 1.856 1.36 3.472 1.424.736.016 1.728.032 2.8.032v.672h-9.28v1.44h3.536l-.848.704c.752.528 1.712 1.344 2.128 1.872l1.376-1.168c-.368-.416-1.024-.96-1.664-1.408h4.752v1.232c0 .176-.08.24-.336.24-.24.016-1.12.016-1.904-.032.24.48.512 1.136.592 1.648 1.184 0 2.032-.016 2.672-.256.64-.256.816-.704.816-1.552v-1.28h3.424v-1.44h-3.424z"/><path d="m100.396.928v1.936h3.648c.048.544.112 1.12.224 1.728l-.976-.176c-.88 4.208-2.784 7.296-6.1121 8.976.496.368 1.392 1.152 1.744 1.552 2.7841-1.664 4.7041-4.32 5.9041-7.904.88 2.864 2.576 5.888 5.888 7.888.336-.496 1.12-1.328 1.536-1.664-5.888-3.472-6.32-9.312-6.32-12.336z"/><path d="m117.356 4.368v-1.264h9.792v1.264h-3.984v-.912h-1.904v.912zm11.984 6.688v-1.648h-6.32c.08-.336.112-.672.128-1.008h4.368v-1.536h-4.352v-.96h4.672v-1.056h1.28v-3.408h-5.856v-1.3919997h-1.952v1.3919997h-5.84v3.408h1.424v1.056h4.368v.96h-4.112v1.536h4.096c-.032.336-.08.672-.16 1.008h-5.744v1.648h4.816c-.88.944-2.416 1.776-5.104 2.384.416.4.96 1.12 1.184 1.536 3.264-.88 5.04-2.144 5.984-3.568 1.264 1.984 3.168 3.12 6.208 3.6.24-.512.736-1.264 1.12-1.664-2.528-.272-4.32-1.008-5.456-2.288z"/><path d="m141.74 2.464h-2.832v1.104h2.832v.544h-3.616v1.184h9.152v-1.184h-3.632v-.544h2.944v-1.104h-2.944v-.544h3.328v-1.152h-3.328v-.7199997h-1.904v.7199997h-3.216v1.152h3.216zm-8.768 6.928c-.128 1.344-.352 2.768-.816 3.712.384.144 1.072.448 1.392.672.448-1.024.8-2.608.944-4.128zm4.256-1.104c.096.32.176.608.224.864l1.424-.64c-.176-.896-.784-2.288-1.376-3.36l-1.36.544c.176.336.352.688.512 1.056l-1.488.096c1.008-1.28 2.096-2.864 2.976-4.208l-1.552-.72c-.368.784-.88 1.696-1.44 2.592-.144-.192-.32-.416-.512-.624.592-.896 1.248-2.16 1.808-3.264l-1.648-.5759997c-.256.8159997-.704 1.8879997-1.152 2.7679997-.128-.112-.256-.224-.368-.336l-.928 1.28c.64.656 1.376 1.52 1.824 2.24-.24.336-.48.656-.72.944l-1.152.064.128 1.648 2.288-.16v6.48h1.632v-6.608zm-.704 1.376c.352.912.672 2.096.736 2.88l1.408-.464c-.096-.768-.432-1.92-.816-2.816zm4.288.88h3.888v.672h-3.888zm0-1.776h3.888v.688h-3.888zm0-1.76h3.888v.672h-3.888zm5.696 5.392v-6.56h-7.392v6.56h1.392c-.8.544-2.064 1.136-3.152 1.456.352.336.88.848 1.168 1.184 1.28-.416 2.864-1.184 3.84-1.936l-1.072-.704h2.912l-.992.72c.944.592 2.048 1.376 2.64 1.872l1.664-.896c-.64-.448-1.744-1.12-2.72-1.696z"/><path clip-rule="evenodd" d="m227 7.584h-65v-2h65z" fill-rule="evenodd"/><path clip-rule="evenodd" d="m65 8.08399-64.99999983.00001-.00000017-2 65-.00001z" fill-rule="evenodd"/><path d="m11.2242 38.338v-.429h.962c.689 0 1.144.013 1.43.039v-1.729c-.351.065-.741.091-1.43.091h-.962v-1.365c0-.52.052-.949.091-1.209h-1.859c.039.26.078.689.078 1.209v1.365h-3.081v-1.287c0-.507.039-.923.078-1.17h-1.846c.039.39.078.793.078 1.17v1.287h-1.105c-.65 0-1.183-.078-1.404-.117v1.768c.286-.026.754-.052 1.404-.052h1.105v1.768c0 .585-.039 1.105-.078 1.365h1.82c-.013-.26-.052-.793-.052-1.365v-1.768h3.081v.494c0 3.198-1.105 4.316-3.614 5.187l1.391 1.313c3.133-1.378 3.913-3.341 3.913-6.565z"/><path d="m15.9562 38.065v2.041c.481-.039 1.352-.065 2.093-.065h6.981c.546 0 1.209.052 1.521.065v-2.041c-.338.026-.91.078-1.521.078h-6.981c-.676 0-1.625-.039-2.093-.078z"/><path d="m37.6142 33.554-1.027.416c.351.507.754 1.274 1.014 1.807l1.053-.442c-.247-.481-.715-1.3-1.04-1.781zm1.534-.585-1.027.416c.364.494.78 1.248 1.053 1.794l1.027-.442c-.221-.455-.702-1.287-1.053-1.768zm-7.137 1.144h-1.924c.065.39.104 1.066.104 1.352v7.085c0 1.118.65 1.742 1.781 1.95.559.091 1.339.143 2.184.143 1.43 0 3.406-.091 4.628-.273v-1.898c-1.066.286-3.172.455-4.524.455-.585 0-1.118-.026-1.508-.078-.585-.117-.845-.26-.845-.819v-2.405c1.69-.416 3.783-1.066 5.096-1.586.429-.156 1.014-.403 1.521-.611l-.702-1.651c-.507.312-.949.52-1.417.702-1.157.494-2.964 1.066-4.498 1.443v-2.457c0-.364.039-.962.104-1.352z"/><path d="m52.1222 35.27-1.066-.793c-.26.091-.78.169-1.339.169h-4.589c-.39 0-1.183-.039-1.534-.091v1.846c.273-.013.988-.091 1.534-.091h4.407c-.286.923-1.079 2.21-1.937 3.185-1.222 1.365-3.237 2.951-5.33 3.731l1.339 1.404c1.781-.845 3.51-2.197 4.888-3.653 1.222 1.183 2.431 2.509 3.276 3.679l1.482-1.287c-.767-.936-2.34-2.6-3.627-3.718.871-1.17 1.599-2.561 2.041-3.575.117-.26.351-.663.455-.806z"/><path d="m59.1422 34.672v.663h-2.041v-.663zm-2.041 2.379v-.702h2.041v.702zm3.497 1.118v-4.602h-5.005v11.648h1.508v-7.046zm-.208 2.86v-.975h1.209v.975zm3.991 1.261v-1.261h-1.43v-.975h1.222v-1.222h-6.279v1.222h1.183v.975h-1.365v1.261h1.313c-.13.663-.494 1.508-1.326 2.028.299.208.767.611.988.884 1.105-.754 1.534-2.015 1.664-2.912h1.248v2.678h1.352v-2.678zm-1.456-5.213v-.728h2.106v.728zm2.106-2.405v.663h-2.106v-.663zm1.521-1.105h-5.096v4.628h3.575v5.2c0 .182-.065.26-.273.26-.195.013-.832.013-1.417-.013.208.403.416 1.105.468 1.534.988 0 1.664-.039 2.132-.299.468-.247.611-.676.611-1.469z"/><path d="m73.3252 37.35.156 1.482c1.482-.104 3.523-.247 5.46-.403.143.325.247.624.325.897l1.339-.715c-.312-.988-1.17-2.431-1.976-3.523l-1.222.624c.286.416.572.884.845 1.365-.806.039-1.599.091-2.353.13.481-1.131.975-2.548 1.391-3.835l-1.716-.299c-.247 1.274-.715 2.951-1.183 4.225zm-1.456-.273c-.156 1.326-.403 2.509-.78 3.51-.351-.247-.702-.481-1.04-.689.221-.884.455-1.846.676-2.821zm.611-1.456-.26.039h-1.183c.182-.845.351-1.677.494-2.444l-1.456-.143c-.13.806-.299 1.69-.481 2.587h-1.248v1.417h.949c-.325 1.508-.676 2.951-.988 4.017l1.248.676.13-.455c.26.182.533.39.793.598-.546.949-1.261 1.664-2.119 2.119.299.286.715.845.936 1.235.962-.598 1.742-1.378 2.353-2.379.468.429.871.858 1.144 1.222l.923-1.235c-.325-.416-.819-.884-1.391-1.352.585-1.508.936-3.393 1.079-5.759zm5.863 5.564v2.132h-2.73v-2.132zm-4.186 4.03h1.456v-.507h2.73v.455h1.534v-5.369h-5.72z"/><path d="m87.0662 33.814-1.937-.195c.013.819-.091 1.768-.273 2.756-.663.052-1.274.091-1.677.104-.481.013-.923.039-1.391 0l.156 1.768c.39-.065 1.079-.156 1.443-.221.247-.026.65-.078 1.118-.13-.468 1.781-1.365 4.407-2.626 6.11l1.69.676c1.196-1.911 2.158-4.992 2.652-6.968.364-.026.689-.052.897-.052.819 0 1.261.143 1.261 1.183 0 1.287-.169 2.86-.52 3.601-.208.429-.546.559-.975.559-.351 0-1.092-.13-1.599-.273l.286 1.716c.442.091 1.053.182 1.56.182.975 0 1.703-.286 2.132-1.196.559-1.131.741-3.237.741-4.771 0-1.872-.975-2.483-2.353-2.483-.273 0-.663.026-1.092.052.091-.468.182-.949.273-1.339.065-.325.156-.741.234-1.079zm4.472 1.222-1.547.663c.923 1.144 1.846 3.497 2.184 4.94l1.651-.767c-.39-1.235-1.482-3.718-2.288-4.836z"/><path d="m98.6622 33.619-.416 1.56c1.014.26 3.9128.871 5.2258 1.04l.39-1.586c-1.131-.13-3.9648-.624-5.1998-1.014zm.078 2.613-1.742-.247c-.091 1.612-.39 4.16-.65 5.434l1.495.377c.117-.26.247-.468.481-.754.819-.988 2.1448-1.534 3.6138-1.534 1.131 0 1.937.624 1.937 1.469 0 1.651-2.067 2.6-5.9668 2.067l.494 1.703c5.4078.455 7.2798-1.365 7.2798-3.731 0-1.573-1.326-2.977-3.601-2.977-1.365 0-2.6518.377-3.8348 1.235.091-.741.325-2.327.494-3.042z"/><path d="m5.0362 52.711c0 .143-.026.507-.052 1.001-.559.078-1.131.143-1.508.169-.455.026-.754.026-1.131.013l.169 1.664c.728-.104 1.729-.234 2.366-.312-.013.312-.039.624-.065.923-.741 1.092-2.041 2.808-2.782 3.718l1.027 1.417c.455-.611 1.092-1.56 1.638-2.379-.013 1.092-.026 1.846-.052 2.86 0 .208-.013.676-.039.962h1.794c-.039-.299-.078-.767-.091-1.001-.078-1.222-.078-2.314-.078-3.38 0-.338.013-.715.026-1.092 1.092-1.001 2.301-1.664 3.679-1.664 1.3 0 2.119.936 2.119 1.95.013 2.028-1.625 2.964-3.913 3.302l.78 1.573c3.224-.637 4.875-2.21 4.875-4.836-.013-2.093-1.586-3.51-3.588-3.51-1.17 0-2.509.364-3.822 1.339.013-.117.013-.247.026-.364.221-.338.481-.767.663-1.001l-.481-.611c.104-.819.208-1.482.286-1.846l-1.898-.065c.065.403.052.793.052 1.17z"/><path d="m19.6092 58.015c0-.689.507-1.027.988-1.027.364 0 .676.143.858.455.169 1.144-.299 1.56-.845 1.56-.52 0-1.001-.39-1.001-.988zm4.94-6.617-1.066.442c.312.468.585.975.845 1.469-.533 0-1.079 0-1.56 0 0-.156.013-.299.013-.403.013-.208.052-.91.091-1.118h-1.872c.026.169.078.611.117 1.131.013.104.013.234.013.403-1.755.026-4.121.078-5.603.091l.039 1.573c1.599-.091 3.627-.182 5.59-.208.013.286.013.585.013.871-.169-.026-.338-.039-.52-.039-1.417 0-2.613.975-2.613 2.444 0 1.573 1.248 2.379 2.249 2.379.221 0 .416-.026.598-.065-.715.78-1.872 1.209-3.185 1.482l1.378 1.391c3.185-.897 4.186-3.042 4.186-4.745 0-.689-.169-1.313-.494-1.807 0-.572 0-1.261-.013-1.924 1.755 0 2.99.039 3.77.078l.013-1.547c-.39 0-1.144 0-1.976.013l.897-.377c-.234-.455-.585-1.066-.91-1.534zm1.742-.364-1.079.442c.338.468.65 1.014.91 1.534l1.092-.455c-.247-.481-.598-1.053-.923-1.521z"/><path d="m34.0262 51.814-1.937-.195c.013.819-.091 1.768-.273 2.756-.663.052-1.274.091-1.677.104-.481.013-.923.039-1.391 0l.156 1.768c.39-.065 1.079-.156 1.443-.221.247-.026.65-.078 1.118-.13-.468 1.781-1.365 4.407-2.626 6.11l1.69.676c1.196-1.911 2.158-4.992 2.652-6.968.364-.026.689-.052.897-.052.819 0 1.261.143 1.261 1.183 0 1.287-.169 2.86-.52 3.601-.208.429-.546.559-.975.559-.351 0-1.092-.13-1.599-.273l.286 1.716c.442.091 1.053.182 1.56.182.975 0 1.703-.286 2.132-1.196.559-1.131.741-3.237.741-4.771 0-1.872-.975-2.483-2.353-2.483-.273 0-.663.026-1.092.052.091-.468.182-.949.273-1.339.065-.325.156-.741.234-1.079zm4.472 1.222-1.547.663c.923 1.144 1.846 3.497 2.184 4.94l1.651-.767c-.39-1.235-1.482-3.718-2.288-4.836z"/><path d="m46.6492 62.084h-1.963v-5.369c0-.2253.0043-.52.013-.884.0173-.364.0303-.6847.039-.962-.0433.052-.1387.1473-.286.286-.1387.13-.2687.247-.39.351l-1.066.858-.949-1.183 2.99-2.379h1.612z"/><path d="m49.7207 61.174c0-.3987.1083-.676.325-.832.2166-.1647.481-.247.793-.247.3033 0 .5633.0823.78.247.2166.156.325.4333.325.832 0 .3813-.1084.6587-.325.832-.2167.1647-.4767.247-.78.247-.312 0-.5764-.0823-.793-.247-.2167-.1733-.325-.4507-.325-.832z"/><path d="m56.8467 56.156c.5633 0 1.066.1083 1.508.325s.7887.533 1.04.949c.26.416.39.9317.39 1.547 0 1.0053-.312 1.7983-.936 2.379-.624.572-1.547.858-2.769.858-.4853 0-.9447-.0433-1.378-.13-.4247-.0867-.7973-.2123-1.118-.377v-1.69c.3207.1647.7063.3077 1.157.429.4507.1127.8753.169 1.274.169.5807 0 1.0227-.117 1.326-.351.312-.2427.468-.6153.468-1.118 0-.936-.6197-1.404-1.859-1.404-.2427 0-.494.026-.754.078-.26.0433-.4767.0867-.65.13l-.78-.416.351-4.732h5.031v1.664h-3.315l-.169 1.82c.1473-.026.3033-.052.468-.078.1733-.0347.4117-.052.715-.052z"/><path d="m64.8061 58.964v-1.976h2.249v1.976zm8.294 0h-4.446v-1.976h3.432v-1.443h-3.432v-1.547h3.731v-1.495h-7.345c.169-.351.312-.702.429-1.066l-1.573-.403c-.559 1.677-1.56 3.341-2.73 4.329.377.221 1.04.741 1.339 1.001.611-.611 1.235-1.443 1.768-2.366h2.782v1.547h-3.796v3.419h-2.054v1.482h5.85v2.782h1.599v-2.782h4.446z"/><path d="m74.8031 53.166.169 1.781c1.508-.325 4.16-.611 5.382-.741-.884.663-1.937 2.145-1.937 4.017 0 2.821 2.574 4.277 5.304 4.459l.611-1.781c-2.21-.117-4.212-.884-4.212-3.029 0-1.547 1.183-3.224 2.756-3.64.689-.169 1.807-.169 2.509-.182l-.013-1.664c-.923.039-2.34.117-3.679.234-2.379.195-4.524.39-5.616.481-.247.026-.754.052-1.274.065zm8.723 2.158-.962.403c.416.585.689 1.092 1.014 1.807l.988-.442c-.247-.507-.715-1.3-1.04-1.768zm1.456-.598-.949.442c.416.572.715 1.053 1.066 1.755l.975-.468c-.273-.507-.767-1.274-1.092-1.729z"/><path d="m185.1 57.072c-.336-.32-1.568-1.424-2.336-2.048.768-1.056 1.408-2.208 1.888-3.424l-1.072-.688-.336.08h-.72v-2.944h-1.888v2.944h-2.272v1.728h3.856c-1.04 1.84-2.72 3.52-4.464 4.464.288.368.736 1.296.896 1.808.672-.416 1.344-.944 1.984-1.536v5.52h1.888v-6.032c.544.592 1.088 1.232 1.424 1.68zm4.608 3.584v-5.856h3.024v-1.84h-3.024v-4.784h-1.952v4.784h-3.04v1.84h3.04v5.856h-3.696v1.856h9.056v-1.856z"/><path d="m203.708 53.76c-.48-1.104-1.488-2.672-2.528-3.84l-1.728.864c.96 1.184 1.984 2.864 2.384 3.968zm-2.928 2.832c-.8.32-1.616.656-2.416.992l-.288-8.656-1.984.08.32 9.344c-.8.32-1.52.576-2.128.784l.64 2.032c1.808-.752 4.176-1.76 6.288-2.704zm8.688 4.784c-.736-1.12-2.224-2.736-3.552-4.112 1.04-2.176 1.616-4.848 1.952-8.128l-2.096-.192c-.592 6.576-2.24 10.448-7.312 12.368.464.4 1.248 1.264 1.52 1.68 2.112-.944 3.696-2.224 4.864-3.888 1.184 1.344 2.384 2.816 2.992 3.856z"/><path d="m218.652 60.272v-5.536h5.648v-1.936h-5.648v-4.576h-2.048v12.048h-5.728v1.92h14.544v-1.92z"/><path d="m184.75 38.434c0-.41-.34-.75-.75-.75s-.75.34-.75.75.34.75.75.75.75-.34.75-.75zm-4.05-.74-.29.29 3.3 3.3-3.31 3.31.29.29 3.31-3.31 3.3 3.3.29-.29-3.3-3.3 3.3-3.3-.29-.29-3.3 3.3zm.45 2.84c-.41 0-.75.34-.75.75s.34.75.75.75.75-.34.75-.75-.34-.75-.75-.75zm5.7 1.5c.41 0 .75-.34.75-.75s-.34-.75-.75-.75-.75.34-.75.75.34.75.75.75zm-3.6 2.1c0 .41.34.75.75.75s.75-.34.75-.75-.34-.75-.75-.75-.75.34-.75.75z"/><path d="m130.905 58.384h-11.004l6.846-8.19c1.848-2.226 4.368-5.082 4.368-8.736 0-4.872-3.822-8.232-8.778-8.232-4.788 0-8.736 3.234-8.736 8.148h4.452c.126-2.604 1.848-3.99 4.116-3.99 2.142 0 4.116 1.344 4.116 3.99 0 2.016-1.05 3.906-2.94 6.09l-9.954 11.676v3.444h17.514z"/><path d="m152.68 54.1v-12.012c0-6.132-4.284-8.862-9.114-8.862s-9.114 2.73-9.114 8.904v11.97c0 6.006 4.284 8.862 9.114 8.862s9.114-2.856 9.114-8.862zm-4.872-11.718v11.424c0 3.108-1.638 4.914-4.242 4.914-2.646 0-4.284-1.806-4.284-4.914v-11.424c0-3.108 1.638-4.914 4.284-4.914 2.604 0 4.242 1.806 4.242 4.914z"/><path d="m173.783 54.1v-12.012c0-6.132-4.284-8.862-9.114-8.862s-9.114 2.73-9.114 8.904v11.97c0 6.006 4.284 8.862 9.114 8.862s9.114-2.856 9.114-8.862zm-4.872-11.718v11.424c0 3.108-1.638 4.914-4.242 4.914-2.646 0-4.284-1.806-4.284-4.914v-11.424c0-3.108 1.638-4.914 4.284-4.914 2.604 0 4.242 1.806 4.242 4.914z"/></g></svg>