<svg width="301" height="83" viewBox="0 0 301 83" fill="none" xmlns="http://www.w3.org/2000/svg">
<path d="M44.2279 4.86399H39.9559V4.38399H44.2279V4.86399ZM44.2279 6.15999H39.9559V5.66399H44.2279V6.15999ZM44.2279 7.47199H39.9559V6.95998H44.2279V7.47199ZM38.1959 3.53598V8.31999H46.0679V3.53598H42.5959L42.8039 3.03998H47.3639V1.75998H45.0119C45.2359 1.45599 45.4759 1.08799 45.7159 0.687985L43.9399 0.415985C43.7799 0.799985 43.5079 1.32798 43.2519 1.75998H41.0599C40.8999 1.34399 40.5959 0.815985 40.3239 0.431985L38.7719 0.719985C38.9639 1.02398 39.1719 1.40798 39.3159 1.75998H36.9319V3.03998H41.0599C41.0279 3.21599 40.9799 3.37599 40.9479 3.53598H38.1959ZM36.7239 2.59198C36.2759 1.98398 35.2999 1.16798 34.4999 0.623985L33.2679 1.66399C34.0679 2.25599 35.0119 3.13599 35.4279 3.72799L36.7239 2.59198ZM43.9559 10.192C45.1559 10.176 46.3079 10.144 47.1559 10.112C47.2359 9.69599 47.4599 9.00799 47.6199 8.65599C45.4119 8.81599 41.2359 8.86399 39.2999 8.78399C37.9399 8.73599 36.9799 8.38399 36.4519 7.50399V4.39999H32.8839V5.83998H34.7239V7.77598C34.0519 8.15999 33.3479 8.51198 32.7559 8.79998L33.3959 10.304C34.2919 9.75999 35.0759 9.26399 35.8439 8.73599C36.6119 9.74399 37.6999 10.096 39.3159 10.16C40.0519 10.176 41.0439 10.192 42.1159 10.192V10.864H32.8359V12.304H36.3719L35.5239 13.008C36.2759 13.536 37.2359 14.352 37.6519 14.88L39.0279 13.712C38.6599 13.296 38.0039 12.752 37.3639 12.304H42.1159V13.536C42.1159 13.712 42.0359 13.776 41.7799 13.776C41.5399 13.792 40.6599 13.792 39.8759 13.744C40.1159 14.224 40.3879 14.88 40.4679 15.392C41.6519 15.392 42.4999 15.376 43.1399 15.136C43.7799 14.88 43.9559 14.432 43.9559 13.584V12.304H47.3799V10.864H43.9559V10.192Z" fill="#2F2F2F"/>
<path d="M53.3959 1.34399V3.27999H57.0439C57.0919 3.82399 57.1559 4.39999 57.2679 5.00799L56.2919 4.83199C55.4119 9.03999 53.5079 12.128 50.1799 13.808C50.6759 14.176 51.5719 14.96 51.9239 15.36C54.7079 13.696 56.6279 11.04 57.8279 7.45599C58.7079 10.32 60.4039 13.344 63.7159 15.344C64.0519 14.848 64.8359 14.016 65.2519 13.68C59.3639 10.208 58.9319 4.36798 58.9319 1.34399H53.3959Z" fill="#2F2F2F"/>
<path d="M70.3559 4.78399V3.51999H80.1479V4.78399H76.1639V3.87199H74.2599V4.78399H70.3559ZM82.3399 11.472V9.82399H76.0199C76.0999 9.48799 76.1319 9.15199 76.1479 8.81599H80.5159V7.27999H76.1639V6.31999H80.8359V5.26399H82.1159V1.85598H76.2599V0.463985H74.3079V1.85598H68.4679V5.26399H69.8919V6.31999H74.2599V7.27999H70.1479V8.81599H74.2439C74.2119 9.15199 74.1639 9.48799 74.0839 9.82399H68.3399V11.472H73.1559C72.2759 12.416 70.7399 13.248 68.0519 13.856C68.4679 14.256 69.0119 14.976 69.2359 15.392C72.4999 14.512 74.2759 13.248 75.2199 11.824C76.4839 13.808 78.3879 14.944 81.4279 15.424C81.6679 14.912 82.1639 14.16 82.5479 13.76C80.0199 13.488 78.2279 12.752 77.0919 11.472H82.3399Z" fill="#2F2F2F"/>
<path d="M94.7399 2.87998H91.9079V3.98398H94.7399V4.52799H91.1239V5.71199H100.276V4.52799H96.6439V3.98398H99.5879V2.87998H96.6439V2.33599H99.9719V1.18398H96.6439V0.463985H94.7399V1.18398H91.5239V2.33599H94.7399V2.87998ZM85.9719 9.80799C85.8439 11.152 85.6199 12.576 85.1559 13.52C85.5399 13.664 86.2279 13.968 86.5479 14.192C86.9959 13.168 87.3479 11.584 87.4919 10.064L85.9719 9.80799ZM90.2279 8.70399C90.3239 9.02399 90.4039 9.31199 90.4519 9.56799L91.8759 8.92799C91.6999 8.03198 91.0919 6.63999 90.4999 5.56799L89.1399 6.11199C89.3159 6.44799 89.4919 6.79998 89.6519 7.16798L88.1639 7.26399C89.1719 5.98399 90.2599 4.39999 91.1399 3.05599L89.5879 2.33599C89.2199 3.11999 88.7079 4.03199 88.1479 4.92799C88.0039 4.73598 87.8279 4.51198 87.6359 4.30399C88.2279 3.40798 88.8839 2.14398 89.4439 1.03998L87.7959 0.463985C87.5399 1.27999 87.0919 2.35198 86.6439 3.23199C86.5159 3.11999 86.3879 3.00799 86.2759 2.89599L85.3479 4.17599C85.9879 4.83199 86.7239 5.69598 87.1719 6.41599C86.9319 6.75199 86.6919 7.07199 86.4519 7.35999L85.2999 7.42399L85.4279 9.07199L87.7159 8.91199V15.392H89.3479V8.78399L90.2279 8.70399ZM89.5239 10.08C89.8919 10.992 90.1959 12.176 90.2599 12.96L91.6679 12.496C91.5719 11.728 91.2359 10.576 90.8519 9.67999L89.5239 10.08ZM93.8119 10.96H97.6999V11.632H93.8119V10.96ZM93.8119 9.18399H97.6999V9.87199H93.8119V9.18399ZM93.8119 7.42399H97.6999V8.09599H93.8119V7.42399ZM99.5079 12.816V6.25599H92.1159V12.816H93.5079C92.7079 13.36 91.4439 13.952 90.3559 14.272C90.7079 14.608 91.2359 15.12 91.5239 15.456C92.8039 15.04 94.3879 14.272 95.3639 13.52L94.2919 12.816H97.2039L96.2119 13.536C97.1559 14.128 98.2599 14.912 98.8519 15.408L100.516 14.512C99.8759 14.064 98.7719 13.392 97.7959 12.816H99.5079Z" fill="#2F2F2F"/>
<path fill-rule="evenodd" clip-rule="evenodd" d="M135 9H110V7H135V9Z" fill="#2F2F2F"/>
<path fill-rule="evenodd" clip-rule="evenodd" d="M25 9L1.74846e-07 9L0 7L25 7L25 9Z" fill="#2F2F2F"/>
<path d="M12.2478 32.838V31.214C12.2478 30.654 12.3038 30.206 12.3318 29.996H10.7498C10.7778 30.192 10.8198 30.654 10.8198 31.214V32.838H7.12384V31.228C7.12384 30.71 7.17984 30.29 7.20784 30.108H5.63984C5.65384 30.29 5.70984 30.738 5.70984 31.228V32.838H4.33784C3.69384 32.838 3.06384 32.768 2.88184 32.74V34.238C3.10584 34.224 3.67984 34.196 4.33784 34.196H5.70984V36.296C5.70984 36.87 5.65384 37.458 5.63984 37.654H7.17984C7.16584 37.458 7.12384 36.87 7.12384 36.296V34.196H10.8198V34.756C10.8198 38.466 9.58784 39.67 6.96984 40.636L8.15984 41.756C11.4358 40.286 12.2478 38.284 12.2478 34.672V34.196H13.5778C14.2358 34.196 14.7398 34.21 14.9638 34.238V32.754C14.6838 32.81 14.2358 32.838 13.5638 32.838H12.2478Z" fill="#2F2F2F"/>
<path d="M17.6518 36.478C18.1138 36.45 18.9398 36.422 19.7238 36.422H27.3398C27.9558 36.422 28.5858 36.464 28.8938 36.478V34.756C28.5578 34.784 28.0118 34.84 27.3258 34.84H19.7238C18.9678 34.84 18.0998 34.798 17.6518 34.756V36.478Z" fill="#2F2F2F"/>
<path d="M41.9418 31.788C41.6618 31.242 41.1578 30.374 40.8078 29.87L39.9118 30.248C40.2898 30.78 40.7378 31.62 41.0318 32.18L41.9418 31.788ZM34.5498 36.058C36.3138 35.596 38.6658 34.882 40.1638 34.28C40.6118 34.126 41.1718 33.874 41.6338 33.692L41.0178 32.278C40.5558 32.572 40.1218 32.782 39.6598 32.964C38.3018 33.538 36.2018 34.196 34.5498 34.602V31.662C34.5498 31.27 34.5778 30.766 34.6338 30.402H32.9958C33.0658 30.766 33.0938 31.34 33.0938 31.662V39.334C33.0938 40.51 33.7378 41.07 34.8718 41.28C35.4598 41.378 36.2998 41.42 37.1678 41.42C38.7078 41.42 40.8078 41.322 42.0678 41.14V39.53C40.9198 39.838 38.7218 39.992 37.2518 39.992C36.5798 39.992 35.9218 39.964 35.5018 39.894C34.8438 39.754 34.5498 39.586 34.5498 38.914V36.058ZM41.5078 29.66C41.8998 30.178 42.3478 30.976 42.6418 31.578L43.5518 31.186C43.2998 30.682 42.7678 29.8 42.4038 29.282L41.5078 29.66Z" fill="#2F2F2F"/>
<path d="M55.3398 30.906C55.1018 30.99 54.6398 31.046 54.1218 31.046H48.9278C48.4938 31.046 47.6818 30.99 47.4018 30.948V32.53C47.6258 32.516 48.3818 32.446 48.9278 32.446H54.0658C53.7298 33.538 52.7918 35.078 51.8398 36.142C50.4538 37.696 48.3538 39.376 46.0858 40.244L47.2198 41.42C49.2358 40.496 51.1118 38.998 52.6098 37.402C53.9958 38.69 55.3958 40.23 56.3058 41.49L57.5518 40.398C56.6838 39.334 54.9898 37.528 53.5478 36.296C54.5278 35.036 55.3538 33.454 55.8438 32.306C55.9418 32.068 56.1518 31.718 56.2498 31.578L55.3398 30.906Z" fill="#2F2F2F"/>
<path d="M64.3418 30.78V31.718H61.6538V30.78H64.3418ZM61.6538 33.636V32.614H64.3418V33.636H61.6538ZM65.5598 34.588V29.814H60.3658V42.106H61.6538V34.588H65.5598ZM65.2238 37.766V36.436H66.8898V37.766H65.2238ZM69.7878 38.844V37.766H68.0518V36.436H69.5078V35.4H62.7178V36.436H64.1038V37.766H62.4658V38.844H64.0618C63.9498 39.614 63.5578 40.664 62.5218 41.294C62.7878 41.476 63.1798 41.826 63.3618 42.064C64.6358 41.21 65.0838 39.782 65.1958 38.844H66.8898V41.854H68.0518V38.844H69.7878ZM67.8838 33.664V32.614H70.6558V33.664H67.8838ZM70.6558 30.78V31.718H67.8838V30.78H70.6558ZM71.9438 29.814H66.6378V34.616H70.6558V40.496C70.6558 40.706 70.5858 40.776 70.3758 40.79C70.1518 40.79 69.4378 40.79 68.7238 40.776C68.9198 41.126 69.1018 41.714 69.1438 42.064C70.1938 42.078 70.8938 42.036 71.3418 41.826C71.8038 41.602 71.9438 41.224 71.9438 40.51V29.814Z" fill="#2F2F2F"/>
<path d="M79.4618 35.218C81.0998 35.092 83.3538 34.952 85.5378 34.784C85.6918 35.134 85.8318 35.47 85.9158 35.75L87.0498 35.134C86.6998 34.098 85.7478 32.558 84.8518 31.41L83.8158 31.928C84.2078 32.446 84.5998 33.048 84.9358 33.636L81.7438 33.818C82.2898 32.558 82.8778 30.92 83.3398 29.534L81.9118 29.24C81.6038 30.64 81.0018 32.544 80.4558 33.902L79.3358 33.958L79.4618 35.218ZM78.0058 33.286C77.8378 34.924 77.5158 36.338 77.0538 37.514C76.5918 37.178 76.1018 36.87 75.6538 36.59C75.9058 35.568 76.1858 34.434 76.4518 33.286H78.0058ZM78.5518 32.04L78.3138 32.082H76.7178C76.9278 31.144 77.1238 30.22 77.2918 29.38L76.0458 29.24C75.8918 30.108 75.6958 31.088 75.4858 32.082H74.0578V33.286H75.2338C74.8558 34.966 74.4498 36.59 74.1138 37.766L75.1918 38.34L75.3458 37.78C75.7378 38.046 76.1298 38.326 76.5218 38.634C75.8918 39.754 75.0798 40.594 74.0998 41.112C74.3798 41.35 74.7158 41.826 74.9118 42.148C75.9758 41.504 76.8438 40.622 77.5298 39.446C78.0758 39.936 78.5518 40.412 78.8738 40.818L79.6578 39.768C79.2938 39.306 78.7338 38.802 78.1038 38.284C78.7478 36.716 79.1538 34.714 79.3218 32.194L78.5518 32.04ZM84.9638 37.598V40.342H81.4778V37.598H84.9638ZM80.2458 42.106H81.4778V41.518H84.9638V42.05H86.2518V36.408H80.2458V42.106Z" fill="#2F2F2F"/>
<path d="M92.3278 29.898C92.3418 30.794 92.2018 31.844 92.0058 32.866C91.2218 32.936 90.4798 32.992 90.0318 33.006C89.5698 33.02 89.1638 33.034 88.7018 33.006L88.8278 34.518C89.2198 34.448 89.8498 34.364 90.2138 34.322C90.5218 34.28 91.0818 34.224 91.7118 34.154C91.2218 36.03 90.2278 39.012 88.8558 40.86L90.2978 41.434C91.6558 39.222 92.6358 36.044 93.1538 34C93.6718 33.958 94.1338 33.93 94.4138 33.93C95.2958 33.93 95.8278 34.126 95.8278 35.316C95.8278 36.758 95.6318 38.494 95.2118 39.362C94.9598 39.894 94.5678 40.02 94.0778 40.02C93.6998 40.02 92.9298 39.894 92.3698 39.726L92.6078 41.182C93.0558 41.294 93.7278 41.392 94.2458 41.392C95.2258 41.392 95.9398 41.126 96.3878 40.188C96.9758 38.998 97.1858 36.8 97.1858 35.162C97.1858 33.23 96.1638 32.67 94.8198 32.67C94.4978 32.67 94.0078 32.698 93.4338 32.74C93.5598 32.11 93.6858 31.438 93.7698 31.018C93.8258 30.71 93.8958 30.36 93.9658 30.066L92.3278 29.898ZM97.4378 32.012C98.4178 33.202 99.4678 35.68 99.8598 37.15L101.232 36.492C100.784 35.19 99.5938 32.614 98.7398 31.452L97.4378 32.012Z" fill="#2F2F2F"/>
<path d="M106.314 31.27C107.378 31.55 110.43 32.18 111.788 32.362L112.11 31.004C110.892 30.878 107.91 30.332 106.664 29.94L106.314 31.27ZM106.538 32.572L105.054 32.376C104.97 33.944 104.62 36.772 104.354 38.074L105.642 38.382C105.754 38.144 105.88 37.906 106.104 37.64C107.042 36.534 108.47 35.904 110.192 35.904C111.522 35.904 112.474 36.618 112.474 37.64C112.474 39.474 110.304 40.622 106.02 40.076L106.454 41.518C111.858 41.966 113.986 40.174 113.986 37.668C113.986 36.03 112.558 34.644 110.304 34.644C108.75 34.644 107.294 35.12 106.006 36.156C106.118 35.302 106.356 33.44 106.538 32.572Z" fill="#2F2F2F"/>
<path d="M69.5999 76.488C69.2639 76.168 68.0319 75.064 67.2639 74.44C68.0319 73.384 68.6719 72.232 69.1519 71.016L68.0799 70.328L67.7439 70.408H67.0239V67.464H65.1359V70.408H62.8639V72.12H66.7359C65.6799 73.976 63.9999 75.656 62.2559 76.6C62.5439 76.968 62.9919 77.896 63.1519 78.408C63.8239 77.992 64.4959 77.464 65.1359 76.872V82.392H67.0239V76.36C67.5679 76.952 68.1119 77.592 68.4479 78.04L69.5999 76.488ZM74.2079 80.072V74.216H77.2319V72.376H74.2079V67.592H72.2559V72.376H69.2159V74.216H72.2559V80.072H68.5599V81.928H77.6159V80.072H74.2079Z" fill="#2F2F2F"/>
<path d="M88.2079 73.176C87.7279 72.072 86.7199 70.504 85.6799 69.336L83.9519 70.2C84.9119 71.384 85.9359 73.064 86.3359 74.168L88.2079 73.176ZM85.2799 76.008C84.4799 76.328 83.6639 76.664 82.8639 77L82.5759 68.344L80.5919 68.424L80.9119 77.768C80.1119 78.088 79.3919 78.344 78.7839 78.552L79.4239 80.584C81.2319 79.832 83.5999 78.824 85.7119 77.88L85.2799 76.008ZM93.9679 80.792C93.2319 79.672 91.7439 78.056 90.4159 76.68C91.4559 74.504 92.0319 71.832 92.3679 68.552L90.2719 68.36C89.6799 74.936 88.0319 78.808 82.9599 80.728C83.4239 81.128 84.2079 81.992 84.4799 82.408C86.5919 81.464 88.1759 80.184 89.3439 78.52C90.5279 79.864 91.7439 81.336 92.3359 82.376L93.9679 80.792Z" fill="#2F2F2F"/>
<path d="M103.152 79.688V74.152H108.8V72.216H103.152V67.64H101.104V79.688H95.3759V81.608H109.92V79.688H103.152Z" fill="#2F2F2F"/>
<path d="M8.38281 68.4854H10.1875C11.5137 68.4854 12.6074 68.8887 13.4688 69.6953C14.3438 70.5293 14.7949 71.7051 14.8223 73.2227C14.7949 74.7129 14.3438 75.8613 13.4688 76.668C12.6074 77.5293 11.5479 77.96 10.29 77.96C9.11426 77.96 8.1709 77.6387 7.45996 76.9961C6.7627 76.3809 6.22266 75.5742 5.83984 74.5762H1.55371C2.01855 77.0645 3.03711 78.9648 4.60938 80.2773C6.18164 81.5898 7.98633 82.2461 10.0234 82.2461C12.6621 82.2188 14.8223 81.3779 16.5039 79.7236C18.2129 78.1104 19.0811 75.9023 19.1084 73.0996C19.1084 71.8418 18.8418 70.6387 18.3086 69.4902C17.748 68.3418 16.8389 67.3574 15.5811 66.5371C16.8115 65.7031 17.666 64.7529 18.1445 63.6865C18.5547 62.6201 18.7598 61.5127 18.7598 60.3643C18.7324 58.0947 17.9531 56.126 16.4219 54.458C14.8223 52.749 12.6621 51.8809 9.94141 51.8535C7.79492 51.8809 5.94922 52.6465 4.4043 54.1504C2.83203 55.668 1.93652 57.5342 1.71777 59.749H6.00391C6.27734 58.5186 6.81055 57.6094 7.60352 57.0215C8.35547 56.4336 9.18945 56.1396 10.1055 56.1396C11.377 56.167 12.416 56.5703 13.2227 57.3496C14.0293 58.1562 14.4463 59.1885 14.4736 60.4463C14.4736 61.6904 14.0703 62.7021 13.2637 63.4814C12.457 64.2881 11.3223 64.6914 9.85938 64.6914H8.38281V68.4854Z" fill="#2F2F2F"/>
<path d="M34.6131 73.3867C34.5311 76.4082 33.1297 77.9326 30.409 77.96C27.6746 77.9326 26.2801 76.4082 26.2254 73.3867V60.7129C26.2801 57.7188 27.6746 56.1943 30.409 56.1396C33.1297 56.1943 34.5311 57.7188 34.6131 60.7129V73.3867ZM21.9393 73.6328C21.9666 76.3809 22.8485 78.5 24.5848 79.9902C26.2118 81.4668 28.1532 82.2188 30.409 82.2461C32.7332 82.2188 34.7088 81.4668 36.3358 79.9902C37.9901 78.5 38.8446 76.3809 38.8993 73.6328V60.4463C38.8446 57.6846 37.9901 55.5586 36.3358 54.0684C34.7088 52.5918 32.7332 51.8535 30.409 51.8535C28.1532 51.8535 26.2118 52.5918 24.5848 54.0684C22.8485 55.5586 21.9666 57.6846 21.9393 60.4463V73.6328Z" fill="#2F2F2F"/>
<path d="M53.9528 73.3867C53.8708 76.4082 52.4694 77.9326 49.7487 77.96C47.0143 77.9326 45.6198 76.4082 45.5651 73.3867V60.7129C45.6198 57.7188 47.0143 56.1943 49.7487 56.1396C52.4694 56.1943 53.8708 57.7188 53.9528 60.7129V73.3867ZM41.279 73.6328C41.3063 76.3809 42.1882 78.5 43.9245 79.9902C45.5514 81.4668 47.4929 82.2188 49.7487 82.2461C52.0729 82.2188 54.0485 81.4668 55.6755 79.9902C57.3298 78.5 58.1843 76.3809 58.2389 73.6328V60.4463C58.1843 57.6846 57.3298 55.5586 55.6755 54.0684C54.0485 52.5918 52.0729 51.8535 49.7487 51.8535C47.4929 51.8535 45.5514 52.5918 43.9245 54.0684C42.1882 55.5586 41.3063 57.6846 41.279 60.4463V73.6328Z" fill="#2F2F2F"/>
<path fill-rule="evenodd" clip-rule="evenodd" d="M299 20H166V80H299V20ZM164 18V82H301V18H164Z" fill="#131313"/>
<path d="M259.972 41.24H252.268L252.076 39.944L249.868 40.568V36.896H251.452V39.08H259.972V41.24ZM265.42 39.08V36.44H259.972V34.4H264.388V31.808H259.972V29.672H257.14V31.808H252.892V34.4H257.14V36.44H251.86V34.184H249.868V29.696H247.252V34.184H246.124C246.268 33.224 246.388 32.264 246.484 31.304L244.108 30.92C243.892 33.752 243.508 36.728 242.74 38.648C243.292 38.936 244.324 39.584 244.756 39.944C245.092 39.08 245.404 38.048 245.644 36.896H247.252V41.312C245.644 41.744 244.156 42.128 242.98 42.392L243.652 45.128C244.732 44.816 245.956 44.456 247.252 44.072V52.088H249.868V43.28C250.564 43.064 251.284 42.824 251.98 42.608V43.88H254.884L252.82 45.152C253.852 46.304 255.076 47.888 255.556 48.92L257.836 47.456C257.26 46.4 256.012 44.936 254.956 43.88H259.972V48.848C259.972 49.16 259.876 49.232 259.468 49.256C259.084 49.256 257.788 49.256 256.588 49.208C256.972 50 257.356 51.224 257.452 52.04C259.252 52.04 260.596 51.992 261.58 51.56C262.54 51.104 262.78 50.336 262.78 48.896V43.88H265.204V41.24H262.78V39.08H265.42Z" fill="#131313"/>
<path d="M276.436 30.416H268.828V32.576H276.436V30.416ZM273.82 45.824V48.584H271.084V45.824H273.82ZM276.316 43.568H268.612V51.752H271.084V50.816H276.316V43.568ZM268.684 42.392H276.388V40.256H268.684V42.392ZM289.948 40.4H285.004V35.6H289.444V32.984H281.644C281.956 32.072 282.22 31.112 282.436 30.152L279.58 29.6C279.124 31.808 278.356 34.04 277.348 35.816V33.632H267.532V35.888H277.3C277.012 36.392 276.724 36.872 276.388 37.304V36.968H268.684V39.152H276.388V37.904C277.108 38.288 278.092 38.936 278.572 39.296C279.316 38.288 280.036 37.016 280.66 35.6H282.124V40.4H277.108V43.112H282.124V52.064H285.004V43.112H289.948V40.4Z" fill="#131313"/>
<path d="M251.14 65.456V63.76H254.692V65.456H251.14ZM245.668 65.456V63.76H249.14V65.456H245.668ZM249.14 60.4V62.016H245.668V60.4H249.14ZM254.692 60.4V62.016H251.14V60.4H254.692ZM251.14 58.576V56.432H249.14V58.576H243.764V68.128H245.668V67.28H249.14V71.376H251.14V67.28H254.692V68.048H256.676V58.576H251.14Z" fill="#131313"/>
<path d="M264.532 56.944H259.828V58.384H264.532V56.944ZM265.108 59.088H259.028V60.592H265.108V59.088ZM264.58 61.312H259.78V62.768H264.58V61.312ZM259.78 64.928H264.58V63.504H259.78V64.928ZM262.98 67.216V69.056H261.332V67.216H262.98ZM264.596 65.712H259.732V71.168H261.332V70.544H264.596V65.712ZM267.94 67.184V66.432H271.252V67.184H267.94ZM271.252 64.48V65.2H267.94V64.48H271.252ZM273.028 63.136H266.196V71.36H267.94V68.416H271.252V69.584C271.252 69.76 271.204 69.824 270.996 69.824C270.788 69.84 270.132 69.84 269.54 69.824C269.748 70.24 269.972 70.88 270.036 71.344C271.06 71.344 271.812 71.328 272.34 71.072C272.884 70.832 273.028 70.416 273.028 69.616V63.136ZM270.388 61.168V60.528H273.364V59.248H270.388V58.672H273.604V57.312H270.388V56.448H268.58V57.312H265.492V58.672H268.58V59.248H265.892V60.528H268.58V61.168H265.108V62.528H273.892V61.168H270.388Z" fill="#131313"/>
<path d="M283.796 64.528V61.088H287.412V64.528H283.796ZM278.18 64.528V61.088H281.78V64.528H278.18ZM283.796 59.216V56.448H281.78V59.216H276.26V67.28H278.18V66.4H281.78V71.392H283.796V66.4H287.412V67.2H289.412V59.216H283.796Z" fill="#131313"/>
<path d="M178.381 38H181.124C183.958 38 185.778 36.388 185.778 33.151C185.778 29.901 183.958 28.38 181.02 28.38H178.381V38ZM180.305 36.453V29.914H180.903C182.697 29.914 183.815 30.798 183.815 33.151C183.815 35.491 182.697 36.453 180.903 36.453H180.305Z" fill="#131313"/>
<path d="M190.925 38.182C191.835 38.182 192.758 37.87 193.473 37.376L192.823 36.206C192.303 36.531 191.783 36.713 191.185 36.713C190.106 36.713 189.326 36.089 189.17 34.893H193.655C193.707 34.724 193.746 34.373 193.746 34.022C193.746 32.007 192.706 30.538 190.704 30.538C188.962 30.538 187.311 32.007 187.311 34.373C187.311 36.765 188.897 38.182 190.925 38.182ZM189.144 33.632C189.287 32.566 189.963 32.02 190.73 32.02C191.666 32.02 192.108 32.644 192.108 33.632H189.144Z" fill="#131313"/>
<path d="M197.659 38.182C199.557 38.182 200.558 37.155 200.558 35.881C200.558 34.529 199.492 34.048 198.53 33.684C197.763 33.398 197.048 33.203 197.048 32.67C197.048 32.254 197.36 31.968 198.01 31.968C198.556 31.968 199.063 32.228 199.583 32.592L200.441 31.435C199.83 30.98 199.024 30.538 197.958 30.538C196.32 30.538 195.254 31.461 195.254 32.774C195.254 33.983 196.32 34.542 197.243 34.893C198.01 35.192 198.764 35.439 198.764 35.985C198.764 36.44 198.439 36.752 197.711 36.752C197.035 36.752 196.411 36.466 195.761 35.959L194.89 37.155C195.605 37.753 196.684 38.182 197.659 38.182Z" fill="#131313"/>
<path d="M202.276 38H204.174V30.72H202.276V38ZM203.238 29.55C203.888 29.55 204.369 29.108 204.369 28.51C204.369 27.886 203.888 27.47 203.238 27.47C202.575 27.47 202.094 27.886 202.094 28.51C202.094 29.108 202.575 29.55 203.238 29.55Z" fill="#131313"/>
<path d="M209.045 41.159C211.476 41.159 212.997 40.041 212.997 38.572C212.997 37.298 212.048 36.752 210.293 36.752H209.058C208.2 36.752 207.914 36.544 207.914 36.154C207.914 35.868 208.018 35.699 208.226 35.53C208.538 35.634 208.876 35.699 209.162 35.699C210.722 35.699 211.97 34.867 211.97 33.229C211.97 32.774 211.827 32.371 211.632 32.124H212.88V30.72H210.254C209.955 30.616 209.565 30.538 209.162 30.538C207.615 30.538 206.224 31.461 206.224 33.177C206.224 34.022 206.692 34.711 207.186 35.075V35.127C206.757 35.439 206.38 35.946 206.38 36.492C206.38 37.09 206.666 37.467 207.043 37.714V37.779C206.38 38.156 206.003 38.676 206.003 39.287C206.003 40.574 207.329 41.159 209.045 41.159ZM209.162 34.516C208.525 34.516 208.018 34.035 208.018 33.177C208.018 32.319 208.512 31.838 209.162 31.838C209.812 31.838 210.293 32.319 210.293 33.177C210.293 34.035 209.799 34.516 209.162 34.516ZM209.331 39.95C208.265 39.95 207.589 39.599 207.589 38.988C207.589 38.689 207.745 38.403 208.07 38.143C208.33 38.208 208.642 38.247 209.084 38.247H209.968C210.748 38.247 211.177 38.377 211.177 38.897C211.177 39.469 210.423 39.95 209.331 39.95Z" fill="#131313"/>
<path d="M214.501 38H216.399V32.995C216.945 32.462 217.322 32.176 217.92 32.176C218.635 32.176 218.947 32.579 218.947 33.697V38H220.858V33.463C220.858 31.63 220.182 30.538 218.609 30.538C217.621 30.538 216.88 31.058 216.243 31.682H216.191L216.061 30.72H214.501V38Z" fill="#131313"/>
<path d="M188.727 61.02L189.519 58.104C190.311 55.332 191.103 52.308 191.787 49.392H191.931C192.723 52.272 193.443 55.332 194.271 58.104L195.063 61.02H188.727ZM198.087 72H203.667L195.099 45.36H188.835L180.303 72H185.703L187.575 65.16H196.215L198.087 72Z" fill="#131313"/>
<path d="M208.946 72H214.274V45.36H208.946V72Z" fill="#131313"/>
<path fill-rule="evenodd" clip-rule="evenodd" d="M233 73H232V27H233V73Z" fill="black"/>
</svg>
