<svg width="385" height="127" viewBox="0 0 385 127" fill="none" xmlns="http://www.w3.org/2000/svg">
<path d="M296.75 119.35C296.75 118.94 296.41 118.6 296 118.6C295.59 118.6 295.25 118.94 295.25 119.35C295.25 119.76 295.59 120.1 296 120.1C296.41 120.1 296.75 119.76 296.75 119.35ZM292.7 118.61L292.41 118.9L295.71 122.2L292.4 125.51L292.69 125.8L296 122.49L299.3 125.79L299.59 125.5L296.29 122.2L299.59 118.9L299.3 118.61L296 121.91L292.7 118.61ZM293.15 121.45C292.74 121.45 292.4 121.79 292.4 122.2C292.4 122.61 292.74 122.95 293.15 122.95C293.56 122.95 293.9 122.61 293.9 122.2C293.9 121.79 293.56 121.45 293.15 121.45ZM298.85 122.95C299.26 122.95 299.6 122.61 299.6 122.2C299.6 121.79 299.26 121.45 298.85 121.45C298.44 121.45 298.1 121.79 298.1 122.2C298.1 122.61 298.44 122.95 298.85 122.95ZM295.25 125.05C295.25 125.46 295.59 125.8 296 125.8C296.41 125.8 296.75 125.46 296.75 125.05C296.75 124.64 296.41 124.3 296 124.3C295.59 124.3 295.25 124.64 295.25 125.05Z" fill="#747474"/>
<path d="M307.747 117.78C307.597 118.13 307.317 118.66 307.117 118.99L307.597 119.17C307.817 118.87 308.087 118.42 308.297 117.99L307.747 117.78ZM305.437 118.97C305.337 118.65 305.067 118.18 304.817 117.84L304.307 118.03C304.547 118.39 304.807 118.88 304.897 119.19L305.437 118.97ZM310.327 122.98H309.597V123.78H306.897V122.99H306.177V123.78H303.777V124.44H306.117C305.967 125.07 305.487 125.71 304.017 126.17C304.177 126.31 304.387 126.58 304.477 126.75C306.237 126.17 306.737 125.3 306.857 124.44H309.597V126.75H310.327V124.44H312.697V123.78H310.327V122.98ZM305.337 120.29C305.247 120.82 305.097 121.37 304.867 121.79C304.987 121.83 305.187 121.93 305.267 121.99C305.487 121.57 305.667 120.96 305.777 120.39L305.337 120.29ZM307.547 121.48C307.487 121.17 307.317 120.66 307.147 120.29L306.757 120.39C306.927 120.78 307.097 121.29 307.157 121.61L307.547 121.48ZM309.717 119.31H311.547C311.347 119.96 311.047 120.5 310.637 120.95C310.217 120.5 309.897 119.97 309.687 119.38L309.717 119.31ZM312.747 119.31V118.7H309.987C310.117 118.41 310.217 118.1 310.317 117.8L309.707 117.63C309.417 118.61 308.947 119.58 308.387 120.24V119.28H306.577V117.63H305.947V119.28H304.157V122.81H304.727V119.82H305.997V122.65H306.527V119.82H307.797V122.05C307.797 122.14 307.777 122.17 307.687 122.17C307.587 122.18 307.327 122.18 306.997 122.17C307.067 122.33 307.157 122.56 307.167 122.72C307.617 122.72 307.937 122.72 308.137 122.62C308.347 122.52 308.387 122.36 308.387 122.06V120.31C308.517 120.46 308.707 120.71 308.787 120.82C308.977 120.58 309.157 120.32 309.337 120.03C309.577 120.52 309.867 120.98 310.207 121.37C309.757 121.74 309.207 122.03 308.577 122.26C308.687 122.39 308.867 122.68 308.927 122.82C309.597 122.55 310.177 122.23 310.657 121.82C311.167 122.26 311.757 122.6 312.447 122.83C312.537 122.66 312.717 122.42 312.857 122.29C312.187 122.1 311.597 121.79 311.107 121.39C311.607 120.84 311.987 120.15 312.227 119.31H312.747Z" fill="#747474"/>
<path d="M317.847 123.29C317.597 123.07 316.717 122.3 316.257 121.93C316.777 121.26 317.237 120.52 317.547 119.75L317.127 119.47L316.997 119.5H316.127V117.64H315.397V119.5H313.827V120.18H316.607C315.917 121.51 314.667 122.77 313.477 123.46C313.597 123.6 313.787 123.94 313.867 124.13C314.377 123.8 314.897 123.38 315.397 122.89V126.76H316.127V122.62C316.577 123.04 317.127 123.6 317.387 123.89L317.847 123.29ZM320.567 125.75V121.6H322.697V120.88H320.567V117.71H319.827V120.88H317.687V121.6H319.827V125.75H317.297V126.48H322.897V125.75H320.567Z" fill="#747474"/>
<path d="M325.947 124.6C325.517 124.6 324.937 124.05 324.937 122.8C324.937 121.47 326.097 119.84 327.997 119.6C327.887 120.51 327.697 121.45 327.447 122.27C326.937 123.94 326.387 124.6 325.947 124.6ZM328.557 126.26C330.917 125.95 332.287 124.56 332.287 122.48C332.287 120.48 330.807 118.84 328.487 118.84C326.067 118.84 324.147 120.72 324.147 122.87C324.147 124.5 325.037 125.52 325.917 125.52C326.837 125.52 327.627 124.47 328.237 122.44C328.507 121.51 328.697 120.51 328.827 119.59C330.507 119.73 331.457 120.96 331.457 122.46C331.457 124.17 330.217 125.11 328.947 125.39C328.707 125.44 328.407 125.49 328.097 125.51L328.557 126.26Z" fill="#747474"/>
<path d="M342.637 124.17V123.51H338.397C338.487 123.2 338.537 122.88 338.557 122.57H341.527V121.95H338.577V121.06H341.667V120.53H342.417V118.61H338.597V117.64H337.857V118.61H334.047V120.53H334.767V119.28H341.667V120.43H338.577V119.6H337.837V120.43H334.887V121.06H337.837V121.95H335.047V122.57H337.817C337.797 122.88 337.747 123.2 337.627 123.51H333.897V124.17H337.287C336.767 124.92 335.747 125.62 333.797 126.16C333.957 126.32 334.167 126.6 334.247 126.76C336.527 126.08 337.617 125.16 338.137 124.17H338.227C338.987 125.6 340.347 126.44 342.297 126.78C342.397 126.59 342.587 126.29 342.747 126.14C341.007 125.89 339.727 125.24 339.017 124.17H342.637Z" fill="#747474"/>
<path d="M352.797 120.23H350.277V119.69H352.297V119.21H350.277V118.69H352.547V118.19H350.277V117.64H349.537V118.19H347.377V118.69H349.537V119.21H347.637V119.69H349.537V120.23H347.107V120.74H352.797V120.23ZM348.457 124H351.527V124.67H348.457V124ZM348.457 122.87H351.527V123.52H348.457V122.87ZM348.457 121.75H351.527V122.38H348.457V121.75ZM352.227 125.17V121.25H347.777V125.17H352.227ZM344.157 123.3C344.047 124.17 343.857 125.07 343.547 125.68C343.687 125.73 343.987 125.86 344.097 125.95C344.417 125.31 344.647 124.35 344.787 123.41L344.157 123.3ZM346.687 122.5C346.777 122.72 346.847 122.94 346.887 123.12L347.477 122.85C347.327 122.3 346.927 121.45 346.517 120.8L345.977 121.02C346.127 121.28 346.287 121.58 346.427 121.88L344.957 121.95C345.637 121.1 346.387 119.97 346.957 119.06L346.337 118.77C346.057 119.31 345.677 119.96 345.267 120.58C345.117 120.38 344.937 120.16 344.727 119.94C345.107 119.38 345.537 118.57 345.877 117.88L345.227 117.64C345.017 118.19 344.667 118.95 344.337 119.52C344.237 119.42 344.137 119.33 344.037 119.24L343.637 119.71C344.087 120.14 344.587 120.71 344.877 121.16C344.667 121.46 344.457 121.74 344.257 121.99L343.567 122.02L343.607 122.69C344.077 122.66 344.627 122.63 345.207 122.59V126.76H345.867V122.55L346.687 122.5ZM347.307 125.06C347.237 124.57 347.017 123.83 346.767 123.26L346.227 123.42C346.467 124 346.667 124.75 346.727 125.23L347.307 125.06ZM348.897 125.22C348.427 125.63 347.487 126.08 346.667 126.32C346.817 126.44 347.037 126.66 347.147 126.8C347.967 126.55 348.927 126.07 349.517 125.59L348.897 125.22ZM350.467 125.62C351.107 126 351.827 126.47 352.227 126.77L352.877 126.41C352.407 126.09 351.637 125.63 350.967 125.25L350.467 125.62Z" fill="#747474"/>
<path d="M357.907 124.64C357.907 125.32 357.557 125.66 356.827 125.66C355.877 125.66 355.327 125.36 355.327 124.81C355.327 124.27 355.907 123.92 356.927 123.92C357.257 123.92 357.577 123.95 357.897 124.02C357.897 124.27 357.907 124.48 357.907 124.64ZM358.577 120.9C359.387 120.88 360.657 120.82 361.537 120.74L361.507 119.98C360.617 120.1 359.367 120.15 358.577 120.17C358.577 119.78 358.567 119.43 358.577 119.16C358.587 118.86 358.617 118.39 358.657 118.18H357.697C357.737 118.37 357.767 118.8 357.777 119.16C357.787 119.58 357.787 120.4 357.787 120.97C357.787 121.56 357.827 122.47 357.867 123.27C357.587 123.23 357.307 123.21 357.027 123.21C355.317 123.21 354.537 123.95 354.537 124.84C354.537 125.97 355.547 126.41 356.907 126.41C358.227 126.41 358.727 125.71 358.727 124.9C358.727 124.72 358.717 124.5 358.707 124.24C359.737 124.6 360.647 125.23 361.277 125.87L361.757 125.13C361.037 124.48 359.947 123.79 358.677 123.44C358.627 122.58 358.577 121.62 358.577 120.97V120.9Z" fill="#747474"/>
<path d="M365.571 118.11C365.561 118.35 365.531 118.65 365.491 118.96C365.371 119.76 365.191 121.22 365.191 122.16C365.191 122.8 365.241 123.36 365.291 123.73L366.071 123.67C366.001 123.18 366.001 122.84 366.051 122.46C366.171 121.16 367.311 119.37 368.541 119.37C369.591 119.37 370.111 120.49 370.111 122.05C370.111 124.54 368.431 125.4 366.281 125.73L366.751 126.45C369.211 126 370.941 124.79 370.941 122.04C370.941 119.96 369.991 118.64 368.671 118.64C367.421 118.64 366.381 119.87 365.991 120.89C366.051 120.2 366.241 118.87 366.451 118.14L365.571 118.11Z" fill="#747474"/>
<path d="M21.7401 16.6116H14.7741V11.9676H10.4541V16.6116H6.40408V20.6616H10.4541V27.1146H14.7741V20.6616H21.7401V23.1726C21.7401 26.1426 21.4431 30.5436 11.2911 31.6776L12.9381 35.6736C22.9821 34.0536 26.1681 30.0306 26.1681 23.1726V20.6616H30.3801V16.6116H26.1681V11.8866H21.7401V16.6116Z" fill="#383838"/>
<path d="M34.1331 21.4716V25.9806H57.9471V21.4716H34.1331Z" fill="#383838"/>
<path d="M63.7521 12.6696V30.4356C63.7521 33.0546 64.9401 34.7556 69.1521 34.7556H78.5751C79.1151 34.7556 81.5991 34.7286 83.9481 34.3776L83.7051 29.8956C82.1121 30.1656 79.3581 30.4896 77.8191 30.4896H70.0161C68.5041 30.4896 68.2071 30.2736 68.2071 29.0586V24.1716C73.2561 23.0916 78.1431 21.3096 82.8141 19.0956L80.9781 16.4226L79.9791 16.7736C79.7091 15.9906 79.6821 15.9096 79.5471 15.5856C75.7941 17.4756 72.9321 18.7446 68.2071 19.9056V12.6696H63.7521ZM82.8141 15.2616C82.5441 14.1006 81.8421 12.2376 81.3021 11.2116L79.0071 11.7516C79.2771 12.3456 79.6821 13.2096 80.4651 16.0176L82.8141 15.2616ZM86.4591 14.8566C86.3511 14.3976 85.6761 12.0216 84.9201 10.7256L82.6791 11.2926C83.5971 13.2096 84.1101 15.0996 84.2181 15.5046L86.4591 14.8566Z" fill="#383838"/>
<path d="M91.3191 35.5656C93.1821 34.7826 96.9621 33.1356 101.822 27.8436C103.496 29.2476 107.222 32.9196 109.652 35.7276L113.297 32.1636C110.57 29.4096 107.6 26.8716 104.441 24.5766C108.248 19.1766 109.058 14.6946 109.328 13.0746H90.4821V17.1516H103.577C100.688 24.6036 94.9371 29.5176 88.8621 31.9476L91.3191 35.5656Z" fill="#383838"/>
<path d="M129.524 21.2826H136.868V32.1096C136.868 32.5686 136.814 32.6766 136.22 32.6766H134.006L134.87 36.5376H138.299C140.594 36.5376 140.594 34.3236 140.594 33.8376V11.7246H129.524V21.2826ZM121.289 27.2766V30.5436H123.692C123.179 32.3526 121.937 33.1896 121.154 33.7026L123.962 36.3486C124.772 35.7546 126.77 34.2696 127.445 30.5436H129.956V36.1596H133.574V30.5436H135.95V27.2766H133.574V25.4676H135.572V22.2816H121.748V25.4676H124.016V27.2766H121.289ZM136.841 14.3976V15.6396H133.223V14.3976H136.841ZM136.841 17.6376V18.8796H133.223V17.6376H136.841ZM127.661 27.2766V25.4676H129.956V27.2766H127.661ZM116.726 36.5376H120.398V21.2826H127.688V11.7246H116.726V36.5376ZM124.151 14.3976V15.6396H120.425V14.3976H124.151ZM124.151 17.6376V18.8796H120.425V17.6376H124.151Z" fill="#383838"/>
<path d="M158.441 10.7526C157.793 14.4246 156.524 18.3126 156.173 19.3386C154.904 19.3926 154.769 19.3926 154.391 19.4196C154.58 17.6376 154.607 16.3416 154.661 15.1536H150.449C150.773 12.3726 150.8 12.0486 150.908 11.0496L147.047 10.9416C147.02 11.7786 146.966 12.6966 146.777 15.1536H144.482V18.9606H146.318C145.724 23.2536 144.86 25.6566 144.401 26.9796C145.319 27.4386 146.237 27.9246 148.1 29.1936C146.588 31.4616 145.022 32.5956 144.023 33.2976L146.723 36.6456C147.641 35.8626 149.315 34.4316 151.016 31.6236C152.069 32.6496 152.555 33.1626 152.933 33.5946L155.39 29.9766C154.931 29.5446 154.526 29.1666 152.771 27.8436C153.716 25.0626 154.202 21.0126 154.31 20.2296L154.634 23.1726C158.225 23.0646 164.921 22.3356 166.352 22.1466C166.514 22.6596 166.595 22.9296 166.784 23.6046L170.456 22.0926C169.268 18.2856 167.405 15.4236 166.541 14.1546L163.139 15.7206C163.598 16.4496 164.246 17.5026 164.921 18.9066C162.653 19.0686 162.14 19.0956 160.034 19.1766C161.249 16.3416 162.14 13.9656 162.815 11.1576L158.441 10.7526ZM151.286 18.9606C151.205 20.2296 151.043 22.4976 149.828 25.8456C149.153 25.4406 148.91 25.3326 148.478 25.0896C149.126 23.3616 149.558 21.0936 149.909 18.9606H151.286ZM169.106 24.2796H155.687V36.5646H159.413V35.4846H165.164V36.5646H169.106V24.2796ZM165.164 27.6816V31.7586H159.413V27.6816H165.164Z" fill="#383838"/>
<path d="M178.09 17.3196C177.99 18.5796 177.95 19.1996 177.79 20.8596H174.49V23.8996L177.31 23.8796C176.89 26.1196 175.97 30.1796 174.01 33.4996L177.09 35.0596C178.87 32.0396 179.99 26.5796 180.55 23.8596L182.29 23.8396C183.65 23.8196 184.09 24.4596 184.09 26.2996C184.09 26.4796 184.01 29.5596 183.41 31.0996C183.05 31.9796 182.35 31.9796 182.01 31.9796C181.87 31.9796 181.11 31.9596 179.31 31.6596L179.53 34.7996C180.29 34.9196 181.71 35.1196 182.67 35.1196C184.25 35.1196 185.19 34.4196 185.75 33.7196C186.83 32.3796 187.19 28.7196 187.19 26.9196C187.19 23.0396 186.15 20.8596 182.77 20.8596H181.03C181.23 19.4396 181.33 18.3996 181.41 17.4796L178.09 17.3196ZM192.61 28.4196C192.35 24.5596 191.53 21.8796 189.57 19.1996L186.81 20.5396C187.91 22.0796 189.15 24.2396 189.27 28.9796L192.61 28.4196Z" fill="#383838"/>
<path d="M209.27 18.5996C205.21 17.4396 201.23 17.3596 200.11 17.3396L199.57 20.2796C201.55 20.3596 206.09 20.9196 208.53 21.8996L209.27 18.5996ZM197.13 20.8996C196.99 21.8196 196.67 23.8996 196.65 29.2596L199.81 29.3596V28.7796C201.21 27.3396 203.47 26.5396 205.47 26.5396C205.95 26.5396 208.31 26.6596 208.31 28.8196C208.31 30.7996 206.83 32.1596 201.13 32.1596C200.05 32.1596 198.55 32.1196 196.51 31.9196L197.11 35.0596C197.91 35.0996 198.33 35.1196 200.17 35.1196C206.05 35.1196 207.65 34.4196 208.61 33.9396C210.31 33.0796 211.73 31.5796 211.73 28.8996C211.73 26.0996 209.73 23.7396 206.07 23.7396C205.73 23.7396 202.57 23.7396 199.87 25.4596C199.91 24.2596 200.07 22.5396 200.37 21.1196L197.13 20.8996Z" fill="#383838"/>
<path d="M17.7441 87.1876C19.0401 87.1066 21.6051 86.9716 24.4131 85.9726C27.5451 84.8386 30.6501 81.7876 30.6501 76.8196C30.6501 72.4186 27.9231 67.9636 22.3071 67.9636C18.7431 67.9636 16.1511 69.7726 15.0711 70.5826C15.1251 70.4746 15.4221 69.9886 15.5571 69.8266V67.5316H14.9631L15.1521 63.8866H10.8321V67.5586H6.89008V71.6626L10.7781 71.5816V73.9306C8.40208 77.2786 7.21408 78.3046 6.08008 79.2226L8.07808 83.7586C8.78008 83.0296 9.53608 82.2466 10.6971 80.1676L10.6431 87.5386H14.9631L14.9091 75.0376C15.9891 74.0386 18.4191 71.9326 21.5781 71.9326C23.0361 71.9326 26.1951 72.3916 26.1951 76.6576C26.1951 82.4086 21.3351 82.9216 16.6101 83.2456L17.7441 87.1876Z" fill="#383838"/>
<path d="M45.3381 66.2086H33.0261V70.1236H45.3651L45.3921 71.5816C44.9871 71.3926 44.5551 71.1766 43.3131 71.1766C39.7761 71.1766 37.5621 73.6336 37.5621 76.8736C37.5621 79.9786 39.7491 82.3816 42.9351 82.3816C44.4471 82.3816 45.1491 81.8956 45.5811 81.5716C44.0961 84.1906 39.9381 84.1636 36.8871 84.1636L38.2911 87.9706C42.3411 87.7276 50.1171 87.2686 50.1171 78.9526C50.1171 77.7106 49.9281 76.8736 49.7391 76.0906V70.1236H56.8671V66.2086H49.7391V63.6976H45.3111L45.3381 66.2086ZM45.6621 77.1436C45.6621 78.7366 44.4741 79.1956 43.6101 79.1956C42.2331 79.1956 41.4771 78.1966 41.4771 76.9006C41.4771 75.0106 42.9081 74.5246 43.6911 74.5246C44.8791 74.5246 45.6621 75.6856 45.6621 76.4956V77.1436ZM57.8391 75.7666C57.3801 73.7416 56.5431 72.1216 56.1921 71.4466L54.0321 72.1216C54.8691 74.0386 55.1931 75.1456 55.5171 76.5496L57.8391 75.7666ZM54.1941 76.6846C53.8701 75.1456 53.4921 73.9846 52.7361 72.2296L50.5491 72.9586C51.1161 74.3086 51.5751 75.9556 51.8181 77.3866L54.1941 76.6846Z" fill="#383838"/>
<path d="M65.5881 63.4816C65.4531 65.1826 65.3991 66.0196 65.1831 68.2606H60.7281V72.3646L64.5351 72.3376C63.9681 75.3616 62.7261 80.8426 60.0801 85.3246L64.2381 87.4306C66.6411 83.3536 68.1531 75.9826 68.9091 72.3106L71.2581 72.2836C73.0941 72.2566 73.6881 73.1206 73.6881 75.6046C73.6881 75.8476 73.5801 80.0056 72.7701 82.0846C72.2841 83.2726 71.3391 83.2726 70.8801 83.2726C70.6911 83.2726 69.6651 83.2456 67.2351 82.8406L67.5321 87.0796C68.5581 87.2416 70.4751 87.5116 71.7711 87.5116C73.9041 87.5116 75.1731 86.5666 75.9291 85.6216C77.3871 83.8126 77.8731 78.8716 77.8731 76.4416C77.8731 71.2036 76.4691 68.2606 71.9061 68.2606H69.5571C69.8271 66.3436 69.9621 64.9396 70.0701 63.6976L65.5881 63.4816ZM85.1901 78.4666C84.8391 73.2556 83.7321 69.6376 81.0861 66.0196L77.3601 67.8286C78.8451 69.9076 80.5191 72.8236 80.6811 79.2226L85.1901 78.4666Z" fill="#383838"/>
<path d="M84.8201 54.4796V60.4796H91.2201V85.9996H97.8201V54.4796H84.8201Z" fill="#383838"/>
<path d="M103.957 79.2396V85.9996H110.717V79.2396H103.957Z" fill="#383838"/>
<path d="M116.654 54.4796L116.214 72.8796H122.254C122.614 71.7596 123.054 70.5996 129.974 70.5996C136.654 70.5996 137.174 72.1196 137.174 75.5996C137.174 79.5996 135.774 80.3196 129.094 80.3196C122.334 80.3196 121.854 78.8396 121.854 75.7596H115.294C115.414 84.6796 119.054 86.3196 129.854 86.3196C140.374 86.3196 143.734 83.7596 143.734 75.5996C143.734 65.7596 138.534 64.7996 131.814 64.7996C125.454 64.7996 123.854 65.8796 122.494 66.9196L122.734 60.4796H142.494V54.4796H116.654Z" fill="#383838"/>
<path d="M153.152 75.5596H147.672V81.3196H165.992V89.7596H172.152V81.3196H185.672V75.5596H172.152V70.2396H182.952V64.6396H172.152V60.7996H184.232V55.0396H160.552C161.112 53.6396 161.272 53.0396 161.472 52.2396L155.272 51.4396C153.992 56.0396 150.872 60.3196 147.112 63.2396L151.032 68.5196C151.752 67.9196 152.232 67.4796 153.152 66.5196V75.5596ZM154.872 64.6396C156.272 62.8796 156.472 62.6396 157.592 60.7996H165.992V64.6396H154.872ZM165.992 70.2396V75.5596H159.152V70.2396H165.992Z" fill="#383838"/>
<path d="M209.45 75.9826C208.856 74.7136 207.938 73.1746 206.966 71.9596L204.617 73.1746C205.589 74.4706 206.588 76.3606 207.074 77.3866L209.45 75.9826ZM213.122 73.9846C212.501 72.6616 211.502 71.1766 210.665 70.2046L208.316 71.4196C209.477 72.8236 210.53 74.8216 210.8 75.3886L213.122 73.9846ZM212.69 64.6156C212.609 64.6426 212.231 64.6426 212.204 64.6426C205.103 64.8586 203.483 64.9396 188.876 65.6956L189.119 70.3126C190.685 70.1506 198.488 69.4486 200.243 69.2866C196.841 71.5816 194.114 74.9566 194.114 79.0336C194.114 82.1656 196.085 84.5956 198.569 85.7566C200.945 86.8636 203.564 87.4036 209.801 87.4036L210.314 82.7596C209.18 82.8136 208.235 82.8406 205.454 82.6786C203.402 82.5436 198.839 82.2196 198.839 78.3856C198.839 74.2546 203.51 70.9336 206.048 69.7726C207.668 69.0166 208.694 68.9626 210.233 68.9626C211.232 68.9626 212.177 69.0166 212.798 69.0436L212.69 64.6156Z" fill="#383838"/>
<path d="M380.698 82.0968C380.698 81.548 380.242 81.0928 379.694 81.0928C379.145 81.0928 378.689 81.548 378.689 82.0968C378.689 82.6457 379.145 83.1009 379.694 83.1009C380.242 83.1009 380.698 82.6457 380.698 82.0968ZM375.276 81.1062L374.887 81.4944L379.305 85.9123L374.874 90.3436L375.262 90.7319L379.694 86.3006L384.111 90.7185L384.5 90.3302L380.082 85.9123L384.5 81.4944L384.111 81.1062L379.694 85.5241L375.276 81.1062ZM375.878 84.9082C375.329 84.9082 374.874 85.3634 374.874 85.9123C374.874 86.4612 375.329 86.9164 375.878 86.9164C376.427 86.9164 376.882 86.4612 376.882 85.9123C376.882 85.3634 376.427 84.9082 375.878 84.9082ZM383.509 86.9164C384.058 86.9164 384.513 86.4612 384.513 85.9123C384.513 85.3634 384.058 84.9082 383.509 84.9082C382.96 84.9082 382.505 85.3634 382.505 85.9123C382.505 86.4612 382.96 86.9164 383.509 86.9164ZM378.689 89.7278C378.689 90.2767 379.145 90.7319 379.694 90.7319C380.242 90.7319 380.698 90.2767 380.698 89.7278C380.698 89.1789 380.242 88.7237 379.694 88.7237C379.145 88.7237 378.689 89.1789 378.689 89.7278Z" fill="#747474"/>
<path d="M349.541 63.8108C350.739 65.5086 351.638 66.3409 352.337 67.0068L354.834 62.2461C353.636 61.5802 352.104 60.6814 350.273 58.6839C351.905 56.3201 352.437 55.0883 352.937 53.8566V49.1957H349.541V44.6348H344.481V49.1957H340.286V53.8566H347.577C346.478 56.0205 343.415 59.616 339.687 61.8466L340.952 67.7392C341.917 67.0734 343.116 66.2411 344.481 65.0759V76.162H349.541V63.8108ZM359.428 52.8911H353.436V58.018H359.428V70.2028H351.805V75.2631H371.613V70.2028H364.622V58.018H371.114V52.8911H364.622V44.6348H359.428V52.8911Z" fill="#FE0000"/>
<path d="M354.449 79.2052L351.743 79.1392L351.644 83.3797C351.594 85.4092 351.462 90.4417 345.159 92.1742L346.661 94.5832C347.486 94.3027 349.565 93.6262 351.545 91.4152C352.881 93.0322 353.459 93.9232 353.838 94.5337L355.686 92.2237C354.795 91.0357 353.36 89.6332 352.997 89.2702C354.218 86.8942 354.284 84.8482 354.317 83.7757L354.449 79.2052ZM340.094 93.2632C341.678 92.7187 345.737 91.0852 347.733 90.0127L347.304 87.6532C346.71 87.9502 345.638 88.4782 343.724 89.2372L343.592 79.1227L340.919 79.1722L341.051 90.1777C340.605 90.3262 340.292 90.4252 339.632 90.6067L340.094 93.2632ZM344.664 81.1192C346.991 83.7097 347.09 83.8087 348.129 85.4257L350.291 83.6767C349.103 81.9607 347.684 80.5087 346.628 79.5352L344.664 81.1192Z" fill="black"/>
<path d="M362.699 78.9082V91.4482H356.594V94.0222H372.236V91.4482H365.355V85.7722H371.394V83.1817H365.355V78.9082H362.699Z" fill="black"/>
<path d="M243.248 93.232H271.555V86.1127H252.582L268.557 66.0832C270.556 63.5397 271.555 60.6329 271.555 57.3628C271.51 53.2752 270.136 49.9028 267.433 47.2459C264.776 44.5662 261.313 43.2036 257.044 43.1582C253.229 43.2036 250.015 44.5435 247.404 47.1777C244.815 49.8801 243.43 53.2979 243.248 57.4309H250.333C250.583 55.16 251.378 53.4001 252.718 52.1511C254.012 50.902 255.636 50.2775 257.589 50.2775C259.792 50.323 261.495 51.0383 262.698 52.4236C263.857 53.8088 264.436 55.4325 264.436 57.2947C264.436 57.9987 264.345 58.7481 264.163 59.5429C263.891 60.3831 263.38 61.2915 262.63 62.268L243.248 86.5214V93.232Z" fill="#FE0000"/>
<path d="M296.832 78.9252C296.696 83.944 294.368 86.476 289.849 86.5214C285.307 86.476 282.991 83.944 282.9 78.9252V57.8738C282.991 52.9005 285.307 50.3684 289.849 50.2775C294.368 50.3684 296.696 52.9005 296.832 57.8738V78.9252ZM275.78 79.334C275.826 83.8985 277.291 87.4185 280.175 89.8938C282.877 92.3464 286.102 93.5954 289.849 93.6408C293.709 93.5954 296.991 92.3464 299.693 89.8938C302.441 87.4185 303.86 83.8985 303.951 79.334V57.4309C303.86 52.8437 302.441 49.3124 299.693 46.8371C296.991 44.3845 293.709 43.1582 289.849 43.1582C286.102 43.1582 282.877 44.3845 280.175 46.8371C277.291 49.3124 275.826 52.8437 275.78 57.4309V79.334Z" fill="#FE0000"/>
<path d="M328.955 78.9252C328.819 83.944 326.491 86.476 321.972 86.5214C317.43 86.476 315.114 83.944 315.023 78.9252V57.8738C315.114 52.9005 317.43 50.3684 321.972 50.2775C326.491 50.3684 328.819 52.9005 328.955 57.8738V78.9252ZM307.904 79.334C307.949 83.8985 309.414 87.4185 312.298 89.8938C315.001 92.3464 318.225 93.5954 321.972 93.6408C325.833 93.5954 329.114 92.3464 331.817 89.8938C334.565 87.4185 335.984 83.8985 336.075 79.334V57.4309C335.984 52.8437 334.565 49.3124 331.817 46.8371C329.114 44.3845 325.833 43.1582 321.972 43.1582C318.225 43.1582 315.001 44.3845 312.298 46.8371C309.414 49.3124 307.949 52.8437 307.904 57.4309V79.334Z" fill="#FE0000"/>
<path fill-rule="evenodd" clip-rule="evenodd" d="M368 2H242V34H368V2ZM240 0V36H370V0H240Z" fill="#383838"/>
<path d="M259.22 9.78456H265.314C265.265 10.0989 265.265 10.0989 265.12 10.6067H260.284V18.5616H274.526V10.6067H268.626C268.699 10.4616 268.892 9.88128 268.916 9.78456H275.42V7.5359H272.712C272.978 7.05232 273.051 6.90725 273.196 6.39949L269.472 6.20605C269.4 6.68964 269.327 6.93143 269.085 7.5359H265.894C265.725 6.97978 265.555 6.4962 265.386 6.20605L261.832 6.32695C262.001 6.64128 262.194 7.0765 262.412 7.5359H259.22V9.78456ZM271.068 14.0884V14.8622H263.645V14.0884H271.068ZM271.068 12.1058V12.8795H263.645V12.1058H271.068ZM271.068 16.0711V16.8449H263.645V16.0711H271.068ZM252.885 9.49441C254.554 10.0264 255.98 10.6308 257.673 11.598L259.027 8.28546C257.673 7.51173 256.319 6.90725 254.264 6.32695L252.885 9.49441ZM252.789 22.527V25.1141H257.697L255.618 26.1296C256.754 26.8792 257.214 27.387 258.906 29.2004L262.267 27.4837C261.542 26.6374 260.72 25.7911 259.897 25.1141H268.408V25.9846C268.408 26.2505 268.408 26.4923 267.949 26.4923H264.419L265.023 29.2246H269.811C271.648 29.2246 272.108 28.1607 272.108 27.4111V25.1141H275.42V22.527H272.108V21.6323H275.348L275.928 19.287H261.397C260.091 19.287 259.075 19.0452 258.592 18.2472V12.2025H252.789V15.3699H255.037V17.4493C253.635 18.3198 253.538 18.3681 252.257 18.9726L253.514 22.527H252.789ZM253.756 22.527C254.191 22.261 255.279 21.4147 256.778 20.0365C257.262 20.5684 258.277 21.6323 260.889 21.6323H268.408V22.527H253.756Z" fill="#383838"/>
<path d="M282.698 10.7759H288.985C288.767 16.5789 285.842 22.4544 278.878 25.8153L281.223 29.2729C284.56 27.4111 288.912 24.1711 290.702 17.9087C291.209 19.8672 292.539 25.0899 300.083 29.2729L302.549 25.6702C293.772 21.4872 292.708 14.6204 292.757 7.10068H282.698V10.7759Z" fill="#383838"/>
<path d="M315.34 16.0953H308.062V18.6825H315.171C315.074 19.2869 315.026 19.4562 314.977 19.7464H305.91V22.8896H313.672C311.907 25.0658 307.143 25.6461 305.693 25.8395L307.168 29.3696C310.528 28.7168 313.793 27.532 316.138 25.1141C316.622 24.6064 317.057 23.8326 317.274 23.4458C319.789 27.798 325.06 28.9102 327.405 29.3455L328.88 25.7428C323.126 25.1141 321.796 23.6875 321.095 22.8896H328.711V19.7464H318.459C318.604 19.0693 318.628 18.8759 318.653 18.6825H326.511V16.0953H318.846V15.0556H325.592V13.5807H328.155V7.87441H319.136V6.47202H315.437V7.87441H306.539V13.5807H308.933V15.0556H315.34V16.0953ZM315.34 12.275H310.045V10.921H315.34V12.275ZM318.846 10.921H324.577V12.275H318.846V10.921Z" fill="#383838"/>
<path d="M332.507 19.7464C333.184 19.6738 333.45 19.6496 335.699 19.4078V29.2729H338.504V19.0935C339.108 19.021 339.277 18.9726 339.568 18.9484C339.616 19.1902 339.64 19.2628 339.761 19.964L342.082 19.1902V25.5493H344.283C342.783 26.2747 341.526 26.5165 340.196 26.7583L341.768 29.418C342.977 29.0553 345.322 28.3058 347.257 26.9517L345.878 25.5493H350.279L348.901 26.9517C350.545 28.1365 352.503 28.8861 354.123 29.4422L355.743 26.7341C354.341 26.4681 352.914 26.1055 351.633 25.5493H354.414V16.0953H342.082V18.8275C341.454 16.6514 340.873 15.3458 340.341 14.0643L338.334 14.7413C338.528 15.2732 338.673 15.5875 338.866 16.2646C338.552 16.2887 337.125 16.3613 336.811 16.3855C337.899 15.104 340.027 12.1783 341.478 9.7362L338.745 8.76904C338.286 9.7362 337.585 10.8001 336.642 12.275C336.303 11.864 336.086 11.6464 335.892 11.4529C335.965 11.3562 337.488 9.18008 338.504 6.93143L335.433 6.30277C335.264 6.83471 335.07 7.46337 334.006 9.61531C333.885 9.51859 333.474 9.13173 333.378 9.05919L332 12.2508C332.943 12.9278 333.958 13.9675 334.804 14.9831C334.2 15.8293 333.934 16.1678 333.668 16.5064C332.773 16.5547 332.749 16.5547 332.217 16.5547L332.507 19.7464ZM350.98 20.3025V21.1487H345.491V20.3025H350.98ZM350.98 17.9329V18.7308H345.491V17.9329H350.98ZM350.98 22.6962V23.5425H345.491V22.6962H350.98ZM332.773 20.4959C332.701 22.938 332.435 24.558 332 26.4923L334.345 28.0398C334.925 25.1141 335.022 23.6634 335.119 20.8102L332.773 20.4959ZM339.084 20.7377C339.35 22.3335 339.398 25.4043 339.398 25.8637L341.454 25.5493C341.405 24.2195 341.212 21.7774 340.946 20.3992L339.084 20.7377ZM346.555 7.36665H341.671V9.78456H346.555V10.5099H342.155V12.3959H346.555V13.1455H341.115V15.3699H355.332V13.1455H349.989V12.3959H354.462V10.5099H349.989V9.78456H354.921V7.36665H349.989V6.37531H346.555V7.36665Z" fill="#383838"/>
<path fill-rule="evenodd" clip-rule="evenodd" d="M373.5 111H0.5V109H373.5V111Z" fill="black"/>
</svg>
