<svg width="281" height="135" viewBox="0 0 281 135" fill="none" xmlns="http://www.w3.org/2000/svg">
<path d="M193.75 127.35C193.75 126.94 193.41 126.6 193 126.6C192.59 126.6 192.25 126.94 192.25 127.35C192.25 127.76 192.59 128.1 193 128.1C193.41 128.1 193.75 127.76 193.75 127.35ZM189.7 126.61L189.41 126.9L192.71 130.2L189.4 133.51L189.69 133.8L193 130.49L196.3 133.79L196.59 133.5L193.29 130.2L196.59 126.9L196.3 126.61L193 129.91L189.7 126.61ZM190.15 129.45C189.74 129.45 189.4 129.79 189.4 130.2C189.4 130.61 189.74 130.95 190.15 130.95C190.56 130.95 190.9 130.61 190.9 130.2C190.9 129.79 190.56 129.45 190.15 129.45ZM195.85 130.95C196.26 130.95 196.6 130.61 196.6 130.2C196.6 129.79 196.26 129.45 195.85 129.45C195.44 129.45 195.1 129.79 195.1 130.2C195.1 130.61 195.44 130.95 195.85 130.95ZM192.25 133.05C192.25 133.46 192.59 133.8 193 133.8C193.41 133.8 193.75 133.46 193.75 133.05C193.75 132.64 193.41 132.3 193 132.3C192.59 132.3 192.25 132.64 192.25 133.05Z" fill="#747474"/>
<path d="M204.747 125.78C204.597 126.13 204.317 126.66 204.117 126.99L204.597 127.17C204.817 126.87 205.087 126.42 205.297 125.99L204.747 125.78ZM202.437 126.97C202.337 126.65 202.067 126.18 201.817 125.84L201.307 126.03C201.547 126.39 201.807 126.88 201.897 127.19L202.437 126.97ZM207.327 130.98H206.597V131.78H203.897V130.99H203.177V131.78H200.777V132.44H203.117C202.967 133.07 202.487 133.71 201.017 134.17C201.177 134.31 201.387 134.58 201.477 134.75C203.237 134.17 203.737 133.3 203.857 132.44H206.597V134.75H207.327V132.44H209.697V131.78H207.327V130.98ZM202.337 128.29C202.247 128.82 202.097 129.37 201.867 129.79C201.987 129.83 202.187 129.93 202.267 129.99C202.487 129.57 202.667 128.96 202.777 128.39L202.337 128.29ZM204.547 129.48C204.487 129.17 204.317 128.66 204.147 128.29L203.757 128.39C203.927 128.78 204.097 129.29 204.157 129.61L204.547 129.48ZM206.717 127.31H208.547C208.347 127.96 208.047 128.5 207.637 128.95C207.217 128.5 206.897 127.97 206.687 127.38L206.717 127.31ZM209.747 127.31V126.7H206.987C207.117 126.41 207.217 126.1 207.317 125.8L206.707 125.63C206.417 126.61 205.947 127.58 205.387 128.24V127.28H203.577V125.63H202.947V127.28H201.157V130.81H201.727V127.82H202.997V130.65H203.527V127.82H204.797V130.05C204.797 130.14 204.777 130.17 204.687 130.17C204.587 130.18 204.327 130.18 203.997 130.17C204.067 130.33 204.157 130.56 204.167 130.72C204.617 130.72 204.937 130.72 205.137 130.62C205.347 130.52 205.387 130.36 205.387 130.06V128.31C205.517 128.46 205.707 128.71 205.787 128.82C205.977 128.58 206.157 128.32 206.337 128.03C206.577 128.52 206.867 128.98 207.207 129.37C206.757 129.74 206.207 130.03 205.577 130.26C205.687 130.39 205.867 130.68 205.927 130.82C206.597 130.55 207.177 130.23 207.657 129.82C208.167 130.26 208.757 130.6 209.447 130.83C209.537 130.66 209.717 130.42 209.857 130.29C209.187 130.1 208.597 129.79 208.107 129.39C208.607 128.84 208.987 128.15 209.227 127.31H209.747Z" fill="#747474"/>
<path d="M214.847 131.29C214.597 131.07 213.717 130.3 213.257 129.93C213.777 129.26 214.237 128.52 214.547 127.75L214.127 127.47L213.997 127.5H213.127V125.64H212.397V127.5H210.827V128.18H213.607C212.917 129.51 211.667 130.77 210.477 131.46C210.597 131.6 210.787 131.94 210.867 132.13C211.377 131.8 211.897 131.38 212.397 130.89V134.76H213.127V130.62C213.577 131.04 214.127 131.6 214.387 131.89L214.847 131.29ZM217.567 133.75V129.6H219.697V128.88H217.567V125.71H216.827V128.88H214.687V129.6H216.827V133.75H214.297V134.48H219.897V133.75H217.567Z" fill="#747474"/>
<path d="M222.947 132.6C222.517 132.6 221.937 132.05 221.937 130.8C221.937 129.47 223.097 127.84 224.997 127.6C224.887 128.51 224.697 129.45 224.447 130.27C223.937 131.94 223.387 132.6 222.947 132.6ZM225.557 134.26C227.917 133.95 229.287 132.56 229.287 130.48C229.287 128.48 227.807 126.84 225.487 126.84C223.067 126.84 221.147 128.72 221.147 130.87C221.147 132.5 222.037 133.52 222.917 133.52C223.837 133.52 224.627 132.47 225.237 130.44C225.507 129.51 225.697 128.51 225.827 127.59C227.507 127.73 228.457 128.96 228.457 130.46C228.457 132.17 227.217 133.11 225.947 133.39C225.707 133.44 225.407 133.49 225.097 133.51L225.557 134.26Z" fill="#747474"/>
<path d="M239.637 132.17V131.51H235.397C235.487 131.2 235.537 130.88 235.557 130.57H238.527V129.95H235.577V129.06H238.667V128.53H239.417V126.61H235.597V125.64H234.857V126.61H231.047V128.53H231.767V127.28H238.667V128.43H235.577V127.6H234.837V128.43H231.887V129.06H234.837V129.95H232.047V130.57H234.817C234.797 130.88 234.747 131.2 234.627 131.51H230.897V132.17H234.287C233.767 132.92 232.747 133.62 230.797 134.16C230.957 134.32 231.167 134.6 231.247 134.76C233.527 134.08 234.617 133.16 235.137 132.17H235.227C235.987 133.6 237.347 134.44 239.297 134.78C239.397 134.59 239.587 134.29 239.747 134.14C238.007 133.89 236.727 133.24 236.017 132.17H239.637Z" fill="#747474"/>
<path d="M249.797 128.23H247.277V127.69H249.297V127.21H247.277V126.69H249.547V126.19H247.277V125.64H246.537V126.19H244.377V126.69H246.537V127.21H244.637V127.69H246.537V128.23H244.107V128.74H249.797V128.23ZM245.457 132H248.527V132.67H245.457V132ZM245.457 130.87H248.527V131.52H245.457V130.87ZM245.457 129.75H248.527V130.38H245.457V129.75ZM249.227 133.17V129.25H244.777V133.17H249.227ZM241.157 131.3C241.047 132.17 240.857 133.07 240.547 133.68C240.687 133.73 240.987 133.86 241.097 133.95C241.417 133.31 241.647 132.35 241.787 131.41L241.157 131.3ZM243.687 130.5C243.777 130.72 243.847 130.94 243.887 131.12L244.477 130.85C244.327 130.3 243.927 129.45 243.517 128.8L242.977 129.02C243.127 129.28 243.287 129.58 243.427 129.88L241.957 129.95C242.637 129.1 243.387 127.97 243.957 127.06L243.337 126.77C243.057 127.31 242.677 127.96 242.267 128.58C242.117 128.38 241.937 128.16 241.727 127.94C242.107 127.38 242.537 126.57 242.877 125.88L242.227 125.64C242.017 126.19 241.667 126.95 241.337 127.52C241.237 127.42 241.137 127.33 241.037 127.24L240.637 127.71C241.087 128.14 241.587 128.71 241.877 129.16C241.667 129.46 241.457 129.74 241.257 129.99L240.567 130.02L240.607 130.69C241.077 130.66 241.627 130.63 242.207 130.59V134.76H242.867V130.55L243.687 130.5ZM244.307 133.06C244.237 132.57 244.017 131.83 243.767 131.26L243.227 131.42C243.467 132 243.667 132.75 243.727 133.23L244.307 133.06ZM245.897 133.22C245.427 133.63 244.487 134.08 243.667 134.32C243.817 134.44 244.037 134.66 244.147 134.8C244.967 134.55 245.927 134.07 246.517 133.59L245.897 133.22ZM247.467 133.62C248.107 134 248.827 134.47 249.227 134.77L249.877 134.41C249.407 134.09 248.637 133.63 247.967 133.25L247.467 133.62Z" fill="#747474"/>
<path d="M254.907 132.64C254.907 133.32 254.557 133.66 253.827 133.66C252.877 133.66 252.327 133.36 252.327 132.81C252.327 132.27 252.907 131.92 253.927 131.92C254.257 131.92 254.577 131.95 254.897 132.02C254.897 132.27 254.907 132.48 254.907 132.64ZM255.577 128.9C256.387 128.88 257.657 128.82 258.537 128.74L258.507 127.98C257.617 128.1 256.367 128.15 255.577 128.17C255.577 127.78 255.567 127.43 255.577 127.16C255.587 126.86 255.617 126.39 255.657 126.18H254.697C254.737 126.37 254.767 126.8 254.777 127.16C254.787 127.58 254.787 128.4 254.787 128.97C254.787 129.56 254.827 130.47 254.867 131.27C254.587 131.23 254.307 131.21 254.027 131.21C252.317 131.21 251.537 131.95 251.537 132.84C251.537 133.97 252.547 134.41 253.907 134.41C255.227 134.41 255.727 133.71 255.727 132.9C255.727 132.72 255.717 132.5 255.707 132.24C256.737 132.6 257.647 133.23 258.277 133.87L258.757 133.13C258.037 132.48 256.947 131.79 255.677 131.44C255.627 130.58 255.577 129.62 255.577 128.97V128.9Z" fill="#747474"/>
<path d="M262.571 126.11C262.561 126.35 262.531 126.65 262.491 126.96C262.371 127.76 262.191 129.22 262.191 130.16C262.191 130.8 262.241 131.36 262.291 131.73L263.071 131.67C263.001 131.18 263.001 130.84 263.051 130.46C263.171 129.16 264.311 127.37 265.541 127.37C266.591 127.37 267.111 128.49 267.111 130.05C267.111 132.54 265.431 133.4 263.281 133.73L263.751 134.45C266.211 134 267.941 132.79 267.941 130.04C267.941 127.96 266.991 126.64 265.671 126.64C264.421 126.64 263.381 127.87 262.991 128.89C263.051 128.2 263.241 126.87 263.451 126.14L262.571 126.11Z" fill="#747474"/>
<path d="M276.698 92.0968C276.698 91.548 276.242 91.0928 275.694 91.0928C275.145 91.0928 274.689 91.548 274.689 92.0968C274.689 92.6457 275.145 93.1009 275.694 93.1009C276.242 93.1009 276.698 92.6457 276.698 92.0968ZM271.276 91.1062L270.887 91.4944L275.305 95.9123L270.874 100.344L271.262 100.732L275.694 96.3006L280.111 100.718L280.5 100.33L276.082 95.9123L280.5 91.4944L280.111 91.1062L275.694 95.5241L271.276 91.1062ZM271.878 94.9082C271.329 94.9082 270.874 95.3634 270.874 95.9123C270.874 96.4612 271.329 96.9164 271.878 96.9164C272.427 96.9164 272.882 96.4612 272.882 95.9123C272.882 95.3634 272.427 94.9082 271.878 94.9082ZM279.509 96.9164C280.058 96.9164 280.513 96.4612 280.513 95.9123C280.513 95.3634 280.058 94.9082 279.509 94.9082C278.96 94.9082 278.505 95.3634 278.505 95.9123C278.505 96.4612 278.96 96.9164 279.509 96.9164ZM274.689 99.7278C274.689 100.277 275.145 100.732 275.694 100.732C276.242 100.732 276.698 100.277 276.698 99.7278C276.698 99.1789 276.242 98.7237 275.694 98.7237C275.145 98.7237 274.689 99.1789 274.689 99.7278Z" fill="#747474"/>
<path fill-rule="evenodd" clip-rule="evenodd" d="M270 119H0V117H270V119Z" fill="black"/>
<path d="M24.5732 84.4453C22.8363 88.2025 20.2119 90.0811 16.7002 90.0811C15.2275 90.0811 13.9626 89.7695 12.9053 89.1465C11.8291 88.6178 10.9606 87.9287 10.2998 87.0791C9.48796 86.1917 8.94987 85.0306 8.68555 83.5957C8.38346 82.1608 8.23242 79.4137 8.23242 75.3545C8.23242 71.2952 8.38346 68.5293 8.68555 67.0566C8.94987 65.6595 9.48796 64.5173 10.2998 63.6299C10.9606 62.7803 11.8291 62.0723 12.9053 61.5059C13.9626 60.9583 15.2275 60.6657 16.7002 60.6279C18.7015 60.6657 20.4007 61.2415 21.7979 62.3555C23.1383 63.526 24.0635 64.9421 24.5732 66.6035H31.2002C30.5394 63.1484 28.9535 60.2503 26.4424 57.9092C23.9313 55.5869 20.6839 54.4069 16.7002 54.3691C13.4528 54.4069 10.7435 55.181 8.57227 56.6914C6.36328 58.1829 4.75846 59.8822 3.75781 61.7891C3.13477 62.7897 2.6722 64.1019 2.37012 65.7256C2.08691 67.3493 1.94531 70.5589 1.94531 75.3545C1.94531 80.0745 2.08691 83.2653 2.37012 84.9268C2.52116 85.8141 2.70996 86.5505 2.93652 87.1357C3.18197 87.7021 3.45573 88.2969 3.75781 88.9199C4.75846 90.8268 6.36328 92.5072 8.57227 93.9609C10.7435 95.4714 13.4528 96.2643 16.7002 96.3398C20.2874 96.3398 23.3932 95.3203 26.0176 93.2812C28.5664 91.2233 30.2939 88.278 31.2002 84.4453H24.5732Z" fill="#383838"/>
<path d="M46.1239 96H50.995L64.6454 54.709H58.0184L48.6161 86.1445H48.5028L39.1287 54.709H32.5018L46.1239 96Z" fill="#383838"/>
<path d="M76.5104 60.2881H86.3093C88.3106 60.2881 89.8399 60.7129 90.8971 61.5625C92.2376 62.5254 92.9268 64.083 92.9645 66.2354C92.9645 68.029 92.3887 69.5394 91.237 70.7666C90.0664 72.0882 88.3106 72.7679 85.9694 72.8057H76.5104V60.2881ZM70.2516 96H76.5104V78.3564H84.4968L93.0212 96H100.469L90.8971 77.6768C96.1458 75.6566 98.808 71.8428 98.8835 66.2354C98.7702 62.4215 97.4014 59.4857 94.777 57.4277C92.6058 55.6152 89.8021 54.709 86.3659 54.709H70.2516V96Z" fill="#383838"/>
<path fill-rule="evenodd" clip-rule="evenodd" d="M24.19 83.8448H31.959L31.7845 84.5829C30.854 88.5181 29.067 91.5901 26.3949 93.7476L26.3862 93.7546C23.648 95.8822 20.4099 96.9394 16.7006 96.9394H16.6866C13.3516 96.8618 10.5232 96.0461 8.23639 94.4574C5.96492 92.9613 4.28342 91.2116 3.22691 89.1982L3.22248 89.1898L3.21831 89.1812C2.91296 88.5514 2.63558 87.9489 2.38638 87.3738L2.38166 87.3629L2.37737 87.3519C2.13156 86.7168 1.93416 85.9384 1.77902 85.027C1.48603 83.308 1.3457 80.068 1.3457 75.354C1.3457 70.5661 1.48588 67.305 1.77943 65.622L1.78059 65.6154C2.08947 63.9551 2.56825 62.5717 3.23712 61.4904C4.29367 59.4862 5.97054 57.7246 8.23344 56.196C10.5232 54.6043 13.3554 53.8075 16.6936 53.7687L16.7063 53.7686C20.8129 53.8075 24.2119 55.0283 26.8502 57.4682L26.8519 57.4698C29.4586 59.9001 31.1058 62.9135 31.7899 66.4903L31.9262 67.203H24.1301L24 66.779C23.5251 65.2313 22.6667 63.913 21.4137 62.8158C20.1371 61.8018 18.5775 61.2654 16.7026 61.2276C15.3064 61.265 14.1397 61.5424 13.1833 62.0373C12.1737 62.5689 11.3754 63.2243 10.7738 63.9978L10.7591 64.0167L10.7429 64.0344C10.0191 64.8255 9.5229 65.8599 9.27548 67.1677L9.27377 67.1767C8.98562 68.5815 8.83281 71.2892 8.83281 75.354C8.83281 79.4202 8.98573 82.1068 9.27307 83.4716L9.27463 83.4791L9.27601 83.4865C9.52432 84.8345 10.0217 85.8854 10.7429 86.6736L10.7591 86.6913L10.7738 86.7103C11.3726 87.4802 12.1663 88.1143 13.1702 88.6075L13.1907 88.6175L13.2103 88.6291C14.1584 89.1878 15.3136 89.4806 16.7006 89.4806C18.3428 89.4806 19.7521 89.0437 20.9534 88.1838C22.1605 87.3197 23.1921 86.0034 24.029 84.1931L24.19 83.8448ZM12.9057 61.5054C13.963 60.9579 15.2279 60.6652 16.7006 60.6275C18.7019 60.6652 20.4011 61.2411 21.7982 62.355C23.1387 63.5256 24.0639 64.9416 24.5736 66.603H31.2006C31.162 66.4011 31.1202 66.2011 31.0753 66.003C30.3513 62.8112 28.8071 60.113 26.4428 57.9087C23.9317 55.5864 20.6843 54.4064 16.7006 54.3687C13.4532 54.4064 10.7439 55.1805 8.57266 56.6909C6.36367 58.1825 4.75885 59.8817 3.7582 61.7886C3.13516 62.7892 2.67259 64.1014 2.37051 65.7251C2.0873 67.3488 1.9457 70.5584 1.9457 75.354C1.9457 80.0741 2.0873 83.2648 2.37051 84.9263C2.52155 85.8137 2.71035 86.55 2.93691 87.1353C3.18236 87.7017 3.45612 88.2964 3.7582 88.9194C4.75885 90.8263 6.36367 92.5067 8.57266 93.9605C10.7439 95.4709 13.4532 96.2638 16.7006 96.3394C20.2878 96.3394 23.3936 95.3198 26.018 93.2808C28.4321 91.3315 30.1095 88.5862 31.0501 85.0448C31.1025 84.8473 31.1527 84.6473 31.2006 84.4448H24.5736C22.8367 88.202 20.2123 90.0806 16.7006 90.0806C15.2279 90.0806 13.963 89.7691 12.9057 89.146C11.8295 88.6174 10.961 87.9282 10.3002 87.0786C9.48835 86.1912 8.95026 85.0301 8.68594 83.5952C8.38385 82.1603 8.23281 79.4133 8.23281 75.354C8.23281 71.2948 8.38385 68.5288 8.68594 67.0562C8.95026 65.659 9.48835 64.5168 10.3002 63.6294C10.961 62.7798 11.8295 62.0718 12.9057 61.5054ZM45.6904 96.5995L31.6724 54.1085H39.5763L48.5606 84.237L57.572 54.1085H65.476L51.4289 96.5995H45.6904ZM48.6164 86.1441H48.5032L39.1291 54.7085H32.5022L46.1243 95.9995H50.9953L64.6457 54.7085H58.0188L48.6164 86.1441ZM90.8975 61.562C89.8402 60.7124 88.311 60.2876 86.3096 60.2876H76.5108V72.8052H85.9698C88.311 72.7674 90.0668 72.0877 91.2374 70.7661C92.3891 69.5389 92.9649 68.0285 92.9649 66.2349C92.9272 64.0825 92.238 62.5249 90.8975 61.562ZM92.3649 66.2402C92.3284 64.2171 91.6882 62.8687 90.5475 62.0493L90.5343 62.0399L90.5217 62.0297C89.6113 61.2981 88.237 60.8876 86.3096 60.8876H77.1108V72.2052H85.9648C88.1928 72.1684 89.7633 71.5255 90.7882 70.3683L90.794 70.3618L90.7999 70.3555C91.8388 69.2485 92.3638 67.8899 92.3649 66.2402ZM69.652 96.5995V54.1085H86.3663C89.9081 54.1085 92.855 55.0439 95.1549 56.9608C97.9358 59.1449 99.366 62.2574 99.4836 66.2171L99.484 66.23L99.4838 66.243C99.4448 69.1416 98.7355 71.6201 97.3226 73.6442C96.0198 75.5106 94.1459 76.952 91.7351 77.9837L101.46 96.5995H92.6451L84.1207 78.956H77.1108V96.5995H69.652ZM84.4971 78.356L93.0216 95.9995H100.47L90.8975 77.6763C91.0872 77.6033 91.2735 77.5279 91.4564 77.4503C96.3352 75.3781 98.8111 71.6397 98.8839 66.2349C98.7706 62.4211 97.4018 59.4852 94.7774 57.4273C92.6062 55.6148 89.8025 54.7085 86.3663 54.7085H70.252V95.9995H76.5108V78.356H84.4971Z" fill="#383838"/>
<path d="M111.381 69.9496C111.291 71.3596 111.141 73.1296 110.871 75.3196H105.921V79.8796L110.211 79.8196C108.291 89.1796 106.701 92.1196 105.381 94.1296L109.821 96.4996C112.461 91.2796 113.901 85.5496 114.921 79.7896L117.321 79.7596C120.171 79.7296 120.231 81.2296 120.231 83.6296C120.231 85.7896 119.841 89.8996 119.001 91.1296C118.701 91.5796 118.191 92.1496 116.691 92.1496C115.341 92.1496 114.291 91.9396 113.181 91.7296L113.361 96.2896C114.411 96.4696 115.731 96.7096 117.711 96.7096C119.241 96.7096 121.251 96.5896 122.781 94.5796C124.701 92.0296 124.911 85.5196 124.911 83.8096C124.911 79.7596 124.221 75.3196 118.251 75.3196H115.671C116.031 72.7396 116.181 71.4496 116.331 70.2796L111.381 69.9496ZM132.861 87.8296C132.501 81.7996 131.361 78.1696 129.861 75.6196L125.481 76.9696C126.081 78.0796 127.611 80.8396 127.761 88.3396L132.861 87.8296ZM133.251 73.9696C132.231 70.7596 131.601 69.8596 131.271 69.3496L128.661 70.0696C129.771 71.8996 130.551 74.4196 130.641 74.7496L133.251 73.9696ZM128.901 74.5996C128.601 73.4296 127.881 71.3296 127.011 69.9496L124.371 70.6696C125.271 72.2296 125.931 74.4196 126.201 75.4996L128.901 74.5996Z" fill="#383838"/>
<path d="M236.286 62.0229C236.286 68.4482 238.25 69.5469 243.144 69.5469C248.737 69.5469 249.503 66.9168 249.503 61.7899C249.503 55.3313 247.139 54.499 242.678 54.499C237.318 54.499 236.286 56.896 236.286 62.0229ZM242.911 58.494C245.009 58.494 245.475 59.2264 245.475 61.8898C245.475 64.4532 245.275 65.5519 242.978 65.5519C240.781 65.5519 240.314 64.8527 240.314 62.1561C240.314 59.6259 240.514 58.494 242.911 58.494ZM254.497 73.7416C254.497 80.1003 256.394 81.2655 261.321 81.2655C266.914 81.2655 267.713 78.6355 267.713 73.5086C267.713 67.05 265.35 66.2177 260.855 66.2177C255.495 66.2177 254.497 68.6147 254.497 73.7416ZM261.088 70.2127C263.186 70.2127 263.652 70.9451 263.652 73.6084C263.652 76.1719 263.452 77.2705 261.155 77.2705C258.958 77.2705 258.525 76.5714 258.525 73.8415C258.525 71.278 258.725 70.2127 261.088 70.2127ZM257.393 54.7654L242.512 80.9992H246.607L261.488 54.7654H257.393Z" fill="#FE0000"/>
<path d="M250.449 87.2052L247.743 87.1392L247.644 91.3797C247.594 93.4092 247.462 98.4417 241.159 100.174L242.661 102.583C243.486 102.303 245.565 101.626 247.545 99.4152C248.881 101.032 249.459 101.923 249.838 102.534L251.686 100.224C250.795 99.0357 249.36 97.6332 248.997 97.2702C250.218 94.8942 250.284 92.8482 250.317 91.7757L250.449 87.2052ZM236.094 101.263C237.678 100.719 241.737 99.0852 243.733 98.0127L243.304 95.6532C242.71 95.9502 241.638 96.4782 239.724 97.2372L239.592 87.1227L236.919 87.1722L237.051 98.1777C236.605 98.3262 236.292 98.4252 235.632 98.6067L236.094 101.263ZM240.664 89.1192C242.991 91.7097 243.09 91.8087 244.129 93.4257L246.291 91.6767C245.103 89.9607 243.684 88.5087 242.628 87.5352L240.664 89.1192Z" fill="black"/>
<path d="M258.699 86.9082V99.4482H252.594V102.022H268.236V99.4482H261.355V93.7722H267.394V91.1817H261.355V86.9082H258.699Z" fill="black"/>
<path d="M150.523 59.0951V101.232H157.642V51.567H150.523L143.472 56.7106V64.2728L150.523 59.0951Z" fill="#FE0000"/>
<path d="M172.598 78.4093H179.308C180.148 76.8877 181.102 75.8204 182.17 75.2073C183.237 74.6168 184.418 74.3216 185.712 74.3216C187.166 74.3216 188.381 74.526 189.357 74.9348C190.334 75.4344 191.072 76.1043 191.571 76.9445C192.502 78.7158 192.945 81.0208 192.9 83.8595C192.9 85.0176 192.877 86.2099 192.832 87.4362C192.741 88.6852 192.491 89.8433 192.082 90.9107C191.696 91.978 191.015 92.841 190.038 93.4995C189.016 94.1808 187.654 94.5214 185.951 94.5214C181.977 94.476 179.603 92.5457 178.831 88.7306H171.712C172.393 93.2952 174.153 96.5993 176.992 98.6432C179.785 100.642 182.862 101.641 186.223 101.641C188.721 101.595 190.879 101.016 192.695 99.9035C194.557 98.8362 195.977 97.6553 196.953 96.3609C198.066 95.0438 198.861 93.5336 199.338 91.8304C199.792 90.1045 200.019 87.6292 200.019 84.4045C200.019 82.3152 199.951 80.5553 199.815 79.1246C199.678 77.7166 199.451 76.5244 199.133 75.5479C198.52 73.7539 197.521 72.1756 196.136 70.813C195.205 69.7911 193.99 68.9282 192.491 68.2242C190.901 67.5883 189.153 67.2477 187.245 67.2023C184.27 67.2023 181.625 68.1106 179.308 69.9274V58.6863H199.065V51.567H172.598V78.4093Z" fill="#FE0000"/>
<path d="M224.955 86.9252C224.819 91.944 222.491 94.476 217.972 94.5214C213.43 94.476 211.114 91.944 211.023 86.9252V65.8738C211.114 60.9005 213.43 58.3684 217.972 58.2775C222.491 58.3684 224.819 60.9005 224.955 65.8738V86.9252ZM203.904 87.334C203.949 91.8985 205.414 95.4185 208.298 97.8938C211 100.346 214.225 101.595 217.972 101.641C221.833 101.595 225.114 100.346 227.816 97.8938C230.564 95.4185 231.984 91.8985 232.074 87.334V65.4309C231.984 60.8437 230.564 57.3124 227.816 54.8371C225.114 52.3845 221.833 51.1582 217.972 51.1582C214.225 51.1582 211 52.3845 208.298 54.8371C205.414 57.3124 203.949 60.8437 203.904 65.4309V87.334Z" fill="#FE0000"/>
<path fill-rule="evenodd" clip-rule="evenodd" d="M264 2H144V42H264V2ZM142 0V44H266V0H142Z" fill="#383838"/>
<path d="M188.391 18.1276C188.934 16.3491 189.175 15.2337 189.356 14.3294L184.864 13.9074C183.869 19.4842 181.97 22.0465 179.106 24.2772L182.061 27.4123C183.055 26.6285 184.985 25.0911 186.582 22.3479H191.466C190.984 27.2616 190.17 30.7584 181.639 32.5671L183.538 36.2749C193.184 34.1045 195.174 29.221 195.897 22.3479H201.595V18.1276H188.391Z" fill="#383838"/>
<path d="M225.288 31.2105C225.288 31.723 225.017 32.1149 224.444 32.1149H219.35L220.104 36.8778H227.127C227.791 36.8778 229.991 36.4558 229.991 33.9537V9.35547H208.226V22.0163C208.226 27.8645 206.508 31.09 204.519 33.7729L208.709 37.0587C211.422 33.2905 212.296 29.221 212.597 27.6836H225.288V31.2105ZM212.929 13.6963H225.288V16.4094H212.929V13.6963ZM212.929 20.5392H225.288V23.4934H212.929V20.5392Z" fill="#383838"/>
<path d="M252.193 25.6563C251.695 24.5937 250.927 23.305 250.113 22.2876L248.146 23.305C248.96 24.3903 249.796 25.9729 250.203 26.832L252.193 25.6563ZM255.268 23.9833C254.748 22.8755 253.911 21.632 253.21 20.8181L251.243 21.8355C252.215 23.0111 253.097 24.6842 253.323 25.1589L255.268 23.9833ZM254.906 16.1381C254.838 16.1607 254.522 16.1607 254.499 16.1607C248.553 16.3416 247.196 16.4094 234.965 17.0424L235.168 20.9085C236.48 20.7729 243.014 20.185 244.483 20.0494C241.635 21.9711 239.351 24.7972 239.351 28.2111C239.351 30.8337 241.002 32.8685 243.082 33.8407C245.071 34.7676 247.264 35.2198 252.487 35.2198L252.916 31.3311C251.967 31.3763 251.175 31.3989 248.847 31.2633C247.128 31.1503 243.308 30.8789 243.308 27.6685C243.308 24.2094 247.219 21.4285 249.344 20.4563C250.701 19.8233 251.56 19.7781 252.848 19.7781C253.685 19.7781 254.476 19.8233 254.996 19.8459L254.906 16.1381Z" fill="#383838"/>
<path d="M160.684 23.935H162.562C163.943 23.935 165.081 24.3548 165.977 25.1943C166.888 26.0622 167.358 27.2858 167.386 28.8652C167.358 30.4161 166.888 31.6113 165.977 32.4508C165.081 33.3472 163.978 33.7954 162.669 33.7954C161.446 33.7954 160.464 33.461 159.724 32.7923C158.998 32.152 158.436 31.3125 158.038 30.2738H153.577C154.061 32.8634 155.121 34.8412 156.757 36.2072C158.394 37.5731 160.272 38.2561 162.392 38.2561C165.138 38.2276 167.386 37.3526 169.136 35.6309C170.915 33.9519 171.818 31.654 171.847 28.7372C171.847 27.4281 171.569 26.176 171.014 24.9808C170.431 23.7856 169.485 22.7612 168.176 21.9075C169.456 21.0395 170.346 20.0506 170.844 18.9408C171.27 17.831 171.484 16.6785 171.484 15.4833C171.455 13.1213 170.644 11.0724 169.051 9.33652C167.386 7.55795 165.138 6.65443 162.306 6.62598C160.072 6.65443 158.152 7.45123 156.544 9.01638C154.908 10.5957 153.976 12.5379 153.748 14.843H158.209C158.493 13.5624 159.048 12.6162 159.873 12.0044C160.656 11.3925 161.524 11.0866 162.477 11.0866C163.8 11.1151 164.882 11.5348 165.721 12.3459C166.561 13.1853 166.995 14.2596 167.023 15.5686C167.023 16.8634 166.603 17.9163 165.764 18.7274C164.924 19.5669 163.743 19.9866 162.221 19.9866H160.684V23.935Z" fill="#383838"/>
<path fill-rule="evenodd" clip-rule="evenodd" d="M160.232 24.3873V19.5345H162.221C163.659 19.5345 164.711 19.1403 165.444 18.4078L165.449 18.4022C166.189 17.6871 166.569 16.7583 166.571 15.5737C166.543 14.3718 166.149 13.4153 165.404 12.6684C164.659 11.95 163.694 11.5662 162.472 11.5389C161.626 11.5399 160.857 11.8093 160.151 12.3607L160.142 12.3678C159.426 12.8986 158.917 13.7366 158.649 14.9412L158.571 15.2953H153.248L153.297 14.7986C153.535 12.3893 154.514 10.3471 156.229 8.69181C157.919 7.04672 159.95 6.2039 162.3 6.17396L162.31 6.17383C165.244 6.20331 167.617 7.14409 169.38 9.02764L169.383 9.03083C171.052 10.849 171.906 13.0049 171.935 15.4779L171.936 15.4834C171.936 16.7338 171.712 17.9413 171.265 19.1032L171.261 19.1148L171.256 19.126C170.789 20.1649 170.015 21.0879 168.957 21.901C170.053 22.716 170.88 23.6754 171.42 24.7826L171.424 24.7905C172.006 26.0449 172.298 27.362 172.298 28.7373V28.7417C172.269 31.7541 171.332 34.1776 169.449 35.9567C167.606 37.7682 165.242 38.6788 162.396 38.7083L162.391 38.7084C160.165 38.7084 158.184 37.9878 156.467 36.5544C154.732 35.1063 153.631 33.0248 153.132 30.357L153.032 29.8218H158.348L158.46 30.112C158.836 31.0929 159.359 31.8681 160.023 32.4534L160.027 32.4569C160.666 33.0344 161.531 33.3434 162.669 33.3434C163.862 33.3434 164.849 32.9398 165.657 32.1312L165.664 32.1247L165.67 32.1185C166.467 31.3841 166.905 30.3217 166.933 28.8653C166.905 27.3791 166.466 26.286 165.666 25.523C164.864 24.7728 163.842 24.3873 162.562 24.3873H160.232ZM167.386 28.8653C167.357 30.4163 166.888 31.6115 165.977 32.4509C165.08 33.3473 163.978 33.7955 162.669 33.7955C161.445 33.7955 160.463 33.4612 159.723 32.7924C158.998 32.1521 158.436 31.3127 158.037 30.274H153.577C153.605 30.4268 153.636 30.5775 153.668 30.7261C154.188 33.0949 155.217 34.922 156.757 36.2073C158.393 37.5732 160.271 38.2562 162.391 38.2562C165.137 38.2277 167.386 37.3527 169.136 35.631C170.914 33.952 171.818 31.6541 171.846 28.7373C171.846 27.4283 171.569 26.1761 171.014 24.9809C170.492 23.9109 169.678 22.9778 168.575 22.1815C168.445 22.0883 168.312 21.997 168.175 21.9076C168.311 21.8154 168.443 21.7218 168.57 21.6269C169.64 20.8282 170.398 19.9329 170.843 18.9409C171.27 17.8311 171.483 16.6786 171.483 15.4834C171.455 13.1214 170.644 11.0725 169.05 9.33664C167.386 7.55807 165.137 6.65455 162.306 6.6261C160.072 6.65455 158.151 7.45135 156.543 9.0165C155.015 10.4915 154.101 12.283 153.802 14.3909C153.781 14.5401 153.762 14.6908 153.747 14.8431H158.208C158.493 13.5625 159.048 12.6163 159.873 12.0045C160.655 11.3927 161.523 11.0868 162.477 11.0868C163.8 11.1152 164.881 11.535 165.721 12.346C166.56 13.1855 166.994 14.2597 167.023 15.5687C167.023 16.8635 166.603 17.9165 165.763 18.7275C164.924 19.567 163.743 19.9867 162.221 19.9867H160.684V23.9351H162.562C163.942 23.9351 165.08 24.3549 165.977 25.1944C166.888 26.0623 167.357 27.286 167.386 28.8653Z" fill="#383838"/>
</svg>
