<svg width="310" height="145" viewBox="0 0 310 145" fill="none" xmlns="http://www.w3.org/2000/svg">
<rect x="2.26277" y="2.26277" width="305.474" height="140.292" stroke="#131313" stroke-width="4.52555"/>
<path d="M217.167 46.0175H199.734L199.3 43.0849L194.304 44.4969V36.188H197.888V41.1299H217.167V46.0175ZM229.494 41.1299V35.1561H217.167V30.5401H227.159V24.675H217.167V19.8417H210.758V24.675H201.146V30.5401H210.758V35.1561H198.811V30.0513H194.304V19.896H188.384V30.0513H185.832C186.158 27.8791 186.429 25.7068 186.646 23.5345L181.27 22.6656C180.781 29.0738 179.912 35.8078 178.174 40.1523C179.424 40.804 181.759 42.2703 182.736 43.0849C183.497 41.1299 184.202 38.7947 184.746 36.188H188.384V46.1804C184.746 47.1579 181.379 48.0268 178.718 48.6242L180.238 54.8151C182.682 54.1091 185.452 53.2945 188.384 52.4256V70.564H194.304V50.6335C195.878 50.1448 197.508 49.6017 199.082 49.1129V51.9912H205.654L200.983 54.8694C203.318 57.4761 206.088 61.0604 207.174 63.3956L212.333 60.0829C211.03 57.6934 208.206 54.3807 205.817 51.9912H217.167V63.2326C217.167 63.9386 216.949 64.1015 216.026 64.1559C215.157 64.1559 212.225 64.1559 209.509 64.0472C210.378 65.8394 211.247 68.609 211.464 70.4554C215.537 70.4554 218.579 70.3468 220.805 69.3693C222.977 68.3375 223.52 66.5996 223.52 63.3413V51.9912H229.005V46.0175H223.52V41.1299H229.494ZM254.421 21.5252H237.206V26.4128H254.421V21.5252ZM248.501 56.39V62.6353H242.311V56.39H248.501ZM254.149 51.2852H236.717V69.8037H242.311V67.6858H254.149V51.2852ZM236.88 48.6242H254.312V43.7909H236.88V48.6242ZM284.995 44.1167H273.808V33.2554H283.855V27.336H266.205C266.911 25.2723 267.509 23.1001 267.998 20.9278L261.535 19.6788C260.503 24.675 258.765 29.7255 256.485 33.7442V28.8023H234.273V33.9071H256.376C255.724 35.0475 255.073 36.1337 254.312 37.1112V36.3509H236.88V41.2928H254.312V38.4688C255.941 39.3377 258.168 40.804 259.254 41.6186C260.938 39.3377 262.567 36.4595 263.979 33.2554H267.292V44.1167H255.941V50.2534H267.292V70.5097H273.808V50.2534H284.995V44.1167ZM203.899 82.5376H205.764V86.6955H221.49C220.584 92.6658 218.984 97.9965 216.906 102.581C214.667 97.8899 213.067 92.5059 212.001 86.8021L205.924 88.0282C207.577 96.0774 209.869 103.221 213.121 109.138C210.509 112.762 207.417 115.641 203.899 117.613V82.5376ZM190.199 104.287H197.768V109.084C195.21 109.404 192.651 109.777 190.199 110.097V104.287ZM190.199 93.3055H197.768V98.6362H190.199V93.3055ZM197.768 82.5376V87.6017H190.199V82.5376H197.768ZM224.315 80.2987L223.249 80.4586H207.31V76.6739H180.55V82.5376H184.175V110.843C182.363 111.057 180.71 111.217 179.271 111.376L180.497 117.72C185.401 116.974 191.638 116.014 197.768 114.948V123.477H203.899V118.466C205.178 119.746 206.617 121.718 207.417 123.104C211.042 120.918 214.187 118.253 216.906 114.948C219.464 118.2 222.449 120.918 226.074 123.104C227.034 121.451 229.006 119.053 230.445 117.88C226.607 115.801 223.409 112.816 220.797 109.244C224.795 102.101 227.354 92.9324 228.473 81.3115L224.315 80.2987ZM274.05 82.3244H260.19V79.659H274.05V82.3244ZM274.05 89.2542H260.19V86.4823H274.05V89.2542ZM280.447 75.2346H254.06V93.6787H280.447V75.2346ZM244.891 73.742C242.653 77.3135 237.962 81.6314 233.804 84.1901C234.763 85.5227 236.309 88.1348 236.949 89.574C241.96 86.3223 247.397 81.0983 250.915 76.1941L244.891 73.742ZM246.277 85.3628C243.186 90.5869 237.962 95.7576 233.217 99.0626C234.177 100.609 235.776 104.233 236.256 105.619C237.855 104.393 239.454 102.901 241.053 101.301V123.424H247.184V94.4783C248.943 92.2394 250.542 90.0005 251.821 87.7616L246.277 85.3628ZM283.272 104.233H276.022V101.195H282.206V96.0241H251.342V101.195H269.572V104.233H250.062V109.617H257.525L253.58 112.229C255.819 114.468 258.538 117.613 259.711 119.639L264.455 116.281C263.122 114.415 260.51 111.643 258.378 109.617H269.572V117.027C269.572 117.613 269.359 117.827 268.613 117.88C267.92 117.88 265.414 117.88 263.176 117.773C263.975 119.372 264.881 121.718 265.148 123.424C268.773 123.424 271.438 123.424 273.41 122.518C275.489 121.611 276.022 120.119 276.022 117.187V109.617H283.325L283.272 104.233Z" fill="#131313"/>
<path d="M32.5422 44.1021H38.749C45.1617 44.1021 49.28 40.4545 49.28 33.1299C49.28 25.7758 45.1617 22.3342 38.5137 22.3342H32.5422V44.1021ZM36.8958 40.6015V25.8053H38.2489C42.3084 25.8053 44.8381 27.8056 44.8381 33.1299C44.8381 38.4248 42.3084 40.6015 38.2489 40.6015H36.8958ZM60.9248 44.5139C62.9839 44.5139 65.0725 43.8079 66.6904 42.6901L65.2196 40.0426C64.0429 40.778 62.8663 41.1899 61.5131 41.1899C59.0716 41.1899 57.3066 39.7779 56.9536 37.0716H67.1022C67.2198 36.6892 67.3081 35.895 67.3081 35.1007C67.3081 30.5412 64.9548 27.2172 60.4247 27.2172C56.483 27.2172 52.7471 30.5412 52.7471 35.895C52.7471 41.3075 56.3359 44.5139 60.9248 44.5139ZM56.8948 34.2183C57.2184 31.8061 58.748 30.5707 60.4836 30.5707C62.6015 30.5707 63.6017 31.9826 63.6017 34.2183H56.8948ZM76.1639 44.5139C80.4587 44.5139 82.7237 42.19 82.7237 39.3072C82.7237 36.248 80.3116 35.1596 78.1348 34.3359C76.3993 33.6888 74.7814 33.2475 74.7814 32.0415C74.7814 31.1002 75.4874 30.453 76.9582 30.453C78.1936 30.453 79.3409 31.0413 80.5175 31.865L82.459 29.2469C81.0764 28.2174 79.2526 27.2172 76.8405 27.2172C73.1341 27.2172 70.722 29.3058 70.722 32.2768C70.722 35.0125 73.1341 36.2774 75.2226 37.0716C76.9582 37.7482 78.6643 38.3071 78.6643 39.5426C78.6643 40.5721 77.9289 41.2781 76.2816 41.2781C74.752 41.2781 73.34 40.631 71.8692 39.4837L69.8983 42.19C71.5162 43.5431 73.9577 44.5139 76.1639 44.5139ZM86.6101 44.1021H90.9048V27.6291H86.6101V44.1021ZM88.7869 24.9816C90.2577 24.9816 91.3461 23.9815 91.3461 22.6283C91.3461 21.2164 90.2577 20.275 88.7869 20.275C87.2867 20.275 86.1983 21.2164 86.1983 22.6283C86.1983 23.9815 87.2867 24.9816 88.7869 24.9816ZM101.927 51.2502C107.428 51.2502 110.87 48.7204 110.87 45.3964C110.87 42.5136 108.722 41.2781 104.751 41.2781H101.957C100.015 41.2781 99.3682 40.8075 99.3682 39.925C99.3682 39.2778 99.6035 38.8954 100.074 38.513C100.78 38.7483 101.545 38.8954 102.192 38.8954C105.722 38.8954 108.546 37.0128 108.546 33.3064C108.546 32.2768 108.222 31.3649 107.781 30.806H110.605V27.6291H104.663C103.986 27.3937 103.104 27.2172 102.192 27.2172C98.6916 27.2172 95.5441 29.3058 95.5441 33.1887C95.5441 35.1007 96.603 36.6598 97.7209 37.4834V37.6011C96.7501 38.3071 95.8971 39.4543 95.8971 40.6898C95.8971 42.0429 96.5442 42.896 97.3973 43.4549V43.602C95.8971 44.455 95.044 45.6317 95.044 47.0142C95.044 49.9264 98.0444 51.2502 101.927 51.2502ZM102.192 36.2185C100.751 36.2185 99.6035 35.1302 99.6035 33.1887C99.6035 31.2472 100.721 30.1588 102.192 30.1588C103.663 30.1588 104.751 31.2472 104.751 33.1887C104.751 35.1302 103.633 36.2185 102.192 36.2185ZM102.575 48.5145C100.162 48.5145 98.6328 47.7202 98.6328 46.3377C98.6328 45.6611 98.9857 45.0139 99.7211 44.4256C100.309 44.5727 101.015 44.661 102.016 44.661H104.016C105.781 44.661 106.752 44.9551 106.752 46.1318C106.752 47.4261 105.045 48.5145 102.575 48.5145ZM114.273 44.1021H118.567V32.7769C119.803 31.5708 120.656 30.9237 122.009 30.9237C123.627 30.9237 124.333 31.8356 124.333 34.3653V44.1021H128.657V33.8358C128.657 29.6882 127.127 27.2172 123.568 27.2172C121.333 27.2172 119.656 28.3939 118.214 29.8058H118.097L117.803 27.6291H114.273V44.1021Z" fill="#131313"/>
<path d="M55.9531 94.6738L57.7452 88.0755C59.5373 81.8031 61.3294 74.9605 62.8772 68.3623H63.203C64.9951 74.879 66.6243 81.8031 68.4979 88.0755L70.29 94.6738H55.9531ZM77.1326 119.519H89.7589L70.3715 59.2388H56.1975L36.8915 119.519H49.1105L53.3464 104.042H72.8967L77.1326 119.519ZM101.703 119.519H113.759V59.2388H101.703V119.519Z" fill="#131313"/>
<path fill-rule="evenodd" clip-rule="evenodd" d="M156.131 124.452H153.868V20.3643H156.131V124.452Z" fill="black"/>
</svg>
