<svg width="321" height="228" viewBox="0 0 321 228" fill="none" xmlns="http://www.w3.org/2000/svg">
<path d="M82.3959 24.5273V27.8943H116.288V24.5273H82.3959ZM91.9789 3.36326V6.36026H116.251V3.36326H91.9789ZM103.967 22.5663V30.7433C103.967 31.1873 103.819 31.2983 103.227 31.2983C102.672 31.3353 100.6 31.3723 98.7869 31.2613C99.3419 32.3343 99.9709 33.9253 100.156 35.0723C102.931 35.0723 104.929 35.0353 106.372 34.4803C107.889 33.8883 108.259 32.8523 108.259 30.8543V22.5663H103.967ZM88.6859 29.5223C90.4249 30.7803 92.6449 32.6673 93.5699 33.9253L96.8259 31.1873C95.7159 29.9293 93.4589 28.1903 91.6829 27.0433L88.6859 29.5223ZM83.4319 3.14126C85.2819 4.54726 87.5019 6.58226 88.4639 7.98826L91.4979 5.28726C90.4619 3.88126 88.1679 1.99426 86.3179 0.736261L83.4319 3.14126ZM96.2339 0.958263C96.9369 2.10526 97.6769 3.69626 97.9729 4.69526L101.784 3.91826C101.451 2.88226 100.637 1.36526 99.8599 0.292263L96.2339 0.958263ZM99.0089 12.4653H108.925V13.6123H99.0089V12.4653ZM99.0089 15.4993H108.925V16.6463H99.0089V15.4993ZM99.0089 9.46826H108.925V10.5783H99.0089V9.46826ZM94.9019 7.50726V18.6073H113.217V7.50726H94.9019ZM90.8689 9.50526H82.5439V12.8723H86.8359V18.2003H90.8689V9.50526ZM101.821 4.58426C101.747 5.50926 101.488 6.87826 101.229 7.95126L104.744 8.39526C105.151 7.47026 105.669 6.28626 106.224 4.88026L101.821 4.58426ZM108.222 0.218262C107.815 1.25426 107.038 2.69726 106.409 3.77026L109.924 4.47326C110.627 3.54826 111.515 2.36426 112.403 0.921262L108.222 0.218262ZM90.8689 16.7203H87.9089C86.0589 17.8303 83.9499 18.9403 82.2109 19.7543L83.7649 23.2693C85.7999 21.9743 87.6499 20.8273 89.3889 19.6063C91.2389 21.9373 93.7179 22.7883 97.4919 22.9363C102.043 23.0843 110.997 23.0473 115.733 22.8253C115.918 21.8263 116.436 20.2353 116.806 19.4213C111.663 19.7913 101.969 19.9023 97.4549 19.7173C94.3099 19.6063 92.0529 18.7553 90.8689 16.7203Z" fill="#2F2F2F"/>
<path d="M130.015 2.40126V6.91526H140.486V2.40126H130.015ZM138.303 2.40126C138.303 9.94926 139.931 26.4883 154.028 34.9613C154.805 33.8513 156.581 31.8903 157.617 31.0763C143.89 23.0473 142.891 9.43126 142.891 2.40126H138.303ZM136.712 10.5043C134.714 20.3093 130.274 27.4873 122.541 31.4093C123.688 32.2233 125.76 34.0733 126.574 35.0353C134.307 30.3733 139.228 22.4183 141.818 11.4293L136.712 10.5043Z" fill="#2F2F2F"/>
<path d="M178.411 0.366262V6.28626H182.962V0.366262H178.411ZM164.869 3.58526V11.5403H169.272V7.47026H191.99V11.5403H196.578V3.58526H164.869ZM168.162 10.3933V13.9823H193.581V10.3933H168.162ZM164.573 22.1223V25.9703H197.096V22.1223H164.573ZM168.754 16.2023V19.7913H192.841V16.2023H168.754ZM182.925 22.8993L178.929 23.7133C181.778 30.2993 186.514 33.8143 194.987 35.1833C195.542 33.9993 196.689 32.2233 197.614 31.2983C189.918 30.4843 185.108 27.7833 182.925 22.8993ZM178.3 8.28426V18.5333C178.3 23.4913 176.672 28.5603 163.87 31.4833C164.832 32.4083 166.127 34.1103 166.608 35.0723C180.076 31.4463 182.777 25.0823 182.777 18.5703V8.28426H178.3Z" fill="#2F2F2F"/>
<path d="M225.697 0.329263V12.1693H230.1V0.329263H225.697ZM218.223 2.03126V4.73226H237.833V2.03126H218.223ZM219.111 5.99026V8.54326H236.982V5.99026H219.111ZM217.298 9.80126V12.5763H238.573V9.80126H217.298ZM223.588 20.6423H232.579V22.2333H223.588V20.6423ZM223.588 24.7493H232.579V26.3403H223.588V24.7493ZM223.588 16.5723H232.579V18.0893H223.588V16.5723ZM219.592 13.8343V29.0783H236.76V13.8343H219.592ZM229.138 30.7803C231.321 32.1493 233.874 33.9993 235.28 35.1093L239.128 33.0373C237.463 31.8533 234.503 30.0773 232.098 28.6343L229.138 30.7803ZM223.736 28.4493C221.96 29.8923 218.445 31.6313 215.485 32.4823C216.336 33.2223 217.557 34.4433 218.223 35.2573C221.22 34.2953 224.92 32.4823 227.177 30.7433L223.736 28.4493ZM209.565 0.366262C208.714 2.91926 207.123 6.50826 205.828 8.72826L208.788 9.94926C210.194 7.87726 211.896 4.58426 213.413 1.69826L209.565 0.366262ZM213.746 4.73226C211.785 8.69126 208.418 14.0933 205.643 17.4233L208.196 18.8663C211.045 15.6843 214.634 10.5413 217.335 6.39726L213.746 4.73226ZM203.83 8.98726C205.68 10.8743 207.863 13.5013 208.677 15.3143L211.082 11.9103C210.194 10.1713 207.937 7.76626 206.013 6.02726L203.83 8.98726ZM212.71 13.5013C214.042 16.0543 215.3 19.4213 215.707 21.5303L219.037 20.0503C218.63 17.9413 217.224 14.7223 215.818 12.2433L212.71 13.5013ZM203.719 16.5723L204.015 20.3833C207.53 20.1243 212.081 19.8283 216.484 19.4213L216.447 15.8323C211.822 16.1283 207.049 16.3873 203.719 16.5723ZM213.598 22.7513C214.412 24.8603 215.115 27.6353 215.263 29.4113L218.556 28.3383C218.334 26.5623 217.557 23.8613 216.669 21.7893L213.598 22.7513ZM205.31 22.0853C205.014 25.1933 204.459 28.5233 203.423 30.7063C204.274 31.0763 205.902 31.7793 206.642 32.2603C207.715 29.8923 208.492 26.2293 208.862 22.6773L205.31 22.0853ZM209.38 18.5333V35.0723H213.191V18.5333H209.38Z" fill="#2F2F2F"/>
<path fill-rule="evenodd" clip-rule="evenodd" d="M319.432 19.6024H261.39V14.959H319.432V19.6024Z" fill="#2F2F2F"/>
<path fill-rule="evenodd" clip-rule="evenodd" d="M64.0426 19.6024L6 19.6024L6 14.959L64.0426 14.959L64.0426 19.6024Z" fill="#2F2F2F"/>
<path d="M20.9597 80.5591V79.5391H23.8097C25.2497 79.5391 26.2997 79.5691 26.7797 79.6291V76.4491C26.2097 76.5391 25.2497 76.6291 23.7796 76.6291H20.9597V73.1491C20.9597 71.9491 21.0797 70.9891 21.1397 70.5391H17.7496C17.8097 70.9591 17.8997 71.9491 17.8997 73.1491V76.6291H9.97965V73.1791C9.97965 72.0691 10.0996 71.1691 10.1596 70.7791H6.76965C6.88965 71.5591 6.94965 72.4291 6.94965 73.1791V76.6291H4.00965C2.62965 76.6291 1.27965 76.4791 0.889648 76.3891V79.6591C1.36965 79.5991 2.59965 79.5391 4.00965 79.5391H6.94965V84.0391C6.94965 85.2991 6.82965 86.5291 6.79965 86.9491H10.1296C10.0696 86.5291 9.97965 85.2691 9.97965 84.0391V79.5391H17.8997V80.7391C17.8997 88.6891 15.2596 91.2691 9.64965 93.3391L12.1996 95.7391C19.2196 92.5891 20.9597 88.2991 20.9597 80.5591Z" fill="#2F2F2F"/>
<path d="M32.5097 80.7391V84.4591C33.5297 84.3691 35.3296 84.3091 36.9796 84.3091H53.2996C54.6196 84.3091 55.9997 84.4291 56.6597 84.4591V80.7391C55.9097 80.7991 54.7396 80.9191 53.2996 80.9191H36.9796C35.3596 80.9191 33.4997 80.7991 32.5097 80.7391Z" fill="#2F2F2F"/>
<path d="M82.1897 70.2691L80.2397 71.0791C81.0497 72.2191 82.0396 74.0191 82.6396 75.2191L84.5897 74.3791C83.9897 73.2091 82.9397 71.3491 82.1897 70.2691ZM85.5797 69.0091L83.6597 69.8191C84.4997 70.9291 85.4597 72.6391 86.0897 73.9291L88.0396 73.0891C87.4996 71.9791 86.3597 70.1191 85.5797 69.0091ZM68.9296 71.3791H65.4196C65.5696 72.1891 65.6296 73.4191 65.6296 74.1391V90.5491C65.6296 93.0691 67.0097 94.2691 69.4397 94.7191C70.6997 94.9291 72.4996 95.0191 74.3596 95.0191C77.6596 95.0191 82.1596 94.8091 84.8896 94.4191V90.9691C82.3996 91.6291 77.6896 91.9591 74.5396 91.9591C73.0996 91.9591 71.6896 91.8991 70.7896 91.7491C69.3797 91.4491 68.7496 91.0891 68.7496 89.6491V83.5291C72.5296 82.5391 77.5696 81.0391 80.7796 79.7491C81.7396 79.3891 82.9396 78.8491 83.9296 78.4591L82.6096 75.4291C81.6196 76.0591 80.6897 76.5091 79.6997 76.8991C76.7897 78.1291 72.2896 79.5391 68.7496 80.4091V74.1391C68.7496 73.2691 68.8396 72.1891 68.9296 71.3791Z" fill="#2F2F2F"/>
<path d="M115.25 73.9291L113.3 72.4891C112.79 72.6691 111.8 72.7891 110.69 72.7891H99.5597C98.6297 72.7891 96.8896 72.6691 96.2896 72.5791V75.9691C96.7697 75.9391 98.3897 75.7891 99.5597 75.7891H110.57C109.85 78.1291 107.84 81.4291 105.8 83.7091C102.83 87.0391 98.3297 90.6391 93.4697 92.4991L95.8997 95.0491C100.19 93.0391 104.24 89.8291 107.45 86.4091C110.42 89.1691 113.42 92.4691 115.4 95.1691L118.04 92.8291C116.18 90.5491 112.55 86.6791 109.46 84.0391C111.56 81.3391 113.33 77.9491 114.38 75.4891C114.59 74.9791 115.04 74.2291 115.25 73.9291Z" fill="#2F2F2F"/>
<path d="M132.59 72.2191V74.2291H126.83V72.2191H132.59ZM126.83 78.3391V76.1491H132.59V78.3391H126.83ZM135.2 80.3791V70.1491H124.07V96.4891H126.83V80.3791H135.2ZM134.48 87.1891V84.3391H138.05V87.1891H134.48ZM144.26 89.4991V87.1891H140.54V84.3391H143.66V82.1191H129.11V84.3391H132.08V87.1891H128.57V89.4991H131.99C131.75 91.1491 130.91 93.3991 128.69 94.7491C129.26 95.1391 130.1 95.8891 130.49 96.3991C133.22 94.5691 134.18 91.5091 134.42 89.4991H138.05V95.9491H140.54V89.4991H144.26ZM140.18 78.3991V76.1491H146.12V78.3991H140.18ZM146.12 72.2191V74.2291H140.18V72.2191H146.12ZM148.88 70.1491H137.51V80.4391H146.12V93.0391C146.12 93.4891 145.97 93.6391 145.52 93.6691C145.04 93.6691 143.51 93.6691 141.98 93.6391C142.4 94.3891 142.79 95.6491 142.88 96.3991C145.13 96.4291 146.63 96.3391 147.59 95.8891C148.58 95.4091 148.88 94.5991 148.88 93.0691V70.1491Z" fill="#2F2F2F"/>
<path d="M164.99 81.7291C168.5 81.4591 173.33 81.1591 178.01 80.7991C178.34 81.5491 178.64 82.2691 178.82 82.8691L181.25 81.5491C180.5 79.3291 178.46 76.0291 176.54 73.5691L174.32 74.6791C175.16 75.7891 176 77.0791 176.72 78.3391L169.88 78.7291C171.05 76.0291 172.31 72.5191 173.3 69.5491L170.24 68.9191C169.58 71.9191 168.29 75.9991 167.12 78.9091L164.72 79.0291L164.99 81.7291ZM161.87 77.5891C161.51 81.0991 160.82 84.1291 159.83 86.6491C158.84 85.9291 157.79 85.2691 156.83 84.6691C157.37 82.4791 157.97 80.0491 158.54 77.5891H161.87ZM163.04 74.9191L162.53 75.0091H159.11C159.56 72.9991 159.98 71.0191 160.34 69.2191L157.67 68.9191C157.34 70.7791 156.92 72.8791 156.47 75.0091H153.41V77.5891H155.93C155.12 81.1891 154.25 84.6691 153.53 87.1891L155.84 88.4191L156.17 87.2191C157.01 87.7891 157.85 88.3891 158.69 89.0491C157.34 91.4491 155.6 93.2491 153.5 94.3591C154.1 94.8691 154.82 95.8891 155.24 96.5791C157.52 95.1991 159.38 93.3091 160.85 90.7891C162.02 91.8391 163.04 92.8591 163.73 93.7291L165.41 91.4791C164.63 90.4891 163.43 89.4091 162.08 88.2991C163.46 84.9391 164.33 80.6491 164.69 75.2491L163.04 74.9191ZM176.78 86.8291V92.7091H169.31V86.8291H176.78ZM166.67 96.4891H169.31V95.2291H176.78V96.3691H179.54V84.2791H166.67V96.4891Z" fill="#2F2F2F"/>
<path d="M196.04 70.5991L192.53 70.2391C192.56 72.1891 192.26 74.4691 191.84 76.6891C190.13 76.8391 188.51 76.9591 187.55 76.9891C186.53 77.0191 185.66 77.0491 184.64 76.9891L184.94 80.2291C185.78 80.0791 187.16 79.8991 187.91 79.8091C188.6 79.7191 189.83 79.5691 191.21 79.4191C190.13 83.4991 187.97 89.9791 184.97 94.0291L188.06 95.2591C191.03 90.4591 193.16 83.5291 194.27 79.1191C195.41 78.9991 196.4 78.9391 197.03 78.9391C198.92 78.9391 200.09 79.3891 200.09 81.9691C200.09 85.0891 199.64 88.8991 198.74 90.7591C198.2 91.9291 197.36 92.1991 196.28 92.1991C195.47 92.1991 193.82 91.9591 192.62 91.5991L193.1 94.7191C194.09 94.9591 195.53 95.1391 196.67 95.1391C198.77 95.1391 200.33 94.5991 201.29 92.5291C202.55 90.0091 203 85.1791 203 81.6391C203 77.4391 200.81 76.2691 197.9 76.2691C197.21 76.2691 196.13 76.3291 194.9 76.4491C195.17 75.0391 195.44 73.5991 195.62 72.6691C195.74 72.0091 195.89 71.2291 196.04 70.5991ZM206.39 73.6291L203.6 74.8291C205.7 77.3791 207.95 82.7491 208.79 85.9291L211.76 84.5491C210.8 81.7291 208.25 76.1191 206.39 73.6291Z" fill="#2F2F2F"/>
<path d="M223.22 70.3291L222.47 73.1791C224.78 73.7791 231.38 75.1591 234.32 75.5491L235.01 72.6391C232.37 72.3691 225.92 71.1691 223.22 70.3291ZM222.95 76.0291L219.77 75.6091C219.56 78.9991 218.84 85.1191 218.24 87.9391L221 88.5991C221.24 88.0891 221.51 87.5791 222.02 87.0091C224 84.6091 227.18 83.1991 230.87 83.1991C233.75 83.1991 235.82 84.7891 235.82 87.0091C235.82 90.9691 231.14 93.4591 221.87 92.2891L222.77 95.3791C234.5 96.3691 239.06 92.4691 239.06 87.0691C239.06 83.4991 236 80.5291 231.11 80.5291C227.72 80.5291 224.54 81.5791 221.75 83.8591C222.02 82.0291 222.53 77.9191 222.95 76.0291Z" fill="#2F2F2F"/>
<path d="M245.12 94.1191H259.37V91.1791H253.85C252.77 91.1791 251.39 91.2691 250.25 91.3891C254.93 86.9191 258.32 82.5091 258.32 78.2491C258.32 74.2591 255.71 71.6191 251.66 71.6191C248.78 71.6191 246.83 72.8491 244.94 74.9191L246.89 76.8391C248.06 75.4891 249.5 74.3791 251.24 74.3791C253.73 74.3791 254.99 76.0291 254.99 78.4291C254.99 82.0591 251.63 86.3491 245.12 92.1091V94.1191Z" fill="#2F2F2F"/>
<path d="M270.599 87.1591V81.8491H276.629V87.1591H270.599ZM290.039 87.1591H279.509V81.8491H287.879V79.2391H279.509V75.0991H288.569V72.3991H271.199C271.589 71.4991 272.009 70.5091 272.369 69.5791L269.549 68.8291C268.169 72.8191 265.769 76.6291 263.009 78.9991C263.699 79.4191 264.899 80.3191 265.439 80.7991C266.969 79.2991 268.469 77.3191 269.759 75.0991H276.629V79.2391H267.809V87.1591H262.979V89.8591H276.629V96.4891H279.509V89.8591H290.039V87.1591Z" fill="#2F2F2F"/>
<path d="M294.359 74.0191L294.659 77.2891C298.019 76.5691 305.009 75.8491 308.039 75.5491C305.609 77.1391 302.939 80.7691 302.939 85.2991C302.939 91.8991 309.089 95.0491 314.969 95.3491L316.049 92.1391C311.099 91.9291 305.999 90.0991 305.999 84.6391C305.999 81.0991 308.639 76.8091 312.629 75.6091C314.189 75.2191 316.799 75.1891 318.479 75.1891V72.1591C316.409 72.2191 313.409 72.3991 310.199 72.6691C304.679 73.1491 299.339 73.6591 297.149 73.8691C296.549 73.9291 295.499 73.9891 294.359 74.0191ZM314.159 78.5191L312.359 79.2991C313.259 80.5891 314.039 81.9691 314.759 83.4991L316.619 82.6591C315.989 81.3991 314.879 79.5691 314.159 78.5191ZM317.489 77.2291L315.689 78.0391C316.649 79.3291 317.429 80.6491 318.209 82.1791L320.039 81.3091C319.379 80.0491 318.209 78.2491 317.489 77.2291Z" fill="#2F2F2F"/>
<path d="M167.995 177.26C167.197 176.5 164.271 173.878 162.447 172.396C164.271 169.888 165.791 167.152 166.931 164.264L164.385 162.63L163.587 162.82H161.877V155.828H157.393V162.82H151.997V166.924H161.155C158.685 171.294 154.695 175.284 150.553 177.526C151.237 178.4 152.301 180.604 152.681 181.82C154.277 180.832 155.873 179.578 157.393 178.172V191.282H161.877V176.956C163.169 178.362 164.461 179.882 165.259 180.946L167.995 177.26ZM178.939 185.772V171.864H186.121V167.494H178.939V156.132H174.303V167.494H167.083V171.864H174.303V185.772H165.525V190.18H187.033V185.772H178.939Z" fill="#2F2F2F"/>
<path d="M212.189 169.394C211.049 166.772 208.655 163.048 206.185 160.274L202.081 162.326C204.361 165.138 206.793 169.128 207.743 171.75L212.189 169.394ZM205.235 176.12C203.335 176.88 201.397 177.678 199.497 178.476L198.813 157.918L194.101 158.108L194.861 180.3C192.961 181.06 191.251 181.668 189.807 182.162L191.327 186.988C195.621 185.202 201.245 182.808 206.261 180.566L205.235 176.12ZM225.869 187.482C224.121 184.822 220.587 180.984 217.433 177.716C219.903 172.548 221.271 166.202 222.069 158.412L217.091 157.956C215.685 173.574 211.771 182.77 199.725 187.33C200.827 188.28 202.689 190.332 203.335 191.32C208.351 189.078 212.113 186.038 214.887 182.086C217.699 185.278 220.549 188.774 221.993 191.244L225.869 187.482Z" fill="#2F2F2F"/>
<path d="M247.681 184.86V171.712H261.095V167.114H247.681V156.246H242.817V184.86H229.213V189.42H263.755V184.86H247.681Z" fill="#2F2F2F"/>
<path d="M9.52051 181.456H38.6143V191.84H48.6152V181.456H54.166V172.029H48.6152V151.979H38.6143V172.029H20.3828L43.9736 122.072H32.8242L9.52051 172.029V181.456Z" fill="#2F2F2F"/>
<path d="M86.7548 171.742C86.5634 178.792 83.2936 182.349 76.9453 182.413C70.5651 182.349 67.3112 178.792 67.1836 171.742V142.17C67.3112 135.184 70.5651 131.627 76.9453 131.499C83.2936 131.627 86.5634 135.184 86.7548 142.17V171.742ZM57.1826 172.316C57.2464 178.729 59.304 183.673 63.3554 187.15C67.1517 190.596 71.6816 192.35 76.9453 192.414C82.3685 192.35 86.9782 190.596 90.7744 187.15C94.6344 183.673 96.6282 178.729 96.7558 172.316V141.548C96.6282 135.104 94.6344 130.143 90.7744 126.666C86.9782 123.221 82.3685 121.498 76.9453 121.498C71.6816 121.498 67.1517 123.221 63.3554 126.666C59.304 130.143 57.2464 135.104 57.1826 141.548V172.316Z" fill="#2F2F2F"/>
<path d="M131.881 171.742C131.689 178.792 128.42 182.349 122.071 182.413C115.691 182.349 112.437 178.792 112.309 171.742V142.17C112.437 135.184 115.691 131.627 122.071 131.499C128.42 131.627 131.689 135.184 131.881 142.17V171.742ZM102.309 172.316C102.372 178.729 104.43 183.673 108.481 187.15C112.278 190.596 116.808 192.35 122.071 192.414C127.494 192.35 132.104 190.596 135.9 187.15C139.76 183.673 141.754 178.729 141.882 172.316V141.548C141.754 135.104 139.76 130.143 135.9 126.666C132.104 123.221 127.494 121.498 122.071 121.498C116.808 121.498 112.278 123.221 108.481 126.666C104.43 130.143 102.372 135.104 102.309 141.548V172.316Z" fill="#2F2F2F"/>
<path d="M17.4998 212.7C17.4998 211.88 16.8198 211.2 15.9998 211.2C15.1798 211.2 14.4998 211.88 14.4998 212.7C14.4998 213.52 15.1798 214.2 15.9998 214.2C16.8198 214.2 17.4998 213.52 17.4998 212.7ZM9.3998 211.22L8.8198 211.8L15.4198 218.4L8.7998 225.02L9.37981 225.6L15.9998 218.98L22.5998 225.58L23.1798 225L16.5798 218.4L23.1798 211.8L22.5998 211.22L15.9998 217.82L9.3998 211.22ZM10.2998 216.9C9.47981 216.9 8.7998 217.58 8.7998 218.4C8.7998 219.22 9.47981 219.9 10.2998 219.9C11.1198 219.9 11.7998 219.22 11.7998 218.4C11.7998 217.58 11.1198 216.9 10.2998 216.9ZM21.6998 219.9C22.5198 219.9 23.1998 219.22 23.1998 218.4C23.1998 217.58 22.5198 216.9 21.6998 216.9C20.8798 216.9 20.1998 217.58 20.1998 218.4C20.1998 219.22 20.8798 219.9 21.6998 219.9ZM14.4998 224.1C14.4998 224.92 15.1798 225.6 15.9998 225.6C16.8198 225.6 17.4998 224.92 17.4998 224.1C17.4998 223.28 16.8198 222.6 15.9998 222.6C15.1798 222.6 14.4998 223.28 14.4998 224.1Z" fill="#747474"/>
<path d="M39.4925 209.56C39.1925 210.26 38.6325 211.32 38.2325 211.98L39.1925 212.34C39.6325 211.74 40.1725 210.84 40.5925 209.98L39.4925 209.56ZM34.8725 211.94C34.6725 211.3 34.1325 210.36 33.6325 209.68L32.6125 210.06C33.0925 210.78 33.6125 211.76 33.7925 212.38L34.8725 211.94ZM44.6525 219.96H43.1925V221.56H37.7925V219.98H36.3525V221.56H31.5525V222.88H36.2325C35.9325 224.14 34.9725 225.42 32.0325 226.34C32.3525 226.62 32.7725 227.16 32.9525 227.5C36.4725 226.34 37.4725 224.6 37.7125 222.88H43.1925V227.5H44.6525V222.88H49.3925V221.56H44.6525V219.96ZM34.6725 214.58C34.4925 215.64 34.1925 216.74 33.7325 217.58C33.9725 217.66 34.3725 217.86 34.5325 217.98C34.9725 217.14 35.3325 215.92 35.5525 214.78L34.6725 214.58ZM39.0925 216.96C38.9725 216.34 38.6325 215.32 38.2925 214.58L37.5125 214.78C37.8525 215.56 38.1925 216.58 38.3125 217.22L39.0925 216.96ZM43.4325 212.62H47.0925C46.6925 213.92 46.0925 215 45.2725 215.9C44.4325 215 43.7925 213.94 43.3725 212.76L43.4325 212.62ZM49.4925 212.62V211.4H43.9725C44.2325 210.82 44.4325 210.2 44.6325 209.6L43.4125 209.26C42.8325 211.22 41.8925 213.16 40.7725 214.48V212.56H37.1525V209.26H35.8925V212.56H32.3125V219.62H33.4525V213.64H35.9925V219.3H37.0525V213.64H39.5925V218.1C39.5925 218.28 39.5525 218.34 39.3725 218.34C39.1725 218.36 38.6525 218.36 37.9925 218.34C38.1325 218.66 38.3125 219.12 38.3325 219.44C39.2325 219.44 39.8725 219.44 40.2725 219.24C40.6925 219.04 40.7725 218.72 40.7725 218.12V214.62C41.0325 214.92 41.4125 215.42 41.5725 215.64C41.9525 215.16 42.3125 214.64 42.6725 214.06C43.1525 215.04 43.7325 215.96 44.4125 216.74C43.5125 217.48 42.4125 218.06 41.1525 218.52C41.3725 218.78 41.7325 219.36 41.8525 219.64C43.1925 219.1 44.3525 218.46 45.3125 217.64C46.3325 218.52 47.5125 219.2 48.8925 219.66C49.0725 219.32 49.4325 218.84 49.7125 218.58C48.3725 218.2 47.1925 217.58 46.2125 216.78C47.2125 215.68 47.9725 214.3 48.4525 212.62H49.4925Z" fill="#747474"/>
<path d="M59.6925 220.58C59.1925 220.14 57.4325 218.6 56.5125 217.86C57.5525 216.52 58.4725 215.04 59.0925 213.5L58.2525 212.94L57.9925 213H56.2525V209.28H54.7925V213H51.6525V214.36H57.2125C55.8325 217.02 53.3325 219.54 50.9525 220.92C51.1925 221.2 51.5725 221.88 51.7325 222.26C52.7525 221.6 53.7925 220.76 54.7925 219.78V227.52H56.2525V219.24C57.1525 220.08 58.2525 221.2 58.7725 221.78L59.6925 220.58ZM65.1325 225.5V217.2H69.3925V215.76H65.1325V209.42H63.6525V215.76H59.3725V217.2H63.6525V225.5H58.5925V226.96H69.7925V225.5H65.1325Z" fill="#747474"/>
<path d="M75.8925 223.2C75.0325 223.2 73.8725 222.1 73.8725 219.6C73.8725 216.94 76.1925 213.68 79.9925 213.2C79.7725 215.02 79.3925 216.9 78.8925 218.54C77.8725 221.88 76.7725 223.2 75.8925 223.2ZM81.1125 226.52C85.8325 225.9 88.5725 223.12 88.5725 218.96C88.5725 214.96 85.6125 211.68 80.9725 211.68C76.1325 211.68 72.2925 215.44 72.2925 219.74C72.2925 223 74.0725 225.04 75.8325 225.04C77.6725 225.04 79.2525 222.94 80.4725 218.88C81.0125 217.02 81.3925 215.02 81.6525 213.18C85.0125 213.46 86.9125 215.92 86.9125 218.92C86.9125 222.34 84.4325 224.22 81.8925 224.78C81.4125 224.88 80.8125 224.98 80.1925 225.02L81.1125 226.52Z" fill="#747474"/>
<path d="M109.272 222.34V221.02H100.792C100.972 220.4 101.072 219.76 101.112 219.14H107.052V217.9H101.152V216.12H107.332V215.06H108.832V211.22H101.192V209.28H99.7125V211.22H92.0925V215.06H93.5325V212.56H107.332V214.86H101.152V213.2H99.6725V214.86H93.7725V216.12H99.6725V217.9H94.0925V219.14H99.6325C99.5925 219.76 99.4925 220.4 99.2525 221.02H91.7925V222.34H98.5725C97.5325 223.84 95.4925 225.24 91.5925 226.32C91.9125 226.64 92.3325 227.2 92.4925 227.52C97.0525 226.16 99.2325 224.32 100.272 222.34H100.452C101.972 225.2 104.692 226.88 108.592 227.56C108.792 227.18 109.172 226.58 109.492 226.28C106.012 225.78 103.452 224.48 102.032 222.34H109.272Z" fill="#747474"/>
<path d="M129.592 214.46H124.552V213.38H128.592V212.42H124.552V211.38H129.092V210.38H124.552V209.28H123.072V210.38H118.752V211.38H123.072V212.42H119.272V213.38H123.072V214.46H118.212V215.48H129.592V214.46ZM120.912 222H127.052V223.34H120.912V222ZM120.912 219.74H127.052V221.04H120.912V219.74ZM120.912 217.5H127.052V218.76H120.912V217.5ZM128.452 224.34V216.5H119.552V224.34H128.452ZM112.312 220.6C112.092 222.34 111.712 224.14 111.092 225.36C111.372 225.46 111.972 225.72 112.192 225.9C112.832 224.62 113.292 222.7 113.572 220.82L112.312 220.6ZM117.372 219C117.552 219.44 117.692 219.88 117.772 220.24L118.952 219.7C118.652 218.6 117.852 216.9 117.032 215.6L115.952 216.04C116.252 216.56 116.572 217.16 116.852 217.76L113.912 217.9C115.272 216.2 116.772 213.94 117.912 212.12L116.672 211.54C116.112 212.62 115.352 213.92 114.532 215.16C114.232 214.76 113.872 214.32 113.452 213.88C114.212 212.76 115.072 211.14 115.752 209.76L114.452 209.28C114.032 210.38 113.332 211.9 112.672 213.04C112.472 212.84 112.272 212.66 112.072 212.48L111.272 213.42C112.172 214.28 113.172 215.42 113.752 216.32C113.332 216.92 112.912 217.48 112.512 217.98L111.132 218.04L111.212 219.38C112.152 219.32 113.252 219.26 114.412 219.18V227.52H115.732V219.1L117.372 219ZM118.612 224.12C118.472 223.14 118.032 221.66 117.532 220.52L116.452 220.84C116.932 222 117.332 223.5 117.452 224.46L118.612 224.12ZM121.792 224.44C120.852 225.26 118.972 226.16 117.332 226.64C117.632 226.88 118.072 227.32 118.292 227.6C119.932 227.1 121.852 226.14 123.032 225.18L121.792 224.44ZM124.932 225.24C126.212 226 127.652 226.94 128.452 227.54L129.752 226.82C128.812 226.18 127.272 225.26 125.932 224.5L124.932 225.24Z" fill="#747474"/>
<path d="M139.812 223.28C139.812 224.64 139.112 225.32 137.652 225.32C135.752 225.32 134.652 224.72 134.652 223.62C134.652 222.54 135.812 221.84 137.852 221.84C138.512 221.84 139.152 221.9 139.792 222.04C139.792 222.54 139.812 222.96 139.812 223.28ZM141.152 215.8C142.772 215.76 145.312 215.64 147.072 215.48L147.012 213.96C145.232 214.2 142.732 214.3 141.152 214.34C141.152 213.56 141.132 212.86 141.152 212.32C141.172 211.72 141.232 210.78 141.312 210.36H139.392C139.472 210.74 139.532 211.6 139.552 212.32C139.572 213.16 139.572 214.8 139.572 215.94C139.572 217.12 139.652 218.94 139.732 220.54C139.172 220.46 138.612 220.42 138.052 220.42C134.632 220.42 133.072 221.9 133.072 223.68C133.072 225.94 135.092 226.82 137.812 226.82C140.452 226.82 141.452 225.42 141.452 223.8C141.452 223.44 141.432 223 141.412 222.48C143.472 223.2 145.292 224.46 146.552 225.74L147.512 224.26C146.072 222.96 143.892 221.58 141.352 220.88C141.252 219.16 141.152 217.24 141.152 215.94V215.8Z" fill="#747474"/>
<path d="M155.142 210.22C155.122 210.7 155.062 211.3 154.982 211.92C154.742 213.52 154.382 216.44 154.382 218.32C154.382 219.6 154.482 220.72 154.582 221.46L156.142 221.34C156.002 220.36 156.002 219.68 156.102 218.92C156.342 216.32 158.622 212.74 161.082 212.74C163.182 212.74 164.222 214.98 164.222 218.1C164.222 223.08 160.862 224.8 156.562 225.46L157.502 226.9C162.422 226 165.882 223.58 165.882 218.08C165.882 213.92 163.982 211.28 161.342 211.28C158.842 211.28 156.762 213.74 155.982 215.78C156.102 214.4 156.482 211.74 156.902 210.28L155.142 210.22Z" fill="#747474"/>
</svg>
