<svg width="310" height="145" viewBox="0 0 310 145" fill="none" xmlns="http://www.w3.org/2000/svg">
<path fill-rule="evenodd" clip-rule="evenodd" d="M305.474 4.52555H4.52555V140.292H305.474V4.52555ZM0 0V144.818H310V0H0Z" fill="#131313"/>
<path d="M217.167 54.0174H199.735L199.3 51.0848L194.304 52.4968V44.1879H197.888V49.1298H217.167V54.0174ZM229.495 49.1298V43.1561H217.167V38.54H227.159V32.6749H217.167V27.8416H210.759V32.6749H201.146V38.54H210.759V43.1561H198.811V38.0513H194.304V27.8959H188.384V38.0513H185.832C186.158 35.879 186.429 33.7067 186.647 31.5345L181.27 30.6656C180.782 37.0737 179.913 43.8078 178.175 48.1523C179.424 48.804 181.759 50.2702 182.737 51.0848C183.497 49.1298 184.203 46.7946 184.746 44.1879H188.384V54.1803C184.746 55.1578 181.379 56.0267 178.718 56.6241L180.238 62.8151C182.682 62.1091 185.452 61.2945 188.384 60.4256V78.564H194.304V58.6335C195.879 58.1447 197.508 57.6016 199.083 57.1129V59.9911H205.654L200.984 62.8694C203.319 65.4761 206.088 69.0603 207.175 71.3955L212.334 68.0828C211.03 65.6933 208.206 62.3806 205.817 59.9911H217.167V71.2326C217.167 71.9386 216.95 72.1015 216.026 72.1558C215.158 72.1558 212.225 72.1558 209.51 72.0472C210.379 73.8393 211.248 76.6089 211.465 78.4554C215.538 78.4554 218.579 78.3467 220.805 77.3692C222.978 76.3374 223.521 74.5996 223.521 71.3412V59.9911H229.006V54.0174H223.521V49.1298H229.495Z" fill="#131313"/>
<path d="M254.421 29.5251H237.206V34.4127H254.421V29.5251ZM248.502 64.39V70.6352H242.311V64.39H248.502ZM254.15 59.2851H236.717V77.8037H242.311V75.6857H254.15V59.2851ZM236.88 56.6241H254.313V51.7908H236.88V56.6241ZM284.996 52.1167H273.809V41.2554H283.855V35.3359H266.206C266.912 33.2723 267.509 31.1 267.998 28.9278L261.535 27.6787C260.504 32.6749 258.766 37.7254 256.485 41.7441V36.8022H234.273V41.907H256.376C255.725 43.0475 255.073 44.1336 254.313 45.1111V44.3508H236.88V49.2927H254.313V46.4688C255.942 47.3377 258.168 48.804 259.255 49.6186C260.938 47.3377 262.567 44.4594 263.979 41.2554H267.292V52.1167H255.942V58.2533H267.292V78.5097H273.809V58.2533H284.996V52.1167Z" fill="#131313"/>
<path d="M197.182 108.557V104.72H205.219V108.557H197.182ZM184.8 108.557V104.72H192.657V108.557H184.8ZM192.657 97.1167V100.773H184.8V97.1167H192.657ZM205.219 97.1167V100.773H197.182V97.1167H205.219ZM197.182 92.9894V88.138H192.657V92.9894H180.492V114.603H184.8V112.685H192.657V121.953H197.182V112.685H205.219V114.422H209.709V92.9894H197.182Z" fill="#131313"/>
<path d="M227.485 89.2965H216.841V92.5549H227.485V89.2965ZM228.789 94.1479H215.031V97.5511H228.789V94.1479ZM227.594 99.1803H216.732V102.475H227.594V99.1803ZM216.732 107.363H227.594V104.14H216.732V107.363ZM223.973 112.54V116.703H220.244V112.54H223.973ZM227.63 109.137H216.624V121.482H220.244V120.07H227.63V109.137ZM235.197 112.467V110.766H242.691V112.467H235.197ZM242.691 106.349V107.978H235.197V106.349H242.691ZM246.71 103.308H231.25V121.917H235.197V115.291H242.691V117.898C242.691 118.296 242.582 118.441 242.112 118.441C241.641 118.477 240.157 118.477 238.817 118.441C239.288 119.382 239.795 120.831 239.939 121.88C242.257 121.88 243.958 121.844 245.153 121.265C246.384 120.722 246.71 119.781 246.71 117.97V103.308ZM240.736 98.8545V97.4063H247.47V94.5099H240.736V93.2066H248.013V90.1292H240.736V88.1742H236.645V90.1292H229.657V93.2066H236.645V94.5099H230.563V97.4063H236.645V98.8545H228.789V101.968H248.665V98.8545H240.736Z" fill="#131313"/>
<path d="M271.075 106.457V98.6735H279.257V106.457H271.075ZM258.368 106.457V98.6735H266.513V106.457H258.368ZM271.075 94.4375V88.1742H266.513V94.4375H254.023V112.685H258.368V110.693H266.513V121.989H271.075V110.693H279.257V112.504H283.783V94.4375H271.075Z" fill="#131313"/>
<path d="M32.542 46.102H38.7488C45.1615 46.102 49.2797 42.4544 49.2797 35.1298C49.2797 27.7758 45.1615 24.3047 38.5135 24.3047H32.542V46.102ZM36.8956 42.6015V27.8052H38.2487C42.3081 27.8052 44.8379 29.8055 44.8379 35.1298C44.8379 40.4247 42.3081 42.6015 38.2487 42.6015H36.8956Z" fill="#131313"/>
<path d="M60.954 46.5139C62.9837 46.5139 65.0722 45.8079 66.6901 44.6901L65.2193 42.0426C64.0427 42.778 62.866 43.1898 61.5129 43.1898C59.0714 43.1898 57.3064 41.7779 56.9534 39.0716H67.102C67.2196 38.6892 67.3079 37.895 67.3079 37.0713C67.3079 32.5412 64.9546 29.2172 60.4245 29.2172C56.5122 29.2172 52.7469 32.5412 52.7469 37.8655C52.7469 43.3075 56.3357 46.5139 60.954 46.5139ZM56.8946 36.1888C57.2182 33.8061 58.7478 32.5706 60.4833 32.5706C62.6013 32.5706 63.6014 33.9826 63.6014 36.1888H56.8946Z" fill="#131313"/>
<path d="M76.1637 46.5139C80.4585 46.5139 82.7235 44.19 82.7235 41.3072C82.7235 38.2479 80.3114 37.1595 78.1346 36.3359C76.399 35.6887 74.8694 35.2475 74.8694 34.0414C74.8694 33.1001 75.5754 32.453 77.0756 32.453C78.2817 32.453 79.4289 33.0119 80.6055 33.8649L82.547 31.2469C81.1939 30.2174 79.3406 29.2172 76.9579 29.2172C73.1927 29.2172 70.81 31.3058 70.81 34.2474C70.81 37.0125 73.1339 38.2774 75.2224 39.0716C76.9579 39.7482 78.6641 40.3071 78.6641 41.5425C78.6641 42.5721 77.9287 43.2781 76.2814 43.2781C74.7517 43.2781 73.3398 42.6309 71.869 41.4837L69.8981 44.19C71.5454 45.5431 73.9575 46.5139 76.1637 46.5139Z" fill="#131313"/>
<path d="M86.6099 46.102H90.934V29.629H86.6099V46.102ZM88.7866 26.9816C90.2574 26.9816 91.287 26.0403 91.287 24.5989C91.287 23.1869 90.2574 22.2456 88.7866 22.2456C87.2864 22.2456 86.2569 23.1869 86.2569 24.5989C86.2569 26.0403 87.2864 26.9816 88.7866 26.9816Z" fill="#131313"/>
<path d="M101.927 53.2501C107.428 53.2501 110.899 50.7204 110.899 47.3963C110.899 44.5136 108.722 43.2781 104.751 43.2781H101.957C100.015 43.2781 99.3679 42.8074 99.3679 41.9249C99.3679 41.2484 99.6327 40.8954 100.074 40.513C100.78 40.7483 101.545 40.8954 102.192 40.8954C105.722 40.8954 108.546 39.0128 108.546 35.3063C108.546 34.2768 108.222 33.3649 107.81 32.806H110.605V29.629H104.663C103.986 29.3937 103.104 29.2172 102.192 29.2172C98.6914 29.2172 95.5438 31.3058 95.5438 35.1593C95.5438 37.1007 96.6028 38.6598 97.75 39.4834V39.6011C96.7499 40.3071 95.8968 41.4543 95.8968 42.6898C95.8968 44.0429 96.544 44.896 97.397 45.4549V45.602C95.8968 46.455 95.0438 47.6317 95.0438 49.0142C95.0438 51.9264 98.0442 53.2501 101.927 53.2501ZM102.192 38.2185C100.75 38.2185 99.6032 37.1301 99.6032 35.1593C99.6032 33.2472 100.721 32.1588 102.192 32.1588C103.663 32.1588 104.78 33.2472 104.78 35.1593C104.78 37.1301 103.633 38.2185 102.192 38.2185ZM102.574 50.5144C100.192 50.5144 98.6619 49.7202 98.6619 48.3377C98.6619 47.6611 98.9855 47.0139 99.7209 46.4256C100.309 46.5727 101.015 46.6609 102.015 46.6609H104.016C105.781 46.6609 106.751 46.9551 106.751 48.1317C106.751 49.426 105.045 50.5144 102.574 50.5144Z" fill="#131313"/>
<path d="M114.272 46.102H118.597V34.7768C119.803 33.5708 120.656 32.9236 122.009 32.9236C123.627 32.9236 124.333 33.8061 124.333 36.3653V46.102H128.657V35.8358C128.657 31.6882 127.127 29.2172 123.568 29.2172C121.332 29.2172 119.656 30.3939 118.214 31.8058H118.126L117.802 29.629H114.272V46.102Z" fill="#131313"/>
<path d="M57.7453 92.0755C59.5374 85.8031 61.3296 78.9604 62.8773 72.3622H63.2846C64.9953 78.879 66.6244 85.8031 68.498 92.0755L70.2901 98.6737H55.9532L57.7453 92.0755ZM36.8916 123.519H49.1106L53.3465 108.042H72.8969L77.1328 123.519H89.7591L70.3716 63.1572H56.1976L36.8916 123.519Z" fill="#131313"/>
<path d="M101.703 123.519H113.759V63.1572H101.703V123.519Z" fill="#131313"/>
<path fill-rule="evenodd" clip-rule="evenodd" d="M156.131 124.452H153.868V20.3643H156.131V124.452Z" fill="black"/>
</svg>
