<svg fill="none" height="110" viewBox="0 0 70 110" width="70" xmlns="http://www.w3.org/2000/svg"><g fill="#131313"><path clip-rule="evenodd" d="m68 2h-66v106h66zm-68-2v110h70v-110z" fill-rule="evenodd"/><path d="m29.0167 72.97h-7.062l-.176-1.188-2.024.572v-3.366h1.452v2.002h7.81zm4.994-1.98v-2.42h-4.994v-1.87h4.048v-2.376h-4.048v-1.958h-2.596v1.958h-3.894v2.376h3.894v1.87h-4.84v-2.068h-1.826v-4.114h-2.398v4.114h-1.034c.132-.88.242-1.76.33-2.64l-2.178-.352c-.198 2.596-.55 5.324-1.254 7.084.506.264 1.452.858 1.848 1.188.308-.792.594-1.738.814-2.794h1.474v4.048c-1.474.396-2.838.748-3.916.99l.616 2.508c.99-.286 2.112-.616 3.3-.968v7.348h2.398v-8.074c.638-.198 1.298-.418 1.936-.616v1.166h2.662l-1.892 1.166c.946 1.056 2.068 2.508 2.508 3.454l2.09-1.342c-.528-.968-1.672-2.31-2.64-3.278h4.598v4.554c0 .286-.088.352-.462.374-.352 0-1.54 0-2.64-.044.352.726.704 1.848.792 2.596 1.65 0 2.882-.044 3.784-.44.88-.418 1.1-1.122 1.1-2.442v-4.598h2.222v-2.42h-2.222v-1.98z"/><path d="m44.1087 63.048h-6.974v1.98h6.974zm-2.398 14.124v2.53h-2.508v-2.53zm2.288-2.068h-7.062v7.502h2.266v-.858h4.796zm-6.996-1.078h7.062v-1.958h-7.062zm19.492-1.826h-4.532v-4.4h4.07v-2.398h-7.15c.286-.836.528-1.716.726-2.596l-2.618-.506c-.418 2.024-1.122 4.07-2.046 5.698v-2.002h-8.998v2.068h8.954c-.264.462-.528.902-.836 1.298v-.308h-7.062v2.002h7.062v-1.144c.66.352 1.562.946 2.002 1.276.682-.924 1.342-2.09 1.914-3.388h1.342v4.4h-4.598v2.486h4.598v8.206h2.64v-8.206h4.532z"/><path d="m20.6007 95.74v-1.59h3.33v1.59zm-5.13 0v-1.59h3.255v1.59zm3.255-4.74v1.515h-3.255v-1.515zm5.205 0v1.515h-3.33v-1.515zm-3.33-1.71v-2.01h-1.875v2.01h-5.04v8.955h1.785v-.795h3.255v3.84h1.875v-3.84h3.33v.72h1.86v-8.88z"/><path d="m33.1557 87.76h-4.41v1.35h4.41zm.54 2.01h-5.7v1.41h5.7zm-.495 2.085h-4.5v1.365h4.5zm-4.5 3.39h4.5v-1.335h-4.5zm3 2.145v1.725h-1.545v-1.725zm1.515-1.41h-4.56v5.115h1.5v-.585h3.06zm3.135 1.38v-.705h3.105v.705zm3.105-2.535v.675h-3.105v-.675zm1.665-1.26h-6.405v7.71h1.635v-2.76h3.105v1.095c0 .165-.045.225-.24.225-.195.015-.81.015-1.365 0 .195.39.405.99.465 1.425.96 0 1.665-.015 2.16-.255.51-.225.645-.615.645-1.365zm-2.475-1.845v-.6h2.79v-1.2h-2.79v-.54h3.015v-1.275h-3.015v-.81h-1.695v.81h-2.895v1.275h2.895v.54h-2.52v1.2h2.52v.6h-3.255v1.275h8.235v-1.275z"/><path d="m51.2157 94.87v-3.225h3.39v3.225zm-5.265 0v-3.225h3.375v3.225zm5.265-4.98v-2.595h-1.89v2.595h-5.175v7.56h1.8v-.825h3.375v4.68h1.89v-4.68h3.39v.75h1.875v-7.485z"/><path d="m20.9675 13.768c0 1.5687-.4463 2.7517-1.339 3.549-.8927.7887-2.1363 1.183-3.731 1.183h-2.626v-9.282h2.912c.9707 0 1.8113.17333 2.522.52.7193.3467 1.274.858 1.664 1.534.3987.676.598 1.508.598 2.496zm-2.041.052c0-1.0227-.2253-1.7767-.676-2.262s-1.105-.728-1.963-.728h-1.053v6.045h.845c1.898 0 2.847-1.0183 2.847-3.055z"/><path d="m25.9235 11.272c.9794 0 1.755.2817 2.327.845.572.5547.858 1.3477.858 2.379v.936h-4.576c.0174.546.1777.975.481 1.287.312.312.741.468 1.287.468.4507 0 .8624-.0433 1.235-.13.3814-.0953.7714-.2383 1.17-.429v1.495c-.3553.1733-.7236.299-1.105.377-.3813.0867-.845.13-1.391.13-.7106 0-1.339-.13-1.885-.39-.546-.2687-.975-.6673-1.287-1.196-.312-.5373-.468-1.2177-.468-2.041s.1387-1.5123.416-2.067c.286-.5547.6804-.9707 1.183-1.248.5027-.2773 1.0877-.416 1.755-.416zm.013 1.378c-.3813 0-.6933.1213-.936.364-.2426.2427-.3856.6197-.429 1.131h2.717c-.0086-.4247-.1256-.78-.351-1.066-.2166-.286-.5503-.429-1.001-.429z"/><path d="m35.8922 16.394c0 .7193-.2557 1.274-.767 1.664-.5027.3813-1.2567.572-2.262.572-.494 0-.9187-.0347-1.274-.104-.3553-.0607-.7107-.1647-1.066-.312v-1.599c.3813.1733.793.3163 1.235.429s.832.169 1.17.169c.3727 0 .6413-.0563.806-.169s.247-.26.247-.442c0-.1213-.0347-.2297-.104-.325-.0607-.0953-.1993-.2037-.416-.325s-.5547-.2773-1.014-.468c-.4507-.1907-.819-.377-1.105-.559-.2773-.1907-.4853-.416-.624-.676-.1387-.2687-.208-.6023-.208-1.001 0-.6587.2557-1.1527.767-1.482s1.1917-.494 2.041-.494c.442 0 .8623.0433 1.261.13s.8103.2297 1.235.429l-.585 1.391c-.3467-.1473-.676-.2687-.988-.364-.312-.104-.6283-.156-.949-.156-.572 0-.858.156-.858.468 0 .1127.0347.2167.104.312.078.0867.221.182.429.286.2167.104.533.2427.949.416.4073.1647.7583.338 1.053.52.2947.1733.52.3943.676.663.1647.2687.247.611.247 1.027z"/><path d="m38.6361 8.62c.286 0 .533.06933.741.208.208.13.312.377.312.74099 0 .35534-.104.60231-.312.74101s-.455.208-.741.208c-.2947 0-.546-.0693-.754-.208-.1993-.1387-.299-.38567-.299-.74101 0-.36399.0997-.61099.299-.74099.208-.13867.4593-.208.754-.208zm.962 2.782v7.098h-1.937v-7.098z"/><path d="m44.183 11.272c.8754 0 1.56.3467 2.054 1.04h.052l.156-.91h1.638v7.111c0 1.014-.299 1.7853-.897 2.314s-1.482.793-2.652.793c-.5026 0-.9706-.0303-1.404-.091-.4246-.0607-.8406-.169-1.248-.325v-1.547c.8667.364 1.7897.546 2.769.546.9967 0 1.495-.5373 1.495-1.612v-.143c0-.1387.0044-.286.013-.442.0087-.1647.0217-.3077.039-.429h-.052c-.2426.3727-.533.6413-.871.806s-.7193.247-1.144.247c-.8406 0-1.4993-.3207-1.976-.962-.468-.65-.702-1.5513-.702-2.704 0-1.1613.2427-2.067.728-2.717.4854-.65 1.1527-.975 2.002-.975zm.611 1.573c-.91 0-1.365.715-1.365 2.145 0 1.4127.4637 2.119 1.391 2.119.494 0 .858-.1387 1.092-.416.2427-.286.364-.78.364-1.482v-.234c0-.7627-.117-1.3087-.351-1.638s-.611-.494-1.131-.494z"/><path d="m54.3986 11.272c.7627 0 1.3737.208 1.833.624.4593.4073.689 1.066.689 1.976v4.628h-1.937v-4.147c0-.5113-.091-.8927-.273-1.144-.182-.26-.4723-.39-.871-.39-.5893 0-.9923.2037-1.209.611-.2167.3987-.325.975-.325 1.729v3.341h-1.937v-7.098h1.482l.26.91h.104c.2253-.364.533-.6283.923-.793.3987-.1647.819-.247 1.261-.247z"/><path d="m33.7181 50-1.872-6.12h-9.36l-1.872 6.12h-5.868l9.072-25.812h6.66l9.108 25.812zm-3.168-10.692-1.872-5.976c-.12-.408-.276-.924-.468-1.548s-.384-1.26-.576-1.908-.348-1.212-.468-1.692c-.12.48-.288 1.08-.504 1.8-.192.696-.384 1.368-.576 2.016-.168.624-.3 1.068-.396 1.332l-1.836 5.976z"/><path d="m54.6136 50h-11.7v-3.096l3.132-1.44v-16.632l-3.132-1.44v-3.096h11.7v3.096l-3.132 1.44v16.632l3.132 1.44z"/></g><path clip-rule="evenodd" d="m62.5 56.5h-54v-.5h54z" fill="#000" fill-rule="evenodd"/></svg>