<svg width="44" height="44" viewBox="0 0 44 44" fill="none" xmlns="http://www.w3.org/2000/svg">
<circle cx="22" cy="22" r="22" fill="white"/>
<path d="M34.8333 14.288C33.9063 14.6999 32.9232 14.9703 31.9165 15.0903C32.9749 14.4526 33.7665 13.4509 34.144 12.2714C33.1478 12.8667 32.0575 13.2867 30.9203 13.5132C30.1543 12.7 29.143 12.1622 28.0424 11.9826C26.9418 11.803 25.8128 11.9917 24.8296 12.5195C23.8463 13.0473 23.0633 13.8849 22.6013 14.9033C22.1392 15.9217 22.0237 17.0643 22.2726 18.155C20.2535 18.0538 18.2782 17.5275 16.475 16.6103C14.6718 15.6931 13.081 14.4056 11.8059 12.8314C11.1571 13.9534 10.9585 15.2811 11.2504 16.5448C11.5424 17.8084 12.3029 18.913 13.3775 19.634C12.5697 19.6095 11.7796 19.3911 11.0733 18.997C11.0733 19.0181 11.0733 19.0392 11.0733 19.0616C11.0741 20.2395 11.4814 21.3807 12.2259 22.2914C12.9703 23.2022 14.006 23.8261 15.157 24.0574C14.4093 24.2617 13.6249 24.2914 12.8639 24.1443C13.1881 25.1568 13.8196 26.0424 14.6702 26.677C15.5207 27.3116 16.5476 27.6635 17.6073 27.6834C15.8071 29.1006 13.584 29.8687 11.296 29.8641C10.8907 29.8644 10.4858 29.8408 10.0833 29.7933C12.405 31.2905 15.1073 32.0855 17.8671 32.0832C27.2065 32.0832 32.3137 24.3181 32.3137 17.5851C32.3137 17.364 32.3137 17.1442 32.3001 16.9257C33.294 16.2046 34.1519 15.3114 34.8333 14.288Z" fill="#00A3FF"/>
</svg>
