<svg width="46" height="46" viewBox="0 0 46 46" fill="none" xmlns="http://www.w3.org/2000/svg">
<path fill-rule="evenodd" clip-rule="evenodd" d="M39.7139 38.8002C43.6106 34.6797 46 29.1189 46 23C46 10.2975 35.7025 0 23 0C10.2975 0 0 10.2975 0 23C0 35.7025 10.2975 46 23 46C27.8775 46 32.4004 44.4817 36.1219 41.892L32.8539 38.557C29.8871 40.4632 26.5821 41.4163 22.9389 41.4163C18.2196 41.4163 14.0307 39.8176 10.3721 36.6201C6.39072 33.0999 4.40002 28.6036 4.40002 23.1311C4.40002 17.7662 6.28312 13.2929 10.0493 9.71116C13.7079 6.23705 18.0275 4.5 23.008 4.5C27.5275 4.5 31.578 6.02184 35.1597 9.06553C39.4639 12.7241 41.616 17.4972 41.616 23.3847C41.616 27.9964 39.9174 32.093 36.5202 35.6748L39.714 38.8002C39.714 38.8002 39.714 38.8002 39.7139 38.8002ZM27.6197 26.682L32.7847 31.824C35.0598 29.4567 36.1974 26.5283 36.1974 23.0388C36.1974 19.2112 34.9291 16.0061 32.3927 13.4235C29.8563 10.841 26.705 9.54976 22.9389 9.54976C19.1266 9.54976 15.9906 10.841 13.5311 13.4235C11.0562 15.9907 9.81871 19.2419 9.81871 23.1772C9.81871 27.0202 11.0946 30.1638 13.6464 32.608C16.3058 35.129 19.3418 36.3896 22.7544 36.3896C25.0756 36.3896 27.1739 35.8592 29.0493 34.7985L20.6792 26.682H27.6197Z" fill="#00A3FF"/>
</svg>
