<svg width="48" height="48" viewBox="0 0 48 48" fill="none" xmlns="http://www.w3.org/2000/svg">
<circle cx="24" cy="24" r="24" fill="white"/>
<path d="M38 15.5871C36.9888 16.0365 35.9163 16.3315 34.8181 16.4623C35.9727 15.7667 36.8363 14.6739 37.2481 13.3871C36.1613 14.0366 34.972 14.4948 33.7313 14.7418C32.8957 13.8547 31.7925 13.268 30.5918 13.0721C29.3911 12.8762 28.1595 13.082 27.0869 13.6578C26.0142 14.2336 25.1601 15.1474 24.656 16.2583C24.1519 17.3693 24.026 18.6158 24.2975 19.8057C22.0948 19.6952 19.94 19.121 17.9728 18.1205C16.0057 17.12 14.2702 15.7154 12.8792 13.9981C12.1715 15.222 11.9548 16.6705 12.2733 18.049C12.5918 19.4275 13.4215 20.6326 14.5937 21.4191C13.7125 21.3924 12.8505 21.1541 12.08 20.7242C12.08 20.7472 12.08 20.7702 12.08 20.7946C12.081 22.0796 12.5253 23.3246 13.3374 24.3181C14.1495 25.3116 15.2794 25.9923 16.535 26.2446C15.7193 26.4675 14.8636 26.4999 14.0335 26.3394C14.3871 27.444 15.0761 28.41 16.0039 29.1023C16.9317 29.7946 18.052 30.1785 19.208 30.2003C17.2441 31.7463 14.819 32.5842 12.323 32.5791C11.8809 32.5795 11.4391 32.5537 11 32.5019C13.5329 34.1353 16.4807 35.0025 19.4915 35C29.68 35 35.2514 26.5291 35.2514 19.1839C35.2514 18.9427 35.2514 18.703 35.2366 18.4645C36.3209 17.6779 37.2567 16.7035 38 15.5871Z" fill="#00A3FF"/>
</svg>
