<svg width="136" height="149" viewBox="0 0 136 149" fill="none" xmlns="http://www.w3.org/2000/svg">
<path d="M32.0833 9.59923C32.0833 9.59923 30.1096 4.52242 36.5648 0C36.5539 0 37.8297 6.01173 32.0833 9.59923ZM32.1377 9.53401C32.1377 9.53401 33.0646 7.97948 34.5258 4.56592C34.5258 4.55505 33.119 6.88143 32.1377 9.53401Z" fill="#D9D9D9"/>
<path d="M42.7474 8.57699C36.3905 13.2289 32.1926 9.75085 32.1926 9.75085C37.4373 5.45761 42.7474 8.57699 42.7474 8.57699ZM37.7644 9.04441C34.0462 9.34875 32.2689 9.71828 32.2689 9.71828C35.1147 9.63133 37.7644 9.04441 37.7644 9.04441Z" fill="#D9D9D9"/>
<path d="M24.2098 15.2522C24.2098 15.2522 22.2363 10.1537 28.7022 5.62038C28.7022 5.6095 29.9889 11.643 24.2098 15.2522ZM24.2753 15.1761C24.2753 15.1761 25.2021 13.6107 26.6741 10.1863C26.6741 10.1863 25.2567 12.5127 24.2753 15.1761Z" fill="#D9D9D9"/>
<path d="M34.9065 14.2211C28.5277 18.8839 24.3188 15.3949 24.3188 15.3949C29.5855 11.0908 34.9065 14.2211 34.9065 14.2211ZM29.9233 14.6884C26.1942 14.9928 24.4169 15.3731 24.4169 15.3731C27.2519 15.2753 29.9233 14.6884 29.9233 14.6884Z" fill="#D9D9D9"/>
<path d="M18.0389 23.6125C18.0389 23.6125 14.2444 19.6336 18.5186 12.937C18.5295 12.9479 22.0296 18.0682 18.0389 23.6125ZM18.0714 23.5255C18.0714 23.5255 18.3333 21.7209 18.3878 17.9703C18.3878 17.9703 17.9734 20.6772 18.0714 23.5255Z" fill="#D9D9D9"/>
<path d="M27.6009 18.5912C23.4574 25.3639 18.2017 23.7225 18.2017 23.7225C21.451 17.6998 27.6009 18.5912 27.6009 18.5912ZM23.1302 20.9176C19.7719 22.6135 18.2671 23.6464 18.2671 23.6464C20.8841 22.494 23.1302 20.9176 23.1302 20.9176Z" fill="#D9D9D9"/>
<path d="M12.8921 31.8527C12.8921 31.8527 9.04318 27.8086 13.3829 21.0359C13.3829 21.0359 16.9373 26.2215 12.8921 31.8527ZM12.914 31.7658C12.914 31.7658 13.1865 29.9394 13.2302 26.1346C13.241 26.1346 12.8158 28.8741 12.914 31.7658Z" fill="#D9D9D9"/>
<path d="M22.5854 26.7546C18.3874 33.6251 13.0554 31.9618 13.0554 31.9618C16.3375 25.8631 22.5854 26.7546 22.5854 26.7546ZM18.0495 29.1245C14.6475 30.853 13.1209 31.8966 13.1209 31.8966C15.7705 30.7116 18.0495 29.1245 18.0495 29.1245Z" fill="#D9D9D9"/>
<path d="M7.73538 40.0937C7.73538 40.0937 3.8318 35.9953 8.22613 29.1138C8.23704 29.1246 11.8353 34.3864 7.73538 40.0937ZM7.76812 40.0067C7.76812 40.0067 8.04078 38.1478 8.09529 34.2885C8.09529 34.2885 7.65908 37.0716 7.76812 40.0067Z" fill="#D9D9D9"/>
<path d="M17.5586 34.919C13.3062 41.8873 7.89795 40.1914 7.89795 40.1914C11.2345 34.0166 17.5586 34.919 17.5586 34.919ZM12.9682 37.3214C9.52263 39.0716 7.96344 40.1262 7.96344 40.1262C10.6567 38.9412 12.9682 37.3214 12.9682 37.3214Z" fill="#D9D9D9"/>
<path d="M7.58141 51.1049C7.58141 51.1049 2.04236 49.2894 2.65297 40.9294C2.65297 40.9294 8.49733 43.9408 7.58141 51.1049ZM7.55971 51.0071C7.55971 51.0071 6.89453 49.1916 5.06268 45.6693C5.06268 45.6801 6.02226 48.4088 7.55971 51.0071Z" fill="#D9D9D9"/>
<path d="M13.9395 41.6379C13.4925 50.0196 7.77882 51.1176 7.77882 51.1176C7.76792 43.8991 13.9395 41.6379 13.9395 41.6379ZM10.9628 46.0517C8.6948 49.313 7.81156 51.0307 7.81156 51.0307C9.65432 48.639 10.9628 46.0517 10.9628 46.0517Z" fill="#D9D9D9"/>
<path d="M6.94998 60.9124C6.94998 60.9124 1.21437 59.0316 1.85771 50.3782C1.85771 50.3674 7.89864 53.4874 6.94998 60.9124ZM6.92815 60.8037C6.92815 60.8037 6.2412 58.923 4.34388 55.2811C4.34388 55.2811 5.34705 58.1077 6.92815 60.8037Z" fill="#D9D9D9"/>
<path d="M13.5464 51.1055C13.0884 59.7808 7.15674 60.9222 7.15674 60.9222C7.15674 53.4428 13.5464 51.1055 13.5464 51.1055ZM10.4496 55.6713C8.10527 59.0414 7.18936 60.8244 7.18936 60.8244C9.09753 58.3457 10.4496 55.6713 10.4496 55.6713Z" fill="#D9D9D9"/>
<path d="M6.31717 70.7062C6.31717 70.7062 0.396246 68.7602 1.05048 59.8132C1.06139 59.8132 7.30943 63.0311 6.31717 70.7062ZM6.30625 70.5975C6.30625 70.5975 5.59742 68.6515 3.63471 64.8902C3.63471 64.8902 4.67067 67.8144 6.30625 70.5975Z" fill="#D9D9D9"/>
<path d="M13.1435 60.5747C12.6638 69.5434 6.54664 70.7284 6.54664 70.7284C6.53574 62.9881 13.1435 60.5747 13.1435 60.5747ZM9.94867 65.2928C7.52799 68.7824 6.57939 70.6196 6.57939 70.6196C8.55299 68.0541 9.94867 65.2928 9.94867 65.2928Z" fill="#D9D9D9"/>
<path d="M12.03 80.3386C12.03 80.3386 5.77111 81.8823 1.42041 73.6745C1.42041 73.6745 8.67155 73.0767 12.03 80.3386ZM11.9536 80.2517C11.9536 80.2517 10.2636 78.9362 6.46897 76.7077C6.46897 76.7185 8.98769 78.708 11.9536 80.2517Z" fill="#D9D9D9"/>
<path d="M12.4222 67.728C16.9364 75.8488 12.2149 80.23 12.2149 80.23C7.9624 73.4572 12.4222 67.728 12.4222 67.728ZM12.2259 73.6094C12.0187 77.9905 12.2041 80.1213 12.2041 80.1213C12.5203 76.8056 12.2259 73.6094 12.2259 73.6094Z" fill="#D9D9D9"/>
<path d="M16.7188 88.9795C16.7188 88.9795 10.2529 90.5666 5.7605 82.0979C5.7605 82.0871 13.2405 81.4783 16.7188 88.9795ZM16.6316 88.8925C16.6316 88.8925 14.8871 87.5336 10.9726 85.2398C10.9726 85.2398 13.5677 87.2945 16.6316 88.8925Z" fill="#D9D9D9"/>
<path d="M17.1227 75.957C21.7894 84.3387 16.9156 88.8719 16.9156 88.8719C12.5104 81.8709 17.1227 75.957 17.1227 75.957ZM16.9156 82.034C16.7084 86.5673 16.8937 88.7632 16.8937 88.7632C17.2208 85.328 16.9156 82.034 16.9156 82.034Z" fill="#D9D9D9"/>
<path d="M21.3759 97.5697C21.3759 97.5697 14.779 99.1895 10.1885 90.5468C10.1885 90.5359 17.8321 89.9163 21.3759 97.5697ZM21.2887 97.4827C21.2887 97.4827 19.5114 96.102 15.5096 93.7538C15.5096 93.7429 18.1593 95.852 21.2887 97.4827Z" fill="#D9D9D9"/>
<path d="M21.7902 84.2747C26.5443 92.8302 21.5723 97.4504 21.5723 97.4504C17.0908 90.319 21.7902 84.2747 21.7902 84.2747ZM21.5832 90.4712C21.3651 95.0914 21.5613 97.3418 21.5613 97.3418C21.8885 93.8413 21.5832 90.4712 21.5832 90.4712Z" fill="#D9D9D9"/>
<path d="M30.7202 103.201C30.7202 103.201 25.5081 107.592 17.5156 101.842C17.5156 101.842 24.1125 97.8858 30.7202 103.201ZM30.611 103.157C30.611 103.157 28.3867 102.701 23.7418 102.364C23.7418 102.364 27.0673 103.07 30.611 103.157Z" fill="#D9D9D9"/>
<path d="M25.1588 91.0466C33.2714 96.6345 30.8617 103.005 30.8617 103.005C23.6215 98.5696 25.1588 91.0466 25.1588 91.0466ZM27.7323 96.7214C29.6078 100.983 30.7744 102.918 30.7744 102.918C29.5205 99.6132 27.7323 96.7214 27.7323 96.7214Z" fill="#D9D9D9"/>
<path d="M38.6468 108.777C38.6468 108.777 33.4131 113.19 25.377 107.407C25.377 107.407 32.0064 103.44 38.6468 108.777ZM38.5378 108.734C38.5378 108.734 36.3026 108.277 31.6358 107.94C31.6358 107.94 34.9723 108.657 38.5378 108.734Z" fill="#D9D9D9"/>
<path d="M33.0533 96.5691C41.1985 102.19 38.7778 108.582 38.7778 108.582C31.5158 104.136 33.0533 96.5691 33.0533 96.5691ZM35.6483 102.276C37.5347 106.56 38.7014 108.495 38.7014 108.495C37.4366 105.179 35.6483 102.276 35.6483 102.276Z" fill="#D9D9D9"/>
<path d="M46.5963 114.375C46.5963 114.375 41.3078 118.831 33.2063 113.006C33.1954 112.995 39.8904 108.985 46.5963 114.375ZM46.4873 114.332C46.4873 114.332 44.2302 113.876 39.5196 113.527C39.5088 113.527 42.8889 114.256 46.4873 114.332Z" fill="#D9D9D9"/>
<path d="M40.9482 102.049C49.1696 107.712 46.727 114.17 46.727 114.17C39.3998 109.691 40.9482 102.049 40.9482 102.049ZM43.5649 107.81C45.4623 112.126 46.6508 114.094 46.6508 114.094C45.3751 110.735 43.5649 107.81 43.5649 107.81Z" fill="#D9D9D9"/>
<path d="M57.0526 116.822C57.0526 116.822 53.2254 122.908 43.3247 119.68C43.3356 119.669 48.7002 113.582 57.0526 116.822ZM56.9327 116.811C56.9327 116.811 54.5557 117.061 49.7689 118.213C49.7689 118.213 53.3454 117.865 56.9327 116.811Z" fill="#D9D9D9"/>
<path d="M47.5547 106.375C57.5099 109.407 57.1283 116.582 57.1283 116.582C48.427 114.43 47.5547 106.375 47.5547 106.375ZM51.9708 111.256C55.2201 114.941 57.0193 116.506 57.0193 116.506C54.6968 113.593 51.9708 111.256 51.9708 111.256Z" fill="#D9D9D9"/>
<path d="M67.7493 120.223C67.7493 120.223 62.9407 127.855 50.5322 123.801C50.5322 123.811 57.2708 116.168 67.7493 120.223ZM67.5966 120.213C67.5966 120.213 64.6091 120.528 58.6119 121.974C58.6011 121.974 63.0934 121.539 67.5966 120.213Z" fill="#D9D9D9"/>
<path d="M55.8323 107.125C68.3171 110.929 67.8483 119.93 67.8483 119.93C56.9335 117.234 55.8323 107.125 55.8323 107.125ZM61.3715 113.256C65.4495 117.876 67.7065 119.854 67.7065 119.854C64.7952 116.18 61.3715 113.256 61.3715 113.256Z" fill="#D9D9D9"/>
<path d="M99.4472 0C105.892 4.52242 103.918 9.59923 103.918 9.59923C98.1716 6.01173 99.4472 0 99.4472 0ZM101.475 4.55504C102.948 7.9686 103.863 9.52319 103.863 9.52319C102.882 6.88148 101.475 4.55504 101.475 4.55504Z" fill="#D9D9D9"/>
<path d="M103.808 9.75085C103.808 9.75085 99.6103 13.2289 93.2534 8.57699C93.2643 8.57699 98.5635 5.45761 103.808 9.75085ZM103.721 9.71828C103.721 9.71828 101.944 9.33787 98.2364 9.04441C98.2364 9.04441 100.886 9.63133 103.721 9.71828Z" fill="#D9D9D9"/>
<path d="M107.298 5.60913C113.763 10.1533 111.79 15.241 111.79 15.241C106.011 11.6427 107.298 5.60913 107.298 5.60913ZM109.325 10.186C110.797 13.6103 111.724 15.1758 111.724 15.1758C110.743 12.5124 109.325 10.186 109.325 10.186Z" fill="#D9D9D9"/>
<path d="M111.681 15.4033C111.681 15.4033 107.472 18.8922 101.093 14.2294C101.082 14.2186 106.415 11.0883 111.681 15.4033ZM111.594 15.3598C111.594 15.3598 109.816 14.9794 106.088 14.6751C106.088 14.6859 108.747 15.2728 111.594 15.3598Z" fill="#D9D9D9"/>
<path d="M117.472 12.9478C121.745 19.6336 117.952 23.6233 117.952 23.6233C113.971 18.0682 117.472 12.9478 117.472 12.9478ZM117.614 17.9703C117.668 21.7209 117.929 23.5255 117.929 23.5255C118.028 20.6772 117.614 17.9703 117.614 17.9703Z" fill="#D9D9D9"/>
<path d="M117.798 23.7215C117.798 23.7215 112.542 25.3631 108.399 18.5902C108.399 18.5902 114.549 17.6987 117.798 23.7215ZM117.732 23.6563C117.732 23.6563 116.228 22.6235 112.87 20.9276C112.87 20.9167 115.115 22.493 117.732 23.6563Z" fill="#D9D9D9"/>
<path d="M122.618 21.0361C126.958 27.8198 123.11 31.853 123.11 31.853C119.064 26.2217 122.618 21.0361 122.618 21.0361ZM122.76 26.1347C122.815 29.9396 123.087 31.766 123.087 31.766C123.186 28.8742 122.76 26.1347 122.76 26.1347Z" fill="#D9D9D9"/>
<path d="M122.945 31.9611C122.945 31.9611 117.614 33.6244 113.415 26.7539C113.415 26.7539 119.663 25.8624 122.945 31.9611ZM122.88 31.8958C122.88 31.8958 121.354 30.8522 117.952 29.1238C117.952 29.1238 120.23 30.7109 122.88 31.8958Z" fill="#D9D9D9"/>
<path d="M127.764 29.1228C132.159 36.0042 128.255 40.1027 128.255 40.1027C124.166 34.3844 127.764 29.1228 127.764 29.1228ZM127.906 34.2866C127.96 38.1459 128.233 40.0048 128.233 40.0048C128.342 37.0696 127.906 34.2866 127.906 34.2866Z" fill="#D9D9D9"/>
<path d="M128.102 40.2009C128.102 40.2009 122.693 41.886 118.441 34.9284C118.441 34.9175 124.765 34.0151 128.102 40.2009ZM128.026 40.1357C128.026 40.1357 126.478 39.0702 123.021 37.3308C123.031 37.3199 125.344 38.9398 128.026 40.1357Z" fill="#D9D9D9"/>
<path d="M133.346 40.9297C133.958 49.3005 128.418 51.1052 128.418 51.1052C127.502 43.9411 133.346 40.9297 133.346 40.9297ZM130.948 45.6804C129.105 49.2026 128.451 51.0182 128.451 51.0182C129.977 48.4091 130.948 45.6804 130.948 45.6804Z" fill="#D9D9D9"/>
<path d="M128.222 51.1175C128.222 51.1175 122.508 50.0195 122.061 41.6377C122.061 41.6377 128.232 43.8989 128.222 51.1175ZM128.19 51.0305C128.19 51.0305 127.305 49.3128 125.037 46.0514C125.049 46.0514 126.346 48.6388 128.19 51.0305Z" fill="#D9D9D9"/>
<path d="M134.143 50.366C134.776 59.0303 129.051 60.9001 129.051 60.9001C128.102 53.486 134.143 50.366 134.143 50.366ZM131.657 55.2798C129.749 58.9216 129.073 60.8023 129.073 60.8023C130.654 58.1063 131.657 55.2798 131.657 55.2798Z" fill="#D9D9D9"/>
<path d="M128.844 60.9216C128.844 60.9216 122.923 59.7802 122.455 51.105C122.455 51.105 128.855 53.4422 128.844 60.9216ZM128.812 60.8239C128.812 60.8239 127.895 59.0518 125.551 55.6708C125.551 55.6708 126.903 58.3452 128.812 60.8239Z" fill="#D9D9D9"/>
<path d="M134.949 59.8132C135.604 68.771 129.683 70.7062 129.683 70.7062C128.691 63.0311 134.949 59.8132 134.949 59.8132ZM132.365 64.8902C130.402 68.6515 129.694 70.5975 129.694 70.5975C131.329 67.8144 132.365 64.8902 132.365 64.8902Z" fill="#D9D9D9"/>
<path d="M129.466 70.7164C129.466 70.7164 123.337 69.5314 122.868 60.5627C122.858 60.5735 129.466 62.987 129.466 70.7164ZM129.432 70.6185C129.432 70.6185 128.484 68.7813 126.063 65.2917C126.053 65.2917 127.448 68.0529 129.432 70.6185Z" fill="#D9D9D9"/>
<path d="M134.579 73.6745C130.228 81.8823 123.969 80.3386 123.969 80.3386C127.328 73.0767 134.579 73.6745 134.579 73.6745ZM129.53 76.7185C125.736 78.9471 124.046 80.2624 124.046 80.2624C127.012 78.7079 129.53 76.7185 129.53 76.7185Z" fill="#D9D9D9"/>
<path d="M123.785 80.23C123.785 80.23 119.063 75.8488 123.578 67.728C123.578 67.728 128.037 73.4572 123.785 80.23ZM123.806 80.1213C123.806 80.1213 123.992 77.9905 123.785 73.6094C123.785 73.6094 123.479 76.8056 123.806 80.1213Z" fill="#D9D9D9"/>
<path d="M130.239 82.0895C125.747 90.5691 119.281 88.9709 119.281 88.9709C122.759 81.4807 130.239 82.0895 130.239 82.0895ZM125.027 85.2422C121.113 87.5469 119.369 88.8948 119.369 88.8948C122.433 87.2968 125.027 85.2422 125.027 85.2422Z" fill="#D9D9D9"/>
<path d="M119.085 88.8719C119.085 88.8719 114.21 84.3496 118.878 75.957C118.878 75.957 123.489 81.8709 119.085 88.8719ZM119.117 88.7632C119.117 88.7632 119.302 86.5673 119.085 82.034C119.085 82.034 118.779 85.328 119.117 88.7632Z" fill="#D9D9D9"/>
<path d="M125.813 90.5353C121.233 99.1887 114.636 97.5581 114.636 97.5581C118.169 89.9155 125.813 90.5353 125.813 90.5353ZM120.492 93.7423C116.49 96.0904 114.712 97.4711 114.712 97.4711C117.842 95.8513 120.492 93.7423 120.492 93.7423Z" fill="#D9D9D9"/>
<path d="M114.418 97.4503C114.418 97.4503 109.446 92.8301 114.2 84.2744C114.211 84.2744 118.91 90.3188 114.418 97.4503ZM114.451 97.3416C114.451 97.3416 114.636 95.1021 114.429 90.471C114.429 90.471 114.113 93.8411 114.451 97.3416Z" fill="#D9D9D9"/>
<path d="M118.485 101.842C110.492 107.592 105.281 103.201 105.281 103.201C111.888 97.8862 118.485 101.842 118.485 101.842ZM112.259 102.364C107.602 102.701 105.389 103.157 105.389 103.157C108.933 103.071 112.259 102.364 112.259 102.364Z" fill="#D9D9D9"/>
<path d="M105.15 103.005C105.15 103.005 102.74 96.6347 110.852 91.0469C110.842 91.0469 112.379 98.5697 105.15 103.005ZM105.226 102.919C105.226 102.919 106.392 100.983 108.268 96.7217C108.268 96.7217 106.48 99.6133 105.226 102.919Z" fill="#D9D9D9"/>
<path d="M110.623 107.407C102.587 113.19 97.3538 108.777 97.3538 108.777C103.994 103.44 110.623 107.407 110.623 107.407ZM104.365 107.94C99.6981 108.277 97.4628 108.734 97.4628 108.734C101.028 108.657 104.365 107.94 104.365 107.94Z" fill="#D9D9D9"/>
<path d="M97.2212 108.582C97.2212 108.582 94.8005 102.19 102.946 96.5693C102.946 96.5693 104.484 104.136 97.2212 108.582ZM97.2974 108.495C97.2974 108.495 98.4752 106.55 100.351 102.277C100.351 102.277 98.5623 105.18 97.2974 108.495Z" fill="#D9D9D9"/>
<path d="M102.806 112.994C94.6935 118.83 89.416 114.364 89.416 114.364C96.1109 108.983 102.806 112.994 102.806 112.994ZM96.4926 113.526C91.7821 113.864 89.525 114.331 89.525 114.331C93.1124 114.255 96.4926 113.526 96.4926 113.526Z" fill="#D9D9D9"/>
<path d="M89.2734 114.18C89.2734 114.18 86.831 107.722 95.0523 102.058C95.0523 102.048 96.6005 109.69 89.2734 114.18ZM89.3496 114.092C89.3496 114.092 90.5382 112.125 92.4355 107.809C92.4355 107.809 90.6253 110.734 89.3496 114.092Z" fill="#D9D9D9"/>
<path d="M92.6643 119.669C82.7745 122.897 78.9363 116.81 78.9363 116.81C87.2996 113.583 92.6643 119.669 92.6643 119.669ZM86.231 118.213C81.4441 117.06 79.0671 116.81 79.0671 116.81C82.6546 117.865 86.231 118.213 86.231 118.213Z" fill="#D9D9D9"/>
<path d="M78.8703 116.582C78.8703 116.582 78.4887 109.407 88.4439 106.375C88.4439 106.375 87.5716 114.43 78.8703 116.582ZM78.9795 116.517C78.9795 116.517 80.7786 114.941 84.0279 111.266C84.0279 111.256 81.3019 113.593 78.9795 116.517Z" fill="#D9D9D9"/>
<path d="M85.4682 123.813C73.0596 127.868 68.251 120.236 68.251 120.236C78.7296 116.171 85.4682 123.813 85.4682 123.813ZM77.3884 121.976C71.3804 120.541 68.4037 120.214 68.4037 120.214C72.9069 121.541 77.3884 121.976 77.3884 121.976Z" fill="#D9D9D9"/>
<path d="M68.1527 119.93C68.1527 119.93 67.6839 110.928 80.1687 107.124C80.1687 107.124 79.0674 117.234 68.1527 119.93ZM68.2835 119.843C68.2835 119.843 70.5407 117.876 74.6187 113.244C74.6297 113.256 71.2057 116.179 68.2835 119.843Z" fill="#D9D9D9"/>
<g opacity="0.2" filter="url(#filter0_f)">
<path d="M118 125C118 128.314 95.6142 131 68 131C40.3858 131 18 128.314 18 125C18 121.686 40.3858 119 68 119C95.6142 119 118 121.686 118 125Z" fill="black" fill-opacity="0.75"/>
</g>
<defs>
<filter id="filter0_f" x="0" y="101" width="136" height="48" filterUnits="userSpaceOnUse" color-interpolation-filters="sRGB">
<feFlood flood-opacity="0" result="BackgroundImageFix"/>
<feBlend mode="normal" in="SourceGraphic" in2="BackgroundImageFix" result="shape"/>
<feGaussianBlur stdDeviation="9" result="effect1_foregroundBlur"/>
</filter>
</defs>
</svg>
