<svg width="160" height="31" viewBox="0 0 160 31" fill="none" xmlns="http://www.w3.org/2000/svg">
<path fill-rule="evenodd" clip-rule="evenodd" d="M26.2811 7.58118L13.143 0L0 7.586V22.7628L13.143 30.3488L26.2811 22.7628V11.3597L22.9942 13.2634V20.8639L13.143 26.551L3.28695 20.8639V9.48491L13.143 3.793L19.7217 7.59564L16.4444 9.49455L13.143 7.586L6.56907 11.379V18.965L13.143 22.7628L19.712 18.965V15.1624L13.143 18.9602V15.1816L26.2763 7.586L26.2811 7.58118Z" fill="white"/>
<path fill-rule="evenodd" clip-rule="evenodd" d="M139.512 8.03919C138.102 8.0306 136.722 8.44078 135.545 9.21774C134.369 9.99469 133.45 11.1034 132.904 12.4034C132.359 13.7033 132.212 15.136 132.482 16.5197C132.751 17.9034 133.426 19.1758 134.42 20.1757C135.414 21.1756 136.682 21.8579 138.064 22.1361C139.446 22.4143 140.879 22.2759 142.183 21.7384C143.486 21.2009 144.6 20.2885 145.384 19.117C146.168 17.9454 146.587 16.5674 146.587 15.1577C146.59 14.2256 146.41 13.3021 146.056 12.4398C145.702 11.5776 145.182 10.7935 144.525 10.1324C143.868 9.47135 143.087 8.94622 142.227 8.58705C141.366 8.22789 140.444 8.04172 139.512 8.03919ZM139.512 18.9218C138.767 18.9266 138.036 18.7099 137.414 18.2992C136.792 17.8885 136.306 17.3023 136.017 16.6149C135.729 15.9276 135.651 15.17 135.793 14.4382C135.936 13.7065 136.292 13.0336 136.818 12.5047C137.343 11.9759 138.014 11.615 138.745 11.4678C139.475 11.3206 140.234 11.3937 140.923 11.6779C141.612 11.9621 142.201 12.4445 142.616 13.064C143.031 13.6835 143.252 14.4122 143.252 15.1577C143.255 16.1526 142.862 17.1079 142.161 17.8136C141.46 18.5194 140.507 18.918 139.512 18.9218Z" fill="white"/>
<path d="M68.5487 2.87256H65.2184V22.2713H68.5487V2.87256Z" fill="white"/>
<path fill-rule="evenodd" clip-rule="evenodd" d="M155.59 13.4951H151.86C151.594 13.4771 151.345 13.3588 151.163 13.1642C150.981 12.9696 150.88 12.7132 150.88 12.4469C150.88 12.1805 150.981 11.9241 151.163 11.7295C151.345 11.5349 151.594 11.4166 151.86 11.3986H158.525V8.0249H151.86C150.691 8.0249 149.571 8.48901 148.745 9.31512C147.919 10.1412 147.455 11.2617 147.455 12.43C147.455 13.5983 147.919 14.7187 148.745 15.5449C149.571 16.371 150.691 16.8351 151.86 16.8351H155.595C155.861 16.8531 156.11 16.9714 156.291 17.166C156.473 17.3606 156.574 17.617 156.574 17.8833C156.574 18.1497 156.473 18.4061 156.291 18.6007C156.11 18.7953 155.861 18.9136 155.595 18.9316H148.366V22.3053H155.595C156.763 22.3053 157.884 21.8412 158.71 21.0151C159.536 20.1889 160 19.0685 160 17.9002C160 16.7319 159.536 15.6114 158.71 14.7853C157.884 13.9592 156.763 13.4951 155.595 13.4951" fill="white"/>
<path fill-rule="evenodd" clip-rule="evenodd" d="M56.4226 18.9167C55.6758 18.9224 54.9441 18.7062 54.3204 18.2953C53.6967 17.8845 53.2092 17.2976 52.9196 16.6091C52.63 15.9207 52.5516 15.1618 52.6941 14.4286C52.8366 13.6955 53.1938 13.0213 53.7202 12.4915C54.2466 11.9617 54.9185 11.6002 55.6507 11.453C56.3829 11.3058 57.1423 11.3794 57.8326 11.6645C58.5229 11.9496 59.1129 12.4334 59.5277 13.0545C59.9426 13.6755 60.1636 14.4058 60.1626 15.1526C60.1639 16.1472 59.7711 17.1017 59.0701 17.8072C58.3691 18.5126 57.4171 18.9116 56.4226 18.9167ZM56.4226 8.02931C55.3199 8.02703 54.2317 8.2808 53.2437 8.77065C52.2557 9.2605 51.3949 9.97304 50.7292 10.8522C50.0634 11.7313 49.6109 12.7529 49.4071 13.8367C49.2034 14.9205 49.2541 16.0368 49.5552 17.0976C49.8563 18.1585 50.3996 19.1349 51.1423 19.9501C51.885 20.7652 52.8068 21.3968 53.8351 21.7951C54.8635 22.1934 55.9702 22.3475 57.0682 22.2453C58.1662 22.143 59.2255 21.7873 60.1626 21.206V22.2904H63.4929V15.1526C63.4967 14.2206 63.3168 13.2969 62.9635 12.4344C62.6102 11.5719 62.0904 10.7875 61.4338 10.1259C60.7772 9.46442 59.9967 8.93876 59.1368 8.57901C58.277 8.21926 57.3547 8.03247 56.4226 8.02931Z" fill="white"/>
<path fill-rule="evenodd" clip-rule="evenodd" d="M77.3444 18.9172C76.5976 18.9229 75.8659 18.7066 75.2422 18.2958C74.6185 17.8849 74.131 17.2981 73.8414 16.6096C73.5518 15.9212 73.4733 15.1622 73.6159 14.4291C73.7584 13.696 74.1155 13.0217 74.6419 12.492C75.1683 11.9622 75.8403 11.6007 76.5725 11.4535C77.3047 11.3062 78.0641 11.3798 78.7544 11.665C79.4447 11.9501 80.0347 12.4339 80.4495 13.0549C80.8644 13.676 81.0853 14.4063 81.0844 15.1531C81.0857 16.1476 80.6928 17.1021 79.9919 17.8076C79.2909 18.5131 78.3389 18.9121 77.3444 18.9172ZM77.3444 8.02979C75.4879 8.07809 73.7237 8.84952 72.4277 10.1797C71.1317 11.5098 70.4064 13.2936 70.4064 15.1507C70.4064 17.0078 71.1317 18.7915 72.4277 20.1217C73.7237 21.4519 75.4879 22.2233 77.3444 22.2716C78.6665 22.276 79.963 21.9068 81.0844 21.2065V22.2909H84.4196V15.1531C84.4227 14.2208 84.2422 13.297 83.8884 12.4345C83.5345 11.572 83.0143 10.7876 82.3573 10.1261C81.7003 9.46466 80.9195 8.93908 80.0593 8.57939C79.1992 8.2197 78.2767 8.03294 77.3444 8.02979Z" fill="white"/>
<path fill-rule="evenodd" clip-rule="evenodd" d="M108.378 18.9167C107.631 18.9224 106.899 18.7062 106.275 18.2953C105.652 17.8845 105.164 17.2976 104.875 16.6091C104.585 15.9207 104.507 15.1618 104.649 14.4286C104.792 13.6955 105.149 13.0213 105.675 12.4915C106.202 11.9617 106.873 11.6002 107.606 11.453C108.338 11.3058 109.097 11.3794 109.788 11.6645C110.478 11.9496 111.068 12.4334 111.483 13.0545C111.898 13.6755 112.119 14.4058 112.118 15.1526C112.119 16.1472 111.726 17.1017 111.025 17.8072C110.324 18.5126 109.372 18.9116 108.378 18.9167ZM108.378 8.02931C107.275 8.02703 106.187 8.2808 105.199 8.77065C104.211 9.2605 103.35 9.97304 102.684 10.8522C102.018 11.7313 101.566 12.7529 101.362 13.8367C101.158 14.9205 101.209 16.0368 101.51 17.0976C101.811 18.1585 102.355 19.1349 103.097 19.9501C103.84 20.7652 104.762 21.3968 105.79 21.7951C106.818 22.1934 107.925 22.3475 109.023 22.2453C110.121 22.143 111.18 21.7873 112.118 21.206V22.2904H115.448V15.1526C115.452 14.2206 115.272 13.2969 114.918 12.4344C114.565 11.5719 114.045 10.7875 113.389 10.1259C112.732 9.46442 111.952 8.93876 111.092 8.57901C110.232 8.21926 109.31 8.03247 108.378 8.02931Z" fill="white"/>
<path fill-rule="evenodd" clip-rule="evenodd" d="M93.3213 18.9172C92.5745 18.9229 91.8428 18.7066 91.2191 18.2958C90.5954 17.8849 90.1079 17.2981 89.8183 16.6096C89.5287 15.9212 89.4503 15.1622 89.5928 14.4291C89.7353 13.696 90.0925 13.0217 90.6189 12.492C91.1453 11.9622 91.8172 11.6007 92.5494 11.4535C93.2816 11.3062 94.041 11.3798 94.7313 11.665C95.4216 11.9501 96.0116 12.4339 96.4264 13.0549C96.8413 13.676 97.0622 14.4063 97.0613 15.1531C97.0626 16.1476 96.6697 17.1021 95.9688 17.8076C95.2678 18.5131 94.3158 18.9121 93.3213 18.9172ZM93.3213 8.02979C91.4427 8.04253 89.6457 8.79941 88.324 10.1346C87.0024 11.4698 86.2639 13.2744 86.2703 15.1531V29.3997H89.6006V21.2065C90.5348 21.7771 91.5883 22.124 92.6788 22.22C93.7693 22.3161 94.8672 22.1586 95.8867 21.7599C96.9063 21.3613 97.8198 20.7322 98.5559 19.922C99.292 19.1117 99.8308 18.1422 100.13 17.0892C100.429 16.0362 100.481 14.9283 100.281 13.852C100.081 12.7757 99.6354 11.7602 98.978 10.8849C98.3206 10.0095 97.4696 9.29811 96.4917 8.80617C95.5138 8.31422 94.4353 8.05511 93.3406 8.04906L93.3213 8.02979Z" fill="white"/>
<path fill-rule="evenodd" clip-rule="evenodd" d="M124.046 18.9167C123.299 18.9224 122.568 18.7062 121.944 18.2953C121.32 17.8845 120.833 17.2976 120.543 16.6091C120.253 15.9207 120.175 15.1618 120.317 14.4286C120.46 13.6955 120.817 13.0213 121.344 12.4915C121.87 11.9617 122.542 11.6002 123.274 11.453C124.006 11.3058 124.766 11.3794 125.456 11.6645C126.146 11.9496 126.736 12.4334 127.151 13.0545C127.566 13.6755 127.787 14.4058 127.786 15.1526C127.787 16.1472 127.394 17.1017 126.693 17.8072C125.993 18.5126 125.041 18.9116 124.046 18.9167ZM124.046 8.02931C122.943 8.02703 121.855 8.2808 120.867 8.77065C119.879 9.2605 119.018 9.97304 118.353 10.8522C117.687 11.7313 117.234 12.7529 117.031 13.8367C116.827 14.9205 116.878 16.0368 117.179 17.0976C117.48 18.1585 118.023 19.1349 118.766 19.9501C119.508 20.7652 120.43 21.3968 121.459 21.7951C122.487 22.1934 123.594 22.3475 124.692 22.2453C125.79 22.143 126.849 21.7873 127.786 21.206V22.2904C127.799 23.2286 127.458 24.1373 126.831 24.8357C126.205 25.5341 125.338 25.971 124.404 26.0597C123.47 26.1484 122.537 25.8822 121.79 25.3142C121.043 24.7462 120.538 23.9179 120.374 22.9941L117.429 24.7821C118.002 26.34 119.105 27.6463 120.545 28.4716C121.985 29.2969 123.67 29.5885 125.304 29.2951C126.937 29.0017 128.416 28.1422 129.479 26.8673C130.541 25.5925 131.121 23.984 131.116 22.3242V15.1526C131.123 13.2706 130.382 11.4631 129.056 10.1274C127.73 8.79161 125.928 8.03697 124.046 8.02931Z" fill="white"/>
<path fill-rule="evenodd" clip-rule="evenodd" d="M40.8892 18.9167C40.1424 18.9224 39.4107 18.7062 38.787 18.2953C38.1633 17.8845 37.6757 17.2976 37.3862 16.6091C37.0966 15.9207 37.0181 15.1618 37.1606 14.4286C37.3032 13.6955 37.6603 13.0213 38.1867 12.4915C38.7131 11.9617 39.3851 11.6002 40.1172 11.453C40.8494 11.3058 41.6089 11.3794 42.2991 11.6645C42.9894 11.9496 43.5794 12.4334 43.9943 13.0545C44.4091 13.6755 44.6301 14.4058 44.6292 15.1526C44.6305 16.1472 44.2376 17.1017 43.5366 17.8072C42.8357 18.5126 41.8837 18.9116 40.8892 18.9167ZM40.8892 8.02931C39.7864 8.02703 38.6982 8.2808 37.7102 8.77065C36.7222 9.2605 35.8615 9.97304 35.1957 10.8522C34.53 11.7313 34.0774 12.7529 33.8737 13.8367C33.67 14.9205 33.7207 16.0368 34.0218 17.0976C34.3229 18.1585 34.8662 19.1349 35.6089 19.9501C36.3516 20.7652 37.2734 21.3968 38.3017 21.7951C39.33 22.1934 40.4368 22.3475 41.5348 22.2453C42.6328 22.143 43.692 21.7873 44.6292 21.206V22.2904C44.6419 23.2286 44.3011 24.1373 43.6745 24.8357C43.0479 25.5341 42.1814 25.971 41.2473 26.0597C40.3132 26.1484 39.38 25.8822 38.6332 25.3142C37.8863 24.7462 37.3807 23.9179 37.2167 22.9941L34.2719 24.7821C34.8447 26.34 35.948 27.6463 37.3882 28.4716C38.8283 29.2969 40.5131 29.5885 42.1468 29.2951C43.7805 29.0017 45.2587 28.1422 46.3217 26.8673C47.3846 25.5925 47.9645 23.984 47.9595 22.3242V15.1526C47.9659 13.2706 47.2247 11.4631 45.8989 10.1274C44.5731 8.79161 42.7712 8.03697 40.8892 8.02931Z" fill="white"/>
</svg>
