<svg width="200" height="38" viewBox="0 0 200 38" fill="none" xmlns="http://www.w3.org/2000/svg">
<path d="M64.2392 23.9101L66.8139 29.8961H70.0768L60.3504 7.44727H57.0875L47.3611 29.8961H50.624L53.2284 23.9101H64.2392ZM54.5424 20.9171L58.7338 11.2204L62.9251 20.9171H54.5424Z" fill="white"/>
<path d="M73.2415 7.44775V29.8965H76.2344V7.44775H73.2415Z" fill="white"/>
<path d="M88.3178 23.1597L93.6453 29.8931H97.5045L91.9664 22.9194C93.675 22.4715 95.078 21.5727 96.1874 20.1637C97.3235 18.7281 97.896 17.1085 97.896 15.2872C97.896 13.101 97.1159 11.2738 95.5912 9.74913C94.0635 8.2215 92.2096 7.44434 90.0235 7.44434H81.0415V29.8931H84.0345V23.1597H88.3178V23.1597ZM93.4643 11.8493C94.4225 12.8044 94.903 13.9435 94.903 15.2901C94.903 16.6368 94.4225 17.7729 93.4643 18.731C92.5359 19.6862 91.3701 20.1667 90.0235 20.1667H84.0375V10.4403H90.0235C91.3672 10.4403 92.5359 10.9208 93.4643 11.8493Z" fill="white"/>
<path d="M124.533 26.604C126.716 24.4208 127.825 21.7541 127.825 18.6722C127.825 15.5902 126.716 12.9235 124.533 10.7403C122.346 8.55714 119.683 7.44775 116.601 7.44775H108.369V29.8965H116.601C119.683 29.8965 122.346 28.7872 124.533 26.604ZM116.601 26.9036H111.362V10.4407H116.601C118.873 10.4407 120.819 11.2505 122.438 12.8345C124.022 14.4511 124.832 16.397 124.832 18.6722C124.832 20.9473 124.022 22.8932 122.438 24.4772C120.819 26.0938 118.873 26.9036 116.601 26.9036Z" fill="white"/>
<path d="M137.595 26.9021C136.367 26.9021 135.29 26.4542 134.421 25.585C133.94 25.1045 133.581 24.5379 133.344 23.9091H144.957C145.467 21.3047 144.779 19.0325 142.892 17.1134C141.427 15.648 139.662 14.9302 137.598 14.9302C135.53 14.9302 133.765 15.648 132.3 17.1134C130.835 18.5817 130.117 20.3466 130.117 22.4111C130.117 24.4757 130.835 26.2406 132.3 27.7089C133.765 29.1742 135.53 29.8921 137.598 29.8921C139.662 29.8921 141.427 29.1742 142.892 27.7089L140.766 25.5821C139.897 26.4512 138.817 26.9021 137.595 26.9021ZM137.595 17.9232C138.82 17.9232 139.897 18.3711 140.766 19.2402C141.276 19.7504 141.635 20.2873 141.842 20.9161H133.344C133.581 20.2873 133.943 19.7504 134.421 19.2402C135.287 18.3711 136.367 17.9232 137.595 17.9232Z" fill="white"/>
<path d="M150.434 23.0405L152.917 24.3872C153.308 24.5682 153.546 24.8677 153.635 25.2534C153.726 25.6419 153.664 26.0335 153.457 26.4191C153.216 26.867 152.828 27.137 152.258 27.1666C151.686 27.1963 151.267 26.9857 150.971 26.5971L148.488 28.2434C149.505 29.5604 150.822 30.1892 152.436 30.1003C154.082 30.038 155.31 29.2905 156.088 27.8548C156.716 26.7454 156.835 25.6093 156.506 24.4139C156.177 23.2452 155.459 22.3464 154.352 21.7472L151.867 20.4005C151.478 20.2226 151.238 19.923 151.149 19.5344C151.06 19.1458 151.119 18.7542 151.33 18.3686C151.567 17.9207 151.959 17.6508 152.528 17.6211C153.098 17.5915 153.516 17.8021 153.813 18.1907L156.298 16.5444C155.278 15.2273 153.961 14.5985 152.347 14.6904C150.701 14.7498 149.473 15.4973 148.696 16.9359C148.07 18.0423 147.948 19.1814 148.277 20.3768C148.607 21.5455 149.325 22.4413 150.434 23.0405Z" fill="white"/>
<path d="M160.355 14.9317V29.8965H163.348V14.9317H160.355ZM160.595 7.98465C160.236 8.34357 160.055 8.76478 160.055 9.27201C160.055 9.77925 160.236 10.2005 160.595 10.5268C160.921 10.8857 161.343 11.0666 161.85 11.0666C162.36 11.0666 162.778 10.8857 163.137 10.5268C163.493 10.2005 163.674 9.77925 163.674 9.27201C163.674 8.76182 163.493 8.31391 163.137 7.98465C162.808 7.6287 162.357 7.44775 161.85 7.44775C161.346 7.44775 160.921 7.6287 160.595 7.98465Z" fill="white"/>
<path d="M178.814 29.8951C178.814 31.1231 178.366 32.1998 177.497 33.069C176.631 33.9351 175.551 34.386 174.323 34.386C173.095 34.386 172.018 33.9381 171.149 33.069L169.022 35.1958C170.491 36.6611 172.256 37.379 174.32 37.379C176.385 37.379 178.15 36.6611 179.618 35.1958C181.083 33.6978 181.801 31.9299 181.801 29.898V14.9302H180.306L178.808 16.4281C177.491 15.4404 175.996 14.9302 174.317 14.9302C172.253 14.9302 170.488 15.648 169.019 17.1134C167.554 18.5817 166.836 20.3466 166.836 22.4111C166.836 24.4757 167.554 26.2406 169.019 27.7089C170.488 29.1742 172.253 29.8921 174.317 29.8921C175.963 29.8921 177.458 29.3819 178.808 28.3941V29.8951H178.814ZM171.149 25.585C170.283 24.7189 169.832 23.6392 169.832 22.4111C169.832 21.1831 170.28 20.1063 171.149 19.2372C172.018 18.3681 173.095 17.9202 174.323 17.9202C175.551 17.9202 176.628 18.3681 177.497 19.2372C178.366 20.1063 178.814 21.1831 178.814 22.4111C178.814 23.6392 178.366 24.7159 177.497 25.585C176.631 26.4512 175.551 26.9021 174.323 26.9021C173.095 26.9021 172.018 26.4512 171.149 25.585Z" fill="white"/>
<path d="M189.404 19.1809C190.271 18.3414 191.288 17.9232 192.516 17.9232C193.744 17.9232 194.821 18.3711 195.69 19.2402C196.556 20.1063 197.007 21.1861 197.007 22.4141V29.898H200V22.4111C200 20.3466 199.282 18.5817 197.817 17.1134C196.349 15.648 194.584 14.9302 192.519 14.9302C190.873 14.9302 189.378 15.4404 188.028 16.4281L186.533 14.9302H185.035V29.8951H188.028V22.2302C188.058 21.0348 188.538 20.0173 189.404 19.1809Z" fill="white"/>
<path d="M48.2281 0.0554296C47.6027 0.14803 47.3853 0.186863 46.9207 0.291412C45.5448 0.599085 43.1593 1.31002 41.5332 1.89848C33.8168 4.68845 28.3817 10.9226 23.1461 16.9356C17.0737 23.9106 10.3639 28.212 1.2538 30.3597C0.988744 30.4225 0 30.6166 0 30.6166C0 30.6166 0.94705 30.769 3.08238 30.769C13.7292 30.769 24.9717 29.4995 33.4565 20.2842C38.2066 15.218 40.0382 8.09078 44.8658 3.25165C46.1076 2.00901 47.1351 1.21742 48.3234 0.378038C48.5944 0.186863 48.8684 0.00763571 48.8684 0.00763571C48.8684 0.00763571 48.788 -0.0282097 48.2281 0.0554296Z" fill="white"/>
</svg>
