<svg width="160" height="30" viewBox="0 0 160 30" fill="none" xmlns="http://www.w3.org/2000/svg">
<path d="M51.3913 19.1288L53.4511 23.9175H56.0614L48.2803 5.9585H45.6699L37.8888 23.9175H40.4991L42.5826 19.1288H51.3913ZM43.6339 16.7344L46.987 8.97698L50.3401 16.7344H43.6339Z" fill="#333333"/>
<path d="M58.593 5.95874V23.9178H60.9874V5.95874H58.593Z" fill="#333333"/>
<path d="M70.654 18.5281L74.916 23.9149H78.0033L73.5729 18.3359C74.9397 17.9776 76.0622 17.2585 76.9497 16.1313C77.8585 14.9828 78.3165 13.6871 78.3165 12.2301C78.3165 10.4812 77.6924 9.01939 76.4727 7.79965C75.2506 6.57754 73.7674 5.95581 72.0185 5.95581H64.833V23.9149H67.2274V18.5281H70.654ZM74.7712 9.47975C75.5377 10.2439 75.9221 11.1551 75.9221 12.2325C75.9221 13.3098 75.5377 14.2187 74.7712 14.9852C74.0285 15.7493 73.0959 16.1337 72.0185 16.1337H67.2298V8.35257H72.0185C73.0935 8.35257 74.0285 8.737 74.7712 9.47975Z" fill="#333333"/>
<path d="M99.626 21.2837C101.373 19.5372 102.26 17.4038 102.26 14.9383C102.26 12.4727 101.373 10.3393 99.626 8.5928C97.8771 6.84625 95.7462 5.95874 93.2806 5.95874H86.6954V23.9178H93.2806C95.7462 23.9178 97.8771 23.0303 99.626 21.2837ZM93.2806 21.5234H89.0898V8.35312H93.2806C95.0983 8.35312 96.655 9.00096 97.9507 10.2682C99.2179 11.5615 99.8657 13.1182 99.8657 14.9383C99.8657 16.7584 99.2179 18.3151 97.9507 19.5823C96.655 20.8756 95.0983 21.5234 93.2806 21.5234Z" fill="#333333"/>
<path d="M110.076 21.5221C109.093 21.5221 108.232 21.1638 107.537 20.4685C107.152 20.0841 106.865 19.6308 106.675 19.1277H115.966C116.374 17.0442 115.823 15.2265 114.314 13.6911C113.142 12.5189 111.73 11.9446 110.078 11.9446C108.424 11.9446 107.012 12.5189 105.84 13.6911C104.668 14.8658 104.093 16.2777 104.093 17.9293C104.093 19.581 104.668 20.9929 105.84 22.1676C107.012 23.3398 108.424 23.9141 110.078 23.9141C111.73 23.9141 113.142 23.3398 114.314 22.1676L112.612 20.4661C111.917 21.1614 111.053 21.5221 110.076 21.5221ZM110.076 14.339C111.056 14.339 111.917 14.6973 112.612 15.3926C113.021 15.8007 113.308 16.2303 113.474 16.7333H106.675C106.865 16.2303 107.154 15.8007 107.537 15.3926C108.229 14.6973 109.093 14.339 110.076 14.339Z" fill="#333333"/>
<path d="M120.347 18.4334L122.333 19.5108C122.647 19.6556 122.836 19.8952 122.908 20.2037C122.981 20.5146 122.931 20.8278 122.765 21.1363C122.573 21.4946 122.262 21.7106 121.807 21.7343C121.349 21.7581 121.014 21.5896 120.777 21.2787L118.79 22.5957C119.604 23.6494 120.658 24.1524 121.949 24.0812C123.266 24.0314 124.248 23.4334 124.87 22.2849C125.373 21.3974 125.468 20.4885 125.205 19.5322C124.941 18.5972 124.367 17.8782 123.482 17.3988L121.493 16.3215C121.182 16.1791 120.99 15.9394 120.919 15.6285C120.848 15.3177 120.895 15.0044 121.064 14.6959C121.254 14.3376 121.567 14.1217 122.023 14.0979C122.478 14.0742 122.813 14.2427 123.05 14.5536L125.039 13.2365C124.222 12.1829 123.169 11.6798 121.878 11.7534C120.561 11.8008 119.578 12.3988 118.957 13.5498C118.456 14.4349 118.359 15.3461 118.622 16.3025C118.885 17.2374 119.46 17.9541 120.347 18.4334Z" fill="#333333"/>
<path d="M128.284 11.9459V23.9178H130.678V11.9459H128.284ZM128.476 6.38826C128.189 6.67539 128.044 7.01236 128.044 7.41815C128.044 7.82394 128.189 8.16091 128.476 8.42194C128.737 8.70908 129.074 8.85383 129.48 8.85383C129.888 8.85383 130.223 8.70908 130.51 8.42194C130.795 8.16091 130.939 7.82394 130.939 7.41815C130.939 7.00999 130.795 6.65166 130.51 6.38826C130.246 6.10349 129.886 5.95874 129.48 5.95874C129.076 5.95874 128.737 6.10349 128.476 6.38826Z" fill="#333333"/>
<path d="M143.051 23.9165C143.051 24.8989 142.693 25.7603 141.998 26.4556C141.305 27.1485 140.441 27.5092 139.458 27.5092C138.476 27.5092 137.615 27.1509 136.919 26.4556L135.218 28.1571C136.392 29.3294 137.804 29.9036 139.456 29.9036C141.108 29.9036 142.52 29.3294 143.694 28.1571C144.867 26.9587 145.441 25.5444 145.441 23.9189V11.9446H144.245L143.046 13.143C141.993 12.3527 140.797 11.9446 139.454 11.9446C137.802 11.9446 136.39 12.5189 135.215 13.6911C134.043 14.8658 133.469 16.2777 133.469 17.9293C133.469 19.581 134.043 20.9929 135.215 22.1676C136.39 23.3398 137.802 23.9141 139.454 23.9141C140.771 23.9141 141.967 23.506 143.046 22.7157V23.9165H143.051ZM136.919 20.4685C136.226 19.7756 135.866 18.9118 135.866 17.9293C135.866 16.9469 136.224 16.0855 136.919 15.3902C137.615 14.6949 138.476 14.3366 139.458 14.3366C140.441 14.3366 141.302 14.6949 141.998 15.3902C142.693 16.0855 143.051 16.9469 143.051 17.9293C143.051 18.9118 142.693 19.7732 141.998 20.4685C141.305 21.1614 140.441 21.5221 139.458 21.5221C138.476 21.5221 137.615 21.1614 136.919 20.4685Z" fill="#333333"/>
<path d="M151.524 15.3451C152.217 14.6736 153.031 14.339 154.013 14.339C154.995 14.339 155.857 14.6973 156.552 15.3926C157.245 16.0855 157.606 16.9493 157.606 17.9317V23.9189H160V17.9293C160 16.2777 159.426 14.8658 158.254 13.6911C157.079 12.5189 155.667 11.9446 154.015 11.9446C152.698 11.9446 151.502 12.3527 150.423 13.143L149.227 11.9446H148.028V23.9165H150.423V17.7846C150.446 16.8283 150.831 16.0143 151.524 15.3451Z" fill="#333333"/>
<path d="M38.5825 0.0443437C38.0822 0.118424 37.9082 0.14949 37.5366 0.23313C36.4358 0.479268 34.5275 1.04802 33.2266 1.51879C27.0535 3.75076 22.7054 8.73806 18.5169 13.5485C13.659 19.1285 8.29116 22.5696 1.00304 24.2878C0.790996 24.338 0 24.4933 0 24.4933C0 24.4933 0.757641 24.6152 2.46591 24.6152C10.9834 24.6152 19.9774 23.5996 26.7652 16.2274C30.5653 12.1744 32.0306 6.47263 35.8926 2.60132C36.8861 1.60721 37.7081 0.973936 38.6587 0.302431C38.8755 0.14949 39.0947 0.00610857 39.0947 0.00610857C39.0947 0.00610857 39.0304 -0.0225678 38.5825 0.0443437Z" fill="#333333"/>
</svg>
